<svg width="100" height="100" viewBox="0 0 100 100" fill="none" xmlns="http://www.w3.org/2000/svg">
<g clip-path="url(#clip0_1_74)">
<path d="M21.1132 85C17.7348 85 15 82.2797 15 78.9339V74.1916C15 73.2121 29.9758 72.7175 59.9275 72.7078C60.571 72.7078 61.1121 73.2315 61.1121 73.8716C61.1121 73.9152 61.1121 73.9443 61.1121 73.988C61.1121 74.2062 60.8635 78.803 62.9549 81.0141C63.7153 81.8142 64.7391 82.207 65.9383 82.1779C65.9822 82.1779 66.0407 82.1779 66.0846 82.1779H66.8304C68.8925 82.1779 70.5598 80.505 70.5598 78.4684V23.3936C70.5598 22.739 71.0863 22.2153 71.7444 22.2153C72.4025 22.2153 72.929 22.739 72.929 23.3936V78.4684C72.929 81.8142 70.1941 84.5345 66.8304 84.5345L21.1132 84.9855V85ZM17.3692 75.2826V78.9194C17.3692 80.9705 19.0365 82.6289 21.0986 82.6289L60.8489 82.2361C59.6058 80.6941 58.8745 78.4102 58.7283 75.5008C58.7283 75.3554 58.7283 75.1954 58.7136 75.0644C36.5424 75.0644 21.3179 75.1517 17.3692 75.2826Z" fill="white"/>
<path d="M24.6816 69.3475C24.0235 69.3475 23.497 68.8238 23.497 68.1692V21.0661C23.4824 17.7203 26.2172 15 29.5809 15H77.8868C81.2651 15 84 17.7203 84 21.0661V25.6193C84 26.2739 83.4735 26.7976 82.8154 26.7976H77.2725C76.6144 26.7976 76.0879 26.2739 76.0879 25.6193C76.0879 24.9647 76.6144 24.441 77.2725 24.441H81.6161V21.0661C81.6161 19.015 79.9489 17.3566 77.8868 17.3566H29.5809C27.5335 17.3566 25.8516 19.015 25.8516 21.0661V68.1546C25.8516 68.8092 25.3251 69.3329 24.667 69.3329" fill="white"/>
<path d="M71.7444 23.6991C71.0862 23.6991 70.5598 23.1754 70.5598 22.5208C70.5598 16.9057 74.7863 15.1455 77.0239 15C77.6089 14.9709 78.2378 15.451 78.2817 16.1056C78.3255 16.7602 77.8283 17.313 77.1702 17.3712C76.7461 17.4003 72.9143 17.8367 72.9143 22.5208C72.9143 23.1754 72.3879 23.6991 71.7297 23.6991" fill="white"/>
<path d="M61.4339 58.83H35.5187C34.8605 58.83 34.334 58.3063 34.334 57.6517C34.334 56.9971 34.8605 56.4734 35.5187 56.4734H61.4339C62.092 56.4734 62.6185 56.9971 62.6185 57.6517C62.6185 58.3063 62.092 58.83 61.4339 58.83Z" fill="white"/>
<path d="M61.4339 49.7091H35.5187C34.8605 49.7091 34.334 49.1854 34.334 48.5308C34.334 47.8761 34.8605 47.3524 35.5187 47.3524H61.4339C62.092 47.3524 62.6185 47.8761 62.6185 48.5308C62.6185 49.1854 62.092 49.7091 61.4339 49.7091Z" fill="white"/>
<path d="M61.4339 40.1517H35.5187C34.8605 40.1517 34.334 39.628 34.334 38.9734C34.334 38.3188 34.8605 37.7951 35.5187 37.7951H61.4339C62.092 37.7951 62.6185 38.3188 62.6185 38.9734C62.6185 39.628 62.092 40.1517 61.4339 40.1517Z" fill="white"/>
<path d="M55.9788 28.8633H40.7836C40.1255 28.8633 39.599 28.3396 39.599 27.685C39.599 27.0303 40.1255 26.5067 40.7836 26.5067H55.9788C56.6369 26.5067 57.1634 27.0303 57.1634 27.685C57.1634 28.3396 56.6369 28.8633 55.9788 28.8633Z" fill="white"/>
</g>
<defs>
<clipPath id="clip0_1_74">
<rect width="69" height="70" fill="white" transform="translate(15 15)"/>
</clipPath>
</defs>
</svg>
