<svg width="100" height="100" viewBox="0 0 100 100" fill="none" xmlns="http://www.w3.org/2000/svg">
<g clip-path="url(#clip0_1_23)">
<path d="M76.195 71.5522H32.3604M61.1578 60.3149V36.4603H72.8717C75.0415 36.4603 77.0327 37.6573 78.0902 39.5865L84.6406 51.5279C85.1213 52.401 85.3822 53.4008 85.3822 54.4147V67.6375C85.3547 69.8061 83.6519 71.5663 81.5233 71.5663H76.1813M72.7207 41.8677L78.0215 51.5701C78.406 52.2601 77.9116 53.1191 77.1426 53.1191H66.7882" stroke="white" stroke-width="1.62" stroke-linecap="round" stroke-linejoin="round"/>
<path d="M26.8673 75.4951C26.8673 77.6778 25.137 79.4521 23.0084 79.4521C20.8799 79.4521 19.1496 77.6778 19.1496 75.4951C19.1496 73.3125 20.8799 71.5382 23.0084 71.5382M35.6837 31.0388L30.685 51.6687C30.4653 52.584 31.1382 53.4712 32.072 53.4712H46.7522M29.4216 29.4335L24.4229 50.0634C24.2032 50.9787 23.2007 51.4434 22.3767 50.9928L9.39939 43.9519M16.0735 58.428H8.79515V71.5522M69.2051 75.4951C69.2051 77.6778 67.4748 79.4521 65.3462 79.4521C63.2177 79.4521 61.4873 77.6778 61.4873 75.4951C61.4873 73.3125 63.2177 71.5382 65.3462 71.5382M33.1157 75.4951C33.1157 81.2124 28.5976 85.8594 23.0084 85.8594C17.4193 85.8594 12.9012 81.2265 12.9012 75.4951C12.9012 69.7638 17.4193 65.1309 23.0084 65.1309C28.5976 65.1309 33.1157 69.7638 33.1157 75.4951ZM55.0467 35.5591L37.0432 25.6877C35.1206 24.6316 32.9646 24.0824 30.7811 24.0824H10.3607C9.7839 24.0824 9.2758 24.4908 9.12474 25.0681L4.13978 45.4727C4.00246 46.05 4.26338 46.6556 4.77149 46.9372L22.775 56.8086C24.6976 57.8647 26.8536 58.4139 29.0371 58.4139H49.4575C50.048 58.4139 50.5561 58.0055 50.6935 57.4282L55.6784 37.0236C55.8158 36.4462 55.5548 35.8407 55.0467 35.5591ZM75.4534 75.4951C75.4534 81.2124 70.9354 85.8594 65.3462 85.8594C59.757 85.8594 55.239 81.2265 55.239 75.4951C55.239 69.7638 59.757 65.1309 65.3462 65.1309C70.9354 65.1309 75.4534 69.7638 75.4534 75.4951Z" stroke="white" stroke-width="1.62" stroke-linecap="round" stroke-linejoin="round"/>
<path d="M85.1624 36.9109C78.8317 36.9109 73.6957 31.6302 73.6957 25.1526C73.6957 18.675 78.8317 13.3802 85.1624 13.3802C91.4932 13.3802 96.6292 18.6609 96.6292 25.1526C96.6292 31.6443 91.4795 36.9109 85.1624 36.9109ZM85.1624 14.8447C79.6282 14.8447 75.1239 19.4636 75.1239 25.1385C75.1239 30.8135 79.6282 35.4323 85.1624 35.4323C90.6967 35.4323 95.201 30.8135 95.201 25.1385C95.201 19.4636 90.6967 14.8447 85.1624 14.8447Z" fill="white"/>
<path d="M85.1624 36.9109C78.8317 36.9109 73.6957 31.6302 73.6957 25.1526C73.6957 18.675 78.8317 13.3802 85.1624 13.3802C91.4932 13.3802 96.6292 18.6609 96.6292 25.1526C96.6292 31.6443 91.4795 36.9109 85.1624 36.9109ZM85.1624 14.8447C79.6282 14.8447 75.1239 19.4636 75.1239 25.1385C75.1239 30.8135 79.6282 35.4323 85.1624 35.4323C90.6967 35.4323 95.201 30.8135 95.201 25.1385C95.201 19.4636 90.6967 14.8447 85.1624 14.8447Z" stroke="white" stroke-width="0.54" stroke-miterlimit="10"/>
<path d="M84.6818 29.9264C84.5033 29.9264 84.3248 29.856 84.2012 29.7292L79.3398 25.0963C79.0514 24.8147 79.0377 24.35 79.2986 24.0542C79.5733 23.7585 80.0265 23.7444 80.3149 24.012L84.5994 28.0816L89.9552 20.6605C90.1886 20.3366 90.6418 20.2662 90.9577 20.5056C91.2735 20.745 91.3422 21.2097 91.1087 21.5336L85.2723 29.6166C85.1487 29.7855 84.9702 29.8982 84.7642 29.9123C84.7368 29.9123 84.723 29.9123 84.6956 29.9123" fill="white"/>
</g>
<defs>
<clipPath id="clip0_1_23">
<rect width="94" height="74" fill="white" transform="translate(3 13)"/>
</clipPath>
</defs>
</svg>
