<svg width="100" height="100" viewBox="0 0 100 100" fill="none" xmlns="http://www.w3.org/2000/svg">
<path d="M24.8026 58.4916C24.1827 58.4916 23.6683 57.9904 23.6683 57.3704V42.8353C23.6683 38.9179 26.847 35.7392 30.7644 35.7392H42.7539C43.3738 35.7392 43.8882 36.2404 43.8882 36.8603C43.8882 37.4802 43.387 37.9946 42.7539 37.9946H30.7644C28.1 37.9946 25.9237 40.171 25.9237 42.8353V57.3704C25.9237 57.9904 25.4225 58.4916 24.7894 58.4916" fill="white"/>
<path d="M27.3086 63.1344C25.3038 63.1344 23.6814 61.512 23.6814 59.5072V52.3715C23.6814 51.7516 24.1827 51.2372 24.8158 51.2372C25.4489 51.2372 25.9501 51.7384 25.9501 52.3715V59.5072C25.9501 60.259 26.57 60.8789 27.3218 60.8789C28.0736 60.8789 28.6936 60.259 28.6936 59.5072V46.7395C28.6936 46.1196 29.1948 45.6183 29.8279 45.6183C30.461 45.6183 30.949 46.1196 30.949 46.7395V59.5072C30.949 61.512 29.3267 63.1344 27.3218 63.1344" fill="white"/>
<path d="M42.4241 87.43H31.1073C29.7619 87.43 28.6804 86.3352 28.6804 85.0031V59.494C28.6804 58.8741 29.1816 58.3729 29.8147 58.3729C30.4478 58.3729 30.949 58.8741 30.949 59.494V85.0031L42.4373 85.1745C42.6088 84.6601 42.6483 51.1976 42.6088 45.6447C42.6088 44.4708 42.9517 43.5212 43.6376 42.8221C45.0225 41.424 47.3703 41.424 49.4411 41.424C50.061 41.424 50.5754 41.9252 50.5754 42.5451C50.5754 43.165 50.0742 43.6794 49.4411 43.6794C47.8847 43.6794 45.959 43.6794 45.2336 44.4049C45.1412 44.4972 44.8511 44.8006 44.8511 45.6183C44.9038 51.1712 44.8511 84.6601 44.8511 85.0031C44.8511 86.3484 43.7563 87.43 42.4241 87.43Z" fill="white"/>
<path d="M36.7657 87.43C36.1458 87.43 35.6314 86.9288 35.6314 86.3088V60.0612C35.6314 59.4412 36.1326 58.94 36.7657 58.94C37.3989 58.94 37.9 59.4412 37.9 60.0612V86.3088C37.9 86.9288 37.3989 87.43 36.7657 87.43Z" fill="white"/>
<path d="M36.7657 34.2883C32.8747 34.2883 29.7487 29.5004 29.7487 25.5303C29.7487 21.5602 32.9011 18.5133 36.7657 18.5133C40.6303 18.5133 43.7827 21.6657 43.7827 25.5303C43.7827 29.3949 40.6567 34.2883 36.7657 34.2883ZM36.7657 20.782C34.141 20.782 32.0042 22.9187 32.0042 25.5435C32.0042 28.3793 34.3124 32.0328 36.7657 32.0328C39.219 32.0328 41.5272 28.3661 41.5272 25.5435C41.5272 22.9187 39.3905 20.782 36.7657 20.782Z" fill="white"/>
<path d="M60.7579 43.6795H49.4411C48.8212 43.6795 48.32 43.1783 48.32 42.5583C48.32 41.9384 48.8212 41.424 49.4411 41.424H60.7579C61.7076 41.424 62.4726 40.659 62.4726 39.7093C62.4726 38.7597 61.7076 37.9947 60.7579 37.9947H42.0812C41.4613 37.9947 40.9469 37.4934 40.9469 36.8603C40.9469 36.2272 41.4481 35.726 42.0812 35.726H60.7579C62.9475 35.726 64.7281 37.5066 64.7281 39.6962C64.7281 41.8857 62.9475 43.6663 60.7579 43.6663" fill="white"/>
<path d="M55.2974 78.0257C54.6775 78.0257 54.1631 77.5245 54.1631 76.9045V51.9626C54.1631 51.3427 54.6643 50.8283 55.2974 50.8283C55.9305 50.8283 56.4317 51.3295 56.4317 51.9626V76.9045C56.4317 77.5245 55.9305 78.0257 55.2974 78.0257Z" fill="white"/>
<path d="M63.5937 87.3508C63.2772 87.3508 62.9738 87.2189 62.7496 86.9683L54.4532 77.6432C54.0443 77.1815 54.0839 76.4561 54.5456 76.0472C55.0072 75.6251 55.7195 75.6779 56.1415 76.1395L64.4379 85.4647C64.8468 85.9263 64.8072 86.6386 64.3456 87.0607C64.1345 87.2585 63.8575 87.3508 63.5937 87.3508Z" fill="white"/>
<path d="M46.7372 87.2321C46.4734 87.2321 46.1964 87.1398 45.9854 86.942C45.5237 86.5331 45.4842 85.8208 45.8931 85.346L54.2026 76.034C54.6247 75.5724 55.3369 75.5196 55.7986 75.9417C56.2602 76.3506 56.2998 77.0628 55.8909 77.5376L47.5945 86.8496C47.3703 87.1003 47.067 87.2321 46.7504 87.2321" fill="white"/>
<path d="M75.0821 51.8175H48.8212C48.3068 51.8175 47.8847 51.3427 47.8847 50.7624C47.8847 50.182 48.3068 49.7072 48.8212 49.7072H74.1456V15.1104H25.5808V32.1384C25.5808 32.7187 25.1587 33.1936 24.6443 33.1936C24.1299 33.1936 23.6946 32.7187 23.6946 32.1384V14.0552C23.6946 13.4748 24.1167 13 24.6443 13H75.0953C75.6097 13 76.0317 13.4748 76.0317 14.0552V50.7624C76.0317 51.3427 75.6097 51.8175 75.0953 51.8175" fill="white"/>
</svg>
