<svg width="100" height="100" viewBox="0 0 100 100" fill="none" xmlns="http://www.w3.org/2000/svg">
<g clip-path="url(#clip0_1_106)">
<path d="M24.7907 35.1395C28.3004 35.1395 31.1707 32.2569 31.1707 28.7161C31.1707 25.1754 28.3134 22.2928 24.7907 22.2928C21.268 22.2928 18.4107 25.1754 18.4107 28.7161C18.4107 32.2569 21.268 35.1395 24.7907 35.1395ZM24.7907 24.5041C27.087 24.5041 28.9527 26.3863 28.9527 28.703C28.9527 31.0196 27.087 32.9018 24.7907 32.9018C22.4944 32.9018 20.6287 31.0196 20.6287 28.703C20.6287 26.3863 22.4944 24.5041 24.7907 24.5041Z" fill="white"/>
<path d="M50.5848 35.1395C54.0945 35.1395 56.9648 32.2569 56.9648 28.7161C56.9648 25.1754 54.1075 22.2928 50.5848 22.2928C47.0621 22.2928 44.2048 25.1754 44.2048 28.7161C44.2048 32.2569 47.0621 35.1395 50.5848 35.1395ZM50.5848 24.5041C52.8811 24.5041 54.7468 26.3863 54.7468 28.703C54.7468 31.0196 52.8811 32.9018 50.5848 32.9018C48.2885 32.9018 46.4228 31.0196 46.4228 28.703C46.4228 26.3863 48.2885 24.5041 50.5848 24.5041Z" fill="white"/>
<path d="M76.1962 35.1395C79.7059 35.1395 82.5762 32.2569 82.5762 28.7161C82.5762 25.1754 79.7189 22.2928 76.1962 22.2928C72.6735 22.2928 69.8292 25.1754 69.8292 28.7161C69.8292 32.2569 72.6865 35.1395 76.1962 35.1395ZM76.1962 24.5041C78.4925 24.5041 80.3582 26.3863 80.3582 28.703C80.3582 31.0196 78.4925 32.9018 76.1962 32.9018C73.8999 32.9018 72.0342 31.0196 72.0342 28.703C72.0342 26.3863 73.8999 24.5041 76.1962 24.5041Z" fill="white"/>
<path d="M83.4765 35.7186H81.4672L76.1962 38.2458L70.9252 35.7186H68.916C66.5805 35.7186 64.5321 36.969 63.384 38.825C62.2359 36.969 60.1875 35.7186 57.852 35.7186H55.8428L50.5718 38.2458L45.3008 35.7186H43.2915C40.9039 35.7186 38.8033 37.0349 37.6682 38.9698C36.5331 37.0217 34.4456 35.7186 32.0449 35.7186H30.0357L24.7647 38.2458L19.4937 35.7186H17.4844C13.8834 35.7186 10.9609 38.667 10.9609 42.2999V59.8456C10.9609 62.8862 13.0223 65.4529 15.8144 66.2031V83.9726C15.8144 85.6442 17.1582 87.0132 18.8283 87.0132H22.7554C23.5252 87.0132 24.2297 86.7104 24.7647 86.2366C25.2996 86.7236 26.0041 87.0132 26.7739 87.0132H30.7011C32.3581 87.0132 33.715 85.6442 33.715 83.9726V66.2031C35.398 65.7556 36.8071 64.6499 37.6682 63.1757C38.5293 64.6499 39.9384 65.7556 41.6215 66.2031V83.9726C41.6215 85.6442 42.9784 87.0132 44.6354 87.0132H48.5625C49.3323 87.0132 50.0368 86.7104 50.5718 86.2366C51.1067 86.7236 51.8112 87.0132 52.581 87.0132H56.5082C58.1652 87.0132 59.5221 85.6442 59.5221 83.9726V66.2031C61.1399 65.7688 62.5098 64.7289 63.384 63.3337C64.2451 64.7289 65.6281 65.7688 67.2459 66.2031V83.9726C67.2459 85.6442 68.5898 87.0132 70.2598 87.0132H74.187C74.9567 87.0132 75.6613 86.7104 76.1962 86.2366C76.7311 86.7236 77.4357 87.0132 78.2055 87.0132H82.1326C83.7896 87.0132 85.1465 85.6442 85.1465 83.9726V66.2031C87.9386 65.4529 90 62.8993 90 59.8456V42.2999C90 38.667 87.0775 35.7186 83.4765 35.7186ZM30.7402 84.973H26.8131C26.2651 84.973 25.8084 84.5254 25.8084 83.9594V63.4653H23.7992V83.9594C23.7992 84.5254 23.3425 84.973 22.7946 84.973H18.8674C18.3064 84.973 17.8628 84.5254 17.8628 83.9594V57.0683H31.7449V83.9594C31.7449 84.5254 31.3013 84.973 30.7402 84.973ZM36.5853 59.8456C36.5853 61.7673 35.4111 63.3995 33.7411 64.0708V43.8136H31.7318V54.8438H17.8628V43.8136H15.8535V64.0576C14.1965 63.3863 13.0093 61.7542 13.0093 59.8324V42.2867C13.0093 39.7727 15.0316 37.7325 17.5236 37.7325H19.5328L24.8038 40.2597L30.0748 37.7325H32.0841C34.5761 37.7325 36.5984 39.7727 36.5984 42.2867V59.8324L36.5853 59.8456ZM56.5212 84.973H52.5941C52.0461 84.973 51.5894 84.5254 51.5894 83.9594V63.4653H49.5802V83.9594C49.5802 84.5254 49.1236 84.973 48.5756 84.973H44.6484C44.1004 84.973 43.6438 84.5254 43.6438 83.9594V57.0683H57.5259V83.9594C57.5259 84.5254 57.0692 84.973 56.5212 84.973ZM62.3794 59.8456C62.3794 61.7673 61.2051 63.3995 59.5351 64.0708V43.8136H57.5259V54.8438H43.6438V43.8136H41.6345V64.0576C39.9776 63.3863 38.7903 61.7542 38.7903 59.8324V42.2867C38.7903 39.7727 40.8126 37.7325 43.3046 37.7325H45.3138L50.5848 40.2597L55.8558 37.7325H57.8651C60.3571 37.7325 62.3794 39.7727 62.3794 42.2867V59.8324V59.8456ZM82.1326 84.973H78.2055C77.6575 84.973 77.2008 84.5254 77.2008 83.9594V63.4653H75.1916V83.9594C75.1916 84.5254 74.748 84.973 74.187 84.973H70.2598C69.7118 84.973 69.2552 84.5254 69.2552 83.9594V57.0683H83.1373V83.9594C83.1373 84.5254 82.6937 84.973 82.1326 84.973ZM87.9908 59.8456C87.9908 61.7673 86.8165 63.3995 85.1465 64.0708V43.8136H83.1373V54.8438H69.2552V43.8136H67.2459V64.0576C65.5759 63.3863 64.4017 61.7542 64.4017 59.8324V42.2867C64.4017 39.7727 66.424 37.7325 68.916 37.7325H70.9252L76.1962 40.2597L81.4672 37.7325H83.4765C85.9685 37.7325 87.9908 39.7727 87.9908 42.2867V59.8324V59.8456Z" fill="white"/>
<path d="M37.7987 25.8598C41.3083 25.8598 44.1656 22.9772 44.1656 19.4365C44.1656 15.8958 41.3083 13 37.7987 13C34.289 13 31.4186 15.8826 31.4186 19.4233C31.4186 22.9641 34.2759 25.8467 37.7987 25.8467M37.7987 15.2245C40.0949 15.2245 41.9607 17.1067 41.9607 19.4233C41.9607 21.7399 40.0949 23.6222 37.7987 23.6222C35.5024 23.6222 33.6366 21.7399 33.6366 19.4233C33.6366 17.1067 35.5024 15.2245 37.7987 15.2245Z" fill="white"/>
<path d="M63.384 25.8598C66.8936 25.8598 69.764 22.9772 69.764 19.4365C69.764 15.8958 66.9067 13.0132 63.384 13.0132C59.8613 13.0132 57.004 15.8958 57.004 19.4365C57.004 22.9772 59.8613 25.8598 63.384 25.8598ZM63.384 15.2245C65.6803 15.2245 67.546 17.1067 67.546 19.4233C67.546 21.74 65.6803 23.6222 63.384 23.6222C61.0877 23.6222 59.222 21.74 59.222 19.4233C59.222 17.1067 61.0877 15.2245 63.384 15.2245Z" fill="white"/>
</g>
<defs>
<clipPath id="clip0_1_106">
<rect width="79" height="74" fill="white" transform="translate(11 13)"/>
</clipPath>
</defs>
</svg>
