<svg width="100" height="100" viewBox="0 0 100 100" fill="none" xmlns="http://www.w3.org/2000/svg">
<g clip-path="url(#clip0_1_42)">
<path d="M60.9749 36.3974H30.8264C30.4502 36.3974 30.1518 36.0897 30.1518 35.7308V27.3462C30.1518 26.9744 30.4631 26.6667 30.8264 26.6667H60.9749C61.3511 26.6667 61.6494 26.9744 61.6494 27.3462V35.7308C61.6494 36.1026 61.3511 36.3974 60.9749 36.3974ZM31.5139 35.0513H60.3003V28.0128H31.5139V35.0513Z" fill="white"/>
<path d="M35.3409 33.218C34.3939 33.218 33.6285 32.4615 33.6285 31.5256C33.6285 30.5898 34.3939 29.8462 35.3409 29.8462C36.2879 29.8462 37.0533 30.6026 37.0533 31.5256C37.0533 32.4487 36.2879 33.218 35.3409 33.218ZM35.3409 31.1923C35.1463 31.1923 35.0036 31.3462 35.0036 31.5256C35.0036 31.8974 35.6911 31.8974 35.6911 31.5256C35.6911 31.3333 35.5355 31.1923 35.3538 31.1923" fill="white"/>
<path d="M38.9084 33.218C37.9614 33.218 37.196 32.4615 37.196 31.5256C37.196 30.5898 37.9614 29.8462 38.9084 29.8462C39.8554 29.8462 40.6208 30.6026 40.6208 31.5256C40.6208 32.4487 39.8554 33.218 38.9084 33.218ZM38.9084 31.1923C38.7138 31.1923 38.5711 31.3462 38.5711 31.5256C38.5711 31.8974 39.2586 31.8974 39.2586 31.5256C39.2586 31.3333 39.103 31.1923 38.9213 31.1923" fill="white"/>
<path d="M42.3072 33.218C41.3602 33.218 40.5948 32.4615 40.5948 31.5256C40.5948 30.5898 41.3602 29.8462 42.3072 29.8462C43.2542 29.8462 44.0196 30.6026 44.0196 31.5256C44.0196 32.4487 43.2542 33.218 42.3072 33.218ZM42.3072 31.1923C42.1126 31.1923 41.9699 31.3462 41.9699 31.5256C41.9699 31.8974 42.6574 31.8974 42.6574 31.5256C42.6574 31.3333 42.5018 31.1923 42.3202 31.1923" fill="white"/>
<path d="M50.9081 49.5385H30.8394C30.4632 49.5385 30.1648 49.2308 30.1648 48.859V40.4744C30.1648 40.1026 30.4632 39.7949 30.8394 39.7949H55.5264C55.9026 39.7949 56.2139 40.0897 56.2139 40.4744C56.2139 40.859 55.9026 41.1538 55.5264 41.1538H31.514V48.1923H50.9081C51.2843 48.1923 51.5827 48.5 51.5827 48.8718C51.5827 49.2436 51.2843 49.5513 50.9081 49.5513" fill="white"/>
<path d="M35.3409 46.359C34.3939 46.359 33.6285 45.6026 33.6285 44.6667C33.6285 43.7308 34.3939 42.9872 35.3409 42.9872C36.2879 42.9872 37.0533 43.7436 37.0533 44.6667C37.0533 45.5897 36.2879 46.359 35.3409 46.359ZM35.3409 44.3333C35.1463 44.3333 35.0036 44.4872 35.0036 44.6667C35.0036 45.0385 35.6911 45.0385 35.6911 44.6667C35.6911 44.4744 35.5355 44.3333 35.3538 44.3333" fill="white"/>
<path d="M38.9084 46.359C37.9614 46.359 37.196 45.6026 37.196 44.6667C37.196 43.7308 37.9614 42.9872 38.9084 42.9872C39.8554 42.9872 40.6208 43.7436 40.6208 44.6667C40.6208 45.5897 39.8554 46.359 38.9084 46.359ZM38.9084 44.3333C38.7138 44.3333 38.5711 44.4872 38.5711 44.6667C38.5711 45.0385 39.2586 45.0385 39.2586 44.6667C39.2586 44.4744 39.103 44.3333 38.9213 44.3333" fill="white"/>
<path d="M42.3072 46.359C41.3602 46.359 40.5948 45.6026 40.5948 44.6667C40.5948 43.7308 41.3602 42.9872 42.3072 42.9872C43.2542 42.9872 44.0196 43.7436 44.0196 44.6667C44.0196 45.5897 43.2542 46.359 42.3072 46.359ZM42.3072 44.3333C42.1126 44.3333 41.9699 44.4872 41.9699 44.6667C41.9699 45.0385 42.6574 45.0385 42.6574 44.6667C42.6574 44.4744 42.5018 44.3333 42.3202 44.3333" fill="white"/>
<path d="M50.9081 62.7564H30.8394C30.4632 62.7564 30.1648 62.4487 30.1648 62.0769V53.6923C30.1648 53.3205 30.4632 53.0128 30.8394 53.0128H50.9081C51.2843 53.0128 51.5827 53.3205 51.5827 53.6923C51.5827 54.0641 51.2843 54.359 50.9081 54.359H31.514V61.3974H50.9081C51.2843 61.3974 51.5827 61.7051 51.5827 62.0769C51.5827 62.4487 51.2843 62.7564 50.9081 62.7564Z" fill="white"/>
<path d="M35.3409 59.5769C34.3939 59.5769 33.6285 58.8205 33.6285 57.8846C33.6285 56.9487 34.3939 56.2051 35.3409 56.2051C36.2879 56.2051 37.0533 56.9615 37.0533 57.8846C37.0533 58.8077 36.2879 59.5769 35.3409 59.5769ZM35.3409 57.5513C35.1463 57.5513 35.0036 57.7051 35.0036 57.8846C35.0036 58.2564 35.6911 58.2564 35.6911 57.8846C35.6911 57.6923 35.5355 57.5513 35.3538 57.5513" fill="white"/>
<path d="M38.9084 59.5769C37.9614 59.5769 37.196 58.8205 37.196 57.8846C37.196 56.9487 37.9614 56.2051 38.9084 56.2051C39.8554 56.2051 40.6208 56.9615 40.6208 57.8846C40.6208 58.8077 39.8554 59.5769 38.9084 59.5769ZM38.9084 57.5513C38.7138 57.5513 38.5711 57.7051 38.5711 57.8846C38.5711 58.2564 39.2586 58.2564 39.2586 57.8846C39.2586 57.6923 39.103 57.5513 38.9213 57.5513" fill="white"/>
<path d="M42.3072 59.5769C41.3602 59.5769 40.5948 58.8205 40.5948 57.8846C40.5948 56.9487 41.3602 56.2051 42.3072 56.2051C43.2542 56.2051 44.0196 56.9615 44.0196 57.8846C44.0196 58.8077 43.2542 59.5769 42.3072 59.5769ZM42.3072 57.5513C42.1126 57.5513 41.9699 57.7051 41.9699 57.8846C41.9699 58.2564 42.6574 58.2564 42.6574 57.8846C42.6574 57.6923 42.5018 57.5513 42.3202 57.5513" fill="white"/>
<path d="M45.9007 40.8077C45.5244 40.8077 45.2261 40.5 45.2261 40.1282V35.718C45.2261 35.3462 45.5244 35.0513 45.9007 35.0513C46.2769 35.0513 46.5752 35.3462 46.5752 35.718V40.1282C46.5752 40.5 46.2769 40.8077 45.9007 40.8077Z" fill="white"/>
<path d="M45.9007 53.8333C45.5244 53.8333 45.2261 53.5256 45.2261 53.1539V49.218C45.2261 48.8462 45.5244 48.5385 45.9007 48.5385C46.2769 48.5385 46.5752 48.8462 46.5752 49.218V53.1539C46.5752 53.5256 46.2769 53.8333 45.9007 53.8333Z" fill="white"/>
<path d="M90.2802 81H9.71985C6.00966 81 3 78.0256 3 74.359V72.0256C3 71.359 3.54485 70.8205 4.21943 70.8205H95.7806C96.4551 70.8205 97 71.359 97 72.0256V74.359C97 78.0256 93.9903 81 90.2802 81ZM5.43886 73.2308V74.359C5.43886 76.6923 7.35882 78.5897 9.71985 78.5897H90.2802C92.6412 78.5897 94.5611 76.6923 94.5611 74.359V73.2308H5.43886Z" fill="white"/>
<path d="M87.9321 73.2308C87.2575 73.2308 86.7126 72.6923 86.7126 72.0256V25.4231C86.7126 22.6667 84.4424 20.4103 81.6403 20.4103H73.5843C72.9097 20.4103 72.3649 19.8718 72.3649 19.2051C72.3649 18.5385 72.9097 18 73.5843 18H81.6403C85.7786 18 89.1515 21.3205 89.1515 25.4231V72.0256C89.1515 72.6923 88.6067 73.2308 87.9321 73.2308Z" fill="white"/>
<path d="M12.0809 73.2308C11.4063 73.2308 10.8615 72.6923 10.8615 72.0256V25.4231C10.8615 21.3333 14.2343 18 18.3726 18H73.9346C74.6092 18 75.154 18.5385 75.154 19.2051C75.154 19.8718 74.6092 20.4103 73.9346 20.4103H18.3726C15.5835 20.4103 13.3003 22.6538 13.3003 25.4231V72.0256C13.3003 72.6923 12.7555 73.2308 12.0809 73.2308Z" fill="white"/>
<path d="M61.403 63.5128C55.3837 63.5128 50.48 58.6667 50.48 52.718C50.48 46.7692 55.3837 41.9231 61.403 41.9231C67.4223 41.9231 72.326 46.7692 72.326 52.718C72.326 58.6667 67.4223 63.5128 61.403 63.5128ZM61.403 43.2692C56.1361 43.2692 51.8421 47.5 51.8421 52.718C51.8421 57.9359 56.1361 62.1667 61.403 62.1667C66.6699 62.1667 70.9638 57.9359 70.9638 52.718C70.9638 47.5 66.6699 43.2692 61.403 43.2692Z" fill="white"/>
<path d="M61.403 63.5128C55.3837 63.5128 50.48 58.6667 50.48 52.718C50.48 46.7692 55.3837 41.9231 61.403 41.9231C67.4223 41.9231 72.326 46.7692 72.326 52.718C72.326 58.6667 67.4223 63.5128 61.403 63.5128ZM61.403 43.2692C56.1361 43.2692 51.8421 47.5 51.8421 52.718C51.8421 57.9359 56.1361 62.1667 61.403 62.1667C66.6699 62.1667 70.9638 57.9359 70.9638 52.718C70.9638 47.5 66.6699 43.2692 61.403 43.2692Z" stroke="white" stroke-width="0.54" stroke-miterlimit="10"/>
<path d="M60.936 57.0897C60.7673 57.0897 60.5987 57.0256 60.4689 56.9103L55.8377 52.6539C55.5653 52.3974 55.5393 51.9744 55.7988 51.7051C56.0582 51.4359 56.4863 51.4103 56.7588 51.6667L60.8322 55.4103L65.9304 48.6026C66.151 48.3077 66.5791 48.2436 66.8904 48.4615C67.1888 48.6795 67.2537 49.1026 67.0331 49.3974L61.4808 56.8205C61.3641 56.9744 61.1824 57.0769 61.0008 57.0897C60.9749 57.0897 60.9619 57.0897 60.936 57.0897Z" fill="white"/>
<path d="M60.936 57.0897C60.7673 57.0897 60.5987 57.0256 60.4689 56.9103L55.8377 52.6539C55.5653 52.3974 55.5393 51.9744 55.7988 51.7051C56.0582 51.4359 56.4863 51.4103 56.7588 51.6667L60.8322 55.4103L65.9304 48.6026C66.151 48.3077 66.5791 48.2436 66.8904 48.4615C67.1888 48.6795 67.2537 49.1026 67.0331 49.3974L61.4808 56.8205C61.3641 56.9744 61.1824 57.0769 61.0008 57.0897C60.9749 57.0897 60.9619 57.0897 60.936 57.0897Z" stroke="white" stroke-width="0.54" stroke-miterlimit="10"/>
</g>
<defs>
<clipPath id="clip0_1_42">
<rect width="94" height="63" fill="white" transform="translate(3 18)"/>
</clipPath>
</defs>
</svg>
