<svg width="224" height="82" viewBox="0 0 224 82" fill="none" xmlns="http://www.w3.org/2000/svg">
<path d="M84.7 18.7H87V22H90.4V18.7H92.7V27.2999H90.4V23.7999H87V27.2999H84.7V18.7Z" fill="#005E8E"/>
<path d="M97.2 27.5C96.5 27.5 95.9 27.4 95.3 27.1C94.8 26.9 94.4 26.5 94.1 26C93.8 25.5 93.7 24.9999 93.7 24.2999C93.7 23.6999 93.8 23.2 94.1 22.7C94.4 22.2 94.7 21.9 95.2 21.6C95.7 21.3 96.2 21.2 96.8 21.2C97.7 21.2 98.4 21.5 98.9 22C99.4 22.5 99.7 23.2 99.7 24.1C99.7 24.4 99.7 24.5999 99.6 24.7999H95.7C95.8 25.0999 96 25.4 96.3 25.6C96.6 25.8 97 25.7999 97.5 25.7999C97.8 25.7999 98.2 25.8 98.5 25.7C98.8 25.6 99.1 25.5 99.4 25.4L99.6 26.9C99.3 27 98.9 27.2 98.5 27.2C98 27.5 97.6 27.5 97.2 27.5ZM97.7 23.7C97.7 23.4 97.6 23.2 97.4 23C97.2 22.8 97 22.7 96.7 22.7C96.1 22.7 95.8 23 95.6 23.7H97.7Z" fill="#005E8E"/>
<path d="M102.6 18.7H104.9V22.2L107.8 18.7H110.6L106.9 22.7999L110.9 27.2999H108L104.9 23.7V27.2999H102.6V18.7Z" fill="#005E8E"/>
<path d="M113.3 27.4999C112.8 27.4999 112.3 27.3999 111.9 27.0999C111.5 26.7999 111.2 26.4999 110.9 25.9999C110.7 25.4999 110.5 24.9999 110.5 24.3999C110.5 23.7999 110.6 23.2999 110.8 22.7999C111 22.2999 111.4 21.8999 111.8 21.6999C112.2 21.3999 112.7 21.2999 113.2 21.2999C113.6 21.2999 113.9 21.3999 114.2 21.4999C114.5 21.6999 114.7 21.8999 114.9 22.0999V21.3999H116.8V27.2999H114.9V26.5999C114.7 26.8999 114.5 27.0999 114.2 27.1999C114 27.3999 113.6 27.4999 113.3 27.4999ZM113.8 25.6999C114.1 25.6999 114.4 25.5999 114.7 25.2999C114.9 25.0999 115 24.6999 115 24.3999C115 23.9999 114.9 23.6999 114.7 23.4999C114.5 23.2999 114.2 23.0999 113.8 23.0999C113.5 23.0999 113.2 23.1999 112.9 23.4999C112.7 23.6999 112.6 24.0999 112.6 24.3999C112.6 24.7999 112.7 25.0999 112.9 25.2999C113.2 25.5999 113.5 25.6999 113.8 25.6999Z" fill="#005E8E"/>
<path d="M120.7 27.5C119.8 27.5 119.1 27.3 118.6 26.8C118.1 26.3 117.9 25.6 117.9 24.7V21.4H119.9V24.6C119.9 24.9 120 25.2 120.1 25.4C120.2 25.6 120.4 25.6 120.7 25.6C121 25.6 121.2 25.5 121.3 25.4C121.4 25.2 121.5 25 121.5 24.6V21.4H123.5V24.7C123.5 25.6 123.3 26.3 122.8 26.8C122.4 27.3 121.7 27.5 120.7 27.5Z" fill="#005E8E"/>
<path d="M124.4 21.3999H126.3V22.0999C126.5 21.7999 126.7 21.5999 127 21.4999C127.3 21.3999 127.6 21.2999 128 21.2999C128.5 21.2999 129 21.3999 129.4 21.6999C129.8 21.9999 130.1 22.2999 130.4 22.7999C130.6 23.2999 130.8 23.7999 130.8 24.3999C130.8 24.9999 130.7 25.4999 130.5 25.9999C130.3 26.4999 129.9 26.8999 129.5 27.0999C129.1 27.3999 128.6 27.4999 128.1 27.4999C127.8 27.4999 127.5 27.3999 127.2 27.2999C126.9 27.1999 126.7 26.9999 126.5 26.7999V30.0999H124.4V21.3999ZM127.5 25.6999C127.8 25.6999 128.1 25.5999 128.4 25.2999C128.6 25.0999 128.7 24.6999 128.7 24.3999C128.7 23.9999 128.6 23.6999 128.4 23.4999C128.2 23.2999 127.9 23.0999 127.5 23.0999C127.1 23.0999 126.9 23.1999 126.6 23.4999C126.4 23.6999 126.3 24.0999 126.3 24.3999C126.3 24.7999 126.4 25.0999 126.6 25.2999C126.8 25.5999 127.1 25.6999 127.5 25.6999Z" fill="#005E8E"/>
<path d="M133.8 27.4999C133.3 27.4999 132.8 27.3999 132.4 27.0999C132 26.7999 131.7 26.4999 131.4 25.9999C131.2 25.4999 131 24.9999 131 24.3999C131 23.7999 131.1 23.2999 131.3 22.7999C131.5 22.2999 131.9 21.8999 132.3 21.6999C132.7 21.3999 133.2 21.2999 133.7 21.2999C134.1 21.2999 134.4 21.3999 134.7 21.4999C135 21.6999 135.2 21.8999 135.4 22.0999V21.3999H137.3V27.2999H135.4V26.5999C135.2 26.8999 135 27.0999 134.7 27.1999C134.6 27.3999 134.2 27.4999 133.8 27.4999ZM134.4 25.6999C134.7 25.6999 135 25.5999 135.3 25.2999C135.5 25.0999 135.6 24.6999 135.6 24.3999C135.6 23.9999 135.5 23.6999 135.3 23.4999C135.1 23.2999 134.8 23.0999 134.4 23.0999C134.1 23.0999 133.8 23.1999 133.5 23.4999C133.3 23.6999 133.2 24.0999 133.2 24.3999C133.2 24.7999 133.3 25.0999 133.5 25.2999C133.8 25.5999 134 25.6999 134.4 25.6999Z" fill="#005E8E"/>
<path d="M138.5 21.3999H140.5V22.2999C140.6 21.9999 140.8 21.6999 141.1 21.5999C141.3 21.3999 141.6 21.2999 142 21.2999C142.3 21.2999 142.5 21.2999 142.7 21.3999L142.5 23.2999C142.3 23.1999 142 23.1999 141.7 23.1999C141.3 23.1999 141 23.2999 140.8 23.5999C140.6 23.8999 140.5 24.1999 140.5 24.7999V27.2999H138.5V21.3999Z" fill="#005E8E"/>
<path d="M146.2 27.5C145.5 27.5 144.9 27.4 144.3 27.1C143.8 26.9 143.4 26.5 143.1 26C142.8 25.5 142.7 24.9999 142.7 24.2999C142.7 23.6999 142.8 23.2 143.1 22.7C143.4 22.2 143.7 21.9 144.2 21.6C144.7 21.3 145.2 21.2 145.8 21.2C146.7 21.2 147.4 21.5 147.9 22C148.4 22.5 148.7 23.2 148.7 24.1C148.7 24.4 148.7 24.5999 148.6 24.7999H144.7C144.8 25.0999 145 25.4 145.3 25.6C145.6 25.8 146 25.7999 146.5 25.7999C146.8 25.7999 147.2 25.8 147.5 25.7C147.8 25.6 148.1 25.5 148.4 25.4L148.6 26.9C148.3 27 147.9 27.2 147.5 27.2C147.1 27.5 146.7 27.5 146.2 27.5ZM146.7 23.7C146.7 23.4 146.6 23.2 146.4 23C146.2 22.8 146 22.7 145.7 22.7C145.1 22.7 144.8 23 144.6 23.7H146.7Z" fill="#005E8E"/>
<path d="M150.5 27.4C150.2 27.4 149.9 27.3 149.7 27.1C149.5 26.9 149.4 26.5999 149.4 26.2999C149.4 25.9999 149.5 25.7 149.7 25.5C149.9 25.3 150.2 25.2 150.5 25.2C150.8 25.2 151.1 25.3 151.3 25.5C151.5 25.7 151.6 25.9999 151.6 26.2999C151.6 26.5999 151.5 26.9 151.3 27.1C151.1 27.3 150.8 27.4 150.5 27.4Z" fill="#005E8E"/>
<path d="M154.7 18.7H157V22H160.4V18.7H162.7V27.2999H160.4V23.7999H157V27.2999H154.7V18.7Z" fill="#005E8E"/>
<path d="M167.1 27.5C166.4 27.5 165.8 27.4 165.2 27.1C164.7 26.9 164.3 26.5 164 26C163.7 25.5 163.6 24.9999 163.6 24.2999C163.6 23.6999 163.7 23.2 164 22.7C164.3 22.2 164.6 21.9 165.1 21.6C165.6 21.3 166.1 21.2 166.7 21.2C167.6 21.2 168.3 21.5 168.8 22C169.3 22.5 169.6 23.2 169.6 24.1C169.6 24.4 169.6 24.5999 169.5 24.7999H165.6C165.7 25.0999 165.9 25.4 166.2 25.6C166.5 25.8 166.9 25.7999 167.4 25.7999C167.7 25.7999 168.1 25.8 168.4 25.7C168.7 25.6 169 25.5 169.3 25.4L169.5 26.9C169.2 27 168.8 27.2 168.4 27.2C167.9 27.5 167.5 27.5 167.1 27.5ZM167.6 23.7C167.6 23.4 167.5 23.2 167.3 23C167.1 22.8 166.9 22.7 166.6 22.7C166 22.7 165.7 23 165.5 23.7H167.6Z" fill="#005E8E"/>
<path d="M172.6 18.7H174.9L177.3 23.5L179.7 18.7H182V27.2999H179.9V22.1L178.2 25.5H176.4L174.7 22.1V27.2999H172.6V18.7Z" fill="#005E8E"/>
<path d="M185.6 27.4999C185.1 27.4999 184.6 27.3999 184.2 27.0999C183.8 26.7999 183.5 26.4999 183.2 25.9999C183 25.4999 182.8 24.9999 182.8 24.3999C182.8 23.7999 182.9 23.2999 183.1 22.7999C183.3 22.2999 183.7 21.8999 184.1 21.6999C184.5 21.3999 185 21.2999 185.5 21.2999C185.9 21.2999 186.2 21.3999 186.5 21.4999C186.8 21.6999 187 21.8999 187.2 22.0999V21.3999H189.1V27.2999H187.2V26.5999C187 26.8999 186.8 27.0999 186.5 27.1999C186.3 27.3999 186 27.4999 185.6 27.4999ZM186.2 25.6999C186.5 25.6999 186.8 25.5999 187.1 25.2999C187.3 25.0999 187.4 24.6999 187.4 24.3999C187.4 23.9999 187.3 23.6999 187.1 23.4999C186.9 23.2999 186.6 23.0999 186.2 23.0999C185.9 23.0999 185.6 23.1999 185.3 23.4999C185.1 23.6999 185 24.0999 185 24.3999C185 24.7999 185.1 25.0999 185.3 25.2999C185.5 25.5999 185.8 25.6999 186.2 25.6999Z" fill="#005E8E"/>
<path d="M190.3 21.4H192.3V22.1C192.4 21.8 192.7 21.6 193 21.4C193.3 21.2 193.6 21.2 194 21.2C194.7 21.2 195.2 21.3999 195.5 21.7999C195.8 22.1999 196 22.8 196 23.7V27.2999H193.9V24.1C193.9 23.4 193.6 23.1 193.1 23.1C192.8 23.1 192.6 23.2 192.5 23.4C192.3 23.6 192.3 23.9 192.3 24.2V27.2999H190.3V21.4Z" fill="#005E8E"/>
<path d="M199.2 27.4999C198.7 27.4999 198.2 27.3999 197.8 27.0999C197.4 26.7999 197.1 26.4999 196.8 25.9999C196.6 25.4999 196.4 24.9999 196.4 24.3999C196.4 23.7999 196.5 23.2999 196.7 22.7999C196.9 22.2999 197.3 21.8999 197.7 21.6999C198.1 21.3999 198.6 21.2999 199.1 21.2999C199.5 21.2999 199.8 21.3999 200.1 21.4999C200.4 21.6999 200.6 21.8999 200.8 22.0999V21.3999H202.7V27.2999H200.8V26.5999C200.6 26.8999 200.4 27.0999 200.1 27.1999C200 27.3999 199.6 27.4999 199.2 27.4999ZM199.8 25.6999C200.1 25.6999 200.4 25.5999 200.7 25.2999C200.9 25.0999 201 24.6999 201 24.3999C201 23.9999 200.9 23.6999 200.7 23.4999C200.5 23.2999 200.2 23.0999 199.8 23.0999C199.5 23.0999 199.2 23.1999 198.9 23.4999C198.7 23.6999 198.6 24.0999 198.6 24.3999C198.6 24.7999 198.7 25.0999 198.9 25.2999C199.2 25.5999 199.5 25.6999 199.8 25.6999Z" fill="#005E8E"/>
<path d="M206 27.4999C205.5 27.4999 205 27.3999 204.6 27.0999C204.2 26.7999 203.9 26.4999 203.6 25.9999C203.4 25.4999 203.2 24.9999 203.2 24.3999C203.2 23.7999 203.3 23.2999 203.5 22.7999C203.7 22.2999 204.1 21.8999 204.5 21.6999C204.9 21.3999 205.4 21.2999 205.9 21.2999C206.3 21.2999 206.6 21.3999 206.9 21.4999C207.2 21.6999 207.4 21.8999 207.6 22.0999V21.3999H209.5V27.2999H207.6V26.5999C207.4 26.8999 207.2 27.0999 206.9 27.1999C206.8 27.3999 206.4 27.4999 206 27.4999ZM206.6 25.6999C206.9 25.6999 207.2 25.5999 207.5 25.2999C207.7 25.0999 207.8 24.6999 207.8 24.3999C207.8 23.9999 207.7 23.6999 207.5 23.4999C207.3 23.2999 207 23.0999 206.6 23.0999C206.3 23.0999 206 23.1999 205.7 23.4999C205.5 23.6999 205.4 24.0999 205.4 24.3999C205.4 24.7999 205.5 25.0999 205.7 25.2999C206 25.5999 206.2 25.6999 206.6 25.6999Z" fill="#005E8E"/>
<path d="M210.7 18.1H212.8V23.6L214.5 21.4H216.9L214.6 24.1L217.3 27.3H214.8L212.8 24.8V27.3H210.7V18.1Z" fill="#005E8E"/>
<path d="M218.7 20.4999C218.4 20.4999 218.1 20.3999 217.9 20.1999C217.7 19.9999 217.6 19.6999 217.6 19.3999C217.6 19.0999 217.7 18.7999 217.9 18.5999C218.1 18.3999 218.4 18.2999 218.7 18.2999C219 18.2999 219.3 18.3999 219.5 18.5999C219.7 18.7999 219.8 19.0999 219.8 19.3999C219.8 19.6999 219.7 19.9999 219.5 20.1999C219.3 20.3999 219 20.4999 218.7 20.4999ZM217.6 21.3999H219.7V27.2999H217.6V21.3999Z" fill="#005E8E"/>
<path d="M221.7 27.4C221.4 27.4 221.1 27.3 220.9 27.1C220.7 26.9 220.6 26.5999 220.6 26.2999C220.6 25.9999 220.7 25.7 220.9 25.5C221.1 25.3 221.4 25.2 221.7 25.2C222 25.2 222.3 25.3 222.5 25.5C222.7 25.7 222.8 25.9999 222.8 26.2999C222.8 26.5999 222.7 26.9 222.5 27.1C222.3 27.3 222.1 27.4 221.7 27.4Z" fill="#005E8E"/>
<path d="M84.7 33.2H87V36.5H90.4V33.2H92.7V41.7999H90.4V38.2999H87V41.7999H84.7V33.2Z" fill="#005E8E"/>
<path d="M97.2 42C96.5 42 95.9 41.8999 95.3 41.5999C94.8 41.3999 94.4 41 94.1 40.5C93.8 40 93.7 39.4999 93.7 38.7999C93.7 38.1999 93.8 37.7 94.1 37.2C94.4 36.7 94.7 36.3999 95.2 36.0999C95.7 35.7999 96.2 35.7 96.8 35.7C97.7 35.7 98.4 36 98.9 36.5C99.4 37 99.7 37.6999 99.7 38.5999C99.7 38.8999 99.7 39.0999 99.6 39.2999H95.7C95.8 39.5999 96 39.8999 96.3 40.0999C96.6 40.2999 97 40.2999 97.5 40.2999C97.8 40.2999 98.2 40.3 98.5 40.2C98.8 40.1 99.1 40 99.4 39.9L99.6 41.4C99.3 41.5 98.9 41.7 98.5 41.7C98 42 97.6 42 97.2 42ZM97.7 38.2C97.7 37.9 97.6 37.7 97.4 37.5C97.2 37.3 97 37.2 96.7 37.2C96.1 37.2 95.8 37.5 95.6 38.2H97.7Z" fill="#005E8E"/>
<path d="M101.9 33.2H104.3L105.6 38.9L107.2 33.2999H109.1L110.8 38.7999L112.1 33.2H114.5L111.9 41.7999H109.8L108.2 36.2999L106.5 41.7999H104.5L101.9 33.2Z" fill="#005E8E"/>
<path d="M114.9 32.6H116.9V36.6C117.1 36.3 117.3 36.1 117.6 36C117.9 35.9 118.2 35.8 118.6 35.8C119.3 35.8 119.8 36 120.1 36.4C120.4 36.8 120.6 37.4 120.6 38.2V41.8H118.6V38.6C118.6 37.9 118.3 37.6 117.8 37.6C117.5 37.6 117.3 37.7 117.2 37.9C117 38.1 117 38.4 117 38.7V41.8H115V32.6H114.9Z" fill="#005E8E"/>
<path d="M124 41.9999C123.5 41.9999 123 41.8999 122.6 41.5999C122.2 41.2999 121.9 40.9999 121.6 40.4999C121.4 39.9999 121.2 39.4999 121.2 38.8999C121.2 38.2999 121.3 37.7999 121.5 37.2999C121.7 36.7999 122.1 36.3999 122.5 36.1999C122.9 35.8999 123.4 35.7999 123.9 35.7999C124.3 35.7999 124.6 35.8999 124.9 35.9999C125.2 36.1999 125.4 36.3999 125.6 36.5999V35.8999H127.5V41.7999H125.6V41.0999C125.4 41.3999 125.2 41.5999 124.9 41.6999C124.7 41.8999 124.4 41.9999 124 41.9999ZM124.5 40.1999C124.8 40.1999 125.1 40.0999 125.4 39.7999C125.6 39.5999 125.7 39.1999 125.7 38.8999C125.7 38.4999 125.6 38.1999 125.4 37.9999C125.2 37.7999 124.9 37.5999 124.5 37.5999C124.2 37.5999 123.9 37.6999 123.6 37.9999C123.4 38.1999 123.3 38.5999 123.3 38.8999C123.3 39.2999 123.4 39.5999 123.6 39.7999C123.9 40.0999 124.2 40.1999 124.5 40.1999Z" fill="#005E8E"/>
<path d="M128.6 32.6H130.6V38.1L132.4 35.9H134.8L132.4 38.6L135.2 41.8H132.7L130.6 39.3V41.8H128.6V32.6Z" fill="#005E8E"/>
<path d="M137.2 41.9999C136.7 41.9999 136.2 41.8999 135.8 41.5999C135.4 41.2999 135.1 40.9999 134.8 40.4999C134.6 39.9999 134.4 39.4999 134.4 38.8999C134.4 38.2999 134.5 37.7999 134.7 37.2999C134.9 36.7999 135.3 36.3999 135.7 36.1999C136.1 35.8999 136.6 35.7999 137.1 35.7999C137.5 35.7999 137.8 35.8999 138.1 35.9999C138.4 36.1999 138.6 36.3999 138.8 36.5999V35.8999H140.7V41.7999H138.8V41.0999C138.6 41.3999 138.4 41.5999 138.1 41.6999C138 41.8999 137.6 41.9999 137.2 41.9999ZM137.8 40.1999C138.1 40.1999 138.4 40.0999 138.7 39.7999C138.9 39.5999 139 39.1999 139 38.8999C139 38.4999 138.9 38.1999 138.7 37.9999C138.5 37.7999 138.2 37.5999 137.8 37.5999C137.5 37.5999 137.2 37.6999 136.9 37.9999C136.7 38.1999 136.6 38.5999 136.6 38.8999C136.6 39.2999 136.7 39.5999 136.9 39.7999C137.2 40.0999 137.4 40.1999 137.8 40.1999Z" fill="#005E8E"/>
<path d="M144.8 41.9999C144.2 41.9999 143.7 41.8999 143.2 41.5999C142.7 41.2999 142.3 40.9999 142 40.4999C141.7 39.9999 141.6 39.4999 141.6 38.8999C141.6 38.2999 141.7 37.7999 142 37.2999C142.3 36.7999 142.7 36.3999 143.1 36.1999C143.6 35.8999 144.2 35.7999 144.8 35.7999C145.4 35.7999 145.9 35.8999 146.4 36.1999C146.9 36.4999 147.3 36.7999 147.6 37.2999C147.9 37.7999 148 38.2999 148 38.8999C148 39.4999 147.9 39.9999 147.6 40.4999C147.3 40.9999 147 41.2999 146.5 41.5999C146 41.8999 145.4 41.9999 144.8 41.9999ZM144.8 40.1999C145.1 40.1999 145.4 40.0999 145.7 39.7999C145.9 39.5999 146 39.1999 146 38.8999C146 38.4999 145.9 38.1999 145.7 37.9999C145.5 37.7999 145.2 37.5999 144.8 37.5999C144.5 37.5999 144.2 37.6999 143.9 37.9999C143.7 38.1999 143.6 38.5999 143.6 38.8999C143.6 39.2999 143.7 39.5999 143.9 39.7999C144.2 40.0999 144.5 40.1999 144.8 40.1999Z" fill="#005E8E"/>
<path d="M148.7 35.8999H150.7V36.7999C150.8 36.4999 151 36.1999 151.3 36.0999C151.5 35.8999 151.8 35.7999 152.2 35.7999C152.5 35.7999 152.7 35.7999 152.9 35.8999L152.7 37.7999C152.5 37.6999 152.2 37.5999 151.9 37.5999C151.5 37.5999 151.2 37.6999 151 37.9999C150.8 38.2999 150.7 38.5999 150.7 39.1999V41.6999H148.7V35.8999Z" fill="#005E8E"/>
<path d="M155.6 41.9999C155.1 41.9999 154.6 41.8999 154.2 41.5999C153.8 41.2999 153.5 40.9999 153.2 40.4999C153 39.9999 152.8 39.4999 152.8 38.8999C152.8 38.2999 152.9 37.7999 153.1 37.2999C153.3 36.7999 153.7 36.3999 154.1 36.1999C154.5 35.8999 155 35.7999 155.5 35.7999C155.9 35.7999 156.2 35.8999 156.5 35.9999C156.8 36.1999 157 36.3999 157.2 36.5999V35.8999H159.1V41.7999H157.3V41.0999C157.1 41.3999 156.9 41.5999 156.6 41.6999C156.3 41.8999 156 41.9999 155.6 41.9999ZM156.1 40.1999C156.4 40.1999 156.7 40.0999 157 39.7999C157.2 39.5999 157.3 39.1999 157.3 38.8999C157.3 38.4999 157.2 38.1999 157 37.9999C156.8 37.7999 156.5 37.5999 156.1 37.5999C155.8 37.5999 155.5 37.6999 155.2 37.9999C155 38.1999 154.9 38.5999 154.9 38.8999C154.9 39.2999 155 39.5999 155.2 39.7999C155.5 40.0999 155.8 40.1999 156.1 40.1999Z" fill="#005E8E"/>
<path d="M161.2 41.9C160.9 41.9 160.6 41.7999 160.4 41.5999C160.2 41.3999 160.1 41.0999 160.1 40.7999C160.1 40.4999 160.2 40.2 160.4 40C160.6 39.8 160.9 39.7 161.2 39.7C161.5 39.7 161.8 39.8 162 40C162.2 40.2 162.3 40.4999 162.3 40.7999C162.3 41.0999 162.2 41.3999 162 41.5999C161.9 41.7999 161.6 41.9 161.2 41.9Z" fill="#005E8E"/>
<path d="M68.5 6.19995H0V74.7H68.5V6.19995Z" fill="#005E8E"/>
<path d="M41.1 29.1C42.4 29.1 43.5 30.2 43.5 31.6C43.5 33 42.4 34.1 41.1 34.1H34.6V43.5L40.2 37.8C41.1 36.8 42.8 36.7 43.8 37.6L43.9 37.7V31.4C44 30.1 45 29.1 46.3 29.1H55.3C56.6 29.1 57.7 30.2 57.7 31.6C57.7 33 56.6 34.1 55.3 34.1H48.8V43.5L54.4 37.8C55.4 36.8 57 36.7 58 37.6C59 38.6 58.8 40.1 57.9 41.1L48.1 51.2C47.7 51.6 47.2 51.9 46.5 51.9C45.2 51.9 44.1 50.8 44.1 49.4V40.8C44 40.9 43.9 41 43.9 41.1L34 51.2C33.6 51.6 33.1 51.9 32.4 51.9C31.1 51.9 30 50.8 30 49.4V31.4C30.1 30.1 31.1 29.1 32.4 29.1H41.1Z" fill="white"/>
<path d="M87.6 57.1C87.9 57.1 88.2 57 88.4 56.8C88.6 56.6 88.7 56.3 88.7 55.9C88.7 55.5 88.6 55.2 88.4 55C88.2 54.8 87.9 54.7 87.6 54.7C87.3 54.7 87 54.8 86.8 55C86.6 55.2 86.5 55.5 86.5 55.9C86.5 56.3 86.6 56.6 86.8 56.8C87 57 87.3 57.1 87.6 57.1ZM84.6 53H86.4V53.6C86.6 53.3 86.8 53.1 87.1 53C87.4 52.9 87.7 52.8 88.1 52.8C88.6 52.8 89 52.9 89.4 53.2C89.8 53.4 90.1 53.8 90.3 54.2C90.5 54.7 90.6 55.2 90.6 55.8C90.6 56.4 90.5 56.9 90.3 57.3C90.1 57.8 89.8 58.1 89.4 58.4C89 58.7 88.5 58.8 88 58.8C87.7 58.8 87.4 58.7 87.1 58.6C86.8 58.5 86.6 58.3 86.5 58.1V61.3H84.5V53H84.6Z" fill="#71C2EA"/>
<path d="M91.6 53H93.5V53.8C93.6 53.5 93.8 53.3 94.1 53.1C94.3 52.9 94.6 52.9 94.9 52.9C95.1 52.9 95.4 52.9 95.5 53L95.3 54.9C95.1 54.8 94.8 54.8 94.6 54.8C94.2 54.8 93.9 54.9 93.7 55.2C93.5 55.5 93.4 55.8 93.4 56.3V58.7H91.4V53H91.6Z" fill="#71C2EA"/>
<path d="M99.7 55.2C99.7 54.9 99.6 54.7 99.4 54.5C99.2 54.3 99 54.2 98.7 54.2C98.2 54.2 97.8 54.5 97.7 55.1H99.7V55.2ZM99.2 58.8C98.5 58.8 97.9 58.7 97.4 58.4C96.9 58.2 96.5 57.8 96.2 57.4C95.9 57 95.8 56.4 95.8 55.8C95.8 55.2 95.9 54.7 96.2 54.3C96.4 53.8 96.8 53.5 97.2 53.2C97.6 52.9 98.2 52.8 98.8 52.8C99.6 52.8 100.3 53.1 100.8 53.6C101.3 54.1 101.5 54.8 101.5 55.7C101.5 56 101.5 56.2 101.4 56.4H97.7C97.8 56.7 98 57 98.3 57.1C98.6 57.3 99 57.3 99.4 57.3C99.7 57.3 100 57.3 100.3 57.2C100.6 57.1 100.9 57 101.1 56.9L101.3 58.4C101 58.5 100.7 58.6 100.3 58.7C100.1 58.8 99.7 58.8 99.2 58.8Z" fill="#71C2EA"/>
<path d="M102 53H104.1L105.1 56.7L106.2 53H108.2L106.1 58.6H104L102 53Z" fill="#71C2EA"/>
<path d="M112.2 55.2C112.2 54.9 112.1 54.7 111.9 54.5C111.7 54.3 111.5 54.2 111.2 54.2C110.6 54.2 110.3 54.5 110.2 55.1H112.2V55.2ZM111.7 58.8C111 58.8 110.4 58.7 109.9 58.4C109.4 58.2 109 57.8 108.7 57.4C108.4 57 108.3 56.4 108.3 55.8C108.3 55.2 108.4 54.7 108.7 54.3C108.9 53.8 109.3 53.5 109.7 53.2C110.1 52.9 110.7 52.8 111.3 52.8C112.1 52.8 112.8 53.1 113.3 53.6C113.8 54.1 114 54.8 114 55.7C114 56 114 56.2 113.9 56.4H110.2C110.3 56.7 110.5 57 110.8 57.1C111.1 57.3 111.5 57.3 111.9 57.3C112.2 57.3 112.5 57.3 112.8 57.2C113.1 57.1 113.4 57 113.6 56.9L113.8 58.4C113.5 58.5 113.2 58.6 112.8 58.7C112.5 58.8 112.1 58.8 111.7 58.8Z" fill="#71C2EA"/>
<path d="M114.9 53H116.8V53.7C116.9 53.4 117.2 53.2 117.4 53.1C117.7 52.9 118 52.9 118.4 52.9C119 52.9 119.5 53.1 119.9 53.5C120.2 53.9 120.4 54.5 120.4 55.3V58.7H118.4V55.7C118.4 55 118.1 54.7 117.6 54.7C117.3 54.7 117.1 54.8 117 55C116.9 55.2 116.8 55.4 116.8 55.8V58.8H114.8V53H114.9Z" fill="#71C2EA"/>
<path d="M122 54.6H121.1V53H122V51.6H124V53H125.1V54.6H124V58.6H122V54.6Z" fill="#71C2EA"/>
<path d="M126 53H128V58.6H126V53ZM127 52.1C126.7 52.1 126.4 52 126.2 51.8C126 51.6 125.9 51.4 125.9 51.1C125.9 50.8 126 50.6 126.2 50.3C126.4 50.1 126.7 50 127 50C127.3 50 127.6 50.1 127.8 50.3C128 50.5 128.1 50.8 128.1 51.1C128.1 51.4 128 51.6 127.8 51.8C127.5 52 127.3 52.1 127 52.1Z" fill="#71C2EA"/>
<path d="M131.9 57.0999C132.2 57.0999 132.5 56.9999 132.7 56.7999C132.9 56.5999 133 56.3 133 55.9C133 55.5 132.9 55.2 132.7 55C132.5 54.8 132.2 54.7 131.9 54.7C131.6 54.7 131.3 54.8 131.1 55C130.9 55.2 130.8 55.5 130.8 55.9C130.8 56.3 130.9 56.5999 131.1 56.7999C131.3 56.9999 131.5 57.0999 131.9 57.0999ZM131.9 58.7999C131.3 58.7999 130.8 58.7 130.4 58.4C129.9 58.2 129.6 57.7999 129.3 57.2999C129 56.7999 128.9 56.3 128.9 55.7C128.9 55.2 129 54.7 129.3 54.2C129.6 53.7 129.9 53.3999 130.4 53.0999C130.9 52.7999 131.4 52.7 132 52.7C132.6 52.7 133.1 52.7999 133.5 53.0999C134 53.2999 134.3 53.7 134.6 54.2C134.9 54.7 135 55.1999 135 55.7999C135 56.2999 134.9 56.7999 134.6 57.2999C134.3 57.7999 134 58.1 133.5 58.4C133 58.7 132.5 58.7999 131.9 58.7999Z" fill="#71C2EA"/>
<path d="M135.8 53H137.7V53.7C137.8 53.4 138 53.2 138.3 53.1C138.6 52.9 138.9 52.9 139.3 52.9C139.9 52.9 140.4 53.1 140.8 53.5C141.1 53.9 141.3 54.5 141.3 55.3V58.7H139.3V55.7C139.3 55 139.1 54.7 138.6 54.7C138.3 54.7 138.1 54.8 138 55C137.9 55.2 137.8 55.4 137.8 55.8V58.8H135.8V53Z" fill="#71C2EA"/>
<path d="M143.6 58.7C143.3 58.7 143 58.6 142.8 58.4C142.6 58.2 142.5 58 142.5 57.6C142.5 57.3 142.6 57.1 142.8 56.9C143 56.7 143.3 56.6 143.6 56.6C143.9 56.6 144.2 56.7 144.4 56.9C144.6 57.1 144.7 57.3 144.7 57.6C144.7 57.9 144.6 58.2 144.4 58.4C144.2 58.6 144 58.7 143.6 58.7Z" fill="#71C2EA"/>
<path d="M150.2 58.8C149.6 58.8 149.1 58.7 148.6 58.4C148.1 58.2 147.8 57.8 147.5 57.4C147.2 57 147.1 56.4 147.1 55.8C147.1 55.2 147.2 54.7 147.5 54.3C147.8 53.9 148.1 53.5 148.6 53.2C149.1 52.9 149.6 52.8 150.2 52.8C150.5 52.8 150.9 52.8 151.2 52.9C151.6 53 151.9 53.1 152.1 53.2L151.9 54.8C151.4 54.6 151 54.5 150.5 54.5C150.1 54.5 149.7 54.6 149.5 54.8C149.3 55 149.1 55.3 149.1 55.7C149.1 56.1 149.2 56.4 149.5 56.6C149.8 56.8 150.1 56.9 150.6 56.9C151.1 56.9 151.5 56.8 152.1 56.6L152.3 58.2C152 58.3 151.7 58.5 151.4 58.5C150.9 58.8 150.5 58.8 150.2 58.8Z" fill="#71C2EA"/>
<path d="M155.7 57.1C156 57.1 156.3 57 156.5 56.8C156.7 56.6 156.8 56.3 156.8 55.9C156.8 55.5 156.7 55.2 156.5 55C156.3 54.8 156 54.7 155.7 54.7C155.4 54.7 155.1 54.8 154.9 55C154.7 55.2 154.6 55.5 154.6 55.9C154.6 56.3 154.7 56.6 154.9 56.8C155.1 57 155.3 57.1 155.7 57.1ZM155.1 58.8C154.6 58.8 154.2 58.7 153.8 58.4C153.4 58.2 153.1 57.8 152.9 57.4C152.7 57 152.6 56.4 152.6 55.8C152.6 55.2 152.7 54.7 152.9 54.3C153.1 53.8 153.4 53.5 153.8 53.2C154.2 52.9 154.7 52.8 155.2 52.8C155.5 52.8 155.8 52.9 156.1 53C156.4 53.1 156.6 53.3 156.8 53.6V52.9H158.6V58.5H156.8V57.9C156.6 58.2 156.4 58.4 156.1 58.5C155.8 58.7 155.5 58.8 155.1 58.8Z" fill="#71C2EA"/>
<path d="M159.8 53H161.7V53.8C161.8 53.5 162 53.3 162.3 53.1C162.5 52.9 162.8 52.9 163.1 52.9C163.3 52.9 163.6 52.9 163.7 53L163.5 54.9C163.3 54.8 163 54.8 162.8 54.8C162.4 54.8 162.1 54.9 161.9 55.2C161.7 55.5 161.6 55.8 161.6 56.3V58.7H159.6V53H159.8Z" fill="#71C2EA"/>
<path d="M168 55.2C168 54.9 167.9 54.7 167.7 54.5C167.5 54.3 167.3 54.2 167 54.2C166.4 54.2 166.1 54.5 166 55.1H168V55.2ZM167.5 58.8C166.8 58.8 166.2 58.7 165.7 58.4C165.2 58.2 164.8 57.8 164.5 57.4C164.2 57 164.1 56.4 164.1 55.8C164.1 55.2 164.2 54.7 164.5 54.3C164.7 53.8 165.1 53.5 165.5 53.2C165.9 52.9 166.5 52.8 167.1 52.8C167.9 52.8 168.6 53.1 169.1 53.6C169.6 54.1 169.8 54.8 169.8 55.7C169.8 56 169.8 56.2 169.7 56.4H166C166.1 56.7 166.3 57 166.6 57.1C166.9 57.3 167.3 57.3 167.7 57.3C168 57.3 168.3 57.3 168.6 57.2C168.9 57.1 169.2 57 169.5 56.9L169.7 58.4C169.4 58.5 169.1 58.6 168.7 58.7C168.4 58.8 168 58.8 167.5 58.8Z" fill="#71C2EA"/>
<path d="M172 58.7C171.7 58.7 171.4 58.6 171.2 58.4C171 58.2 170.9 58 170.9 57.6C170.9 57.3 171 57.1 171.2 56.9C171.4 56.7 171.7 56.6 172 56.6C172.3 56.6 172.6 56.7 172.8 56.9C173 57.1 173.1 57.3 173.1 57.6C173.1 57.9 173 58.2 172.8 58.4C172.6 58.6 172.3 58.7 172 58.7Z" fill="#71C2EA"/>
<path d="M175.8 53H177.7V53.8C177.8 53.5 178 53.3 178.3 53.1C178.5 52.9 178.8 52.9 179.1 52.9C179.3 52.9 179.6 52.9 179.7 53L179.5 54.9C179.3 54.8 179 54.8 178.8 54.8C178.4 54.8 178.1 54.9 177.9 55.2C177.7 55.5 177.6 55.8 177.6 56.3V58.7H175.6V53H175.8Z" fill="#71C2EA"/>
<path d="M184.1 55.2C184.1 54.9 184 54.7 183.8 54.5C183.6 54.3 183.4 54.2 183.1 54.2C182.5 54.2 182.2 54.5 182.1 55.1H184.1V55.2ZM183.6 58.8C182.9 58.8 182.3 58.7 181.8 58.4C181.3 58.2 180.9 57.8 180.6 57.4C180.3 57 180.2 56.4 180.2 55.8C180.2 55.2 180.3 54.7 180.6 54.3C180.8 53.8 181.2 53.5 181.6 53.2C182 52.9 182.6 52.8 183.2 52.8C184 52.8 184.7 53.1 185.2 53.6C185.7 54.1 185.9 54.8 185.9 55.7C185.9 56 185.9 56.2 185.8 56.4H182.1C182.2 56.7 182.4 57 182.7 57.1C183 57.3 183.4 57.3 183.8 57.3C184.1 57.3 184.4 57.3 184.7 57.2C185 57.1 185.3 57 185.5 56.9L185.7 58.4C185.4 58.5 185.1 58.6 184.7 58.7C184.4 58.8 184 58.8 183.6 58.8Z" fill="#71C2EA"/>
<path d="M189.7 58.8C189.1 58.8 188.6 58.7 188.1 58.4C187.6 58.2 187.3 57.8 187 57.4C186.7 57 186.6 56.4 186.6 55.8C186.6 55.2 186.7 54.7 187 54.3C187.3 53.9 187.6 53.5 188.1 53.2C188.6 52.9 189.1 52.8 189.7 52.8C190 52.8 190.4 52.8 190.7 52.9C191.1 53 191.3 53.1 191.6 53.2L191.4 54.8C190.9 54.6 190.5 54.5 190 54.5C189.6 54.5 189.2 54.6 189 54.8C188.7 55 188.6 55.3 188.6 55.7C188.6 56.1 188.7 56.4 189 56.6C189.3 56.8 189.6 56.9 190.1 56.9C190.6 56.9 191 56.8 191.6 56.6L191.8 58.2C191.5 58.3 191.2 58.5 190.9 58.5C190.4 58.8 190 58.8 189.7 58.8Z" fill="#71C2EA"/>
<path d="M195.1 57.0999C195.4 57.0999 195.7 56.9999 195.9 56.7999C196.1 56.5999 196.2 56.3 196.2 55.9C196.2 55.5 196.1 55.2 195.9 55C195.7 54.8 195.4 54.7 195.1 54.7C194.8 54.7 194.5 54.8 194.3 55C194.1 55.2 194 55.5 194 55.9C194 56.3 194.1 56.5999 194.3 56.7999C194.5 56.9999 194.7 57.0999 195.1 57.0999ZM195.1 58.7999C194.5 58.7999 194 58.7 193.5 58.4C193 58.2 192.7 57.7999 192.4 57.2999C192.1 56.7999 192 56.3 192 55.7C192 55.2 192.1 54.7 192.4 54.2C192.7 53.7 193 53.3999 193.5 53.0999C194 52.7999 194.5 52.7 195.1 52.7C195.7 52.7 196.2 52.7999 196.6 53.0999C197.1 53.2999 197.4 53.7 197.7 54.2C198 54.7 198.1 55.1999 198.1 55.7999C198.1 56.2999 198 56.7999 197.7 57.2999C197.4 57.7999 197.1 58.1 196.6 58.4C196.2 58.7 195.7 58.7999 195.1 58.7999Z" fill="#71C2EA"/>
<path d="M198.3 53H200.4L201.4 56.7L202.5 53H204.5L202.4 58.6H200.3L198.3 53Z" fill="#71C2EA"/>
<path d="M208.7 55.2C208.7 54.9 208.6 54.7 208.4 54.5C208.2 54.3 208 54.2 207.7 54.2C207.1 54.2 206.8 54.5 206.7 55.1H208.7V55.2ZM208.2 58.8C207.5 58.8 206.9 58.7 206.4 58.4C205.9 58.2 205.5 57.8 205.2 57.4C204.9 57 204.8 56.4 204.8 55.8C204.8 55.2 204.9 54.7 205.2 54.3C205.4 53.8 205.8 53.5 206.2 53.2C206.6 52.9 207.2 52.8 207.8 52.8C208.6 52.8 209.3 53.1 209.8 53.6C210.3 54.1 210.5 54.8 210.5 55.7C210.5 56 210.5 56.2 210.4 56.4H206.7C206.8 56.7 207 57 207.3 57.1C207.6 57.3 208 57.3 208.4 57.3C208.7 57.3 209 57.3 209.3 57.2C209.6 57.1 209.9 57 210.1 56.9L210.3 58.4C210 58.5 209.7 58.6 209.3 58.7C209 58.8 208.6 58.8 208.2 58.8Z" fill="#71C2EA"/>
<path d="M211.4 53H213.3V53.8C213.4 53.5 213.6 53.3 213.9 53.1C214.1 52.9 214.4 52.9 214.7 52.9C214.9 52.9 215.2 52.9 215.3 53L215.1 54.9C214.9 54.8 214.6 54.8 214.4 54.8C214 54.8 213.7 54.9 213.5 55.2C213.3 55.5 213.2 55.8 213.2 56.3V58.7H211.2V53H211.4Z" fill="#71C2EA"/>
<path d="M217.9 58.3L215.6 53H217.7L218.9 56.3L219.9 53H222L218.4 61.3H216.5L217.9 58.3Z" fill="#71C2EA"/>
<path d="M222.5 58.7C222.2 58.7 221.9 58.6 221.7 58.4C221.5 58.2 221.4 58 221.4 57.6C221.4 57.3 221.5 57.1 221.7 56.9C221.9 56.7 222.2 56.6 222.5 56.6C222.8 56.6 223.1 56.7 223.3 56.9C223.5 57.1 223.6 57.3 223.6 57.6C223.6 57.9 223.5 58.2 223.3 58.4C223 58.6 222.8 58.7 222.5 58.7Z" fill="#71C2EA"/>
<path d="M16.8 29.1H26.1C27.4 29.1 28.5 30.2 28.5 31.6V49.4C28.5 50.8 27.4 51.9 26.1 51.9C24.8 51.9 23.7 50.8 23.7 49.4V41.4C23.6 41.5 23.5 41.7 23.4 41.8L14.2 51.2C13.8 51.6 13.3 51.9 12.6 51.9C11.3 51.9 10.2 50.8 10.2 49.4V35.9C10.2 35.3 10.4 34.8 10.7 34.4L15.4 29.6C15.8 29.3 16.3 29.1 16.8 29.1ZM23.7 38.6V34.1H17.9L15 37V43.3L19.9 38.3C20.9 37.3 22.4 37.3 23.3 38.3C23.5 38.4 23.6 38.5 23.7 38.6Z" fill="white"/>
</svg>
