<?xml version="1.0" encoding="utf-8"?>
<!-- Generator: Adobe Illustrator 25.0.0, SVG Export Plug-In . SVG Version: 6.00 Build 0)  -->
<svg version="1.1" id="Layer_1" xmlns="http://www.w3.org/2000/svg" xmlns:xlink="http://www.w3.org/1999/xlink" x="0px" y="0px"
	 viewBox="0 0 237 82" style="enable-background:new 0 0 237 82;" xml:space="preserve">
<style type="text/css">
	.st0{fill:#005E8E;}
	.st1{fill:#FFFFFF;}
	.st2{fill:#71C2EA;}
</style>
<g>
	<polygon class="st0" points="90.4,18.7 92.7,18.7 92.7,22 96.1,22 96.1,18.7 98.4,18.7 98.4,27.3 96.1,27.3 96.1,23.8 92.7,23.8 
		92.7,27.3 90.4,27.3 	"/>
	<g>
		<path class="st0" d="M102.9,27.5c-0.7,0-1.3-0.1-1.9-0.4c-0.5-0.2-0.9-0.6-1.2-1.1c-0.3-0.5-0.4-1-0.4-1.7c0-0.6,0.1-1.1,0.4-1.6
			c0.3-0.5,0.6-0.8,1.1-1.1c0.5-0.3,1-0.4,1.6-0.4c0.9,0,1.6,0.3,2.1,0.8c0.5,0.5,0.8,1.2,0.8,2.1c0,0.3,0,0.5-0.1,0.7h-3.9
			c0.1,0.3,0.3,0.6,0.6,0.8c0.3,0.2,0.7,0.2,1.2,0.2c0.3,0,0.7,0,1-0.1c0.3-0.1,0.6-0.2,0.9-0.3l0.2,1.5c-0.3,0.1-0.7,0.3-1.1,0.3
			C103.7,27.5,103.3,27.5,102.9,27.5 M103.4,23.7c0-0.3-0.1-0.5-0.3-0.7c-0.2-0.2-0.4-0.3-0.7-0.3c-0.6,0-0.9,0.3-1.1,1H103.4z"/>
		<polygon class="st0" points="108.3,18.7 110.6,18.7 110.6,22.2 113.5,18.7 116.3,18.7 112.6,22.8 116.6,27.3 113.7,27.3 
			110.6,23.7 110.6,27.3 108.3,27.3 		"/>
		<path class="st0" d="M119,27.5c-0.5,0-1-0.1-1.4-0.4c-0.4-0.3-0.7-0.6-1-1.1c-0.2-0.5-0.4-1-0.4-1.6c0-0.6,0.1-1.1,0.3-1.6
			c0.2-0.5,0.6-0.9,1-1.1c0.4-0.3,0.9-0.4,1.4-0.4c0.4,0,0.7,0.1,1,0.2c0.3,0.2,0.5,0.4,0.7,0.6l0-0.7h1.9v5.9h-1.9l0-0.7
			c-0.2,0.3-0.4,0.5-0.7,0.6C119.7,27.4,119.3,27.5,119,27.5 M119.5,25.7c0.3,0,0.6-0.1,0.9-0.4c0.2-0.2,0.3-0.6,0.3-0.9
			c0-0.4-0.1-0.7-0.3-0.9c-0.2-0.2-0.5-0.4-0.9-0.4c-0.3,0-0.6,0.1-0.9,0.4c-0.2,0.2-0.3,0.6-0.3,0.9c0,0.4,0.1,0.7,0.3,0.9
			C118.9,25.6,119.2,25.7,119.5,25.7"/>
		<path class="st0" d="M126.4,27.5c-0.9,0-1.6-0.2-2.1-0.7c-0.5-0.5-0.7-1.2-0.7-2.1v-3.3h2v3.2c0,0.3,0.1,0.6,0.2,0.8
			c0.1,0.2,0.3,0.2,0.6,0.2c0.3,0,0.5-0.1,0.6-0.2c0.1-0.2,0.2-0.4,0.2-0.8v-3.2h2v3.3c0,0.9-0.2,1.6-0.7,2.1
			C128.1,27.3,127.4,27.5,126.4,27.5"/>
		<path class="st0" d="M130.1,21.4h1.9l0,0.7c0.2-0.3,0.4-0.5,0.7-0.6c0.3-0.1,0.6-0.2,1-0.2c0.5,0,1,0.1,1.4,0.4
			c0.4,0.3,0.7,0.6,1,1.1c0.2,0.5,0.4,1,0.4,1.6c0,0.6-0.1,1.1-0.3,1.6c-0.2,0.5-0.6,0.9-1,1.1c-0.4,0.3-0.9,0.4-1.4,0.4
			c-0.3,0-0.6-0.1-0.9-0.2c-0.3-0.1-0.5-0.3-0.7-0.5v3.3h-2.1V21.4z M133.2,25.7c0.3,0,0.6-0.1,0.9-0.4c0.2-0.2,0.3-0.6,0.3-0.9
			c0-0.4-0.1-0.7-0.3-0.9c-0.2-0.2-0.5-0.4-0.9-0.4c-0.4,0-0.6,0.1-0.9,0.4c-0.2,0.2-0.3,0.6-0.3,0.9c0,0.4,0.1,0.7,0.3,0.9
			C132.5,25.6,132.8,25.7,133.2,25.7"/>
		<path class="st0" d="M139.5,27.5c-0.5,0-1-0.1-1.4-0.4c-0.4-0.3-0.7-0.6-1-1.1c-0.2-0.5-0.4-1-0.4-1.6c0-0.6,0.1-1.1,0.3-1.6
			c0.2-0.5,0.6-0.9,1-1.1c0.4-0.3,0.9-0.4,1.4-0.4c0.4,0,0.7,0.1,1,0.2c0.3,0.2,0.5,0.4,0.7,0.6l0-0.7h1.9v5.9h-1.9l0-0.7
			c-0.2,0.3-0.4,0.5-0.7,0.6C140.3,27.4,139.9,27.5,139.5,27.5 M140.1,25.7c0.3,0,0.6-0.1,0.9-0.4c0.2-0.2,0.3-0.6,0.3-0.9
			c0-0.4-0.1-0.7-0.3-0.9c-0.2-0.2-0.5-0.4-0.9-0.4c-0.3,0-0.6,0.1-0.9,0.4c-0.2,0.2-0.3,0.6-0.3,0.9c0,0.4,0.1,0.7,0.3,0.9
			C139.5,25.6,139.7,25.7,140.1,25.7"/>
		<path class="st0" d="M144.2,21.4h2l0,0.9c0.1-0.3,0.3-0.6,0.6-0.7c0.2-0.2,0.5-0.3,0.9-0.3c0.3,0,0.5,0,0.7,0.1l-0.2,1.9
			c-0.2-0.1-0.5-0.1-0.8-0.1c-0.4,0-0.7,0.1-0.9,0.4c-0.2,0.3-0.3,0.6-0.3,1.2v2.5h-2V21.4z"/>
		<path class="st0" d="M151.9,27.5c-0.7,0-1.3-0.1-1.9-0.4c-0.5-0.2-0.9-0.6-1.2-1.1c-0.3-0.5-0.4-1-0.4-1.7c0-0.6,0.1-1.1,0.4-1.6
			c0.3-0.5,0.6-0.8,1.1-1.1c0.5-0.3,1-0.4,1.6-0.4c0.9,0,1.6,0.3,2.1,0.8c0.5,0.5,0.8,1.2,0.8,2.1c0,0.3,0,0.5-0.1,0.7h-3.9
			c0.1,0.3,0.3,0.6,0.6,0.8c0.3,0.2,0.7,0.2,1.2,0.2c0.3,0,0.7,0,1-0.1c0.3-0.1,0.6-0.2,0.9-0.3l0.2,1.5c-0.3,0.1-0.7,0.3-1.1,0.3
			C152.8,27.5,152.4,27.5,151.9,27.5 M152.4,23.7c0-0.3-0.1-0.5-0.3-0.7c-0.2-0.2-0.4-0.3-0.7-0.3c-0.6,0-0.9,0.3-1.1,1H152.4z"/>
		<path class="st0" d="M156.2,27.4c-0.3,0-0.6-0.1-0.8-0.3c-0.2-0.2-0.3-0.5-0.3-0.8c0-0.3,0.1-0.6,0.3-0.8c0.2-0.2,0.5-0.3,0.8-0.3
			c0.3,0,0.6,0.1,0.8,0.3c0.2,0.2,0.3,0.5,0.3,0.8c0,0.3-0.1,0.6-0.3,0.8C156.8,27.3,156.5,27.4,156.2,27.4"/>
		<polygon class="st0" points="160.4,18.7 162.7,18.7 162.7,22 166.1,22 166.1,18.7 168.4,18.7 168.4,27.3 166.1,27.3 166.1,23.8 
			162.7,23.8 162.7,27.3 160.4,27.3 		"/>
		<path class="st0" d="M172.8,27.5c-0.7,0-1.3-0.1-1.9-0.4c-0.5-0.2-0.9-0.6-1.2-1.1c-0.3-0.5-0.4-1-0.4-1.7c0-0.6,0.1-1.1,0.4-1.6
			c0.3-0.5,0.6-0.8,1.1-1.1c0.5-0.3,1-0.4,1.6-0.4c0.9,0,1.6,0.3,2.1,0.8c0.5,0.5,0.8,1.2,0.8,2.1c0,0.3,0,0.5-0.1,0.7h-3.9
			c0.1,0.3,0.3,0.6,0.6,0.8c0.3,0.2,0.7,0.2,1.2,0.2c0.3,0,0.7,0,1-0.1c0.3-0.1,0.6-0.2,0.9-0.3l0.2,1.5c-0.3,0.1-0.7,0.3-1.1,0.3
			C173.6,27.5,173.2,27.5,172.8,27.5 M173.3,23.7c0-0.3-0.1-0.5-0.3-0.7c-0.2-0.2-0.4-0.3-0.7-0.3c-0.6,0-0.9,0.3-1.1,1H173.3z"/>
		<polygon class="st0" points="178.3,18.7 180.6,18.7 183,23.5 185.4,18.7 187.7,18.7 187.7,27.3 185.6,27.3 185.6,22.1 183.9,25.5 
			182.1,25.5 180.4,22.1 180.4,27.3 178.3,27.3 		"/>
		<path class="st0" d="M191.3,27.5c-0.5,0-1-0.1-1.4-0.4c-0.4-0.3-0.7-0.6-1-1.1c-0.2-0.5-0.4-1-0.4-1.6c0-0.6,0.1-1.1,0.3-1.6
			c0.2-0.5,0.6-0.9,1-1.1c0.4-0.3,0.9-0.4,1.4-0.4c0.4,0,0.7,0.1,1,0.2c0.3,0.2,0.5,0.4,0.7,0.6l0-0.7h1.9v5.9h-1.9l0-0.7
			c-0.2,0.3-0.4,0.5-0.7,0.6C192,27.4,191.7,27.5,191.3,27.5 M191.9,25.7c0.3,0,0.6-0.1,0.9-0.4c0.2-0.2,0.3-0.6,0.3-0.9
			c0-0.4-0.1-0.7-0.3-0.9c-0.2-0.2-0.5-0.4-0.9-0.4c-0.3,0-0.6,0.1-0.9,0.4c-0.2,0.2-0.3,0.6-0.3,0.9c0,0.4,0.1,0.7,0.3,0.9
			C191.2,25.6,191.5,25.7,191.9,25.7"/>
		<path class="st0" d="M196,21.4h2l0,0.7c0.1-0.3,0.4-0.5,0.7-0.7c0.3-0.2,0.6-0.2,1-0.2c0.7,0,1.2,0.2,1.5,0.6
			c0.3,0.4,0.5,1,0.5,1.9v3.6h-2.1v-3.2c0-0.7-0.3-1-0.8-1c-0.3,0-0.5,0.1-0.6,0.3c-0.2,0.2-0.2,0.5-0.2,0.8v3.1h-2V21.4z"/>
		<path class="st0" d="M204.9,27.5c-0.5,0-1-0.1-1.4-0.4c-0.4-0.3-0.7-0.6-1-1.1c-0.2-0.5-0.4-1-0.4-1.6c0-0.6,0.1-1.1,0.3-1.6
			c0.2-0.5,0.6-0.9,1-1.1c0.4-0.3,0.9-0.4,1.4-0.4c0.4,0,0.7,0.1,1,0.2c0.3,0.2,0.5,0.4,0.7,0.6l0-0.7h1.9v5.9h-1.9l0-0.7
			c-0.2,0.3-0.4,0.5-0.7,0.6C205.7,27.4,205.3,27.5,204.9,27.5 M205.5,25.7c0.3,0,0.6-0.1,0.9-0.4c0.2-0.2,0.3-0.6,0.3-0.9
			c0-0.4-0.1-0.7-0.3-0.9c-0.2-0.2-0.5-0.4-0.9-0.4c-0.3,0-0.6,0.1-0.9,0.4c-0.2,0.2-0.3,0.6-0.3,0.9c0,0.4,0.1,0.7,0.3,0.9
			C204.9,25.6,205.2,25.7,205.5,25.7"/>
		<path class="st0" d="M211.7,27.5c-0.5,0-1-0.1-1.4-0.4c-0.4-0.3-0.7-0.6-1-1.1c-0.2-0.5-0.4-1-0.4-1.6c0-0.6,0.1-1.1,0.3-1.6
			c0.2-0.5,0.6-0.9,1-1.1c0.4-0.3,0.9-0.4,1.4-0.4c0.4,0,0.7,0.1,1,0.2c0.3,0.2,0.5,0.4,0.7,0.6l0-0.7h1.9v5.9h-1.9l0-0.7
			c-0.2,0.3-0.4,0.5-0.7,0.6C212.5,27.4,212.1,27.5,211.7,27.5 M212.3,25.7c0.3,0,0.6-0.1,0.9-0.4c0.2-0.2,0.3-0.6,0.3-0.9
			c0-0.4-0.1-0.7-0.3-0.9c-0.2-0.2-0.5-0.4-0.9-0.4c-0.3,0-0.6,0.1-0.9,0.4c-0.2,0.2-0.3,0.6-0.3,0.9c0,0.4,0.1,0.7,0.3,0.9
			C211.7,25.6,211.9,25.7,212.3,25.7"/>
		<polygon class="st0" points="216.4,18.1 218.5,18.1 218.5,23.6 220.2,21.4 222.6,21.4 220.3,24.1 223,27.3 220.5,27.3 218.5,24.8 
			218.5,27.3 216.4,27.3 		"/>
		<path class="st0" d="M224.4,20.5c-0.3,0-0.6-0.1-0.8-0.3c-0.2-0.2-0.3-0.5-0.3-0.8c0-0.3,0.1-0.6,0.3-0.8c0.2-0.2,0.5-0.3,0.8-0.3
			s0.6,0.1,0.8,0.3c0.2,0.2,0.3,0.5,0.3,0.8c0,0.3-0.1,0.6-0.3,0.8C225,20.4,224.7,20.5,224.4,20.5 M223.3,21.4h2.1v5.9h-2.1V21.4z"
			/>
		<path class="st0" d="M227.4,27.4c-0.3,0-0.6-0.1-0.8-0.3c-0.2-0.2-0.3-0.5-0.3-0.8c0-0.3,0.1-0.6,0.3-0.8c0.2-0.2,0.5-0.3,0.8-0.3
			c0.3,0,0.6,0.1,0.8,0.3c0.2,0.2,0.3,0.5,0.3,0.8c0,0.3-0.1,0.6-0.3,0.8C228,27.3,227.8,27.4,227.4,27.4"/>
		<polygon class="st0" points="90.4,33.2 92.7,33.2 92.7,36.5 96.1,36.5 96.1,33.2 98.4,33.2 98.4,41.8 96.1,41.8 96.1,38.3 
			92.7,38.3 92.7,41.8 90.4,41.8 		"/>
		<path class="st0" d="M102.9,42c-0.7,0-1.3-0.1-1.9-0.4c-0.5-0.2-0.9-0.6-1.2-1.1c-0.3-0.5-0.4-1-0.4-1.7c0-0.6,0.1-1.1,0.4-1.6
			c0.3-0.5,0.6-0.8,1.1-1.1c0.5-0.3,1-0.4,1.6-0.4c0.9,0,1.6,0.3,2.1,0.8c0.5,0.5,0.8,1.2,0.8,2.1c0,0.3,0,0.5-0.1,0.7h-3.9
			c0.1,0.3,0.3,0.6,0.6,0.8c0.3,0.2,0.7,0.2,1.2,0.2c0.3,0,0.7,0,1-0.1c0.3-0.1,0.6-0.2,0.9-0.3l0.2,1.5c-0.3,0.1-0.7,0.3-1.1,0.3
			C103.7,42,103.3,42,102.9,42 M103.4,38.2c0-0.3-0.1-0.5-0.3-0.7c-0.2-0.2-0.4-0.3-0.7-0.3c-0.6,0-0.9,0.3-1.1,1H103.4z"/>
		<polygon class="st0" points="107.6,33.2 110,33.2 111.3,38.9 112.9,33.3 114.8,33.3 116.5,38.8 117.8,33.2 120.2,33.2 117.6,41.8 
			115.5,41.8 113.9,36.3 112.2,41.8 110.2,41.8 		"/>
		<path class="st0" d="M120.6,32.6h2v4c0.2-0.3,0.4-0.5,0.7-0.6c0.3-0.1,0.6-0.2,1-0.2c0.7,0,1.2,0.2,1.5,0.6c0.3,0.4,0.5,1,0.5,1.8
			v3.6h-2v-3.2c0-0.7-0.3-1-0.8-1c-0.3,0-0.5,0.1-0.6,0.3c-0.2,0.2-0.2,0.5-0.2,0.8v3.1h-2V32.6z"/>
		<path class="st0" d="M129.7,42c-0.5,0-1-0.1-1.4-0.4c-0.4-0.3-0.7-0.6-1-1.1c-0.2-0.5-0.4-1-0.4-1.6c0-0.6,0.1-1.1,0.3-1.6
			c0.2-0.5,0.6-0.9,1-1.1c0.4-0.3,0.9-0.4,1.4-0.4c0.4,0,0.7,0.1,1,0.2c0.3,0.2,0.5,0.4,0.7,0.6l0-0.7h1.9v5.9h-1.9l0-0.7
			c-0.2,0.3-0.4,0.5-0.7,0.6C130.4,41.9,130.1,42,129.7,42 M130.2,40.2c0.3,0,0.6-0.1,0.9-0.4c0.2-0.2,0.3-0.6,0.3-0.9
			c0-0.4-0.1-0.7-0.3-0.9s-0.5-0.4-0.9-0.4c-0.3,0-0.6,0.1-0.9,0.4c-0.2,0.2-0.3,0.6-0.3,0.9c0,0.4,0.1,0.7,0.3,0.9
			C129.6,40.1,129.9,40.2,130.2,40.2"/>
		<polygon class="st0" points="134.3,32.6 136.3,32.6 136.3,38.1 138.1,35.9 140.5,35.9 138.1,38.6 140.9,41.8 138.4,41.8 
			136.3,39.3 136.3,41.8 134.3,41.8 		"/>
		<path class="st0" d="M142.9,42c-0.5,0-1-0.1-1.4-0.4c-0.4-0.3-0.7-0.6-1-1.1c-0.2-0.5-0.4-1-0.4-1.6c0-0.6,0.1-1.1,0.3-1.6
			c0.2-0.5,0.6-0.9,1-1.1c0.4-0.3,0.9-0.4,1.4-0.4c0.4,0,0.7,0.1,1,0.2c0.3,0.2,0.5,0.4,0.7,0.6l0-0.7h1.9v5.9h-1.9l0-0.7
			c-0.2,0.3-0.4,0.5-0.7,0.6C143.7,41.9,143.3,42,142.9,42 M143.5,40.2c0.3,0,0.6-0.1,0.9-0.4c0.2-0.2,0.3-0.6,0.3-0.9
			c0-0.4-0.1-0.7-0.3-0.9s-0.5-0.4-0.9-0.4c-0.3,0-0.6,0.1-0.9,0.4c-0.2,0.2-0.3,0.6-0.3,0.9c0,0.4,0.1,0.7,0.3,0.9
			C142.9,40.1,143.1,40.2,143.5,40.2"/>
		<path class="st0" d="M150.5,42c-0.6,0-1.1-0.1-1.6-0.4c-0.5-0.3-0.9-0.6-1.2-1.1c-0.3-0.5-0.4-1-0.4-1.6c0-0.6,0.1-1.1,0.4-1.6
			c0.3-0.5,0.7-0.9,1.1-1.1c0.5-0.3,1.1-0.4,1.7-0.4c0.6,0,1.1,0.1,1.6,0.4c0.5,0.3,0.9,0.6,1.2,1.1c0.3,0.5,0.4,1,0.4,1.6
			c0,0.6-0.1,1.1-0.4,1.6c-0.3,0.5-0.6,0.8-1.1,1.1C151.7,41.9,151.1,42,150.5,42 M150.5,40.2c0.3,0,0.6-0.1,0.9-0.4
			c0.2-0.2,0.3-0.6,0.3-0.9c0-0.4-0.1-0.7-0.3-0.9s-0.5-0.4-0.9-0.4c-0.3,0-0.6,0.1-0.9,0.4c-0.2,0.2-0.3,0.6-0.3,0.9
			c0,0.4,0.1,0.7,0.3,0.9C149.9,40.1,150.2,40.2,150.5,40.2"/>
		<path class="st0" d="M154.4,35.9h2l0,0.9c0.1-0.3,0.3-0.6,0.6-0.7c0.2-0.2,0.5-0.3,0.9-0.3c0.3,0,0.5,0,0.7,0.1l-0.2,1.9
			c-0.2-0.1-0.5-0.2-0.8-0.2c-0.4,0-0.7,0.1-0.9,0.4c-0.2,0.3-0.3,0.6-0.3,1.2v2.5h-2V35.9z"/>
		<path class="st0" d="M161.3,42c-0.5,0-1-0.1-1.4-0.4c-0.4-0.3-0.7-0.6-1-1.1c-0.2-0.5-0.4-1-0.4-1.6c0-0.6,0.1-1.1,0.3-1.6
			c0.2-0.5,0.6-0.9,1-1.1c0.4-0.3,0.9-0.4,1.4-0.4c0.4,0,0.7,0.1,1,0.2c0.3,0.2,0.5,0.4,0.7,0.6l0-0.7h1.9v5.9H163l0-0.7
			c-0.2,0.3-0.4,0.5-0.7,0.6C162,41.9,161.7,42,161.3,42 M161.8,40.2c0.3,0,0.6-0.1,0.9-0.4c0.2-0.2,0.3-0.6,0.3-0.9
			c0-0.4-0.1-0.7-0.3-0.9s-0.5-0.4-0.9-0.4c-0.3,0-0.6,0.1-0.9,0.4c-0.2,0.2-0.3,0.6-0.3,0.9c0,0.4,0.1,0.7,0.3,0.9
			C161.2,40.1,161.5,40.2,161.8,40.2"/>
	</g>
	<g>
		<path class="st0" d="M166.9,41.9c-0.3,0-0.6-0.1-0.8-0.3c-0.2-0.2-0.3-0.5-0.3-0.8c0-0.3,0.1-0.6,0.3-0.8c0.2-0.2,0.5-0.3,0.8-0.3
			c0.3,0,0.6,0.1,0.8,0.3c0.2,0.2,0.3,0.5,0.3,0.8c0,0.3-0.1,0.6-0.3,0.8C167.6,41.8,167.3,41.9,166.9,41.9"/>
		<rect x="5.7" y="6.2" class="st0" width="68.5" height="68.5"/>
	</g>
	<g>
		<path class="st1" d="M46.8,29.1c1.3,0,2.4,1.1,2.4,2.5c0,1.4-1.1,2.5-2.4,2.5l-6.5,0l0,9.4l5.6-5.7c0.9-1,2.6-1.1,3.6-0.2
			c0,0,0.1,0.1,0.1,0.1l0-6.3c0.1-1.3,1.1-2.3,2.4-2.3h9c1.3,0,2.4,1.1,2.4,2.5c0,1.4-1.1,2.5-2.4,2.5l-6.5,0l0,9.4l5.6-5.7
			c1-1,2.6-1.1,3.6-0.2c1,1,0.8,2.5-0.1,3.5l-9.8,10.1c-0.4,0.4-0.9,0.7-1.6,0.7c-1.3,0-2.4-1.1-2.4-2.5l0-8.6
			c-0.1,0.1-0.2,0.2-0.2,0.3l-9.9,10.1c-0.4,0.4-0.9,0.7-1.6,0.7c-1.3,0-2.4-1.1-2.4-2.5c0,0,0-18,0-18c0.1-1.3,1.1-2.3,2.4-2.3
			H46.8z"/>
		<path class="st2" d="M93.3,57.1c0.3,0,0.6-0.1,0.8-0.3c0.2-0.2,0.3-0.5,0.3-0.9c0-0.4-0.1-0.7-0.3-0.9c-0.2-0.2-0.5-0.3-0.8-0.3
			c-0.3,0-0.6,0.1-0.8,0.3c-0.2,0.2-0.3,0.5-0.3,0.9c0,0.4,0.1,0.7,0.3,0.9C92.7,57,93,57.1,93.3,57.1 M90.3,53h1.8l0,0.6
			c0.2-0.3,0.4-0.5,0.7-0.6c0.3-0.1,0.6-0.2,1-0.2c0.5,0,0.9,0.1,1.3,0.4c0.4,0.2,0.7,0.6,0.9,1c0.2,0.5,0.3,1,0.3,1.6
			c0,0.6-0.1,1.1-0.3,1.5c-0.2,0.5-0.5,0.8-0.9,1.1c-0.4,0.3-0.9,0.4-1.4,0.4c-0.3,0-0.6-0.1-0.9-0.2c-0.3-0.1-0.5-0.3-0.6-0.5v3.2
			h-2V53z"/>
		<path class="st2" d="M97.3,53h1.9l0,0.8c0.1-0.3,0.3-0.5,0.6-0.7c0.2-0.2,0.5-0.2,0.8-0.2c0.2,0,0.5,0,0.6,0.1l-0.2,1.9
			c-0.2-0.1-0.5-0.1-0.7-0.1c-0.4,0-0.7,0.1-0.9,0.4c-0.2,0.3-0.3,0.6-0.3,1.1v2.4h-2V53z"/>
		<path class="st2" d="M105.4,55.2c0-0.3-0.1-0.5-0.3-0.7c-0.2-0.2-0.4-0.3-0.7-0.3c-0.5,0-0.9,0.3-1,0.9H105.4z M104.9,58.8
			c-0.7,0-1.3-0.1-1.8-0.4c-0.5-0.2-0.9-0.6-1.2-1c-0.3-0.4-0.4-1-0.4-1.6c0-0.6,0.1-1.1,0.4-1.5c0.2-0.5,0.6-0.8,1-1.1
			c0.4-0.3,1-0.4,1.6-0.4c0.8,0,1.5,0.3,2,0.8c0.5,0.5,0.7,1.2,0.7,2.1c0,0.3,0,0.5-0.1,0.7h-3.7c0.1,0.3,0.3,0.6,0.6,0.7
			c0.3,0.2,0.7,0.2,1.1,0.2c0.3,0,0.6,0,0.9-0.1c0.3-0.1,0.6-0.2,0.8-0.3l0.2,1.5c-0.3,0.1-0.6,0.2-1,0.3
			C105.8,58.8,105.4,58.8,104.9,58.8"/>
		<polygon class="st2" points="107.7,53 109.8,53 110.8,56.7 111.9,53 113.9,53 111.8,58.6 109.7,58.6 		"/>
		<path class="st2" d="M117.9,55.2c0-0.3-0.1-0.5-0.3-0.7c-0.2-0.2-0.4-0.3-0.7-0.3c-0.6,0-0.9,0.3-1,0.9H117.9z M117.4,58.8
			c-0.7,0-1.3-0.1-1.8-0.4c-0.5-0.2-0.9-0.6-1.2-1c-0.3-0.4-0.4-1-0.4-1.6c0-0.6,0.1-1.1,0.4-1.5c0.2-0.5,0.6-0.8,1-1.1
			c0.4-0.3,1-0.4,1.6-0.4c0.8,0,1.5,0.3,2,0.8c0.5,0.5,0.7,1.2,0.7,2.1c0,0.3,0,0.5-0.1,0.7h-3.7c0.1,0.3,0.3,0.6,0.6,0.7
			c0.3,0.2,0.7,0.2,1.1,0.2c0.3,0,0.6,0,0.9-0.1c0.3-0.1,0.6-0.2,0.8-0.3l0.2,1.5c-0.3,0.1-0.6,0.2-1,0.3
			C118.2,58.8,117.8,58.8,117.4,58.8"/>
		<path class="st2" d="M120.6,53h1.9l0,0.7c0.1-0.3,0.4-0.5,0.6-0.6c0.3-0.2,0.6-0.2,1-0.2c0.6,0,1.1,0.2,1.5,0.6
			c0.3,0.4,0.5,1,0.5,1.8v3.4h-2v-3c0-0.7-0.3-1-0.8-1c-0.3,0-0.5,0.1-0.6,0.3c-0.1,0.2-0.2,0.4-0.2,0.8v3h-2V53z"/>
		<polygon class="st2" points="127.7,54.6 126.8,54.6 126.8,53 127.7,53 127.7,51.6 129.7,51.6 129.7,53 130.8,53 130.8,54.6 
			129.7,54.6 129.7,58.6 127.7,58.6 		"/>
		<path class="st2" d="M131.7,53h2v5.6h-2V53z M132.7,52.1c-0.3,0-0.6-0.1-0.8-0.3c-0.2-0.2-0.3-0.4-0.3-0.7c0-0.3,0.1-0.5,0.3-0.8
			c0.2-0.2,0.5-0.3,0.8-0.3c0.3,0,0.6,0.1,0.8,0.3c0.2,0.2,0.3,0.5,0.3,0.8c0,0.3-0.1,0.5-0.3,0.7C133.2,52,133,52.1,132.7,52.1"/>
		<path class="st2" d="M137.6,57.1c0.3,0,0.6-0.1,0.8-0.3c0.2-0.2,0.3-0.5,0.3-0.9s-0.1-0.7-0.3-0.9c-0.2-0.2-0.5-0.3-0.8-0.3
			c-0.3,0-0.6,0.1-0.8,0.3c-0.2,0.2-0.3,0.5-0.3,0.9s0.1,0.7,0.3,0.9C137,57,137.2,57.1,137.6,57.1 M137.6,58.8
			c-0.6,0-1.1-0.1-1.5-0.4c-0.5-0.2-0.8-0.6-1.1-1.1c-0.3-0.5-0.4-1-0.4-1.6c0-0.5,0.1-1,0.4-1.5c0.3-0.5,0.6-0.8,1.1-1.1
			c0.5-0.3,1-0.4,1.6-0.4c0.6,0,1.1,0.1,1.5,0.4c0.5,0.2,0.8,0.6,1.1,1.1c0.3,0.5,0.4,1,0.4,1.6c0,0.5-0.1,1-0.4,1.5
			c-0.3,0.5-0.6,0.8-1.1,1.1C138.7,58.7,138.2,58.8,137.6,58.8"/>
		<path class="st2" d="M141.5,53h1.9l0,0.7c0.1-0.3,0.3-0.5,0.6-0.6c0.3-0.2,0.6-0.2,1-0.2c0.6,0,1.1,0.2,1.5,0.6
			c0.3,0.4,0.5,1,0.5,1.8v3.4h-2v-3c0-0.7-0.2-1-0.7-1c-0.3,0-0.5,0.1-0.6,0.3c-0.1,0.2-0.2,0.4-0.2,0.8v3h-2V53z"/>
		<path class="st2" d="M149.3,58.7c-0.3,0-0.6-0.1-0.8-0.3c-0.2-0.2-0.3-0.4-0.3-0.8c0-0.3,0.1-0.5,0.3-0.7c0.2-0.2,0.5-0.3,0.8-0.3
			c0.3,0,0.6,0.1,0.8,0.3c0.2,0.2,0.3,0.4,0.3,0.7c0,0.3-0.1,0.6-0.3,0.8C149.9,58.6,149.7,58.7,149.3,58.7"/>
		<path class="st2" d="M155.9,58.8c-0.6,0-1.1-0.1-1.6-0.4c-0.5-0.2-0.8-0.6-1.1-1c-0.3-0.4-0.4-1-0.4-1.6c0-0.6,0.1-1.1,0.4-1.5
			c0.3-0.4,0.6-0.8,1.1-1.1c0.5-0.3,1-0.4,1.6-0.4c0.3,0,0.7,0,1,0.1c0.4,0.1,0.7,0.2,0.9,0.3l-0.2,1.6c-0.5-0.2-0.9-0.3-1.4-0.3
			c-0.4,0-0.8,0.1-1,0.3c-0.2,0.2-0.4,0.5-0.4,0.9c0,0.4,0.1,0.7,0.4,0.9c0.3,0.2,0.6,0.3,1.1,0.3c0.5,0,0.9-0.1,1.5-0.3l0.2,1.6
			c-0.3,0.1-0.6,0.3-0.9,0.3C156.6,58.8,156.2,58.8,155.9,58.8"/>
		<path class="st2" d="M161.4,57.1c0.3,0,0.6-0.1,0.8-0.3c0.2-0.2,0.3-0.5,0.3-0.9s-0.1-0.7-0.3-0.9c-0.2-0.2-0.5-0.3-0.8-0.3
			c-0.3,0-0.6,0.1-0.8,0.3c-0.2,0.2-0.3,0.5-0.3,0.9s0.1,0.7,0.3,0.9C160.8,57,161,57.1,161.4,57.1 M160.8,58.8
			c-0.5,0-0.9-0.1-1.3-0.4c-0.4-0.2-0.7-0.6-0.9-1c-0.2-0.4-0.3-1-0.3-1.6c0-0.6,0.1-1.1,0.3-1.5c0.2-0.5,0.5-0.8,0.9-1.1
			c0.4-0.3,0.9-0.4,1.4-0.4c0.3,0,0.6,0.1,0.9,0.2c0.3,0.1,0.5,0.3,0.7,0.6l0-0.7h1.8v5.6h-1.8l0-0.6c-0.2,0.3-0.4,0.5-0.7,0.6
			C161.5,58.7,161.2,58.8,160.8,58.8"/>
		<path class="st2" d="M165.5,53h1.9l0,0.8c0.1-0.3,0.3-0.5,0.6-0.7c0.2-0.2,0.5-0.2,0.8-0.2c0.2,0,0.5,0,0.6,0.1l-0.2,1.9
			c-0.2-0.1-0.5-0.1-0.7-0.1c-0.4,0-0.7,0.1-0.9,0.4c-0.2,0.3-0.3,0.6-0.3,1.1v2.4h-2V53z"/>
		<path class="st2" d="M173.7,55.2c0-0.3-0.1-0.5-0.3-0.7c-0.2-0.2-0.4-0.3-0.7-0.3c-0.6,0-0.9,0.3-1,0.9H173.7z M173.2,58.8
			c-0.7,0-1.3-0.1-1.8-0.4c-0.5-0.2-0.9-0.6-1.2-1c-0.3-0.4-0.4-1-0.4-1.6c0-0.6,0.1-1.1,0.4-1.5c0.2-0.5,0.6-0.8,1-1.1
			c0.4-0.3,1-0.4,1.6-0.4c0.8,0,1.5,0.3,2,0.8c0.5,0.5,0.7,1.2,0.7,2.1c0,0.3,0,0.5-0.1,0.7h-3.7c0.1,0.3,0.3,0.6,0.6,0.7
			c0.3,0.2,0.7,0.2,1.1,0.2c0.3,0,0.6,0,0.9-0.1c0.3-0.1,0.6-0.2,0.9-0.3l0.2,1.5c-0.3,0.1-0.6,0.2-1,0.3
			C174.1,58.8,173.7,58.8,173.2,58.8"/>
		<path class="st2" d="M177.7,58.7c-0.3,0-0.6-0.1-0.8-0.3c-0.2-0.2-0.3-0.4-0.3-0.8c0-0.3,0.1-0.5,0.3-0.7c0.2-0.2,0.5-0.3,0.8-0.3
			c0.3,0,0.6,0.1,0.8,0.3c0.2,0.2,0.3,0.4,0.3,0.7c0,0.3-0.1,0.6-0.3,0.8C178.3,58.6,178,58.7,177.7,58.7"/>
		<path class="st2" d="M181.5,53h1.9l0,0.8c0.1-0.3,0.3-0.5,0.6-0.7c0.2-0.2,0.5-0.2,0.8-0.2c0.2,0,0.5,0,0.6,0.1l-0.2,1.9
			c-0.2-0.1-0.5-0.1-0.7-0.1c-0.4,0-0.7,0.1-0.9,0.4c-0.2,0.3-0.3,0.6-0.3,1.1v2.4h-2V53z"/>
		<path class="st2" d="M189.8,55.2c0-0.3-0.1-0.5-0.3-0.7c-0.2-0.2-0.4-0.3-0.7-0.3c-0.6,0-0.9,0.3-1,0.9H189.8z M189.3,58.8
			c-0.7,0-1.3-0.1-1.8-0.4c-0.5-0.2-0.9-0.6-1.2-1c-0.3-0.4-0.4-1-0.4-1.6c0-0.6,0.1-1.1,0.4-1.5c0.2-0.5,0.6-0.8,1-1.1
			c0.4-0.3,1-0.4,1.6-0.4c0.8,0,1.5,0.3,2,0.8c0.5,0.5,0.7,1.2,0.7,2.1c0,0.3,0,0.5-0.1,0.7h-3.7c0.1,0.3,0.3,0.6,0.6,0.7
			c0.3,0.2,0.7,0.2,1.1,0.2c0.3,0,0.6,0,0.9-0.1c0.3-0.1,0.6-0.2,0.8-0.3l0.2,1.5c-0.3,0.1-0.6,0.2-1,0.3
			C190.1,58.8,189.7,58.8,189.3,58.8"/>
		<path class="st2" d="M195.4,58.8c-0.6,0-1.1-0.1-1.6-0.4c-0.5-0.2-0.8-0.6-1.1-1c-0.3-0.4-0.4-1-0.4-1.6c0-0.6,0.1-1.1,0.4-1.5
			c0.3-0.4,0.6-0.8,1.1-1.1c0.5-0.3,1-0.4,1.6-0.4c0.3,0,0.7,0,1,0.1c0.4,0.1,0.6,0.2,0.9,0.3l-0.2,1.6c-0.5-0.2-0.9-0.3-1.4-0.3
			c-0.4,0-0.8,0.1-1,0.3c-0.3,0.2-0.4,0.5-0.4,0.9c0,0.4,0.1,0.7,0.4,0.9c0.3,0.2,0.6,0.3,1.1,0.3c0.5,0,0.9-0.1,1.5-0.3l0.2,1.6
			c-0.3,0.1-0.6,0.3-0.9,0.3C196.1,58.8,195.7,58.8,195.4,58.8"/>
		<path class="st2" d="M200.8,57.1c0.3,0,0.6-0.1,0.8-0.3c0.2-0.2,0.3-0.5,0.3-0.9s-0.1-0.7-0.3-0.9c-0.2-0.2-0.5-0.3-0.8-0.3
			c-0.3,0-0.6,0.1-0.8,0.3c-0.2,0.2-0.3,0.5-0.3,0.9s0.1,0.7,0.3,0.9C200.2,57,200.4,57.1,200.8,57.1 M200.8,58.8
			c-0.6,0-1.1-0.1-1.6-0.4c-0.5-0.2-0.8-0.6-1.1-1.1c-0.3-0.5-0.4-1-0.4-1.6c0-0.5,0.1-1,0.4-1.5c0.3-0.5,0.6-0.8,1.1-1.1
			c0.5-0.3,1-0.4,1.6-0.4c0.6,0,1.1,0.1,1.5,0.4c0.5,0.2,0.8,0.6,1.1,1.1c0.3,0.5,0.4,1,0.4,1.6c0,0.5-0.1,1-0.4,1.5
			c-0.3,0.5-0.6,0.8-1.1,1.1C201.9,58.7,201.4,58.8,200.8,58.8"/>
		<polygon class="st2" points="204,53 206.1,53 207.1,56.7 208.2,53 210.2,53 208.1,58.6 206,58.6 		"/>
		<path class="st2" d="M214.4,55.2c0-0.3-0.1-0.5-0.3-0.7c-0.2-0.2-0.4-0.3-0.7-0.3c-0.6,0-0.9,0.3-1,0.9H214.4z M213.9,58.8
			c-0.7,0-1.3-0.1-1.8-0.4c-0.5-0.2-0.9-0.6-1.2-1c-0.3-0.4-0.4-1-0.4-1.6c0-0.6,0.1-1.1,0.4-1.5c0.2-0.5,0.6-0.8,1-1.1
			c0.4-0.3,1-0.4,1.6-0.4c0.8,0,1.5,0.3,2,0.8c0.5,0.5,0.7,1.2,0.7,2.1c0,0.3,0,0.5-0.1,0.7h-3.7c0.1,0.3,0.3,0.6,0.6,0.7
			c0.3,0.2,0.7,0.2,1.1,0.2c0.3,0,0.6,0,0.9-0.1c0.3-0.1,0.6-0.2,0.8-0.3l0.2,1.5c-0.3,0.1-0.6,0.2-1,0.3
			C214.7,58.8,214.3,58.8,213.9,58.8"/>
		<path class="st2" d="M217.1,53h1.9l0,0.8c0.1-0.3,0.3-0.5,0.6-0.7c0.2-0.2,0.5-0.2,0.8-0.2c0.2,0,0.5,0,0.6,0.1l-0.2,1.9
			c-0.2-0.1-0.5-0.1-0.7-0.1c-0.4,0-0.7,0.1-0.9,0.4c-0.2,0.3-0.3,0.6-0.3,1.1v2.4h-2V53z"/>
		<polygon class="st2" points="223.6,58.3 221.3,53 223.4,53 224.6,56.3 225.6,53 227.7,53 224.1,61.3 222.2,61.3 		"/>
		<path class="st2" d="M228.2,58.7c-0.3,0-0.6-0.1-0.8-0.3c-0.2-0.2-0.3-0.4-0.3-0.8c0-0.3,0.1-0.5,0.3-0.7c0.2-0.2,0.5-0.3,0.8-0.3
			c0.3,0,0.6,0.1,0.8,0.3c0.2,0.2,0.3,0.4,0.3,0.7c0,0.3-0.1,0.6-0.3,0.8C228.7,58.6,228.5,58.7,228.2,58.7"/>
		<path class="st1" d="M22.5,29.1h9.3c1.3,0,2.4,1.1,2.4,2.5l0,17.8c0,1.4-1.1,2.5-2.4,2.5c-1.3,0-2.4-1.1-2.4-2.5v-8
			c-0.1,0.1-0.2,0.3-0.3,0.4l-9.2,9.4c-0.4,0.4-0.9,0.7-1.6,0.7c-1.3,0-2.4-1.1-2.4-2.5V35.9c0-0.6,0.2-1.1,0.5-1.5l4.7-4.8
			C21.5,29.3,22,29.1,22.5,29.1 M29.4,38.6v-4.5l-5.8,0L20.7,37v6.3l4.9-5c1-1,2.5-1,3.4,0C29.2,38.4,29.3,38.5,29.4,38.6"/>
	</g>
</g>
</svg>
