<svg width="292" height="87" viewBox="0 0 292 87" fill="none" xmlns="http://www.w3.org/2000/svg">
<g clip-path="url(#clip0_503_1121)">
<mask id="mask0_503_1121" style="mask-type:luminance" maskUnits="userSpaceOnUse" x="0" y="0" width="292" height="87">
<path d="M292 0H0V87H292V0Z" fill="white"/>
</mask>
<g mask="url(#mask0_503_1121)">
<path d="M82.076 18.2512V36.3319H61.7703V18.2512H50.3529V63.3174H61.7703V45.0414H82.076V63.3174H93.5013V18.2512H82.076ZM231.497 18.2512V45.1189L207.037 18.2512H197.028V63.3174H208.325V35.002L233.843 63.3174H242.786V18.2512H231.497ZM249.52 18.2512V26.632H272.552C264.185 38.8615 255.817 51.09 247.449 63.3174H291.863V54.6095H267.074L292.001 18.2512H249.52ZM160.383 21.1326C158.876 22.1961 157.654 23.6057 156.821 25.2399C155.989 26.8742 155.571 28.684 155.604 30.5132C155.549 32.184 155.846 33.8479 156.477 35.3992C157.107 36.9506 158.057 38.3555 159.266 39.5249C161.718 41.8747 166.194 44.1806 172.694 46.4426C174.487 46.9338 176.182 47.7254 177.705 48.7831C178.096 49.1652 178.395 49.6302 178.578 50.1429C178.761 50.6557 178.824 51.2028 178.762 51.743C178.699 52.2832 178.514 52.8024 178.219 53.2614C177.924 53.7204 177.527 54.1072 177.058 54.3925C175.479 55.1569 173.727 55.5055 171.972 55.4047C169.626 55.3827 167.302 54.9578 165.103 54.1492C162.063 52.967 159.15 51.4866 156.409 49.7301V59.7369C161.163 62.6278 166.642 64.1448 172.224 64.1157C177.882 64.1157 182.306 62.9243 185.496 60.5414C187.043 59.4134 188.286 57.9288 189.119 56.2169C189.951 54.5051 190.346 52.6181 190.271 50.7206C190.327 48.42 189.807 46.1414 188.758 44.0866C187.719 42.1645 186.167 40.5602 184.271 39.4474C181.275 37.821 178.144 36.4519 174.911 35.3554C174.019 35.0361 173.342 34.7959 172.915 34.6207C171.257 34.0787 169.698 33.2763 168.299 32.2446C167.853 31.9462 167.483 31.5508 167.217 31.0889C166.95 30.627 166.794 30.1108 166.761 29.5801C166.757 29.0196 166.916 28.4698 167.22 27.9962C167.523 27.5227 167.958 27.1454 168.473 26.9095C170.026 26.2006 171.732 25.8812 173.44 25.9795C175.699 26.0186 177.94 26.3895 180.088 27.08C182.931 27.972 185.69 29.1051 188.335 30.4667V21.1993C185.863 20.0232 183.274 19.1053 180.609 18.4604C178.059 17.8428 175.443 17.5305 172.818 17.5304C168.381 17.3268 164.004 18.5972 160.383 21.1388M8.47234 23.8839C6.12032 26.0312 4.26793 28.6571 3.04302 31.5804C1.81811 34.5037 1.24984 37.6547 1.37744 40.8161C1.3504 44.0209 1.96853 47.199 3.19588 50.1657C4.38365 53.0385 6.17824 55.6278 8.45979 57.7607C10.7194 59.8536 13.3893 61.4668 16.3047 62.5006C19.4619 63.5981 22.7891 64.1415 26.1358 64.1064C29.1856 64.1191 32.2242 63.7424 35.1763 62.9858C38.1201 62.1987 40.948 61.0374 43.5891 59.5308V48.9908C41.0445 50.7634 38.271 52.1913 35.3426 53.2362C32.6946 54.1711 29.9049 54.6544 27.0929 54.6653C25.2255 54.7585 23.3585 54.4719 21.6078 53.8232C19.8571 53.1745 18.2598 52.1776 16.915 50.8942C15.6274 49.5524 14.6284 47.9668 13.9782 46.2331C13.3281 44.4993 13.0403 42.6534 13.1322 40.8068C13.0306 38.9254 13.3316 37.0441 14.0156 35.2854C14.6996 33.5267 15.7511 31.9302 17.1017 30.6C20.0904 28.0034 23.9931 26.6722 27.9668 26.894C30.5598 26.8998 33.1361 27.3046 35.603 28.0937C38.2871 28.9575 40.8413 30.1744 43.1968 31.7114V21.1326C40.696 19.9199 38.0643 18.9907 35.352 18.3628C32.6832 17.7547 29.9525 17.4515 27.2137 17.4591C19.4536 17.4591 13.208 19.6007 8.47704 23.8839" fill="#7ABC25"/>
<path d="M120.271 4.23152V22.9571L118.401 4.65002C114.939 5.49264 111.754 7.20066 109.152 9.61003L112.53 17.9986L107.445 11.4235C102.099 17.0934 103.151 26.7825 103.151 26.7825C104.329 29.0842 124.305 28.7603 124.305 28.7603C124.305 28.7603 144.278 29.0842 145.46 26.7825C145.46 26.7825 146.511 17.0934 141.164 11.4235L136.08 18.0002L139.458 9.61003C136.857 7.20066 133.672 5.49264 130.209 4.65002L128.342 22.9571V4.23152C128.342 4.23152 128.342 1.21832 124.305 0.959473C120.271 1.21832 120.271 4.23152 120.271 4.23152Z" fill="#7ABC25"/>
</g>
<mask id="mask1_503_1121" style="mask-type:luminance" maskUnits="userSpaceOnUse" x="0" y="0" width="292" height="87">
<path d="M292 0H0V87H292V0Z" fill="white"/>
</mask>
<g mask="url(#mask1_503_1121)">
<path d="M146.367 27.624C146.367 27.624 143.542 29.6003 123.7 29.639H121.66C102.092 29.5987 103.229 27.624 103.229 27.624H103.072C102.131 27.624 97.0789 27.7542 96.991 30.569C96.9016 33.3296 118 33.2815 122.744 33.2397C128.236 33.2815 152.671 33.3296 152.584 30.569C152.493 27.7511 147.443 27.624 146.5 27.624H146.367Z" fill="#7ABC25"/>
<path d="M0 71.0936L140.392 71.7136L280.787 71.0936L140.392 70.4736L0 71.0936Z" fill="#7ABC25"/>
<path d="M132.486 34.289V42.6032H117.118V34.334C113.572 34.2952 109.166 34.179 105.382 33.869V62.854H117.118V50.7066H132.486V62.854H144.219V33.7744C140.61 34.0736 136.335 34.2177 132.486 34.289Z" fill="#7ABC25"/>
</g>
<mask id="mask2_503_1121" style="mask-type:luminance" maskUnits="userSpaceOnUse" x="0" y="0" width="292" height="87">
<path d="M292 0H0V87H292V0Z" fill="white"/>
</mask>
<g mask="url(#mask2_503_1121)">
<path d="M12.1328 84.4984V86.0841C11.5675 86.3762 10.9707 86.6045 10.3536 86.7645C9.76793 86.9183 9.16466 86.997 8.55868 86.9986C8.00832 87.0002 7.46033 86.9272 6.93008 86.7816C6.41202 86.6323 5.91808 86.411 5.46309 86.1244C4.74369 85.6656 4.1507 85.0377 3.73722 84.2969C3.32807 83.5543 3.11644 82.7213 3.12218 81.8758C3.12501 81.2116 3.26444 80.5549 3.53199 79.9455C3.79954 79.3362 4.18964 78.7869 4.67861 78.331C5.19096 77.8465 5.79724 77.4696 6.46096 77.2227C7.16392 76.9669 7.90846 76.8408 8.65752 76.8507C9.21758 76.8506 9.77573 76.9151 10.3206 77.0429C10.9149 77.1842 11.4932 77.3846 12.0465 77.6412V79.1664C11.4829 78.8555 10.8876 78.6046 10.2704 78.4178C9.7474 78.2606 9.20419 78.1786 8.65752 78.1744C8.1299 78.157 7.60399 78.2427 7.10994 78.4265C6.61589 78.6103 6.16342 78.8886 5.77846 79.2455C5.41917 79.5939 5.13347 80.0094 4.93791 80.4677C4.74235 80.9261 4.64083 81.4182 4.63923 81.9157C4.63762 82.4131 4.73596 82.9058 4.92856 83.3654C5.12115 83.825 5.40417 84.2422 5.7612 84.593C6.1341 84.9478 6.57509 85.2254 7.05822 85.4093C7.54135 85.5933 8.05685 85.6799 8.57437 85.664C9.17023 85.6607 9.76178 85.5639 10.3269 85.3773C10.9651 85.1621 11.5725 84.8668 12.1344 84.4984M14.7373 81.9301C14.7336 82.4194 14.8289 82.9045 15.0175 83.357C15.2061 83.8094 15.4842 84.2202 15.8356 84.5651C16.1809 84.9149 16.5953 85.1908 17.0531 85.3757C17.9918 85.7519 19.042 85.7519 19.9808 85.3757C20.4406 85.1874 20.8573 84.9096 21.2062 84.5589C21.5559 84.2127 21.8341 83.8026 22.0252 83.3514C22.4049 82.4372 22.4049 81.4121 22.0252 80.4979C21.8267 80.0412 21.5412 79.6266 21.1842 79.2765C20.8401 78.9196 20.4243 78.6377 19.9635 78.4488C19.5025 78.2602 19.0081 78.1638 18.5091 78.1651C18.0168 78.1645 17.5295 78.2626 17.0766 78.4534C16.6108 78.6445 16.1876 78.9242 15.8309 79.2765C15.4748 79.6136 15.1952 80.0214 15.0103 80.4731C14.821 80.9327 14.7251 81.4246 14.7279 81.9208M13.2154 81.8665C13.2159 81.2104 13.3531 80.5614 13.6186 79.96C13.8879 79.3434 14.2795 78.7863 14.7702 78.3217C15.7728 77.3645 17.1149 76.8332 18.5091 76.8414C19.2103 76.8386 19.9054 76.9691 20.5566 77.2258C21.5255 77.5908 22.3579 78.2403 22.9417 79.087C23.5255 79.9336 23.8326 80.9367 23.8216 81.9611C23.8231 82.6232 23.6864 83.2786 23.42 83.8862C23.1556 84.4986 22.7669 85.0509 22.2778 85.509C21.7817 85.9861 21.1952 86.3616 20.5519 86.6142C19.2425 87.1175 17.789 87.1141 16.482 86.6049C15.8455 86.3532 15.2651 85.9809 14.7734 85.509C14.2754 85.0388 13.8803 84.4728 13.6123 83.8459C13.3472 83.2191 13.2132 82.5458 13.2185 81.8665M25.4173 86.8281V77.0104H26.6552L33.1978 84.6302V77.0104H34.6099V86.8281H33.3547L26.8294 79.2052V86.8327L25.4173 86.8281ZM36.2259 86.0531V84.2117C36.5897 84.6478 37.0251 85.0204 37.5141 85.3137C37.9157 85.5343 38.3678 85.6496 38.8273 85.6485C39.2425 85.6723 39.6531 85.5522 39.9883 85.3091C40.128 85.1994 40.2396 85.0587 40.314 84.8985C40.3885 84.7383 40.4236 84.563 40.4167 84.3868C40.4227 84.0833 40.3211 83.7872 40.1295 83.5498C39.7245 83.1396 39.2628 82.7879 38.7583 82.5051C37.9687 82.0627 37.254 81.501 36.6402 80.8404C36.3497 80.4293 36.1996 79.9373 36.2118 79.4361C36.2015 79.0828 36.2696 78.7315 36.4114 78.407C36.5531 78.0824 36.7651 77.7925 37.0324 77.5575C37.616 77.055 38.3723 76.7926 39.1458 76.8244C39.53 76.8243 39.9122 76.8796 40.2802 76.9887C40.6759 77.1098 41.0541 77.2812 41.4051 77.4986V79.0936C41.0383 78.7898 40.6326 78.535 40.1986 78.3356C39.8522 78.1853 39.4786 78.1057 39.1003 78.1016C38.707 78.0825 38.3191 78.1981 38.002 78.4286C37.8683 78.5251 37.7599 78.6519 37.6862 78.7983C37.6125 78.9448 37.5755 79.1067 37.5784 79.2703C37.5784 79.7559 38.1626 80.3594 39.3309 81.0807L39.5412 81.2078C40.2648 81.5947 40.9019 82.1219 41.4145 82.7578C41.7223 83.2568 41.8755 83.8338 41.8554 84.4178C41.8647 84.7684 41.7959 85.1168 41.6538 85.4382C41.5117 85.7596 41.2999 86.0462 41.0333 86.2778C40.4483 86.7776 39.6926 87.0386 38.9199 87.0079C38.4277 87.0149 37.938 86.9389 37.4717 86.7831C37.0161 86.6222 36.5939 86.3806 36.2259 86.0701M46.134 86.8451V78.2907H42.4783V77.0104H51.194V78.2907H47.5398V86.8281L46.134 86.8451ZM52.3456 86.8451V77.0104H55.256C56.0918 76.9568 56.9186 77.2064 57.5812 77.7125C57.8584 77.9626 58.0756 78.2705 58.217 78.614C58.3585 78.9575 58.4205 79.3279 58.3987 79.6981C58.4261 80.2524 58.2684 80.8002 57.9499 81.2574C57.5861 81.6925 57.0916 82.0019 56.5379 82.1409C56.7112 82.2362 56.8697 82.3558 57.0086 82.4958C57.2208 82.7256 57.4119 82.9735 57.5797 83.2367L59.9927 86.8281H58.2669L56.5645 84.252C56.2383 83.692 55.8194 83.1901 55.3251 82.7671C54.994 82.546 54.6011 82.4333 54.2017 82.4447H53.7733V86.8281L52.3456 86.8451ZM53.7702 81.2822H54.9501C55.4741 81.3193 55.9961 81.1871 56.4375 80.9055C56.7473 80.5974 56.9232 80.182 56.9276 79.7477C56.932 79.3135 56.7645 78.8946 56.461 78.5805C56.0099 78.3025 55.4799 78.1758 54.9501 78.2194H53.7702V81.2822ZM60.5168 77.0274H61.9289V82.6617C61.9128 83.1089 61.9475 83.5566 62.0324 83.9962C62.0955 84.2453 62.2134 84.4776 62.3776 84.6767C62.6592 85.0102 63.0167 85.2731 63.421 85.4439C63.8572 85.6167 64.3239 85.702 64.7938 85.695C65.545 85.7307 66.284 85.4967 66.8743 85.0363C67.1307 84.824 67.3346 84.5568 67.4706 84.2548C67.6065 83.9529 67.6709 83.6243 67.6587 83.2941V77.0104H69.0708V83.3204C69.0872 83.8232 68.9892 84.3232 68.7839 84.7836C68.5786 85.2439 68.2713 85.6529 67.8847 85.9802C67.0161 86.6857 65.9139 87.0485 64.7907 86.9986C64.0904 87.0099 63.3955 86.8757 62.751 86.6049C62.1525 86.3454 61.6265 85.9465 61.2181 85.4424C60.9658 85.1462 60.7807 84.8 60.6752 84.4271C60.5494 83.8609 60.4966 83.2813 60.5183 82.702L60.5168 77.0274ZM79.6222 84.5155V86.1011C79.0571 86.3938 78.4602 86.6221 77.8429 86.7816C77.2573 86.9356 76.6541 87.0143 76.048 87.0156C75.4977 87.017 74.9497 86.944 74.4194 86.7986C73.9015 86.6491 73.4076 86.4278 72.9525 86.1414C72.2331 85.6826 71.6401 85.0547 71.2266 84.314C70.8174 83.5714 70.6058 82.7383 70.6116 81.8929C70.6123 81.2254 70.7511 80.5651 71.0196 79.9526C71.2881 79.34 71.6805 78.7882 72.1727 78.331C72.6845 77.8466 73.2902 77.4696 73.9535 77.2227C74.6564 76.9669 75.401 76.8408 76.15 76.8507C76.7096 76.8508 77.2672 76.9153 77.8116 77.0429C78.4058 77.1845 78.984 77.3849 79.5374 77.6412V79.1664C78.9732 78.8558 78.3774 78.6048 77.7598 78.4178C77.2373 78.2606 76.6946 78.1786 76.1485 78.1744C75.6208 78.1566 75.0947 78.2421 74.6006 78.4259C74.1065 78.6097 73.6541 78.8882 73.2694 79.2455C72.9102 79.5939 72.6245 80.0093 72.429 80.4676C72.2334 80.9259 72.1318 81.418 72.13 81.9153C72.1283 82.4127 72.2264 82.9054 72.4188 83.365C72.6111 83.8247 72.8938 84.242 73.2506 84.593C73.6232 84.9478 74.0639 85.2253 74.5468 85.4093C75.0296 85.5932 75.5449 85.6798 76.0622 85.664C76.6591 85.6609 77.2517 85.5641 77.8178 85.3773C78.4556 85.1624 79.0626 84.867 79.6237 84.4984M83.9447 86.8234V78.2907H80.289V77.0104H89.0062V78.2907H85.3521V86.8281L83.9447 86.8234ZM90.2206 77.0057H91.6468V86.8234H90.2159L90.2206 77.0057ZM94.7894 81.9254C94.7866 82.4146 94.8822 82.8995 95.0707 83.3519C95.2593 83.8042 95.537 84.215 95.8877 84.5604C96.2339 84.9106 96.6495 85.1865 97.1084 85.3711C98.0471 85.7473 99.0973 85.7473 100.036 85.3711C100.496 85.1831 100.913 84.9053 101.261 84.5542C101.611 84.2073 101.889 83.7974 102.082 83.3468C102.271 82.893 102.368 82.4069 102.368 81.9161C102.371 81.4279 102.275 80.9441 102.085 80.4932C101.887 80.0369 101.602 79.6223 101.246 79.2718C100.901 78.9146 100.484 78.6326 100.022 78.4441C99.5616 78.2551 99.0676 78.1587 98.5691 78.1605C98.0768 78.16 97.5895 78.258 97.1366 78.4488C96.668 78.6399 96.2417 78.9195 95.8814 79.2718C95.5283 79.6107 95.25 80.0181 95.064 80.4684C94.8755 80.9282 94.7795 81.42 94.7816 81.9161M93.2675 81.8619C93.2681 81.2053 93.4071 80.556 93.6755 79.9554C93.9419 79.3376 94.3332 78.7801 94.8255 78.317C95.3232 77.8432 95.9094 77.4694 96.5514 77.2165C97.1932 76.9637 97.8781 76.8347 98.5691 76.8368C99.2702 76.8339 99.9654 76.9644 100.617 77.2212C101.901 77.7351 102.93 78.7256 103.483 79.9802C103.747 80.6083 103.879 81.2826 103.872 81.9626C103.874 82.6247 103.738 83.28 103.472 83.8877C103.208 84.4998 102.82 85.052 102.331 85.5106C101.835 85.987 101.249 86.3625 100.606 86.6157C99.2933 87.1211 97.8362 87.1178 96.5263 86.6064C95.8899 86.3555 95.3098 85.9831 94.8192 85.5106C94.3251 85.0421 93.9332 84.4788 93.6676 83.8552C93.4019 83.2285 93.2674 82.5552 93.2722 81.8758M105.465 86.8281V77.0104H106.69L113.244 84.6302V77.0104H114.656V86.8281H113.401L106.867 79.2052V86.8327L105.465 86.8281ZM120.448 86.8281V77.0104H121.86V81.2372H127.594V77.0104H129.006V86.8281H127.594V82.5578H121.853V86.8281H120.448ZM131.127 86.8281V77.0104H137.106V78.2597H132.531V81.2372H136.971V82.5005H132.531V85.5602H137.238V86.825L131.127 86.8281ZM140.934 82.6741H144.032L142.463 79.137L140.934 82.6741ZM137.66 86.8281L141.967 77.0104H143.002L147.364 86.8281H145.896L144.615 83.9389H140.379L139.124 86.8281H137.66ZM148.15 86.8281V77.0104H149.562V85.5602H154.291V86.825L148.15 86.8281ZM157.348 86.8281V78.2907H153.69V77.0104H162.404V78.2907H158.753V86.8281H157.348ZM163.575 86.8281V77.0104H164.987V81.2372H170.72V77.0104H172.132V86.8281H170.72V82.5578H164.987V86.8281H163.575ZM179.812 82.6741H182.911L181.342 79.137L179.812 82.6741ZM176.538 86.8281L180.841 77.0104H181.878L186.24 86.8281H184.772L183.491 83.9389H179.255L178 86.8281H176.538ZM186.982 86.8281V77.0104H188.219L194.768 84.6302V77.0104H196.18V86.8281H194.913L188.388 79.2052V86.8327L186.982 86.8281ZM201.957 78.348H199.713V85.492H201.957C203.008 85.5509 204.042 85.2092 204.847 84.5372C205.521 83.8291 205.896 82.8936 205.896 81.9215C205.896 80.9495 205.521 80.014 204.847 79.3059C204.044 78.6317 203.009 78.2886 201.957 78.348ZM201.957 77.0104C202.594 77 203.23 77.0682 203.85 77.2134C204.492 77.3787 205.091 77.6754 205.609 78.0842C206.128 78.493 206.553 79.0048 206.858 79.5865C207.221 80.3112 207.41 81.109 207.41 81.9177C207.41 82.7264 207.221 83.5242 206.858 84.2489C206.498 84.9477 205.963 85.5438 205.303 85.9802C204.864 86.2787 204.374 86.4966 203.857 86.6235C203.235 86.7692 202.598 86.838 201.96 86.8281H198.304V77.0104H201.957ZM212.244 86.0608V84.2117C212.607 84.6493 213.043 85.0221 213.534 85.3137C213.934 85.5345 214.385 85.6498 214.843 85.6485C215.258 85.6728 215.67 85.5527 216.005 85.3091C216.145 85.1997 216.257 85.0592 216.332 84.8989C216.407 84.7386 216.442 84.5631 216.435 84.3868C216.44 84.0831 216.338 83.7871 216.146 83.5498C215.741 83.1396 215.28 82.7879 214.775 82.5051C213.986 82.0633 213.271 81.5015 212.659 80.8404C212.366 80.4301 212.215 79.9377 212.229 79.4361C212.218 79.0829 212.286 78.7318 212.428 78.4073C212.569 78.0828 212.781 77.7928 213.048 77.5575C213.632 77.0554 214.389 76.7931 215.163 76.8244C215.547 76.8242 215.929 76.8795 216.297 76.9887C216.693 77.1103 217.072 77.2817 217.423 77.4986V79.0936C217.056 78.7897 216.649 78.5349 216.214 78.3356C215.867 78.1851 215.494 78.1055 215.116 78.1016C214.722 78.0822 214.334 78.1977 214.017 78.4286C213.884 78.5252 213.776 78.6521 213.702 78.7986C213.629 78.9451 213.592 79.1068 213.595 79.2703C213.595 79.7559 214.178 80.3594 215.345 81.0807L215.56 81.2078C216.282 81.5963 216.918 82.1233 217.431 82.7578C217.74 83.2566 217.893 83.8337 217.874 84.4178C217.883 84.7688 217.813 85.1174 217.67 85.4389C217.527 85.7603 217.315 86.0467 217.047 86.2778C216.463 86.7779 215.707 87.039 214.935 87.0079C214.443 87.0149 213.953 86.9389 213.487 86.7831C213.032 86.6225 212.61 86.3809 212.243 86.0701M221.354 82.6834H224.449L222.88 79.1463L221.354 82.6834ZM218.078 86.8374L222.383 77.0197H223.417L227.782 86.8374H226.312L225.031 83.9482H220.795L219.531 86.8374H218.078ZM228.524 86.8374V77.0104H234.183V78.2597H229.933V81.1644H234.051V82.4292H229.933V86.8281L228.524 86.8374ZM235.842 86.8374V77.0104H241.823V78.2597H237.254V81.2372H241.694V82.5005H237.254V85.5602H241.968V86.825L235.842 86.8374ZM246.449 86.8374V78.2907H242.795V77.0104H251.506V78.2907H247.855V86.8281L246.449 86.8374ZM255.062 86.8374V81.913L251.219 77.0104H252.904L255.805 80.7304L258.775 77.0104H260.489L256.502 81.9859V86.8281L255.062 86.8374ZM264.824 86.8374V77.0104H266.06L272.611 84.6302V77.0104H274.023V86.8281H272.758L266.231 79.2052V86.8327L264.824 86.8374ZM275.179 86.8374L281.711 78.255H275.647V77.015H284.171V77.17L277.755 85.6222H284.171V86.8281L275.179 86.8374Z" fill="#7ABC25"/>
</g>
</g>
<defs>
<clipPath id="clip0_503_1121">
<rect width="292" height="87" fill="white"/>
</clipPath>
</defs>
</svg>
