<svg width="251" height="60" viewBox="0 0 251 60" fill="none" xmlns="http://www.w3.org/2000/svg">
<g clip-path="url(#clip0_857_1716)">
<path d="M73.5708 14.8801C74.8742 12.5237 76.6883 10.6843 79.0161 9.36819C81.3439 8.05205 83.9857 7.3924 86.9351 7.3924C90.5505 7.3924 93.6458 8.34699 96.221 10.2562C98.7962 12.1654 100.518 14.7691 101.384 18.0674H93.2272C92.6183 16.7956 91.7588 15.8252 90.6457 15.1592C89.5325 14.4932 88.2671 14.1602 86.8495 14.1602C84.5629 14.1602 82.7108 14.9562 81.2932 16.5483C79.8755 18.1403 79.1683 20.2652 79.1683 22.926C79.1683 25.5868 79.8755 27.7148 81.2932 29.3037C82.7108 30.8958 84.5629 31.6918 86.8495 31.6918C88.2671 31.6918 89.5325 31.3588 90.6457 30.6928C91.7588 30.0268 92.6215 29.0595 93.2272 27.7846H101.384C100.515 31.0829 98.793 33.6803 96.221 35.5736C93.6458 37.4701 90.5505 38.4152 86.9351 38.4152C83.9857 38.4152 81.3439 37.7587 79.0161 36.4394C76.6883 35.1232 74.8711 33.2933 73.5708 30.9497C72.2705 28.606 71.6172 25.9293 71.6172 22.9228C71.6172 19.9163 72.2673 17.2301 73.5708 14.8738V14.8801Z" fill="white"/>
<path d="M132.328 7.74146V38.2061H124.906V25.6631H113.363V38.2061H105.941V7.74146H113.363V19.6755H124.906V7.74146H132.328Z" fill="white"/>
<path d="M156.63 32.8242H145.26L143.437 38.2061H135.67L146.694 7.74146H155.285L166.309 38.2061H158.453L156.63 32.8242ZM154.721 27.0966L150.947 15.9427L147.214 27.0966H154.721Z" fill="white"/>
<path d="M174.681 37.4259C172.915 36.7028 171.507 35.6309 170.451 34.2132C169.395 32.7956 168.836 31.0894 168.779 29.0914H176.676C176.79 30.2204 177.18 31.0799 177.846 31.6729C178.512 32.266 179.378 32.5641 180.45 32.5641C181.522 32.5641 182.416 32.3104 183.054 31.8061C183.691 31.3019 184.008 30.5978 184.008 29.7003C184.008 28.9487 183.755 28.3271 183.25 27.8355C182.743 27.344 182.121 26.938 181.386 26.6209C180.647 26.3037 179.6 25.9422 178.24 25.5362C176.27 24.9273 174.665 24.3216 173.422 23.7127C172.179 23.1038 171.107 22.2094 170.21 21.0233C169.312 19.8372 168.865 18.2896 168.865 16.3804C168.865 13.5451 169.892 11.3251 171.948 9.7204C174.003 8.11566 176.679 7.31329 179.974 7.31329C183.269 7.31329 186.035 8.11566 188.09 9.7204C190.145 11.3251 191.242 13.561 191.388 16.4248H183.361C183.304 15.4416 182.943 14.6678 182.277 14.1033C181.611 13.5388 180.758 13.2565 179.718 13.2565C178.82 13.2565 178.097 13.4944 177.548 13.9733C177 14.449 176.724 15.1372 176.724 16.0347C176.724 17.0178 177.187 17.7853 178.113 18.334C179.039 18.8826 180.485 19.4757 182.451 20.1131C184.418 20.7791 186.016 21.4134 187.246 22.0223C188.477 22.6312 189.539 23.5129 190.437 24.6704C191.334 25.828 191.782 27.3186 191.782 29.139C191.782 30.9594 191.341 32.4531 190.459 33.8707C189.577 35.2883 188.296 36.4174 186.619 37.2546C184.941 38.095 182.959 38.5137 180.672 38.5137C178.386 38.5137 176.448 38.1521 174.684 37.4291L174.681 37.4259Z" fill="white"/>
<path d="M223.588 38.2061H216.167L203.757 19.4154V38.2061H196.336V7.74146H203.757L216.167 26.6177V7.74146H223.588V38.2061Z" fill="white"/>
<path d="M236.867 32.1296H249.972V38.2061H228.447V32.5641L241.466 13.8179H228.447V7.74146H249.972V13.3834L236.867 32.1296Z" fill="white"/>
<path d="M73.9383 47.9644C74.2777 47.3682 74.7407 46.9052 75.3306 46.5722C75.9205 46.2392 76.5769 46.0743 77.3064 46.0743C78.1595 46.0743 78.9079 46.2931 79.5517 46.7308C80.1955 47.1684 80.6427 47.7742 80.8996 48.548H79.1363C78.9619 48.1833 78.7145 47.9105 78.3973 47.7266C78.0802 47.5426 77.7123 47.4538 77.2969 47.4538C76.8529 47.4538 76.4564 47.5585 76.1076 47.7646C75.7587 47.9708 75.4892 48.2657 75.2957 48.6463C75.1022 49.0269 75.0039 49.4709 75.0039 49.9815C75.0039 50.4921 75.0991 50.9297 75.2957 51.3135C75.4892 51.6972 75.7587 51.9921 76.1076 52.2015C76.4564 52.4108 76.8497 52.5123 77.2969 52.5123C77.7123 52.5123 78.0802 52.4203 78.3973 52.2332C78.7145 52.0461 78.9619 51.7701 79.1363 51.4054H80.8996C80.6427 52.1856 80.1955 52.7945 79.5581 53.229C78.9175 53.6635 78.169 53.8791 77.3064 53.8791C76.5769 53.8791 75.9173 53.7142 75.3306 53.3812C74.7439 53.0482 74.2777 52.5884 73.9383 51.9953C73.599 51.4054 73.4277 50.7331 73.4277 49.9815C73.4277 49.2298 73.599 48.5543 73.9383 47.9613V47.9644Z" fill="white"/>
<path d="M83.3321 53.5303C82.8659 53.2703 82.498 52.9056 82.2316 52.4298C81.9652 51.9541 81.832 51.4086 81.832 50.787C81.832 50.1654 81.9684 49.62 82.2443 49.1443C82.5171 48.6685 82.8913 48.3038 83.367 48.0438C83.8427 47.7837 84.3723 47.6537 84.9559 47.6537C85.5394 47.6537 86.069 47.7837 86.5448 48.0438C87.0205 48.3038 87.3947 48.6685 87.6674 49.1443C87.9402 49.62 88.0797 50.1654 88.0797 50.787C88.0797 51.4086 87.9402 51.9541 87.6579 52.4298C87.3757 52.9056 86.9983 53.2703 86.5194 53.5303C86.0405 53.7904 85.5045 53.9204 84.9146 53.9204C84.3248 53.9204 83.8047 53.7904 83.3385 53.5303H83.3321ZM85.6916 52.3791C85.9358 52.2427 86.1325 52.0429 86.2784 51.7702C86.4242 51.5006 86.4972 51.1708 86.4972 50.7839C86.4972 50.2067 86.345 49.7627 86.0437 49.4519C85.7392 49.1411 85.3713 48.9857 84.9305 48.9857C84.4897 48.9857 84.125 49.1411 83.83 49.4519C83.5351 49.7627 83.386 50.2067 83.386 50.7839C83.386 51.3611 83.5287 51.8051 83.8173 52.1159C84.1059 52.4267 84.4675 52.5821 84.9083 52.5821C85.1842 52.5821 85.4474 52.5155 85.6916 52.3791Z" fill="white"/>
<path d="M94.3186 48.3482C94.7626 48.8049 94.9878 49.4424 94.9878 50.2606V53.8189H93.456V50.4667C93.456 49.9847 93.3355 49.6136 93.0945 49.3536C92.8534 49.0935 92.5236 48.9635 92.1081 48.9635C91.6927 48.9635 91.3502 49.0935 91.106 49.3536C90.8618 49.6136 90.7381 49.9847 90.7381 50.4667V53.8189H89.2031V47.752H90.7381V48.5068C90.9411 48.2436 91.2043 48.0374 91.5214 47.8884C91.8386 47.7393 92.1874 47.6632 92.568 47.6632C93.2911 47.6632 93.8746 47.8916 94.3218 48.3482H94.3186Z" fill="white"/>
<path d="M97.4282 53.6508C97.0349 53.4732 96.721 53.229 96.4926 52.9214C96.2643 52.6138 96.1374 52.2744 96.1152 51.9034H97.6597C97.6883 52.1381 97.8024 52.3315 98.0054 52.4838C98.2052 52.636 98.4557 52.7153 98.757 52.7153C99.0583 52.7153 99.2771 52.6582 99.442 52.5408C99.607 52.4235 99.6894 52.2744 99.6894 52.0905C99.6894 51.8939 99.5879 51.7448 99.3881 51.6465C99.1883 51.5482 98.868 51.4404 98.4304 51.323C97.9769 51.212 97.6058 51.101 97.3172 50.9837C97.0286 50.8663 96.7812 50.6887 96.5719 50.4477C96.3626 50.2067 96.2611 49.8832 96.2611 49.4741C96.2611 49.1379 96.3563 48.8303 96.5529 48.5544C96.7463 48.2785 97.0254 48.0565 97.3838 47.8979C97.7453 47.7361 98.1703 47.6569 98.6587 47.6569C99.3818 47.6569 99.959 47.8376 100.39 48.1992C100.822 48.5607 101.059 49.0491 101.104 49.6612H99.6355C99.6133 49.4202 99.5118 49.2299 99.3342 49.0872C99.1566 48.9445 98.9156 48.8747 98.6175 48.8747C98.3384 48.8747 98.1259 48.9254 97.9769 49.0269C97.8278 49.1284 97.7517 49.2711 97.7517 49.4551C97.7517 49.6612 97.8532 49.8134 98.0593 49.9213C98.2623 50.0259 98.5826 50.1337 99.0107 50.2447C99.4484 50.3557 99.8099 50.4667 100.095 50.5841C100.381 50.7014 100.628 50.8822 100.834 51.1264C101.044 51.3706 101.151 51.6941 101.158 52.0968C101.158 52.4489 101.059 52.7628 100.866 53.0388C100.673 53.3178 100.393 53.5335 100.035 53.6921C99.6736 53.8475 99.2518 53.9267 98.7697 53.9267C98.2877 53.9267 97.8278 53.8379 97.4345 53.6572L97.4282 53.6508Z" fill="white"/>
<path d="M104.196 49.0111V51.9478C104.196 52.1508 104.247 52.2998 104.345 52.3918C104.443 52.4838 104.608 52.5282 104.843 52.5282H105.557V53.8221H104.592C103.299 53.8221 102.655 53.1942 102.655 51.9383V49.0143H101.932V47.7552H102.655V46.2551H104.199V47.7552H105.557V49.0143H104.199L104.196 49.0111Z" fill="white"/>
<path d="M108.967 47.9391C109.284 47.7552 109.649 47.6664 110.058 47.6664V49.2775H109.652C109.17 49.2775 108.805 49.3916 108.561 49.6168C108.317 49.842 108.193 50.2384 108.193 50.7997V53.8221H106.658V47.7552H108.193V48.6971C108.39 48.3768 108.647 48.1231 108.964 47.9423L108.967 47.9391Z" fill="white"/>
<path d="M116.815 47.752V53.8189H115.271V53.0514C115.074 53.3146 114.817 53.5208 114.5 53.6698C114.183 53.8189 113.837 53.895 113.466 53.895C112.991 53.895 112.572 53.7935 112.207 53.5937C111.843 53.3939 111.554 53.0958 111.348 52.7057C111.142 52.3156 111.037 51.8494 111.037 51.3103V47.752H112.572V51.0915C112.572 51.5735 112.693 51.9446 112.934 52.2046C113.175 52.4647 113.504 52.5947 113.92 52.5947C114.335 52.5947 114.675 52.4647 114.916 52.2046C115.157 51.9446 115.277 51.5735 115.277 51.0915V47.752H116.822H116.815Z" fill="white"/>
<path d="M118.317 49.1379C118.573 48.6685 118.926 48.3007 119.379 48.0438C119.833 47.7837 120.349 47.6537 120.933 47.6537C121.685 47.6537 122.306 47.8408 122.801 48.2182C123.293 48.5956 123.626 49.1221 123.79 49.8007H122.138C122.049 49.5375 121.903 49.3314 121.694 49.1823C121.485 49.0333 121.228 48.9571 120.92 48.9571C120.483 48.9571 120.134 49.1157 119.88 49.4329C119.626 49.75 119.496 50.2003 119.496 50.787C119.496 51.3738 119.623 51.8114 119.88 52.1286C120.137 52.4457 120.483 52.6043 120.92 52.6043C121.542 52.6043 121.948 52.3252 122.135 51.7734H123.787C123.619 52.4298 123.286 52.9531 122.791 53.34C122.294 53.7269 121.675 53.9204 120.93 53.9204C120.346 53.9204 119.826 53.7904 119.376 53.5303C118.922 53.2703 118.57 52.9055 118.313 52.4362C118.057 51.9668 117.93 51.415 117.93 50.787C117.93 50.1591 118.057 49.6105 118.313 49.1379H118.317Z" fill="white"/>
<path d="M126.708 49.011V51.9478C126.708 52.1507 126.758 52.2998 126.857 52.3918C126.955 52.4837 127.12 52.5281 127.355 52.5281H128.068V53.8221H127.104C125.81 53.8221 125.166 53.1941 125.166 51.9382V49.0142H124.443V47.7551H125.166V46.2551H126.711V47.7551H128.068V49.0142H126.711L126.708 49.011Z" fill="white"/>
<path d="M129.275 46.772C129.098 46.6008 129.006 46.3883 129.006 46.1314C129.006 45.8745 129.095 45.662 129.275 45.4908C129.453 45.3195 129.678 45.2339 129.948 45.2339C130.217 45.2339 130.443 45.3195 130.62 45.4908C130.798 45.662 130.89 45.8745 130.89 46.1314C130.89 46.3883 130.801 46.6008 130.62 46.772C130.439 46.9433 130.217 47.0289 129.948 47.0289C129.678 47.0289 129.453 46.9433 129.275 46.772ZM130.703 47.752V53.8189H129.168V47.752H130.703Z" fill="white"/>
<path d="M133.332 53.5303C132.866 53.2703 132.498 52.9056 132.232 52.4298C131.965 51.9541 131.832 51.4086 131.832 50.787C131.832 50.1654 131.968 49.62 132.244 49.1443C132.517 48.6685 132.891 48.3038 133.367 48.0438C133.843 47.7837 134.372 47.6537 134.956 47.6537C135.539 47.6537 136.069 47.7837 136.545 48.0438C137.02 48.3038 137.395 48.6685 137.667 49.1443C137.94 49.62 138.08 50.1654 138.08 50.787C138.08 51.4086 137.94 51.9541 137.658 52.4298C137.376 52.9056 136.998 53.2703 136.519 53.5303C136.04 53.7904 135.505 53.9204 134.915 53.9204C134.325 53.9204 133.805 53.7904 133.338 53.5303H133.332ZM135.695 52.3791C135.939 52.2427 136.136 52.0429 136.282 51.7702C136.427 51.5006 136.5 51.1708 136.5 50.7839C136.5 50.2067 136.348 49.7627 136.047 49.4519C135.742 49.1411 135.375 48.9857 134.934 48.9857C134.493 48.9857 134.128 49.1411 133.833 49.4519C133.538 49.7627 133.389 50.2067 133.389 50.7839C133.389 51.3611 133.532 51.8051 133.821 52.1159C134.109 52.4267 134.471 52.5821 134.911 52.5821C135.187 52.5821 135.451 52.5155 135.695 52.3791Z" fill="white"/>
<path d="M144.319 48.3482C144.763 48.8049 144.988 49.4424 144.988 50.2606V53.8189H143.456V50.4667C143.456 49.9847 143.335 49.6136 143.094 49.3536C142.853 49.0935 142.524 48.9635 142.108 48.9635C141.693 48.9635 141.35 49.0935 141.106 49.3536C140.862 49.6136 140.738 49.9847 140.738 50.4667V53.8189H139.203V47.752H140.738V48.5068C140.941 48.2436 141.204 48.0374 141.521 47.8884C141.839 47.7393 142.187 47.6632 142.568 47.6632C143.291 47.6632 143.875 47.8916 144.322 48.3482H144.319Z" fill="white"/>
<path d="M155.393 46.1726V53.8189H153.858V50.565H150.582V53.8189H149.047V46.1726H150.582V49.3155H153.858V46.1726H155.393Z" fill="white"/>
<path d="M162.504 51.2469H158.067C158.105 51.6846 158.258 52.0271 158.527 52.2776C158.797 52.525 159.13 52.6487 159.523 52.6487C160.094 52.6487 160.497 52.4045 160.738 51.9161H162.39C162.216 52.4996 161.879 52.9817 161.382 53.3559C160.884 53.7333 160.275 53.9204 159.552 53.9204C158.968 53.9204 158.445 53.7904 157.979 53.5303C157.516 53.2703 157.154 52.9056 156.894 52.4298C156.634 51.9541 156.504 51.4086 156.504 50.787C156.504 50.1654 156.631 49.6073 156.888 49.1316C157.145 48.6559 157.5 48.2911 157.96 48.0374C158.419 47.7805 158.949 47.6537 159.548 47.6537C160.148 47.6537 160.643 47.7774 161.099 48.0247C161.556 48.2721 161.911 48.6241 162.162 49.0808C162.412 49.5375 162.539 50.0608 162.539 50.6538C162.539 50.8727 162.523 51.0693 162.495 51.2469H162.504ZM160.96 50.2162C160.953 49.8229 160.811 49.5058 160.532 49.2679C160.253 49.0301 159.913 48.9127 159.514 48.9127C159.133 48.9127 158.813 49.0269 158.556 49.2584C158.296 49.4899 158.137 49.8071 158.08 50.2162H160.96Z" fill="white"/>
<path d="M163.636 49.1316C163.88 48.6559 164.213 48.2911 164.632 48.0374C165.051 47.7805 165.52 47.6537 166.04 47.6537C166.494 47.6537 166.89 47.7457 167.229 47.9264C167.569 48.1104 167.841 48.3387 168.044 48.6178V47.752H169.589V53.8189H168.044V52.9309C167.848 53.2163 167.575 53.451 167.229 53.6381C166.884 53.8253 166.484 53.9172 166.031 53.9172C165.52 53.9172 165.054 53.7872 164.635 53.524C164.217 53.2608 163.884 52.8897 163.639 52.4108C163.395 51.9319 163.271 51.3833 163.271 50.7617C163.271 50.1401 163.395 49.6041 163.639 49.1284L163.636 49.1316ZM167.826 49.8261C167.68 49.5597 167.483 49.3536 167.233 49.214C166.985 49.0713 166.719 49.0015 166.433 49.0015C166.148 49.0015 165.885 49.0713 165.644 49.2109C165.403 49.3504 165.206 49.5534 165.057 49.8198C164.908 50.0862 164.832 50.4033 164.832 50.768C164.832 51.1327 164.908 51.453 165.057 51.7258C165.206 51.9985 165.403 52.211 165.647 52.3569C165.891 52.5028 166.151 52.5757 166.43 52.5757C166.709 52.5757 166.982 52.506 167.229 52.3632C167.477 52.2205 167.673 52.0176 167.822 51.7512C167.968 51.4848 168.041 51.1644 168.041 50.7934C168.041 50.4223 167.968 50.102 167.822 49.8356L167.826 49.8261Z" fill="white"/>
<path d="M172.623 45.7128V53.8189H171.088V45.7128H172.623Z" fill="white"/>
<path d="M175.921 49.0111V51.9478C175.921 52.1508 175.971 52.2998 176.07 52.3918C176.168 52.4838 176.333 52.5282 176.568 52.5282H177.281V53.8221H176.317C175.023 53.8221 174.379 53.1942 174.379 51.9383V49.0143H173.656V47.7552H174.379V46.2551H175.924V47.7552H177.281V49.0143H175.924L175.921 49.0111Z" fill="white"/>
<path d="M183.029 47.9645C183.387 48.1643 183.666 48.4624 183.866 48.8525C184.066 49.2426 184.167 49.7119 184.167 50.2606V53.8189H182.636V50.4667C182.636 49.9847 182.515 49.6136 182.274 49.3536C182.033 49.0935 181.703 48.9635 181.288 48.9635C180.872 48.9635 180.53 49.0935 180.286 49.3536C180.041 49.6136 179.918 49.9847 179.918 50.4667V53.8189H178.383V45.7128H179.918V48.5068C180.114 48.2436 180.378 48.0374 180.707 47.8884C181.037 47.7393 181.402 47.6632 181.802 47.6632C182.261 47.6632 182.671 47.7647 183.029 47.9645Z" fill="white"/>
<path d="M194.113 53.8189L193.283 52.9975C192.575 53.6318 191.709 53.9489 190.685 53.9489C190.124 53.9489 189.629 53.8506 189.201 53.6571C188.773 53.4637 188.443 53.1909 188.211 52.8357C187.977 52.4805 187.859 52.0714 187.859 51.6021C187.859 51.0978 188.002 50.6443 188.288 50.2447C188.573 49.8419 188.992 49.5184 189.547 49.2711C189.35 49.03 189.207 48.7985 189.118 48.5765C189.03 48.3545 188.988 48.1135 188.988 47.8598C188.988 47.5078 189.08 47.1938 189.261 46.9115C189.445 46.6293 189.705 46.4105 190.044 46.2487C190.384 46.087 190.78 46.0077 191.234 46.0077C191.687 46.0077 192.087 46.0965 192.417 46.2709C192.747 46.4453 192.991 46.68 193.149 46.9718C193.311 47.2636 193.381 47.5902 193.359 47.9454H191.868C191.874 47.7044 191.817 47.5205 191.694 47.3936C191.57 47.2667 191.402 47.2033 191.189 47.2033C190.977 47.2033 190.815 47.2636 190.679 47.3841C190.542 47.5046 190.476 47.66 190.476 47.8503C190.476 48.0406 190.53 48.215 190.641 48.3926C190.752 48.5702 190.929 48.7922 191.177 49.0554L193.105 50.9614C193.105 50.9614 193.13 50.9329 193.137 50.917C193.143 50.9012 193.152 50.8885 193.159 50.8726L193.784 49.8324H195.382L194.615 51.1803C194.469 51.4657 194.31 51.7353 194.142 51.9921L195.994 53.8221H194.11L194.113 53.8189ZM192.318 52.0461L190.435 50.1844C189.727 50.4984 189.372 50.9456 189.372 51.5196C189.372 51.8494 189.496 52.1253 189.743 52.3473C189.991 52.5693 190.32 52.6803 190.73 52.6803C191.329 52.6803 191.859 52.4679 192.318 52.0461Z" fill="white"/>
<path d="M200.559 53.6223C200.131 53.4384 199.795 53.1783 199.548 52.8326C199.3 52.4901 199.17 52.0842 199.164 51.618H200.807C200.829 51.9319 200.94 52.1793 201.14 52.3633C201.34 52.5472 201.616 52.636 201.968 52.636C202.32 52.636 202.605 52.5504 202.811 52.3791C203.017 52.2079 203.119 51.9827 203.119 51.7068C203.119 51.4816 203.049 51.2945 202.91 51.1486C202.77 51.0027 202.599 50.8885 202.389 50.8029C202.18 50.7205 201.895 50.6253 201.53 50.5238C201.032 50.3779 200.629 50.2321 200.318 50.0925C200.008 49.9498 199.741 49.7342 199.519 49.4456C199.297 49.157 199.186 48.7732 199.186 48.2912C199.186 47.8376 199.3 47.4444 199.526 47.1082C199.751 46.772 200.068 46.5152 200.477 46.3376C200.886 46.16 201.352 46.068 201.879 46.068C202.668 46.068 203.309 46.2583 203.801 46.642C204.292 47.0258 204.565 47.5617 204.616 48.2468H202.929C202.913 47.9835 202.802 47.7679 202.596 47.5934C202.389 47.419 202.11 47.3366 201.768 47.3366C201.47 47.3366 201.229 47.4127 201.051 47.5681C200.873 47.7235 200.781 47.9455 200.781 48.2372C200.781 48.4434 200.848 48.6115 200.984 48.7478C201.121 48.8842 201.289 48.992 201.489 49.0777C201.689 49.1633 201.974 49.2584 202.339 49.3694C202.837 49.5153 203.239 49.6612 203.553 49.8071C203.867 49.953 204.137 50.1718 204.365 50.4636C204.594 50.7553 204.705 51.1391 204.705 51.6148C204.705 52.0239 204.6 52.4045 204.387 52.7533C204.175 53.1054 203.864 53.3844 203.455 53.5906C203.046 53.7999 202.561 53.9014 201.999 53.9014C201.438 53.9014 200.984 53.8094 200.559 53.6287V53.6223Z" fill="white"/>
<path d="M206.001 49.1316C206.246 48.6559 206.579 48.2911 206.997 48.0374C207.416 47.7805 207.885 47.6537 208.405 47.6537C208.859 47.6537 209.255 47.7457 209.595 47.9264C209.934 48.1104 210.207 48.3387 210.41 48.6178V47.752H211.954V53.8189H210.41V52.9309C210.213 53.2163 209.94 53.451 209.595 53.6381C209.249 53.8253 208.849 53.9172 208.396 53.9172C207.885 53.9172 207.419 53.7872 207 53.524C206.582 53.2608 206.249 52.8897 206.005 52.4108C205.76 51.9319 205.637 51.3833 205.637 50.7617C205.637 50.1401 205.76 49.6041 206.005 49.1284L206.001 49.1316ZM210.191 49.8261C210.045 49.5597 209.848 49.3536 209.598 49.214C209.35 49.0713 209.084 49.0015 208.799 49.0015C208.513 49.0015 208.25 49.0713 208.009 49.2109C207.768 49.3504 207.571 49.5534 207.422 49.8198C207.273 50.0862 207.197 50.4033 207.197 50.768C207.197 51.1327 207.273 51.453 207.422 51.7258C207.571 51.9985 207.768 52.211 208.012 52.3569C208.256 52.5028 208.516 52.5757 208.795 52.5757C209.075 52.5757 209.347 52.506 209.595 52.3632C209.842 52.2205 210.039 52.0176 210.188 51.7512C210.334 51.4848 210.407 51.1644 210.407 50.7934C210.407 50.4223 210.334 50.102 210.188 49.8356L210.191 49.8261Z" fill="white"/>
<path d="M216.239 49.011H215.177V53.8189H213.623V49.011H212.932V47.752H213.623V47.4444C213.623 46.6991 213.836 46.1504 214.257 45.8016C214.679 45.4495 215.32 45.2878 216.173 45.31V46.6039C215.802 46.5976 215.542 46.6578 215.396 46.791C215.25 46.9242 215.177 47.1589 215.177 47.5046V47.7552H216.239V49.0142V49.011Z" fill="white"/>
<path d="M222.832 51.2469H218.396C218.434 51.6846 218.586 52.0271 218.855 52.2776C219.125 52.525 219.458 52.6487 219.851 52.6487C220.422 52.6487 220.825 52.4045 221.066 51.9161H222.718C222.544 52.4996 222.208 52.9817 221.71 53.3559C221.212 53.7333 220.603 53.9204 219.88 53.9204C219.296 53.9204 218.773 53.7904 218.307 53.5303C217.844 53.2703 217.482 52.9056 217.222 52.4298C216.962 51.9541 216.832 51.4086 216.832 50.787C216.832 50.1654 216.959 49.6073 217.216 49.1316C217.473 48.6559 217.828 48.2911 218.288 48.0374C218.748 47.7805 219.277 47.6537 219.877 47.6537C220.476 47.6537 220.971 47.7774 221.427 48.0247C221.884 48.2721 222.239 48.6241 222.49 49.0808C222.74 49.5375 222.867 50.0608 222.867 50.6538C222.867 50.8727 222.851 51.0693 222.823 51.2469H222.832ZM221.288 50.2162C221.282 49.8229 221.139 49.5058 220.86 49.2679C220.581 49.0301 220.241 48.9127 219.842 48.9127C219.461 48.9127 219.141 49.0269 218.884 49.2584C218.624 49.4899 218.465 49.8071 218.408 50.2162H221.288Z" fill="white"/>
<path d="M225.78 49.0111V51.9478C225.78 52.1508 225.831 52.2998 225.929 52.3918C226.027 52.4838 226.192 52.5282 226.427 52.5282H227.141V53.8221H226.176C224.882 53.8221 224.239 53.1942 224.239 51.9383V49.0143H223.516V47.7552H224.239V46.2551H225.783V47.7552H227.141V49.0143H225.783L225.78 49.0111Z" fill="white"/>
<path d="M234.05 47.752L230.292 56.689H228.659L229.972 53.6666L227.539 47.752H229.258L230.825 51.9921L232.414 47.752H234.047H234.05Z" fill="white"/>
<path d="M244.014 53.8189H242.482L239.01 48.5734V53.8189H237.475V46.1631H239.01L242.482 51.4213V46.1631H244.014V53.8189Z" fill="white"/>
<path d="M247.094 52.5281H250.532V53.8221H245.318V52.6391L248.737 47.4697H245.318V46.1758H250.532V47.3587L247.094 52.5281Z" fill="white"/>
<path d="M29.9984 59.9968C46.5661 59.9968 59.9968 46.5661 59.9968 29.9984C59.9968 13.4307 46.5661 0 29.9984 0C13.4307 0 0 13.4307 0 29.9984C0 46.5661 13.4307 59.9968 29.9984 59.9968Z" fill="white"/>
<path d="M29.9968 34.9934C29.9968 34.9934 46.6245 35.0854 47.6076 33.192C47.6076 33.192 48.4544 25.4665 44.2428 20.7728C44.1349 20.6523 43.9415 20.6618 43.8432 20.7886L40.0851 25.5997C40.0407 25.6567 39.9455 25.606 39.9741 25.5362L42.5207 19.279C42.5778 19.1427 42.5429 18.9873 42.4351 18.8858C41.7691 18.2705 39.2319 16.1235 35.2074 15.0484C35.0552 15.0071 34.8966 15.115 34.8808 15.2735L33.4219 29.399C33.4187 29.4402 33.3553 29.4371 33.3553 29.3958V14.6266C33.3553 14.6266 33.3553 12.6698 31.4144 12.6698H28.5823C26.6383 12.6698 26.6383 14.6266 26.6383 14.6266V29.3958C26.6383 29.4371 26.5748 29.4402 26.5717 29.399L25.1128 15.2735C25.097 15.115 24.9416 15.0071 24.7862 15.0484C20.7616 16.1266 18.2245 18.2705 17.5585 18.8858C17.4507 18.9873 17.4158 19.1427 17.4729 19.279L20.0195 25.5362C20.0481 25.606 19.9561 25.6599 19.9085 25.5997L16.1504 20.7886L27.2377 34.9775C28.89 34.9997 29.9936 34.9934 29.9936 34.9934H29.9968Z" fill="#8BB53F"/>
<path opacity="0.75" d="M27.2417 34.9744L16.1544 20.7854C16.0561 20.6586 15.8627 20.6491 15.7548 20.7696C11.5432 25.4665 12.39 33.1889 12.39 33.1889C13.1194 34.597 22.4751 34.9078 27.2449 34.9744H27.2417Z" fill="#8BB53F"/>
<path opacity="0.75" d="M12.4822 33.9659C12.3712 33.912 12.2507 33.8835 12.127 33.8867C11.0106 33.9089 7.45548 34.1531 7.38888 36.3128C7.31594 38.574 26.0019 39.1322 30.0106 39.0973C30.1438 39.0973 30.296 39.0973 30.4641 39.0973L27.8635 35.7705C16.272 35.6214 13.1355 34.2799 12.4853 33.9659H12.4822Z" fill="#8BB53F"/>
<path d="M52.611 36.3096C52.5444 34.153 48.9861 33.9088 47.873 33.8834C47.7493 33.8834 47.6288 33.9088 47.5178 33.9627C46.8264 34.2957 43.3569 35.7799 29.9989 35.7799C29.2536 35.7799 28.5464 35.7736 27.8613 35.7672L30.4619 39.0941C35.2476 39.0877 52.6808 38.4947 52.611 36.3096Z" fill="#8BB53F"/>
<g clip-path="url(#clip1_857_1716)">
<path d="M73.5687 14.8766C74.8708 12.5176 76.6854 10.6807 79.0157 9.36594C81.3429 8.05114 83.9852 7.39215 86.9363 7.39215C90.5528 7.39215 93.6472 8.34721 96.2227 10.2573C98.7982 12.1674 100.52 14.7716 101.386 18.0697H93.227C92.6189 16.7963 91.7594 15.8285 90.6452 15.1631C89.5309 14.4978 88.2639 14.1635 86.8472 14.1635C84.5614 14.1635 82.7086 14.9594 81.2919 16.5512C79.8753 18.1429 79.1653 20.2695 79.1653 22.931C79.1653 25.5924 79.8753 27.719 81.2919 29.3108C82.7086 30.9025 84.5614 31.6984 86.8472 31.6984C88.2639 31.6984 89.5309 31.3673 90.6452 30.6988C91.7594 30.0334 92.6189 29.0656 93.227 27.7922H101.386C100.517 31.0904 98.7982 33.6881 96.2227 35.5823C93.6472 37.4765 90.5528 38.4252 86.9363 38.4252C83.9852 38.4252 81.3461 37.7662 79.0157 36.4514C76.6854 35.1366 74.8708 33.3061 73.5687 30.963C72.2666 28.6199 71.6172 25.9426 71.6172 22.9341C71.6172 19.9257 72.2666 17.242 73.5687 14.883V14.8766Z" fill="white"/>
<path d="M132.327 7.73914V38.2023H124.906V25.6624H113.362V38.2023H105.941V7.73914H113.362V19.6742H124.906V7.73914H132.327Z" fill="white"/>
<path d="M156.627 32.8222H145.259L143.438 38.2023H135.67L146.691 7.73914H155.284L166.305 38.2023H158.451L156.63 32.8222H156.627ZM154.717 27.095L150.941 15.9431L147.21 27.095H154.717Z" fill="white"/>
<path d="M174.682 37.4224C172.918 36.6997 171.508 35.63 170.451 34.2102C169.394 32.7935 168.837 31.0871 168.779 29.0911H176.678C176.792 30.218 177.184 31.0808 177.849 31.6729C178.515 32.2651 179.384 32.5611 180.453 32.5611C181.523 32.5611 182.421 32.3096 183.057 31.8003C183.694 31.2941 184.013 30.5937 184.013 29.6959C184.013 28.9446 183.758 28.3207 183.252 27.8304C182.745 27.3401 182.125 26.9326 181.386 26.6143C180.648 26.2959 179.6 25.9362 178.241 25.5287C176.273 24.9206 174.669 24.3126 173.424 23.7045C172.179 23.0965 171.11 22.2019 170.212 21.0145C169.314 19.827 168.865 18.2798 168.865 16.3697C168.865 13.5332 169.89 11.3142 171.947 9.70974C174 8.10524 176.678 7.2998 179.976 7.2998C183.274 7.2998 186.037 8.10205 188.091 9.70974C190.144 11.3142 191.242 13.5491 191.389 16.4143H183.36C183.303 15.4305 182.94 14.6569 182.274 14.0935C181.609 13.53 180.756 13.2466 179.715 13.2466C178.817 13.2466 178.094 13.4854 177.544 13.9629C176.993 14.4405 176.719 15.1281 176.719 16.0227C176.719 17.0064 177.181 17.7736 178.107 18.3212C179.033 18.8719 180.479 19.4641 182.446 20.1008C184.414 20.7661 186.012 21.4028 187.241 22.0109C188.469 22.619 189.533 23.5008 190.43 24.6564C191.328 25.8152 191.777 27.3019 191.777 29.1261C191.777 30.9503 191.335 32.4401 190.453 33.8568C189.571 35.2735 188.291 36.4036 186.613 37.2409C184.936 38.0814 182.952 38.4984 180.67 38.4984C178.387 38.4984 176.445 38.1355 174.682 37.4128V37.4224Z" fill="white"/>
<path d="M223.586 38.2023H216.165L203.753 19.4131V38.2023H196.332V7.73914H203.753L216.165 26.6175V7.73914H223.586V38.2023Z" fill="white"/>
<path d="M236.865 32.1282H249.971V38.2023H228.447V32.5611L241.465 13.8133H228.447V7.73914H249.971V13.3804L236.865 32.1282Z" fill="white"/>
<path d="M73.9371 47.9662C74.2777 47.3709 74.7393 46.9061 75.3283 46.575C75.9173 46.2439 76.5762 46.0752 77.3053 46.0752C78.1585 46.0752 78.9066 46.2949 79.5497 46.731C80.1927 47.1703 80.6416 47.7752 80.8963 48.5488H79.1326C78.9575 48.1827 78.7124 47.9089 78.394 47.7274C78.0757 47.546 77.7096 47.4537 77.2925 47.4537C76.8468 47.4537 76.4521 47.5587 76.1051 47.7656C75.7581 47.9726 75.4875 48.2686 75.2933 48.6475C75.0991 49.0263 75.0036 49.472 75.0036 49.9846C75.0036 50.4971 75.0991 50.9333 75.2933 51.3153C75.4875 51.6973 75.7581 51.9934 76.1051 52.2035C76.4521 52.4104 76.8468 52.5155 77.2925 52.5155C77.7096 52.5155 78.0757 52.4232 78.394 52.2353C78.7124 52.0507 78.9575 51.7737 79.1326 51.4076H80.8963C80.6416 52.1876 80.1927 52.7956 79.556 53.2318C78.9161 53.6679 78.168 53.8844 77.3053 53.8844C76.5762 53.8844 75.9173 53.7189 75.3283 53.3846C74.7393 53.0535 74.2777 52.5919 73.9371 51.9997C73.5965 51.4076 73.4277 50.7359 73.4277 49.9846C73.4277 49.2333 73.5965 48.5584 73.9371 47.963V47.9662Z" fill="white"/>
<path d="M83.3308 53.531C82.8628 53.2732 82.4967 52.9039 82.2292 52.4295C81.9618 51.9552 81.8281 51.4076 81.8281 50.7868C81.8281 50.166 81.965 49.6185 82.2388 49.1441C82.5126 48.6698 82.8882 48.3037 83.3626 48.0426C83.8369 47.7848 84.3654 47.6542 84.9512 47.6542C85.5369 47.6542 86.0654 47.7848 86.5397 48.0426C87.0141 48.3005 87.3897 48.6698 87.6635 49.1441C87.9373 49.6185 88.0742 50.166 88.0742 50.7868C88.0742 51.4076 87.9341 51.9552 87.654 52.4295C87.3738 52.9039 86.9918 53.27 86.5143 53.531C86.0368 53.7889 85.5019 53.9194 84.9098 53.9194C84.3176 53.9194 83.7987 53.7889 83.3339 53.531H83.3308ZM85.6897 52.3818C85.9349 52.2481 86.1291 52.0443 86.2755 51.7737C86.422 51.5031 86.4952 51.1752 86.4952 50.7868C86.4952 50.2106 86.3424 49.7649 86.0399 49.4561C85.7375 49.1473 85.365 48.9913 84.9289 48.9913C84.4927 48.9913 84.1235 49.1473 83.8274 49.4561C83.5313 49.7681 83.3849 50.2106 83.3849 50.7868C83.3849 51.363 83.5281 51.8087 83.8178 52.1175C84.1075 52.4295 84.4704 52.5823 84.9066 52.5823C85.1836 52.5823 85.4446 52.5155 85.6897 52.3786V52.3818Z" fill="white"/>
<path d="M94.3144 48.3515C94.7601 48.8067 94.983 49.4466 94.983 50.2616V53.8208H93.4485V50.4685C93.4485 49.9878 93.3275 49.6153 93.0856 49.3575C92.8436 49.0996 92.5157 48.9691 92.0987 48.9691C91.6816 48.9691 91.341 49.0996 91.0959 49.3575C90.8507 49.6153 90.7298 49.9878 90.7298 50.4685V53.8208H89.1953V47.753H90.7298V48.5075C90.9335 48.2432 91.1946 48.0395 91.5129 47.8898C91.8313 47.7402 92.1783 47.6638 92.5603 47.6638C93.283 47.6638 93.8687 47.893 94.3112 48.3483L94.3144 48.3515Z" fill="white"/>
<path d="M97.4281 53.652C97.0333 53.4737 96.7213 53.2317 96.4921 52.9229C96.2629 52.6141 96.1356 52.2767 96.1133 51.9042H97.6573C97.6859 52.1366 97.8006 52.3308 98.0011 52.4836C98.2017 52.6364 98.4532 52.7128 98.7524 52.7128C99.0517 52.7128 99.2713 52.6555 99.4369 52.5377C99.6024 52.4199 99.682 52.2703 99.682 52.0888C99.682 51.8915 99.5801 51.745 99.3796 51.6463C99.179 51.5476 98.8607 51.4394 98.4213 51.3216C97.9693 51.2134 97.5968 51.0988 97.3103 50.981C97.0206 50.8632 96.7723 50.6849 96.5653 50.443C96.3584 50.201 96.2534 49.8763 96.2534 49.4688C96.2534 49.1313 96.3489 48.8257 96.5431 48.5488C96.7373 48.2718 97.0142 48.0521 97.3771 47.893C97.7401 47.7338 98.1635 47.651 98.6537 47.651C99.3764 47.651 99.9526 47.8325 100.386 48.1922C100.815 48.5551 101.054 49.0422 101.099 49.6534H99.6311C99.6088 49.4115 99.5101 49.2205 99.3286 49.0772C99.1472 48.934 98.9116 48.8639 98.6124 48.8639C98.3354 48.8639 98.1221 48.9149 97.9725 49.0167C97.8228 49.1186 97.7464 49.2619 97.7464 49.4433C97.7464 49.6471 97.8483 49.8031 98.0521 49.9081C98.2558 50.0132 98.5741 50.1214 99.0039 50.2328C99.4432 50.3411 99.803 50.4557 100.09 50.5735C100.373 50.6913 100.621 50.8696 100.828 51.1147C101.035 51.3598 101.143 51.6814 101.153 52.0825C101.153 52.4327 101.057 52.7478 100.863 53.0248C100.669 53.3018 100.392 53.5183 100.032 53.6774C99.6693 53.8334 99.2491 53.913 98.7683 53.913C98.2876 53.913 97.826 53.8239 97.4313 53.6456L97.4281 53.652Z" fill="white"/>
<path d="M104.196 49.0136V51.9488C104.196 52.1526 104.244 52.3022 104.343 52.3913C104.441 52.4837 104.607 52.5282 104.843 52.5282H105.556V53.8207H104.591C103.299 53.8207 102.652 53.1936 102.652 51.9361V49.0104H101.93V47.7498H102.652V46.2503H104.196V47.7498H105.556V49.0104H104.196V49.0136Z" fill="white"/>
<path d="M108.965 47.9408C109.283 47.7593 109.646 47.667 110.054 47.667V49.2779H109.649C109.169 49.2779 108.803 49.3925 108.561 49.6185C108.316 49.8445 108.195 50.2393 108.195 50.8028V53.8271H106.66V47.7593H108.195V48.7016C108.392 48.3801 108.65 48.1286 108.968 47.9471L108.965 47.9408Z" fill="white"/>
<path d="M116.814 47.7529V53.8207H115.27V53.0535C115.072 53.3177 114.815 53.5215 114.496 53.6711C114.178 53.8207 113.834 53.8972 113.462 53.8972C112.987 53.8972 112.567 53.7985 112.201 53.5947C111.835 53.3942 111.548 53.0981 111.341 52.7065C111.134 52.3149 111.029 51.8501 111.029 51.3089V47.7498H112.564V51.0893C112.564 51.57 112.685 51.9425 112.927 52.2003C113.169 52.4582 113.497 52.5887 113.914 52.5887C114.331 52.5887 114.668 52.4582 114.91 52.2003C115.152 51.9425 115.273 51.57 115.273 51.0893V47.7498H116.817L116.814 47.7529Z" fill="white"/>
<path d="M118.316 49.1378C118.57 48.6666 118.924 48.3005 119.379 48.0426C119.831 47.7848 120.35 47.6542 120.936 47.6542C121.687 47.6542 122.311 47.8421 122.804 48.2177C123.298 48.5934 123.629 49.1218 123.794 49.7999H122.139C122.05 49.5357 121.903 49.332 121.697 49.1823C121.49 49.0327 121.232 48.9563 120.923 48.9563C120.484 48.9563 120.137 49.1155 119.882 49.4338C119.627 49.7522 119.5 50.2011 119.5 50.7868C119.5 51.3726 119.627 51.8119 119.882 52.1271C120.137 52.4455 120.484 52.6046 120.923 52.6046C121.544 52.6046 121.948 52.3277 122.139 51.7737H123.794C123.626 52.4295 123.295 52.9516 122.798 53.34C122.301 53.7284 121.681 53.9194 120.936 53.9194C120.35 53.9194 119.834 53.7889 119.379 53.531C118.927 53.2732 118.57 52.9071 118.316 52.4359C118.061 51.9647 117.934 51.414 117.934 50.7868C117.934 50.1597 118.061 49.6089 118.316 49.1378Z" fill="white"/>
<path d="M126.704 49.0136V51.9488C126.704 52.1526 126.752 52.3022 126.851 52.3913C126.949 52.4837 127.115 52.5282 127.35 52.5282H128.064V53.8207H127.099C125.806 53.8207 125.16 53.1936 125.16 51.9361V49.0104H124.438V47.7498H125.16V46.2503H126.704V47.7498H128.064V49.0104H126.704V49.0136Z" fill="white"/>
<path d="M129.273 46.7724C129.095 46.6005 129.006 46.3872 129.006 46.1325C129.006 45.8778 129.095 45.6645 129.273 45.4926C129.452 45.3207 129.678 45.2347 129.948 45.2347C130.219 45.2347 130.442 45.3207 130.623 45.4926C130.801 45.6645 130.891 45.8778 130.891 46.1325C130.891 46.3872 130.801 46.6005 130.623 46.7724C130.445 46.9443 130.219 47.0303 129.948 47.0303C129.678 47.0303 129.455 46.9443 129.273 46.7724ZM130.703 47.7529V53.8207H129.168V47.7529H130.703Z" fill="white"/>
<path d="M133.333 53.531C132.865 53.2732 132.499 52.9039 132.231 52.4295C131.964 51.9552 131.83 51.4076 131.83 50.7868C131.83 50.166 131.967 49.6185 132.241 49.1441C132.515 48.6698 132.89 48.3037 133.365 48.0426C133.839 47.7848 134.367 47.6542 134.953 47.6542C135.539 47.6542 136.067 47.7848 136.542 48.0426C137.016 48.3005 137.392 48.6698 137.665 49.1441C137.939 49.6185 138.076 50.166 138.076 50.7868C138.076 51.4076 137.936 51.9552 137.656 52.4295C137.376 52.9039 136.994 53.27 136.516 53.531C136.039 53.7889 135.504 53.9194 134.912 53.9194C134.32 53.9194 133.801 53.7889 133.336 53.531H133.333ZM135.692 52.3818C135.937 52.2481 136.131 52.0443 136.277 51.7737C136.424 51.5031 136.497 51.1752 136.497 50.7868C136.497 50.2106 136.344 49.7649 136.042 49.4561C135.739 49.1473 135.367 48.9913 134.931 48.9913C134.495 48.9913 134.125 49.1473 133.829 49.4561C133.533 49.7681 133.387 50.2106 133.387 50.7868C133.387 51.363 133.53 51.8087 133.82 52.1175C134.109 52.4295 134.472 52.5823 134.909 52.5823C135.186 52.5823 135.447 52.5155 135.692 52.3786V52.3818Z" fill="white"/>
<path d="M144.319 48.3515C144.765 48.8067 144.988 49.4466 144.988 50.2616V53.8208H143.453V50.4685C143.453 49.9878 143.332 49.6153 143.093 49.3575C142.851 49.0996 142.524 48.9691 142.107 48.9691C141.689 48.9691 141.349 49.0996 141.104 49.3575C140.859 49.6153 140.738 49.9878 140.738 50.4685V53.8208H139.203V47.753H140.738V48.5075C140.941 48.2432 141.202 48.0395 141.521 47.8898C141.839 47.7402 142.186 47.6638 142.568 47.6638C143.291 47.6638 143.877 47.893 144.319 48.3483V48.3515Z" fill="white"/>
<path d="M155.392 46.1771V53.8239H153.857V50.5703H150.581V53.8239H149.047V46.1771H150.581V49.3192H153.857V46.1771H155.392Z" fill="white"/>
<path d="M162.499 51.2484H158.065C158.103 51.6877 158.256 52.0284 158.526 52.2767C158.797 52.525 159.128 52.6491 159.523 52.6491C160.092 52.6491 160.497 52.404 160.739 51.9138H162.394C162.219 52.4995 161.882 52.977 161.385 53.3527C160.888 53.7284 160.28 53.9162 159.554 53.9162C158.972 53.9162 158.447 53.7857 157.982 53.5278C157.517 53.2699 157.157 52.9006 156.896 52.4263C156.638 51.952 156.508 51.4044 156.508 50.7836C156.508 50.1628 156.635 49.6057 156.893 49.1282C157.148 48.6538 157.507 48.2877 157.966 48.033C158.427 47.7783 158.956 47.651 159.554 47.651C160.153 47.651 160.646 47.7752 161.105 48.0235C161.56 48.2718 161.917 48.6252 162.168 49.0804C162.42 49.5357 162.547 50.0609 162.547 50.6531C162.547 50.8727 162.531 51.0701 162.502 51.2452L162.499 51.2484ZM160.955 50.2169C160.949 49.8222 160.806 49.507 160.529 49.2682C160.252 49.0295 159.911 48.9117 159.51 48.9117C159.131 48.9117 158.81 49.0263 158.552 49.2555C158.294 49.4847 158.135 49.8063 158.074 50.2137H160.955V50.2169Z" fill="white"/>
<path d="M163.633 49.1346C163.878 48.6602 164.209 48.2941 164.629 48.0394C165.05 47.7847 165.518 47.6574 166.037 47.6574C166.489 47.6574 166.887 47.7497 167.224 47.9312C167.565 48.1127 167.835 48.3451 168.039 48.622V47.7561H169.583V53.8239H168.039V52.9357C167.842 53.219 167.571 53.4546 167.224 53.6424C166.877 53.8271 166.476 53.9226 166.024 53.9226C165.511 53.9226 165.046 53.7921 164.626 53.5278C164.206 53.2636 163.875 52.8943 163.63 52.4168C163.385 51.9393 163.264 51.3885 163.264 50.7677C163.264 50.1469 163.385 49.6089 163.63 49.1346H163.633ZM167.822 49.8286C167.676 49.5612 167.479 49.3574 167.23 49.2142C166.982 49.0709 166.715 49.0009 166.431 49.0009C166.148 49.0009 165.884 49.0709 165.642 49.2078C165.4 49.3447 165.206 49.5484 165.056 49.8158C164.906 50.0833 164.83 50.3984 164.83 50.7645C164.83 51.1306 164.903 51.449 165.056 51.7228C165.206 51.9966 165.403 52.2067 165.648 52.3531C165.893 52.4996 166.154 52.5728 166.431 52.5728C166.708 52.5728 166.982 52.5027 167.23 52.3595C167.479 52.2162 167.676 52.0125 167.822 51.7451C167.969 51.4776 168.042 51.1593 168.042 50.7868C168.042 50.4143 167.969 50.096 167.822 49.8286Z" fill="white"/>
<path d="M172.62 45.7155V53.8207H171.086V45.7155H172.62Z" fill="white"/>
<path d="M175.919 49.0136V51.9488C175.919 52.1525 175.967 52.3021 176.065 52.3913C176.164 52.4836 176.33 52.5282 176.565 52.5282H177.278V53.8207H176.314C175.021 53.8207 174.375 53.1935 174.375 51.936V49.0104H173.652V47.7497H174.375V46.2502H175.919V47.7497H177.278V49.0104H175.919V49.0136Z" fill="white"/>
<path d="M183.027 47.9662C183.383 48.1668 183.664 48.4628 183.864 48.8544C184.065 49.246 184.167 49.714 184.167 50.2615V53.8207H182.632V50.4685C182.632 49.9877 182.511 49.6153 182.269 49.3574C182.027 49.0995 181.699 48.969 181.282 48.969C180.865 48.969 180.525 49.0995 180.279 49.3574C180.034 49.6153 179.913 49.9877 179.913 50.4685V53.8207H178.379V45.7155H179.913V48.5074C180.111 48.2432 180.372 48.0394 180.703 47.8898C181.034 47.7402 181.397 47.6638 181.798 47.6638C182.26 47.6638 182.667 47.7656 183.024 47.9662H183.027Z" fill="white"/>
<path d="M194.112 53.8207L193.278 52.9994C192.571 53.6361 191.705 53.9513 190.683 53.9513C190.12 53.9513 189.626 53.8558 189.2 53.6616C188.773 53.4674 188.442 53.1936 188.21 52.8402C187.977 52.4868 187.859 52.0762 187.859 51.6082C187.859 51.1052 188.003 50.6531 188.286 50.2488C188.569 49.8477 188.99 49.523 189.547 49.2747C189.349 49.0327 189.206 48.8035 189.12 48.5806C189.034 48.3578 188.99 48.119 188.99 47.8644C188.99 47.5142 189.082 47.199 189.263 46.9157C189.445 46.6355 189.706 46.4127 190.046 46.2535C190.387 46.0943 190.782 46.0115 191.234 46.0115C191.686 46.0115 192.087 46.1007 192.418 46.2758C192.746 46.4509 192.991 46.6833 193.15 46.9761C193.31 47.269 193.38 47.5937 193.357 47.9503H191.867C191.874 47.7084 191.817 47.5237 191.692 47.3964C191.568 47.269 191.399 47.2054 191.189 47.2054C190.979 47.2054 190.814 47.2658 190.68 47.3868C190.546 47.5078 190.476 47.6638 190.476 47.8516C190.476 48.0394 190.53 48.2145 190.642 48.3928C190.75 48.5711 190.931 48.7939 191.18 49.055L193.109 50.9619C193.109 50.9619 193.134 50.9333 193.141 50.9174C193.147 50.9014 193.157 50.8887 193.163 50.8728L193.787 49.8318H195.385L194.618 51.1784C194.472 51.4617 194.316 51.7323 194.147 51.9902L196 53.8207H194.115H194.112ZM192.313 52.0475L190.428 50.1851C189.719 50.5003 189.365 50.946 189.365 51.5222C189.365 51.8501 189.489 52.1271 189.738 52.3499C189.986 52.5728 190.314 52.6842 190.725 52.6842C191.323 52.6842 191.852 52.4709 192.313 52.0475Z" fill="white"/>
<path d="M200.556 53.6234C200.13 53.4419 199.792 53.1777 199.544 52.8339C199.296 52.49 199.168 52.0857 199.162 51.6178H200.805C200.827 51.9329 200.939 52.1812 201.139 52.3627C201.34 52.5442 201.617 52.6365 201.967 52.6365C202.317 52.6365 202.607 52.5505 202.81 52.3786C203.014 52.2067 203.116 51.9839 203.116 51.7037C203.116 51.4777 203.046 51.2899 202.909 51.1466C202.769 51.0002 202.597 50.8855 202.39 50.8028C202.183 50.72 201.897 50.6245 201.531 50.5226C201.034 50.3762 200.63 50.2329 200.321 50.0897C200.009 49.9464 199.745 49.7331 199.522 49.4434C199.299 49.1537 199.188 48.7685 199.188 48.2878C199.188 47.8357 199.302 47.441 199.528 47.1035C199.754 46.7692 200.073 46.5114 200.48 46.3299C200.888 46.1516 201.356 46.0625 201.881 46.0625C202.67 46.0625 203.31 46.2535 203.804 46.6387C204.297 47.0207 204.568 47.5556 204.619 48.2432H202.931C202.916 47.979 202.804 47.7625 202.597 47.5906C202.39 47.4187 202.113 47.3327 201.769 47.3327C201.47 47.3327 201.231 47.4091 201.053 47.5619C200.875 47.7147 200.786 47.9376 200.786 48.2305C200.786 48.4342 200.853 48.6061 200.989 48.7399C201.123 48.8736 201.292 48.985 201.492 49.0678C201.693 49.1505 201.976 49.2492 202.342 49.3575C202.839 49.5039 203.243 49.6503 203.559 49.7968C203.874 49.9432 204.141 50.1629 204.37 50.4526C204.596 50.7455 204.711 51.1275 204.711 51.6018C204.711 52.0125 204.606 52.3914 204.393 52.7415C204.179 53.0917 203.871 53.3719 203.463 53.5788C203.052 53.7857 202.569 53.8908 202.005 53.8908C201.473 53.8908 200.993 53.7985 200.566 53.617L200.556 53.6234Z" fill="white"/>
<path d="M206 49.1346C206.245 48.6602 206.576 48.2941 206.997 48.0394C207.417 47.7847 207.885 47.6574 208.404 47.6574C208.856 47.6574 209.254 47.7497 209.591 47.9312C209.932 48.1127 210.202 48.3451 210.406 48.622V47.7561H211.95V53.8239H210.406V52.9357C210.209 53.219 209.938 53.4546 209.591 53.6424C209.244 53.8271 208.843 53.9226 208.391 53.9226C207.878 53.9226 207.414 53.7921 206.993 53.5278C206.573 53.2636 206.242 52.8943 205.997 52.4168C205.752 51.9393 205.631 51.3885 205.631 50.7677C205.631 50.1469 205.752 49.6089 205.997 49.1346H206ZM210.19 49.8286C210.043 49.5612 209.846 49.3574 209.598 49.2142C209.349 49.0709 209.082 49.0009 208.798 49.0009C208.515 49.0009 208.251 49.0709 208.009 49.2078C207.767 49.3447 207.573 49.5484 207.423 49.8158C207.274 50.0833 207.197 50.3984 207.197 50.7645C207.197 51.1306 207.27 51.449 207.423 51.7228C207.573 51.9966 207.77 52.2067 208.015 52.3531C208.26 52.4996 208.522 52.5728 208.798 52.5728C209.075 52.5728 209.349 52.5027 209.598 52.3595C209.846 52.2162 210.043 52.0125 210.19 51.7451C210.336 51.4776 210.409 51.1593 210.409 50.7868C210.409 50.4143 210.336 50.096 210.19 49.8286Z" fill="white"/>
<path d="M216.237 49.0136H215.174V53.8208H213.621V49.0136H212.93V47.753H213.621V47.4473C213.621 46.7024 213.831 46.1548 214.257 45.8046C214.681 45.4544 215.321 45.2889 216.174 45.3112V46.6037C215.801 46.5973 215.543 46.6578 215.397 46.7883C215.25 46.9189 215.177 47.1576 215.177 47.5015V47.753H216.241V49.0136H216.237Z" fill="white"/>
<path d="M222.831 51.2484H218.396C218.431 51.6877 218.587 52.0284 218.854 52.2767C219.122 52.525 219.456 52.6491 219.851 52.6491C220.421 52.6491 220.825 52.404 221.067 51.9138H222.722C222.547 52.4995 222.21 52.977 221.713 53.3527C221.216 53.7284 220.608 53.9162 219.883 53.9162C219.3 53.9162 218.775 53.7857 218.31 53.5278C217.845 53.2699 217.485 52.9006 217.224 52.4263C216.966 51.952 216.836 51.4044 216.836 50.7836C216.836 50.1628 216.963 49.6057 217.218 49.1282C217.473 48.6538 217.832 48.2877 218.291 48.033C218.749 47.7783 219.281 47.651 219.879 47.651C220.478 47.651 220.971 47.7752 221.43 48.0235C221.885 48.2718 222.242 48.6252 222.493 49.0804C222.745 49.5357 222.872 50.0609 222.872 50.6531C222.872 50.8727 222.856 51.0701 222.827 51.2452L222.831 51.2484ZM221.287 50.2169C221.28 49.8222 221.137 49.507 220.86 49.2682C220.583 49.0295 220.242 48.9117 219.841 48.9117C219.462 48.9117 219.141 49.0263 218.883 49.2555C218.625 49.4847 218.466 49.8063 218.405 50.2137H221.287V50.2169Z" fill="white"/>
<path d="M225.776 49.0136V51.9488C225.776 52.1525 225.824 52.3021 225.923 52.3913C226.022 52.4836 226.187 52.5282 226.423 52.5282H227.136V53.8207H226.171C224.879 53.8207 224.232 53.1935 224.232 51.936V49.0104H223.51V47.7497H224.232V46.2502H225.776V47.7497H227.136V49.0104H225.776V49.0136Z" fill="white"/>
<path d="M234.046 47.7529L230.29 56.6923H228.656L229.971 53.6679L227.539 47.7529H229.258L230.824 51.9902L232.413 47.7529H234.046Z" fill="white"/>
<path d="M244.015 53.8207H242.48L239.007 48.5742V53.8207H237.473V46.1643H239.007L242.48 51.4235V46.1643H244.015V53.8207Z" fill="white"/>
<path d="M247.093 52.5282H250.531V53.8207H245.316V52.6365L248.732 47.4664H245.316V46.1739H250.531V47.3582L247.093 52.5282Z" fill="white"/>
<path d="M29.9984 59.9968C46.5661 59.9968 59.9968 46.5661 59.9968 29.9984C59.9968 13.4307 46.5661 0 29.9984 0C13.4307 0 0 13.4307 0 29.9984C0 46.5661 13.4307 59.9968 29.9984 59.9968Z" fill="#56D54F"/>
<path d="M30.0002 34.9933C30.0002 34.9933 46.6278 35.0857 47.6115 33.1915C47.6115 33.1915 48.4583 25.4682 44.2465 20.7725C44.1383 20.6515 43.9472 20.6611 43.8454 20.7884L40.0856 25.5987C40.0411 25.656 39.9487 25.6051 39.9742 25.5351L42.521 19.2762C42.5751 19.1393 42.5433 18.9834 42.4351 18.8847C41.7665 18.2671 39.2324 16.1245 35.2084 15.0453C35.0556 15.0039 34.8996 15.1122 34.8837 15.2714L33.4257 29.3967C33.4225 29.4381 33.3588 29.4349 33.3588 29.3935V14.6251C33.3588 14.6251 33.3588 12.6704 31.4169 12.6704H28.5867C26.6448 12.6704 26.6448 14.6251 26.6448 14.6251V29.3935C26.6448 29.4349 26.5811 29.4381 26.5779 29.3967L25.1198 15.2714C25.1039 15.1122 24.9479 15.0039 24.7951 15.0453C20.7711 16.1214 18.2339 18.2671 17.5685 18.8847C17.4603 18.9834 17.4284 19.1393 17.4826 19.2762L20.0294 25.5351C20.058 25.6051 19.9657 25.656 19.918 25.5987L16.1582 20.7884L27.2464 34.9774C28.8987 34.9997 30.0034 34.9933 30.0034 34.9933H30.0002Z" fill="white"/>
<path opacity="0.75" d="M27.2424 34.9742L16.1541 20.7852C16.0554 20.6579 15.8612 20.6483 15.753 20.7693C11.5412 25.465 12.388 33.1883 12.388 33.1883C13.117 34.5954 22.4734 34.9074 27.2424 34.9742Z" fill="white"/>
<path opacity="0.75" d="M12.4818 33.9651C12.3704 33.911 12.2494 33.8823 12.1253 33.8855C11.011 33.9078 7.45183 34.1529 7.38498 36.3113C7.31176 38.5716 25.9991 39.1288 30.0071 39.0937C30.1409 39.0937 30.2937 39.0937 30.4592 39.0937L27.8583 35.767C16.267 35.6173 13.1313 34.2771 12.4786 33.9619L12.4818 33.9651Z" fill="white"/>
<path d="M52.6106 36.3113C52.5437 34.1561 48.9877 33.911 47.8703 33.8855C47.7462 33.8855 47.6284 33.911 47.5138 33.9651C46.8229 34.2994 43.3529 35.7829 29.9948 35.7829C29.2499 35.7829 28.5399 35.7765 27.8555 35.7701L30.4564 39.0969C35.2444 39.0906 52.6775 38.4984 52.6074 36.3113H52.6106Z" fill="white"/>
</g>
</g>
<defs>
<clipPath id="clip0_857_1716">
<rect width="250.532" height="60" fill="white"/>
</clipPath>
<clipPath id="clip1_857_1716">
<rect width="250.531" height="60" fill="white"/>
</clipPath>
</defs>
</svg>
