<svg width="189" height="45" viewBox="0 0 189 45" fill="none" xmlns="http://www.w3.org/2000/svg">
<g clip-path="url(#clip0_1809_3736)">
<mask id="mask0_1809_3736" style="mask-type:luminance" maskUnits="userSpaceOnUse" x="0" y="0" width="189" height="45">
<path d="M189 0H0V45H189V0Z" fill="white"/>
</mask>
<g mask="url(#mask0_1809_3736)">
<path d="M55.6272 11.1611C56.6097 9.38943 57.9852 8.00753 59.7538 7.03311C61.5223 6.04098 63.5052 5.54492 65.7382 5.54492C68.4713 5.54492 70.8118 6.25358 72.7587 7.68864C74.7056 9.12366 76.0096 11.0725 76.6708 13.5528H70.5076C70.0436 12.5961 69.4 11.8697 68.5607 11.3737C67.721 10.8776 66.7564 10.6296 65.6846 10.6296C63.9518 10.6296 62.5584 11.2319 61.4865 12.4189C60.4147 13.6059 59.8788 15.2004 59.8788 17.2024C59.8788 19.2044 60.4147 20.7989 61.4865 21.9859C62.5584 23.1729 63.9518 23.7753 65.6846 23.7753C66.7564 23.7753 67.721 23.5272 68.5607 23.0312C69.4 22.5351 70.0612 21.8087 70.5076 20.852H76.6708C76.0096 23.3323 74.7056 25.2811 72.7587 26.6984C70.8118 28.1158 68.4713 28.8245 65.7382 28.8245C63.5052 28.8245 61.5044 28.3284 59.7538 27.3362C57.9852 26.3442 56.6276 24.98 55.6272 23.226C54.6447 21.4721 54.1445 19.4701 54.1445 17.2024C54.1445 14.9347 54.6447 12.9327 55.6272 11.1611Z" fill="white"/>
<path d="M100.056 5.81055V28.6471H94.4466V19.2396H85.7113V28.6471H80.1016V5.81055H85.7113V14.7574H94.4466V5.81055H100.056Z" fill="white"/>
<path d="M118.42 24.6078H109.827L108.452 28.6471H102.574L110.917 5.81055H117.419L125.762 28.6471H119.831L118.456 24.6078H118.42ZM116.99 20.3204L114.132 11.9582L111.31 20.3204H116.99Z" fill="white"/>
<path d="M132.085 28.0632C130.745 27.514 129.691 26.7167 128.887 25.6538C128.084 24.5908 127.673 23.3152 127.619 21.8093H133.586C133.675 22.6597 133.96 23.2974 134.479 23.7403C134.979 24.1833 135.64 24.4136 136.444 24.4136C137.248 24.4136 137.927 24.2187 138.409 23.8466C138.891 23.4746 139.123 22.9431 139.123 22.2699C139.123 21.703 138.927 21.2424 138.552 20.8703C138.177 20.4982 137.694 20.1971 137.14 19.9667C136.587 19.7364 135.783 19.453 134.765 19.1518C133.282 18.6911 132.067 18.2482 131.12 17.7876C130.174 17.327 129.37 16.6538 128.691 15.7679C128.012 14.8821 127.673 13.7128 127.673 12.2778C127.673 10.1518 128.441 8.4864 129.995 7.28168C131.549 6.07697 133.568 5.47461 136.069 5.47461C138.57 5.47461 140.659 6.07697 142.214 7.28168C143.768 8.4864 144.59 10.1695 144.714 12.3132H138.641C138.606 11.5691 138.32 11.0022 137.819 10.577C137.319 10.1518 136.676 9.93916 135.89 9.93916C135.211 9.93916 134.658 10.1163 134.246 10.4707C133.836 10.825 133.621 11.3388 133.621 12.012C133.621 12.7561 133.979 13.323 134.675 13.7305C135.372 14.138 136.461 14.5809 137.962 15.0593C139.445 15.5553 140.659 16.0336 141.589 16.4943C142.518 16.9549 143.322 17.6105 144 18.4785C144.679 19.3466 145.019 20.4628 145.019 21.827C145.019 23.1911 144.679 24.3073 144.018 25.3703C143.357 26.4333 142.375 27.2836 141.107 27.9038C139.838 28.5416 138.337 28.8427 136.604 28.8427C134.872 28.8427 133.407 28.577 132.085 28.0278V28.0632Z" fill="white"/>
<path d="M169.064 28.6471H163.455L154.077 14.5625V28.6471H148.467V5.81055H154.077L163.455 19.966V5.81055H169.064V28.6471Z" fill="white"/>
<path d="M179.104 24.0941H189.018V28.6473H172.744V24.413L182.587 10.3461H172.744V5.79297H189.018V10.0272L179.104 24.0941Z" fill="white"/>
<path d="M56.2539 37.4524C56.6469 36.7792 57.1828 36.2477 57.8616 35.8579C58.5405 35.4859 59.3086 35.291 60.1482 35.291C61.1307 35.291 62.006 35.5391 62.7385 36.0351C63.4709 36.5312 64.0068 37.2221 64.2927 38.1257H62.2561C62.0597 37.7005 61.7738 37.3993 61.3987 37.1867C61.0236 36.9741 60.6126 36.8678 60.1303 36.8678C59.6123 36.8678 59.1657 36.9918 58.7548 37.2221C58.3619 37.4524 58.0403 37.7891 57.8259 38.232C57.6115 38.6749 57.4865 39.171 57.4865 39.7556C57.4865 40.3402 57.5937 40.8363 57.8259 41.2792C58.0403 41.7221 58.3619 42.0587 58.7548 42.2891C59.1479 42.5194 59.6123 42.6434 60.1303 42.6434C60.6126 42.6434 61.0414 42.5371 61.3987 42.3245C61.7738 42.1119 62.0597 41.793 62.2561 41.3855H64.2927C63.989 42.2713 63.4888 42.98 62.7385 43.476C61.9882 43.9721 61.1307 44.2202 60.1303 44.2202C59.2907 44.2202 58.5226 44.0253 57.8438 43.6532C57.1649 43.2812 56.629 42.7497 56.236 42.0587C55.843 41.3855 55.6465 40.606 55.6465 39.7556C55.6465 38.9052 55.843 38.1257 56.236 37.4348L56.2539 37.4524Z" fill="white"/>
<path d="M67.1136 43.8308C66.5777 43.5296 66.149 43.1221 65.8453 42.5729C65.5416 42.0237 65.3809 41.4036 65.3809 40.695C65.3809 39.9863 65.5416 39.3485 65.8632 38.817C66.1847 38.2678 66.6134 37.8603 67.1672 37.5592C67.721 37.2579 68.3284 37.1162 69.0072 37.1162C69.6859 37.1162 70.2936 37.2579 70.847 37.5592C71.4012 37.8603 71.83 38.2678 72.1511 38.817C72.4728 39.3662 72.6334 39.9863 72.6334 40.695C72.6334 41.4036 72.4728 42.0237 72.1511 42.5729C71.83 43.1221 71.3829 43.5296 70.8294 43.8308C70.2753 44.132 69.65 44.2737 68.9713 44.2737C68.2925 44.2737 67.6853 44.132 67.1494 43.8308H67.1136ZM69.8289 42.502C70.1147 42.3426 70.3295 42.1123 70.5076 41.8111C70.6689 41.51 70.7576 41.1201 70.7576 40.6773C70.7576 40.0217 70.5794 39.5079 70.2401 39.1536C69.8824 38.7993 69.4536 38.6221 68.9536 38.6221C68.4537 38.6221 68.0249 38.7993 67.6853 39.1536C67.3459 39.5079 67.1672 40.0217 67.1672 40.6773C67.1672 41.3328 67.328 41.8465 67.6674 42.2009C68.0066 42.5552 68.4178 42.7323 68.9177 42.7323C69.2395 42.7323 69.543 42.6615 69.8289 42.502Z" fill="white"/>
<path d="M79.798 37.8957C80.3162 38.4273 80.5662 39.1536 80.5662 40.0926V44.1674H78.7974V40.3229C78.7974 39.7737 78.6545 39.3485 78.3869 39.0473C78.101 38.7462 77.7257 38.6044 77.2434 38.6044C76.7611 38.6044 76.3682 38.7462 76.0823 39.0473C75.7964 39.3485 75.6535 39.7737 75.6535 40.3229V44.1674H73.8848V37.2225H75.6535V38.0906C75.8859 37.7895 76.1893 37.5592 76.5646 37.382C76.9399 37.2048 77.3328 37.1162 77.7792 37.1162C78.6192 37.1162 79.2797 37.382 79.798 37.8957Z" fill="white"/>
<path d="M83.3892 43.9549C82.9428 43.7423 82.5675 43.4765 82.2999 43.1223C82.0316 42.7679 81.8887 42.3781 81.8711 41.9529H83.6574C83.6933 42.2187 83.818 42.449 84.0503 42.6262C84.2827 42.8034 84.5686 42.8919 84.908 42.8919C85.2473 42.8919 85.5156 42.821 85.6938 42.697C85.8902 42.5553 85.9796 42.3959 85.9796 42.1832C85.9796 41.9529 85.8726 41.7935 85.6403 41.6695C85.4079 41.5632 85.0333 41.4391 84.5327 41.2974C84.0144 41.1734 83.5863 41.0494 83.2463 40.9076C82.9069 40.7659 82.6217 40.571 82.3893 40.2876C82.157 40.0041 82.0316 39.6321 82.0316 39.1715C82.0316 38.7817 82.1394 38.4273 82.371 38.1262C82.5858 37.8073 82.9069 37.5592 83.3357 37.3821C83.7469 37.2049 84.2468 37.0986 84.8185 37.0986C85.6579 37.0986 86.319 37.3112 86.8196 37.7187C87.3196 38.1262 87.5878 38.6931 87.6413 39.4018H85.9437C85.9261 39.1183 85.8008 38.9057 85.6043 38.7462C85.3903 38.5868 85.122 38.4982 84.7826 38.4982C84.4615 38.4982 84.2109 38.5513 84.0503 38.6754C83.8715 38.7994 83.7828 38.9588 83.7828 39.1715C83.7828 39.4018 83.9074 39.5789 84.1398 39.7029C84.3721 39.827 84.7474 39.951 85.2473 40.0749C85.7473 40.199 86.1761 40.323 86.4979 40.4648C86.8196 40.6065 87.1055 40.8013 87.3555 41.0848C87.6054 41.3683 87.7125 41.7403 87.7301 42.201C87.7301 42.6084 87.6231 42.9628 87.3907 43.2817C87.159 43.6006 86.8549 43.8486 86.4261 44.0257C85.9979 44.2029 85.5156 44.2915 84.9615 44.2915C84.408 44.2915 83.8715 44.1852 83.4251 43.9903L83.3892 43.9549Z" fill="white"/>
<path d="M91.194 38.6573V42.0234C91.194 42.2538 91.2475 42.4309 91.3728 42.5373C91.4982 42.6435 91.6763 42.6967 91.9446 42.6967H92.7663V44.1849H91.6587C90.1758 44.1849 89.4259 43.4585 89.4259 42.0234V38.675H88.5859V37.24H89.4259V35.5215H91.2123V37.24H92.7839V38.675H91.2123L91.194 38.6573Z" fill="white"/>
<path d="M96.715 37.4175C97.0903 37.2049 97.5008 37.0986 97.9655 37.0986V38.9411H97.5008C96.9474 38.9411 96.5186 39.0651 96.2327 39.3309C95.9468 39.5966 95.8039 40.0396 95.8039 40.6773V44.1321H94.0352V37.1872H95.8039V38.2679C96.0363 37.8959 96.3221 37.6124 96.6967 37.3998L96.715 37.4175Z" fill="white"/>
<path d="M105.773 37.2051V44.1499H103.987V43.2641C103.754 43.5653 103.469 43.7956 103.093 43.9727C102.718 44.1499 102.325 44.2385 101.896 44.2385C101.343 44.2385 100.861 44.1322 100.449 43.9019C100.039 43.6716 99.6994 43.335 99.4495 42.8921C99.1988 42.4491 99.0918 41.9177 99.0918 41.2976V37.2227H100.861V41.0496C100.861 41.5988 101.003 42.024 101.271 42.3251C101.557 42.6263 101.932 42.768 102.415 42.768C102.897 42.768 103.29 42.6263 103.558 42.3251C103.844 42.024 103.969 41.5988 103.969 41.0496V37.2227H105.755L105.773 37.2051Z" fill="white"/>
<path d="M107.505 38.7994C107.808 38.2679 108.201 37.8427 108.737 37.5415C109.255 37.2403 109.863 37.0986 110.542 37.0986C111.417 37.0986 112.132 37.3112 112.703 37.7364C113.275 38.1616 113.65 38.764 113.846 39.5435H111.935C111.828 39.2423 111.667 39.012 111.417 38.8348C111.185 38.6576 110.881 38.5691 110.524 38.5691C110.024 38.5691 109.612 38.7462 109.327 39.1183C109.023 39.4903 108.88 40.0041 108.88 40.6596C108.88 41.3151 109.023 41.8289 109.327 42.201C109.631 42.573 110.024 42.7502 110.524 42.7502C111.238 42.7502 111.703 42.4313 111.935 41.7935H113.846C113.65 42.5376 113.275 43.1399 112.703 43.5829C112.132 44.0257 111.417 44.256 110.559 44.256C109.881 44.256 109.291 44.1143 108.755 43.8132C108.237 43.512 107.826 43.1045 107.523 42.5553C107.219 42.0238 107.076 41.386 107.076 40.6596C107.076 39.9332 107.219 39.3132 107.523 38.764L107.505 38.7994Z" fill="white"/>
<path d="M117.186 38.6573V42.0234C117.186 42.2538 117.24 42.4309 117.365 42.5373C117.472 42.6435 117.669 42.6967 117.937 42.6967H118.758V44.1849H117.651C116.15 44.1849 115.418 43.4585 115.418 42.0234V38.675H114.578V37.24H115.418V35.5215H117.204V37.24H118.776V38.675H117.204L117.186 38.6573Z" fill="white"/>
<path d="M121.42 43.9368C120.92 43.7242 120.545 43.423 120.241 43.0332C119.955 42.6435 119.813 42.1829 119.795 41.6336H121.688C121.706 41.988 121.849 42.2714 122.081 42.484C122.314 42.6966 122.635 42.8029 123.028 42.8029C123.421 42.8029 123.761 42.6966 124.01 42.5018C124.243 42.3069 124.368 42.0411 124.368 41.7222C124.368 41.4565 124.296 41.2439 124.136 41.0844C123.975 40.925 123.778 40.7832 123.528 40.6947C123.296 40.6061 122.956 40.4998 122.528 40.3758C121.956 40.2163 121.492 40.0391 121.134 39.8797C120.777 39.7202 120.474 39.4722 120.205 39.1356C119.955 38.799 119.813 38.3561 119.813 37.8069C119.813 37.2931 119.938 36.8325 120.205 36.4604C120.474 36.0707 120.831 35.7872 121.313 35.5746C121.778 35.362 122.331 35.2734 122.939 35.2734C123.85 35.2734 124.582 35.486 125.154 35.9289C125.726 36.3718 126.029 36.9742 126.1 37.7714H124.153C124.153 37.4702 124.011 37.2222 123.761 37.0274C123.528 36.8325 123.206 36.7261 122.813 36.7261C122.474 36.7261 122.188 36.8147 121.992 36.9919C121.795 37.1691 121.688 37.4171 121.688 37.7537C121.688 37.984 121.759 38.1789 121.921 38.3383C122.081 38.4978 122.278 38.6218 122.51 38.7104C122.742 38.799 123.063 38.923 123.492 39.0471C124.064 39.2065 124.529 39.3836 124.904 39.5431C125.261 39.7025 125.583 39.9683 125.833 40.2872C126.1 40.6238 126.226 41.0667 126.226 41.5982C126.226 42.0588 126.1 42.5018 125.85 42.9093C125.6 43.3167 125.243 43.6356 124.779 43.866C124.314 44.0963 123.742 44.2202 123.099 44.2202C122.456 44.2202 121.938 44.114 121.438 43.9013L121.42 43.9368Z" fill="white"/>
<path d="M127.71 38.7819C127.996 38.2326 128.371 37.8252 128.853 37.5239C129.335 37.2228 129.872 37.0811 130.479 37.0811C130.997 37.0811 131.462 37.1874 131.855 37.4C132.247 37.6125 132.569 37.8783 132.801 38.1972V37.205H134.587V44.15H132.801V43.1401C132.569 43.459 132.265 43.7425 131.855 43.955C131.462 44.1677 130.997 44.2739 130.461 44.2739C129.872 44.2739 129.335 44.1322 128.853 43.8311C128.371 43.5299 127.978 43.1047 127.71 42.5555C127.442 42.0063 127.281 41.3861 127.281 40.6598C127.281 39.9334 127.424 39.3311 127.71 38.7819ZM132.551 39.5791C132.39 39.2779 132.158 39.0476 131.872 38.8704C131.586 38.711 131.283 38.6224 130.943 38.6224C130.604 38.6224 130.318 38.6933 130.032 38.8527C129.746 39.0122 129.532 39.2425 129.353 39.5436C129.175 39.8448 129.104 40.2169 129.104 40.6244C129.104 41.0319 129.193 41.4039 129.353 41.7228C129.532 42.0417 129.746 42.272 130.032 42.4492C130.318 42.6263 130.622 42.6972 130.943 42.6972C131.265 42.6972 131.586 42.6086 131.872 42.4492C132.158 42.2897 132.39 42.0594 132.551 41.7405C132.712 41.4393 132.801 41.0673 132.801 40.6421C132.801 40.2169 132.712 39.8448 132.551 39.5436V39.5791Z" fill="white"/>
<path d="M139.534 38.6573H138.301V44.1672H136.497V38.6573H135.693V37.2223H136.497V36.8679C136.497 36.0176 136.747 35.3798 137.23 34.99C137.712 34.5825 138.463 34.4054 139.445 34.4231V35.9112C139.016 35.9112 138.713 35.9821 138.552 36.1239C138.391 36.2656 138.301 36.549 138.301 36.9389V37.2223H139.534V38.6573Z" fill="white"/>
<path d="M147.144 41.2088H142.017C142.053 41.7049 142.232 42.0946 142.553 42.3959C142.857 42.6793 143.25 42.821 143.696 42.821C144.357 42.821 144.822 42.5376 145.107 41.9884H147.019C146.822 42.6616 146.43 43.2108 145.858 43.636C145.286 44.0612 144.59 44.2738 143.75 44.2738C143.071 44.2738 142.464 44.1321 141.927 43.8309C141.392 43.5297 140.981 43.1223 140.678 42.573C140.373 42.0238 140.23 41.4037 140.23 40.6951C140.23 39.9864 140.373 39.3486 140.678 38.7994C140.981 38.2502 141.392 37.8427 141.91 37.5415C142.446 37.2403 143.053 37.0986 143.75 37.0986C144.447 37.0986 145.018 37.2403 145.536 37.5238C146.054 37.8073 146.465 38.2148 146.769 38.7285C147.055 39.2423 147.198 39.8446 147.198 40.5356C147.198 40.7837 147.198 41.014 147.144 41.2088ZM145.358 40.0396C145.358 39.5966 145.179 39.2246 144.857 38.9588C144.536 38.6931 144.143 38.5513 143.679 38.5513C143.232 38.5513 142.874 38.6754 142.571 38.9411C142.267 39.2068 142.089 39.5612 142.017 40.0396H145.34H145.358Z" fill="white"/>
<path d="M22.6871 45C35.2169 45 45.3743 34.9264 45.3743 22.5C45.3743 10.0736 35.2169 0 22.6871 0C10.1574 0 0 10.0736 0 22.5C0 34.9264 10.1574 45 22.6871 45Z" fill="white"/>
<path d="M22.6876 26.2382C22.6876 26.2382 35.2637 26.309 35.9962 24.8917C35.9962 24.8917 36.6392 19.0984 33.4595 15.5728C33.3702 15.4843 33.2273 15.4843 33.1558 15.5728L30.3155 19.187C30.3155 19.187 30.2083 19.187 30.2261 19.1339L32.1554 14.439C32.1912 14.3327 32.1554 14.2264 32.084 14.1378C31.5838 13.6772 29.6545 12.065 26.6176 11.2678C26.4926 11.2323 26.3854 11.3209 26.3675 11.4449L25.26 22.0394C25.26 22.0394 25.2064 22.0748 25.2064 22.0394V10.9665C25.2064 10.9665 25.2064 9.49609 23.7415 9.49609H21.5979C20.133 9.49609 20.133 10.9665 20.133 10.9665V22.0394C20.133 22.0394 20.0795 22.0748 20.0795 22.0394L18.9719 11.4449C18.9719 11.3209 18.8468 11.25 18.7218 11.2678C15.6849 12.0827 13.7556 13.6772 13.2554 14.1378C13.1661 14.2087 13.1482 14.3327 13.184 14.439L15.1133 19.1339C15.1133 19.1339 15.0597 19.2225 15.0239 19.187L12.1836 15.5728L20.5618 26.2205C21.8122 26.2205 22.6518 26.2205 22.6518 26.2205L22.6876 26.2382Z" fill="#56D54F"/>
<path opacity="0.75" d="M20.5961 26.2208L12.2179 15.5732C12.1464 15.4847 12.0036 15.4669 11.9142 15.5732C8.73448 19.0988 9.37756 24.8921 9.37756 24.8921C9.93135 25.9551 17.0054 26.1855 20.6139 26.2386L20.5961 26.2208Z" fill="#56D54F"/>
<path opacity="0.75" d="M9.43299 25.476C9.43299 25.476 9.25436 25.4229 9.165 25.4229C8.32541 25.4406 5.62796 25.6178 5.57437 27.2477C5.52078 28.9485 19.6511 29.3559 22.6701 29.3383C22.7773 29.3383 22.8845 29.3383 23.0096 29.3383L21.0445 26.8402C12.2733 26.7339 9.91531 25.7241 9.41511 25.4938L9.43299 25.476Z" fill="#56D54F"/>
<path d="M39.7836 27.2301C39.73 25.6178 37.0504 25.4229 36.1929 25.4053C36.1036 25.4053 36.0143 25.4229 35.925 25.4584C35.4069 25.7064 32.7809 26.8226 22.6878 26.8226C22.1162 26.8226 21.5803 26.8226 21.0801 26.8226L23.0451 29.3206C26.6715 29.3206 39.8371 28.8777 39.8014 27.2301H39.7836Z" fill="#56D54F"/>
</g>
</g>
<defs>
<clipPath id="clip0_1809_3736">
<rect width="189" height="45" fill="white"/>
</clipPath>
</defs>
</svg>
