<svg width="200" height="48" viewBox="0 0 200 48" fill="none" xmlns="http://www.w3.org/2000/svg">
<mask id="mask0_1815_2025" style="mask-type:luminance" maskUnits="userSpaceOnUse" x="0" y="0" width="200" height="48">
<path d="M199.881 0H0V48H199.881V0Z" fill="white"/>
</mask>
<g mask="url(#mask0_1815_2025)">
<path d="M58.8317 11.9056C59.8708 10.0159 61.3255 8.54182 63.1958 7.50244C65.0662 6.44417 67.1632 5.91504 69.5247 5.91504C72.4152 5.91504 74.8904 6.67095 76.9494 8.20167C79.0084 9.73236 80.3875 11.8111 81.0867 14.4568H74.5687C74.078 13.4363 73.3974 12.6615 72.5098 12.1324C71.6218 11.6032 70.6016 11.3386 69.4681 11.3386C67.6355 11.3386 66.1619 11.9812 65.0283 13.2473C63.8948 14.5135 63.3281 16.2142 63.3281 18.3497C63.3281 20.4852 63.8948 22.1859 65.0283 23.4521C66.1619 24.7182 67.6355 25.3607 69.4681 25.3607C70.6016 25.3607 71.6218 25.0962 72.5098 24.567C73.3974 24.0379 74.0966 23.2631 74.5687 22.2426H81.0867C80.3875 24.8883 79.0084 26.967 76.9494 28.4788C74.8904 29.9907 72.4152 30.7466 69.5247 30.7466C67.1632 30.7466 65.0473 30.2174 63.1958 29.1591C61.3255 28.1009 59.8897 26.6458 58.8317 24.7748C57.7926 22.904 57.2637 20.7686 57.2637 18.3497C57.2637 15.9308 57.7926 13.7954 58.8317 11.9056Z" fill="white"/>
<path d="M105.816 6.19922V30.5582H99.8838V20.5236H90.6455V30.5582H84.7129V6.19922H90.6455V15.7425H99.8838V6.19922H105.816Z" fill="white"/>
<path d="M125.238 26.2496H116.151L114.696 30.5582H108.48L117.303 6.19922H124.18L133.003 30.5582H126.73L125.276 26.2496H125.238ZM123.727 21.6764L120.704 12.7567L117.719 21.6764H123.727Z" fill="white"/>
<path d="M139.686 29.9334C138.269 29.3476 137.154 28.4971 136.304 27.3633C135.454 26.2294 135.019 24.8688 134.963 23.2625H141.273C141.367 24.1696 141.669 24.8499 142.217 25.3223C142.747 25.7948 143.445 26.0404 144.296 26.0404C145.146 26.0404 145.864 25.8326 146.374 25.4357C146.884 25.0389 147.129 24.4719 147.129 23.7538C147.129 23.1491 146.921 22.6578 146.525 22.2609C146.128 21.8641 145.618 21.5428 145.032 21.2971C144.447 21.0514 143.596 20.7491 142.52 20.4279C140.951 19.9365 139.667 19.4641 138.665 18.9728C137.665 18.4814 136.814 17.7633 136.096 16.8184C135.378 15.8735 135.019 14.6262 135.019 13.0956C135.019 10.8279 135.832 9.05144 137.475 7.7664C139.119 6.48139 141.254 5.83887 143.899 5.83887C146.544 5.83887 148.754 6.48139 150.398 7.7664C152.042 9.05144 152.911 10.8467 153.042 13.1334H146.619C146.582 12.3397 146.279 11.7349 145.75 11.2814C145.221 10.8279 144.541 10.6011 143.71 10.6011C142.992 10.6011 142.406 10.79 141.972 11.168C141.537 11.5459 141.31 12.094 141.31 12.8121C141.31 13.6058 141.689 14.2105 142.425 14.6452C143.162 15.0798 144.314 15.5522 145.901 16.0625C147.469 16.5916 148.754 17.1018 149.737 17.5932C150.719 18.0845 151.569 18.7838 152.287 19.7097C153.005 20.6357 153.364 21.8263 153.364 23.2814C153.364 24.7365 153.005 25.927 152.306 27.0609C151.607 28.1948 150.568 29.1018 149.227 29.7633C147.885 30.4436 146.298 30.7649 144.465 30.7649C142.633 30.7649 141.084 30.4814 139.686 29.8956V29.9334Z" fill="white"/>
<path d="M178.796 30.5582H172.864L162.946 15.5347V30.5582H157.014V6.19922H162.946L172.864 21.2984V6.19922H178.796V30.5582Z" fill="white"/>
<path d="M189.419 25.7009H199.904V30.5576H182.693V26.0411L193.103 11.0364H182.693V6.17969H199.904V10.6962L189.419 25.7009Z" fill="white"/>
<path d="M61.2102 45.6189H64.2896V47.1118H59.3398V37.7764H61.2102V45.6378V45.6189Z" fill="white"/>
<path d="M67.3489 39.2687V41.612H70.485V43.1049H67.3489V45.5805H70.9007V47.1112H65.4785V37.7568H70.9007V39.2875H67.3489V39.2687Z" fill="white"/>
<path d="M78.3083 45.3172H74.5865L73.9632 47.0935H71.998L75.3609 37.7393H77.5338L80.8967 47.0935H78.9129L78.2889 45.3172H78.3083ZM77.7982 43.8243L76.4563 39.9124L75.0966 43.8243H77.7982Z" fill="white"/>
<path d="M88.0208 38.3433C88.758 38.7213 89.3433 39.2693 89.7402 39.9874C90.1371 40.7055 90.3448 41.5181 90.3448 42.463C90.3448 43.4078 90.1371 44.2205 89.7402 44.9197C89.3433 45.6189 88.758 46.1669 88.0208 46.5449C87.2843 46.9228 86.4153 47.1118 85.4324 47.1118H82.1641V37.7764H85.4324C86.4153 37.7764 87.2843 37.9654 88.0208 38.3433ZM87.6432 44.7118C88.1719 44.1826 88.4363 43.4268 88.4363 42.444C88.4363 41.4614 88.1719 40.7055 87.6432 40.1575C87.1138 39.6095 86.3587 39.326 85.3758 39.326H84.0533V45.4866H85.3758C86.3587 45.4866 87.1138 45.222 87.6432 44.6929V44.7118Z" fill="white"/>
<path d="M96.8592 46.5824C96.122 46.1667 95.5553 45.5998 95.1211 44.8817C94.6863 44.1635 94.4785 43.3321 94.4785 42.4061C94.4785 41.4801 94.6863 40.6864 95.1211 39.9493C95.5553 39.2124 96.122 38.6455 96.8592 38.2486C97.5956 37.8328 98.3894 37.625 99.2585 37.625C100.127 37.625 100.94 37.8328 101.676 38.2486C102.394 38.6643 102.98 39.2313 103.396 39.9493C103.811 40.6675 104.038 41.499 104.038 42.4061C104.038 43.3131 103.83 44.1446 103.396 44.8817C102.961 45.6186 102.394 46.1856 101.658 46.5824C100.921 46.9982 100.127 47.2061 99.2585 47.2061C98.3894 47.2061 97.577 46.9982 96.8592 46.5824ZM100.751 45.1462C101.185 44.9006 101.507 44.5226 101.752 44.0502C101.997 43.5777 102.111 43.0297 102.111 42.4061C102.111 41.7824 101.997 41.2344 101.752 40.762C101.507 40.2895 101.185 39.9305 100.751 39.6848C100.316 39.4391 99.8251 39.3069 99.2585 39.3069C98.6918 39.3069 98.2003 39.4391 97.7654 39.6848C97.3313 39.9305 96.991 40.2895 96.7646 40.762C96.5189 41.2344 96.4057 41.7824 96.4057 42.4061C96.4057 43.0297 96.5189 43.5777 96.7646 44.0502C97.0103 44.5226 97.3499 44.8817 97.7654 45.1462C98.2003 45.3919 98.6918 45.5242 99.2585 45.5242C99.8251 45.5242 100.316 45.3919 100.751 45.1462Z" fill="white"/>
<path d="M113.426 47.0935H111.556L107.324 40.6872V47.0935H105.453V37.7393H107.324L111.556 44.1645V37.7393H113.426V47.0935Z" fill="white"/>
<path d="M23.9932 48C37.2444 48 47.9865 37.2548 47.9865 24C47.9865 10.7452 37.2444 0 23.9932 0C10.7421 0 0 10.7452 0 24C0 37.2548 10.7421 48 23.9932 48Z" fill="white"/>
<path d="M23.9935 27.9871C23.9935 27.9871 37.2936 28.0627 38.0682 26.5509C38.0682 26.5509 38.7483 20.3714 35.3855 16.6108C35.291 16.5163 35.1399 16.5163 35.0643 16.6108L32.0605 20.4659C32.0605 20.4659 31.9471 20.4659 31.966 20.4092L34.0063 15.4013C34.0442 15.288 34.0063 15.1746 33.9308 15.0801C33.4018 14.5888 31.3615 12.8691 28.1498 12.0187C28.0175 11.9808 27.9042 12.0753 27.8853 12.2076L26.7139 23.5084C26.7139 23.5084 26.6573 23.5462 26.6573 23.5084V11.6974C26.6573 11.6974 26.6573 10.1289 25.1081 10.1289H22.841C21.2919 10.1289 21.2919 11.6974 21.2919 11.6974V23.5084C21.2919 23.5084 21.2352 23.5462 21.2352 23.5084L20.0638 12.2076C20.0638 12.0753 19.9316 11.9998 19.7993 12.0187C16.5876 12.888 14.5473 14.5888 14.0183 15.0801C13.9239 15.1557 13.9049 15.288 13.9428 15.4013L15.9831 20.4092C15.9831 20.4092 15.9265 20.5037 15.8886 20.4659L12.8848 16.6108L21.7453 27.9683C23.0677 27.9683 23.9556 27.9683 23.9556 27.9683L23.9935 27.9871Z" fill="#E47C25"/>
<path opacity="0.75" d="M21.786 27.9688L12.9255 16.6113C12.8499 16.5168 12.6988 16.4979 12.6043 16.6113C9.24155 20.3719 9.92164 26.5515 9.92164 26.5515C10.5073 27.6854 17.9887 27.931 21.8049 27.9877L21.786 27.9688Z" fill="#E47C25"/>
<path opacity="0.75" d="M9.97545 27.1759C9.97545 27.1759 9.78653 27.1191 9.69204 27.1191C8.80411 27.1381 5.95137 27.327 5.89469 29.0656C5.83802 30.8798 20.7818 31.3144 23.9746 31.2956C24.088 31.2956 24.2014 31.2956 24.3336 31.2956L22.2554 28.631C12.9793 28.5176 10.4855 27.4405 9.95654 27.1948L9.97545 27.1759Z" fill="#EB9D5C"/>
<path d="M42.0712 29.047C42.0146 27.3273 39.1807 27.1194 38.2739 27.1006C38.1794 27.1006 38.085 27.1194 37.9905 27.1573C37.4426 27.4218 34.6655 28.6124 23.9913 28.6124C23.3868 28.6124 22.82 28.6124 22.291 28.6124L24.3691 31.2769C28.2043 31.2769 42.1279 30.8045 42.0902 29.047H42.0712Z" fill="#E47C25"/>
</g>
</svg>
