<svg width="189" height="45" viewBox="0 0 189 45" fill="none" xmlns="http://www.w3.org/2000/svg">
<g clip-path="url(#clip0_1815_2088)">
<path d="M55.6272 11.1616C56.6097 9.3899 57.9853 8.00801 59.7538 7.0336C61.5223 6.04147 63.5052 5.54541 65.7382 5.54541C68.4714 5.54541 70.8115 6.25407 72.7587 7.68911C74.7059 9.12415 76.0099 11.073 76.6709 13.5533H70.5079C70.0434 12.5966 69.4003 11.8702 68.5607 11.3742C67.7211 10.8781 66.7564 10.6301 65.6846 10.6301C63.9518 10.6301 62.5584 11.2324 61.4866 12.4194C60.4148 13.6064 59.8788 15.2009 59.8788 17.2029C59.8788 19.2049 60.4148 20.7993 61.4866 21.9864C62.5584 23.1734 63.9518 23.7757 65.6846 23.7757C66.7564 23.7757 67.7211 23.5277 68.5607 23.0316C69.4003 22.5356 70.0613 21.8092 70.5079 20.8525H76.6709C76.0099 23.3328 74.7059 25.2816 72.7587 26.699C70.8115 28.1163 68.4714 28.8249 65.7382 28.8249C63.5052 28.8249 61.5045 28.3289 59.7538 27.3368C57.9853 26.3446 56.6276 24.9804 55.6272 23.2265C54.6447 21.4726 54.1445 19.4706 54.1445 17.2029C54.1445 14.9352 54.6447 12.9332 55.6272 11.1616Z" fill="white"/>
<path d="M100.056 5.81104V28.6476H94.4463V19.2402H85.7108V28.6476H80.1016V5.81104H85.7108V14.7579H94.4463V5.81104H100.056Z" fill="white"/>
<path d="M118.419 24.6083H109.827L108.451 28.6476H102.574L110.917 5.81104H117.419L125.762 28.6476H119.831L118.455 24.6083H118.419ZM116.99 20.3209L114.132 11.9587L111.31 20.3209H116.99Z" fill="white"/>
<path d="M132.068 28.0632C130.728 27.514 129.674 26.7167 128.87 25.6537C128.066 24.5908 127.655 23.3152 127.602 21.8093H133.568C133.657 22.6597 133.943 23.2974 134.461 23.7404C134.961 24.1833 135.622 24.4136 136.426 24.4136C137.23 24.4136 137.909 24.2187 138.391 23.8467C138.874 23.4746 139.106 22.9431 139.106 22.2699C139.106 21.703 138.909 21.2423 138.534 20.8703C138.159 20.4982 137.677 20.1971 137.123 19.9667C136.569 19.7364 135.765 19.453 134.747 19.1518C133.264 18.6911 132.05 18.2482 131.103 17.7876C130.156 17.327 129.352 16.6537 128.673 15.7679C127.995 14.8821 127.655 13.7128 127.655 12.2778C127.655 10.1518 128.423 8.48642 129.977 7.2817C131.532 6.07697 133.55 5.47461 136.051 5.47461C138.552 5.47461 140.642 6.07697 142.196 7.2817C143.751 8.48642 144.572 10.1695 144.697 12.3132H138.624C138.588 11.5691 138.302 11.0022 137.802 10.577C137.302 10.1518 136.659 9.93918 135.873 9.93918C135.194 9.93918 134.64 10.1163 134.229 10.4707C133.818 10.825 133.604 11.3388 133.604 12.012C133.604 12.7561 133.961 13.323 134.658 13.7305C135.354 14.138 136.444 14.5809 137.945 15.0593C139.427 15.5553 140.642 16.0337 141.571 16.4943C142.5 16.9549 143.304 17.6104 143.983 18.4785C144.662 19.3467 145.001 20.4628 145.001 21.827C145.001 23.1911 144.662 24.3073 144.001 25.3703C143.34 26.4333 142.357 27.2837 141.089 27.9037C139.82 28.5415 138.32 28.8427 136.587 28.8427C134.854 28.8427 133.389 28.577 132.068 28.0278V28.0632Z" fill="white"/>
<path d="M169.064 28.6476H163.455L154.076 14.563V28.6476H148.467V5.81104H154.076L163.455 19.9665V5.81104H169.064V28.6476Z" fill="white"/>
<path d="M179.102 24.0946H189.016V28.6478H172.742V24.4135L182.585 10.3466H172.742V5.79346H189.016V10.0277L179.102 24.0946Z" fill="white"/>
<path d="M62.1115 35.3979V36.8153H59.7535V44.1499H57.985V36.8153H55.627V35.3979H62.0937H62.1115Z" fill="white"/>
<path d="M65.2196 43.6714C64.5229 43.2817 63.987 42.7502 63.5761 42.0769C63.1653 41.4037 62.9688 40.6242 62.9688 39.7561C62.9688 38.888 63.1653 38.1439 63.5761 37.4529C63.987 36.762 64.5229 36.2305 65.2196 35.8584C65.9163 35.4687 66.6666 35.2738 67.4883 35.2738C68.3101 35.2738 69.0782 35.4687 69.7749 35.8584C70.4537 36.2482 71.0075 36.7797 71.4005 37.4529C71.7935 38.1262 72.0079 38.9057 72.0079 39.7561C72.0079 40.6065 71.8114 41.386 71.4005 42.0769C70.9896 42.7679 70.4537 43.2994 69.757 43.6714C69.0603 44.0612 68.3101 44.2561 67.4883 44.2561C66.6666 44.2561 65.8984 44.0612 65.2196 43.6714ZM68.8996 42.325C69.3104 42.0947 69.6141 41.7403 69.8463 41.2974C70.0786 40.8545 70.1858 40.3407 70.1858 39.7561C70.1858 39.1714 70.0786 38.6577 69.8463 38.2147C69.6141 37.7718 69.3104 37.4352 68.8996 37.2049C68.4887 36.9746 68.0242 36.8506 67.4883 36.8506C66.9524 36.8506 66.4879 36.9746 66.0771 37.2049C65.6662 37.4352 65.3446 37.7718 65.1303 38.2147C64.898 38.6577 64.7909 39.1714 64.7909 39.7561C64.7909 40.3407 64.898 40.8545 65.1303 41.2974C65.3625 41.7403 65.6841 42.0769 66.0771 42.325C66.4879 42.5553 66.9524 42.6793 67.4883 42.6793C68.0242 42.6793 68.4887 42.5553 68.8996 42.325ZM69.9178 33.1655V34.4234H65.0946V33.1655H69.9178Z" fill="white"/>
<path d="M79.3323 35.3979V36.8153H76.9742V44.1499H75.2057V36.8153H72.8477V35.3979H79.3144H79.3323Z" fill="white"/>
<path d="M82.4052 35.3979V44.1499H80.6367V35.3979H82.4052Z" fill="white"/>
<path d="M89.1227 44.1499L85.9072 40.2523V44.1499H84.1387V35.3979H85.9072V39.331L89.1227 35.3979H91.2664L87.6221 39.7385L91.3736 44.1499H89.1406H89.1227Z" fill="white"/>
<path d="M97.947 42.4842H94.4278L93.8383 44.1496H91.9805L95.1602 35.3799H97.2146L100.394 44.1496H98.5187L97.9291 42.4842H97.947ZM97.4647 41.0846L96.1963 37.4173L94.9101 41.0846H97.4647Z" fill="white"/>
<path d="M22.6871 45C35.2169 45 45.3743 34.9264 45.3743 22.5C45.3743 10.0736 35.2169 0 22.6871 0C10.1574 0 0 10.0736 0 22.5C0 34.9264 10.1574 45 22.6871 45Z" fill="white"/>
<path d="M22.6876 26.2382C22.6876 26.2382 35.2637 26.3091 35.9962 24.8918C35.9962 24.8918 36.6393 19.0985 33.4595 15.5729C33.3702 15.4843 33.2273 15.4843 33.1558 15.5729L30.3154 19.187C30.3154 19.187 30.2083 19.187 30.2261 19.1339L32.1554 14.439C32.1912 14.3327 32.1554 14.2264 32.084 14.1378C31.5838 13.6772 29.6545 12.065 26.6176 11.2677C26.4926 11.2323 26.3854 11.3209 26.3675 11.4449L25.26 22.0394C25.26 22.0394 25.2064 22.0748 25.2064 22.0394V10.9666C25.2064 10.9666 25.2064 9.49609 23.7415 9.49609H21.5979C20.133 9.49609 20.133 10.9666 20.133 10.9666V22.0394C20.133 22.0394 20.0794 22.0748 20.0794 22.0394L18.9719 11.4449C18.9719 11.3209 18.8468 11.25 18.7218 11.2677C15.6849 12.0827 13.7556 13.6772 13.2554 14.1378C13.1661 14.2087 13.1482 14.3327 13.184 14.439L15.1133 19.1339C15.1133 19.1339 15.0597 19.2225 15.024 19.187L12.1836 15.5729L20.5618 26.2205C21.8122 26.2205 22.6518 26.2205 22.6518 26.2205L22.6876 26.2382Z" fill="#66B3C6"/>
<path opacity="0.75" d="M20.598 26.2204L12.2199 15.5727C12.1484 15.4842 12.0055 15.4664 11.9162 15.5727C8.73641 19.0983 9.37951 24.8916 9.37951 24.8916C9.93329 25.9546 17.0074 26.1849 20.6159 26.2381L20.598 26.2204Z" fill="#66B3C6"/>
<path opacity="0.75" d="M9.43297 25.476C9.43297 25.476 9.25433 25.4229 9.16501 25.4229C8.32541 25.4406 5.62796 25.6177 5.57437 27.2477C5.52078 28.9484 19.6511 29.3559 22.6701 29.3382C22.7773 29.3382 22.8845 29.3382 23.0095 29.3382L21.0445 26.8402C12.2733 26.7339 9.9153 25.724 9.41511 25.4937L9.43297 25.476Z" fill="#66B3C6"/>
<path d="M39.7836 27.2301C39.73 25.6179 37.0504 25.423 36.1929 25.4053C36.1036 25.4053 36.0143 25.423 35.925 25.4584C35.4069 25.7065 32.7809 26.8226 22.6878 26.8226C22.1162 26.8226 21.5803 26.8226 21.0801 26.8226L23.0451 29.3206C26.6715 29.3206 39.8372 28.8777 39.8014 27.2301H39.7836Z" fill="#66B3C6"/>
</g>
<defs>
<clipPath id="clip0_1815_2088">
<rect width="189" height="45" fill="white"/>
</clipPath>
</defs>
</svg>
