<svg width="225" height="48" viewBox="0 0 225 48" fill="none" xmlns="http://www.w3.org/2000/svg">
<g clip-path="url(#clip0_1815_2147)">
<path d="M58.6371 11.9056C59.6728 10.0158 61.1227 8.54181 62.9869 7.50244C64.851 6.44417 66.9412 5.91504 69.2949 5.91504C72.1759 5.91504 74.6426 6.67094 76.6951 8.20165C78.7476 9.73236 80.1222 11.8111 80.8189 14.4568H74.3225C73.8329 13.4363 73.1551 12.6615 72.2701 12.1324C71.385 11.6032 70.3682 11.3387 69.2384 11.3387C67.4119 11.3387 65.9432 11.9812 64.8134 13.2473C63.6836 14.5135 63.1187 16.2143 63.1187 18.3497C63.1187 20.4851 63.6836 22.1859 64.8134 23.452C65.9432 24.7182 67.4119 25.3607 69.2384 25.3607C70.3682 25.3607 71.385 25.0961 72.2701 24.567C73.1551 24.0379 73.8518 23.2631 74.3225 22.2426H80.8189C80.1222 24.8883 78.7476 26.967 76.6951 28.4788C74.6426 29.9906 72.1759 30.7465 69.2949 30.7465C66.9412 30.7465 64.8322 30.2174 62.9869 29.1591C61.1227 28.1009 59.6916 26.6457 58.6371 24.7749C57.6015 22.904 57.0742 20.7686 57.0742 18.3497C57.0742 15.9308 57.6015 13.7954 58.6371 11.9056Z" fill="white"/>
<path d="M105.467 6.19824V30.5573H99.5541V20.5227H90.3462V30.5573H84.4336V6.19824H90.3462V15.7415H99.5541V6.19824H105.467Z" fill="white"/>
<path d="M124.825 26.2486H115.768L114.318 30.5573H108.123L116.917 6.19824H123.771L132.564 30.5573H126.313L124.863 26.2486H124.825ZM123.319 21.6754L120.306 12.7557L117.331 21.6754H123.319Z" fill="white"/>
<path d="M139.229 29.9338C137.817 29.348 136.706 28.4976 135.858 27.3638C135.011 26.2299 134.578 24.8693 134.521 23.263H140.811C140.905 24.1701 141.206 24.8504 141.752 25.3228C142.279 25.7953 142.976 26.0409 143.824 26.0409C144.671 26.0409 145.386 25.8331 145.895 25.4362C146.403 25.0394 146.648 24.4724 146.648 23.7543C146.648 23.1496 146.441 22.6583 146.045 22.2614C145.65 21.8646 145.142 21.5433 144.558 21.2976C143.974 21.052 143.127 20.7496 142.053 20.4283C140.491 19.937 139.21 19.4646 138.212 18.9732C137.214 18.4819 136.367 17.7638 135.651 16.8189C134.936 15.874 134.578 14.6268 134.578 13.096C134.578 10.8283 135.388 9.05195 137.026 7.76692C138.664 6.48188 140.792 5.83936 143.428 5.83936C146.064 5.83936 148.267 6.48188 149.906 7.76692C151.544 9.05195 152.41 10.8472 152.542 13.1338H146.14C146.102 12.3401 145.801 11.7354 145.273 11.2819C144.746 10.8283 144.068 10.6016 143.24 10.6016C142.524 10.6016 141.941 10.7905 141.507 11.1685C141.074 11.5464 140.848 12.0945 140.848 12.8126C140.848 13.6063 141.225 14.211 141.959 14.6457C142.694 15.0803 143.842 15.5527 145.424 16.063C146.987 16.5921 148.267 17.1023 149.247 17.5937C150.226 18.085 151.073 18.7842 151.789 19.7102C152.504 20.6362 152.862 21.8268 152.862 23.2819C152.862 24.737 152.504 25.9275 151.807 27.0614C151.111 28.1953 150.075 29.1023 148.738 29.7638C147.401 30.4441 145.819 30.7653 143.993 30.7653C142.166 30.7653 140.622 30.4819 139.229 29.896V29.9338Z" fill="white"/>
<path d="M178.207 30.5573H172.294L162.409 15.5337V30.5573H156.496V6.19824H162.409L172.294 21.2975V6.19824H178.207V30.5573Z" fill="white"/>
<path d="M188.789 25.7009H199.24V30.5576H182.086V26.0411L192.461 11.0364H182.086V6.17969H199.24V10.6962L188.789 25.7009Z" fill="white"/>
<path d="M23.9141 48C37.1215 48 47.8283 37.2548 47.8283 24C47.8283 10.7452 37.1215 0 23.9141 0C10.7067 0 0 10.7452 0 24C0 37.2548 10.7067 48 23.9141 48Z" fill="white"/>
<path d="M23.9139 27.9872C23.9139 27.9872 37.1702 28.0628 37.9422 26.551C37.9422 26.551 38.6201 20.3714 35.2684 16.6108C35.1742 16.5163 35.0236 16.5163 34.9482 16.6108L31.9543 20.4659C31.9543 20.4659 31.8413 20.4659 31.8601 20.4092L33.8938 15.4013C33.9314 15.288 33.8938 15.1746 33.8184 15.0801C33.2912 14.5887 31.2576 12.8691 28.0565 12.0187C27.9246 11.9809 27.8117 12.0754 27.7928 12.2076L26.6254 23.5084C26.6254 23.5084 26.5689 23.5462 26.5689 23.5084V11.6974C26.5689 11.6974 26.5689 10.1289 25.0248 10.1289H22.7652C21.2212 10.1289 21.2212 11.6974 21.2212 11.6974V23.5084C21.2212 23.5084 21.1647 23.5462 21.1647 23.5084L19.9972 12.2076C19.9972 12.0754 19.8654 11.9998 19.7336 12.0187C16.5325 12.888 14.4988 14.5887 13.9716 15.0801C13.8774 15.1557 13.8586 15.288 13.8963 15.4013L15.9299 20.4092C15.9299 20.4092 15.8734 20.5037 15.8358 20.4659L12.8418 16.6108L21.6731 27.9683C22.9912 27.9683 23.8762 27.9683 23.8762 27.9683L23.9139 27.9872Z" fill="#618182"/>
<path opacity="0.75" d="M21.7116 27.9683L12.8803 16.6108C12.805 16.5163 12.6543 16.4974 12.5602 16.6108C9.20842 20.3715 9.8863 26.551 9.8863 26.551C10.47 27.6848 17.9267 27.9305 21.7304 27.9872L21.7116 27.9683Z" fill="#618182"/>
<path opacity="0.75" d="M9.94245 27.1749C9.94245 27.1749 9.75415 27.1182 9.66 27.1182C8.77498 27.1371 5.93165 27.326 5.87516 29.0646C5.81867 30.8788 20.7132 31.3134 23.8955 31.2945C24.0085 31.2945 24.1215 31.2945 24.2533 31.2945L22.182 28.63C12.9364 28.5166 10.4509 27.4394 9.92362 27.1938L9.94245 27.1749Z" fill="#618182"/>
<path d="M41.9338 29.0456C41.8773 27.3259 39.0528 27.118 38.149 27.0991C38.0548 27.0991 37.9607 27.118 37.8665 27.1558C37.3204 27.4204 34.5524 28.6109 23.9135 28.6109C23.3109 28.6109 22.746 28.6109 22.2188 28.6109L24.2901 31.2755C28.1125 31.2755 41.9903 30.8031 41.9526 29.0456H41.9338Z" fill="#618182"/>
<path d="M71.6286 37.7573L69.03 47.0928H66.8269L65.0757 40.4408L63.2492 47.0928H61.0649L58.5605 37.7573H60.5565L62.1947 45.014L64.0966 37.7573H66.1679L67.9567 44.9762L69.6138 37.7573H71.6286Z" fill="white"/>
<path d="M74.7534 46.5825C74.0191 46.1667 73.4542 45.5998 73.0211 44.8817C72.588 44.1636 72.3809 43.3321 72.3809 42.4061C72.3809 41.4801 72.588 40.6864 73.0211 39.9494C73.4542 39.2124 74.0191 38.6455 74.7534 38.2486C75.4878 37.8329 76.2787 37.625 77.1449 37.625C78.011 37.625 78.8207 37.8329 79.5551 38.2486C80.2706 38.6644 80.8544 39.2313 81.2686 39.9494C81.6829 40.6675 81.9089 41.499 81.9089 42.4061C81.9089 43.3132 81.7017 44.1447 81.2686 44.8817C80.8544 45.5998 80.2706 46.1856 79.5363 46.5825C78.8019 46.9982 78.011 47.2061 77.126 47.2061C76.241 47.2061 75.4502 46.9982 74.7346 46.5825H74.7534ZM78.6324 45.1463C79.0655 44.9006 79.3856 44.5226 79.6304 44.0502C79.8752 43.5778 79.9882 43.0297 79.9882 42.4061C79.9882 41.7825 79.8752 41.2344 79.6304 40.762C79.3856 40.2896 79.0655 39.9305 78.6324 39.6848C78.1993 39.4392 77.7098 39.3069 77.1449 39.3069C76.58 39.3069 76.0904 39.4392 75.6573 39.6848C75.2242 39.9305 74.8853 40.2896 74.6593 40.762C74.4145 41.2344 74.3015 41.7825 74.3015 42.4061C74.3015 43.0297 74.4145 43.5778 74.6593 44.0502C74.9041 44.5226 75.243 44.8817 75.6573 45.1463C76.0904 45.3919 76.58 45.5242 77.1449 45.5242C77.7098 45.5242 78.1993 45.3919 78.6324 45.1463Z" fill="white"/>
<path d="M88.1044 47.0928L86.0519 43.4455H85.1669V47.0928H83.3027V37.7573H86.8051C87.5207 37.7573 88.1421 37.8896 88.6505 38.1353C89.1589 38.3809 89.5355 38.74 89.7991 39.1746C90.0439 39.6093 90.1757 40.0817 90.1757 40.6298C90.1757 41.2534 90.0062 41.8014 89.6485 42.2928C89.2907 42.7841 88.7634 43.1243 88.0667 43.3132L90.2887 47.0928H88.1232H88.1044ZM85.1669 42.066H86.7298C87.2382 42.066 87.6148 41.9526 87.8596 41.7069C88.1044 41.4613 88.2362 41.1211 88.2362 40.6865C88.2362 40.2518 88.1044 39.9306 87.8596 39.6849C87.6148 39.4581 87.2382 39.3258 86.7298 39.3258H85.1669V42.066Z" fill="white"/>
<path d="M97.1051 47.0928L93.7157 42.9353V47.0928H91.8516V37.7573H93.7157V41.9526L97.1051 37.7573H99.3647L95.5234 42.3872L99.4777 47.0928H97.124H97.1051Z" fill="white"/>
<path d="M105.316 46.8659C104.789 46.6392 104.393 46.3179 104.092 45.9022C103.791 45.4864 103.64 44.9951 103.621 44.4093H105.617C105.636 44.7872 105.787 45.0896 106.031 45.3163C106.276 45.5431 106.615 45.6565 107.048 45.6565C107.481 45.6565 107.82 45.5431 108.065 45.3352C108.31 45.1274 108.442 44.8439 108.442 44.5037C108.442 44.2203 108.366 43.9935 108.197 43.8234C108.027 43.6533 107.82 43.5022 107.557 43.4077C107.312 43.3132 106.954 43.1998 106.502 43.0675C105.9 42.8974 105.41 42.7085 105.033 42.5384C104.657 42.3683 104.337 42.1037 104.054 41.7447C103.791 41.3856 103.64 40.9132 103.64 40.3274C103.64 39.7793 103.772 39.288 104.054 38.8911C104.337 38.4754 104.713 38.173 105.222 37.9463C105.711 37.7195 106.295 37.625 106.935 37.625C107.896 37.625 108.668 37.8518 109.27 38.3242C109.873 38.7967 110.193 39.4392 110.268 40.2896H108.216C108.216 39.9683 108.065 39.7037 107.801 39.4959C107.557 39.288 107.218 39.1746 106.803 39.1746C106.446 39.1746 106.144 39.2691 105.937 39.4581C105.73 39.647 105.617 39.9116 105.617 40.2707C105.617 40.5163 105.692 40.7242 105.862 40.8943C106.031 41.0644 106.238 41.1967 106.483 41.2911C106.728 41.3856 107.067 41.5179 107.519 41.6502C108.121 41.8203 108.611 42.0093 109.006 42.1793C109.383 42.3494 109.722 42.6329 109.986 42.973C110.268 43.3321 110.4 43.8045 110.4 44.3715C110.4 44.8628 110.268 45.3352 110.004 45.7699C109.741 46.2045 109.364 46.5447 108.875 46.7904C108.385 47.036 107.783 47.1683 107.105 47.1683C106.427 47.1683 105.862 47.0549 105.353 46.8282L105.316 46.8659Z" fill="white"/>
<path d="M119.701 37.7573V47.0928H117.837V43.1243H113.845V47.0928H111.98V37.7573H113.845V41.5935H117.837V37.7573H119.701Z" fill="white"/>
<path d="M123.468 46.5825C122.734 46.1667 122.169 45.5998 121.736 44.8817C121.303 44.1636 121.096 43.3321 121.096 42.4061C121.096 41.4801 121.303 40.6864 121.736 39.9494C122.169 39.2124 122.734 38.6455 123.468 38.2486C124.203 37.8329 124.994 37.625 125.86 37.625C126.726 37.625 127.536 37.8329 128.27 38.2486C128.985 38.6644 129.569 39.2313 129.983 39.9494C130.398 40.6675 130.624 41.499 130.624 42.4061C130.624 43.3132 130.417 44.1447 129.983 44.8817C129.55 45.6187 128.985 46.1856 128.251 46.5825C127.517 46.9982 126.726 47.2061 125.86 47.2061C124.994 47.2061 124.184 46.9982 123.468 46.5825ZM127.347 45.1463C127.78 44.9006 128.1 44.5226 128.345 44.0502C128.59 43.5778 128.703 43.0297 128.703 42.4061C128.703 41.7825 128.59 41.2344 128.345 40.762C128.1 40.2896 127.78 39.9305 127.347 39.6848C126.914 39.4392 126.425 39.3069 125.86 39.3069C125.295 39.3069 124.805 39.4392 124.372 39.6848C123.939 39.9305 123.6 40.2896 123.355 40.762C123.111 41.2344 122.998 41.7825 122.998 42.4061C122.998 43.0297 123.111 43.5778 123.355 44.0502C123.6 44.5226 123.939 44.8817 124.372 45.1463C124.805 45.3919 125.295 45.5242 125.86 45.5242C126.425 45.5242 126.914 45.3919 127.347 45.1463Z" fill="white"/>
<path d="M133.843 37.7573V43.54C133.843 44.1636 134.012 44.655 134.332 44.9951C134.652 45.3353 135.123 45.5054 135.726 45.5054C136.328 45.5054 136.799 45.3353 137.119 44.9951C137.458 44.655 137.609 44.1825 137.609 43.54V37.7573H139.492V43.5211C139.492 44.3148 139.322 44.9762 138.983 45.5432C138.644 46.0912 138.192 46.5069 137.609 46.7715C137.044 47.055 136.404 47.1872 135.688 47.1872C134.972 47.1872 134.37 47.055 133.805 46.7715C133.24 46.488 132.788 46.0912 132.468 45.5432C132.148 44.9951 131.979 44.3148 131.979 43.5211V37.7573H133.843Z" fill="white"/>
<path d="M143.163 45.6189H146.232V47.1118H141.299V37.7764H143.163V45.6378V45.6189Z" fill="white"/>
<path d="M153.257 38.3433C153.992 38.7213 154.575 39.2693 154.971 39.9874C155.366 40.7055 155.573 41.5181 155.573 42.463C155.573 43.4079 155.366 44.2205 154.971 44.9197C154.575 45.6189 153.992 46.1669 153.257 46.5449C152.523 46.9228 151.657 47.1118 150.678 47.1118H147.42V37.7764H150.678C151.657 37.7764 152.523 37.9653 153.257 38.3433ZM152.862 44.7118C153.389 44.1827 153.671 43.4268 153.671 42.4441C153.671 41.4614 153.408 40.7055 152.862 40.1575C152.335 39.6094 151.581 39.326 150.602 39.326H149.284V45.4866H150.602C151.581 45.4866 152.335 45.222 152.862 44.6929V44.7118Z" fill="white"/>
<path d="M168.114 47.0926H166.25L162.032 40.6863V47.0926H160.168V37.7383H162.032L166.25 44.1635V37.7383H168.114V47.0926Z" fill="white"/>
<path d="M171.861 46.5825C171.126 46.1667 170.562 45.5998 170.128 44.8817C169.695 44.1636 169.488 43.3321 169.488 42.4061C169.488 41.4801 169.695 40.6864 170.128 39.9494C170.562 39.2124 171.126 38.6455 171.861 38.2486C172.595 37.8329 173.386 37.625 174.252 37.625C175.118 37.625 175.928 37.8329 176.663 38.2486C177.378 38.6644 177.962 39.2313 178.376 39.9494C178.79 40.6675 179.016 41.499 179.016 42.4061C179.016 43.3132 178.809 44.1447 178.376 44.8817C177.962 45.5998 177.378 46.1856 176.644 46.5825C175.909 46.9982 175.118 47.2061 174.233 47.2061C173.348 47.2061 172.558 46.9982 171.842 46.5825H171.861ZM175.74 45.1463C176.173 44.9006 176.493 44.5226 176.738 44.0502C176.983 43.5778 177.096 43.0297 177.096 42.4061C177.096 41.7825 176.983 41.2344 176.738 40.762C176.493 40.2896 176.173 39.9305 175.74 39.6848C175.307 39.4392 174.817 39.3069 174.252 39.3069C173.687 39.3069 173.198 39.4392 172.765 39.6848C172.332 39.9305 171.993 40.2896 171.767 40.762C171.522 41.2344 171.409 41.7825 171.409 42.4061C171.409 43.0297 171.522 43.5778 171.767 44.0502C172.012 44.5226 172.35 44.8817 172.765 45.1463C173.198 45.3919 173.687 45.5242 174.252 45.5242C174.817 45.5242 175.307 45.3919 175.74 45.1463Z" fill="white"/>
<path d="M186.736 37.7573V39.2691H184.25V47.0928H182.386V39.2691H179.9V37.7573H186.717H186.736Z" fill="white"/>
<path d="M198.996 37.7573V47.0928H197.132V43.1243H193.14V47.0928H191.275V37.7573H193.14V41.5935H197.132V37.7573H198.996Z" fill="white"/>
<path d="M202.667 37.7573V43.54C202.667 44.1636 202.836 44.655 203.156 44.9951C203.495 45.3353 203.947 45.5054 204.55 45.5054C205.152 45.5054 205.623 45.3353 205.943 44.9951C206.263 44.655 206.433 44.1825 206.433 43.54V37.7573H208.316V43.5211C208.316 44.3148 208.146 44.9762 207.808 45.5432C207.469 46.0912 207.017 46.5069 206.433 46.7715C205.849 47.0361 205.228 47.1872 204.512 47.1872C203.797 47.1872 203.194 47.055 202.629 46.7715C202.064 46.488 201.612 46.0912 201.292 45.5432C200.953 44.9951 200.803 44.3148 200.803 43.5211V37.7573H202.667Z" fill="white"/>
<path d="M214.925 47.0928L212.872 43.4455H211.987V47.0928H210.123V37.7573H213.625C214.341 37.7573 214.962 37.8896 215.471 38.1353C215.979 38.3809 216.356 38.74 216.619 39.1746C216.864 39.6093 216.996 40.0817 216.996 40.6298C216.996 41.2534 216.827 41.8014 216.469 42.2928C216.111 42.7841 215.584 43.1243 214.887 43.3132L217.109 47.0928H214.944H214.925ZM211.987 42.066H213.55C214.059 42.066 214.435 41.9526 214.68 41.7069C214.925 41.4613 215.057 41.1211 215.057 40.6865C215.057 40.2518 214.925 39.9306 214.68 39.6849C214.435 39.4581 214.059 39.3258 213.55 39.3258H211.987V42.066Z" fill="white"/>
<path d="M224.999 37.7573V39.2691H222.514V47.0928H220.65V39.2691H218.164V37.7573H224.981H224.999Z" fill="white"/>
</g>
<defs>
<clipPath id="clip0_1815_2147">
<rect width="225" height="48" fill="white"/>
</clipPath>
</defs>
</svg>
