<svg xmlns="http://www.w3.org/2000/svg" xmlns:xlink="http://www.w3.org/1999/xlink" width="125.93" height="125.93" viewBox="0 0 125.93 125.93"><defs><clipPath id="a"><rect width="125.93" height="125.93" transform="translate(0 0)" fill="none"></rect></clipPath></defs><g clip-path="url(#a)"><path d="M13.932,94.4s84-15.893,93.707-15.893c15.539,1.942,15.539,27.193,15.539,27.193L37.714,123.178c0-21.366-15.539-29.135-20.666-29.135-7.863,0-14.3,5.944-14.3,15.538,0,7.676,5.111,13.6,11.4,13.6,5.032,0,9.953-3.27,9.953-9.41a8.822,8.822,0,0,0-8.324-8.687l14.163-3.269" fill="none" stroke="#fff" stroke-linecap="round" stroke-linejoin="round" stroke-width="5.503"></path><path d="M45.484,97.928c3.885,1.942,5.361,7.845,5.827,9.712l60.213-11.654s0-3.885-3.884-7.77" fill="none" stroke="#fff" stroke-linecap="round" stroke-linejoin="round" stroke-width="5.503"></path><line y1="5.594" x2="21.728" transform="translate(15.594 117.495)" fill="none" stroke="#fff" stroke-linecap="round" stroke-linejoin="round" stroke-width="5.503"></line><path d="M4.694,86.274a13.038,13.038,0,0,1-1.877-6.18,3.363,3.363,0,0,1,.988-2.643l18.37-18.37" fill="none" stroke="#fff" stroke-linecap="round" stroke-linejoin="round" stroke-width="5.503"></path><path d="M72.677,2.752c39.488,0,46.865,35.965,48.243,49.4a4.536,4.536,0,0,1-4.522,4.984H110.19A4.557,4.557,0,0,0,109,57.3L89.38,62.648a4.54,4.54,0,0,0-2.017,1.17l-5.9,5.9a4.532,4.532,0,0,1-2.434,1.269C59.1,74.421,36.174,74.417,24.113,66.353a4.468,4.468,0,0,1-1.937-3.726V53.253s0-23.308,15.538-33.02" fill="none" stroke="#fff" stroke-linecap="round" stroke-linejoin="round" stroke-width="5.503"></path><path d="M107.639,18.291c-8.268-4.651-18.827-5.512-28.437-4.9a33.967,33.967,0,0,0-30.887,26.3,3.884,3.884,0,0,1-4.727,2.9L35.53,40.568a3.884,3.884,0,0,1-2.856-4.583l1.149-5.363A34.678,34.678,0,0,1,63.371,3.294a78.4,78.4,0,0,1,9.305-.542" fill="none" stroke="#fff" stroke-linecap="round" stroke-linejoin="round" stroke-width="5.503"></path><path d="M99.87,26.06S61.023,24.118,57.138,61.023" fill="none" stroke="#fff" stroke-linecap="round" stroke-linejoin="round" stroke-width="5.503"></path><path d="M115.409,57.138s1.942,6.555,0,11.654" fill="none" stroke="#fff" stroke-linecap="round" stroke-linejoin="round" stroke-width="5.503"></path></g></svg>