<svg xmlns="http://www.w3.org/2000/svg" xmlns:xlink="http://www.w3.org/1999/xlink" width="125.93" height="125.93" viewBox="0 0 125.93 125.93"><defs><clipPath id="a"><rect width="125.93" height="125.93" transform="translate(0 0)" fill="none"></rect></clipPath></defs><g clip-path="url(#a)"><path d="M28,123.178V80.446H78.5" fill="none" stroke="#fff" stroke-linecap="round" stroke-linejoin="round" stroke-width="5.503"></path></g><path d="M41.6,101.812V92.1h9.712" fill="none" stroke="#fff" stroke-linecap="round" stroke-linejoin="round" stroke-width="5.503"></path><path d="M62.965,101.812V92.1h9.712" fill="none" stroke="#fff" stroke-linecap="round" stroke-linejoin="round" stroke-width="5.503"></path><g clip-path="url(#a)"><path d="M41.6,123.178v-9.712h9.712" fill="none" stroke="#fff" stroke-linecap="round" stroke-linejoin="round" stroke-width="5.503"></path><path d="M62.965,123.178v-9.712h9.712" fill="none" stroke="#fff" stroke-linecap="round" stroke-linejoin="round" stroke-width="5.503"></path></g><line y2="13.597" transform="translate(37.714 66.85)" fill="none" stroke="#fff" stroke-linecap="round" stroke-linejoin="round" stroke-width="5.503"></line><line y2="13.597" transform="translate(55.195 66.85)" fill="none" stroke="#fff" stroke-linecap="round" stroke-linejoin="round" stroke-width="5.503"></line><line y2="13.597" transform="translate(72.677 66.85)" fill="none" stroke="#fff" stroke-linecap="round" stroke-linejoin="round" stroke-width="5.503"></line><g clip-path="url(#a)"><line y1="79.637" transform="translate(90.158 43.541)" fill="none" stroke="#fff" stroke-linecap="round" stroke-linejoin="round" stroke-width="5.503"></line><path d="M103.755,26.06V22.175h19.424V41.6H105.7v81.579" fill="none" stroke="#fff" stroke-linecap="round" stroke-linejoin="round" stroke-width="5.503"></path><line y2="23.308" transform="translate(90.158 2.752)" fill="none" stroke="#fff" stroke-linecap="round" stroke-linejoin="round" stroke-width="5.503"></line><path d="M2.752,41.6H90.158L80.447,28H14.406Z" fill="none" stroke="#fff" stroke-linecap="round" stroke-linejoin="round" stroke-width="5.503"></path><path d="M45.484,28,90.158,2.752l33.021,19.424" fill="none" stroke="#fff" stroke-linecap="round" stroke-linejoin="round" stroke-width="5.503"></path><path d="M8.579,64.907a5.829,5.829,0,1,0,8.052-5.387,3.76,3.76,0,0,1-2.225-3.508V41.6" fill="none" stroke="#fff" stroke-linecap="round" stroke-linejoin="round" stroke-width="5.503"></path></g></svg>