<svg xmlns="http://www.w3.org/2000/svg" xmlns:xlink="http://www.w3.org/1999/xlink" width="141.044" height="125.231" viewBox="0 0 141.044 125.231"><defs><clipPath id="a"><rect width="141.044" height="125.231" fill="none"></rect></clipPath></defs><g clip-path="url(#a)"><path d="M98.939,63.707c-.159.049-.316.094-.476.144" fill="none" stroke="#fff" stroke-linecap="round" stroke-linejoin="round" stroke-width="5.503"></path><path d="M79.618,71.861a59.814,59.814,0,0,0-9.1,6.341" fill="none" stroke="#fff" stroke-linecap="round" stroke-linejoin="round" stroke-width="5.503"></path><path d="M98.939,63.707a122.738,122.738,0,0,1,20.871-4.481" fill="none" stroke="#fff" stroke-linecap="round" stroke-linejoin="round" stroke-width="5.503"></path><line y1="9.94" transform="translate(138.293 87.69)" fill="none" stroke="#fff" stroke-linecap="round" stroke-linejoin="round" stroke-width="5.503"></line><path d="M138.293,97.63v9.036S97.631,104.407,77.3,122.479H70.522" fill="none" stroke="#fff" stroke-linecap="round" stroke-linejoin="round" stroke-width="5.503"></path><path d="M81.817,99.889c21.563-12.651,56.476-12.2,56.476-12.2" fill="none" stroke="#fff" stroke-linecap="round" stroke-linejoin="round" stroke-width="5.503"></path><line x2="18.483" y2="28.464" transform="translate(119.81 59.227)" fill="none" stroke="#fff" stroke-linecap="round" stroke-linejoin="round" stroke-width="5.503"></line><path d="M21.235,59.227s2.884.3,7.4,1.159" fill="none" stroke="#fff" stroke-linecap="round" stroke-linejoin="round" stroke-width="5.503"></path><path d="M70.522,122.479H63.745C45.673,104.407,2.751,106.666,2.751,106.666V97.63" fill="none" stroke="#fff" stroke-linecap="round" stroke-linejoin="round" stroke-width="5.503"></path><line y2="9.94" transform="translate(2.752 87.69)" fill="none" stroke="#fff" stroke-linecap="round" stroke-linejoin="round" stroke-width="5.503"></line><path d="M28.639,60.386c4.488-8.793,8-16.972,8-16.972S68.263,59.227,70.522,77.3" fill="none" stroke="#fff" stroke-linecap="round" stroke-linejoin="round" stroke-width="5.503"></path><path d="M28.639,60.386c-1.754,3.436-3.652,6.962-5.557,10.136C36.637,75.04,59.227,99.889,59.227,99.889,37.664,87.238,2.751,87.69,2.751,87.69" fill="none" stroke="#fff" stroke-linecap="round" stroke-linejoin="round" stroke-width="5.503"></path><line x1="18.483" y2="28.464" transform="translate(2.752 59.227)" fill="none" stroke="#fff" stroke-linecap="round" stroke-linejoin="round" stroke-width="5.503"></line><path d="M54.709,106.666C38.9,97.63,2.751,97.63,2.751,97.63" fill="none" stroke="#fff" stroke-linecap="round" stroke-linejoin="round" stroke-width="5.503"></path><path d="M86.335,106.666c15.813-9.036,51.957-9.036,51.957-9.036" fill="none" stroke="#fff" stroke-linecap="round" stroke-linejoin="round" stroke-width="5.503"></path><line x1="12.684" y1="3.399" transform="translate(85.779 60.452)" fill="none" stroke="#fff" stroke-linecap="round" stroke-linejoin="round" stroke-width="5.503"></line><line x1="0.408" y1="0.109" transform="translate(98.463 63.852)" fill="none" stroke="#fff" stroke-linecap="round" stroke-linejoin="round" stroke-width="5.503"></line><line x1="13.092" y1="3.508" transform="translate(98.642 12.448)" fill="none" stroke="#fff" stroke-linecap="round" stroke-linejoin="round" stroke-width="5.503"></line><line x1="0.068" y2="0.253" transform="translate(98.871 63.707)" fill="none" stroke="#fff" stroke-linecap="round" stroke-linejoin="round" stroke-width="5.503"></line><line y1="47.752" x2="12.795" transform="translate(98.939 15.955)" fill="none" stroke="#fff" stroke-linecap="round" stroke-linejoin="round" stroke-width="5.503"></line><path d="M98.642,12.448,95.134,25.541,85.779,60.452" fill="none" stroke="#fff" stroke-linecap="round" stroke-linejoin="round" stroke-width="5.503"></path><line x1="1.542" y1="7.536" transform="translate(85.779 60.453)" fill="none" stroke="#fff" stroke-linecap="round" stroke-linejoin="round" stroke-width="5.503"></line><path d="M87.321,67.989l1.5,7.31L98.871,63.961" fill="none" stroke="#fff" stroke-linecap="round" stroke-linejoin="round" stroke-width="5.503"></path><path d="M111.734,15.956l1.524-5.687a5.408,5.408,0,0,0-3.824-6.623l-2.646-.709a5.407,5.407,0,0,0-6.622,3.823l-1.524,5.688" fill="none" stroke="#fff" stroke-linecap="round" stroke-linejoin="round" stroke-width="5.503"></path><line y2="15.813" transform="translate(70.522 79.558)" fill="none" stroke="#fff" stroke-linecap="round" stroke-linejoin="round" stroke-width="5.503"></line></g></svg>