<svg width="148" height="44" viewBox="0 0 148 44" fill="none" xmlns="http://www.w3.org/2000/svg">
<g clip-path="url(#clip0_2_9)">
<mask id="mask0_2_9" style="mask-type:luminance" maskUnits="userSpaceOnUse" x="0" y="0" width="148" height="44">
<path d="M148 0H0V44H148V0Z" fill="white"/>
</mask>
<g mask="url(#mask0_2_9)">
<path d="M41.6003 9.23051V18.3748H31.3083V9.23051H25.5214V32.0226H31.3083V22.7796H41.6003V32.0226H47.3911V9.23051H41.6003ZM117.334 9.23051V22.8188L104.937 9.23051H99.8638V32.0226H105.589V17.7022L118.523 32.0226H123.056V9.23051H117.334ZM126.469 9.23051V13.4691H138.143C133.902 19.6541 129.661 25.8387 125.419 32.0226H147.931V27.6187H135.366L148.001 9.23051H126.469ZM81.2903 10.6878C80.5265 11.2256 79.9069 11.9385 79.4849 12.7651C79.0629 13.5916 78.8512 14.5069 78.868 15.432C78.8401 16.277 78.9907 17.1185 79.3103 17.9031C79.6298 18.6877 80.1112 19.3982 80.7241 19.9897C81.9668 21.1781 84.2353 22.3443 87.5297 23.4882C88.4388 23.7367 89.298 24.137 90.0697 24.6719C90.2682 24.8652 90.4195 25.1003 90.5123 25.3597C90.605 25.619 90.6369 25.8957 90.6053 26.1689C90.5738 26.4421 90.4797 26.7047 90.3301 26.9368C90.1806 27.169 89.9795 27.3646 89.7421 27.5089C88.9417 27.8955 88.0537 28.0718 87.1639 28.0208C85.9748 28.0097 84.7968 27.7948 83.6824 27.3858C82.1415 26.788 80.6653 26.0392 79.276 25.1509V30.2118C81.6856 31.6739 84.4625 32.4411 87.2919 32.4264C90.1596 32.4264 92.4018 31.8238 94.0188 30.6187C94.8026 30.0482 95.4329 29.2973 95.8547 28.4316C96.2765 27.5658 96.477 26.6115 96.4387 25.6518C96.467 24.4883 96.2037 23.3359 95.6721 22.2967C95.1455 21.3246 94.3589 20.5132 93.3977 19.9505C91.8794 19.1279 90.2921 18.4355 88.6534 17.8809C88.2017 17.7195 87.8581 17.598 87.6418 17.5094C86.8016 17.2352 86.0116 16.8295 85.3023 16.3076C85.0765 16.1567 84.8888 15.9568 84.7537 15.7232C84.6186 15.4895 84.5397 15.2285 84.5229 14.9601C84.5208 14.6766 84.6015 14.3985 84.7553 14.159C84.9092 13.9195 85.1297 13.7287 85.3905 13.6094C86.1778 13.2509 87.0425 13.0894 87.9082 13.1391C89.0532 13.1589 90.1887 13.3465 91.2776 13.6957C92.7184 14.1468 94.1168 14.7199 95.4574 15.4085V10.7215C94.2046 10.1267 92.8923 9.66248 91.5417 9.33634C90.2492 9.02397 88.9233 8.86606 87.5925 8.866C85.344 8.76303 83.1252 9.40552 81.2903 10.6909M4.29428 12.0792C3.10216 13.1652 2.16328 14.4933 1.54244 15.9717C0.921591 17.4502 0.633567 19.0438 0.698241 20.6427C0.684535 22.2635 0.997832 23.8708 1.61992 25.3712C2.22194 26.8241 3.13152 28.1336 4.28792 29.2123C5.43322 30.2708 6.78646 31.0867 8.26409 31.6095C9.86432 32.1646 11.5507 32.4394 13.247 32.4217C14.7928 32.4281 16.3329 32.2376 17.8291 31.8549C19.3212 31.4569 20.7546 30.8695 22.0932 30.1076V24.777C20.8035 25.6735 19.3977 26.3956 17.9134 26.9241C16.5713 27.3969 15.1574 27.6413 13.7321 27.6469C12.7856 27.694 11.8394 27.549 10.952 27.221C10.0646 26.8929 9.25506 26.3887 8.57343 25.7396C7.92082 25.061 7.41446 24.2591 7.08493 23.3823C6.7554 22.5055 6.60953 21.5719 6.65613 20.6379C6.60464 19.6865 6.75721 18.735 7.10388 17.8455C7.45055 16.9561 7.98353 16.1486 8.66807 15.4759C10.1829 14.1627 12.1609 13.4894 14.1751 13.6016C15.4893 13.6045 16.7951 13.8092 18.0455 14.2083C19.4059 14.6452 20.7005 15.2606 21.8944 16.038V10.6878C20.6268 10.0745 19.293 9.60454 17.9182 9.28695C16.5655 8.97942 15.1815 8.82607 13.7933 8.82994C9.86012 8.82994 6.69456 9.91304 4.29667 12.0792" fill="white"/>
<path d="M60.9594 2.14006V11.6105L60.0115 2.35172C58.2565 2.77786 56.6422 3.64169 55.3236 4.86022L57.0357 9.10274L54.4584 5.7774C51.749 8.64493 52.2818 13.5451 52.2818 13.5451C52.879 14.7092 63.0039 14.5454 63.0039 14.5454C63.0039 14.5454 73.1272 14.7092 73.7261 13.5451C73.7261 13.5451 74.2589 8.64493 71.5487 5.7774L68.9722 9.10352L70.6843 4.86022C69.3657 3.64169 67.7514 2.77786 65.9964 2.35172L65.0501 11.6105V2.14006C65.0501 2.14006 65.0501 0.616142 63.0039 0.485229C60.9594 0.616142 60.9594 2.14006 60.9594 2.14006Z" fill="white"/>
</g>
<mask id="mask1_2_9" style="mask-type:luminance" maskUnits="userSpaceOnUse" x="0" y="0" width="148" height="44">
<path d="M148 0H0V44H148V0Z" fill="white"/>
</mask>
<g mask="url(#mask1_2_9)">
<path d="M74.1857 13.9708C74.1857 13.9708 72.7543 14.9703 62.697 14.9899H61.6632C51.745 14.9695 52.3216 13.9708 52.3216 13.9708H52.242C51.7649 13.9708 49.2043 14.0367 49.1597 15.4603C49.1144 16.8564 59.8079 16.8321 62.2127 16.8109C64.996 16.8321 77.3809 16.8564 77.3372 15.4603C77.2911 14.0351 74.7312 13.9708 74.2533 13.9708H74.1857Z" fill="white"/>
<path d="M0 35.9555L71.1574 36.2691L142.316 35.9555L71.1574 35.642L0 35.9555Z" fill="white"/>
<path d="M67.1503 17.3416V21.5465H59.361V17.3643C57.5637 17.3448 55.3307 17.286 53.4126 17.1292V31.7883H59.361V25.6448H67.1503V31.7883H73.097V17.0814C71.268 17.2327 69.101 17.3056 67.1503 17.3416Z" fill="white"/>
</g>
<mask id="mask2_2_9" style="mask-type:luminance" maskUnits="userSpaceOnUse" x="0" y="0" width="148" height="44">
<path d="M148 0H0V44H148V0Z" fill="white"/>
</mask>
<g mask="url(#mask2_2_9)">
<path d="M6.14954 42.7348V43.5367C5.86302 43.6845 5.56051 43.7999 5.24774 43.8808C4.95091 43.9586 4.64514 43.9984 4.338 43.9992C4.05905 44 3.7813 43.9631 3.51255 43.8895C3.24997 43.814 2.99962 43.7021 2.769 43.5571C2.40438 43.3251 2.10382 43.0075 1.89425 42.6329C1.68687 42.2573 1.57961 41.836 1.58252 41.4084C1.58395 41.0725 1.65462 40.7403 1.79022 40.4322C1.92583 40.124 2.12355 39.8462 2.37139 39.6156C2.63107 39.3706 2.93837 39.1799 3.27477 39.0551C3.63107 38.9257 4.00843 38.862 4.3881 38.867C4.67196 38.8669 4.95486 38.8995 5.23104 38.9642C5.53226 39.0356 5.82535 39.137 6.1058 39.2668V40.0381C5.82016 39.8809 5.5184 39.754 5.2056 39.6595C4.9405 39.58 4.66518 39.5385 4.3881 39.5364C4.12067 39.5276 3.85412 39.5709 3.60371 39.6639C3.3533 39.7568 3.12396 39.8976 2.92885 40.0781C2.74674 40.2543 2.60193 40.4645 2.50282 40.6963C2.4037 40.9281 2.35224 41.177 2.35143 41.4285C2.35061 41.6801 2.40046 41.9293 2.49808 42.1618C2.59569 42.3942 2.73914 42.6052 2.9201 42.7826C3.1091 42.962 3.33262 43.1024 3.57749 43.1955C3.82237 43.2885 4.08365 43.3323 4.34595 43.3243C4.64796 43.3226 4.94779 43.2736 5.23423 43.1792C5.55767 43.0704 5.86557 42.921 6.15033 42.7348M7.46962 41.4358C7.46778 41.6833 7.51607 41.9286 7.61165 42.1575C7.70724 42.3863 7.84821 42.594 8.02629 42.7685C8.20131 42.9454 8.41136 43.0849 8.64339 43.1785C9.11919 43.3687 9.65149 43.3687 10.1273 43.1785C10.3603 43.0832 10.5716 42.9427 10.7484 42.7653C10.9256 42.5903 11.0666 42.3829 11.1635 42.1547C11.3559 41.6923 11.3559 41.1739 11.1635 40.7115C11.0629 40.4806 10.9182 40.2708 10.7372 40.0938C10.5628 39.9133 10.3521 39.7707 10.1185 39.6752C9.88485 39.5798 9.6343 39.531 9.38136 39.5317C9.13183 39.5314 8.88483 39.581 8.65532 39.6775C8.41923 39.7742 8.2047 39.9156 8.0239 40.0938C7.84344 40.2643 7.70169 40.4705 7.608 40.699C7.51206 40.9314 7.46342 41.1802 7.46485 41.4311M6.69825 41.4037C6.6985 41.0719 6.76807 40.7436 6.90262 40.4395C7.03911 40.1276 7.23758 39.8459 7.48632 39.6109C7.99449 39.1268 8.67471 38.8581 9.38136 38.8623C9.73674 38.8608 10.0891 38.9268 10.4191 39.0567C10.9102 39.2412 11.3321 39.5698 11.628 39.998C11.9239 40.4261 12.0796 40.9334 12.074 41.4515C12.0748 41.7864 12.0055 42.1178 11.8704 42.4251C11.7364 42.7349 11.5394 43.0142 11.2915 43.2459C11.0401 43.4871 10.7428 43.6771 10.4168 43.8048C9.75308 44.0593 9.01641 44.0577 8.35392 43.8001C8.03134 43.6728 7.73714 43.4845 7.48792 43.2459C7.23554 43.0081 7.03526 42.7218 6.89944 42.4047C6.76506 42.0878 6.69716 41.7472 6.69984 41.4037M12.8828 43.913V38.9477H13.5102L16.8263 42.8014V38.9477H17.542V43.913H16.9059L13.5985 40.0577V43.9153L12.8828 43.913ZM18.3611 43.521V42.5897C18.5455 42.8103 18.7662 42.9988 19.014 43.1471C19.2176 43.2587 19.4467 43.317 19.6796 43.3164C19.8901 43.3284 20.0982 43.2677 20.2681 43.1447C20.3389 43.0893 20.3955 43.0181 20.4332 42.9371C20.4709 42.8561 20.4887 42.7674 20.4852 42.6783C20.4882 42.5248 20.4368 42.3751 20.3397 42.255C20.1344 42.0475 19.9004 41.8697 19.6446 41.7267C19.2444 41.5029 18.8822 41.2188 18.5711 40.8847C18.4238 40.6768 18.3478 40.428 18.354 40.1745C18.3487 39.9958 18.3833 39.8182 18.4551 39.654C18.527 39.4899 18.6344 39.3433 18.7699 39.2244C19.0657 38.9703 19.449 38.8376 19.8411 38.8536C20.0358 38.8536 20.2295 38.8816 20.416 38.9367C20.6166 38.998 20.8083 39.0847 20.9862 39.1946V40.0013C20.8003 39.8477 20.5947 39.7188 20.3747 39.6179C20.1991 39.5419 20.0098 39.5016 19.818 39.4996C19.6187 39.49 19.4221 39.5484 19.2613 39.665C19.1935 39.7138 19.1386 39.7779 19.1013 39.852C19.0639 39.9261 19.0452 40.0079 19.0466 40.0906C19.0466 40.3363 19.3427 40.6415 19.9349 41.0062L20.0415 41.0705C20.4082 41.2662 20.7312 41.5329 20.991 41.8544C21.147 42.1068 21.2246 42.3986 21.2144 42.694C21.2191 42.8713 21.1843 43.0475 21.1122 43.21C21.0402 43.3726 20.9329 43.5176 20.7977 43.6347C20.5012 43.8874 20.1182 44.0195 19.7265 44.0039C19.4771 44.0075 19.2289 43.9691 18.9925 43.8902C18.7616 43.8089 18.5476 43.6867 18.3611 43.5296M23.383 43.9216V39.5952H21.5301V38.9477H25.9477V39.5952H24.0956V43.913L23.383 43.9216ZM26.5314 43.9216V38.9477H28.0065C28.4301 38.9206 28.8492 39.0469 29.185 39.3028C29.3255 39.4293 29.4356 39.585 29.5073 39.7588C29.579 39.9325 29.6104 40.1198 29.5994 40.307C29.6132 40.5873 29.5333 40.8644 29.3719 41.0956C29.1875 41.3157 28.9369 41.4722 28.6562 41.5424C28.7441 41.5907 28.8244 41.6511 28.8948 41.722C29.0023 41.8382 29.0992 41.9636 29.1843 42.0967L30.4073 43.913H29.5326L28.6697 42.6101C28.5044 42.3269 28.292 42.0731 28.0415 41.8591C27.8737 41.7474 27.6745 41.6903 27.4721 41.6961H27.255V43.913L26.5314 43.9216ZM27.2534 41.1082H27.8514C28.117 41.1269 28.3816 41.0601 28.6053 40.9177C28.7624 40.7619 28.8515 40.5518 28.8537 40.3321C28.856 40.1125 28.7711 39.9007 28.6173 39.7418C28.3886 39.6012 28.12 39.5371 27.8514 39.5592H27.2534V41.1082ZM30.6729 38.9563H31.3886V41.8058C31.3805 42.032 31.3981 42.2584 31.4411 42.4808C31.4731 42.6068 31.5329 42.7242 31.6161 42.8249C31.7588 42.9936 31.94 43.1266 32.1449 43.2129C32.366 43.3003 32.6025 43.3435 32.8407 43.3399C33.2215 43.358 33.596 43.2396 33.8952 43.0068C34.0252 42.8995 34.1285 42.7643 34.1975 42.6116C34.2664 42.4589 34.299 42.2927 34.2928 42.1257V38.9477H35.0085V42.139C35.0169 42.3933 34.9672 42.6462 34.8631 42.879C34.7591 43.1118 34.6033 43.3186 34.4073 43.4842C33.9671 43.841 33.4085 44.0244 32.8391 43.9992C32.4842 44.0049 32.132 43.9371 31.8053 43.8001C31.502 43.6689 31.2354 43.4671 31.0284 43.2122C30.9005 43.0624 30.8067 42.8873 30.7532 42.6987C30.6894 42.4124 30.6627 42.1192 30.6737 41.8262L30.6729 38.9563ZM40.3565 42.7434V43.5453C40.0701 43.6933 39.7675 43.8088 39.4547 43.8895C39.1579 43.9674 38.8521 44.0071 38.5449 44.0078C38.266 44.0086 37.9883 43.9716 37.7195 43.8981C37.457 43.8224 37.2066 43.7105 36.9759 43.5657C36.6113 43.3337 36.3108 43.0161 36.1012 42.6415C35.8938 42.2659 35.7865 41.8446 35.7895 41.417C35.7898 41.0794 35.8602 40.7455 35.9963 40.4357C36.1323 40.1259 36.3312 39.8468 36.5807 39.6156C36.8401 39.3706 37.1471 39.18 37.4833 39.0551C37.8396 38.9257 38.217 38.862 38.5966 38.867C38.8802 38.867 39.1628 38.8996 39.4388 38.9642C39.7399 39.0358 40.033 39.1371 40.3135 39.2668V40.0381C40.0276 39.881 39.7256 39.7541 39.4125 39.6595C39.1477 39.58 38.8727 39.5385 38.5958 39.5364C38.3284 39.5274 38.0618 39.5706 37.8113 39.6636C37.5609 39.7566 37.3316 39.8974 37.1366 40.0781C36.9545 40.2543 36.8097 40.4644 36.7106 40.6962C36.6115 40.928 36.56 41.1768 36.5591 41.4284C36.5582 41.6799 36.608 41.9291 36.7054 42.1616C36.8029 42.394 36.9462 42.6051 37.127 42.7826C37.3159 42.962 37.5393 43.1024 37.784 43.1954C38.0288 43.2885 38.2899 43.3323 38.5521 43.3243C38.8546 43.3227 39.155 43.2737 39.442 43.1792C39.7652 43.0706 40.0729 42.9212 40.3573 42.7348M42.5473 43.9106V39.5952H40.6945V38.9477H45.1128V39.5952H43.2607V43.913L42.5473 43.9106ZM45.7283 38.9453H46.4511V43.9106H45.7259L45.7283 38.9453ZM48.044 41.4335C48.0425 41.6809 48.091 41.9261 48.1866 42.1549C48.2821 42.3837 48.4229 42.5914 48.6007 42.7661C48.7761 42.9432 48.9868 43.0828 49.2193 43.1761C49.6952 43.3664 50.2274 43.3664 50.7033 43.1761C50.9364 43.0811 51.1477 42.9405 51.3243 42.763C51.5013 42.5875 51.6425 42.3802 51.7402 42.1523C51.8362 41.9228 51.8854 41.677 51.885 41.4288C51.8866 41.1819 51.8379 40.9372 51.7418 40.7091C51.6413 40.4783 51.4969 40.2687 51.3164 40.0914C51.1415 39.9107 50.9302 39.7681 50.6961 39.6728C50.4627 39.5772 50.2124 39.5284 49.9597 39.5294C49.7102 39.5291 49.4632 39.5787 49.2337 39.6752C48.9962 39.7718 48.7801 39.9132 48.5975 40.0914C48.4185 40.2628 48.2775 40.4689 48.1832 40.6966C48.0876 40.9292 48.039 41.1779 48.04 41.4288M47.2726 41.4013C47.2729 41.0693 47.3433 40.7409 47.4794 40.4371C47.6144 40.1247 47.8128 39.8427 48.0623 39.6085C48.3145 39.3689 48.6116 39.1799 48.937 39.052C49.2623 38.9241 49.6095 38.8589 49.9597 38.8599C50.3151 38.8585 50.6674 38.9245 50.9975 39.0543C51.6483 39.3142 52.1698 39.8152 52.4504 40.4497C52.5841 40.7673 52.6511 41.1084 52.6476 41.4523C52.6486 41.7871 52.5796 42.1186 52.4448 42.4259C52.3108 42.7354 52.1141 43.0147 51.8667 43.2467C51.615 43.4876 51.3178 43.6775 50.9919 43.8056C50.3268 44.0612 49.5882 44.0595 48.9243 43.8009C48.6018 43.674 48.3078 43.4856 48.0591 43.2467C47.8086 43.0097 47.61 42.7248 47.4754 42.4094C47.3407 42.0925 47.2726 41.752 47.275 41.4084M53.4548 43.913V38.9477H54.0758L57.3975 42.8014V38.9477H58.1132V43.913H57.477L54.1657 40.0577V43.9153L53.4548 43.913ZM61.0492 43.913V38.9477H61.7649V41.0854H64.6707V38.9477H65.3864V43.913H64.6707V41.7533H61.761V43.913H61.0492ZM66.4616 43.913V38.9477H69.4922V39.5795H67.1733V41.0854H69.4238V41.7243H67.1733V43.2717H69.559V43.9114L66.4616 43.913ZM71.4326 41.8121H73.0024L72.2071 40.0232L71.4326 41.8121ZM69.7729 43.913L71.9558 38.9477H72.4807L74.6915 43.913H73.9471L73.2982 42.4518H71.1511L70.5149 43.913H69.7729ZM75.0899 43.913V38.9477H75.8056V43.2717H78.2024V43.9114L75.0899 43.913ZM79.7515 43.913V39.5952H77.8978V38.9477H82.3146V39.5952H80.464V43.913H79.7515ZM82.9078 43.913V38.9477H83.6235V41.0854H86.5293V38.9477H87.245V43.913H86.5293V41.7533H83.6235V43.913H82.9078ZM91.1377 41.8121H92.7082L91.913 40.0232L91.1377 41.8121ZM89.478 43.913L91.6593 38.9477H92.185L94.3957 43.913H93.6514L93.0025 42.4518H90.8554L90.2192 43.913H89.478ZM94.7719 43.913V38.9477H95.3985L98.7178 42.8014V38.9477H99.4335V43.913H98.7918L95.4844 40.0577V43.9153L94.7719 43.913ZM102.362 39.6242H101.224V43.2372H102.362C102.895 43.2671 103.419 43.0942 103.826 42.7544C104.168 42.3963 104.358 41.9231 104.358 41.4315C104.358 40.9399 104.168 40.4668 103.826 40.1087C103.419 39.7677 102.895 39.5942 102.362 39.6242ZM102.362 38.9477C102.685 38.9425 103.007 38.977 103.321 39.0504C103.647 39.134 103.95 39.284 104.213 39.4908C104.476 39.6975 104.691 39.9564 104.846 40.2506C105.03 40.6171 105.126 41.0206 105.126 41.4296C105.126 41.8386 105.03 42.242 104.846 42.6086C104.663 42.962 104.392 43.2635 104.058 43.4842C103.835 43.6351 103.587 43.7453 103.325 43.8095C103.01 43.8832 102.687 43.918 102.363 43.913H100.51V38.9477H102.362ZM107.576 43.5249V42.5897C107.76 42.8111 107.981 42.9996 108.23 43.1471C108.432 43.2587 108.661 43.3171 108.893 43.3164C109.104 43.3287 109.312 43.268 109.482 43.1447C109.553 43.0894 109.61 43.0184 109.648 42.9373C109.686 42.8562 109.704 42.7675 109.7 42.6783C109.703 42.5247 109.651 42.375 109.554 42.255C109.348 42.0475 109.114 41.8697 108.859 41.7267C108.458 41.5032 108.096 41.2191 107.786 40.8847C107.638 40.6772 107.561 40.4282 107.568 40.1745C107.563 39.9959 107.597 39.8183 107.669 39.6542C107.741 39.4901 107.848 39.3434 107.983 39.2244C108.279 38.9705 108.663 38.8378 109.055 38.8536C109.25 38.8535 109.443 38.8815 109.63 38.9367C109.831 38.9983 110.023 39.0849 110.201 39.1946V40.0013C110.015 39.8476 109.808 39.7187 109.588 39.6179C109.412 39.5418 109.223 39.5016 109.031 39.4996C108.832 39.4898 108.635 39.5482 108.475 39.665C108.407 39.7138 108.352 39.778 108.315 39.8521C108.278 39.9262 108.259 40.008 108.261 40.0906C108.261 40.3363 108.556 40.6415 109.147 41.0062L109.256 41.0705C109.622 41.267 109.945 41.5336 110.205 41.8544C110.361 42.1067 110.439 42.3986 110.429 42.694C110.434 42.8715 110.398 43.0478 110.326 43.2104C110.254 43.373 110.146 43.5178 110.01 43.6347C109.714 43.8876 109.331 44.0197 108.94 44.0039C108.69 44.0075 108.442 43.9691 108.206 43.8902C107.975 43.809 107.761 43.6868 107.575 43.5296M112.193 41.8168H113.762L112.967 40.0279L112.193 41.8168ZM110.533 43.9177L112.715 38.9524H113.239L115.451 43.9177H114.706L114.057 42.4565H111.91L111.269 43.9177H110.533ZM115.827 43.9177V38.9477H118.696V39.5795H116.541V41.0486H118.629V41.6882H116.541V43.913L115.827 43.9177ZM119.536 43.9177V38.9477H122.568V39.5795H120.252V41.0854H122.502V41.7243H120.252V43.2717H122.642V43.9114L119.536 43.9177ZM124.913 43.9177V39.5952H123.061V38.9477H127.476V39.5952H125.625V43.913L124.913 43.9177ZM129.278 43.9177V41.4272L127.33 38.9477H128.184L129.655 40.8291L131.16 38.9477H132.029L130.008 41.464V43.913L129.278 43.9177ZM134.226 43.9177V38.9477H134.852L138.173 42.8014V38.9477H138.888V43.913H138.247L134.939 40.0577V43.9153L134.226 43.9177ZM139.474 43.9177L142.785 39.5772H139.711V38.9501H144.032V39.0284L140.78 43.3031H144.032V43.913L139.474 43.9177Z" fill="white"/>
</g>
</g>
<defs>
<clipPath id="clip0_2_9">
<rect width="148" height="44" fill="white"/>
</clipPath>
</defs>
</svg>
