<svg width="851" height="216" viewBox="0 0 851 216" fill="none" xmlns="http://www.w3.org/2000/svg">
<g clip-path="url(#clip0_1038_2217)">
<path d="M172.299 38.1699C177.299 29.1099 184.279 22.0499 193.229 16.9899C202.179 11.9299 212.329 9.3999 223.679 9.3999C237.579 9.3999 249.479 13.0699 259.379 20.4099C269.279 27.7499 275.899 37.7599 279.229 50.4399H247.869C245.529 45.5499 242.219 41.8199 237.939 39.2599C233.659 36.6999 228.789 35.4199 223.339 35.4199C214.549 35.4199 207.439 38.4799 201.989 44.5999C196.539 50.7199 193.819 58.8899 193.819 69.1199C193.819 79.3499 196.539 87.5299 201.989 93.6499C207.439 99.7599 214.549 102.82 223.339 102.82C228.789 102.82 233.659 101.55 237.939 98.9799C242.219 96.4199 245.529 92.6999 247.869 87.7999H279.229C275.889 100.48 269.269 110.46 259.379 117.74C249.479 125.03 237.579 128.67 223.679 128.67C212.339 128.67 202.179 126.14 193.229 121.08C184.279 116.02 177.299 108.99 172.299 99.9799C167.299 90.9799 164.789 80.6899 164.789 69.1199C164.789 57.5499 167.289 47.2499 172.299 38.1799" fill="white"/>
<path d="M398.17 10.73V127.84H369.64V79.62H325.27V127.84H296.75V10.73H325.27V56.6H369.64V10.73H398.17Z" fill="white"/>
<path d="M484.24 85.13L469.73 42.26L455.38 85.13H484.24ZM491.58 107.15H447.88L440.87 127.83H411.01L453.38 10.73H486.41L528.78 127.83H498.59L491.58 107.15Z" fill="white"/>
<path d="M560.969 124.83C554.189 122.05 548.769 117.94 544.709 112.49C540.649 107.04 538.509 100.48 538.279 92.8101H568.639C569.089 97.1501 570.589 100.46 573.139 102.74C575.689 105.02 579.029 106.16 583.149 106.16C587.269 106.16 590.709 105.19 593.159 103.24C595.609 101.29 596.829 98.6001 596.829 95.1501C596.829 92.2601 595.859 89.8701 593.909 87.9801C591.959 86.0901 589.569 84.5301 586.739 83.3101C583.899 82.0901 579.869 80.7001 574.649 79.1401C567.079 76.8001 560.909 74.4701 556.129 72.1401C551.349 69.8001 547.229 66.3601 543.789 61.8001C540.339 57.2401 538.619 51.2901 538.619 43.9501C538.619 33.0501 542.569 24.5201 550.459 18.3401C558.349 12.1701 568.639 9.08008 581.319 9.08008C593.999 9.08008 604.609 12.1701 612.509 18.3401C620.409 24.5101 624.629 33.1001 625.189 44.1101H594.329C594.099 40.3301 592.709 37.3501 590.159 35.1801C587.599 33.0101 584.329 31.9301 580.319 31.9301C576.869 31.9301 574.089 32.8501 571.969 34.6801C569.859 36.5201 568.799 39.1501 568.799 42.6001C568.799 46.3801 570.579 49.3301 574.139 51.4501C577.699 53.5601 583.249 55.8401 590.819 58.2801C598.379 60.8401 604.519 63.2801 609.249 65.6201C613.969 67.9601 618.059 71.3501 621.509 75.8001C624.959 80.2501 626.679 85.9801 626.679 92.9801C626.679 99.9801 624.979 105.71 621.589 111.16C618.199 116.61 613.269 120.95 606.819 124.17C600.369 127.4 592.759 129.01 583.969 129.01C575.179 129.01 567.729 127.62 560.949 124.84" fill="white"/>
<path d="M748.969 127.83H720.439L672.739 55.61V127.83H644.209V10.73H672.739L720.439 83.29V10.73H748.969V127.83Z" fill="white"/>
<path d="M767.648 10.73V34.08H817.688L767.648 106.15V127.83H850.388V104.48H800.008L850.388 32.41V10.73H767.648Z" fill="white"/>
<path d="M2.45 173.54C4.08 170.68 6.3 168.46 9.13 166.86C11.95 165.26 15.12 164.46 18.63 164.46C22.73 164.46 26.33 165.51 29.41 167.62C32.5 169.73 34.65 172.64 35.88 176.35H27.42C26.58 174.59 25.39 173.28 23.87 172.4C22.35 171.53 20.58 171.09 18.59 171.09C16.45 171.09 14.55 171.59 12.88 172.59C11.21 173.58 9.91 175 8.98 176.82C8.05 178.64 7.59 180.78 7.59 183.24C7.59 185.7 8.05 187.78 8.98 189.63C9.91 191.47 11.21 192.89 12.88 193.89C14.54 194.88 16.44 195.39 18.59 195.39C20.59 195.39 22.35 194.95 23.87 194.05C25.39 193.16 26.58 191.84 27.42 190.09H35.88C34.65 193.84 32.5 196.75 29.44 198.85C26.37 200.93 22.77 201.98 18.63 201.98C15.12 201.98 11.96 201.18 9.13 199.58C6.31 197.98 4.08 195.77 2.45 192.93C0.82 190.09 0 186.86 0 183.25C0 179.64 0.82 176.4 2.45 173.54Z" fill="white"/>
<path d="M58.8796 194.73C60.0596 194.08 60.9896 193.11 61.6996 191.81C62.3996 190.52 62.7496 188.94 62.7496 187.08C62.7496 184.31 62.0196 182.18 60.5596 180.69C59.0996 179.2 57.3196 178.45 55.2196 178.45C53.1196 178.45 51.3496 179.2 49.9396 180.69C48.5196 182.18 47.8096 184.31 47.8096 187.08C47.8096 189.85 48.5096 191.98 49.8896 193.47C51.2796 194.97 53.0196 195.71 55.1196 195.71C56.4596 195.71 57.6996 195.39 58.8796 194.74M47.5496 200.26C45.3096 199.02 43.5396 197.25 42.2696 194.98C40.9896 192.7 40.3496 190.07 40.3496 187.09C40.3496 184.11 41.0096 181.48 42.3196 179.2C43.6296 176.92 45.4296 175.16 47.7096 173.92C49.9896 172.68 52.5296 172.05 55.3296 172.05C58.1296 172.05 60.6796 172.67 62.9596 173.92C65.2396 175.17 67.0296 176.93 68.3496 179.2C69.6596 181.48 70.3196 184.11 70.3196 187.09C70.3196 190.07 69.6396 192.7 68.2896 194.98C66.9396 197.26 65.1196 199.02 62.8196 200.26C60.5196 201.5 57.9496 202.13 55.1096 202.13C52.2696 202.13 49.7796 201.51 47.5396 200.26" fill="white"/>
<path d="M100.3 175.38C102.44 177.57 103.51 180.63 103.51 184.56V201.66H96.1502V185.57C96.1502 183.25 95.5702 181.48 94.4102 180.23C93.2502 178.99 91.6702 178.36 89.6802 178.36C87.6902 178.36 86.0402 178.98 84.8602 180.23C83.6902 181.48 83.1002 183.26 83.1002 185.57V201.66H75.7402V172.52H83.1002V176.15C84.0802 174.89 85.3402 173.9 86.8602 173.18C88.3802 172.46 90.0602 172.1 91.8802 172.1C95.3502 172.1 98.1502 173.2 100.29 175.39" fill="white"/>
<path d="M115.23 200.84C113.34 199.98 111.84 198.81 110.73 197.34C109.63 195.87 109.02 194.24 108.92 192.45H116.33C116.47 193.58 117.02 194.5 117.99 195.24C118.96 195.98 120.16 196.35 121.6 196.35C123.04 196.35 124.1 196.07 124.88 195.51C125.67 194.94 126.07 194.23 126.07 193.35C126.07 192.4 125.58 191.69 124.62 191.22C123.65 190.75 122.12 190.23 120.02 189.67C117.85 189.15 116.07 188.6 114.68 188.04C113.29 187.48 112.1 186.62 111.1 185.46C110.11 184.3 109.6 182.74 109.6 180.78C109.6 179.17 110.06 177.69 110.99 176.36C111.92 175.03 113.25 173.98 114.98 173.21C116.72 172.44 118.76 172.05 121.11 172.05C124.59 172.05 127.35 172.92 129.42 174.66C131.49 176.4 132.63 178.73 132.84 181.68H125.79C125.69 180.53 125.2 179.6 124.35 178.92C123.49 178.24 122.34 177.9 120.91 177.9C119.57 177.9 118.55 178.14 117.83 178.63C117.11 179.12 116.75 179.81 116.75 180.68C116.75 181.66 117.24 182.4 118.22 182.91C119.2 183.43 120.72 183.94 122.79 184.46C124.9 184.99 126.63 185.53 128 186.09C129.37 186.65 130.56 187.52 131.56 188.69C132.55 189.87 133.07 191.42 133.11 193.35C133.11 195.03 132.65 196.54 131.72 197.87C130.79 199.2 129.46 200.24 127.73 201C125.99 201.75 123.97 202.13 121.65 202.13C119.33 202.13 117.13 201.69 115.23 200.84Z" fill="white"/>
<path d="M147.739 178.56V192.66C147.739 193.64 147.979 194.35 148.449 194.79C148.919 195.23 149.719 195.45 150.839 195.45H154.259V201.65H149.639C143.429 201.65 140.329 198.64 140.329 192.6V178.56H136.859V172.51H140.329V165.3H147.749V172.51H154.269V178.56H147.749H147.739Z" fill="white"/>
<path d="M170.64 173.41C172.16 172.53 173.91 172.1 175.87 172.1V179.83H173.92C171.6 179.83 169.86 180.37 168.69 181.46C167.51 182.55 166.93 184.44 166.93 187.14V201.66H159.57V172.52H166.93V177.04C167.88 175.49 169.12 174.29 170.64 173.41Z" fill="white"/>
<path d="M208.331 172.51V201.65H200.911V197.97C199.971 199.23 198.731 200.22 197.211 200.94C195.691 201.66 194.021 202.01 192.241 202.01C189.961 202.01 187.941 201.53 186.191 200.57C184.431 199.6 183.061 198.19 182.061 196.31C181.061 194.44 180.561 192.2 180.561 189.61V172.51H187.921V188.55C187.921 190.86 188.501 192.64 189.661 193.89C190.811 195.13 192.401 195.76 194.391 195.76C196.381 195.76 198.021 195.14 199.171 193.89C200.331 192.65 200.911 190.86 200.911 188.55V172.51H208.331Z" fill="white"/>
<path d="M215.529 179.17C216.759 176.91 218.459 175.16 220.629 173.91C222.799 172.66 225.289 172.04 228.099 172.04C231.709 172.04 234.699 172.95 237.069 174.75C239.439 176.56 241.019 179.09 241.829 182.35H233.899C233.479 181.09 232.769 180.1 231.769 179.38C230.769 178.66 229.529 178.3 228.059 178.3C225.959 178.3 224.289 179.07 223.069 180.59C221.839 182.11 221.229 184.28 221.229 187.08C221.229 189.88 221.839 192 223.069 193.53C224.299 195.05 225.969 195.82 228.059 195.82C231.039 195.82 232.989 194.49 233.899 191.82H241.829C241.019 194.98 239.429 197.49 237.049 199.34C234.669 201.21 231.689 202.13 228.109 202.13C225.299 202.13 222.809 201.51 220.639 200.26C218.459 199.02 216.759 197.26 215.539 195C214.309 192.74 213.699 190.1 213.699 187.08C213.699 184.06 214.319 181.43 215.539 179.17" fill="white"/>
<path d="M255.819 178.56V192.66C255.819 193.64 256.059 194.35 256.529 194.79C256.999 195.23 257.799 195.45 258.919 195.45H262.339V201.65H257.719C251.509 201.65 248.409 198.64 248.409 192.6V178.56H244.939V172.51H248.409V165.3H255.829V172.51H262.349V178.56H255.829H255.819Z" fill="white"/>
<path d="M275.019 201.65H267.659V172.51H275.019V201.65ZM268.149 167.81C267.289 166.99 266.869 165.96 266.869 164.73C266.869 163.5 267.299 162.48 268.149 161.65C269.009 160.83 270.089 160.42 271.389 160.42C272.689 160.42 273.759 160.83 274.619 161.65C275.479 162.48 275.909 163.5 275.909 164.73C275.909 165.96 275.479 166.99 274.619 167.81C273.759 168.63 272.679 169.04 271.389 169.04C270.099 169.04 269.009 168.63 268.149 167.81Z" fill="white"/>
<path d="M298.969 194.73C300.149 194.08 301.079 193.11 301.789 191.81C302.489 190.52 302.839 188.94 302.839 187.08C302.839 184.31 302.109 182.18 300.649 180.69C299.189 179.2 297.409 178.45 295.309 178.45C293.209 178.45 291.439 179.2 290.029 180.69C288.609 182.18 287.899 184.31 287.899 187.08C287.899 189.85 288.589 191.98 289.979 193.47C291.369 194.97 293.109 195.71 295.209 195.71C296.549 195.71 297.789 195.39 298.969 194.74M287.639 200.26C285.399 199.02 283.629 197.25 282.359 194.98C281.079 192.7 280.439 190.07 280.439 187.09C280.439 184.11 281.099 181.48 282.409 179.2C283.719 176.92 285.519 175.16 287.799 173.92C290.079 172.68 292.619 172.05 295.419 172.05C298.219 172.05 300.769 172.67 303.049 173.92C305.329 175.17 307.119 176.93 308.439 179.2C309.749 181.48 310.409 184.11 310.409 187.09C310.409 190.07 309.729 192.7 308.379 194.98C307.029 197.26 305.209 199.02 302.909 200.26C300.609 201.5 298.039 202.13 295.199 202.13C292.359 202.13 289.869 201.51 287.629 200.26" fill="white"/>
<path d="M340.39 175.38C342.53 177.57 343.6 180.63 343.6 184.56V201.66H336.24V185.57C336.24 183.25 335.66 181.48 334.5 180.23C333.34 178.99 331.76 178.36 329.77 178.36C327.78 178.36 326.13 178.98 324.95 180.23C323.78 181.48 323.19 183.26 323.19 185.57V201.66H315.83V172.52H323.19V176.15C324.17 174.89 325.43 173.9 326.95 173.18C328.47 172.46 330.15 172.1 331.97 172.1C335.44 172.1 338.24 173.2 340.38 175.39" fill="white"/>
<path d="M393.559 164.94V201.65H386.199V186.03H370.479V201.65H363.109V164.94H370.479V180.03H386.199V164.94H393.559Z" fill="white"/>
<path d="M420.28 184.35C420.25 182.46 419.57 180.94 418.23 179.8C416.89 178.66 415.27 178.09 413.34 178.09C411.52 178.09 409.99 178.64 408.74 179.75C407.5 180.85 406.74 182.39 406.45 184.35H420.28ZM427.7 189.29H406.4C406.57 191.4 407.31 193.04 408.61 194.23C409.91 195.42 411.51 196.02 413.39 196.02C416.13 196.02 418.07 194.85 419.23 192.5H427.16C426.33 195.3 424.71 197.61 422.33 199.42C419.95 201.22 417.02 202.13 413.55 202.13C410.75 202.13 408.23 201.51 406 200.26C403.78 199.01 402.04 197.25 400.79 194.97C399.55 192.69 398.92 190.06 398.92 187.09C398.92 184.12 399.53 181.43 400.76 179.15C401.99 176.87 403.7 175.11 405.91 173.89C408.12 172.66 410.66 172.05 413.53 172.05C416.4 172.05 418.78 172.65 420.97 173.84C423.16 175.03 424.86 176.72 426.07 178.91C427.28 181.1 427.88 183.61 427.88 186.46C427.88 187.51 427.81 188.46 427.67 189.3" fill="white"/>
<path d="M453.251 182.48C452.551 181.2 451.601 180.22 450.411 179.53C449.221 178.85 447.931 178.51 446.571 178.51C445.211 178.51 443.941 178.84 442.781 179.51C441.631 180.17 440.691 181.15 439.971 182.43C439.251 183.71 438.891 185.22 438.891 186.97C438.891 188.72 439.251 190.26 439.971 191.57C440.691 192.89 441.631 193.89 442.811 194.6C443.991 195.31 445.231 195.65 446.571 195.65C447.911 195.65 449.221 195.31 450.411 194.63C451.601 193.94 452.541 192.96 453.251 191.68C453.951 190.4 454.301 188.86 454.301 187.08C454.301 185.3 453.951 183.76 453.251 182.48ZM433.141 179.14C434.321 176.86 435.911 175.11 437.921 173.88C439.941 172.65 442.191 172.04 444.681 172.04C446.861 172.04 448.761 172.48 450.391 173.35C452.021 174.23 453.331 175.33 454.311 176.66V172.51H461.731V201.65H454.311V197.39C453.371 198.75 452.061 199.89 450.391 200.78C448.731 201.67 446.801 202.12 444.631 202.12C442.181 202.12 439.941 201.49 437.921 200.23C435.901 198.97 434.311 197.19 433.141 194.89C431.961 192.6 431.381 189.95 431.381 186.97C431.381 183.99 431.971 181.42 433.141 179.14Z" fill="white"/>
<path d="M476.29 162.74H468.93V201.66H476.29V162.74Z" fill="white"/>
<path d="M492.12 178.56V192.66C492.12 193.64 492.36 194.35 492.83 194.79C493.3 195.23 494.1 195.45 495.23 195.45H498.64V201.65H494.02C487.81 201.65 484.71 198.64 484.71 192.6V178.56H481.24V172.51H484.71V165.3H492.13V172.51H498.65V178.56H492.13H492.12Z" fill="white"/>
<path d="M526.259 173.54C527.979 174.51 529.319 175.92 530.279 177.8C531.249 179.67 531.719 181.93 531.719 184.56V201.65H524.359V185.56C524.359 183.25 523.789 181.47 522.619 180.22C521.469 178.98 519.879 178.35 517.889 178.35C515.899 178.35 514.249 178.97 513.079 180.22C511.899 181.47 511.319 183.25 511.319 185.56V201.65H503.949V162.73H511.319V176.15C512.259 174.89 513.529 173.89 515.099 173.17C516.679 172.45 518.429 172.1 520.359 172.1C522.569 172.1 524.529 172.58 526.249 173.54" fill="white"/>
<path d="M570.861 193.13L561.811 184.19C558.411 185.69 556.711 187.83 556.711 190.61C556.711 192.19 557.311 193.51 558.501 194.58C559.691 195.65 561.271 196.18 563.231 196.18C566.101 196.18 568.651 195.16 570.861 193.12M579.481 201.65L575.481 197.71C572.081 200.76 567.931 202.28 563.021 202.28C560.331 202.28 557.951 201.82 555.901 200.89C553.851 199.96 552.261 198.65 551.141 196.95C550.011 195.24 549.461 193.28 549.461 191.03C549.461 188.61 550.151 186.43 551.511 184.5C552.871 182.58 554.891 181.02 557.561 179.82C556.621 178.67 555.931 177.56 555.511 176.48C555.091 175.41 554.891 174.27 554.891 173.04C554.891 171.36 555.331 169.84 556.201 168.49C557.071 167.14 558.331 166.08 559.961 165.31C561.591 164.54 563.491 164.15 565.671 164.15C567.851 164.15 569.771 164.57 571.351 165.41C572.931 166.25 574.101 167.38 574.881 168.78C575.651 170.18 575.981 171.74 575.871 173.46H568.721C568.761 172.3 568.471 171.41 567.881 170.8C567.281 170.18 566.481 169.88 565.461 169.88C564.441 169.88 563.661 170.17 563.011 170.75C562.361 171.32 562.041 172.07 562.041 172.99C562.041 173.91 562.301 174.73 562.821 175.59C563.351 176.45 564.211 177.51 565.401 178.78L574.661 187.93C574.731 187.86 574.781 187.79 574.811 187.72C574.851 187.65 574.881 187.58 574.921 187.51L577.921 182.52H585.601L581.911 188.99C581.211 190.35 580.461 191.65 579.651 192.88L588.541 201.66H579.491L579.481 201.65Z" fill="white"/>
<path d="M610.43 200.7C608.38 199.82 606.76 198.56 605.57 196.91C604.38 195.26 603.76 193.32 603.73 191.07H611.62C611.72 192.58 612.26 193.77 613.22 194.65C614.19 195.53 615.51 195.96 617.19 195.96C618.87 195.96 620.26 195.55 621.24 194.73C622.22 193.9 622.711 192.83 622.711 191.49C622.711 190.4 622.381 189.51 621.711 188.81C621.041 188.11 620.211 187.55 619.211 187.15C618.211 186.75 616.841 186.3 615.081 185.81C612.701 185.11 610.761 184.42 609.271 183.73C607.771 183.04 606.5 182.01 605.43 180.62C604.36 179.23 603.831 177.39 603.831 175.07C603.831 172.89 604.371 171 605.461 169.39C606.551 167.78 608.07 166.54 610.04 165.69C612 164.83 614.241 164.4 616.771 164.4C620.561 164.4 623.63 165.32 626 167.16C628.36 169 629.67 171.57 629.91 174.87H621.81C621.74 173.61 621.211 172.56 620.211 171.74C619.221 170.91 617.89 170.5 616.25 170.5C614.81 170.5 613.66 170.87 612.8 171.61C611.94 172.34 611.51 173.41 611.51 174.82C611.51 175.8 611.84 176.61 612.48 177.26C613.13 177.91 613.941 178.44 614.901 178.84C615.861 179.24 617.22 179.7 618.97 180.23C621.36 180.93 623.3 181.63 624.81 182.34C626.31 183.04 627.611 184.09 628.701 185.49C629.781 186.89 630.331 188.74 630.331 191.01C630.331 192.97 629.82 194.8 628.81 196.48C627.79 198.16 626.311 199.51 624.341 200.51C622.381 201.5 620.05 202.01 617.35 202.01C614.65 202.01 612.48 201.57 610.43 200.7Z" fill="white"/>
<path d="M656.691 182.48C655.991 181.2 655.041 180.22 653.851 179.53C652.661 178.85 651.371 178.51 650.011 178.51C648.651 178.51 647.381 178.84 646.221 179.51C645.071 180.17 644.131 181.15 643.411 182.43C642.691 183.71 642.331 185.22 642.331 186.97C642.331 188.72 642.691 190.26 643.411 191.57C644.131 192.89 645.071 193.89 646.251 194.6C647.431 195.3 648.671 195.65 650.011 195.65C651.351 195.65 652.661 195.31 653.851 194.63C655.041 193.94 655.991 192.96 656.691 191.68C657.391 190.4 657.741 188.86 657.741 187.08C657.741 185.3 657.391 183.76 656.691 182.48ZM636.571 179.14C637.751 176.86 639.341 175.11 641.351 173.88C643.371 172.65 645.621 172.04 648.111 172.04C650.291 172.04 652.191 172.48 653.821 173.35C655.451 174.23 656.761 175.33 657.741 176.66V172.51H665.161V201.65H657.741V197.39C656.801 198.75 655.491 199.89 653.821 200.78C652.161 201.67 650.231 202.12 648.061 202.12C645.611 202.12 643.371 201.49 641.351 200.23C639.331 198.97 637.741 197.19 636.571 194.89C635.391 192.6 634.811 189.95 634.811 186.97C634.811 183.99 635.401 181.42 636.571 179.14Z" fill="white"/>
<path d="M685.72 178.56H680.62V201.65H673.16V178.56H669.84V172.51H673.16V171.04C673.16 167.46 674.18 164.83 676.21 163.15C678.24 161.47 681.31 160.68 685.42 160.78V166.99C683.63 166.95 682.39 167.25 681.68 167.88C680.98 168.51 680.63 169.65 680.63 171.3V172.51H685.73V178.56H685.72Z" fill="white"/>
<path d="M709.96 184.35C709.93 182.46 709.24 180.94 707.91 179.8C706.57 178.66 704.95 178.09 703.02 178.09C701.2 178.09 699.67 178.64 698.42 179.75C697.18 180.85 696.42 182.39 696.13 184.35H709.96ZM717.38 189.29H696.08C696.25 191.4 696.99 193.04 698.29 194.23C699.59 195.42 701.19 196.02 703.07 196.02C705.81 196.02 707.75 194.85 708.91 192.5H716.84C716.01 195.3 714.39 197.61 712.01 199.42C709.63 201.22 706.7 202.13 703.23 202.13C700.43 202.13 697.91 201.51 695.68 200.26C693.46 199.01 691.72 197.25 690.47 194.97C689.23 192.69 688.6 190.06 688.6 187.09C688.6 184.12 689.21 181.43 690.44 179.15C691.67 176.87 693.38 175.11 695.59 173.89C697.8 172.66 700.34 172.05 703.21 172.05C706.08 172.05 708.46 172.65 710.65 173.84C712.84 175.03 714.54 176.72 715.75 178.91C716.96 181.1 717.56 183.61 717.56 186.46C717.56 187.51 717.49 188.46 717.35 189.3" fill="white"/>
<path d="M731.53 178.56V192.66C731.53 193.64 731.77 194.35 732.24 194.79C732.71 195.23 733.51 195.45 734.64 195.45H738.05V201.65H733.43C727.22 201.65 724.12 198.64 724.12 192.6V178.56H720.65V172.51H724.12V165.3H731.54V172.51H738.06V178.56H731.54H731.53Z" fill="white"/>
<path d="M771.24 172.51L753.2 215.43H745.36L751.68 200.91L740 172.51H748.26L755.78 192.87L763.4 172.51H771.24Z" fill="white"/>
<path d="M819.099 201.65H811.739L795.059 176.46V201.65H787.699V164.89H795.059L811.739 190.13V164.89H819.099V201.65Z" fill="white"/>
<path d="M825.359 164.94V171.14H841.769L825.359 195.97V201.65H850.389V195.44H833.879L850.389 170.62V164.94H825.359Z" fill="white"/>
<path d="M138.07 69.04C138.07 107.17 107.16 138.08 69.03 138.08C30.9 138.08 0 107.16 0 69.04C0 30.92 30.91 0 69.03 0C107.15 0 138.07 30.91 138.07 69.04Z" fill="white"/>
<path d="M62.69 80.4802L37.18 47.8302C36.95 47.5402 36.51 47.5202 36.26 47.7902C26.56 58.6002 28.51 76.3702 28.51 76.3702C30.19 79.6102 51.71 80.3302 62.69 80.4802Z" fill="#B3ECB0"/>
<path d="M28.7207 78.1601C28.4607 78.0301 28.1907 77.9701 27.9007 77.9801C25.3307 78.0401 17.1507 78.6001 16.9907 83.5601C16.8307 88.7601 59.8207 90.0401 69.0507 89.9601C69.3607 89.9601 69.7107 89.9601 70.0907 89.9601L64.1107 82.3101C37.4407 81.9701 30.2207 78.8801 28.7207 78.1601Z" fill="#B3ECB0"/>
<path d="M69.0295 80.5201C69.0295 80.5201 107.289 80.7401 109.549 76.3701C109.549 76.3701 111.499 58.6001 101.809 47.7901C101.559 47.5101 101.119 47.5301 100.889 47.8201L92.2395 58.8901C92.1395 59.0301 91.9195 58.9001 91.9895 58.7401L97.8495 44.3401C97.9795 44.0301 97.8995 43.6701 97.6595 43.4401C96.1195 42.0201 90.2895 37.0901 81.0295 34.6101C80.6795 34.5101 80.3195 34.7601 80.2795 35.1201L76.9195 67.6201C76.9095 67.7201 76.7695 67.7101 76.7695 67.6201V33.6401C76.7695 33.6401 76.7695 29.1401 72.2995 29.1401H65.7795C61.3095 29.1401 61.3095 33.6401 61.3095 33.6401V67.6201C61.3095 67.7201 61.1695 67.7201 61.1595 67.6201L57.7995 35.1201C57.7595 34.7601 57.3995 34.5101 57.0495 34.6101C47.7895 37.0901 41.9495 42.0201 40.4195 43.4401C40.1695 43.6701 40.0995 44.0301 40.2295 44.3401L46.0895 58.7401C46.1595 58.9001 45.9395 59.0201 45.8395 58.8901L37.1895 47.8201L62.6995 80.4701C66.4995 80.5201 69.0395 80.5101 69.0495 80.5101" fill="#56D54F"/>
<path d="M121.06 83.5502C120.91 78.5902 112.72 78.0302 110.15 77.9702C109.86 77.9702 109.59 78.0302 109.33 78.1502C107.74 78.9202 99.7496 82.3402 69.0196 82.3402C67.2996 82.3402 65.6696 82.3302 64.0996 82.3102L70.0796 89.9702C81.0896 89.9602 121.21 88.5902 121.05 83.5602" fill="#56D54F"/>
</g>
<defs>
<clipPath id="clip0_1038_2217">
<rect width="850.39" height="215.43" fill="white"/>
</clipPath>
</defs>
</svg>
