<svg width="251" height="60" viewBox="0 0 251 60" fill="none" xmlns="http://www.w3.org/2000/svg">
<g clip-path="url(#clip0_858_1956)">
<path d="M73.5708 14.8801C74.8742 12.5237 76.6883 10.6843 79.0161 9.36819C81.3439 8.05205 83.9857 7.3924 86.9351 7.3924C90.5505 7.3924 93.6458 8.34699 96.221 10.2562C98.7962 12.1654 100.518 14.7691 101.384 18.0674H93.2272C92.6183 16.7956 91.7588 15.8252 90.6457 15.1592C89.5325 14.4932 88.2671 14.1602 86.8495 14.1602C84.5629 14.1602 82.7108 14.9562 81.2932 16.5483C79.8755 18.1403 79.1683 20.2652 79.1683 22.926C79.1683 25.5868 79.8755 27.7148 81.2932 29.3037C82.7108 30.8958 84.5629 31.6918 86.8495 31.6918C88.2671 31.6918 89.5325 31.3588 90.6457 30.6928C91.7588 30.0268 92.6215 29.0595 93.2272 27.7846H101.384C100.515 31.0829 98.793 33.6803 96.221 35.5736C93.6458 37.4701 90.5505 38.4152 86.9351 38.4152C83.9857 38.4152 81.3439 37.7587 79.0161 36.4394C76.6883 35.1232 74.8711 33.2933 73.5708 30.9497C72.2705 28.606 71.6172 25.9293 71.6172 22.9228C71.6172 19.9163 72.2673 17.2301 73.5708 14.8738V14.8801Z" fill="#1C242E"/>
<path d="M132.328 7.74146V38.2061H124.906V25.6631H113.363V38.2061H105.941V7.74146H113.363V19.6755H124.906V7.74146H132.328Z" fill="#1C242E"/>
<path d="M156.63 32.8242H145.26L143.437 38.2061H135.67L146.694 7.74146H155.285L166.309 38.2061H158.453L156.63 32.8242ZM154.721 27.0966L150.947 15.9427L147.214 27.0966H154.721Z" fill="#1C242E"/>
<path d="M174.681 37.4259C172.915 36.7028 171.507 35.6309 170.451 34.2132C169.395 32.7956 168.836 31.0894 168.779 29.0914H176.676C176.79 30.2204 177.18 31.0799 177.846 31.6729C178.512 32.266 179.378 32.5641 180.45 32.5641C181.522 32.5641 182.416 32.3104 183.054 31.8061C183.691 31.3019 184.008 30.5978 184.008 29.7003C184.008 28.9487 183.755 28.3271 183.25 27.8355C182.743 27.344 182.121 26.938 181.386 26.6209C180.647 26.3037 179.6 25.9422 178.24 25.5362C176.27 24.9273 174.665 24.3216 173.422 23.7127C172.179 23.1038 171.107 22.2094 170.21 21.0233C169.312 19.8372 168.865 18.2896 168.865 16.3804C168.865 13.5451 169.892 11.3251 171.948 9.7204C174.003 8.11566 176.679 7.31329 179.974 7.31329C183.269 7.31329 186.035 8.11566 188.09 9.7204C190.145 11.3251 191.242 13.561 191.388 16.4248H183.361C183.304 15.4416 182.943 14.6678 182.277 14.1033C181.611 13.5388 180.758 13.2565 179.718 13.2565C178.82 13.2565 178.097 13.4944 177.548 13.9733C177 14.449 176.724 15.1372 176.724 16.0347C176.724 17.0178 177.187 17.7853 178.113 18.334C179.039 18.8826 180.485 19.4757 182.451 20.1131C184.418 20.7791 186.016 21.4134 187.246 22.0223C188.477 22.6312 189.539 23.5129 190.437 24.6704C191.334 25.828 191.782 27.3186 191.782 29.139C191.782 30.9594 191.341 32.4531 190.459 33.8707C189.577 35.2883 188.296 36.4174 186.619 37.2546C184.941 38.095 182.959 38.5137 180.672 38.5137C178.386 38.5137 176.448 38.1521 174.684 37.4291L174.681 37.4259Z" fill="#1C242E"/>
<path d="M223.588 38.2061H216.167L203.757 19.4154V38.2061H196.336V7.74146H203.757L216.167 26.6177V7.74146H223.588V38.2061Z" fill="#1C242E"/>
<path d="M236.867 32.1296H249.972V38.2061H228.447V32.5641L241.466 13.8179H228.447V7.74146H249.972V13.3834L236.867 32.1296Z" fill="#1C242E"/>
<path d="M73.9383 47.9644C74.2777 47.3682 74.7407 46.9052 75.3306 46.5722C75.9205 46.2392 76.5769 46.0743 77.3064 46.0743C78.1595 46.0743 78.9079 46.2931 79.5517 46.7308C80.1955 47.1684 80.6427 47.7742 80.8996 48.548H79.1363C78.9619 48.1833 78.7145 47.9105 78.3973 47.7266C78.0802 47.5426 77.7123 47.4538 77.2969 47.4538C76.8529 47.4538 76.4564 47.5585 76.1076 47.7646C75.7587 47.9708 75.4892 48.2657 75.2957 48.6463C75.1022 49.0269 75.0039 49.4709 75.0039 49.9815C75.0039 50.4921 75.0991 50.9297 75.2957 51.3135C75.4892 51.6972 75.7587 51.9921 76.1076 52.2015C76.4564 52.4108 76.8497 52.5123 77.2969 52.5123C77.7123 52.5123 78.0802 52.4203 78.3973 52.2332C78.7145 52.0461 78.9619 51.7701 79.1363 51.4054H80.8996C80.6427 52.1856 80.1955 52.7945 79.5581 53.229C78.9175 53.6635 78.169 53.8791 77.3064 53.8791C76.5769 53.8791 75.9173 53.7142 75.3306 53.3812C74.7439 53.0482 74.2777 52.5884 73.9383 51.9953C73.599 51.4054 73.4277 50.7331 73.4277 49.9815C73.4277 49.2298 73.599 48.5543 73.9383 47.9613V47.9644Z" fill="#1C242E"/>
<path d="M83.3321 53.5303C82.8659 53.2703 82.498 52.9056 82.2316 52.4298C81.9652 51.9541 81.832 51.4086 81.832 50.787C81.832 50.1654 81.9684 49.62 82.2443 49.1443C82.5171 48.6685 82.8913 48.3038 83.367 48.0438C83.8427 47.7837 84.3723 47.6537 84.9559 47.6537C85.5394 47.6537 86.069 47.7837 86.5448 48.0438C87.0205 48.3038 87.3947 48.6685 87.6674 49.1443C87.9402 49.62 88.0797 50.1654 88.0797 50.787C88.0797 51.4086 87.9402 51.9541 87.6579 52.4298C87.3757 52.9056 86.9983 53.2703 86.5194 53.5303C86.0405 53.7904 85.5045 53.9204 84.9146 53.9204C84.3248 53.9204 83.8047 53.7904 83.3385 53.5303H83.3321ZM85.6916 52.3791C85.9358 52.2427 86.1325 52.0429 86.2784 51.7702C86.4242 51.5006 86.4972 51.1708 86.4972 50.7839C86.4972 50.2067 86.345 49.7627 86.0437 49.4519C85.7392 49.1411 85.3713 48.9857 84.9305 48.9857C84.4897 48.9857 84.125 49.1411 83.83 49.4519C83.5351 49.7627 83.386 50.2067 83.386 50.7839C83.386 51.3611 83.5287 51.8051 83.8173 52.1159C84.1059 52.4267 84.4675 52.5821 84.9083 52.5821C85.1842 52.5821 85.4474 52.5155 85.6916 52.3791Z" fill="#1C242E"/>
<path d="M94.3186 48.3482C94.7626 48.8049 94.9878 49.4424 94.9878 50.2606V53.8189H93.456V50.4667C93.456 49.9847 93.3355 49.6136 93.0945 49.3536C92.8534 49.0935 92.5236 48.9635 92.1081 48.9635C91.6927 48.9635 91.3502 49.0935 91.106 49.3536C90.8618 49.6136 90.7381 49.9847 90.7381 50.4667V53.8189H89.2031V47.752H90.7381V48.5068C90.9411 48.2436 91.2043 48.0374 91.5214 47.8884C91.8386 47.7393 92.1874 47.6632 92.568 47.6632C93.2911 47.6632 93.8746 47.8916 94.3218 48.3482H94.3186Z" fill="#1C242E"/>
<path d="M97.4282 53.6508C97.0349 53.4732 96.721 53.229 96.4926 52.9214C96.2643 52.6138 96.1374 52.2744 96.1152 51.9034H97.6597C97.6883 52.1381 97.8024 52.3315 98.0054 52.4838C98.2052 52.636 98.4557 52.7153 98.757 52.7153C99.0583 52.7153 99.2771 52.6582 99.442 52.5408C99.607 52.4235 99.6894 52.2744 99.6894 52.0905C99.6894 51.8939 99.5879 51.7448 99.3881 51.6465C99.1883 51.5482 98.868 51.4404 98.4304 51.323C97.9769 51.212 97.6058 51.101 97.3172 50.9837C97.0286 50.8663 96.7812 50.6887 96.5719 50.4477C96.3626 50.2067 96.2611 49.8832 96.2611 49.4741C96.2611 49.1379 96.3563 48.8303 96.5529 48.5544C96.7463 48.2785 97.0254 48.0565 97.3838 47.8979C97.7453 47.7361 98.1703 47.6569 98.6587 47.6569C99.3818 47.6569 99.959 47.8376 100.39 48.1992C100.822 48.5607 101.059 49.0491 101.104 49.6612H99.6355C99.6133 49.4202 99.5118 49.2299 99.3342 49.0872C99.1566 48.9445 98.9156 48.8747 98.6175 48.8747C98.3384 48.8747 98.1259 48.9254 97.9769 49.0269C97.8278 49.1284 97.7517 49.2711 97.7517 49.4551C97.7517 49.6612 97.8532 49.8134 98.0593 49.9213C98.2623 50.0259 98.5826 50.1337 99.0107 50.2447C99.4484 50.3557 99.8099 50.4667 100.095 50.5841C100.381 50.7014 100.628 50.8822 100.834 51.1264C101.044 51.3706 101.151 51.6941 101.158 52.0968C101.158 52.4489 101.059 52.7628 100.866 53.0388C100.673 53.3178 100.393 53.5335 100.035 53.6921C99.6736 53.8475 99.2518 53.9267 98.7697 53.9267C98.2877 53.9267 97.8278 53.8379 97.4345 53.6572L97.4282 53.6508Z" fill="#1C242E"/>
<path d="M104.196 49.011V51.9478C104.196 52.1507 104.247 52.2998 104.345 52.3918C104.443 52.4837 104.608 52.5281 104.843 52.5281H105.557V53.8221H104.592C103.299 53.8221 102.655 53.1941 102.655 51.9382V49.0142H101.932V47.7551H102.655V46.2551H104.199V47.7551H105.557V49.0142H104.199L104.196 49.011Z" fill="#1C242E"/>
<path d="M108.967 47.9391C109.284 47.7552 109.649 47.6664 110.058 47.6664V49.2775H109.652C109.17 49.2775 108.805 49.3916 108.561 49.6168C108.317 49.842 108.193 50.2384 108.193 50.7997V53.8221H106.658V47.7552H108.193V48.6971C108.39 48.3768 108.647 48.1231 108.964 47.9423L108.967 47.9391Z" fill="#1C242E"/>
<path d="M116.815 47.752V53.8189H115.271V53.0514C115.074 53.3147 114.817 53.5208 114.5 53.6699C114.183 53.8189 113.837 53.895 113.466 53.895C112.991 53.895 112.572 53.7936 112.207 53.5938C111.843 53.394 111.554 53.0958 111.348 52.7058C111.142 52.3157 111.037 51.8495 111.037 51.3103V47.752H112.572V51.0915C112.572 51.5736 112.693 51.9446 112.934 52.2047C113.175 52.4647 113.504 52.5948 113.92 52.5948C114.335 52.5948 114.675 52.4647 114.916 52.2047C115.157 51.9446 115.277 51.5736 115.277 51.0915V47.752H116.822H116.815Z" fill="#1C242E"/>
<path d="M118.317 49.1379C118.573 48.6685 118.926 48.3007 119.379 48.0438C119.833 47.7837 120.349 47.6537 120.933 47.6537C121.685 47.6537 122.306 47.8408 122.801 48.2182C123.293 48.5956 123.626 49.1221 123.79 49.8007H122.138C122.049 49.5375 121.903 49.3314 121.694 49.1823C121.485 49.0333 121.228 48.9571 120.92 48.9571C120.483 48.9571 120.134 49.1157 119.88 49.4329C119.626 49.75 119.496 50.2003 119.496 50.787C119.496 51.3738 119.623 51.8114 119.88 52.1286C120.137 52.4457 120.483 52.6043 120.92 52.6043C121.542 52.6043 121.948 52.3252 122.135 51.7734H123.787C123.619 52.4298 123.286 52.9531 122.791 53.34C122.294 53.7269 121.675 53.9204 120.93 53.9204C120.346 53.9204 119.826 53.7904 119.376 53.5303C118.922 53.2703 118.57 52.9055 118.313 52.4362C118.057 51.9668 117.93 51.415 117.93 50.787C117.93 50.1591 118.057 49.6105 118.313 49.1379H118.317Z" fill="#1C242E"/>
<path d="M126.708 49.011V51.9478C126.708 52.1507 126.758 52.2998 126.857 52.3918C126.955 52.4837 127.12 52.5281 127.355 52.5281H128.068V53.8221H127.104C125.81 53.8221 125.166 53.1941 125.166 51.9382V49.0142H124.443V47.7551H125.166V46.2551H126.711V47.7551H128.068V49.0142H126.711L126.708 49.011Z" fill="#1C242E"/>
<path d="M129.275 46.772C129.098 46.6008 129.006 46.3883 129.006 46.1314C129.006 45.8745 129.095 45.662 129.275 45.4908C129.453 45.3195 129.678 45.2339 129.948 45.2339C130.217 45.2339 130.443 45.3195 130.62 45.4908C130.798 45.662 130.89 45.8745 130.89 46.1314C130.89 46.3883 130.801 46.6008 130.62 46.772C130.439 46.9433 130.217 47.0289 129.948 47.0289C129.678 47.0289 129.453 46.9433 129.275 46.772ZM130.703 47.752V53.8189H129.168V47.752H130.703Z" fill="#1C242E"/>
<path d="M133.332 53.5303C132.866 53.2703 132.498 52.9056 132.232 52.4298C131.965 51.9541 131.832 51.4086 131.832 50.787C131.832 50.1654 131.968 49.62 132.244 49.1443C132.517 48.6685 132.891 48.3038 133.367 48.0438C133.843 47.7837 134.372 47.6537 134.956 47.6537C135.539 47.6537 136.069 47.7837 136.545 48.0438C137.02 48.3038 137.395 48.6685 137.667 49.1443C137.94 49.62 138.08 50.1654 138.08 50.787C138.08 51.4086 137.94 51.9541 137.658 52.4298C137.376 52.9056 136.998 53.2703 136.519 53.5303C136.04 53.7904 135.505 53.9204 134.915 53.9204C134.325 53.9204 133.805 53.7904 133.338 53.5303H133.332ZM135.695 52.3791C135.939 52.2427 136.136 52.0429 136.282 51.7702C136.427 51.5006 136.5 51.1708 136.5 50.7839C136.5 50.2067 136.348 49.7627 136.047 49.4519C135.742 49.1411 135.375 48.9857 134.934 48.9857C134.493 48.9857 134.128 49.1411 133.833 49.4519C133.538 49.7627 133.389 50.2067 133.389 50.7839C133.389 51.3611 133.532 51.8051 133.821 52.1159C134.109 52.4267 134.471 52.5821 134.911 52.5821C135.187 52.5821 135.451 52.5155 135.695 52.3791Z" fill="#1C242E"/>
<path d="M144.319 48.3482C144.763 48.8049 144.988 49.4424 144.988 50.2606V53.8189H143.456V50.4667C143.456 49.9847 143.335 49.6136 143.094 49.3536C142.853 49.0935 142.524 48.9635 142.108 48.9635C141.693 48.9635 141.35 49.0935 141.106 49.3536C140.862 49.6136 140.738 49.9847 140.738 50.4667V53.8189H139.203V47.752H140.738V48.5068C140.941 48.2436 141.204 48.0374 141.521 47.8884C141.839 47.7393 142.187 47.6632 142.568 47.6632C143.291 47.6632 143.875 47.8916 144.322 48.3482H144.319Z" fill="#1C242E"/>
<path d="M155.393 46.1726V53.8189H153.858V50.565H150.582V53.8189H149.047V46.1726H150.582V49.3155H153.858V46.1726H155.393Z" fill="#1C242E"/>
<path d="M162.504 51.2469H158.067C158.105 51.6846 158.258 52.0271 158.527 52.2776C158.797 52.525 159.13 52.6487 159.523 52.6487C160.094 52.6487 160.497 52.4045 160.738 51.9161H162.39C162.216 52.4996 161.879 52.9817 161.382 53.3559C160.884 53.7333 160.275 53.9204 159.552 53.9204C158.968 53.9204 158.445 53.7904 157.979 53.5303C157.516 53.2703 157.154 52.9056 156.894 52.4298C156.634 51.9541 156.504 51.4086 156.504 50.787C156.504 50.1654 156.631 49.6073 156.888 49.1316C157.145 48.6559 157.5 48.2911 157.96 48.0374C158.419 47.7805 158.949 47.6537 159.548 47.6537C160.148 47.6537 160.643 47.7774 161.099 48.0247C161.556 48.2721 161.911 48.6241 162.162 49.0808C162.412 49.5375 162.539 50.0608 162.539 50.6538C162.539 50.8727 162.523 51.0693 162.495 51.2469H162.504ZM160.96 50.2162C160.953 49.8229 160.811 49.5058 160.532 49.2679C160.253 49.0301 159.913 48.9127 159.514 48.9127C159.133 48.9127 158.813 49.0269 158.556 49.2584C158.296 49.4899 158.137 49.8071 158.08 50.2162H160.96Z" fill="#1C242E"/>
<path d="M163.636 49.1316C163.88 48.6559 164.213 48.2911 164.632 48.0374C165.051 47.7805 165.52 47.6537 166.04 47.6537C166.494 47.6537 166.89 47.7457 167.229 47.9264C167.569 48.1104 167.841 48.3387 168.044 48.6178V47.752H169.589V53.8189H168.044V52.9309C167.848 53.2163 167.575 53.451 167.229 53.6381C166.884 53.8253 166.484 53.9172 166.031 53.9172C165.52 53.9172 165.054 53.7872 164.635 53.524C164.217 53.2608 163.884 52.8897 163.639 52.4108C163.395 51.9319 163.271 51.3833 163.271 50.7617C163.271 50.1401 163.395 49.6041 163.639 49.1284L163.636 49.1316ZM167.826 49.8261C167.68 49.5597 167.483 49.3536 167.233 49.214C166.985 49.0713 166.719 49.0015 166.433 49.0015C166.148 49.0015 165.885 49.0713 165.644 49.2109C165.403 49.3504 165.206 49.5534 165.057 49.8198C164.908 50.0862 164.832 50.4033 164.832 50.768C164.832 51.1327 164.908 51.453 165.057 51.7258C165.206 51.9985 165.403 52.211 165.647 52.3569C165.891 52.5028 166.151 52.5757 166.43 52.5757C166.709 52.5757 166.982 52.506 167.229 52.3632C167.477 52.2205 167.673 52.0176 167.822 51.7512C167.968 51.4848 168.041 51.1644 168.041 50.7934C168.041 50.4223 167.968 50.102 167.822 49.8356L167.826 49.8261Z" fill="#1C242E"/>
<path d="M172.623 45.7128V53.8189H171.088V45.7128H172.623Z" fill="#1C242E"/>
<path d="M175.921 49.011V51.9478C175.921 52.1507 175.971 52.2998 176.07 52.3918C176.168 52.4837 176.333 52.5281 176.568 52.5281H177.281V53.8221H176.317C175.023 53.8221 174.379 53.1941 174.379 51.9382V49.0142H173.656V47.7551H174.379V46.2551H175.924V47.7551H177.281V49.0142H175.924L175.921 49.011Z" fill="#1C242E"/>
<path d="M183.029 47.9645C183.387 48.1643 183.666 48.4624 183.866 48.8525C184.066 49.2426 184.167 49.7119 184.167 50.2606V53.8189H182.636V50.4667C182.636 49.9847 182.515 49.6136 182.274 49.3536C182.033 49.0935 181.703 48.9635 181.288 48.9635C180.872 48.9635 180.53 49.0935 180.286 49.3536C180.041 49.6136 179.918 49.9847 179.918 50.4667V53.8189H178.383V45.7128H179.918V48.5068C180.114 48.2436 180.378 48.0374 180.707 47.8884C181.037 47.7393 181.402 47.6632 181.802 47.6632C182.261 47.6632 182.671 47.7647 183.029 47.9645Z" fill="#1C242E"/>
<path d="M194.113 53.8189L193.283 52.9975C192.575 53.6318 191.709 53.9489 190.685 53.9489C190.124 53.9489 189.629 53.8506 189.201 53.6571C188.773 53.4637 188.443 53.1909 188.211 52.8357C187.977 52.4805 187.859 52.0714 187.859 51.6021C187.859 51.0978 188.002 50.6443 188.288 50.2447C188.573 49.8419 188.992 49.5184 189.547 49.2711C189.35 49.03 189.207 48.7985 189.118 48.5765C189.03 48.3545 188.988 48.1135 188.988 47.8598C188.988 47.5078 189.08 47.1938 189.261 46.9115C189.445 46.6293 189.705 46.4105 190.044 46.2487C190.384 46.087 190.78 46.0077 191.234 46.0077C191.687 46.0077 192.087 46.0965 192.417 46.2709C192.747 46.4453 192.991 46.68 193.149 46.9718C193.311 47.2636 193.381 47.5902 193.359 47.9454H191.868C191.874 47.7044 191.817 47.5205 191.694 47.3936C191.57 47.2667 191.402 47.2033 191.189 47.2033C190.977 47.2033 190.815 47.2636 190.679 47.3841C190.542 47.5046 190.476 47.66 190.476 47.8503C190.476 48.0406 190.53 48.215 190.641 48.3926C190.752 48.5702 190.929 48.7922 191.177 49.0554L193.105 50.9614C193.105 50.9614 193.13 50.9329 193.137 50.917C193.143 50.9012 193.152 50.8885 193.159 50.8726L193.784 49.8324H195.382L194.615 51.1803C194.469 51.4657 194.31 51.7353 194.142 51.9921L195.994 53.8221H194.11L194.113 53.8189ZM192.318 52.0461L190.435 50.1844C189.727 50.4984 189.372 50.9456 189.372 51.5196C189.372 51.8494 189.496 52.1253 189.743 52.3473C189.991 52.5693 190.32 52.6803 190.73 52.6803C191.329 52.6803 191.859 52.4679 192.318 52.0461Z" fill="#1C242E"/>
<path d="M200.559 53.6223C200.131 53.4384 199.795 53.1783 199.548 52.8326C199.3 52.4901 199.17 52.0842 199.164 51.618H200.807C200.829 51.9319 200.94 52.1793 201.14 52.3633C201.34 52.5472 201.616 52.636 201.968 52.636C202.32 52.636 202.605 52.5504 202.811 52.3791C203.017 52.2079 203.119 51.9827 203.119 51.7068C203.119 51.4816 203.049 51.2945 202.91 51.1486C202.77 51.0027 202.599 50.8885 202.389 50.8029C202.18 50.7205 201.895 50.6253 201.53 50.5238C201.032 50.3779 200.629 50.2321 200.318 50.0925C200.008 49.9498 199.741 49.7342 199.519 49.4456C199.297 49.157 199.186 48.7732 199.186 48.2912C199.186 47.8376 199.3 47.4444 199.526 47.1082C199.751 46.772 200.068 46.5152 200.477 46.3376C200.886 46.16 201.352 46.068 201.879 46.068C202.668 46.068 203.309 46.2583 203.801 46.642C204.292 47.0258 204.565 47.5617 204.616 48.2468H202.929C202.913 47.9835 202.802 47.7679 202.596 47.5934C202.389 47.419 202.11 47.3366 201.768 47.3366C201.47 47.3366 201.229 47.4127 201.051 47.5681C200.873 47.7235 200.781 47.9455 200.781 48.2372C200.781 48.4434 200.848 48.6115 200.984 48.7478C201.121 48.8842 201.289 48.992 201.489 49.0777C201.689 49.1633 201.974 49.2584 202.339 49.3694C202.837 49.5153 203.239 49.6612 203.553 49.8071C203.867 49.953 204.137 50.1718 204.365 50.4636C204.594 50.7553 204.705 51.1391 204.705 51.6148C204.705 52.0239 204.6 52.4045 204.387 52.7533C204.175 53.1054 203.864 53.3844 203.455 53.5906C203.046 53.7999 202.561 53.9014 201.999 53.9014C201.438 53.9014 200.984 53.8094 200.559 53.6287V53.6223Z" fill="#1C242E"/>
<path d="M206.001 49.1316C206.246 48.6559 206.579 48.2911 206.997 48.0374C207.416 47.7805 207.885 47.6537 208.405 47.6537C208.859 47.6537 209.255 47.7457 209.595 47.9264C209.934 48.1104 210.207 48.3387 210.41 48.6178V47.752H211.954V53.8189H210.41V52.9309C210.213 53.2163 209.94 53.451 209.595 53.6381C209.249 53.8253 208.849 53.9172 208.396 53.9172C207.885 53.9172 207.419 53.7872 207 53.524C206.582 53.2608 206.249 52.8897 206.005 52.4108C205.76 51.9319 205.637 51.3833 205.637 50.7617C205.637 50.1401 205.76 49.6041 206.005 49.1284L206.001 49.1316ZM210.191 49.8261C210.045 49.5597 209.848 49.3536 209.598 49.214C209.35 49.0713 209.084 49.0015 208.799 49.0015C208.513 49.0015 208.25 49.0713 208.009 49.2109C207.768 49.3504 207.571 49.5534 207.422 49.8198C207.273 50.0862 207.197 50.4033 207.197 50.768C207.197 51.1327 207.273 51.453 207.422 51.7258C207.571 51.9985 207.768 52.211 208.012 52.3569C208.256 52.5028 208.516 52.5757 208.795 52.5757C209.075 52.5757 209.347 52.506 209.595 52.3632C209.842 52.2205 210.039 52.0176 210.188 51.7512C210.334 51.4848 210.407 51.1644 210.407 50.7934C210.407 50.4223 210.334 50.102 210.188 49.8356L210.191 49.8261Z" fill="#1C242E"/>
<path d="M216.239 49.011H215.177V53.8189H213.623V49.011H212.932V47.752H213.623V47.4444C213.623 46.6991 213.836 46.1504 214.257 45.8016C214.679 45.4495 215.32 45.2878 216.173 45.31V46.6039C215.802 46.5976 215.542 46.6578 215.396 46.791C215.25 46.9242 215.177 47.1589 215.177 47.5046V47.7552H216.239V49.0142V49.011Z" fill="#1C242E"/>
<path d="M222.832 51.2469H218.396C218.434 51.6846 218.586 52.0271 218.855 52.2776C219.125 52.525 219.458 52.6487 219.851 52.6487C220.422 52.6487 220.825 52.4045 221.066 51.9161H222.718C222.544 52.4996 222.208 52.9817 221.71 53.3559C221.212 53.7333 220.603 53.9204 219.88 53.9204C219.296 53.9204 218.773 53.7904 218.307 53.5303C217.844 53.2703 217.482 52.9056 217.222 52.4298C216.962 51.9541 216.832 51.4086 216.832 50.787C216.832 50.1654 216.959 49.6073 217.216 49.1316C217.473 48.6559 217.828 48.2911 218.288 48.0374C218.748 47.7805 219.277 47.6537 219.877 47.6537C220.476 47.6537 220.971 47.7774 221.427 48.0247C221.884 48.2721 222.239 48.6241 222.49 49.0808C222.74 49.5375 222.867 50.0608 222.867 50.6538C222.867 50.8727 222.851 51.0693 222.823 51.2469H222.832ZM221.288 50.2162C221.282 49.8229 221.139 49.5058 220.86 49.2679C220.581 49.0301 220.241 48.9127 219.842 48.9127C219.461 48.9127 219.141 49.0269 218.884 49.2584C218.624 49.4899 218.465 49.8071 218.408 50.2162H221.288Z" fill="#1C242E"/>
<path d="M225.78 49.011V51.9478C225.78 52.1507 225.831 52.2998 225.929 52.3918C226.027 52.4837 226.192 52.5281 226.427 52.5281H227.141V53.8221H226.176C224.882 53.8221 224.239 53.1941 224.239 51.9382V49.0142H223.516V47.7551H224.239V46.2551H225.783V47.7551H227.141V49.0142H225.783L225.78 49.011Z" fill="#1C242E"/>
<path d="M234.05 47.752L230.292 56.6891H228.659L229.972 53.6667L227.539 47.752H229.258L230.825 51.9922L232.414 47.752H234.047H234.05Z" fill="#1C242E"/>
<path d="M244.014 53.8189H242.482L239.01 48.5734V53.8189H237.475V46.1631H239.01L242.482 51.4213V46.1631H244.014V53.8189Z" fill="#1C242E"/>
<path d="M247.094 52.5281H250.532V53.8221H245.318V52.6391L248.737 47.4697H245.318V46.1758H250.532V47.3587L247.094 52.5281Z" fill="#1C242E"/>
<path d="M29.9984 59.9968C46.5661 59.9968 59.9968 46.5661 59.9968 29.9984C59.9968 13.4307 46.5661 0 29.9984 0C13.4307 0 0 13.4307 0 29.9984C0 46.5661 13.4307 59.9968 29.9984 59.9968Z" fill="#56D54F"/>
<path d="M29.9968 34.9934C29.9968 34.9934 46.6245 35.0854 47.6076 33.192C47.6076 33.192 48.4544 25.4665 44.2428 20.7728C44.1349 20.6523 43.9415 20.6618 43.8432 20.7886L40.0851 25.5997C40.0407 25.6567 39.9455 25.606 39.9741 25.5362L42.5207 19.279C42.5778 19.1427 42.5429 18.9873 42.4351 18.8858C41.7691 18.2705 39.2319 16.1235 35.2074 15.0484C35.0552 15.0071 34.8966 15.115 34.8808 15.2735L33.4219 29.399C33.4187 29.4402 33.3553 29.4371 33.3553 29.3958V14.6266C33.3553 14.6266 33.3553 12.6698 31.4144 12.6698H28.5823C26.6383 12.6698 26.6383 14.6266 26.6383 14.6266V29.3958C26.6383 29.4371 26.5748 29.4402 26.5717 29.399L25.1128 15.2735C25.097 15.115 24.9416 15.0071 24.7862 15.0484C20.7616 16.1266 18.2245 18.2705 17.5585 18.8858C17.4507 18.9873 17.4158 19.1427 17.4729 19.279L20.0195 25.5362C20.0481 25.606 19.9561 25.6599 19.9085 25.5997L16.1504 20.7886L27.2377 34.9775C28.89 34.9997 29.9936 34.9934 29.9936 34.9934H29.9968Z" fill="white"/>
<path opacity="0.75" d="M27.2417 34.9744L16.1544 20.7854C16.0561 20.6586 15.8627 20.6491 15.7548 20.7696C11.5432 25.4665 12.39 33.1889 12.39 33.1889C13.1194 34.597 22.4751 34.9078 27.2449 34.9744H27.2417Z" fill="#D5F5D3"/>
<path opacity="0.75" d="M12.4822 33.9659C12.3712 33.912 12.2507 33.8835 12.127 33.8867C11.0106 33.9089 7.45548 34.1531 7.38888 36.3128C7.31594 38.574 26.0019 39.1322 30.0106 39.0973C30.1438 39.0973 30.296 39.0973 30.4641 39.0973L27.8635 35.7705C16.272 35.6214 13.1355 34.2799 12.4853 33.9659H12.4822Z" fill="#B5EDB2"/>
<path d="M52.611 36.3096C52.5444 34.153 48.9861 33.9088 47.873 33.8834C47.7493 33.8834 47.6288 33.9088 47.5178 33.9627C46.8264 34.2957 43.3569 35.7799 29.9989 35.7799C29.2536 35.7799 28.5464 35.7736 27.8613 35.7672L30.4619 39.0941C35.2476 39.0877 52.6808 38.4947 52.611 36.3096Z" fill="white"/>
</g>
<defs>
<clipPath id="clip0_858_1956">
<rect width="250.532" height="60" fill="white"/>
</clipPath>
</defs>
</svg>
