<svg width="174" height="52" viewBox="0 0 174 52" fill="none" xmlns="http://www.w3.org/2000/svg">
<g clip-path="url(#clip0_470_1389)">
<mask id="mask0_470_1389" style="mask-type:luminance" maskUnits="userSpaceOnUse" x="0" y="0" width="174" height="52">
<path d="M174 0H0V52H174V0Z" fill="white"/>
</mask>
<g mask="url(#mask0_470_1389)">
<path d="M48.9084 10.9088V21.7157H36.8085V10.9088H30.0049V37.845H36.8085V26.9213H48.9084V37.845H55.7166V10.9088H48.9084ZM137.947 10.9088V26.9677L123.371 10.9088H117.407V37.845H124.139V20.9208L139.345 37.845H144.674V10.9088H137.947ZM148.687 10.9088V15.918H162.411C157.425 23.2276 152.439 30.5366 147.453 37.845H173.919V32.6402H159.147L174.001 10.9088H148.687ZM95.571 12.631C94.6731 13.2667 93.9446 14.1092 93.4485 15.086C92.9523 16.0628 92.7034 17.1445 92.7232 18.2378C92.6904 19.2365 92.8675 20.231 93.2431 21.1582C93.6188 22.0854 94.1848 22.9252 94.9054 23.6241C96.3664 25.0286 99.0334 26.4069 102.907 27.7588C103.975 28.0524 104.985 28.5256 105.893 29.1578C106.126 29.3861 106.304 29.6641 106.413 29.9705C106.522 30.277 106.56 30.604 106.522 30.9269C106.485 31.2498 106.375 31.5601 106.199 31.8345C106.023 32.1088 105.787 32.34 105.508 32.5105C104.567 32.9674 103.523 33.1757 102.476 33.1155C101.079 33.1023 99.6935 32.8484 98.3833 32.3651C96.5717 31.6585 94.8362 30.7736 93.2029 29.7238V35.7049C96.0357 37.4328 99.3005 38.3395 102.627 38.3221C105.998 38.3221 108.635 37.61 110.536 36.1857C111.457 35.5115 112.198 34.6241 112.694 33.601C113.19 32.5778 113.426 31.45 113.381 30.3158C113.414 28.9407 113.104 27.5788 112.479 26.3507C111.86 25.2018 110.935 24.2429 109.805 23.5778C108.02 22.6057 106.154 21.7874 104.228 21.132C103.697 20.9412 103.293 20.7976 103.038 20.6929C102.051 20.3689 101.122 19.8894 100.288 19.2727C100.022 19.0943 99.8017 18.858 99.6429 18.5819C99.484 18.3058 99.3912 17.9973 99.3716 17.6801C99.369 17.3451 99.4639 17.0165 99.6448 16.7334C99.8256 16.4504 100.085 16.2249 100.392 16.0839C101.317 15.6602 102.334 15.4693 103.352 15.528C104.698 15.5514 106.033 15.7731 107.313 16.1858C109.007 16.7189 110.651 17.3962 112.227 18.21V12.6709C110.754 11.9679 109.211 11.4193 107.623 11.0339C106.104 10.6647 104.545 10.4781 102.98 10.478C100.337 10.3563 97.7282 11.1156 95.571 12.6347M5.04868 14.2755C3.64713 15.5589 2.54331 17.1284 1.8134 18.8757C1.08349 20.6229 0.744864 22.5063 0.8209 24.3959C0.804786 26.3114 1.17312 28.211 1.90449 29.9841C2.61227 31.7012 3.68165 33.2488 5.0412 34.5237C6.3877 35.7746 7.97867 36.7388 9.71588 37.3567C11.5972 38.0127 13.5799 38.3375 15.5742 38.3165C17.3915 38.3241 19.2022 38.099 20.9613 37.6467C22.7155 37.1763 24.4006 36.4822 25.9744 35.5817V29.2819C24.4581 30.3414 22.8054 31.1948 21.0604 31.8194C19.4825 32.3782 17.8201 32.667 16.1445 32.6736C15.0317 32.7293 13.9192 32.5579 12.876 32.1702C11.8327 31.7825 10.8809 31.1866 10.0796 30.4196C9.31231 29.6176 8.717 28.6699 8.32958 27.6336C7.94215 26.5974 7.77066 25.4941 7.82544 24.3903C7.76491 23.2658 7.94428 22.1413 8.35185 21.0902C8.75942 20.039 9.38604 19.0848 10.1908 18.2897C11.9718 16.7377 14.2973 15.9421 16.6653 16.0746C18.2104 16.0781 19.7456 16.32 21.2156 16.7917C22.815 17.308 24.337 18.0353 25.7407 18.954V12.631C24.2505 11.9062 22.6823 11.3508 21.066 10.9755C19.4757 10.612 17.8485 10.4308 16.2165 10.4354C11.5923 10.4354 7.87063 11.7154 5.05148 14.2755" fill="#7ABC25"/>
<path d="M71.6685 2.5292V13.7215L70.554 2.77933C68.4908 3.28296 66.5928 4.30385 65.0426 5.74393L67.0555 10.7578L64.0254 6.82786C60.84 10.2168 61.4664 16.0079 61.4664 16.0079C62.1686 17.3837 74.0722 17.1901 74.0722 17.1901C74.0722 17.1901 85.9739 17.3837 86.6779 16.0079C86.6779 16.0079 87.3043 10.2168 84.1181 6.82786L81.0889 10.7587L83.1018 5.74393C81.5515 4.30385 79.6536 3.28296 77.5904 2.77933L76.4778 13.7215V2.5292C76.4778 2.5292 76.4778 0.728201 74.0722 0.573486C71.6685 0.728201 71.6685 2.5292 71.6685 2.5292Z" fill="#7ABC25"/>
</g>
<mask id="mask1_470_1389" style="mask-type:luminance" maskUnits="userSpaceOnUse" x="0" y="0" width="174" height="52">
<path d="M174 0H0V52H174V0Z" fill="white"/>
</mask>
<g mask="url(#mask1_470_1389)">
<path d="M87.2183 16.511C87.2183 16.511 85.5354 17.6922 73.7113 17.7154H72.4959C60.8354 17.6913 61.5132 16.511 61.5132 16.511H61.4197C60.8587 16.511 57.8482 16.5888 57.7959 18.2712C57.7426 19.9212 70.3147 19.8925 73.1419 19.8675C76.4142 19.8925 90.9749 19.9212 90.9235 18.2712C90.8692 16.587 87.8597 16.511 87.2978 16.511H87.2183Z" fill="#7ABC25"/>
<path d="M0 42.4929L83.6581 42.8635L167.318 42.4929L83.6581 42.1223L0 42.4929Z" fill="#7ABC25"/>
<path d="M78.9469 20.4946V25.4641H69.7892V20.5215C67.6763 20.4984 65.051 20.4289 62.7959 20.2436V37.568H69.7892V30.3075H78.9469V37.568H85.9384V20.1871C83.788 20.3659 81.2403 20.452 78.9469 20.4946Z" fill="#7ABC25"/>
</g>
<mask id="mask2_470_1389" style="mask-type:luminance" maskUnits="userSpaceOnUse" x="0" y="0" width="174" height="52">
<path d="M174 0H0V52H174V0Z" fill="white"/>
</mask>
<g mask="url(#mask2_470_1389)">
<path d="M7.22988 50.5047V51.4525C6.89303 51.6271 6.53737 51.7635 6.16966 51.8592C5.82068 51.9511 5.4612 51.9981 5.10009 51.9991C4.77214 52 4.4456 51.9564 4.12963 51.8694C3.82093 51.7801 3.52659 51.6479 3.25547 51.4765C2.82678 51.2023 2.47342 50.827 2.22704 50.3843C1.98322 49.9404 1.85712 49.4425 1.86054 48.9372C1.86223 48.5402 1.94531 48.1477 2.10474 47.7834C2.26417 47.4192 2.49663 47.0909 2.788 46.8184C3.0933 46.5289 3.45458 46.3036 3.85009 46.156C4.26897 46.0031 4.71264 45.9278 5.159 45.9337C5.49273 45.9336 5.82533 45.9721 6.15003 46.0486C6.50416 46.133 6.84873 46.2528 7.17846 46.4062V47.3178C6.84264 47.132 6.48787 46.982 6.12011 46.8703C5.80845 46.7764 5.48475 46.7274 5.159 46.7249C4.84459 46.7145 4.53121 46.7657 4.23681 46.8755C3.94241 46.9854 3.67278 47.1517 3.44339 47.365C3.22929 47.5733 3.05905 47.8216 2.94252 48.0956C2.82599 48.3695 2.76549 48.6637 2.76453 48.961C2.76358 49.2583 2.82218 49.5528 2.93694 49.8275C3.05171 50.1022 3.22035 50.3516 3.4331 50.5612C3.65531 50.7733 3.9181 50.9392 4.20599 51.0492C4.49388 51.1591 4.80106 51.2109 5.10944 51.2014C5.46451 51.1994 5.81702 51.1416 6.15377 51.03C6.53404 50.9014 6.89603 50.7249 7.23081 50.5047M8.78187 48.9696C8.7797 49.2621 8.83647 49.552 8.94885 49.8225C9.06123 50.0929 9.22696 50.3384 9.43633 50.5446C9.6421 50.7536 9.88905 50.9185 10.1618 51.0291C10.7212 51.2539 11.347 51.2539 11.9064 51.0291C12.1804 50.9165 12.4287 50.7505 12.6366 50.5408C12.845 50.334 13.0108 50.0888 13.1247 49.8192C13.3509 49.2727 13.3509 48.66 13.1247 48.1136C13.0064 47.8406 12.8363 47.5928 12.6235 47.3836C12.4185 47.1703 12.1707 47.0018 11.8961 46.8888C11.6214 46.7761 11.3268 46.7185 11.0295 46.7193C10.7361 46.7189 10.4457 46.7775 10.1759 46.8916C9.8983 47.0059 9.64608 47.173 9.43352 47.3836C9.22136 47.585 9.05471 47.8288 8.94455 48.0988C8.83176 48.3735 8.77458 48.6675 8.77626 48.9641M7.87499 48.9316C7.87528 48.5395 7.95707 48.1516 8.11526 47.7921C8.27572 47.4236 8.50906 47.0906 8.80151 46.8129C9.39894 46.2408 10.1987 45.9232 11.0295 45.9281C11.4473 45.9264 11.8615 46.0044 12.2496 46.1579C12.8269 46.376 13.3229 46.7643 13.6708 47.2703C14.0187 47.7763 14.2017 48.3759 14.1952 48.9881C14.196 49.3839 14.1146 49.7756 13.9558 50.1388C13.7983 50.5048 13.5666 50.835 13.2752 51.1088C12.9796 51.3939 12.6301 51.6184 12.2467 51.7693C11.4665 52.0701 10.6004 52.0681 9.82152 51.7637C9.44227 51.6133 9.09639 51.3908 8.80338 51.1088C8.50666 50.8277 8.2712 50.4894 8.11152 50.1147C7.95353 49.7401 7.8737 49.3376 7.87685 48.9316M15.146 51.8972V46.0291H15.8836L19.7823 50.5835V46.0291H20.6238V51.8972H19.8758L15.9874 47.3409V51.8999L15.146 51.8972ZM21.5868 51.4339V50.3333C21.8035 50.594 22.063 50.8167 22.3543 50.992C22.5936 51.1239 22.8631 51.1928 23.1369 51.1921C23.3843 51.2063 23.629 51.1346 23.8287 50.9892C23.912 50.9237 23.9785 50.8396 24.0228 50.7438C24.0672 50.6481 24.0881 50.5433 24.084 50.438C24.0875 50.2566 24.027 50.0796 23.9129 49.9377C23.6715 49.6926 23.3964 49.4823 23.0957 49.3133C22.6252 49.0489 22.1994 48.7132 21.8336 48.3183C21.6605 48.0726 21.5711 47.7786 21.5783 47.479C21.5722 47.2678 21.6128 47.0578 21.6972 46.8639C21.7817 46.6699 21.908 46.4966 22.0673 46.3561C22.415 46.0558 22.8658 45.8989 23.3267 45.9179C23.5556 45.9179 23.7833 45.951 24.0026 46.0161C24.2385 46.0885 24.4638 46.191 24.673 46.3209V47.2742C24.4544 47.0927 24.2127 46.9404 23.954 46.8212C23.7476 46.7313 23.525 46.6838 23.2996 46.6813C23.0652 46.6699 22.8341 46.739 22.6451 46.8768C22.5654 46.9344 22.5009 47.0102 22.4569 47.0978C22.413 47.1853 22.3909 47.2821 22.3927 47.3798C22.3927 47.6701 22.7408 48.0308 23.437 48.4619L23.5623 48.5379C23.9935 48.7692 24.3731 49.0843 24.6786 49.4643C24.862 49.7626 24.9533 50.1075 24.9413 50.4565C24.9468 50.6661 24.9058 50.8743 24.8212 51.0664C24.7365 51.2585 24.6103 51.4299 24.4514 51.5683C24.1028 51.867 23.6525 52.023 23.192 52.0046C22.8988 52.0089 22.6069 51.9634 22.3291 51.8703C22.0576 51.7741 21.806 51.6297 21.5868 51.4441M27.4909 51.9073V46.7943H25.3125V46.0291H30.506V46.7943H28.3286V51.8972L27.4909 51.9073ZM31.1923 51.9073V46.0291H32.9266C33.4246 45.9971 33.9173 46.1463 34.3122 46.4488C34.4773 46.5982 34.6068 46.7823 34.691 46.9876C34.7753 47.1929 34.8123 47.4143 34.7993 47.6355C34.8156 47.9668 34.7216 48.2943 34.5319 48.5675C34.3151 48.8276 34.0204 49.0126 33.6904 49.0956C33.7937 49.1526 33.8882 49.2241 33.9709 49.3078C34.0974 49.4451 34.2113 49.5933 34.3112 49.7506L35.7492 51.8972H34.7207L33.7063 50.3574C33.5119 50.0227 33.2623 49.7227 32.9677 49.4699C32.7705 49.3378 32.5363 49.2704 32.2983 49.2772H32.0431V51.8972L31.1923 51.9073ZM32.0412 48.5824H32.7443C33.0565 48.6045 33.3676 48.5255 33.6306 48.3572C33.8152 48.1731 33.92 47.9248 33.9227 47.6652C33.9253 47.4057 33.8255 47.1553 33.6446 46.9676C33.3758 46.8014 33.06 46.7257 32.7443 46.7517H32.0412V48.5824ZM36.0614 46.0393H36.9029V49.4069C36.8933 49.6742 36.914 49.9418 36.9646 50.2046C37.0022 50.3534 37.0724 50.4923 37.1703 50.6113C37.3381 50.8106 37.5511 50.9678 37.792 51.0698C38.052 51.1731 38.33 51.2241 38.6101 51.2199C39.0577 51.2412 39.498 51.1014 39.8498 50.8262C40.0026 50.6993 40.1241 50.5396 40.2051 50.3591C40.2861 50.1787 40.3245 49.9823 40.3173 49.7849V46.0291H41.1587V49.8006C41.1685 50.1011 41.1101 50.4 40.9877 50.6751C40.8654 50.9503 40.6823 51.1947 40.4519 51.3904C39.9343 51.8121 39.2775 52.0289 38.6082 51.9991C38.1909 52.0058 37.7768 51.9256 37.3928 51.7637C37.0361 51.6087 36.7227 51.3703 36.4794 51.0689C36.329 50.8919 36.2187 50.685 36.1559 50.4621C36.0808 50.1237 36.0494 49.7772 36.0624 49.431L36.0614 46.0393ZM47.4461 50.5149V51.4627C47.1094 51.6376 46.7537 51.774 46.3859 51.8694C46.037 51.9614 45.6775 52.0084 45.3164 52.0093C44.9884 52.0101 44.6619 51.9665 44.3459 51.8796C44.0373 51.7902 43.743 51.6579 43.4717 51.4867C43.0431 51.2125 42.6897 50.8372 42.4433 50.3945C42.1995 49.9506 42.0734 49.4527 42.0768 48.9474C42.0772 48.5484 42.16 48.1538 42.32 47.7877C42.4799 47.4215 42.7138 47.0917 43.0071 46.8184C43.312 46.5289 43.673 46.3036 44.0682 46.156C44.4871 46.0031 44.9308 45.9278 45.3771 45.9337C45.7106 45.9337 46.0428 45.9723 46.3672 46.0486C46.7213 46.1332 47.0659 46.253 47.3957 46.4062V47.3178C47.0594 47.1321 46.7044 46.9821 46.3364 46.8703C46.025 46.7763 45.7017 46.7274 45.3762 46.7249C45.0618 46.7142 44.7483 46.7653 44.4539 46.8752C44.1594 46.985 43.8898 47.1515 43.6606 47.365C43.4466 47.5733 43.2763 47.8216 43.1598 48.0955C43.0433 48.3694 42.9827 48.6635 42.9817 48.9608C42.9806 49.2581 43.0391 49.5526 43.1537 49.8273C43.2683 50.102 43.4368 50.3515 43.6494 50.5612C43.8714 50.7733 44.134 50.9392 44.4218 51.0491C44.7095 51.1591 45.0165 51.2109 45.3248 51.2014C45.6805 51.1995 46.0336 51.1417 46.371 51.03C46.751 50.9016 47.1127 50.725 47.4471 50.5047M50.0219 51.8944V46.7943H47.8435V46.0291H53.038V46.7943H50.8605V51.8972L50.0219 51.8944ZM53.7616 46.0263H54.6115V51.8944H53.7588L53.7616 46.0263ZM56.4842 48.9668C56.4825 49.2592 56.5395 49.549 56.6518 49.8194C56.7642 50.0898 56.9296 50.3353 57.1386 50.5418C57.345 50.7511 57.5926 50.916 57.866 51.0263C58.4254 51.2512 59.0512 51.2512 59.6106 51.0263C59.8847 50.914 60.1331 50.7479 60.3408 50.5381C60.5489 50.3307 60.7149 50.0857 60.8298 49.8164C60.9426 49.5452 61.0004 49.2546 60.9999 48.9613C61.0018 48.6695 60.9446 48.3803 60.8316 48.1108C60.7135 47.838 60.5437 47.5902 60.3314 47.3808C60.1259 47.1672 59.8775 46.9987 59.6022 46.8861C59.3278 46.7731 59.0335 46.7154 58.7364 46.7165C58.4431 46.7162 58.1527 46.7748 57.8828 46.8888C57.6036 47.0031 57.3496 47.1702 57.1349 47.3808C56.9245 47.5833 56.7586 47.8268 56.6478 48.096C56.5354 48.3708 56.4783 48.6647 56.4795 48.9613M55.5773 48.9288C55.5777 48.5364 55.6604 48.1483 55.8204 47.7893C55.9791 47.4201 56.2123 47.0869 56.5057 46.8101C56.8022 46.5269 57.1515 46.3035 57.5341 46.1523C57.9166 46.0012 58.3247 45.9241 58.7364 45.9253C59.1542 45.9236 59.5685 46.0016 59.9565 46.1551C60.7216 46.4623 61.3348 47.0543 61.6647 47.8042C61.8218 48.1796 61.9007 48.5826 61.8965 48.9891C61.8977 49.3848 61.8166 49.7765 61.6581 50.1397C61.5006 50.5055 61.2693 50.8356 60.9784 51.1097C60.6825 51.3944 60.3331 51.6189 59.95 51.7702C59.168 52.0723 58.2997 52.0703 57.5191 51.7647C57.1399 51.6147 56.7943 51.3921 56.5019 51.1097C56.2075 50.8297 55.9739 50.493 55.8157 50.1202C55.6574 49.7457 55.5772 49.3433 55.5801 48.9372M62.8455 51.8972V46.0291H63.5757L67.4809 50.5835V46.0291H68.3223V51.8972H67.5744L63.6813 47.3409V51.8999L62.8455 51.8972ZM71.7741 51.8972V46.0291H72.6156V48.5555H76.0318V46.0291H76.8733V51.8972H76.0318V49.3448H72.6109V51.8972H71.7741ZM78.1373 51.8972V46.0291H81.7003V46.7758H78.9741V48.5555H81.6199V49.3105H78.9741V51.1393H81.7789V51.8953L78.1373 51.8972ZM83.9816 49.4143H85.8271L84.8922 47.3002L83.9816 49.4143ZM82.0304 51.8972L84.5968 46.0291H85.2138L87.8129 51.8972H86.9378L86.1749 50.1703H83.6506L82.9027 51.8972H82.0304ZM88.2814 51.8972V46.0291H89.1228V51.1393H91.9407V51.8953L88.2814 51.8972ZM93.7619 51.8972V46.7943H91.5826V46.0291H96.7752V46.7943H94.5996V51.8972H93.7619ZM97.4727 51.8972V46.0291H98.3141V48.5555H101.73V46.0291H102.572V51.8972H101.73V49.3448H98.3141V51.8972H97.4727ZM107.148 49.4143H108.995L108.06 47.3002L107.148 49.4143ZM105.197 51.8972L107.762 46.0291H108.38L110.979 51.8972H110.104L109.341 50.1703H106.816L106.069 51.8972H105.197ZM111.421 51.8972V46.0291H112.158L116.06 50.5835V46.0291H116.902V51.8972H116.147L112.259 47.3409V51.8999L111.421 51.8972ZM120.344 46.8286H119.007V51.0986H120.344C120.971 51.1338 121.587 50.9295 122.066 50.5279C122.468 50.1047 122.692 49.5455 122.692 48.9645C122.692 48.3835 122.468 47.8244 122.066 47.4012C121.588 46.9981 120.971 46.7931 120.344 46.8286ZM120.344 46.0291C120.724 46.0229 121.103 46.0637 121.473 46.1505C121.855 46.2492 122.212 46.4266 122.521 46.6709C122.83 46.9153 123.083 47.2212 123.265 47.5688C123.481 48.002 123.594 48.4788 123.594 48.9622C123.594 49.4456 123.481 49.9224 123.265 50.3556C123.05 50.7733 122.731 51.1295 122.338 51.3904C122.077 51.5688 121.785 51.699 121.476 51.7749C121.106 51.862 120.726 51.9031 120.346 51.8972H118.168V46.0291H120.344ZM126.474 51.4386V50.3333C126.691 50.5949 126.951 50.8177 127.243 50.992C127.481 51.124 127.75 51.1929 128.023 51.1921C128.27 51.2066 128.515 51.1349 128.715 50.9892C128.799 50.9239 128.866 50.8399 128.91 50.7441C128.955 50.6483 128.976 50.5434 128.972 50.438C128.975 50.2565 128.914 50.0795 128.8 49.9377C128.558 49.6926 128.283 49.4823 127.982 49.3133C127.512 49.0492 127.086 48.7135 126.721 48.3183C126.547 48.0731 126.457 47.7788 126.465 47.479C126.459 47.2679 126.499 47.058 126.584 46.8641C126.668 46.6701 126.794 46.4967 126.953 46.3561C127.301 46.056 127.752 45.8993 128.213 45.9179C128.442 45.9178 128.67 45.9509 128.889 46.0161C129.125 46.0888 129.351 46.1913 129.561 46.3209V47.2742C129.341 47.0926 129.099 46.9403 128.84 46.8212C128.633 46.7312 128.411 46.6837 128.185 46.6813C127.951 46.6697 127.72 46.7388 127.531 46.8768C127.451 46.9345 127.387 47.0104 127.343 47.0979C127.299 47.1855 127.278 47.2822 127.279 47.3798C127.279 47.6701 127.627 48.0308 128.322 48.4619L128.45 48.5379C128.88 48.7701 129.259 49.0851 129.565 49.4643C129.749 49.7625 129.841 50.1074 129.829 50.4565C129.834 50.6663 129.793 50.8747 129.708 51.0668C129.622 51.259 129.496 51.4302 129.336 51.5683C128.988 51.8672 128.538 52.0232 128.078 52.0046C127.785 52.0089 127.493 51.9634 127.215 51.8703C126.944 51.7743 126.692 51.6299 126.473 51.4441M131.903 49.4199H133.747L132.812 47.3057L131.903 49.4199ZM129.951 51.9027L132.516 46.0347H133.132L135.733 51.9027H134.857L134.094 50.1758H131.57L130.816 51.9027H129.951ZM136.175 51.9027V46.0291H139.548V46.7758H137.015V48.5119H139.469V49.2679H137.015V51.8972L136.175 51.9027ZM140.536 51.9027V46.0291H144.1V46.7758H141.377V48.5555H144.023V49.3105H141.377V51.1393H144.187V51.8953L140.536 51.9027ZM146.857 51.9027V46.7943H144.679V46.0291H149.87V46.7943H147.695V51.8972L146.857 51.9027ZM151.989 51.9027V48.9594L149.699 46.0291H150.703L152.432 48.2525L154.202 46.0291H155.223L152.847 49.003V51.8972L151.989 51.9027ZM157.806 51.9027V46.0291H158.543L162.446 50.5835V46.0291H163.288V51.8972H162.534L158.645 47.3409V51.8999L157.806 51.9027ZM163.977 51.9027L167.869 46.773H164.255V46.0319H169.335V46.1245L165.512 51.1764H169.335V51.8972L163.977 51.9027Z" fill="#7ABC25"/>
</g>
</g>
<defs>
<clipPath id="clip0_470_1389">
<rect width="174" height="52" fill="white"/>
</clipPath>
</defs>
</svg>
