<svg width="130" height="50" viewBox="0 0 130 50" fill="none" xmlns="http://www.w3.org/2000/svg">
<path d="M35.3281 12.8368C35.3281 12.8368 36.9098 10.473 39.3258 7.77886C42.1416 4.63285 46.1568 2.82521 50.3805 2.82521H56.8464C57.4026 2.82521 57.8546 3.31188 57.8024 3.86808L57.0724 11.9156C57.0203 12.437 56.5857 12.8542 56.0643 12.8542H35.3454L35.3281 12.8368ZM62.7041 12.8368C62.1652 12.8368 61.7133 12.4197 61.6785 11.8808L61.1918 3.78117C61.1571 3.25974 61.5742 2.82521 62.0957 2.82521H74.3671C75.6359 2.82521 76.7831 3.62474 77.235 4.82405C77.7739 6.28407 78.4517 8.47411 78.9558 11.342C79.0948 12.1242 78.4865 12.8542 77.687 12.8542H62.7041V12.8368ZM32.7209 34.3027C33.5204 34.6677 34.3547 34.9284 35.2759 34.9284H81.8933C82.8493 34.9284 83.7183 34.6503 84.5353 34.2505C86.2386 27.7847 91.8703 22.9006 98.8751 22.9006C105.497 22.9006 110.955 27.2111 112.989 33.1207C114.171 33.8855 115.474 34.3896 116.935 34.3896H123.209C126.425 34.3896 129.015 31.7998 129.015 28.5842V16.5738C129.015 14.5228 127.346 12.8542 125.295 12.8542H85.4391C84.4831 8.8565 83.5793 6.04074 82.8493 4.09404C81.9802 1.76495 79.7554 0.218018 77.2524 0.218018H50.311C45.6527 0.218018 41.203 2.11257 37.9527 5.4324C33.7289 9.76033 31.8344 12.8542 31.8344 12.8542C18.6765 12.8542 9.09929 15.0964 4.52794 16.4521C2.54644 17.0431 1.06901 18.6769 0.66923 20.7105C-0.043414 24.3606 0.16515 26.7418 0.16515 26.7418C0.16515 30.8438 1.95544 32.4429 3.57192 33.0512C3.79788 33.1381 4.02387 33.0165 4.24983 33.0512C5.43178 29.714 7.74349 27.0721 10.7331 25.2818C10.8548 25.1949 10.9765 25.108 11.1155 25.0385C13.3056 23.8044 15.6869 22.9353 18.3637 22.9353C20.7623 22.9353 22.9524 23.6132 24.9686 24.6213C25.7334 24.9515 26.4113 25.4208 27.0023 25.9944C29.8181 28.0106 31.817 30.8786 32.7035 34.32" fill="#1C242E"/>
<path d="M82.6751 38.3174H34.8759C33.9547 38.3174 33.2246 39.0475 33.2246 39.9687C33.2246 40.8899 33.9547 41.6199 34.8759 41.6199H82.6751C83.579 41.6199 84.3264 40.8899 84.3264 39.9687C84.3264 39.0475 83.5964 38.3174 82.6751 38.3174Z" fill="#1C242E"/>
<path d="M18.365 46.1215C13.898 46.1215 10.2652 42.4889 10.2652 38.0219C10.2652 33.5549 13.898 29.9222 18.365 29.9222C22.8321 29.9222 26.4648 33.5549 26.4648 38.0219C26.4648 42.4889 22.8321 46.1215 18.365 46.1215ZM18.365 49.5978C24.7614 49.5978 29.9585 44.4182 29.9585 38.0045C29.9585 31.5908 24.7788 26.4112 18.365 26.4112C11.9512 26.4112 6.77148 31.5908 6.77148 38.0045C6.77148 44.4182 11.9512 49.5978 18.365 49.5978Z" fill="#1C242E"/>
<path d="M98.8747 46.1215C94.4077 46.1215 90.775 42.4889 90.775 38.0219C90.775 33.5549 94.4077 29.9222 98.8747 29.9222C103.342 29.9222 106.975 33.5549 106.975 38.0219C106.975 42.4889 103.342 46.1215 98.8747 46.1215ZM98.8747 49.5978C105.271 49.5978 110.468 44.4182 110.468 38.0045C110.468 31.5908 105.289 26.4112 98.8747 26.4112C92.4609 26.4112 87.2812 31.5908 87.2812 38.0045C87.2812 44.4182 92.4609 49.5978 98.8747 49.5978Z" fill="#1C242E"/>
</svg>
