<svg width="130" height="50" viewBox="0 0 130 50" fill="none" xmlns="http://www.w3.org/2000/svg">
<path d="M36.1445 12.8368C36.1445 12.8368 37.7262 10.473 40.1422 7.77886C42.958 4.63285 46.9732 2.82521 51.1969 2.82521H57.6628C58.219 2.82521 58.671 3.31188 58.6189 3.86808L57.8888 11.9156C57.8367 12.437 57.4021 12.8542 56.8807 12.8542H36.1618L36.1445 12.8368ZM63.5205 12.8368C62.9816 12.8368 62.5297 12.4197 62.4949 11.8808L62.0082 3.78117C61.9735 3.25974 62.3907 2.82521 62.9121 2.82521H75.1835C76.4523 2.82521 77.5995 3.62474 78.0514 4.82405C78.5903 6.28407 79.2681 8.47411 79.7722 11.342C79.9112 12.1242 79.3029 12.8542 78.5034 12.8542H63.5205V12.8368ZM33.5373 34.3027C34.3368 34.6677 35.1711 34.9284 36.0924 34.9284H82.7097C83.6657 34.9284 84.5347 34.6503 85.3517 34.2505C87.0551 27.7847 92.6867 22.9006 99.6915 22.9006C106.314 22.9006 111.772 27.2111 113.805 33.1207C114.987 33.8855 116.291 34.3896 117.751 34.3896H124.026C127.241 34.3896 129.831 31.7998 129.831 28.5842V16.5738C129.831 14.5228 128.162 12.8542 126.111 12.8542H86.2555C85.2996 8.8565 84.3957 6.04074 83.6657 4.09404C82.7966 1.76495 80.5718 0.218018 78.0688 0.218018H51.1274C46.4691 0.218018 42.0194 2.11257 38.7691 5.4324C34.5454 9.76033 32.6508 12.8542 32.6508 12.8542C19.4929 12.8542 9.9157 15.0964 5.34435 16.4521C3.36285 17.0431 1.88541 18.6769 1.48564 20.7105C0.772992 24.3606 0.981556 26.7418 0.981556 26.7418C0.981556 30.8438 2.77184 32.4429 4.38833 33.0512C4.61429 33.1381 4.84028 33.0165 5.06624 33.0512C6.24818 29.714 8.5599 27.0721 11.5495 25.2818C11.6712 25.1949 11.7929 25.108 11.9319 25.0385C14.122 23.8044 16.5033 22.9353 19.1801 22.9353C21.5787 22.9353 23.7688 23.6132 25.785 24.6213C26.5498 24.9515 27.2277 25.4208 27.8187 25.9944C30.6345 28.0106 32.6334 30.8786 33.5199 34.32" fill="#B1B1B1"/>
<path d="M83.4916 38.3174H35.6923C34.7711 38.3174 34.041 39.0475 34.041 39.9687C34.041 40.8899 34.7711 41.6199 35.6923 41.6199H83.4916C84.3954 41.6199 85.1428 40.8899 85.1428 39.9687C85.1428 39.0475 84.4128 38.3174 83.4916 38.3174Z" fill="#B1B1B1"/>
<path d="M19.1814 46.1215C14.7144 46.1215 11.0816 42.4889 11.0816 38.0219C11.0816 33.5549 14.7144 29.9222 19.1814 29.9222C23.6485 29.9222 27.2812 33.5549 27.2812 38.0219C27.2812 42.4889 23.6485 46.1215 19.1814 46.1215ZM19.1814 49.5978C25.5778 49.5978 30.7749 44.4182 30.7749 38.0045C30.7749 31.5908 25.5952 26.4112 19.1814 26.4112C12.7676 26.4112 7.58789 31.5908 7.58789 38.0045C7.58789 44.4182 12.7676 49.5978 19.1814 49.5978Z" fill="#B1B1B1"/>
<path d="M99.6911 46.1215C95.2241 46.1215 91.5914 42.4889 91.5914 38.0219C91.5914 33.5549 95.2241 29.9222 99.6911 29.9222C104.158 29.9222 107.791 33.5549 107.791 38.0219C107.791 42.4889 104.158 46.1215 99.6911 46.1215ZM99.6911 49.5978C106.088 49.5978 111.285 44.4182 111.285 38.0045C111.285 31.5908 106.105 26.4112 99.6911 26.4112C93.2773 26.4112 88.0977 31.5908 88.0977 38.0045C88.0977 44.4182 93.2773 49.5978 99.6911 49.5978Z" fill="#B1B1B1"/>
</svg>
