<svg width="157" height="61" viewBox="0 0 157 61" fill="none" xmlns="http://www.w3.org/2000/svg">
<path d="M42.6367 15.8451C42.6367 15.8451 44.553 12.9812 47.4802 9.71711C50.8918 5.90551 55.7563 3.71542 60.8737 3.71542H68.7076C69.3815 3.71542 69.929 4.30506 69.8659 4.97893L68.9814 14.729C68.9182 15.3608 68.3917 15.8662 67.76 15.8662H42.6577L42.6367 15.8451ZM75.8045 15.8451C75.1517 15.8451 74.6041 15.3397 74.562 14.6869L73.9723 4.87364C73.9302 4.24189 74.4357 3.71542 75.0674 3.71542H89.935C91.4723 3.71542 92.8622 4.68411 93.4097 6.13715C94.0626 7.90607 94.8838 10.5594 95.4946 14.0341C95.663 14.9817 94.926 15.8662 93.9573 15.8662H75.8045V15.8451ZM39.4778 41.8525C40.4466 42.2947 41.4574 42.6106 42.5735 42.6106H99.0535C100.212 42.6106 101.265 42.2736 102.254 41.7893C104.318 33.9555 111.141 28.038 119.628 28.038C127.652 28.038 134.264 33.2606 136.728 40.4205C138.16 41.3471 139.739 41.9578 141.508 41.9578H149.111C153.006 41.9578 156.144 38.82 156.144 34.9242V20.3727C156.144 17.8878 154.123 15.8662 151.638 15.8662H103.35C102.191 11.0227 101.096 7.61125 100.212 5.2527C99.1589 2.43085 96.4633 0.556641 93.4308 0.556641H60.7895C55.1457 0.556641 49.7546 2.85202 45.8165 6.87421C40.6992 12.1178 38.4038 15.8662 38.4038 15.8662C22.4622 15.8662 10.8588 18.5828 5.32026 20.2253C2.91954 20.9413 1.12953 22.9208 0.645173 25.3847C-0.218243 29.807 0.0344464 32.692 0.0344464 32.692C0.0344464 37.6618 2.2035 39.5992 4.16198 40.3362C4.43575 40.4415 4.70954 40.2941 4.98331 40.3362C6.41532 36.293 9.21611 33.0921 12.8382 30.9231C12.9857 30.8178 13.1331 30.7125 13.3015 30.6283C15.955 29.1331 18.8401 28.0802 22.0832 28.0802C24.9893 28.0802 27.6427 28.9014 30.0855 30.1228C31.0121 30.523 31.8334 31.0915 32.5494 31.7865C35.961 34.2293 38.3828 37.7039 39.4568 41.8735" fill="white"/>
<path d="M100.001 46.7167H42.0885C40.9724 46.7167 40.0879 47.6011 40.0879 48.7172C40.0879 49.8333 40.9724 50.7178 42.0885 50.7178H100.001C101.096 50.7178 102.001 49.8333 102.001 48.7172C102.001 47.6011 101.117 46.7167 100.001 46.7167Z" fill="white"/>
<path d="M22.0834 56.1723C16.6713 56.1723 12.27 51.771 12.27 46.359C12.27 40.9469 16.6713 36.5457 22.0834 36.5457C27.4956 36.5457 31.8969 40.9469 31.8969 46.359C31.8969 51.771 27.4956 56.1723 22.0834 56.1723ZM22.0834 60.384C29.8331 60.384 36.1297 54.1085 36.1297 46.3379C36.1297 38.5673 29.8542 32.2919 22.0834 32.2919C14.3127 32.2919 8.03711 38.5673 8.03711 46.3379C8.03711 54.1085 14.3127 60.384 22.0834 60.384Z" fill="white"/>
<path d="M119.628 56.1723C114.216 56.1723 109.815 51.771 109.815 46.359C109.815 40.9469 114.216 36.5457 119.628 36.5457C125.04 36.5457 129.442 40.9469 129.442 46.359C129.442 51.771 125.04 56.1723 119.628 56.1723ZM119.628 60.384C127.378 60.384 133.675 54.1085 133.675 46.3379C133.675 38.5673 127.399 32.2919 119.628 32.2919C111.858 32.2919 105.582 38.5673 105.582 46.3379C105.582 54.1085 111.858 60.384 119.628 60.384Z" fill="white"/>
</svg>
