<svg width="100" height="100" viewBox="0 0 100 100" fill="none" xmlns="http://www.w3.org/2000/svg">
<path d="M29.2552 41.1526C29.2552 41.1526 30.4025 39.438 32.1549 37.484C34.1972 35.2021 37.1094 33.891 40.1729 33.891H44.8628C45.2662 33.891 45.594 34.244 45.5562 34.6474L45.0267 40.4844C44.9889 40.8626 44.6737 41.1652 44.2955 41.1652H29.2678L29.2552 41.1526ZM49.1114 41.1526C48.7206 41.1526 48.3928 40.85 48.3676 40.4592L48.0146 34.5844C47.9893 34.2062 48.2919 33.891 48.6702 33.891H57.5708C58.4911 33.891 59.3231 34.4709 59.6509 35.3408C60.0417 36.3998 60.5334 37.9883 60.899 40.0684C60.9999 40.6357 60.5586 41.1652 59.9787 41.1652H49.1114V41.1526ZM27.3642 56.7221C27.9441 56.9868 28.5492 57.1759 29.2174 57.1759H63.0296C63.723 57.1759 64.3533 56.9742 64.9459 56.6842C66.1814 51.9945 70.2661 48.452 75.3467 48.452C80.15 48.452 84.1086 51.5785 85.5837 55.8648C86.4409 56.4195 87.3865 56.7851 88.4455 56.7851H92.9966C95.329 56.7851 97.2074 54.9067 97.2074 52.5744V43.8631C97.2074 42.3754 95.9971 41.1652 94.5095 41.1652H65.6015C64.9081 38.2656 64.2525 36.2233 63.723 34.8113C63.0927 33.122 61.479 32 59.6635 32H40.1225C36.7438 32 33.5164 33.3741 31.1589 35.7821C28.0954 38.9212 26.7212 41.1652 26.7212 41.1652C17.1776 41.1652 10.2311 42.7915 6.91548 43.7748C5.47827 44.2034 4.40667 45.3885 4.11671 46.8635C3.59982 49.5109 3.75109 51.2381 3.75109 51.2381C3.75109 54.2133 5.04961 55.3731 6.22207 55.8144C6.38596 55.8774 6.54987 55.7891 6.71376 55.8144C7.57105 53.3938 9.24776 51.4776 11.4162 50.1791C11.5044 50.1161 11.5927 50.053 11.6935 50.0026C13.282 49.1075 15.0092 48.4772 16.9507 48.4772C18.6905 48.4772 20.279 48.9688 21.7414 49.7C22.2961 49.9396 22.7878 50.2799 23.2164 50.696C25.2588 52.1584 26.7086 54.2385 27.3516 56.7347" fill="white"/>
<path d="M63.5937 59.634H28.9243C28.2561 59.634 27.7266 60.1635 27.7266 60.8317C27.7266 61.4998 28.2561 62.0293 28.9243 62.0293H63.5937C64.2493 62.0293 64.7914 61.4998 64.7914 60.8317C64.7914 60.1635 64.2619 59.634 63.5937 59.634Z" fill="white"/>
<path d="M16.948 65.2944C13.708 65.2944 11.0731 62.6596 11.0731 59.4196C11.0731 56.1797 13.708 53.5448 16.948 53.5448C20.188 53.5448 22.8229 56.1797 22.8229 59.4196C22.8229 62.6596 20.188 65.2944 16.948 65.2944ZM16.948 67.8158C21.5874 67.8158 25.3569 64.0589 25.3569 59.407C25.3569 54.7551 21.6 50.9982 16.948 50.9982C12.296 50.9982 8.53906 54.7551 8.53906 59.407C8.53906 64.0589 12.296 67.8158 16.948 67.8158Z" fill="white"/>
<path d="M75.3464 65.2944C72.1064 65.2944 69.4715 62.6596 69.4715 59.4196C69.4715 56.1797 72.1064 53.5448 75.3464 53.5448C78.5864 53.5448 81.2214 56.1797 81.2214 59.4196C81.2214 62.6596 78.5864 65.2944 75.3464 65.2944ZM75.3464 67.8158C79.9858 67.8158 83.7554 64.0589 83.7554 59.407C83.7554 54.7551 79.9984 50.9982 75.3464 50.9982C70.6944 50.9982 66.9375 54.7551 66.9375 59.407C66.9375 64.0589 70.6944 67.8158 75.3464 67.8158Z" fill="white"/>
</svg>
