<svg width="100" height="100" viewBox="0 0 100 100" fill="none" xmlns="http://www.w3.org/2000/svg">
<path d="M83.7415 41.9416H83.5014C83.5014 36.9586 83.4614 31.9757 83.5014 26.9927C83.5014 25.792 83.1812 25.0915 82.0605 24.5312C71.7141 19.228 61.3878 13.8648 51.1015 8.48163C50.0808 7.96132 49.3204 8.02136 48.3598 8.54167C38.1935 14.065 28.0273 19.5482 17.821 25.0115C16.7603 25.5918 16.3201 26.1922 16.3401 27.453C16.4602 36.8386 16.4602 46.2442 16.5602 55.6498C16.6002 59.1118 17.3607 62.4338 19.0618 65.4957C25.8659 77.6829 36.2523 85.7677 48.8201 91.271C49.7206 91.6513 51.0614 91.5912 52.002 91.211C63.2089 86.6283 72.0543 79.1038 78.9586 69.2579C82.2406 64.5751 84.0818 59.392 83.7816 53.5085C83.5814 49.6662 83.7415 45.7839 83.7415 41.9216M87.9241 41.1211C87.9241 45.3636 87.744 49.6062 87.9641 53.8287C88.2643 59.7322 86.6233 65.0554 83.5214 69.9383C75.7966 82.0856 65.2302 90.8108 51.7419 95.9138C50.8613 96.254 49.6206 96.1339 48.7 95.7937C37.7132 91.7313 28.5876 84.9473 21.043 76.102C17.3607 71.7594 14.2188 67.0366 12.958 61.3532C12.5978 59.6722 12.3576 57.9111 12.3376 56.1701C12.1775 45.8439 12.1375 35.4978 11.9774 25.1516C11.9574 23.8108 12.2976 23.0703 13.5383 22.4099C25.0654 16.2863 36.5725 10.1026 48.0596 3.85887C49.3003 3.17847 50.2409 3.17847 51.5017 3.83886C63.0088 9.88247 74.5359 15.886 86.103 21.8296C87.4038 22.51 87.8441 23.2705 87.804 24.6913C87.724 30.1746 87.764 35.6579 87.764 41.1411H87.9041L87.9241 41.1211Z" fill="white"/>
<path d="M54.9605 71.6795H44.7142C43.7336 71.6795 42.9531 70.899 42.9531 69.9184V29.6344C42.9531 28.6538 43.7336 27.8734 44.7142 27.8734H54.9605C55.9411 27.8734 56.7216 28.6538 56.7216 29.6344V69.9184C56.7216 70.899 55.9411 71.6795 54.9605 71.6795Z" fill="white"/>
<path d="M27.9258 54.9095V44.6634C27.9258 43.6828 28.7063 42.9023 29.6869 42.9023H69.9717C70.9523 42.9023 71.7327 43.6828 71.7327 44.6634V54.9095C71.7327 55.8901 70.9523 56.6705 69.9717 56.6705H29.6869C28.7063 56.6705 27.9258 55.8901 27.9258 54.9095Z" fill="white"/>
</svg>
