<svg width="58" height="70" viewBox="0 0 58 70" fill="none" xmlns="http://www.w3.org/2000/svg">
<path d="M54.1347 28.9217H53.9547C53.9547 25.1877 53.9247 21.4537 53.9547 17.7197C53.9547 16.8199 53.7148 16.295 52.875 15.8752C45.1219 11.9012 37.3838 7.88229 29.6758 3.84837C28.9109 3.45847 28.3411 3.50346 27.6213 3.89336C20.0032 8.03225 12.385 12.1412 4.73695 16.2351C3.94214 16.6699 3.61224 17.1198 3.62724 18.0646C3.71721 25.0977 3.71722 32.1458 3.7922 39.1939C3.82219 41.7882 4.39205 44.2776 5.66673 46.572C10.7655 55.7045 18.5485 61.7629 27.9662 65.8868C28.641 66.1717 29.6458 66.1267 30.3506 65.8418C38.7485 62.4077 45.3768 56.7692 50.5506 49.3912C53.0099 45.8821 54.3896 41.9982 54.1647 37.5894C54.0147 34.7101 54.1347 31.8009 54.1347 28.9067M57.2689 28.3068C57.2689 31.486 57.1339 34.6651 57.2989 37.8293C57.5238 42.2531 56.2941 46.2421 53.9697 49.9011C48.1811 59.0036 40.2631 65.5419 30.1556 69.3659C29.4958 69.6208 28.566 69.5308 27.8762 69.2759C19.6433 66.2317 12.8049 61.1481 7.15135 54.5198C4.39203 51.2657 2.03763 47.7267 1.09286 43.4678C0.822931 42.2081 0.642979 40.8885 0.627983 39.5838C0.508013 31.8459 0.478008 24.093 0.358038 16.34C0.343042 15.3353 0.597977 14.7805 1.52775 14.2856C10.1656 9.69681 18.7885 5.06304 27.3963 0.384294C28.3261 -0.12557 29.0309 -0.125571 29.9757 0.369297C38.5985 4.89809 47.2364 9.39689 55.9042 13.8507C56.879 14.3606 57.2089 14.9304 57.1789 15.9951C57.1189 20.104 57.1489 24.2129 57.1489 28.3218H57.2539L57.2689 28.3068Z" fill="#B1B1B1"/>
<path d="M32.57 51.2059H24.8919C24.1571 51.2059 23.5723 50.6211 23.5723 49.8863V19.6993C23.5723 18.9645 24.1571 18.3797 24.8919 18.3797H32.57C33.3048 18.3797 33.8897 18.9645 33.8897 19.6993V49.8863C33.8897 50.6211 33.3048 51.2059 32.57 51.2059Z" fill="#B1B1B1"/>
<path d="M12.3086 38.6392V30.9613C12.3086 30.2264 12.8935 29.6416 13.6283 29.6416H43.8158C44.5506 29.6416 45.1354 30.2264 45.1354 30.9613V38.6392C45.1354 39.374 44.5506 39.9588 43.8158 39.9588H13.6283C12.8935 39.9588 12.3086 39.374 12.3086 38.6392Z" fill="#B1B1B1"/>
</svg>
