<svg width="80" height="98" viewBox="0 0 80 98" fill="none" xmlns="http://www.w3.org/2000/svg">
<path d="M75.5182 40.8968H75.2655C75.2655 35.6532 75.2234 30.4096 75.2655 25.1661C75.2655 23.9025 74.9286 23.1655 73.7493 22.5759C62.8618 16.9953 51.9954 11.3516 41.1711 5.68689C40.0971 5.13937 39.2969 5.20255 38.286 5.75007C27.5881 11.5622 16.8901 17.3323 6.15007 23.0813C5.03395 23.692 4.57067 24.3237 4.59173 25.6504C4.71808 35.5269 4.71809 45.4244 4.82338 55.3219C4.8655 58.965 5.66574 62.4608 7.45575 65.6827C14.6158 78.5074 25.5454 87.015 38.7704 92.8061C39.718 93.2062 41.129 93.1431 42.1187 92.7429C53.9117 87.9205 63.2198 80.0025 70.4851 69.6417C73.9388 64.714 75.8762 59.2599 75.5603 53.0686C75.3498 49.0254 75.5182 44.94 75.5182 40.8757M79.9195 40.0334C79.9195 44.4978 79.73 48.9622 79.9617 53.4056C80.2775 59.6178 78.5507 65.2194 75.2866 70.3577C67.1578 83.1403 56.0387 92.3218 41.845 97.6917C40.9184 98.0497 39.6127 97.9234 38.644 97.5654C27.0827 93.2905 17.4798 86.1516 9.54056 76.8437C5.66572 72.274 2.35948 67.3042 1.03277 61.3236C0.653704 59.5547 0.401002 57.7015 0.379943 55.8694C0.211472 45.0032 0.169337 34.1159 0.00086564 23.2287C-0.0201933 21.8177 0.337806 21.0386 1.64346 20.3436C13.7734 13.8997 25.8823 7.39264 37.9701 0.82237C39.2758 0.106379 40.2656 0.106379 41.5923 0.801311C53.7012 7.16099 65.8311 13.4786 78.0032 19.7329C79.372 20.4489 79.8353 21.2492 79.7932 22.7443C79.7089 28.5144 79.7511 34.2844 79.7511 40.0545H79.8985L79.9195 40.0334Z" fill="white"/>
<path d="M45.235 72.1901H34.4528C33.4209 72.1901 32.5996 71.3688 32.5996 70.337V27.9461C32.5996 26.9142 33.4209 26.093 34.4528 26.093H45.235C46.2669 26.093 47.0881 26.9142 47.0881 27.9461V70.337C47.0881 71.3688 46.2669 72.1901 45.235 72.1901Z" fill="white"/>
<path d="M16.7852 54.5427V43.7607C16.7852 42.7288 17.6065 41.9075 18.6384 41.9075H61.03C62.0619 41.9075 62.8832 42.7288 62.8832 43.7607V54.5427C62.8832 55.5745 62.0619 56.3958 61.03 56.3958H18.6384C17.6065 56.3958 16.7852 55.5745 16.7852 54.5427Z" fill="white"/>
</svg>
