<svg width="58" height="70" viewBox="0 0 58 70" fill="none" xmlns="http://www.w3.org/2000/svg">
<path d="M54.3183 28.9217H54.1383C54.1383 25.1877 54.1083 21.4537 54.1383 17.7197C54.1383 16.8199 53.8984 16.295 53.0586 15.8752C45.3055 11.9012 37.5674 7.88229 29.8593 3.84837C29.0945 3.45847 28.5247 3.50346 27.8049 3.89336C20.1868 8.03225 12.5686 12.1412 4.92054 16.2351C4.12574 16.6699 3.79583 17.1198 3.81083 18.0646C3.90081 25.0977 3.90081 32.1458 3.97579 39.1939C4.00578 41.7882 4.57564 44.2776 5.85032 46.572C10.9491 55.7045 18.7321 61.7629 28.1498 65.8868C28.8246 66.1717 29.8293 66.1267 30.5342 65.8418C38.9321 62.4077 45.5604 56.7692 50.7342 49.3912C53.1935 45.8821 54.5732 41.9982 54.3483 37.5894C54.1983 34.7101 54.3183 31.8009 54.3183 28.9067M57.4525 28.3068C57.4525 31.486 57.3175 34.6651 57.4825 37.8293C57.7074 42.2531 56.4777 46.2421 54.1533 49.9011C48.3647 59.0036 40.4467 65.5419 30.3392 69.3659C29.6794 69.6208 28.7496 69.5308 28.0598 69.2759C19.8268 66.2317 12.9885 61.1481 7.33494 54.5198C4.57563 51.2657 2.22122 47.7267 1.27646 43.4678C1.00652 42.2081 0.826573 40.8885 0.811577 39.5838C0.691607 31.8459 0.661602 24.093 0.541632 16.34C0.526636 15.3353 0.781571 14.7805 1.71134 14.2856C10.3492 9.69681 18.972 5.06304 27.5799 0.384294C28.5097 -0.12557 29.2145 -0.125571 30.1593 0.369297C38.7821 4.89809 47.42 9.39689 56.0878 13.8507C57.0626 14.3606 57.3925 14.9304 57.3625 15.9951C57.3025 20.104 57.3325 24.2129 57.3325 28.3218H57.4375L57.4525 28.3068Z" fill="#1C242E"/>
<path d="M32.7536 51.2059H25.0755C24.3407 51.2059 23.7559 50.6211 23.7559 49.8863V19.6993C23.7559 18.9645 24.3407 18.3797 25.0755 18.3797H32.7536C33.4884 18.3797 34.0733 18.9645 34.0733 19.6993V49.8863C34.0733 50.6211 33.4884 51.2059 32.7536 51.2059Z" fill="#1C242E"/>
<path d="M12.4922 38.6392V30.9613C12.4922 30.2264 13.077 29.6416 13.8119 29.6416H43.9994C44.7342 29.6416 45.319 30.2264 45.319 30.9613V38.6392C45.319 39.374 44.7342 39.9588 43.9994 39.9588H13.8119C13.077 39.9588 12.4922 39.374 12.4922 38.6392Z" fill="#1C242E"/>
</svg>
