<svg width="87" height="63" viewBox="0 0 87 63" fill="none" xmlns="http://www.w3.org/2000/svg">
<path d="M26.9667 53.3229C26.8919 53.3827 26.8022 53.4276 26.7274 53.4874C25.7105 54.3099 24.559 54.3996 23.3327 54.0706C21.6429 53.5921 20.4764 52.5004 19.8483 50.8854C19.5044 49.9881 19.4595 49.046 19.938 48.1338C19.938 48.0889 19.968 48.059 19.968 48.0141C19.968 47.9842 19.968 47.9543 19.938 47.8945C19.6988 48.074 19.4894 48.2385 19.2651 48.388C18.4276 48.8964 17.5154 49.0908 16.5284 48.9413C15.0628 48.717 13.9113 47.9842 13.1337 46.743C12.1616 45.2177 12.1018 43.2138 13.4029 41.6885C14.1955 40.7613 14.9582 39.8192 15.7508 38.892C15.9302 38.6826 15.9153 38.5331 15.7508 38.3237C14.7637 37.1423 13.7917 35.946 12.8047 34.7646C12.6402 34.5552 12.6103 34.3907 12.7449 34.1515C13.1935 33.2991 13.6122 32.4467 14.0459 31.5793C14.0908 31.5045 14.1357 31.4298 14.1955 31.3251C15.5563 32.9252 16.8873 34.4954 18.2183 36.0507C19.968 34.959 21.6877 34.974 23.2729 36.1254C25.561 37.7704 26.0545 39.9238 24.5889 42.4661C26.5181 41.3595 28.2678 41.7632 29.823 43.0792C31.3933 44.4101 32.0214 46.1 31.2288 48.2085C33.0831 46.9524 34.788 47.2814 36.3881 48.5226C37.9883 49.7787 38.6463 51.3938 37.9733 53.4276C38.063 53.4276 38.1079 53.4276 38.1378 53.4276C39.2444 52.6948 40.366 52.9192 41.4428 53.4874C42.4597 54.0407 43.2074 54.8632 43.5514 55.9997C43.7458 56.6577 43.7607 57.3157 43.4018 57.9289C43.327 58.0634 43.342 58.1831 43.4915 58.2579C44.0897 58.5719 44.658 58.9906 45.2861 59.1701C46.6619 59.5589 48.1125 59.0803 48.7406 57.6298C48.9051 57.2559 48.8303 57.0017 48.5163 56.7475C46.7367 55.4165 44.972 54.1006 43.1924 52.7696C42.4746 52.2313 41.7419 51.6929 41.039 51.1246C40.4558 50.6611 40.4558 49.7787 40.9941 49.1656C41.5475 48.5375 42.1606 48.4628 42.8485 48.9413C44.2542 49.9133 45.6301 50.9153 47.0208 51.8873C48.0377 52.6051 49.0846 53.293 50.1015 54.0108C50.8043 54.5043 51.5072 55.0128 52.2101 55.5063C52.8681 55.9698 53.5261 56.4633 54.214 56.897C55.3505 57.6148 56.5768 57.3755 57.4292 56.3138C57.8629 55.7754 58.1321 55.1474 58.0872 54.4445C58.0424 53.7865 57.7881 53.2332 57.2498 52.8444C56.0235 51.9322 54.7673 51.0499 53.5261 50.1676C51.9858 49.046 50.4604 47.9244 48.9201 46.8178C47.6041 45.8607 46.2731 44.9036 44.9571 43.9316C44.4337 43.5577 44.2393 42.9297 44.4337 42.2866C44.6281 41.6585 45.0169 41.3894 45.7048 41.3146C46.2133 41.2697 46.647 41.4043 47.0657 41.7034C49.0397 43.1241 51.0137 44.5148 52.9877 45.9355C54.4383 46.9673 55.8889 48.0141 57.3395 49.0609C58.5957 49.9582 59.807 50.9153 61.123 51.6929C62.4241 52.4705 64.0093 52.2163 64.7271 50.691C65.2505 49.5993 65.1309 48.3581 63.9345 47.5206C62.6933 46.6682 61.467 45.7859 60.2557 44.9036C58.8051 43.8568 57.3545 42.7951 55.8889 41.7333C54.0495 40.4024 52.1951 39.0714 50.3408 37.7555C49.7575 37.3367 49.1593 36.933 48.5761 36.5143C48.0377 36.1254 47.7087 35.6319 47.634 34.959C47.5592 34.0917 48.277 33.4337 49.1444 33.5383C49.6977 33.5982 50.1763 33.8225 50.6249 34.1515C51.8362 35.0338 53.0625 35.8862 54.2738 36.7685C55.874 37.92 57.4741 39.0714 59.0593 40.208C60.48 41.2249 61.9156 42.2418 63.3513 43.2587C64.3084 43.9466 65.3103 44.6045 66.2225 45.3373C67.4937 46.3542 69.5574 46.0701 70.6342 44.769C71.1277 44.1858 71.5015 43.5877 71.4567 42.7801C71.4118 41.8081 71.023 41.0454 70.2453 40.4173C69.2284 39.5948 68.2564 38.7125 67.2694 37.8452C65.8935 36.6638 64.5327 35.4674 63.1569 34.2861C61.9904 33.2692 60.8389 32.2373 59.6724 31.2204C58.8948 30.5325 58.0872 29.8596 57.2946 29.1866C56.0385 28.095 54.7823 26.9883 53.5261 25.8967C52.4643 24.9695 51.4025 24.0423 50.3557 23.1152C49.6827 22.5319 48.9948 21.9487 48.3518 21.3356C47.7985 20.8122 47.2751 20.2738 46.7517 19.7056C46.4526 19.3915 46.0787 19.227 45.6899 19.0775C44.5832 18.6588 43.4018 18.5391 42.2503 18.7186C41.2334 18.8831 40.381 19.4514 39.6931 20.229C39.5286 20.4234 39.394 20.6328 39.2295 20.8122C38.8407 21.2459 38.8407 21.8141 38.7509 22.3375C38.6014 23.2797 38.2873 24.162 37.8686 24.9994C37.3153 26.0911 36.5825 27.0631 35.6852 27.9006C34.8179 28.723 33.8309 29.4109 32.6794 29.7848C31.468 30.1736 30.2119 30.2783 28.9557 30.1437C27.7294 30.0091 26.7424 29.4109 26.0993 28.3342C25.7554 27.7361 25.7554 27.1229 26.0246 26.4799C26.4433 25.5079 26.8919 24.5358 27.1611 23.5189C27.4004 22.6067 27.4453 21.6496 27.5499 20.7075C27.6696 19.6308 27.7593 18.5541 27.8789 17.4774C27.8939 17.283 27.9687 17.0886 28.0584 16.9091C28.6267 15.8773 29.1949 14.8454 29.7632 13.8285C29.9726 13.4547 29.9576 13.3948 29.509 13.3948C27.6247 13.3948 25.7404 13.3948 23.8412 13.3948H23.1084C23.1682 13.2603 23.1981 13.1556 23.258 13.0659C23.7963 11.9742 24.3646 10.8825 24.903 9.79085C24.9927 9.59645 25.1123 9.52168 25.3367 9.52168C28.8809 9.52168 32.4401 9.52168 35.9843 9.52168C36.1787 9.52168 36.4031 9.46186 36.5676 9.35718C38.2275 8.3702 40.0071 7.69725 41.9064 7.30843C43.4467 6.99439 45.002 6.79999 46.5871 6.84485C48.3368 6.90467 50.0716 7.17385 51.7614 7.62248C52.7634 7.89166 53.7504 8.2057 54.7673 8.47488C55.9786 8.80387 57.175 9.16278 58.4013 9.35718C59.7472 9.56654 61.1081 9.62636 62.4689 9.71608C62.7381 9.73104 62.8578 9.82077 62.9624 10.0451L64.9215 14.1426C65.8337 16.0418 66.7609 17.926 67.6582 19.8252C68.4807 21.53 69.3032 23.2348 70.1107 24.9396C71.1576 27.1229 72.1894 29.3063 73.2213 31.5045C73.5653 32.2224 73.8943 32.9252 74.2532 33.643C74.3429 33.8374 74.3578 34.0318 74.2532 34.2262C73.7148 35.3927 73.2063 36.5591 72.668 37.7256C72.5483 37.9947 72.5483 38.1742 72.7577 38.4284C74.1485 40.1182 74.8364 42.0474 74.3429 44.2008C73.9391 45.9654 72.9521 47.416 71.2473 48.2235C70.6341 48.5076 69.9163 48.6123 69.2434 48.7619C68.8994 48.8366 68.5405 48.8516 68.1965 48.9114C68.1218 48.9263 68.0171 49.0609 68.0021 49.1357C67.8975 49.8535 67.8376 50.5863 67.6881 51.2891C67.5386 51.992 67.1796 52.6201 66.716 53.1734C65.5645 54.5641 63.9943 54.9679 62.2895 55.0427C62.0353 55.0427 61.7661 55.0427 61.5118 55.0427C61.2576 55.0427 61.123 55.1474 61.0632 55.3717C60.6893 56.7475 60.0463 57.9588 58.9845 58.9458C58.1022 59.7682 57.0554 60.1271 55.8291 60.1122C54.3935 60.0823 53.1373 59.5738 51.9409 58.856C51.8213 58.7962 51.7016 58.7214 51.6268 58.6766C51.1932 59.2598 50.8044 59.843 50.3408 60.3814C49.608 61.2188 48.7107 61.7871 47.6041 62.0862C46.961 62.2507 46.318 62.2806 45.6899 62.1759C45.0767 62.0862 44.4486 61.8768 43.8953 61.6076C43.1625 61.2637 42.4746 60.83 41.7867 60.3963C41.353 60.1271 41.3829 60.2468 41.1138 60.5309C40.7848 60.8898 40.4857 61.2786 40.1417 61.6226C39.7828 61.9964 39.3192 62.1609 38.7958 62.2058C37.6592 62.2806 36.7171 61.8319 35.8647 61.1291C35.1917 60.5608 34.6982 59.8729 34.5337 59.0056C34.444 58.5569 34.5337 58.0634 34.5636 57.5999C34.5636 57.555 34.5936 57.4952 34.6085 57.4503C34.6085 57.4204 34.5936 57.3905 34.5636 57.3008C34.3991 57.4952 34.2346 57.6597 34.115 57.8391C33.457 58.7514 32.5448 59.1402 31.4232 59.1402C29.4492 59.1402 27.5051 57.5999 26.9518 55.8652C26.7125 55.1174 26.5779 54.3697 26.8919 53.6071C26.9368 53.5024 26.9368 53.3678 26.9667 53.2631C26.9518 53.2482 26.9218 53.2332 26.9069 53.2182" fill="#1C242E"/>
<path d="M14.6743 0.787677C15.2725 0.712905 15.7809 1.07181 16.3342 1.32603C17.4259 1.83448 18.5027 2.35788 19.5944 2.88128C20.1028 3.12055 20.6113 3.35982 21.1048 3.61405C22.0619 4.10754 22.3909 5.22911 21.8974 6.23105C21.2543 7.56199 20.6113 8.89293 19.9832 10.2089C19.2055 11.824 18.4578 13.454 17.6802 15.0691C16.5137 17.5066 15.3472 19.9442 14.1658 22.3817C13.3882 24.0118 12.6106 25.6418 11.8329 27.2868C10.9805 29.0813 10.1281 30.8758 9.29063 32.6703C8.97658 33.3582 8.51299 33.8517 7.75031 33.8966C7.36149 33.9115 6.94276 33.8517 6.5988 33.7022C5.23793 33.104 3.90698 32.446 2.57602 31.803C1.97783 31.5188 1.37965 31.2347 0.811372 30.8908C0.0337328 30.4272 -0.205544 29.3654 0.183276 28.5579C0.751551 27.3914 1.28992 26.21 1.8582 25.0436C2.45638 23.7874 3.06952 22.5313 3.6677 21.2901C4.34066 19.8844 5.02857 18.4637 5.70153 17.058C6.1053 16.1906 6.49412 15.3233 6.8979 14.4709C7.51103 13.1699 8.15408 11.8987 8.76722 10.5977C9.67945 8.68356 10.6066 6.76941 11.5189 4.85526C11.9974 3.85331 12.476 2.85137 12.9396 1.83448C13.2835 1.10172 13.8368 0.742814 14.6892 0.772722" fill="#1C242E"/>
<path d="M72.3052 0.758774C73.1875 0.74382 73.7259 1.2074 74.0699 1.97007C74.9522 3.85432 75.8644 5.73857 76.7467 7.60786C77.7487 9.73137 78.7357 11.8399 79.7377 13.9485C80.6349 15.8178 81.5472 17.6721 82.4444 19.5414C83.2969 21.306 84.1194 23.0856 84.9568 24.8652C85.57 26.1512 86.1981 27.4373 86.7962 28.7234C87.0654 29.2916 86.9757 30.0992 86.4373 30.6525C86.0186 31.0862 85.4653 31.2955 84.9568 31.5497C83.8502 32.1031 82.7435 32.6414 81.6219 33.1499C81.0387 33.419 80.4256 33.6733 79.8124 33.8826C79.1395 34.1219 78.1525 33.7181 77.8235 33.0302C77.3449 32.0133 76.8514 30.9815 76.3579 29.9646C75.356 27.871 74.354 25.7624 73.3521 23.6688C72.6342 22.1584 71.9314 20.6331 71.1986 19.1227C70.5705 17.7918 69.9125 16.4758 69.2694 15.1448C68.746 14.0532 68.2675 12.9615 67.7441 11.8698C66.9664 10.2249 66.1589 8.6098 65.3663 6.97978C65.1719 6.59096 64.9924 6.20215 64.8578 5.81334C64.5887 5.00581 65.0971 3.959 65.8897 3.6001C66.7571 3.19633 67.6394 2.77761 68.5068 2.35889C69.5237 1.88035 70.5406 1.38686 71.5725 0.923273C71.7968 0.818592 72.051 0.818592 72.3052 0.773729" fill="#1C242E"/>
</svg>
