<svg width="100" height="100" viewBox="0 0 100 100" fill="none" xmlns="http://www.w3.org/2000/svg">
<path d="M32.0184 73.9699C31.9374 74.0348 31.8401 74.0834 31.7591 74.1482C30.6569 75.0396 29.4089 75.1369 28.0799 74.7803C26.2484 74.2617 24.9841 73.0785 24.3034 71.3281C23.9306 70.3556 23.882 69.3345 24.4007 68.3459C24.4007 68.2972 24.4331 68.2648 24.4331 68.2162C24.4331 68.1838 24.4331 68.1514 24.4007 68.0865C24.1413 68.281 23.9144 68.4593 23.6713 68.6214C22.7637 69.1725 21.775 69.3832 20.7052 69.2211C19.1169 68.978 17.8689 68.1838 17.026 66.8386C15.9725 65.1854 15.9077 63.0135 17.3178 61.3604C18.1768 60.3555 19.0034 59.3344 19.8624 58.3295C20.0569 58.1026 20.0407 57.9406 19.8624 57.7136C18.7927 56.4332 17.7392 55.1366 16.6695 53.8562C16.4912 53.6293 16.4588 53.451 16.6046 53.1917C17.0909 52.2679 17.5447 51.344 18.0147 50.404C18.0634 50.3229 18.112 50.2419 18.1768 50.1285C19.6517 51.8627 21.0942 53.5645 22.5367 55.2501C24.4331 54.0669 26.297 54.0831 28.015 55.3311C30.4949 57.114 31.0297 59.4479 29.4413 62.2032C31.5322 61.0038 33.4285 61.4414 35.1141 62.8677C36.8159 64.3102 37.4967 66.1416 36.6377 68.4269C38.6475 67.0655 40.4952 67.422 42.2294 68.7673C43.9637 70.1287 44.6768 71.8791 43.9474 74.0834C44.0447 74.0834 44.0933 74.0834 44.1257 74.0834C45.3251 73.2892 46.5407 73.5323 47.7077 74.1482C48.8098 74.7479 49.6202 75.6393 49.993 76.8711C50.2037 77.5842 50.2199 78.2974 49.8309 78.9619C49.7499 79.1078 49.7661 79.2374 49.9282 79.3185C50.5765 79.6588 51.1924 80.1126 51.8731 80.3071C53.3643 80.7285 54.9364 80.2099 55.6172 78.6377C55.7955 78.2325 55.7144 77.957 55.3741 77.6815C53.4453 76.239 51.5328 74.8127 49.604 73.3702C48.826 72.7868 48.0319 72.2033 47.2701 71.5874C46.638 71.085 46.638 70.1287 47.2215 69.4642C47.8212 68.7835 48.4857 68.7024 49.2312 69.2211C50.7548 70.2746 52.2459 71.3605 53.7533 72.414C54.8554 73.192 55.99 73.9375 57.0921 74.7155C57.8539 75.2503 58.6157 75.8014 59.3774 76.3362C60.0906 76.8387 60.8037 77.3735 61.5493 77.8435C62.7811 78.6215 64.1101 78.3622 65.034 77.2115C65.504 76.628 65.7958 75.9473 65.7471 75.1855C65.6985 74.4724 65.423 73.8727 64.8395 73.4513C63.5104 72.4626 62.149 71.5064 60.8037 70.5501C59.1343 69.3345 57.4811 68.119 55.8117 66.9196C54.3854 65.8823 52.9429 64.845 51.5166 63.7915C50.9493 63.3863 50.7386 62.7056 50.9493 62.0087C51.16 61.3279 51.5814 61.0362 52.327 60.9552C52.878 60.9066 53.3481 61.0524 53.8019 61.3766C55.9413 62.9163 58.0808 64.4236 60.2202 65.9633C61.7924 67.0817 63.3646 68.2162 64.9367 69.3507C66.2982 70.3232 67.6111 71.3605 69.0374 72.2033C70.4475 73.0461 72.1655 72.7706 72.9435 71.1174C73.5108 69.9342 73.3811 68.589 72.0845 67.6813C70.7392 66.7575 69.4101 65.8013 68.0973 64.845C66.5251 63.7105 64.953 62.5597 63.3646 61.409C61.371 59.9665 59.3612 58.524 57.3514 57.0978C56.7193 56.6439 56.071 56.2063 55.4389 55.7525C54.8554 55.3311 54.4988 54.7963 54.4178 54.0669C54.3367 53.1269 55.1147 52.4137 56.0548 52.5272C56.6545 52.592 57.1731 52.8351 57.6594 53.1917C58.9722 54.148 60.3013 55.0718 61.6141 56.028C63.3484 57.276 65.0826 58.524 66.8007 59.7558C68.3404 60.8579 69.8964 61.96 71.4523 63.0622C72.4897 63.8077 73.5756 64.5209 74.5643 65.315C75.9419 66.4172 78.1786 66.1092 79.3456 64.6991C79.8805 64.067 80.2857 63.4187 80.2371 62.5435C80.1884 61.49 79.767 60.6634 78.9242 59.9827C77.8221 59.0913 76.7686 58.135 75.6988 57.195C74.2077 55.9146 72.7328 54.618 71.2416 53.3376C69.9774 52.2355 68.7294 51.1171 67.4652 50.015C66.6224 49.2695 65.7471 48.5401 64.8881 47.8108C63.5267 46.6276 62.1652 45.4282 60.8037 44.2451C59.653 43.2402 58.5022 42.2353 57.3676 41.2304C56.6383 40.5984 55.8927 39.9663 55.1958 39.3017C54.5961 38.7345 54.0288 38.151 53.4615 37.5351C53.1374 37.1947 52.7322 37.0165 52.3108 36.8544C51.1114 36.4006 49.8309 36.2709 48.5829 36.4654C47.4808 36.6437 46.5569 37.2596 45.8114 38.1024C45.6331 38.3131 45.4872 38.54 45.3089 38.7345C44.8875 39.2045 44.8875 39.8204 44.7903 40.3876C44.6282 41.4087 44.2878 42.365 43.834 43.2726C43.2343 44.4558 42.4401 45.5093 41.4676 46.4169C40.5276 47.3083 39.4578 48.0539 38.2098 48.4591C36.897 48.8805 35.5355 48.9939 34.1741 48.848C32.845 48.7022 31.7753 48.0539 31.0783 46.8869C30.7056 46.2386 30.7056 45.5741 30.9973 44.8772C31.4511 43.8237 31.9374 42.7702 32.2291 41.6681C32.4884 40.6794 32.537 39.6421 32.6505 38.621C32.7802 37.4541 32.8774 36.2871 33.0071 35.1202C33.0233 34.9095 33.1043 34.6988 33.2016 34.5043C33.8175 33.3859 34.4334 32.2676 35.0493 31.1655C35.2762 30.7603 35.26 30.6955 34.7737 30.6955C32.7315 30.6955 30.6893 30.6955 28.6309 30.6955H27.8367C27.9016 30.5496 27.934 30.4362 27.9988 30.3389C28.5823 29.1557 29.1982 27.9726 29.7817 26.7894C29.879 26.5787 30.0086 26.4977 30.2517 26.4977C34.093 26.4977 37.9505 26.4977 41.7918 26.4977C42.0025 26.4977 42.2456 26.4329 42.4239 26.3194C44.223 25.2497 46.1517 24.5204 48.2101 24.099C49.8796 23.7586 51.5652 23.5479 53.2832 23.5965C55.1796 23.6613 57.0597 23.9531 58.8912 24.4393C59.9771 24.7311 61.0468 25.0714 62.149 25.3632C63.4618 25.7197 64.7585 26.1087 66.0875 26.3194C67.5462 26.5463 69.0211 26.6111 70.4961 26.7084C70.7878 26.7246 70.9175 26.8218 71.0309 27.065L73.1542 31.5059C74.1429 33.5642 75.1478 35.6064 76.1202 37.6648C77.0117 39.5124 77.9031 41.3601 78.7783 43.2078C79.9129 45.5741 81.0312 47.9404 82.1496 50.3229C82.5224 51.1009 82.879 51.8627 83.2679 52.6406C83.3652 52.8513 83.3814 53.062 83.2679 53.2727C82.6845 54.5369 82.1334 55.8011 81.5499 57.0653C81.4202 57.3571 81.4202 57.5516 81.6471 57.8271C83.1545 59.6586 83.9 61.7494 83.3652 64.0833C82.9276 65.9958 81.8578 67.5679 80.0101 68.4431C79.3456 68.7511 78.5676 68.8645 77.8383 69.0266C77.4655 69.1076 77.0765 69.1238 76.7037 69.1887C76.6227 69.2049 76.5092 69.3507 76.493 69.4318C76.3796 70.2097 76.3147 71.0039 76.1527 71.7657C75.9906 72.5274 75.6016 73.2082 75.0991 73.8078C73.8511 75.3152 72.1493 75.7528 70.3016 75.8338C70.026 75.8338 69.7343 75.8338 69.4588 75.8338C69.1832 75.8338 69.0374 75.9473 68.9725 76.1904C68.5673 77.6815 67.8704 78.9943 66.7196 80.064C65.7634 80.9554 64.6288 81.3444 63.2997 81.3282C61.7438 81.2958 60.3823 80.7447 59.0857 79.9667C58.956 79.9019 58.8263 79.8209 58.7453 79.7723C58.2753 80.4044 57.8539 81.0365 57.3514 81.6199C56.5572 82.5276 55.5848 83.1435 54.3854 83.4676C53.6884 83.6459 52.9915 83.6783 52.3108 83.5649C51.6462 83.4676 50.9655 83.2407 50.3658 82.949C49.5716 82.5762 48.826 82.1062 48.0805 81.6361C47.6105 81.3444 47.6429 81.4741 47.3511 81.782C46.9945 82.171 46.6704 82.5924 46.2976 82.9652C45.9086 83.3704 45.4062 83.5487 44.8389 83.5973C43.6071 83.6783 42.586 83.1921 41.6621 82.4303C40.9328 81.8144 40.3979 81.0689 40.2196 80.1288C40.1224 79.6426 40.2196 79.1077 40.252 78.6053C40.252 78.5567 40.2845 78.4919 40.3007 78.4432C40.3007 78.4108 40.2845 78.3784 40.252 78.2812C40.0738 78.4919 39.8955 78.6701 39.7658 78.8646C39.0527 79.8533 38.064 80.2747 36.8484 80.2747C34.7089 80.2747 32.6019 78.6053 32.0022 76.7252C31.7429 75.9148 31.597 75.1045 31.9374 74.2779C31.986 74.1644 31.986 74.0185 32.0184 73.9051C32.0022 73.8889 31.9698 73.8727 31.9536 73.8565" fill="white"/>
<path d="M18.6932 17.0318C19.3415 16.9508 19.8926 17.3398 20.4923 17.6153C21.6755 18.1664 22.8424 18.7336 24.0256 19.3009C24.5767 19.5602 25.1278 19.8196 25.6626 20.0951C26.6999 20.6299 27.0565 21.8455 26.5216 22.9314C25.8247 24.3739 25.1278 25.8164 24.447 27.2427C23.6042 28.9931 22.7938 30.7597 21.951 32.5102C20.6868 35.152 19.4226 37.7939 18.1421 40.4357C17.2993 42.2023 16.4565 43.969 15.6137 45.7518C14.6898 47.6967 13.766 49.6417 12.8583 51.5866C12.518 52.3321 12.0155 52.867 11.1889 52.9156C10.7675 52.9318 10.3137 52.867 9.94091 52.7049C8.46599 52.0566 7.02348 51.3435 5.58098 50.6465C4.93266 50.3386 4.28434 50.0306 3.66844 49.6579C2.82562 49.1554 2.56629 48.0047 2.9877 47.1295C3.6036 45.8653 4.18709 44.5849 4.80299 43.3207C5.45131 41.9592 6.11584 40.5978 6.76415 39.2525C7.49351 37.729 8.23908 36.1893 8.96844 34.6658C9.40605 33.7257 9.82746 32.7857 10.2651 31.8619C10.9296 30.4518 11.6265 29.0741 12.2911 27.6641C13.2798 25.5895 14.2846 23.5149 15.2733 21.4403C15.792 20.3544 16.3106 19.2685 16.8131 18.1664C17.1859 17.3722 17.7856 16.9832 18.7094 17.0156" fill="white"/>
<path d="M81.1464 17.0004C82.1027 16.9842 82.6862 17.4866 83.059 18.3132C84.0152 20.3554 85.0039 22.3975 85.9602 24.4235C87.0461 26.725 88.1158 29.0103 89.2018 31.2955C90.1743 33.3215 91.1629 35.3312 92.1354 37.3572C93.0593 39.2697 93.9507 41.1984 94.8583 43.1271C95.5229 44.521 96.2036 45.9148 96.8519 47.3087C97.1437 47.9246 97.0464 48.7998 96.4629 49.3995C96.0091 49.8695 95.4094 50.0964 94.8583 50.372C93.659 50.9716 92.4596 51.5551 91.244 52.1062C90.6119 52.3979 89.9473 52.6734 89.2828 52.9003C88.5535 53.1597 87.4837 52.7221 87.1272 51.9765C86.6085 50.8744 86.0736 49.7561 85.5388 48.6539C84.4528 46.3849 83.3669 44.0996 82.281 41.8305C81.503 40.1935 80.7412 38.5404 79.947 36.9034C79.2663 35.4609 78.5531 34.0346 77.8562 32.5922C77.2889 31.409 76.7703 30.2258 76.203 29.0427C75.3602 27.2598 74.485 25.5094 73.6259 23.7428C73.4152 23.3214 73.2207 22.9 73.0749 22.4786C72.7831 21.6034 73.3342 20.4688 74.1932 20.0798C75.1333 19.6422 76.0895 19.1884 77.0296 18.7346C78.1317 18.216 79.2339 17.6811 80.3522 17.1787C80.5954 17.0652 80.8709 17.0652 81.1464 17.0166" fill="white"/>
</svg>
