<svg width="88" height="63" viewBox="0 0 88 63" fill="none" xmlns="http://www.w3.org/2000/svg">
<path d="M27.7831 53.3229C27.7083 53.3827 27.6186 53.4276 27.5438 53.4874C26.5269 54.3099 25.3754 54.3996 24.1491 54.0706C22.4593 53.5921 21.2928 52.5004 20.6647 50.8854C20.3208 49.9881 20.2759 49.046 20.7545 48.1338C20.7545 48.0889 20.7844 48.059 20.7844 48.0141C20.7844 47.9842 20.7844 47.9543 20.7545 47.8945C20.5152 48.074 20.3058 48.2384 20.0815 48.388C19.244 48.8964 18.3318 49.0908 17.3448 48.9413C15.8792 48.717 14.7277 47.9842 13.9501 46.743C12.9781 45.2177 12.9182 43.2138 14.2193 41.6885C15.0119 40.7613 15.7746 39.8192 16.5672 38.892C16.7466 38.6826 16.7317 38.5331 16.5672 38.3237C15.5802 37.1423 14.6081 35.946 13.6211 34.7646C13.4566 34.5552 13.4267 34.3907 13.5613 34.1515C14.0099 33.2991 14.4287 32.4467 14.8623 31.5793C14.9072 31.5045 14.9521 31.4298 15.0119 31.3251C16.3728 32.9252 17.7037 34.4954 19.0347 36.0507C20.7844 34.959 22.5041 34.974 24.0893 36.1254C26.3774 37.7704 26.8709 39.9238 25.4053 42.4661C27.3345 41.3595 29.0842 41.7632 30.6394 43.0792C32.2097 44.4101 32.8378 46.1 32.0452 48.2085C33.8995 46.9524 35.6044 47.2814 37.2045 48.5226C38.8047 49.7787 39.4627 51.3938 38.7897 53.4276C38.8794 53.4276 38.9243 53.4276 38.9542 53.4276C40.0608 52.6948 41.1824 52.9192 42.2592 53.4874C43.2761 54.0407 44.0238 54.8632 44.3678 55.9997C44.5622 56.6577 44.5771 57.3157 44.2182 57.9289C44.1434 58.0634 44.1584 58.1831 44.308 58.2579C44.9061 58.5719 45.4744 58.9906 46.1025 59.1701C47.4783 59.5589 48.9289 59.0803 49.557 57.6298C49.7215 57.2559 49.6467 57.0017 49.3327 56.7475C47.5531 55.4165 45.7885 54.1006 44.0089 52.7696C43.291 52.2313 42.5583 51.6929 41.8554 51.1246C41.2722 50.661 41.2722 49.7787 41.8105 49.1656C42.3639 48.5375 42.977 48.4628 43.6649 48.9413C45.0706 49.9133 46.4465 50.9153 47.8372 51.8873C48.8542 52.6051 49.901 53.293 50.9179 54.0108C51.6208 54.5043 52.3236 55.0128 53.0265 55.5063C53.6845 55.9698 54.3425 56.4633 55.0304 56.897C56.167 57.6148 57.3932 57.3755 58.2456 56.3138C58.6793 55.7754 58.9485 55.1474 58.9036 54.4445C58.8588 53.7865 58.6045 53.2332 58.0662 52.8444C56.8399 51.9322 55.5837 51.0499 54.3425 50.1676C52.8022 49.046 51.2768 47.9244 49.7365 46.8178C48.4205 45.8607 47.0895 44.9036 45.7735 43.9316C45.2501 43.5577 45.0557 42.9297 45.2501 42.2866C45.4445 41.6585 45.8333 41.3894 46.5212 41.3146C47.0297 41.2697 47.4634 41.4043 47.8821 41.7034C49.8561 43.1241 51.8301 44.5148 53.8041 45.9355C55.2547 46.9673 56.7053 48.0141 58.1559 49.0609C59.4121 49.9582 60.6234 50.9153 61.9394 51.6929C63.2405 52.4705 64.8257 52.2163 65.5435 50.691C66.0669 49.5993 65.9473 48.3581 64.7509 47.5206C63.5097 46.6682 62.2834 45.7859 61.0721 44.9036C59.6215 43.8568 58.1709 42.7951 56.7053 41.7333C54.8659 40.4024 53.0115 39.0714 51.1572 37.7555C50.5739 37.3367 49.9757 36.933 49.3925 36.5143C48.8542 36.1254 48.5251 35.6319 48.4504 34.959C48.3756 34.0917 49.0934 33.4337 49.9608 33.5383C50.5141 33.5982 50.9927 33.8225 51.4413 34.1515C52.6526 35.0338 53.8789 35.8862 55.0902 36.7685C56.6904 37.92 58.2905 39.0714 59.8757 40.208C61.2964 41.2249 62.732 42.2418 64.1677 43.2587C65.1248 43.9466 66.1267 44.6045 67.0389 45.3373C68.3101 46.3542 70.3738 46.0701 71.4506 44.769C71.9441 44.1858 72.3179 43.5877 72.2731 42.7801C72.2282 41.8081 71.8394 41.0454 71.0617 40.4173C70.0448 39.5948 69.0728 38.7125 68.0858 37.8452C66.71 36.6638 65.3491 35.4674 63.9733 34.2861C62.8068 33.2692 61.6553 32.2373 60.4888 31.2204C59.7112 30.5325 58.9036 29.8596 58.111 29.1866C56.8549 28.095 55.5987 26.9883 54.3425 25.8967C53.2807 24.9695 52.2189 24.0423 51.1721 23.1152C50.4992 22.5319 49.8112 21.9487 49.1682 21.3356C48.6149 20.8122 48.0915 20.2738 47.5681 19.7056C47.269 19.3915 46.8951 19.227 46.5063 19.0775C45.3996 18.6588 44.2182 18.5391 43.0667 18.7186C42.0498 18.8831 41.1974 19.4514 40.5095 20.229C40.345 20.4234 40.2104 20.6327 40.0459 20.8122C39.6571 21.2459 39.6571 21.8141 39.5673 22.3375C39.4178 23.2797 39.1037 24.162 38.685 24.9994C38.1317 26.0911 37.3989 27.0631 36.5016 27.9006C35.6343 28.723 34.6473 29.4109 33.4958 29.7848C32.2844 30.1736 31.0283 30.2783 29.7721 30.1437C28.5458 30.0091 27.5588 29.4109 26.9157 28.3342C26.5718 27.7361 26.5718 27.1229 26.841 26.4799C27.2597 25.5079 27.7083 24.5358 27.9775 23.5189C28.2168 22.6067 28.2617 21.6496 28.3663 20.7075C28.486 19.6308 28.5757 18.5541 28.6953 17.4774C28.7103 17.283 28.7851 17.0886 28.8748 16.9091C29.4431 15.8773 30.0114 14.8454 30.5796 13.8285C30.789 13.4547 30.774 13.3948 30.3254 13.3948C28.4411 13.3948 26.5568 13.3948 24.6576 13.3948H23.9248C23.9846 13.2603 24.0146 13.1556 24.0744 13.0659C24.6127 11.9742 25.181 10.8825 25.7194 9.79085C25.8091 9.59645 25.9287 9.52168 26.1531 9.52168C29.6973 9.52168 33.2565 9.52168 36.8007 9.52168C36.9952 9.52168 37.2195 9.46186 37.384 9.35718C39.0439 8.3702 40.8235 7.69725 42.7228 7.30843C44.2631 6.99439 45.8184 6.79999 47.4036 6.84485C49.1532 6.90467 50.888 7.17385 52.5778 7.62248C53.5798 7.89166 54.5668 8.2057 55.5837 8.47488C56.795 8.80387 57.9914 9.16278 59.2177 9.35718C60.5636 9.56654 61.9245 9.62636 63.2853 9.71608C63.5545 9.73104 63.6742 9.82077 63.7788 10.0451L65.7379 14.1426C66.6501 16.0418 67.5773 17.926 68.4746 19.8252C69.2971 21.53 70.1196 23.2348 70.9271 24.9396C71.974 27.1229 73.0058 29.3063 74.0377 31.5045C74.3817 32.2224 74.7107 32.9252 75.0696 33.643C75.1593 33.8374 75.1743 34.0318 75.0696 34.2262C74.5312 35.3927 74.0227 36.5591 73.4844 37.7256C73.3647 37.9947 73.3647 38.1742 73.5741 38.4284C74.9649 40.1182 75.6528 42.0474 75.1593 44.2008C74.7555 45.9654 73.7685 47.416 72.0637 48.2235C71.4506 48.5076 70.7327 48.6123 70.0598 48.7619C69.7158 48.8366 69.3569 48.8516 69.013 48.9114C68.9382 48.9263 68.8335 49.0609 68.8186 49.1357C68.7139 49.8535 68.654 50.5863 68.5045 51.2891C68.355 51.992 67.996 52.6201 67.5325 53.1734C66.3809 54.5641 64.8107 54.9679 63.1059 55.0427C62.8517 55.0427 62.5825 55.0427 62.3282 55.0427C62.074 55.0427 61.9394 55.1474 61.8796 55.3717C61.5057 56.7475 60.8627 57.9588 59.8009 58.9458C58.9186 59.7682 57.8718 60.1271 56.6455 60.1122C55.2099 60.0823 53.9537 59.5738 52.7573 58.856C52.6377 58.7962 52.518 58.7214 52.4432 58.6766C52.0096 59.2598 51.6208 59.843 51.1572 60.3814C50.4244 61.2188 49.5271 61.7871 48.4205 62.0862C47.7774 62.2507 47.1344 62.2806 46.5063 62.1759C45.8931 62.0862 45.265 61.8768 44.7117 61.6076C43.9789 61.2637 43.291 60.83 42.6031 60.3963C42.1694 60.1271 42.1993 60.2468 41.9302 60.5309C41.6012 60.8898 41.3021 61.2786 40.9581 61.6226C40.5992 61.9964 40.1356 62.1609 39.6122 62.2058C38.4757 62.2806 37.5335 61.8319 36.6811 61.1291C36.0081 60.5608 35.5146 59.8729 35.3501 59.0056C35.2604 58.5569 35.3501 58.0634 35.3801 57.5999C35.3801 57.555 35.41 57.4952 35.4249 57.4503C35.4249 57.4204 35.41 57.3905 35.3801 57.3008C35.2156 57.4952 35.0511 57.6597 34.9314 57.8391C34.2734 58.7514 33.3612 59.1402 32.2396 59.1402C30.2656 59.1402 28.3215 57.5999 27.7682 55.8652C27.5289 55.1174 27.3943 54.3697 27.7083 53.6071C27.7532 53.5024 27.7532 53.3678 27.7831 53.2631C27.7682 53.2481 27.7383 53.2332 27.7233 53.2182" fill="#B1B1B1"/>
<path d="M15.4907 0.787677C16.0889 0.712905 16.5973 1.07181 17.1507 1.32603C18.2423 1.83448 19.3191 2.35788 20.4108 2.88128C20.9192 3.12055 21.4277 3.35982 21.9212 3.61405C22.8783 4.10754 23.2073 5.22911 22.7138 6.23105C22.0707 7.56199 21.4277 8.89293 20.7996 10.2089C20.0219 11.824 19.2742 13.454 18.4966 15.0691C17.3301 17.5066 16.1637 19.9442 14.9822 22.3817C14.2046 24.0118 13.427 25.6418 12.6493 27.2868C11.7969 29.0813 10.9445 30.8758 10.107 32.6703C9.79299 33.3582 9.3294 33.8517 8.56671 33.8966C8.17789 33.9115 7.75916 33.8517 7.41521 33.7022C6.05434 33.104 4.72338 32.446 3.39242 31.803C2.79424 31.5188 2.19605 31.2347 1.62778 30.8908C0.850139 30.4272 0.610862 29.3654 0.999682 28.5579C1.56796 27.3914 2.10633 26.21 2.6746 25.0436C3.27279 23.7874 3.88592 22.5313 4.48411 21.2901C5.15706 19.8844 5.84498 18.4637 6.51793 17.058C6.92171 16.1906 7.31053 15.3233 7.7143 14.4709C8.32744 13.1699 8.97049 11.8987 9.58363 10.5977C10.4959 8.68357 11.423 6.76941 12.3353 4.85526C12.8138 3.85331 13.2924 2.85137 13.756 1.83448C14.0999 1.10172 14.6532 0.742814 15.5056 0.772722" fill="#B1B1B1"/>
<path d="M73.1216 0.758774C74.004 0.74382 74.5423 1.2074 74.8863 1.97007C75.7686 3.85432 76.6808 5.73857 77.5631 7.60786C78.5651 9.73137 79.5521 11.8399 80.5541 13.9485C81.4513 15.8178 82.3636 17.6721 83.2608 19.5414C84.1133 21.306 84.9358 23.0856 85.7732 24.8652C86.3864 26.1512 87.0145 27.4373 87.6126 28.7234C87.8818 29.2916 87.7921 30.0992 87.2537 30.6525C86.835 31.0862 86.2817 31.2955 85.7732 31.5497C84.6666 32.1031 83.5599 32.6414 82.4384 33.1499C81.8551 33.419 81.242 33.6733 80.6288 33.8826C79.9559 34.1219 78.9689 33.7181 78.6399 33.0302C78.1613 32.0133 77.6678 30.9815 77.1743 29.9646C76.1724 27.871 75.1704 25.7624 74.1685 23.6688C73.4506 22.1584 72.7478 20.6331 72.015 19.1227C71.3869 17.7918 70.7289 16.4758 70.0858 15.1448C69.5624 14.0532 69.0839 12.9615 68.5605 11.8698C67.7828 10.2249 66.9753 8.6098 66.1827 6.97978C65.9883 6.59096 65.8088 6.20215 65.6742 5.81334C65.4051 5.00581 65.9135 3.959 66.7061 3.6001C67.5735 3.19633 68.4558 2.77761 69.3232 2.35889C70.3401 1.88035 71.357 1.38686 72.3889 0.923273C72.6132 0.818592 72.8674 0.818592 73.1216 0.773729" fill="#B1B1B1"/>
</svg>
