<svg width="123" height="87" viewBox="0 0 123 87" fill="none" xmlns="http://www.w3.org/2000/svg">
<path d="M37.9734 74.3904C37.8681 74.4746 37.7417 74.5378 37.6364 74.622C36.2044 75.7802 34.5829 75.9066 32.856 75.4433C30.4764 74.7694 28.8338 73.2321 27.9493 70.9578C27.465 69.6943 27.4018 68.3676 28.0757 67.083C28.0757 67.0199 28.1178 66.9777 28.1178 66.9146C28.1178 66.8725 28.1178 66.8303 28.0757 66.7461C27.7387 66.9988 27.4439 67.2304 27.128 67.441C25.9487 68.157 24.6641 68.4308 23.2742 68.2202C21.2105 67.9043 19.5889 66.8725 18.4939 65.1246C17.125 62.9766 17.0408 60.1548 18.8729 58.0068C19.989 56.7012 21.063 55.3745 22.1792 54.0689C22.4319 53.774 22.4108 53.5634 22.1792 53.2686C20.7893 51.605 19.4204 49.9203 18.0306 48.2567C17.7989 47.9619 17.7568 47.7302 17.9463 47.3933C18.5781 46.1929 19.1677 44.9926 19.7784 43.7712C19.8416 43.6659 19.9048 43.5606 19.989 43.4132C21.9054 45.6665 23.7796 47.8776 25.6539 50.0677C28.1178 48.5304 30.5396 48.5515 32.7718 50.173C35.9938 52.4895 36.6888 55.5219 34.625 59.1018C37.3416 57.5435 39.8055 58.1121 41.9956 59.9652C44.2068 61.8395 45.0913 64.2191 43.9752 67.1883C46.5865 65.4194 48.9872 65.8827 51.2405 67.6306C53.4938 69.3995 54.4204 71.6738 53.4727 74.5378C53.5991 74.5378 53.6623 74.5378 53.7044 74.5378C55.2628 73.5059 56.8422 73.8218 58.3584 74.622C59.7904 75.4012 60.8434 76.5594 61.3277 78.1598C61.6015 79.0864 61.6225 80.013 61.1171 80.8764C61.0118 81.0659 61.0329 81.2344 61.2435 81.3397C62.0859 81.7819 62.8861 82.3715 63.7706 82.6243C65.708 83.1718 67.7507 82.4979 68.6352 80.4552C68.8668 79.9287 68.7615 79.5708 68.3193 79.2128C65.8133 77.3385 63.3283 75.4854 60.8223 73.6112C59.8115 72.8531 58.7796 72.095 57.7898 71.2947C56.9685 70.6419 56.9685 69.3995 57.7267 68.5361C58.5058 67.6516 59.3692 67.5463 60.338 68.2202C62.3175 69.589 64.2549 70.9999 66.2134 72.3687C67.6454 73.3795 69.1195 74.3482 70.5515 75.359C71.5413 76.054 72.5311 76.77 73.5209 77.4649C74.4474 78.1177 75.374 78.8126 76.3427 79.4233C77.9432 80.4342 79.6701 80.0972 80.8704 78.6021C81.4811 77.844 81.8602 76.9595 81.797 75.9697C81.7338 75.0432 81.3758 74.264 80.6177 73.7165C78.8909 72.4319 77.1219 71.1895 75.374 69.947C73.205 68.3676 71.057 66.7882 68.8879 65.2299C67.0347 63.8821 65.1604 62.5344 63.3073 61.1656C62.5702 60.6391 62.2964 59.7547 62.5702 58.8491C62.844 57.9647 63.3915 57.5856 64.3602 57.4803C65.0762 57.4172 65.6869 57.6067 66.2766 58.0279C69.0564 60.0284 71.8361 61.9869 74.6159 63.9874C76.6586 65.4405 78.7013 66.9146 80.7441 68.3887C82.513 69.6522 84.2188 70.9999 86.072 72.095C87.9041 73.19 90.1363 72.832 91.1472 70.6841C91.8842 69.1468 91.7158 67.3989 90.0311 66.2196C88.2832 65.0193 86.5563 63.7768 84.8506 62.5344C82.8078 61.0603 80.7651 59.5651 78.7014 58.07C76.1111 56.1958 73.4998 54.3216 70.8885 52.4684C70.0672 51.8788 69.2248 51.3102 68.4035 50.7205C67.6454 50.173 67.1821 49.4781 67.0768 48.5304C66.9715 47.3091 67.9823 46.3825 69.2038 46.5299C69.9829 46.6141 70.6568 46.93 71.2886 47.3933C72.9944 48.6357 74.7212 49.8361 76.427 51.0785C78.6803 52.7 80.9336 54.3215 83.1658 55.922C85.1664 57.354 87.1881 58.786 89.2098 60.2179C90.5575 61.1866 91.9685 62.1132 93.2531 63.1451C95.0431 64.5771 97.9492 64.177 99.4655 62.3449C100.16 61.5236 100.687 60.6812 100.624 59.5441C100.561 58.1753 100.013 57.1013 98.9179 56.2168C97.4859 55.0586 96.1171 53.8161 94.7272 52.5948C92.7898 50.9311 90.8734 49.2464 88.936 47.5828C87.2934 46.1508 85.6719 44.6978 84.0293 43.2658C82.9342 42.2971 81.797 41.3495 80.6809 40.4018C78.9119 38.8646 77.143 37.3062 75.374 35.769C73.8789 34.4633 72.3837 33.1577 70.9095 31.8521C69.9619 31.0308 68.9932 30.2095 68.0876 29.3461C67.3085 28.6091 66.5714 27.8509 65.8343 27.0507C65.4132 26.6085 64.8867 26.3769 64.3392 26.1663C62.7808 25.5766 61.1171 25.4082 59.4956 25.6609C58.0636 25.8925 56.8632 26.6927 55.8945 27.7878C55.6629 28.0615 55.4733 28.3564 55.2417 28.6091C54.6942 29.2198 54.6942 30.02 54.5678 30.757C54.3572 32.0837 53.915 33.3262 53.3253 34.5055C52.5461 36.0427 51.5143 37.4115 50.2507 38.5908C49.0293 39.749 47.6394 40.7177 46.0179 41.2442C44.3121 41.7917 42.5432 41.9391 40.7742 41.7496C39.0474 41.5601 37.6575 40.7177 36.752 39.2015C36.2676 38.3592 36.2676 37.4958 36.6467 36.5902C37.2363 35.2214 37.8681 33.8526 38.2471 32.4207C38.5841 31.1361 38.6472 29.7883 38.7947 28.4616C38.9631 26.9454 39.0895 25.4292 39.258 23.913C39.279 23.6392 39.3843 23.3655 39.5107 23.1128C40.3109 21.6597 41.1112 20.2067 41.9114 18.7747C42.2062 18.2482 42.1852 18.164 41.5534 18.164C38.9 18.164 36.2465 18.164 33.572 18.164H32.5402C32.6244 17.9745 32.6665 17.8271 32.7508 17.7007C33.5089 16.1635 34.3091 14.6262 35.0672 13.0889C35.1936 12.8151 35.3621 12.7098 35.6779 12.7098C40.6689 12.7098 45.6809 12.7098 50.6719 12.7098C50.9457 12.7098 51.2616 12.6256 51.4932 12.4782C53.8307 11.0883 56.3368 10.1407 59.0112 9.59318C61.1803 9.15095 63.3704 8.87719 65.6027 8.94036C68.0666 9.0246 70.5094 9.40366 72.8891 10.0354C74.3 10.4145 75.6899 10.8567 77.1219 11.2358C78.8277 11.699 80.5124 12.2044 82.2393 12.4782C84.1346 12.773 86.0509 12.8573 87.9673 12.9836C88.3463 13.0047 88.5148 13.131 88.6622 13.4469L91.4209 19.2169C92.7055 21.8914 94.0112 24.5448 95.2747 27.2192C96.433 29.6199 97.5912 32.0205 98.7284 34.4212C100.203 37.4958 101.656 40.5703 103.109 43.6659C103.593 44.6767 104.056 45.6665 104.562 46.6773C104.688 46.9511 104.709 47.2248 104.562 47.4986C103.804 49.1411 103.088 50.7837 102.329 52.4263C102.161 52.8053 102.161 53.058 102.456 53.416C104.414 55.7957 105.383 58.5122 104.688 61.5446C104.119 64.0295 102.73 66.0722 100.329 67.2094C99.4655 67.6095 98.4546 67.7569 97.507 67.9675C97.0226 68.0728 96.5172 68.0938 96.0328 68.1781C95.9275 68.1991 95.7801 68.3887 95.7591 68.494C95.6117 69.5048 95.5274 70.5366 95.3168 71.5264C95.1063 72.5161 94.6008 73.4006 93.948 74.1798C92.3265 76.1382 90.1153 76.7068 87.7146 76.8121C87.3566 76.8121 86.9775 76.8121 86.6195 76.8121C86.2615 76.8121 86.072 76.9595 85.9877 77.2754C85.4613 79.2128 84.5557 80.9185 83.0605 82.3084C81.8181 83.4666 80.3439 83.972 78.6171 83.9509C76.5955 83.9088 74.8265 83.1928 73.1418 82.182C72.9733 82.0978 72.8048 81.9925 72.6995 81.9293C72.0888 82.7506 71.5413 83.5719 70.8885 84.33C69.8566 85.5093 68.5931 86.3095 67.0347 86.7307C66.1292 86.9623 65.2236 87.0044 64.3392 86.857C63.4757 86.7307 62.5913 86.4358 61.8121 86.0568C60.7802 85.5724 59.8115 84.9617 58.8428 84.3511C58.2321 83.972 58.2742 84.1405 57.8951 84.5406C57.4318 85.046 57.0106 85.5935 56.5263 86.0779C56.0209 86.6043 55.368 86.836 54.631 86.8991C53.0305 87.0044 51.7038 86.3727 50.5034 85.3829C49.5558 84.5827 48.8608 83.614 48.6292 82.3926C48.5028 81.7608 48.6292 81.0659 48.6713 80.4131C48.6713 80.3499 48.7134 80.2657 48.7345 80.2025C48.7345 80.1604 48.7134 80.1183 48.6713 79.9919C48.4397 80.2657 48.208 80.4973 48.0395 80.75C47.1129 82.0346 45.8283 82.5821 44.2489 82.5821C41.4691 82.5821 38.7315 80.4131 37.9523 77.9703C37.6154 76.9174 37.4258 75.8645 37.8681 74.7905C37.9312 74.6431 37.9312 74.4535 37.9734 74.3061C37.9523 74.2851 37.9102 74.264 37.8891 74.2429" fill="white"/>
<path d="M20.6642 0.411491C21.5066 0.306198 22.2226 0.811604 23.0017 1.1696C24.539 1.88559 26.0553 2.62264 27.5926 3.35969C28.3086 3.69662 29.0246 4.03356 29.7195 4.39156C31.0673 5.08649 31.5306 6.66588 30.8357 8.0768C29.9301 9.95101 29.0246 11.8252 28.1401 13.6784C27.0451 15.9527 25.9921 18.2481 24.897 20.5224C23.2544 23.955 21.6119 27.3875 19.9482 30.82C18.8531 33.1154 17.7581 35.4108 16.663 37.7272C15.4626 40.2543 14.2623 42.7813 13.083 45.3083C12.6407 46.277 11.9879 46.972 10.9139 47.0351C10.3664 47.0562 9.77673 46.9719 9.29237 46.7614C7.37601 45.919 5.50177 44.9924 3.62752 44.0869C2.78516 43.6868 1.94281 43.2867 1.14257 42.8024C0.0475022 42.1495 -0.289445 40.6544 0.258087 39.5172C1.05833 37.8747 1.81645 36.211 2.61669 34.5685C3.45905 32.7995 4.32247 31.0306 5.16482 29.2828C6.11247 27.3033 7.08119 25.3027 8.02884 23.3232C8.59743 22.1018 9.14496 20.8804 9.71355 19.6801C10.577 17.848 11.4825 16.058 12.3459 14.2259C13.6305 11.5304 14.9362 8.83491 16.2208 6.13942C16.8946 4.72849 17.5685 3.31757 18.2214 1.88559C18.7057 0.853718 19.4849 0.348314 20.6853 0.390432" fill="white"/>
<path d="M101.824 0.369696C103.067 0.348638 103.825 1.00145 104.309 2.07544C105.551 4.72882 106.836 7.38219 108.079 10.0145C109.49 13.0048 110.879 15.9741 112.29 18.9433C113.554 21.5757 114.838 24.1869 116.102 26.8192C117.302 29.3041 118.461 31.8101 119.64 34.3161C120.503 36.1271 121.388 37.9382 122.23 39.7492C122.609 40.5494 122.483 41.6866 121.725 42.4657C121.135 43.0764 120.356 43.3713 119.64 43.7293C118.082 44.5084 116.523 45.2665 114.944 45.9825C114.122 46.3616 113.259 46.7196 112.396 47.0144C111.448 47.3513 110.058 46.7827 109.595 45.8141C108.921 44.3821 108.226 42.929 107.531 41.497C106.12 38.5489 104.709 35.5796 103.298 32.6314C102.287 30.5045 101.298 28.3565 100.266 26.2296C99.3812 24.3554 98.4546 22.5022 97.5491 20.628C96.812 19.0908 96.1382 17.5535 95.4011 16.0162C94.306 13.6998 93.1688 11.4254 92.0527 9.13005C91.779 8.58253 91.5263 8.03501 91.3367 7.48749C90.9577 6.35033 91.6737 4.87623 92.7898 4.37082C94.0112 3.80224 95.2537 3.2126 96.4751 2.62296C97.9071 1.94909 99.3391 1.25416 100.792 0.601342C101.108 0.453932 101.466 0.453931 101.824 0.390755" fill="white"/>
</svg>
