<svg width="77" height="88" viewBox="0 0 77 88" fill="none" xmlns="http://www.w3.org/2000/svg">
<path d="M68.273 74.6638C68.273 79.5704 64.7352 83.5294 60.3549 83.5294H52.4367C44.9397 83.5294 43.1076 72.1157 42.9391 70.9575C42.876 68.0935 40.749 65.7771 38.1799 65.7771C35.6107 65.7771 33.5047 68.0935 33.4205 70.9575C33.2731 72.1157 31.441 83.5294 23.9229 83.5294H16.0047C11.6455 83.5294 8.08662 79.5494 8.08662 74.6638V64.0081C8.08662 61.081 10.2135 58.6803 12.8459 58.6803H63.5348C66.1461 58.6803 68.273 61.06 68.273 64.0081V74.6638ZM73.2851 62.2182H71.2844C70.5474 58.1749 67.3464 55.1214 63.5348 55.1214H12.8459C9.03423 55.1214 5.83333 58.1749 5.07521 62.2182H3.07459C1.36881 62.2182 0 63.0184 0 63.9871V74.6427C0 75.6325 1.36881 76.4116 3.07459 76.4116H5.03305C5.81223 82.4133 10.4241 87.0673 16.0047 87.0673H23.9229C32.4307 87.0673 35.9265 76.7696 36.5794 71.3155C36.5794 71.2312 36.5794 71.147 36.5794 71.0838C36.5794 70.0941 37.2954 69.3149 38.1588 69.3149C39.0222 69.3149 39.7382 70.1151 39.7382 71.0838C39.7382 71.147 39.7382 71.2312 39.7382 71.3155C40.391 76.7696 43.8868 87.0673 52.3946 87.0673H60.3127C65.8934 87.0673 70.5263 82.4344 71.2844 76.4116H73.243C74.9487 76.4116 76.3175 75.6114 76.3175 74.6427V63.9871C76.3175 62.9973 74.9487 62.2182 73.243 62.2182M9.30801 33.2837H67.0726C68.0835 33.2837 68.8837 34.5472 68.8837 36.1056C68.8837 37.6639 68.0835 38.9274 67.0726 38.9274H9.30801C8.29718 38.9274 7.49697 37.6639 7.49697 36.1056C7.49697 34.5472 8.29718 33.2837 9.30801 33.2837ZM1.28456 48.9934C1.74786 49.1198 12.8038 52.089 38.1799 52.089C63.5559 52.089 74.6118 49.1198 75.0751 48.9934C75.749 48.8039 76.1912 48.2142 76.1912 47.5193V41.4334C76.1912 41.0333 76.0227 40.6332 75.749 40.3594L73.1587 37.7481C72.906 23.9127 64.3982 11.5724 51.8682 6.22348V17.0897C51.8682 17.932 51.1943 18.6059 50.3519 18.6059C49.5096 18.6059 48.8357 17.932 48.8357 17.0897V5.08632C48.8357 5.08632 48.7936 5.08632 48.7725 5.06526C48.4566 2.43294 46.2454 0.369202 43.5288 0.369202H39.7171V20.1642C39.7171 21.0066 39.0432 21.6805 38.2009 21.6805C37.3585 21.6805 36.6846 21.0066 36.6846 20.1642V0.369202H32.894C30.1564 0.369202 27.9452 2.43294 27.6293 5.06526C27.6293 5.06526 27.5872 5.06526 27.5661 5.08632V17.0897C27.5661 17.932 26.8922 18.6059 26.0499 18.6059C25.2075 18.6059 24.5336 17.932 24.5336 17.0897V6.22348C12.0036 11.5724 3.49576 23.9127 3.26411 37.7481L0.652822 40.3594C0.379056 40.6332 0.210538 41.0333 0.210538 41.4334V47.5193C0.210538 48.1932 0.673896 48.8039 1.32672 48.9934" fill="white"/>
</svg>
