<svg width="63" height="72" viewBox="0 0 63 72" fill="none" xmlns="http://www.w3.org/2000/svg">
<path d="M56.3026 60.9177C56.3026 64.9409 53.4018 68.1871 49.8102 68.1871H43.3177C37.1706 68.1871 35.6683 58.8285 35.5302 57.8788C35.4784 55.5305 33.7344 53.6311 31.6278 53.6311C29.5212 53.6311 27.7944 55.5305 27.7254 57.8788C27.6045 58.8285 26.1022 68.1871 19.9378 68.1871H13.4453C9.87101 68.1871 6.95288 64.9237 6.95288 60.9177V52.1807C6.95288 49.7806 8.69684 47.8121 10.8552 47.8121H52.4175C54.5587 47.8121 56.3026 49.7633 56.3026 52.1807V60.9177ZM60.4123 50.713H58.7719C58.1675 47.3977 55.5429 44.894 52.4175 44.894H10.8552C7.72987 44.894 5.1053 47.3977 4.48368 50.713H2.84327C1.44462 50.713 0.322266 51.3691 0.322266 52.1634V60.9005C0.322266 61.712 1.44462 62.3509 2.84327 62.3509H4.44911C5.088 67.272 8.86951 71.088 13.4453 71.088H19.9378C26.9138 71.088 29.7802 62.6444 30.3155 58.1723C30.3155 58.1032 30.3155 58.0342 30.3155 57.9824C30.3155 57.1708 30.9026 56.532 31.6105 56.532C32.3185 56.532 32.9056 57.1881 32.9056 57.9824C32.9056 58.0342 32.9056 58.1032 32.9056 58.1723C33.4408 62.6444 36.3072 71.088 43.2832 71.088H49.7756C54.3515 71.088 58.1502 67.2893 58.7719 62.3509H60.3777C61.7764 62.3509 62.8987 61.6948 62.8987 60.9005V52.1634C62.8987 51.3519 61.7764 50.713 60.3777 50.713M7.95436 26.9882H55.3184C56.1472 26.9882 56.8034 28.0242 56.8034 29.302C56.8034 30.5797 56.1472 31.6158 55.3184 31.6158H7.95436C7.12553 31.6158 6.4694 30.5797 6.4694 29.302C6.4694 28.0242 7.12553 26.9882 7.95436 26.9882ZM1.37554 39.8694C1.75542 39.973 10.8208 42.4076 31.6278 42.4076C52.4348 42.4076 61.5001 39.973 61.88 39.8694C62.4325 39.714 62.7951 39.2305 62.7951 38.6607V33.6705C62.7951 33.3425 62.657 33.0144 62.4326 32.7899L60.3087 30.6488C60.1015 19.3044 53.1255 9.18601 42.8515 4.80021V13.7099C42.8515 14.4006 42.2989 14.9532 41.6083 14.9532C40.9176 14.9532 40.365 14.4006 40.365 13.7099V3.86779C40.365 3.86779 40.3305 3.86779 40.3132 3.85053C40.0542 1.69216 38.2411 0 36.0136 0H32.8883V16.2309C32.8883 16.9216 32.3357 17.4741 31.645 17.4741C30.9543 17.4741 30.4018 16.9216 30.4018 16.2309V0H27.2937C25.049 0 23.2359 1.69216 22.9769 3.85053C22.9769 3.85053 22.9424 3.85053 22.9251 3.86779V13.7099C22.9251 14.4006 22.3725 14.9532 21.6818 14.9532C20.9912 14.9532 20.4386 14.4006 20.4386 13.7099V4.80021C10.1646 9.18601 3.18861 19.3044 2.99867 30.6488L0.857546 32.7899C0.633072 33.0144 0.494896 33.3425 0.494896 33.6705V38.6607C0.494896 39.2132 0.874826 39.714 1.41011 39.8694" fill="#1C242E"/>
</svg>
