<svg width="63" height="72" viewBox="0 0 63 72" fill="none" xmlns="http://www.w3.org/2000/svg">
<path d="M56.1191 60.9177C56.1191 64.9409 53.2182 68.1871 49.6266 68.1871H43.1341C36.987 68.1871 35.4847 58.8285 35.3466 57.8788C35.2948 55.5305 33.5508 53.6311 31.4442 53.6311C29.3376 53.6311 27.6109 55.5305 27.5418 57.8788C27.4209 58.8285 25.9186 68.1871 19.7542 68.1871H13.2617C9.68742 68.1871 6.76929 64.9237 6.76929 60.9177V52.1807C6.76929 49.7806 8.51324 47.8121 10.6716 47.8121H52.2339C54.3751 47.8121 56.1191 49.7633 56.1191 52.1807V60.9177ZM60.2287 50.713H58.5883C57.9839 47.3977 55.3593 44.894 52.2339 44.894H10.6716C7.54628 44.894 4.92171 47.3977 4.30008 50.713H2.65968C1.26103 50.713 0.138672 51.3691 0.138672 52.1634V60.9005C0.138672 61.712 1.26103 62.3509 2.65968 62.3509H4.26552C4.9044 67.272 8.68592 71.088 13.2617 71.088H19.7542C26.7302 71.088 29.5966 62.6444 30.1319 58.1723C30.1319 58.1032 30.1319 58.0342 30.1319 57.9824C30.1319 57.1708 30.719 56.532 31.4269 56.532C32.1349 56.532 32.722 57.1881 32.722 57.9824C32.722 58.0342 32.722 58.1032 32.722 58.1723C33.2572 62.6444 36.1236 71.088 43.0996 71.088H49.592C54.1679 71.088 57.9666 67.2893 58.5883 62.3509H60.1942C61.5928 62.3509 62.7152 61.6948 62.7152 60.9005V52.1634C62.7152 51.3519 61.5928 50.713 60.1942 50.713M7.77077 26.9882H55.1348C55.9636 26.9882 56.6198 28.0242 56.6198 29.302C56.6198 30.5797 55.9636 31.6158 55.1348 31.6158H7.77077C6.94194 31.6158 6.28581 30.5797 6.28581 29.302C6.28581 28.0242 6.94194 26.9882 7.77077 26.9882ZM1.19195 39.8694C1.57183 39.973 10.6372 42.4076 31.4442 42.4076C52.2512 42.4076 61.3165 39.973 61.6964 39.8694C62.2489 39.714 62.6116 39.2305 62.6116 38.6607V33.6705C62.6116 33.3425 62.4734 33.0144 62.249 32.7899L60.1251 30.6488C59.9179 19.3044 52.9419 9.18601 42.6679 4.80021V13.7099C42.6679 14.4006 42.1154 14.9532 41.4247 14.9532C40.734 14.9532 40.1814 14.4006 40.1814 13.7099V3.86779C40.1814 3.86779 40.1469 3.86779 40.1296 3.85053C39.8706 1.69216 38.0575 0 35.83 0H32.7047V16.2309C32.7047 16.9216 32.1521 17.4741 31.4614 17.4741C30.7707 17.4741 30.2182 16.9216 30.2182 16.2309V0H27.1101C24.8654 0 23.0523 1.69216 22.7933 3.85053C22.7933 3.85053 22.7588 3.85053 22.7415 3.86779V13.7099C22.7415 14.4006 22.1889 14.9532 21.4982 14.9532C20.8076 14.9532 20.255 14.4006 20.255 13.7099V4.80021C9.98099 9.18601 3.00501 19.3044 2.81507 30.6488L0.673952 32.7899C0.449478 33.0144 0.311302 33.3425 0.311302 33.6705V38.6607C0.311302 39.2132 0.691232 39.714 1.22652 39.8694" fill="#B1B1B1"/>
</svg>
