<svg width="100" height="100" viewBox="0 0 100 100" fill="none" xmlns="http://www.w3.org/2000/svg">
<path d="M82.3122 83.6303C82.3122 88.9283 78.4922 93.2031 73.7625 93.2031H65.2128C57.1179 93.2031 55.1396 80.879 54.9577 79.6284C54.8895 76.536 52.5929 74.0348 49.8188 74.0348C47.0447 74.0348 44.7708 76.536 44.6799 79.6284C44.5207 80.879 42.5424 93.2031 34.4247 93.2031H25.875C21.1681 93.2031 17.3254 88.9056 17.3254 83.6303V72.1248C17.3254 68.9642 19.6219 66.3721 22.4642 66.3721H77.196C80.0156 66.3721 82.3122 68.9415 82.3122 72.1248V83.6303ZM87.724 70.1921H85.5638C84.7679 65.8264 81.3117 62.5293 77.196 62.5293H22.4642C18.3485 62.5293 14.8923 65.8264 14.0738 70.1921H11.9136C10.0717 70.1921 8.59375 71.0561 8.59375 72.1021V83.6076C8.59375 84.6763 10.0717 85.5176 11.9136 85.5176H14.0282C14.8696 91.998 19.8493 97.0231 25.875 97.0231H34.4247C43.6111 97.0231 47.3858 85.9042 48.0907 80.015C48.0907 79.924 48.0907 79.8331 48.0907 79.7649C48.0907 78.6962 48.8638 77.8549 49.7961 77.8549C50.7283 77.8549 51.5014 78.7189 51.5014 79.7649C51.5014 79.8331 51.5014 79.924 51.5014 80.015C52.2063 85.9042 55.981 97.0231 65.1674 97.0231H73.717C79.7427 97.0231 84.7452 92.0207 85.5638 85.5176H87.6785C89.5204 85.5176 90.9984 84.6536 90.9984 83.6076V72.1021C90.9984 71.0334 89.5204 70.1921 87.6785 70.1921M18.6442 38.9498H81.0161C82.1075 38.9498 82.9716 40.3141 82.9716 41.9968C82.9716 43.6794 82.1075 45.0437 81.0161 45.0437H18.6442C17.5527 45.0437 16.6887 43.6794 16.6887 41.9968C16.6887 40.3141 17.5527 38.9498 18.6442 38.9498ZM9.98077 55.9125C10.481 56.0489 22.4188 59.255 49.8188 59.255C77.2188 59.255 89.1565 56.0489 89.6568 55.9125C90.3844 55.7079 90.8619 55.0712 90.8619 54.3208V47.7495C90.8619 47.3175 90.68 46.8855 90.3844 46.5899L87.5876 43.7703C87.3147 28.8313 78.1283 15.5068 64.5989 9.73128V21.4642C64.5989 22.3737 63.8713 23.1013 62.9617 23.1013C62.0522 23.1013 61.3245 22.3737 61.3245 21.4642V8.50342C61.3245 8.50342 61.2791 8.50341 61.2563 8.48068C60.9152 5.6384 58.5276 3.41006 55.5944 3.41006H51.4787V24.784C51.4787 25.6935 50.751 26.4211 49.8415 26.4211C48.932 26.4211 48.2043 25.6935 48.2043 24.784V3.41006H44.1114C41.1554 3.41006 38.7678 5.6384 38.4268 8.48068C38.4268 8.48068 38.3813 8.48068 38.3585 8.50342V21.4642C38.3585 22.3737 37.6309 23.1013 36.7214 23.1013C35.8118 23.1013 35.0842 22.3737 35.0842 21.4642V9.73128C21.5547 15.5068 12.3683 28.8313 12.1182 43.7703L9.29864 46.5899C9.00304 46.8855 8.82108 47.3175 8.82108 47.7495V54.3208C8.82108 55.0485 9.3214 55.7079 10.0263 55.9125" fill="white"/>
</svg>
