<svg width="723" height="528" viewBox="0 0 723 528" fill="none" xmlns="http://www.w3.org/2000/svg">
<rect width="723" height="528" fill="black" fill-opacity="0.26"/>
<rect width="723" height="528" stroke="#F6A318"/>
<rect x="57" y="87" width="629" height="26" fill="#D9D9D9"/>
<rect x="57" y="87" width="442" height="26" fill="#F6A318"/>
<rect x="57" y="123" width="629" height="27" fill="#D9D9D9"/>
<rect x="57" y="160" width="629" height="26" fill="#D9D9D9"/>
<rect x="57" y="123" width="315" height="27" fill="#F6A318"/>
<rect x="57" y="160" width="385" height="26" fill="#F6A318"/>
<rect x="57" y="196" width="629" height="26" fill="#D9D9D9"/>
<rect x="57" y="196" width="199" height="26" fill="#F6A318"/>
<rect x="57" y="232" width="629" height="26" fill="#D9D9D9"/>
<rect x="57" y="232" width="591" height="26" fill="#F6A318"/>
<rect x="57" y="269" width="629" height="26" fill="#D9D9D9"/>
<rect x="57" y="305" width="629" height="26" fill="#D9D9D9"/>
<rect x="57" y="341" width="629" height="26" fill="#D9D9D9"/>
<rect x="57" y="377" width="629" height="27" fill="#D9D9D9"/>
<rect x="57" y="414" width="629" height="26" fill="#D9D9D9"/>
<rect x="57" y="269" width="352" height="26" fill="#F6A318"/>
<rect x="57" y="305" width="430" height="26" fill="#F6A318"/>
<rect x="57" y="341" width="271" height="26" fill="#F6A318"/>
<rect x="57" y="377" width="497" height="27" fill="#F6A318"/>
<rect x="57" y="414" width="352" height="26" fill="#F6A318"/>
<path d="M117.624 462.66C118.512 462.66 119.288 462.832 119.952 463.176C120.624 463.512 121.14 464 121.5 464.64C121.868 465.272 122.052 466.012 122.052 466.86C122.052 467.708 121.868 468.444 121.5 469.068C121.14 469.692 120.624 470.172 119.952 470.508C119.288 470.836 118.512 471 117.624 471H114.9V462.66H117.624ZM117.624 469.884C118.6 469.884 119.348 469.62 119.868 469.092C120.388 468.564 120.648 467.82 120.648 466.86C120.648 465.892 120.388 465.136 119.868 464.592C119.348 464.048 118.6 463.776 117.624 463.776H116.268V469.884H117.624ZM129.468 467.532C129.468 467.78 129.452 468.004 129.42 468.204H124.368C124.408 468.732 124.604 469.156 124.956 469.476C125.308 469.796 125.74 469.956 126.252 469.956C126.988 469.956 127.508 469.648 127.812 469.032H129.288C129.088 469.64 128.724 470.14 128.196 470.532C127.676 470.916 127.028 471.108 126.252 471.108C125.62 471.108 125.052 470.968 124.548 470.688C124.052 470.4 123.66 470 123.372 469.488C123.092 468.968 122.952 468.368 122.952 467.688C122.952 467.008 123.088 466.412 123.36 465.9C123.64 465.38 124.028 464.98 124.524 464.7C125.028 464.42 125.604 464.28 126.252 464.28C126.876 464.28 127.432 464.416 127.92 464.688C128.408 464.96 128.788 465.344 129.06 465.84C129.332 466.328 129.468 466.892 129.468 467.532ZM128.04 467.1C128.032 466.596 127.852 466.192 127.5 465.888C127.148 465.584 126.712 465.432 126.192 465.432C125.72 465.432 125.316 465.584 124.98 465.888C124.644 466.184 124.444 466.588 124.38 467.1H128.04ZM132.41 465.504V469.164C132.41 469.412 132.466 469.592 132.578 469.704C132.698 469.808 132.898 469.86 133.178 469.86H134.018V471H132.938C132.322 471 131.85 470.856 131.522 470.568C131.194 470.28 131.03 469.812 131.03 469.164V465.504H130.25V464.388H131.03V462.744H132.41V464.388H134.018V465.504H132.41ZM136.647 465.348C136.847 465.012 137.111 464.752 137.439 464.568C137.775 464.376 138.171 464.28 138.627 464.28V465.696H138.279C137.743 465.696 137.335 465.832 137.055 466.104C136.783 466.376 136.647 466.848 136.647 467.52V471H135.279V464.388H136.647V465.348ZM139.428 467.664C139.428 467 139.564 466.412 139.836 465.9C140.116 465.388 140.492 464.992 140.964 464.712C141.444 464.424 141.972 464.28 142.548 464.28C143.068 464.28 143.52 464.384 143.904 464.592C144.296 464.792 144.608 465.044 144.84 465.348V464.388H146.22V471H144.84V470.016C144.608 470.328 144.292 470.588 143.892 470.796C143.492 471.004 143.036 471.108 142.524 471.108C141.956 471.108 141.436 470.964 140.964 470.676C140.492 470.38 140.116 469.972 139.836 469.452C139.564 468.924 139.428 468.328 139.428 467.664ZM144.84 467.688C144.84 467.232 144.744 466.836 144.552 466.5C144.368 466.164 144.124 465.908 143.82 465.732C143.516 465.556 143.188 465.468 142.836 465.468C142.484 465.468 142.156 465.556 141.852 465.732C141.548 465.9 141.3 466.152 141.108 466.488C140.924 466.816 140.832 467.208 140.832 467.664C140.832 468.12 140.924 468.52 141.108 468.864C141.3 469.208 141.548 469.472 141.852 469.656C142.164 469.832 142.492 469.92 142.836 469.92C143.188 469.92 143.516 469.832 143.82 469.656C144.124 469.48 144.368 469.224 144.552 468.888C144.744 468.544 144.84 468.144 144.84 467.688ZM147.561 467.688C147.561 467.008 147.697 466.412 147.969 465.9C148.249 465.38 148.633 464.98 149.121 464.7C149.609 464.42 150.169 464.28 150.801 464.28C151.601 464.28 152.261 464.472 152.781 464.856C153.309 465.232 153.665 465.772 153.849 466.476H152.373C152.253 466.148 152.061 465.892 151.797 465.708C151.533 465.524 151.201 465.432 150.801 465.432C150.241 465.432 149.793 465.632 149.457 466.032C149.129 466.424 148.965 466.976 148.965 467.688C148.965 468.4 149.129 468.956 149.457 469.356C149.793 469.756 150.241 469.956 150.801 469.956C151.593 469.956 152.117 469.608 152.373 468.912H153.849C153.657 469.584 153.297 470.12 152.769 470.52C152.241 470.912 151.585 471.108 150.801 471.108C150.169 471.108 149.609 470.968 149.121 470.688C148.633 470.4 148.249 470 147.969 469.488C147.697 468.968 147.561 468.368 147.561 467.688ZM156.809 465.504V469.164C156.809 469.412 156.865 469.592 156.977 469.704C157.097 469.808 157.297 469.86 157.577 469.86H158.417V471H157.337C156.721 471 156.249 470.856 155.921 470.568C155.593 470.28 155.429 469.812 155.429 469.164V465.504H154.649V464.388H155.429V462.744H156.809V464.388H158.417V465.504H156.809ZM160.373 463.512C160.125 463.512 159.917 463.428 159.749 463.26C159.581 463.092 159.497 462.884 159.497 462.636C159.497 462.388 159.581 462.18 159.749 462.012C159.917 461.844 160.125 461.76 160.373 461.76C160.613 461.76 160.817 461.844 160.985 462.012C161.153 462.18 161.237 462.388 161.237 462.636C161.237 462.884 161.153 463.092 160.985 463.26C160.817 463.428 160.613 463.512 160.373 463.512ZM161.045 464.388V471H159.677V464.388H161.045ZM166.177 464.28C166.697 464.28 167.161 464.388 167.569 464.604C167.985 464.82 168.309 465.14 168.541 465.564C168.773 465.988 168.889 466.5 168.889 467.1V471H167.533V467.304C167.533 466.712 167.385 466.26 167.089 465.948C166.793 465.628 166.389 465.468 165.877 465.468C165.365 465.468 164.957 465.628 164.653 465.948C164.357 466.26 164.209 466.712 164.209 467.304V471H162.841V464.388H164.209V465.144C164.433 464.872 164.717 464.66 165.061 464.508C165.413 464.356 165.785 464.28 166.177 464.28ZM173.298 464.28C173.81 464.28 174.262 464.384 174.654 464.592C175.054 464.792 175.366 465.044 175.59 465.348V464.388H176.97V471.108C176.97 471.716 176.842 472.256 176.586 472.728C176.33 473.208 175.958 473.584 175.47 473.856C174.99 474.128 174.414 474.264 173.742 474.264C172.846 474.264 172.102 474.052 171.51 473.628C170.918 473.212 170.582 472.644 170.502 471.924H171.858C171.962 472.268 172.182 472.544 172.518 472.752C172.862 472.968 173.27 473.076 173.742 473.076C174.294 473.076 174.738 472.908 175.074 472.572C175.418 472.236 175.59 471.748 175.59 471.108V470.004C175.358 470.316 175.042 470.58 174.642 470.796C174.25 471.004 173.802 471.108 173.298 471.108C172.722 471.108 172.194 470.964 171.714 470.676C171.242 470.38 170.866 469.972 170.586 469.452C170.314 468.924 170.178 468.328 170.178 467.664C170.178 467 170.314 466.412 170.586 465.9C170.866 465.388 171.242 464.992 171.714 464.712C172.194 464.424 172.722 464.28 173.298 464.28ZM175.59 467.688C175.59 467.232 175.494 466.836 175.302 466.5C175.118 466.164 174.874 465.908 174.57 465.732C174.266 465.556 173.938 465.468 173.586 465.468C173.234 465.468 172.906 465.556 172.602 465.732C172.298 465.9 172.05 466.152 171.858 466.488C171.674 466.816 171.582 467.208 171.582 467.664C171.582 468.12 171.674 468.52 171.858 468.864C172.05 469.208 172.298 469.472 172.602 469.656C172.914 469.832 173.242 469.92 173.586 469.92C173.938 469.92 174.266 469.832 174.57 469.656C174.874 469.48 175.118 469.224 175.302 468.888C175.494 468.544 175.59 468.144 175.59 467.688Z" fill="white"/>
<path d="M299.732 465.144C299.732 465.568 299.632 465.968 299.432 466.344C299.232 466.72 298.912 467.028 298.472 467.268C298.032 467.5 297.468 467.616 296.78 467.616H295.268V471H293.9V462.66H296.78C297.42 462.66 297.96 462.772 298.4 462.996C298.848 463.212 299.18 463.508 299.396 463.884C299.62 464.26 299.732 464.68 299.732 465.144ZM296.78 466.5C297.3 466.5 297.688 466.384 297.944 466.152C298.2 465.912 298.328 465.576 298.328 465.144C298.328 464.232 297.812 463.776 296.78 463.776H295.268V466.5H296.78ZM300.581 467.664C300.581 467 300.717 466.412 300.989 465.9C301.269 465.388 301.645 464.992 302.117 464.712C302.597 464.424 303.125 464.28 303.701 464.28C304.221 464.28 304.673 464.384 305.057 464.592C305.449 464.792 305.761 465.044 305.993 465.348V464.388H307.373V471H305.993V470.016C305.761 470.328 305.445 470.588 305.045 470.796C304.645 471.004 304.189 471.108 303.677 471.108C303.109 471.108 302.589 470.964 302.117 470.676C301.645 470.38 301.269 469.972 300.989 469.452C300.717 468.924 300.581 468.328 300.581 467.664ZM305.993 467.688C305.993 467.232 305.897 466.836 305.705 466.5C305.521 466.164 305.277 465.908 304.973 465.732C304.669 465.556 304.341 465.468 303.989 465.468C303.637 465.468 303.309 465.556 303.005 465.732C302.701 465.9 302.453 466.152 302.261 466.488C302.077 466.816 301.985 467.208 301.985 467.664C301.985 468.12 302.077 468.52 302.261 468.864C302.453 469.208 302.701 469.472 303.005 469.656C303.317 469.832 303.645 469.92 303.989 469.92C304.341 469.92 304.669 469.832 304.973 469.656C305.277 469.48 305.521 469.224 305.705 468.888C305.897 468.544 305.993 468.144 305.993 467.688ZM311.57 471.108C311.05 471.108 310.582 471.016 310.166 470.832C309.758 470.64 309.434 470.384 309.194 470.064C308.954 469.736 308.826 469.372 308.81 468.972H310.226C310.25 469.252 310.382 469.488 310.622 469.68C310.87 469.864 311.178 469.956 311.546 469.956C311.93 469.956 312.226 469.884 312.434 469.74C312.65 469.588 312.758 469.396 312.758 469.164C312.758 468.916 312.638 468.732 312.398 468.612C312.166 468.492 311.794 468.36 311.282 468.216C310.786 468.08 310.382 467.948 310.07 467.82C309.758 467.692 309.486 467.496 309.254 467.232C309.03 466.968 308.918 466.62 308.918 466.188C308.918 465.836 309.022 465.516 309.23 465.228C309.438 464.932 309.734 464.7 310.118 464.532C310.51 464.364 310.958 464.28 311.462 464.28C312.214 464.28 312.818 464.472 313.274 464.856C313.738 465.232 313.986 465.748 314.018 466.404H312.65C312.626 466.108 312.506 465.872 312.29 465.696C312.074 465.52 311.782 465.432 311.414 465.432C311.054 465.432 310.778 465.5 310.586 465.636C310.394 465.772 310.298 465.952 310.298 466.176C310.298 466.352 310.362 466.5 310.49 466.62C310.618 466.74 310.774 466.836 310.958 466.908C311.142 466.972 311.414 467.056 311.774 467.16C312.254 467.288 312.646 467.42 312.95 467.556C313.262 467.684 313.53 467.876 313.754 468.132C313.978 468.388 314.094 468.728 314.102 469.152C314.102 469.528 313.998 469.864 313.79 470.16C313.582 470.456 313.286 470.688 312.902 470.856C312.526 471.024 312.082 471.108 311.57 471.108ZM317.98 471.108C317.46 471.108 316.992 471.016 316.576 470.832C316.168 470.64 315.844 470.384 315.604 470.064C315.364 469.736 315.236 469.372 315.22 468.972H316.636C316.66 469.252 316.792 469.488 317.032 469.68C317.28 469.864 317.588 469.956 317.956 469.956C318.34 469.956 318.636 469.884 318.844 469.74C319.06 469.588 319.168 469.396 319.168 469.164C319.168 468.916 319.048 468.732 318.808 468.612C318.576 468.492 318.204 468.36 317.692 468.216C317.196 468.08 316.792 467.948 316.48 467.82C316.168 467.692 315.896 467.496 315.664 467.232C315.44 466.968 315.328 466.62 315.328 466.188C315.328 465.836 315.432 465.516 315.64 465.228C315.848 464.932 316.144 464.7 316.528 464.532C316.92 464.364 317.368 464.28 317.872 464.28C318.624 464.28 319.228 464.472 319.684 464.856C320.148 465.232 320.396 465.748 320.428 466.404H319.06C319.036 466.108 318.916 465.872 318.7 465.696C318.484 465.52 318.192 465.432 317.824 465.432C317.464 465.432 317.188 465.5 316.996 465.636C316.804 465.772 316.708 465.952 316.708 466.176C316.708 466.352 316.772 466.5 316.9 466.62C317.028 466.74 317.184 466.836 317.368 466.908C317.552 466.972 317.824 467.056 318.184 467.16C318.664 467.288 319.056 467.42 319.36 467.556C319.672 467.684 319.94 467.876 320.164 468.132C320.388 468.388 320.504 468.728 320.512 469.152C320.512 469.528 320.408 469.864 320.2 470.16C319.992 470.456 319.696 470.688 319.312 470.856C318.936 471.024 318.492 471.108 317.98 471.108ZM322.686 463.512C322.438 463.512 322.23 463.428 322.062 463.26C321.894 463.092 321.81 462.884 321.81 462.636C321.81 462.388 321.894 462.18 322.062 462.012C322.23 461.844 322.438 461.76 322.686 461.76C322.926 461.76 323.13 461.844 323.298 462.012C323.466 462.18 323.55 462.388 323.55 462.636C323.55 462.884 323.466 463.092 323.298 463.26C323.13 463.428 322.926 463.512 322.686 463.512ZM323.358 464.388V471H321.99V464.388H323.358ZM327.71 469.776L329.582 464.388H331.034L328.514 471H326.882L324.374 464.388H325.838L327.71 469.776ZM338.128 467.532C338.128 467.78 338.112 468.004 338.08 468.204H333.028C333.068 468.732 333.264 469.156 333.616 469.476C333.968 469.796 334.4 469.956 334.912 469.956C335.648 469.956 336.168 469.648 336.472 469.032H337.948C337.748 469.64 337.384 470.14 336.856 470.532C336.336 470.916 335.688 471.108 334.912 471.108C334.28 471.108 333.712 470.968 333.208 470.688C332.712 470.4 332.32 470 332.032 469.488C331.752 468.968 331.612 468.368 331.612 467.688C331.612 467.008 331.748 466.412 332.02 465.9C332.3 465.38 332.688 464.98 333.184 464.7C333.688 464.42 334.264 464.28 334.912 464.28C335.536 464.28 336.092 464.416 336.58 464.688C337.068 464.96 337.448 465.344 337.72 465.84C337.992 466.328 338.128 466.892 338.128 467.532ZM336.7 467.1C336.692 466.596 336.512 466.192 336.16 465.888C335.808 465.584 335.372 465.432 334.852 465.432C334.38 465.432 333.976 465.584 333.64 465.888C333.304 466.184 333.104 466.588 333.04 467.1H336.7Z" fill="white"/>
<path d="M460.928 469.296H457.436L456.836 471H455.408L458.396 462.648H459.98L462.968 471H461.528L460.928 469.296ZM460.544 468.18L459.188 464.304L457.82 468.18H460.544ZM463.811 467.688C463.811 467.008 463.947 466.412 464.219 465.9C464.499 465.38 464.883 464.98 465.371 464.7C465.859 464.42 466.419 464.28 467.051 464.28C467.851 464.28 468.511 464.472 469.031 464.856C469.559 465.232 469.915 465.772 470.099 466.476H468.623C468.503 466.148 468.311 465.892 468.047 465.708C467.783 465.524 467.451 465.432 467.051 465.432C466.491 465.432 466.043 465.632 465.707 466.032C465.379 466.424 465.215 466.976 465.215 467.688C465.215 468.4 465.379 468.956 465.707 469.356C466.043 469.756 466.491 469.956 467.051 469.956C467.843 469.956 468.367 469.608 468.623 468.912H470.099C469.907 469.584 469.547 470.12 469.019 470.52C468.491 470.912 467.835 471.108 467.051 471.108C466.419 471.108 465.859 470.968 465.371 470.688C464.883 470.4 464.499 470 464.219 469.488C463.947 468.968 463.811 468.368 463.811 467.688ZM473.059 465.504V469.164C473.059 469.412 473.115 469.592 473.227 469.704C473.347 469.808 473.547 469.86 473.827 469.86H474.667V471H473.587C472.971 471 472.499 470.856 472.171 470.568C471.843 470.28 471.679 469.812 471.679 469.164V465.504H470.899V464.388H471.679V462.744H473.059V464.388H474.667V465.504H473.059ZM476.623 463.512C476.375 463.512 476.167 463.428 475.999 463.26C475.831 463.092 475.747 462.884 475.747 462.636C475.747 462.388 475.831 462.18 475.999 462.012C476.167 461.844 476.375 461.76 476.623 461.76C476.863 461.76 477.067 461.844 477.235 462.012C477.403 462.18 477.487 462.388 477.487 462.636C477.487 462.884 477.403 463.092 477.235 463.26C477.067 463.428 476.863 463.512 476.623 463.512ZM477.295 464.388V471H475.927V464.388H477.295ZM481.647 469.776L483.519 464.388H484.971L482.451 471H480.819L478.311 464.388H479.775L481.647 469.776ZM492.065 467.532C492.065 467.78 492.049 468.004 492.017 468.204H486.965C487.005 468.732 487.201 469.156 487.553 469.476C487.905 469.796 488.337 469.956 488.849 469.956C489.585 469.956 490.105 469.648 490.409 469.032H491.885C491.685 469.64 491.321 470.14 490.793 470.532C490.273 470.916 489.625 471.108 488.849 471.108C488.217 471.108 487.649 470.968 487.145 470.688C486.649 470.4 486.257 470 485.969 469.488C485.689 468.968 485.549 468.368 485.549 467.688C485.549 467.008 485.685 466.412 485.957 465.9C486.237 465.38 486.625 464.98 487.121 464.7C487.625 464.42 488.201 464.28 488.849 464.28C489.473 464.28 490.029 464.416 490.517 464.688C491.005 464.96 491.385 465.344 491.657 465.84C491.929 466.328 492.065 466.892 492.065 467.532ZM490.637 467.1C490.629 466.596 490.449 466.192 490.097 465.888C489.745 465.584 489.309 465.432 488.789 465.432C488.317 465.432 487.913 465.584 487.577 465.888C487.241 466.184 487.041 466.588 486.977 467.1H490.637Z" fill="white"/>
<path d="M611.268 463.764V466.212H614.148V467.328H611.268V469.884H614.508V471H609.9V462.648H614.508V463.764H611.268ZM619.529 464.28C620.049 464.28 620.513 464.388 620.921 464.604C621.337 464.82 621.661 465.14 621.893 465.564C622.125 465.988 622.241 466.5 622.241 467.1V471H620.885V467.304C620.885 466.712 620.737 466.26 620.441 465.948C620.145 465.628 619.741 465.468 619.229 465.468C618.717 465.468 618.309 465.628 618.005 465.948C617.709 466.26 617.561 466.712 617.561 467.304V471H616.193V464.388H617.561V465.144C617.785 464.872 618.069 464.66 618.413 464.508C618.765 464.356 619.137 464.28 619.529 464.28ZM623.53 467.664C623.53 467 623.666 466.412 623.938 465.9C624.218 465.388 624.594 464.992 625.066 464.712C625.546 464.424 626.074 464.28 626.65 464.28C627.17 464.28 627.622 464.384 628.006 464.592C628.398 464.792 628.71 465.044 628.942 465.348V464.388H630.322V471H628.942V470.016C628.71 470.328 628.394 470.588 627.994 470.796C627.594 471.004 627.138 471.108 626.626 471.108C626.058 471.108 625.538 470.964 625.066 470.676C624.594 470.38 624.218 469.972 623.938 469.452C623.666 468.924 623.53 468.328 623.53 467.664ZM628.942 467.688C628.942 467.232 628.846 466.836 628.654 466.5C628.47 466.164 628.226 465.908 627.922 465.732C627.618 465.556 627.29 465.468 626.938 465.468C626.586 465.468 626.258 465.556 625.954 465.732C625.65 465.9 625.402 466.152 625.21 466.488C625.026 466.816 624.934 467.208 624.934 467.664C624.934 468.12 625.026 468.52 625.21 468.864C625.402 469.208 625.65 469.472 625.954 469.656C626.266 469.832 626.594 469.92 626.938 469.92C627.29 469.92 627.618 469.832 627.922 469.656C628.226 469.48 628.47 469.224 628.654 468.888C628.846 468.544 628.942 468.144 628.942 467.688ZM633.487 465.372C633.719 465.052 634.035 464.792 634.435 464.592C634.843 464.384 635.295 464.28 635.791 464.28C636.375 464.28 636.903 464.42 637.375 464.7C637.847 464.98 638.219 465.38 638.491 465.9C638.763 466.412 638.899 467 638.899 467.664C638.899 468.328 638.763 468.924 638.491 469.452C638.219 469.972 637.843 470.38 637.363 470.676C636.891 470.964 636.367 471.108 635.791 471.108C635.279 471.108 634.823 471.008 634.423 470.808C634.031 470.608 633.719 470.352 633.487 470.04V471H632.119V462.12H633.487V465.372ZM637.507 467.664C637.507 467.208 637.411 466.816 637.219 466.488C637.035 466.152 636.787 465.9 636.475 465.732C636.171 465.556 635.843 465.468 635.491 465.468C635.147 465.468 634.819 465.556 634.507 465.732C634.203 465.908 633.955 466.164 633.763 466.5C633.579 466.836 633.487 467.232 633.487 467.688C633.487 468.144 633.579 468.544 633.763 468.888C633.955 469.224 634.203 469.48 634.507 469.656C634.819 469.832 635.147 469.92 635.491 469.92C635.843 469.92 636.171 469.832 636.475 469.656C636.787 469.472 637.035 469.208 637.219 468.864C637.411 468.52 637.507 468.12 637.507 467.664ZM641.62 462.12V471H640.252V462.12H641.62ZM644.112 463.512C643.864 463.512 643.656 463.428 643.488 463.26C643.32 463.092 643.236 462.884 643.236 462.636C643.236 462.388 643.32 462.18 643.488 462.012C643.656 461.844 643.864 461.76 644.112 461.76C644.352 461.76 644.556 461.844 644.724 462.012C644.892 462.18 644.976 462.388 644.976 462.636C644.976 462.884 644.892 463.092 644.724 463.26C644.556 463.428 644.352 463.512 644.112 463.512ZM644.784 464.388V471H643.416V464.388H644.784ZM649.916 464.28C650.436 464.28 650.9 464.388 651.308 464.604C651.724 464.82 652.048 465.14 652.28 465.564C652.512 465.988 652.628 466.5 652.628 467.1V471H651.272V467.304C651.272 466.712 651.124 466.26 650.828 465.948C650.532 465.628 650.128 465.468 649.616 465.468C649.104 465.468 648.696 465.628 648.392 465.948C648.096 466.26 647.948 466.712 647.948 467.304V471H646.58V464.388H647.948V465.144C648.172 464.872 648.456 464.66 648.8 464.508C649.152 464.356 649.524 464.28 649.916 464.28ZM657.037 464.28C657.549 464.28 658.001 464.384 658.393 464.592C658.793 464.792 659.105 465.044 659.329 465.348V464.388H660.709V471.108C660.709 471.716 660.581 472.256 660.325 472.728C660.069 473.208 659.697 473.584 659.209 473.856C658.729 474.128 658.153 474.264 657.481 474.264C656.585 474.264 655.841 474.052 655.249 473.628C654.657 473.212 654.321 472.644 654.241 471.924H655.597C655.701 472.268 655.921 472.544 656.257 472.752C656.601 472.968 657.009 473.076 657.481 473.076C658.033 473.076 658.477 472.908 658.813 472.572C659.157 472.236 659.329 471.748 659.329 471.108V470.004C659.097 470.316 658.781 470.58 658.381 470.796C657.989 471.004 657.541 471.108 657.037 471.108C656.461 471.108 655.933 470.964 655.453 470.676C654.981 470.38 654.605 469.972 654.325 469.452C654.053 468.924 653.917 468.328 653.917 467.664C653.917 467 654.053 466.412 654.325 465.9C654.605 465.388 654.981 464.992 655.453 464.712C655.933 464.424 656.461 464.28 657.037 464.28ZM659.329 467.688C659.329 467.232 659.233 466.836 659.041 466.5C658.857 466.164 658.613 465.908 658.309 465.732C658.005 465.556 657.677 465.468 657.325 465.468C656.973 465.468 656.645 465.556 656.341 465.732C656.037 465.9 655.789 466.152 655.597 466.488C655.413 466.816 655.321 467.208 655.321 467.664C655.321 468.12 655.413 468.52 655.597 468.864C655.789 469.208 656.037 469.472 656.341 469.656C656.653 469.832 656.981 469.92 657.325 469.92C657.677 469.92 658.005 469.832 658.309 469.656C658.613 469.48 658.857 469.224 659.041 468.888C659.233 468.544 659.329 468.144 659.329 467.688Z" fill="white"/>
<path d="M498.998 112.997C506.177 112.997 511.997 107.177 511.997 99.9984C511.997 92.8196 506.177 87 498.998 87C491.82 87 486 92.8196 486 99.9984C486 107.177 491.82 112.997 498.998 112.997Z" fill="#1F3B44"/>
<path d="M498.996 102.163C498.996 102.163 506.201 102.203 506.627 101.382C506.627 101.382 506.994 98.0347 505.169 96.0009C505.122 95.9487 505.038 95.9528 504.995 96.0078L503.367 98.0924C503.348 98.1172 503.307 98.0952 503.319 98.0649L504.422 95.3537C504.447 95.2946 504.432 95.2272 504.385 95.1833C504.097 94.9167 502.997 93.9864 501.254 93.5205C501.188 93.5026 501.119 93.5494 501.112 93.6181L500.48 99.7387C500.479 99.7566 500.451 99.7552 500.451 99.7373V93.3377C500.451 93.3377 500.451 92.4899 499.61 92.4899H498.383C497.541 92.4899 497.541 93.3377 497.541 93.3377V99.7373C497.541 99.7552 497.513 99.7566 497.512 99.7387L496.88 93.6181C496.873 93.5494 496.805 93.5026 496.738 93.5205C494.994 93.9877 493.895 94.9167 493.606 95.1833C493.56 95.2272 493.544 95.2946 493.569 95.3537L494.673 98.0649C494.685 98.0952 494.645 98.1185 494.625 98.0924L492.996 96.0078L497.8 102.156C498.516 102.166 498.994 102.163 498.994 102.163H498.996Z" fill="white"/>
<path opacity="0.75" d="M497.801 102.154L492.997 96.0064C492.955 95.9514 492.871 95.9473 492.824 95.9995C490.999 98.0347 491.366 101.381 491.366 101.381C491.682 101.991 495.736 102.126 497.803 102.154H497.801Z" fill="#BFBFBF"/>
<path opacity="0.75" d="M491.41 101.718C491.362 101.694 491.31 101.682 491.256 101.683C490.773 101.693 489.232 101.799 489.203 102.734C489.172 103.714 497.268 103.956 499.005 103.941C499.063 103.941 499.129 103.941 499.202 103.941L498.075 102.499C493.052 102.435 491.693 101.854 491.412 101.718H491.41Z" fill="#979EA0"/>
<path d="M508.798 102.733C508.769 101.799 507.228 101.693 506.745 101.682C506.692 101.682 506.64 101.693 506.591 101.716C506.292 101.86 504.788 102.504 499 102.504C498.677 102.504 498.371 102.501 498.074 102.498L499.201 103.94C501.275 103.937 508.829 103.68 508.798 102.733Z" fill="white"/>
<path d="M371.998 148.997C379.177 148.997 384.997 143.177 384.997 135.998C384.997 128.82 379.177 123 371.998 123C364.82 123 359 128.82 359 135.998C359 143.177 364.82 148.997 371.998 148.997Z" fill="#1F3B44"/>
<path d="M371.996 138.163C371.996 138.163 379.201 138.203 379.627 137.382C379.627 137.382 379.994 134.035 378.169 132.001C378.122 131.949 378.038 131.953 377.995 132.008L376.367 134.092C376.348 134.117 376.307 134.095 376.319 134.065L377.422 131.354C377.447 131.295 377.432 131.227 377.385 131.183C377.097 130.917 375.997 129.986 374.254 129.521C374.188 129.503 374.119 129.549 374.112 129.618L373.48 135.739C373.479 135.757 373.451 135.755 373.451 135.737V129.338C373.451 129.338 373.451 128.49 372.61 128.49H371.383C370.541 128.49 370.541 129.338 370.541 129.338V135.737C370.541 135.755 370.513 135.757 370.512 135.739L369.88 129.618C369.873 129.549 369.805 129.503 369.738 129.521C367.994 129.988 366.895 130.917 366.606 131.183C366.56 131.227 366.544 131.295 366.569 131.354L367.673 134.065C367.685 134.095 367.645 134.119 367.625 134.092L365.996 132.008L370.8 138.156C371.516 138.166 371.994 138.163 371.994 138.163H371.996Z" fill="white"/>
<path opacity="0.75" d="M370.801 138.154L365.997 132.006C365.955 131.951 365.871 131.947 365.824 132C363.999 134.035 364.366 137.381 364.366 137.381C364.682 137.991 368.736 138.126 370.803 138.154H370.801Z" fill="#BFBFBF"/>
<path opacity="0.75" d="M364.41 137.718C364.362 137.694 364.31 137.682 364.256 137.683C363.773 137.693 362.232 137.799 362.203 138.734C362.172 139.714 370.268 139.956 372.005 139.941C372.063 139.941 372.129 139.941 372.202 139.941L371.075 138.499C366.052 138.435 364.693 137.854 364.412 137.718H364.41Z" fill="#979EA0"/>
<path d="M381.798 138.733C381.769 137.799 380.228 137.693 379.745 137.682C379.692 137.682 379.64 137.693 379.591 137.716C379.292 137.86 377.788 138.504 372 138.504C371.677 138.504 371.371 138.501 371.074 138.498L372.201 139.94C374.275 139.937 381.829 139.68 381.798 138.733Z" fill="white"/>
<path d="M441.998 185.997C449.177 185.997 454.997 180.177 454.997 172.998C454.997 165.82 449.177 160 441.998 160C434.82 160 429 165.82 429 172.998C429 180.177 434.82 185.997 441.998 185.997Z" fill="#1F3B44"/>
<path d="M441.996 175.163C441.996 175.163 449.201 175.203 449.627 174.382C449.627 174.382 449.994 171.035 448.169 169.001C448.122 168.949 448.038 168.953 447.995 169.008L446.367 171.092C446.348 171.117 446.307 171.095 446.319 171.065L447.422 168.354C447.447 168.295 447.432 168.227 447.385 168.183C447.097 167.917 445.997 166.986 444.254 166.521C444.188 166.503 444.119 166.549 444.112 166.618L443.48 172.739C443.479 172.757 443.451 172.755 443.451 172.737V166.338C443.451 166.338 443.451 165.49 442.61 165.49H441.383C440.541 165.49 440.541 166.338 440.541 166.338V172.737C440.541 172.755 440.513 172.757 440.512 172.739L439.88 166.618C439.873 166.549 439.805 166.503 439.738 166.521C437.994 166.988 436.895 167.917 436.606 168.183C436.56 168.227 436.544 168.295 436.569 168.354L437.673 171.065C437.685 171.095 437.645 171.119 437.625 171.092L435.996 169.008L440.8 175.156C441.516 175.166 441.994 175.163 441.994 175.163H441.996Z" fill="white"/>
<path opacity="0.75" d="M440.801 175.154L435.997 169.006C435.955 168.951 435.871 168.947 435.824 169C433.999 171.035 434.366 174.381 434.366 174.381C434.682 174.991 438.736 175.126 440.803 175.154H440.801Z" fill="#BFBFBF"/>
<path opacity="0.75" d="M434.41 174.718C434.362 174.694 434.31 174.682 434.256 174.683C433.773 174.693 432.232 174.799 432.203 175.734C432.172 176.714 440.268 176.956 442.005 176.941C442.063 176.941 442.129 176.941 442.202 176.941L441.075 175.499C436.052 175.435 434.693 174.854 434.412 174.718H434.41Z" fill="#979EA0"/>
<path d="M451.798 175.733C451.769 174.799 450.228 174.693 449.745 174.682C449.692 174.682 449.64 174.693 449.591 174.716C449.292 174.86 447.788 175.504 442 175.504C441.677 175.504 441.371 175.501 441.074 175.498L442.201 176.94C444.275 176.937 451.829 176.68 451.798 175.733Z" fill="white"/>
<path d="M258.998 221.997C266.177 221.997 271.997 216.177 271.997 208.998C271.997 201.82 266.177 196 258.998 196C251.82 196 246 201.82 246 208.998C246 216.177 251.82 221.997 258.998 221.997Z" fill="#1F3B44"/>
<path d="M258.996 211.163C258.996 211.163 266.201 211.203 266.627 210.382C266.627 210.382 266.994 207.035 265.169 205.001C265.122 204.949 265.038 204.953 264.995 205.008L263.367 207.092C263.348 207.117 263.307 207.095 263.319 207.065L264.422 204.354C264.447 204.295 264.432 204.227 264.385 204.183C264.097 203.917 262.997 202.986 261.254 202.521C261.188 202.503 261.119 202.549 261.112 202.618L260.48 208.739C260.479 208.757 260.451 208.755 260.451 208.737V202.338C260.451 202.338 260.451 201.49 259.61 201.49H258.383C257.541 201.49 257.541 202.338 257.541 202.338V208.737C257.541 208.755 257.513 208.757 257.512 208.739L256.88 202.618C256.873 202.549 256.805 202.503 256.738 202.521C254.994 202.988 253.895 203.917 253.606 204.183C253.56 204.227 253.544 204.295 253.569 204.354L254.673 207.065C254.685 207.095 254.645 207.119 254.625 207.092L252.996 205.008L257.8 211.156C258.516 211.166 258.994 211.163 258.994 211.163H258.996Z" fill="white"/>
<path opacity="0.75" d="M257.801 211.154L252.997 205.006C252.955 204.951 252.871 204.947 252.824 205C250.999 207.035 251.366 210.381 251.366 210.381C251.682 210.991 255.736 211.126 257.803 211.154H257.801Z" fill="#BFBFBF"/>
<path opacity="0.75" d="M251.41 210.718C251.362 210.694 251.31 210.682 251.256 210.683C250.773 210.693 249.232 210.799 249.203 211.734C249.172 212.714 257.268 212.956 259.005 212.941C259.063 212.941 259.129 212.941 259.202 212.941L258.075 211.499C253.052 211.435 251.693 210.854 251.412 210.718H251.41Z" fill="#979EA0"/>
<path d="M268.798 211.733C268.769 210.799 267.228 210.693 266.745 210.682C266.692 210.682 266.64 210.693 266.591 210.716C266.292 210.86 264.788 211.504 259 211.504C258.677 211.504 258.371 211.501 258.074 211.498L259.201 212.94C261.275 212.937 268.829 212.68 268.798 211.733Z" fill="white"/>
<path d="M408.998 294.997C416.177 294.997 421.997 289.177 421.997 281.998C421.997 274.82 416.177 269 408.998 269C401.82 269 396 274.82 396 281.998C396 289.177 401.82 294.997 408.998 294.997Z" fill="#1F3B44"/>
<path d="M408.996 284.163C408.996 284.163 416.201 284.203 416.627 283.382C416.627 283.382 416.994 280.035 415.169 278.001C415.122 277.949 415.038 277.953 414.995 278.008L413.367 280.092C413.348 280.117 413.307 280.095 413.319 280.065L414.422 277.354C414.447 277.295 414.432 277.227 414.385 277.183C414.097 276.917 412.997 275.986 411.254 275.521C411.188 275.503 411.119 275.549 411.112 275.618L410.48 281.739C410.479 281.757 410.451 281.755 410.451 281.737V275.338C410.451 275.338 410.451 274.49 409.61 274.49H408.383C407.541 274.49 407.541 275.338 407.541 275.338V281.737C407.541 281.755 407.513 281.757 407.512 281.739L406.88 275.618C406.873 275.549 406.805 275.503 406.738 275.521C404.994 275.988 403.895 276.917 403.606 277.183C403.56 277.227 403.544 277.295 403.569 277.354L404.673 280.065C404.685 280.095 404.645 280.119 404.625 280.092L402.996 278.008L407.8 284.156C408.516 284.166 408.994 284.163 408.994 284.163H408.996Z" fill="white"/>
<path opacity="0.75" d="M407.801 284.154L402.997 278.006C402.955 277.951 402.871 277.947 402.824 278C400.999 280.035 401.366 283.381 401.366 283.381C401.682 283.991 405.736 284.126 407.803 284.154H407.801Z" fill="#BFBFBF"/>
<path opacity="0.75" d="M401.41 283.718C401.362 283.694 401.31 283.682 401.256 283.683C400.773 283.693 399.232 283.799 399.203 284.734C399.172 285.714 407.268 285.956 409.005 285.941C409.063 285.941 409.129 285.941 409.202 285.941L408.075 284.499C403.052 284.435 401.693 283.854 401.412 283.718H401.41Z" fill="#979EA0"/>
<path d="M418.798 284.733C418.769 283.799 417.228 283.693 416.745 283.682C416.692 283.682 416.64 283.693 416.591 283.716C416.292 283.86 414.788 284.504 409 284.504C408.677 284.504 408.371 284.501 408.074 284.498L409.201 285.94C411.275 285.937 418.829 285.68 418.798 284.733Z" fill="white"/>
<path d="M647.998 257.997C655.177 257.997 660.997 252.177 660.997 244.998C660.997 237.82 655.177 232 647.998 232C640.82 232 635 237.82 635 244.998C635 252.177 640.82 257.997 647.998 257.997Z" fill="#1F3B44"/>
<path d="M647.996 247.163C647.996 247.163 655.201 247.203 655.627 246.382C655.627 246.382 655.994 243.035 654.169 241.001C654.122 240.949 654.038 240.953 653.995 241.008L652.367 243.092C652.348 243.117 652.307 243.095 652.319 243.065L653.422 240.354C653.447 240.295 653.432 240.227 653.385 240.183C653.097 239.917 651.997 238.986 650.254 238.521C650.188 238.503 650.119 238.549 650.112 238.618L649.48 244.739C649.479 244.757 649.451 244.755 649.451 244.737V238.338C649.451 238.338 649.451 237.49 648.61 237.49H647.383C646.541 237.49 646.541 238.338 646.541 238.338V244.737C646.541 244.755 646.513 244.757 646.512 244.739L645.88 238.618C645.873 238.549 645.805 238.503 645.738 238.521C643.994 238.988 642.895 239.917 642.606 240.183C642.56 240.227 642.544 240.295 642.569 240.354L643.673 243.065C643.685 243.095 643.645 243.119 643.625 243.092L641.996 241.008L646.8 247.156C647.516 247.166 647.994 247.163 647.994 247.163H647.996Z" fill="white"/>
<path opacity="0.75" d="M646.801 247.154L641.997 241.006C641.955 240.951 641.871 240.947 641.824 241C639.999 243.035 640.366 246.381 640.366 246.381C640.682 246.991 644.736 247.126 646.803 247.154H646.801Z" fill="#BFBFBF"/>
<path opacity="0.75" d="M640.41 246.718C640.362 246.694 640.31 246.682 640.256 246.683C639.773 246.693 638.232 246.799 638.203 247.734C638.172 248.714 646.268 248.956 648.005 248.941C648.063 248.941 648.129 248.941 648.202 248.941L647.075 247.499C642.052 247.435 640.693 246.854 640.412 246.718H640.41Z" fill="#979EA0"/>
<path d="M657.798 247.733C657.769 246.799 656.228 246.693 655.745 246.682C655.692 246.682 655.64 246.693 655.591 246.716C655.292 246.86 653.788 247.504 648 247.504C647.677 247.504 647.371 247.501 647.074 247.498L648.201 248.94C650.275 248.937 657.829 248.68 657.798 247.733Z" fill="white"/>
<path d="M485.998 330.997C493.177 330.997 498.997 325.177 498.997 317.998C498.997 310.82 493.177 305 485.998 305C478.82 305 473 310.82 473 317.998C473 325.177 478.82 330.997 485.998 330.997Z" fill="#1F3B44"/>
<path d="M485.996 320.163C485.996 320.163 493.201 320.203 493.627 319.382C493.627 319.382 493.994 316.035 492.169 314.001C492.122 313.949 492.038 313.953 491.995 314.008L490.367 316.092C490.348 316.117 490.307 316.095 490.319 316.065L491.422 313.354C491.447 313.295 491.432 313.227 491.385 313.183C491.097 312.917 489.997 311.986 488.254 311.521C488.188 311.503 488.119 311.549 488.112 311.618L487.48 317.739C487.479 317.757 487.451 317.755 487.451 317.737V311.338C487.451 311.338 487.451 310.49 486.61 310.49H485.383C484.541 310.49 484.541 311.338 484.541 311.338V317.737C484.541 317.755 484.513 317.757 484.512 317.739L483.88 311.618C483.873 311.549 483.805 311.503 483.738 311.521C481.994 311.988 480.895 312.917 480.606 313.183C480.56 313.227 480.544 313.295 480.569 313.354L481.673 316.065C481.685 316.095 481.645 316.119 481.625 316.092L479.996 314.008L484.8 320.156C485.516 320.166 485.994 320.163 485.994 320.163H485.996Z" fill="white"/>
<path opacity="0.75" d="M484.801 320.154L479.997 314.006C479.955 313.951 479.871 313.947 479.824 314C477.999 316.035 478.366 319.381 478.366 319.381C478.682 319.991 482.736 320.126 484.803 320.154H484.801Z" fill="#BFBFBF"/>
<path opacity="0.75" d="M478.41 319.718C478.362 319.694 478.31 319.682 478.256 319.683C477.773 319.693 476.232 319.799 476.203 320.734C476.172 321.714 484.268 321.956 486.005 321.941C486.063 321.941 486.129 321.941 486.202 321.941L485.075 320.499C480.052 320.435 478.693 319.854 478.412 319.718H478.41Z" fill="#979EA0"/>
<path d="M495.798 320.733C495.769 319.799 494.228 319.693 493.745 319.682C493.692 319.682 493.64 319.693 493.591 319.716C493.292 319.86 491.788 320.504 486 320.504C485.677 320.504 485.371 320.501 485.074 320.498L486.201 321.94C488.275 321.937 495.829 321.68 495.798 320.733Z" fill="white"/>
<path d="M327.998 366.997C335.177 366.997 340.997 361.177 340.997 353.998C340.997 346.82 335.177 341 327.998 341C320.82 341 315 346.82 315 353.998C315 361.177 320.82 366.997 327.998 366.997Z" fill="#1F3B44"/>
<path d="M327.996 356.163C327.996 356.163 335.201 356.203 335.627 355.382C335.627 355.382 335.994 352.035 334.169 350.001C334.122 349.949 334.038 349.953 333.995 350.008L332.367 352.092C332.348 352.117 332.307 352.095 332.319 352.065L333.422 349.354C333.447 349.295 333.432 349.227 333.385 349.183C333.097 348.917 331.997 347.986 330.254 347.521C330.188 347.503 330.119 347.549 330.112 347.618L329.48 353.739C329.479 353.757 329.451 353.755 329.451 353.737V347.338C329.451 347.338 329.451 346.49 328.61 346.49H327.383C326.541 346.49 326.541 347.338 326.541 347.338V353.737C326.541 353.755 326.513 353.757 326.512 353.739L325.88 347.618C325.873 347.549 325.805 347.503 325.738 347.521C323.994 347.988 322.895 348.917 322.606 349.183C322.56 349.227 322.544 349.295 322.569 349.354L323.673 352.065C323.685 352.095 323.645 352.119 323.625 352.092L321.996 350.008L326.8 356.156C327.516 356.166 327.994 356.163 327.994 356.163H327.996Z" fill="white"/>
<path opacity="0.75" d="M326.801 356.154L321.997 350.006C321.955 349.951 321.871 349.947 321.824 350C319.999 352.035 320.366 355.381 320.366 355.381C320.682 355.991 324.736 356.126 326.803 356.154H326.801Z" fill="#BFBFBF"/>
<path opacity="0.75" d="M320.41 355.718C320.362 355.694 320.31 355.682 320.256 355.683C319.773 355.693 318.232 355.799 318.203 356.734C318.172 357.714 326.268 357.956 328.005 357.941C328.063 357.941 328.129 357.941 328.202 357.941L327.075 356.499C322.052 356.435 320.693 355.854 320.412 355.718H320.41Z" fill="#979EA0"/>
<path d="M337.798 356.733C337.769 355.799 336.228 355.693 335.745 355.682C335.692 355.682 335.64 355.693 335.591 355.716C335.292 355.86 333.788 356.504 328 356.504C327.677 356.504 327.371 356.501 327.074 356.498L328.201 357.94C330.275 357.937 337.829 357.68 337.798 356.733Z" fill="white"/>
<path d="M553.998 402.997C561.177 402.997 566.997 397.177 566.997 389.998C566.997 382.82 561.177 377 553.998 377C546.82 377 541 382.82 541 389.998C541 397.177 546.82 402.997 553.998 402.997Z" fill="#1F3B44"/>
<path d="M553.996 392.163C553.996 392.163 561.201 392.203 561.627 391.382C561.627 391.382 561.994 388.035 560.169 386.001C560.122 385.949 560.038 385.953 559.995 386.008L558.367 388.092C558.348 388.117 558.307 388.095 558.319 388.065L559.422 385.354C559.447 385.295 559.432 385.227 559.385 385.183C559.097 384.917 557.997 383.986 556.254 383.521C556.188 383.503 556.119 383.549 556.112 383.618L555.48 389.739C555.479 389.757 555.451 389.755 555.451 389.737V383.338C555.451 383.338 555.451 382.49 554.61 382.49H553.383C552.541 382.49 552.541 383.338 552.541 383.338V389.737C552.541 389.755 552.513 389.757 552.512 389.739L551.88 383.618C551.873 383.549 551.805 383.503 551.738 383.521C549.994 383.988 548.895 384.917 548.606 385.183C548.56 385.227 548.544 385.295 548.569 385.354L549.673 388.065C549.685 388.095 549.645 388.119 549.625 388.092L547.996 386.008L552.8 392.156C553.516 392.166 553.994 392.163 553.994 392.163H553.996Z" fill="white"/>
<path opacity="0.75" d="M552.801 392.154L547.997 386.006C547.955 385.951 547.871 385.947 547.824 386C545.999 388.035 546.366 391.381 546.366 391.381C546.682 391.991 550.736 392.126 552.803 392.154H552.801Z" fill="#BFBFBF"/>
<path opacity="0.75" d="M546.41 391.718C546.362 391.694 546.31 391.682 546.256 391.683C545.773 391.693 544.232 391.799 544.203 392.734C544.172 393.714 552.268 393.956 554.005 393.941C554.063 393.941 554.129 393.941 554.202 393.941L553.075 392.499C548.052 392.435 546.693 391.854 546.412 391.718H546.41Z" fill="#979EA0"/>
<path d="M563.798 392.733C563.769 391.799 562.228 391.693 561.745 391.682C561.692 391.682 561.64 391.693 561.591 391.716C561.292 391.86 559.788 392.504 554 392.504C553.677 392.504 553.371 392.501 553.074 392.498L554.201 393.94C556.275 393.937 563.829 393.68 563.798 392.733Z" fill="white"/>
<path d="M408.998 439.997C416.177 439.997 421.997 434.177 421.997 426.998C421.997 419.82 416.177 414 408.998 414C401.82 414 396 419.82 396 426.998C396 434.177 401.82 439.997 408.998 439.997Z" fill="#1F3B44"/>
<path d="M408.996 429.163C408.996 429.163 416.201 429.203 416.627 428.382C416.627 428.382 416.994 425.035 415.169 423.001C415.122 422.949 415.038 422.953 414.995 423.008L413.367 425.092C413.348 425.117 413.307 425.095 413.319 425.065L414.422 422.354C414.447 422.295 414.432 422.227 414.385 422.183C414.097 421.917 412.997 420.986 411.254 420.521C411.188 420.503 411.119 420.549 411.112 420.618L410.48 426.739C410.479 426.757 410.451 426.755 410.451 426.737V420.338C410.451 420.338 410.451 419.49 409.61 419.49H408.383C407.541 419.49 407.541 420.338 407.541 420.338V426.737C407.541 426.755 407.513 426.757 407.512 426.739L406.88 420.618C406.873 420.549 406.805 420.503 406.738 420.521C404.994 420.988 403.895 421.917 403.606 422.183C403.56 422.227 403.544 422.295 403.569 422.354L404.673 425.065C404.685 425.095 404.645 425.119 404.625 425.092L402.996 423.008L407.8 429.156C408.516 429.166 408.994 429.163 408.994 429.163H408.996Z" fill="white"/>
<path opacity="0.75" d="M407.801 429.154L402.997 423.006C402.955 422.951 402.871 422.947 402.824 423C400.999 425.035 401.366 428.381 401.366 428.381C401.682 428.991 405.736 429.126 407.803 429.154H407.801Z" fill="#BFBFBF"/>
<path opacity="0.75" d="M401.41 428.718C401.362 428.694 401.31 428.682 401.256 428.683C400.773 428.693 399.232 428.799 399.203 429.734C399.172 430.714 407.268 430.956 409.005 430.941C409.063 430.941 409.129 430.941 409.202 430.941L408.075 429.499C403.052 429.435 401.693 428.854 401.412 428.718H401.41Z" fill="#979EA0"/>
<path d="M418.798 429.733C418.769 428.799 417.228 428.693 416.745 428.682C416.692 428.682 416.64 428.693 416.591 428.716C416.292 428.86 414.788 429.504 409 429.504C408.677 429.504 408.371 429.501 408.074 429.498L409.201 430.94C411.275 430.937 418.829 430.68 418.798 429.733Z" fill="white"/>
</svg>
