<svg width="123" height="123" viewBox="0 0 123 123" fill="none" xmlns="http://www.w3.org/2000/svg">
<path d="M59.096 122.226C46.0813 122.388 31.3712 117.014 19.1495 105.46C7.13874 94.1059 0.696047 80.0264 0.0554743 63.5046C-0.602037 46.5396 4.91983 31.686 16.541 19.2962C27.8172 7.27267 41.8498 0.789227 58.3353 0.0674759C75.5292 -0.686592 90.5657 4.8812 103.085 16.6893C115.088 28.0111 121.512 42.0737 122.168 58.5647C122.841 75.485 117.297 90.2509 105.824 102.722C95.0605 114.423 79.5266 121.719 59.096 122.228V122.226Z" fill="#8E9192"/>
<path d="M118.739 66.2545C118.552 77.1393 112.938 90.9849 101.428 102.225C89.8497 113.53 75.811 119.022 59.6242 118.653C27.8589 117.93 2.8411 91.5143 3.44934 59.985C4.06373 28.191 30.2456 2.93901 61.9309 3.43762C94.5185 3.95008 118.942 30.6564 118.737 66.2545H118.739Z" fill="#FEFDFD"/>
<path d="M103.979 61.0732C104.096 84.6109 84.6882 104.212 60.5651 103.921C37.3243 103.641 18.4443 84.7217 18.2257 61.4795C18.0024 37.774 37.1888 18.079 61.3535 18.2052C85.164 18.3298 104.078 37.7432 103.979 61.0732Z" fill="#8E9192"/>
<path d="M95.8858 22.02C95.4608 22.0123 95.0866 22.1801 94.7016 22.274C93.6761 22.5233 92.6598 22.8064 91.6389 23.0757C91.2293 23.1835 91.0707 23.0419 91.0892 22.6371C91.1554 21.1706 91.2093 19.704 91.2709 18.1512C90.6873 18.8791 90.1483 19.5485 89.6125 20.2195C88.878 21.1398 88.1435 22.0585 87.4167 22.9834C87.2781 23.1604 87.1826 23.1973 86.9978 23.028C86.7068 22.7603 86.385 22.5233 86.0678 22.2863C85.9215 22.177 85.8691 22.1078 86.0092 21.9339C87.797 19.7101 89.5786 17.4818 91.354 15.2488C91.4772 15.0934 91.5434 15.1042 91.6805 15.2165C92.0839 15.5504 92.495 15.8782 92.9139 16.1937C93.0402 16.2891 93.0448 16.3984 93.0386 16.5261C92.9739 17.9173 92.9108 19.3085 92.8384 20.6996C92.8246 20.9613 92.8292 21.0675 93.1587 20.9705C94.463 20.5858 95.7811 20.2426 97.0899 19.8763C97.3163 19.8132 97.4903 19.8286 97.6766 19.9948C98.0108 20.2918 98.3649 20.5688 98.7237 20.8351C98.9039 20.969 98.9424 21.0567 98.7838 21.2537C97.0268 23.4358 95.276 25.6242 93.536 27.8217C93.362 28.0418 93.2665 28.0541 93.0679 27.8679C92.8076 27.6232 92.5274 27.3955 92.2302 27.1985C92.0054 27.0492 91.9931 26.9553 92.1671 26.7414C93.342 25.2887 94.5015 23.8252 95.6656 22.3632C95.7426 22.2663 95.8457 22.1847 95.8842 22.0216L95.8858 22.02Z" fill="#030304"/>
<path d="M10.6465 46.9212C11.5719 48 12.4373 49.0095 13.3027 50.019C13.3273 50.0483 13.352 50.0775 13.3797 50.1052C13.8509 50.593 13.9001 50.8116 13.1502 51.1132C11.9353 51.6041 10.7481 52.1581 9.54702 52.686C9.49005 52.7106 9.42075 52.7137 9.38534 52.8229C10.5941 53.0892 11.7998 53.3554 13.007 53.6232C13.7908 53.7971 14.57 53.991 15.3584 54.1433C15.5863 54.188 15.594 54.2788 15.5555 54.4496C15.4692 54.8343 15.3784 55.219 15.3045 55.6068C15.2629 55.83 15.1628 55.8931 14.9395 55.8423C13.7723 55.5761 12.6021 55.3206 11.4349 55.0605C9.85653 54.7081 8.27973 54.3495 6.69832 54.0094C6.47658 53.9617 6.43346 53.8802 6.47966 53.6801C6.59207 53.1969 6.69986 52.7121 6.79533 52.2243C6.8369 52.0135 6.99089 51.9427 7.15565 51.8719C8.49531 51.2917 9.83497 50.7115 11.2131 50.116C10.5479 49.3619 9.9058 48.6356 9.26369 47.9076C8.91722 47.5137 8.57692 47.1151 8.21968 46.7288C8.10111 46.5996 8.07185 46.4734 8.10727 46.3133C8.21506 45.8409 8.31669 45.3684 8.42602 44.8975C8.46451 44.7344 8.48761 44.6251 8.74476 44.6836C11.4888 45.3084 14.2374 45.9147 16.9891 46.5072C17.2508 46.5642 17.2893 46.6627 17.2385 46.8827C17.1538 47.2413 17.0707 47.6014 17.0014 47.9646C16.9583 48.1908 16.8613 48.2739 16.6195 48.22C14.7317 47.7891 12.8423 47.3675 10.9514 46.9443C10.879 46.9274 10.8004 46.932 10.6449 46.9197L10.6465 46.9212Z" fill="#030304"/>
<path d="M45.356 109.484C46.0259 110.254 46.2183 111.092 45.8226 112.019C45.2729 113.304 44.1565 113.798 42.6444 113.395C41.2046 113.01 39.8527 112.376 38.4545 111.871C37.7831 111.628 37.7846 111.616 38.0418 110.935C38.9857 108.455 39.9327 105.976 40.8705 103.493C40.9613 103.255 41.0506 103.196 41.3032 103.296C42.5797 103.798 43.867 104.27 45.1435 104.772C45.8318 105.043 46.4401 105.437 46.8435 106.083C47.5903 107.281 47.036 108.998 45.778 109.389C45.6578 109.426 45.53 109.446 45.356 109.484Z" fill="#030304"/>
<path d="M12.4342 80.4834C11.8429 81.5761 11.2747 82.6287 10.705 83.6813C10.6511 83.7813 10.6034 83.889 10.5371 83.9814C10.4463 84.106 10.3724 84.1199 10.3092 83.9414C10.1183 83.4027 9.91813 82.8687 9.71333 82.3347C9.65327 82.1793 9.72565 82.067 9.7934 81.9439C10.3354 80.9636 10.8697 79.9771 11.4256 79.003C11.5534 78.7783 11.5673 78.5875 11.4718 78.3597C11.344 78.055 11.2208 77.7457 11.1254 77.4302C11.0622 77.2225 10.9837 77.2178 10.7974 77.2886C10.0367 77.5795 9.26831 77.8457 8.50609 78.132C8.31361 78.2043 8.19659 78.2212 8.12267 77.9765C8.00873 77.601 7.87476 77.2271 7.71308 76.8701C7.59297 76.6069 7.72386 76.5515 7.92711 76.4776C10.1399 75.6789 12.3511 74.8756 14.5623 74.0738C15.0042 73.9138 15.4477 73.7599 15.8865 73.5922C16.0174 73.5429 16.1144 73.486 16.1807 73.6783C16.6965 75.1926 17.3756 76.6561 17.7421 78.2166C18.0084 79.3508 17.6974 80.3972 16.7427 81.1282C15.8188 81.8346 14.7748 82.0808 13.6492 81.6007C13.1395 81.3821 12.7761 80.9866 12.4373 80.4819L12.4342 80.4834Z" fill="#030304"/>
<path d="M78.9661 15.3288C79.4511 16.52 79.9208 17.6726 80.3858 18.8253C80.4259 18.9237 80.5413 19.033 80.4536 19.1361C80.3566 19.2485 80.2411 19.133 80.1394 19.0976C79.6113 18.9161 78.9861 18.8483 78.5842 18.5129C78.1808 18.1758 78.1238 17.5203 77.9082 17.0078C77.6372 16.363 77.3816 15.712 77.1337 15.0565C77.0736 14.8964 76.9889 14.8087 76.8272 14.7579C76.4762 14.6471 76.1189 14.5425 75.7863 14.3886C75.5523 14.2808 75.503 14.3916 75.4429 14.564C75.1812 15.3196 74.9117 16.0737 74.6545 16.8324C74.5822 17.0463 74.5144 17.1478 74.2573 17.034C73.8985 16.8739 73.5197 16.7539 73.1424 16.6415C72.9515 16.5846 72.9114 16.5046 72.9777 16.3199C73.9277 13.6391 74.8763 10.9568 75.8171 8.27138C75.8864 8.07594 75.9927 8.06055 76.1559 8.12057C77.4817 8.59917 78.8183 9.05469 80.1333 9.56099C81.4776 10.0781 82.1998 11.1076 82.1936 12.4018C82.1874 14.1331 80.9833 15.3319 79.2525 15.3288C79.1755 15.3288 79.0985 15.3288 78.9645 15.3288H78.9661Z" fill="#030304"/>
<path d="M106.281 81.81C108.012 82.5179 109.727 83.2243 111.449 83.9168C111.688 84.0122 111.749 84.1107 111.632 84.3492C111.477 84.6678 111.327 84.9956 111.226 85.3341C111.136 85.6296 111.007 85.6296 110.761 85.5265C108.563 84.6185 106.363 83.7229 104.164 82.8211C103.764 82.6564 103.373 82.4671 102.964 82.3286C102.744 82.2532 102.766 82.1532 102.838 81.9993C102.844 81.987 102.851 81.9762 102.855 81.9654C103.13 81.275 103.639 80.8251 104.383 80.6158C106.192 80.1018 108.001 79.5847 109.809 79.0661C109.855 79.0538 109.895 79.02 109.985 78.9722C108.668 78.4321 107.395 77.9089 106.121 77.3856C105.804 77.2548 105.488 77.1179 105.166 76.9994C104.991 76.9347 104.92 76.8624 105.008 76.6685C105.18 76.2868 105.342 75.899 105.488 75.5066C105.551 75.3358 105.608 75.3004 105.789 75.3743C108.422 76.4592 111.056 77.5364 113.694 78.6075C113.902 78.6922 113.95 78.7891 113.828 78.9722C113.822 78.983 113.82 78.9969 113.817 79.0092C113.696 79.5647 113.348 79.7971 112.789 79.9402C110.685 80.4835 108.599 81.096 106.505 81.6807C106.429 81.7023 106.354 81.7084 106.281 81.81Z" fill="#030304"/>
<path d="M96.6389 30.7596C96.6389 28.2927 98.9902 26.092 101.62 26.0936C104.024 26.0936 106.186 28.3204 106.186 30.795C106.186 33.3111 103.81 35.5502 101.144 35.5471C98.8254 35.544 96.6373 33.2203 96.6389 30.7596Z" fill="#030304"/>
<path d="M54.3563 15.812C51.6354 15.8936 49.8661 13.6699 49.8754 11.0476C49.8846 8.28675 51.8156 6.41235 54.6674 6.41235C57.2312 6.41235 59.1344 8.46834 59.1329 11.2338C59.1313 14.0007 57.242 15.812 54.3563 15.812Z" fill="#030304"/>
<path d="M30.7645 17.1926C30.6552 17.288 30.5551 17.3819 30.4489 17.465C29.334 18.3437 28.2207 19.2286 27.0966 20.095C26.8949 20.2504 26.8318 20.3427 27.0242 20.5597C27.3445 20.9229 27.6386 21.3122 27.9266 21.7031C28.0482 21.8678 28.1206 21.8709 28.2808 21.7416C29.3787 20.8613 30.492 19.9995 31.5868 19.1178C31.8239 18.9269 31.9733 18.8961 32.1411 19.1839C32.2566 19.3809 32.4183 19.5502 32.5615 19.7318C32.9049 20.1658 32.9049 20.1642 32.4568 20.5151C31.4097 21.3369 30.3719 22.1694 29.3155 22.9789C29.1046 23.1405 29.1169 23.2328 29.2724 23.4144C29.5727 23.7637 29.8591 24.1254 30.1301 24.4978C30.2641 24.6809 30.3426 24.7117 30.5382 24.5532C31.6838 23.6298 32.8495 22.7311 33.9951 21.8078C34.2215 21.6262 34.3308 21.6354 34.4909 21.8755C34.6957 22.1833 34.9375 22.468 35.1792 22.748C35.3117 22.9019 35.2978 22.9789 35.1377 23.1051C33.4947 24.3901 31.8578 25.6828 30.2256 26.9801C30.0454 27.1232 29.9684 27.0786 29.8406 26.9154C28.1175 24.7225 26.3914 22.5326 24.6529 20.352C24.465 20.1165 24.4789 20.0072 24.7176 19.8226C26.3236 18.573 27.9174 17.3095 29.5111 16.0461C29.6712 15.9183 29.7744 15.8614 29.9207 16.0815C30.1255 16.3893 30.3765 16.6663 30.6059 16.9587C30.6598 17.0279 30.706 17.1049 30.7661 17.1941L30.7645 17.1926Z" fill="#030304"/>
<path d="M107.433 90.7327C107.433 93.1919 105.214 95.511 102.864 95.511C100.313 95.511 97.9016 93.1873 97.8954 90.7281C97.8892 88.2751 100.119 85.9667 102.496 86.0006C105.279 86.0406 107.541 88.5044 107.433 90.7327Z" fill="#030304"/>
<path d="M23.1932 88.2302C23.2024 88.3611 23.0977 88.3811 23.0284 88.4242C22.7143 88.6196 22.3863 88.795 22.086 89.0105C21.8673 89.1674 21.7673 89.1444 21.6256 88.9104C20.8726 87.6655 20.0919 86.439 19.3466 85.1909C19.1819 84.917 19.0648 84.9293 18.8354 85.0862C18.4674 85.3386 18.0855 85.5756 17.6959 85.7911C17.4711 85.9157 17.4634 86.0142 17.5974 86.2266C18.338 87.4038 19.0571 88.5934 19.7978 89.7707C19.9502 90.0108 19.9672 90.1477 19.6854 90.2893C19.3897 90.4371 19.111 90.6233 18.8354 90.8064C18.6614 90.9218 18.5798 90.9095 18.4628 90.7125C17.7313 89.4999 16.9722 88.3041 16.2439 87.0899C16.0914 86.836 15.9821 86.8268 15.7557 86.9853C15.4 87.233 15.0305 87.4654 14.6501 87.6716C14.4145 87.7994 14.3883 87.8932 14.5377 88.1287C15.3292 89.3798 16.0945 90.6463 16.8798 91.9006C16.9891 92.076 16.9999 92.1637 16.8044 92.2714C16.4471 92.47 16.0991 92.6839 15.7603 92.9116C15.6002 93.0193 15.5309 92.987 15.4354 92.8331C14.3329 91.0403 13.2258 89.2505 12.1109 87.4654C11.9569 87.2192 12.1556 87.1899 12.2772 87.113C14.0018 86.045 15.7295 84.9801 17.4557 83.9136C18.1178 83.5042 18.7846 83.101 19.4421 82.684C19.6161 82.5732 19.71 82.5747 19.8255 82.764C20.9126 84.5369 22.0075 86.3051 23.1008 88.0748C23.1346 88.1287 23.167 88.1825 23.1947 88.2287L23.1932 88.2302Z" fill="#030304"/>
<path d="M110.571 54.9682C110.336 55.0436 110.413 54.7543 110.393 54.6481C110.189 53.637 110.009 52.6213 109.82 51.6072C109.748 51.2194 109.652 50.8346 109.603 50.4438C109.578 50.2483 109.507 50.2083 109.336 50.2422C108.874 50.336 108.416 50.4576 107.949 50.5084C107.633 50.5422 107.618 50.6792 107.666 50.927C107.858 51.915 108.04 52.9029 108.228 53.8909C108.314 54.3418 108.402 54.7912 108.496 55.239C108.536 55.4283 108.514 55.5637 108.282 55.573C108.245 55.573 108.208 55.5945 108.171 55.6007C107.746 55.6745 107.216 55.9315 106.922 55.7684C106.622 55.6007 106.699 54.9866 106.617 54.568C106.291 52.9076 105.986 51.2409 105.676 49.5773C105.633 49.345 105.601 49.1895 105.96 49.1264C108.505 48.674 111.044 48.1816 113.586 47.7014C113.599 47.6983 113.613 47.6999 113.625 47.6983C113.911 47.6799 114.252 47.4383 114.453 47.6168C114.621 47.766 114.596 48.1369 114.647 48.4109C114.985 50.2006 115.317 51.9904 115.661 53.7786C115.717 54.0725 115.711 54.2449 115.328 54.2526C115.015 54.2587 114.697 54.3464 114.395 54.4388C114.115 54.525 114.039 54.3942 113.997 54.1649C113.734 52.7367 113.463 51.3102 113.211 49.8805C113.164 49.6143 113.106 49.5143 112.804 49.5989C112.376 49.7174 111.931 49.7897 111.489 49.8405C111.213 49.8713 111.155 49.9821 111.203 50.2314C111.449 51.5056 111.682 52.7844 111.931 54.0571C112.05 54.6604 112.063 54.6588 111.432 54.7912C111.17 54.8466 110.909 54.8974 110.571 54.9651V54.9682Z" fill="#030304"/>
<path d="M30.0962 95.8202C28.4455 97.3945 26.8979 98.8688 25.3519 100.343C24.8238 100.846 24.2956 101.35 23.7721 101.859C23.5858 102.04 23.4425 102.131 23.2362 101.859C23.0129 101.565 22.745 101.303 22.4755 101.048C22.3246 100.905 22.3462 100.823 22.4863 100.692C23.2039 100.017 23.906 99.3243 24.6298 98.6564C24.8546 98.4487 24.9239 98.3348 24.6621 98.0732C23.732 97.1406 22.8343 96.1741 21.9135 95.2077C21.1143 95.971 20.3213 96.7128 19.5483 97.473C19.3481 97.67 19.2295 97.6854 19.0448 97.4622C18.8076 97.1775 18.5428 96.9144 18.2718 96.6604C18.1193 96.5173 18.0962 96.4296 18.2625 96.2726C20.3151 94.3259 22.3647 92.3761 24.4049 90.4171C24.5851 90.2447 24.6698 90.2678 24.8161 90.4325C25.0794 90.7279 25.3566 91.0142 25.6399 91.2912C25.7939 91.442 25.78 91.5282 25.6183 91.679C24.7668 92.4731 23.9322 93.2841 23.0838 94.0966C24.02 95.0815 24.9516 96.0495 25.8663 97.0329C26.0572 97.2375 26.1557 97.2068 26.3405 97.0252C27.0581 96.3142 27.8018 95.6278 28.5225 94.9184C28.7411 94.7045 28.8705 94.6383 29.1107 94.923C29.3879 95.2539 29.7513 95.5124 30.0962 95.8187V95.8202Z" fill="#030304"/>
<path d="M22.3786 35.9488C22.123 36.4566 21.8797 36.946 21.6271 37.4308C21.5794 37.5231 21.5347 37.6062 21.3684 37.5877C20.8865 37.5354 20.3999 37.5308 19.9164 37.5016C19.7778 37.4939 19.6854 37.5108 19.6099 37.657C18.9601 38.9389 18.2995 40.2162 17.6374 41.492C17.565 41.6305 17.6082 41.7151 17.6975 41.8228C17.9993 42.186 18.2841 42.5646 18.5875 42.9278C18.6907 43.0524 18.7107 43.1509 18.6306 43.2987C18.3765 43.7665 18.1379 44.242 17.8622 44.776C17.4295 44.242 17.023 43.7434 16.6211 43.2433C15.0751 41.3196 13.5353 39.3914 11.9785 37.4769C11.7521 37.1984 11.6644 36.9737 11.8784 36.6475C12.0724 36.352 12.2372 36.0304 12.3665 35.701C12.4759 35.424 12.6576 35.4009 12.9055 35.4148C14.1943 35.4917 15.4816 35.561 16.7705 35.6302C18.5829 35.7272 20.3937 35.8195 22.2061 35.9149C22.2538 35.918 22.3016 35.9334 22.3755 35.9488H22.3786Z" fill="#030304"/>
<path d="M89.4801 109.053C88.975 109.297 88.4668 109.529 87.971 109.784C87.8155 109.864 87.737 109.794 87.6384 109.709C87.2981 109.418 86.9486 109.138 86.616 108.838C86.4635 108.703 86.3372 108.675 86.1463 108.769C84.9252 109.367 83.6995 109.957 82.4692 110.538C82.2551 110.64 82.1689 110.76 82.1858 111.002C82.2166 111.436 82.2012 111.871 82.2213 112.305C82.229 112.482 82.1674 112.582 82.0057 112.656C81.5992 112.838 81.1957 113.025 80.8 113.23C80.5813 113.342 80.5213 113.307 80.5167 113.056C80.4859 111.42 80.4474 109.783 80.4042 108.147C80.3658 106.703 80.3257 105.26 80.2718 103.816C80.2626 103.566 80.3288 103.43 80.5675 103.332C80.9771 103.161 81.3743 102.955 81.7701 102.752C81.8994 102.685 81.9887 102.676 82.1089 102.779C84.5495 104.846 86.9932 106.908 89.4369 108.97C89.4539 108.984 89.46 109.01 89.4816 109.05L89.4801 109.053Z" fill="#030304"/>
<path d="M34.5525 110.081C34.049 109.747 33.587 109.435 33.1158 109.133C32.9957 109.056 32.9849 108.976 33.008 108.847C33.0881 108.408 33.1374 107.964 33.2298 107.527C33.276 107.308 33.2436 107.179 33.0465 107.051C31.8901 106.3 30.7414 105.54 29.5957 104.774C29.431 104.663 29.3124 104.674 29.1538 104.78C28.795 105.021 28.4131 105.231 28.0574 105.477C27.8834 105.598 27.7587 105.608 27.5832 105.485C27.1582 105.186 26.7193 104.906 26.242 104.589C27.0319 104.087 27.7803 103.613 28.5286 103.138C30.4242 101.936 32.3259 100.742 34.2091 99.5213C34.5078 99.3274 34.7049 99.3366 34.9667 99.5428C35.2362 99.7552 35.5241 99.9552 35.829 100.109C36.117 100.255 36.1416 100.462 36.0969 100.731C35.6658 103.307 35.2362 105.883 34.8081 108.459C34.7219 108.983 34.6433 109.507 34.554 110.078L34.5525 110.081Z" fill="#030304"/>
<path d="M21.3483 23.0127C21.4515 23.8283 21.5439 24.5454 21.6348 25.2626C21.7795 26.389 21.9273 27.5155 22.0644 28.6435C22.0906 28.8636 22.1552 28.9144 22.4001 28.8944C23.7644 28.7867 25.1317 28.7143 26.4991 28.6297C27.035 28.5958 27.5708 28.5651 28.1067 28.5266C28.2053 28.5189 28.3238 28.4496 28.3808 28.5681C28.4347 28.682 28.3053 28.7436 28.2453 28.8159C27.9111 29.2206 27.5631 29.6146 27.2382 30.027C27.112 30.1871 26.9734 30.2317 26.784 30.2425C25.1502 30.3364 23.5164 30.4364 21.8827 30.5364C21.8365 30.5395 21.7918 30.5487 21.6871 30.5641C22.5895 31.3182 23.4533 32.0338 24.3095 32.7571C24.7745 33.1495 24.716 33.0002 24.3772 33.4357C24.1647 33.7081 23.9245 33.959 23.7135 34.2313C23.595 34.3837 23.5134 34.3621 23.3794 34.2498C21.2128 32.4324 19.0432 30.6164 16.8674 28.8082C16.6842 28.6559 16.6688 28.5604 16.832 28.3865C17.0938 28.1065 17.3355 27.8064 17.5727 27.5047C17.7066 27.3339 17.7913 27.2924 17.9869 27.4617C18.7583 28.1342 19.5514 28.7836 20.3382 29.4392C20.4229 29.51 20.4937 29.61 20.6385 29.61C20.4475 28.2788 20.2581 26.9554 20.0672 25.6304C20.0333 25.3903 19.9871 25.1518 19.9563 24.9117C19.9456 24.8255 19.9286 24.707 19.9733 24.6516C20.4044 24.1222 20.8494 23.6021 21.3499 23.0096L21.3483 23.0127Z" fill="#030304"/>
<path d="M62.5391 11.7894C62.6669 10.6352 62.7947 9.48102 62.921 8.32529C62.9888 7.70357 63.0611 7.08185 63.1196 6.45859C63.1443 6.1939 63.2074 6.03539 63.5323 6.09848C63.908 6.17081 64.2915 6.20159 64.6733 6.23698C64.8289 6.25237 64.8966 6.29392 64.8766 6.46936C64.7303 7.68664 64.5748 8.90238 64.4547 10.1227C64.3761 10.9184 64.1544 11.7124 64.3684 12.5173C64.6348 13.516 65.4987 14.1055 66.6674 14.0993C67.6421 14.0931 68.4028 13.4745 68.6461 12.4511C68.8324 11.6678 68.8617 10.8583 68.9572 10.0612C69.0773 9.05935 69.1789 8.05598 69.2867 7.05261C69.3067 6.8664 69.3545 6.74944 69.5916 6.78945C69.995 6.85563 70.4015 6.90333 70.8096 6.92796C71.0375 6.94181 71.0437 7.04953 71.0221 7.22343C70.8188 8.9347 70.6233 10.6475 70.4185 12.3588C70.1783 14.3701 68.7585 15.6952 66.7383 15.6875C65.0013 15.6813 63.4984 14.9626 62.8455 13.3652C62.6407 12.8651 62.5407 12.3403 62.536 11.7925L62.5391 11.7894Z" fill="#030304"/>
<path d="M109.666 34.9222C109.905 35.4732 110.136 36.021 110.38 36.5658C110.46 36.7459 110.305 36.7905 110.226 36.8674C108.639 38.431 107.048 39.9914 105.454 41.5488C105.367 41.6334 105.254 41.6935 105.185 41.8073C106.063 41.8843 106.899 41.8243 107.736 41.792C109.244 41.7319 110.753 41.6858 112.262 41.6242C112.481 41.615 112.598 41.6704 112.681 41.8889C112.872 42.3829 113.097 42.8646 113.358 43.4663C112.173 43.4663 111.075 43.4571 109.978 43.4678C107.943 43.4878 105.907 43.5125 103.871 43.5494C103.62 43.554 103.485 43.5002 103.394 43.2493C103.252 42.8553 103.069 42.4783 102.897 42.0967C102.838 41.9689 102.837 41.8812 102.948 41.7673C105.159 39.5067 107.364 37.2398 109.572 34.9761C109.589 34.9592 109.615 34.9515 109.667 34.9222H109.666Z" fill="#030304"/>
<path d="M45.7764 8.14992C45.587 8.95015 45.4192 9.66421 45.2467 10.3783C44.9434 11.6263 44.6431 12.8744 44.3213 14.1178C44.2689 14.321 44.2843 14.4872 44.3552 14.6672C44.7247 15.6275 45.0774 16.5955 45.4669 17.5465C45.584 17.8312 45.5039 17.9159 45.2529 17.9974C44.891 18.1159 44.5338 18.2513 44.1827 18.4006C43.9933 18.4806 43.9317 18.4376 43.8624 18.2483C43.4975 17.2587 43.1064 16.28 42.7414 15.2905C42.666 15.0873 42.5536 14.9411 42.3811 14.818C40.8505 13.7285 39.3245 12.6358 37.797 11.5401C37.7077 11.477 37.5475 11.4386 37.5737 11.3093C37.5968 11.1939 37.7539 11.197 37.857 11.1585C38.2836 10.9923 38.7178 10.843 39.1351 10.6568C39.3692 10.5522 39.5262 10.6045 39.7141 10.7522C40.7504 11.5632 41.796 12.3619 42.8708 13.1883C43.0833 12.1988 43.2881 11.2431 43.4913 10.2875C43.5729 9.9012 43.653 9.51647 43.7285 9.12866C43.7577 8.97785 43.8239 8.88552 43.9764 8.83012C44.5492 8.62236 45.1159 8.40076 45.7764 8.14838V8.14992Z" fill="#030304"/>
<path d="M75.8264 106.834C75.8541 107.048 75.7017 107.031 75.5877 107.059C74.8455 107.239 74.1064 107.427 73.3611 107.591C73.1486 107.639 73.0978 107.688 73.1533 107.919C73.6968 110.141 74.2142 112.371 74.7655 114.592C74.8363 114.878 74.7254 114.921 74.5237 114.967C74.1649 115.051 73.7923 115.1 73.4489 115.224C73.1533 115.331 73.1055 115.18 73.0547 114.969C72.5373 112.793 72.0138 110.619 71.5056 108.439C71.4348 108.138 71.3455 108.042 71.0206 108.139C70.3384 108.341 69.6424 108.493 68.9495 108.663C68.7493 108.712 68.5969 108.729 68.5615 108.432C68.5199 108.081 68.4198 107.735 68.3135 107.394C68.2581 107.214 68.3135 107.176 68.4706 107.139C70.7342 106.602 72.9977 106.06 75.2613 105.522C75.3521 105.5 75.4738 105.388 75.52 105.594C75.6155 106.016 75.7248 106.433 75.8249 106.834H75.8264Z" fill="#030304"/>
<path d="M92.3642 97.7423C92.3303 97.8578 92.2425 97.8916 92.1732 97.9424C91.585 98.3718 91.0076 98.818 90.404 99.2243C90.133 99.4059 90.1453 99.5244 90.327 99.7691C91.6682 101.573 92.9894 103.393 94.329 105.198C94.4799 105.403 94.4707 105.5 94.2643 105.635C93.9441 105.846 93.6299 106.068 93.3358 106.313C93.148 106.468 93.071 106.437 92.9308 106.245C91.6158 104.435 90.2823 102.641 88.9704 100.829C88.7764 100.56 88.6562 100.488 88.3668 100.72C87.8001 101.177 87.1919 101.58 86.6113 102.022C86.4481 102.147 86.3727 102.137 86.2603 101.965C86.057 101.656 85.8353 101.357 85.6043 101.069C85.4826 100.919 85.5165 100.852 85.6643 100.745C87.5337 99.3828 89.4 98.0163 91.2617 96.642C91.4249 96.522 91.508 96.5266 91.6204 96.6943C91.8206 96.9898 92.0424 97.273 92.2518 97.5623C92.2964 97.6223 92.3318 97.69 92.3642 97.7439V97.7423Z" fill="#030304"/>
<path d="M56.7262 108.107C56.6061 109.968 56.5029 111.83 56.3566 113.689C56.2719 114.78 56.2411 114.775 57.3329 114.843C58.4431 114.912 59.5518 114.992 60.662 115.055C60.836 115.066 60.9145 115.091 60.8914 115.292C60.853 115.634 60.8298 115.98 60.8298 116.325C60.8298 116.6 60.7467 116.688 60.4526 116.668C58.5401 116.529 56.6261 116.406 54.7121 116.296C54.4688 116.282 54.4842 116.162 54.4934 116.003C54.5535 114.983 54.6089 113.964 54.672 112.944C54.7382 111.887 54.8091 110.828 54.8799 109.771C54.9307 109.006 54.9862 108.241 55.0262 107.476C55.0339 107.316 55.094 107.284 55.2325 107.293C55.6791 107.322 56.1256 107.348 56.5707 107.371C56.7339 107.379 56.7508 107.481 56.7431 107.607C56.7323 107.773 56.7246 107.939 56.7139 108.104C56.7169 108.104 56.72 108.104 56.7231 108.104L56.7262 108.107Z" fill="#030304"/>
<path d="M94.2398 93.6241C95.1344 94.5121 95.9644 95.3277 96.7851 96.151C97.9862 97.356 99.175 98.5733 100.385 99.7721C100.621 100.006 100.647 100.151 100.376 100.365C100.127 100.562 99.8941 100.788 99.6862 101.029C99.4999 101.243 99.3875 101.245 99.1811 101.036C97.2209 99.0334 95.2499 97.0421 93.2758 95.0538C93.1188 94.8968 93.128 94.8199 93.2835 94.666C93.6192 94.3336 93.9257 93.9704 94.2398 93.6257V93.6241Z" fill="#030304"/>
<path d="M52.1914 106.902C52.0004 107.833 51.8172 108.732 51.6309 109.629C51.2505 111.46 50.8625 113.29 50.4883 115.123C50.4221 115.447 50.322 115.618 49.9494 115.464C49.7292 115.374 49.4782 115.363 49.241 115.311C48.7098 115.192 48.7006 115.189 48.8053 114.684C49.3658 111.993 49.9324 109.303 50.4898 106.611C50.5283 106.426 50.5792 106.386 50.7655 106.431C51.1735 106.529 51.5862 106.61 52.0004 106.679C52.1698 106.706 52.2222 106.779 52.1898 106.902H52.1914Z" fill="#030304"/>
<path d="M65.0936 116.459C64.7323 116.459 64.5377 116.275 64.51 115.908C64.3252 113.487 64.1389 111.066 63.9526 108.646C63.9295 108.339 63.9126 108.033 63.8756 107.73C63.8571 107.57 63.8895 107.501 64.0635 107.49C64.4977 107.461 64.9304 107.416 65.3615 107.373C65.5032 107.359 65.5617 107.402 65.574 107.558C65.6695 108.793 65.7742 110.027 65.8743 111.263C65.996 112.753 66.1176 114.243 66.2393 115.732C66.2454 115.809 66.2439 115.886 66.2593 115.962C66.3178 116.263 66.23 116.399 65.8913 116.379C65.6264 116.363 65.3585 116.428 65.0921 116.457L65.0936 116.459Z" fill="#030304"/>
<path d="M61.1102 101.933C38.878 102.03 20.2382 83.9768 20.1967 61.1485C20.1551 38.4203 38.5531 20.1888 61.0979 20.1765C83.6827 20.1641 102.213 38.4988 102.03 61.4224C101.85 84.0137 83.3578 102.027 61.1102 101.933Z" fill="#FEFDFD"/>
<path d="M43.2203 111.837C43.0047 111.787 42.7122 111.745 42.4381 111.648C41.6974 111.385 40.966 111.097 40.2299 110.82C40.0606 110.757 39.9528 110.689 40.0452 110.468C40.2731 109.918 40.4886 109.361 40.6857 108.8C40.7519 108.613 40.8274 108.61 40.9845 108.672C41.7297 108.961 42.4827 109.232 43.2234 109.531C43.5945 109.68 43.904 109.924 44.1319 110.265C44.3613 110.608 44.4322 110.969 44.232 111.342C44.0349 111.711 43.6746 111.797 43.2188 111.836L43.2203 111.837Z" fill="white"/>
<path d="M44.4506 108.229C44.2443 108.252 44.0318 108.196 43.8285 108.122C43.0663 107.841 42.3102 107.544 41.5496 107.261C41.3786 107.197 41.3047 107.148 41.3956 106.939C41.6019 106.463 41.7759 105.972 41.9484 105.483C42.01 105.308 42.0793 105.291 42.2517 105.358C42.9939 105.654 43.7454 105.925 44.4907 106.214C44.8695 106.362 45.1728 106.602 45.3376 106.991C45.5932 107.594 45.142 108.324 44.4506 108.227V108.229Z" fill="white"/>
<path d="M14.7256 80.0894C14.1343 80.0955 13.7108 79.8047 13.4922 79.2815C13.1596 78.4843 12.8839 77.6625 12.579 76.8546C12.5159 76.6868 12.5883 76.6391 12.7361 76.5868C13.4906 76.319 14.2405 76.0436 14.9889 75.762C15.1229 75.7112 15.1921 75.7296 15.2383 75.8635C15.5263 76.6776 15.8481 77.4809 16.0976 78.3058C16.384 79.2491 15.7188 80.0817 14.724 80.0894H14.7256Z" fill="white"/>
<path d="M80.4412 12.3465C80.4412 13.3483 79.6251 14.0008 78.6689 13.7192C77.8666 13.4822 77.0844 13.1744 76.2898 12.9098C76.1158 12.8513 76.0727 12.7743 76.1327 12.6066C76.4068 11.8556 76.6825 11.1046 76.9396 10.3459C76.9997 10.1674 77.0567 10.1766 77.2076 10.232C77.9713 10.5106 78.7459 10.7599 79.505 11.0477C80.144 11.2893 80.4428 11.7325 80.4412 12.3481V12.3465Z" fill="white"/>
<path d="M104.537 30.658C104.54 31.863 103.637 33.0803 102.338 33.6205C100.598 34.3437 98.7222 33.285 98.3373 31.4183C98.0678 30.1179 98.9655 28.8098 100.103 28.1789C101.931 27.1662 103.911 28.0265 104.469 30.0517C104.524 30.2548 104.504 30.458 104.537 30.658Z" fill="white"/>
<path d="M57.4238 11.2815C57.4038 12.4634 56.9942 13.4483 55.847 13.9315C54.7106 14.4086 53.5665 14.4255 52.5887 13.5391C51.2829 12.3541 51.2151 9.90266 52.4485 8.77309C53.3155 7.97901 54.3672 7.81281 55.4528 8.13752C56.5461 8.46377 57.085 9.33787 57.3406 10.4043C57.4099 10.6906 57.4453 10.983 57.4238 11.2831V11.2815Z" fill="white"/>
<path d="M102.382 87.6809C104.089 87.6809 105.819 89.2629 105.816 90.8218C105.815 92.2992 104.381 93.7996 102.965 93.8058C101.251 93.8135 99.5353 92.2238 99.5292 90.6233C99.523 89.1136 100.912 87.6809 102.382 87.6809Z" fill="white"/>
<path d="M17.9238 37.3845C17.4141 38.3833 16.9429 39.3082 16.4425 40.2885C15.5863 39.2482 14.7517 38.234 13.8494 37.1368C15.2552 37.223 16.5595 37.3014 17.9238 37.3845Z" fill="#FFFEFE"/>
<path d="M81.9596 104.834C83.0329 105.759 84.0291 106.616 85.0578 107.502C84.083 107.971 83.1299 108.43 82.1244 108.915C82.0705 107.562 82.0166 106.243 81.9596 104.832V104.834Z" fill="#FFFFFE"/>
<path d="M33.587 105.472C32.7201 104.901 31.904 104.361 31.0817 103.827C30.9262 103.727 30.8785 103.653 31.0617 103.535C32.1088 102.862 33.1543 102.187 34.283 101.46C34.0459 102.83 33.8226 104.12 33.587 105.472Z" fill="#FEFEFE"/>
<path d="M63.1288 98.2978C55.3649 98.2655 48.3417 95.9279 41.9837 91.5158C41.7989 91.3881 41.4863 91.2896 41.5063 91.0634C41.5264 90.8356 41.859 90.8249 42.0576 90.7387C43.8792 89.9461 45.6824 89.1151 47.3947 88.101C47.7766 87.8748 48.1338 87.8902 48.5142 88.0948C50.8362 89.3429 53.2769 90.2755 55.8654 90.8049C57.3482 91.1096 58.8388 91.2681 60.3571 91.108C62.345 90.8972 63.8202 89.8276 65.0536 88.3518C65.7588 87.507 66.4117 86.6205 67.1216 85.7803C68.4412 84.2183 70.152 83.3642 72.1615 83.0687C73.9046 82.8133 75.6153 82.4039 77.2984 81.8976C78.8829 81.4221 80.4674 81.0312 82.1412 81.1205C82.56 81.142 82.9835 81.0774 83.4054 81.0543C84.1122 81.0158 84.3324 81.3128 84.1229 81.9992C83.9844 82.4516 83.6779 82.764 83.3084 83.0318C82.5092 83.6104 81.5607 83.772 80.6337 83.9936C79.2432 84.3276 77.9082 84.8185 76.6301 85.4587C76.4022 85.5726 76.1851 85.7049 76.0126 85.9034C75.8771 86.0589 75.9002 86.1773 76.0634 86.2681C76.1728 86.3282 76.2959 86.3682 76.4176 86.3974C77.6864 86.7067 78.946 86.6544 80.2041 86.3097C82.6108 85.6495 84.9144 84.7538 87.0101 83.3781C88.4006 82.4655 89.5139 81.2728 90.4147 79.8847C91.3248 78.4828 92.3642 77.1916 93.5776 76.0421C93.8193 75.8128 94.0842 75.6112 94.3737 75.445C94.9003 75.1418 95.2591 75.1603 95.7179 75.5111C96.1014 75.8051 96.2415 76.2513 96.0582 76.7853C95.6825 77.8841 95.1482 78.9121 94.6062 79.9355C91.2847 86.2004 86.3619 90.8279 80.1055 94.0904C76.9042 95.7586 73.5412 96.9759 69.9934 97.6607C68.3612 97.9762 66.712 98.167 65.049 98.2486C64.4084 98.2794 63.7694 98.2901 63.1288 98.2994V98.2978Z" fill="#030304"/>
<path d="M40.0451 39.359C40.6887 39.1112 41.3185 38.9604 41.956 38.865C42.5797 38.7711 43.0724 38.508 43.5128 38.0478C45.9103 35.5486 48.6405 33.4926 51.7586 31.9676C54.4472 30.6518 57.282 29.8162 60.2447 29.3868C62.1279 29.1144 64.0173 29.0236 65.9144 29.099C67.3433 29.156 68.7569 29.3545 70.1613 29.6577C70.1289 29.8269 70.0026 29.8423 69.901 29.8823C68.3489 30.4917 67.1078 31.4797 66.2424 32.914C66.0175 33.2849 65.7281 33.4449 65.2954 33.4249C64.1559 33.3711 63.0133 33.3526 61.8738 33.408C58.2352 33.5834 54.7736 34.4714 51.4907 36.0518C50.4513 36.552 49.4443 37.1122 48.468 37.7277C48.3017 37.8324 48.1416 37.9478 47.8844 38.1232C48.3848 38.1571 48.7621 38.1094 49.1394 38.1063C53.9914 38.0817 58.7757 38.568 63.406 40.1069C64.9304 40.6132 66.3902 41.2688 67.6436 42.3091C67.9516 42.5645 68.2211 42.8538 68.4505 43.1816C69.1219 44.1404 69.1326 45.1453 68.4736 46.1594C67.6621 47.409 66.6797 48.5263 65.725 49.6635C64.5239 51.0963 63.2766 52.4951 62.3804 54.1526C62.0555 54.7527 61.7968 55.3806 61.7291 56.067C61.5905 57.4689 62.2988 58.4292 63.3829 59.1879C64.6964 60.1081 66.1977 60.5821 67.7191 60.9976C69.744 61.5501 71.8335 61.8086 73.8707 62.3088C75.6246 62.7397 77.3046 63.3522 78.7674 64.4417C80.0886 65.4251 80.7815 66.707 80.4982 68.3967C80.335 69.3663 79.8607 70.2019 79.3094 70.9944C78.076 72.7657 76.4299 74.1107 74.7223 75.3865C71.4932 77.798 67.9331 79.6385 64.3083 81.3621C63.4537 81.7684 62.5745 82.1269 61.706 82.504C61.6044 82.547 61.5074 82.6225 61.318 82.5763C61.8446 82.207 62.3312 81.8653 62.8178 81.5252C65.5079 79.6477 68.1856 77.7533 70.6602 75.5927C72.1353 74.3031 73.609 73.0058 74.7115 71.3576C75.0318 70.8775 75.312 70.3758 75.4429 69.8033C75.6092 69.0739 75.3936 68.5306 74.7515 68.1305C73.9323 67.618 73.0146 67.3811 72.0753 67.2364C69.9595 66.9101 67.8253 66.7993 65.6896 66.6808C63.1596 66.5423 60.6266 66.4315 58.1243 65.996C56.9233 65.7867 55.7468 65.482 54.6658 64.8911C53.8405 64.4402 53.2307 63.8123 53.1352 62.8228C53.069 62.1411 53.2677 61.5055 53.5418 60.893C54.2332 59.3464 55.2679 58.0245 56.295 56.6964C57.7286 54.8435 59.253 53.0584 60.4803 51.0516C61.1917 49.8882 61.7984 48.6832 61.9678 47.3013C62.1171 46.0794 61.7506 45.0299 60.9499 44.1158C59.4547 42.4106 57.533 41.4073 55.3896 40.7902C53.0675 40.1223 50.69 39.7883 48.2848 39.6144C45.6886 39.4267 43.0893 39.4159 40.4885 39.4144C40.3561 39.4144 40.2175 39.4528 40.0451 39.359Z" fill="#1AACE1"/>
<path d="M74.1001 25.9474C73.0669 25.7304 72.0352 25.4996 70.9974 25.3011C68.3488 24.7932 65.6788 24.6039 62.981 24.7655C58.3553 25.041 53.9406 26.1659 49.783 28.185C42.8937 31.5291 37.4258 36.429 33.7687 43.2217C32.1395 46.2488 31.1063 49.482 30.5427 52.8723C30.2347 54.7328 30.0823 56.6041 30.1269 58.4847C30.2255 62.5505 31.0986 66.4624 32.5814 70.242C34.2229 74.4247 36.5758 78.1566 39.6755 81.4191C40.8165 82.6195 42.0822 83.6782 43.3187 84.7709C43.5128 84.9417 43.639 84.8955 43.8099 84.777C44.3797 84.3769 44.8432 83.8583 45.3467 83.3874C48.8175 80.1372 51.7601 76.4761 53.9667 72.2472C54.6443 70.9483 55.2248 69.6079 55.773 68.1675C55.853 68.5168 55.8946 68.8 55.9855 69.0678C56.1964 69.6941 56.5706 70.225 57.0079 70.7144C57.8086 71.6116 57.9349 72.3903 57.3913 73.4506C54.1608 79.7509 49.4781 84.6324 43.1863 87.9395C40.8796 89.1521 38.4775 90.1109 35.9367 90.7126C35.7412 90.7588 35.5502 90.7972 35.3008 90.7588C35.4548 90.5572 35.6134 90.4402 35.7874 90.3387C36.6004 89.86 37.4135 89.3814 38.2265 88.9028C38.402 88.7997 38.5252 88.7074 38.3004 88.5073C35.0914 85.6542 32.566 82.2732 30.5458 78.4998C28.7303 75.1096 27.4538 71.527 26.7331 67.7489C26.4098 66.053 26.2373 64.3387 26.148 62.6151C25.6799 53.6217 28.1236 45.507 33.4915 38.2757C38.5175 31.5044 45.185 27.1616 53.3 24.9871C55.425 24.4177 57.5915 24.0899 59.7889 23.9345C61.5936 23.8068 63.3983 23.8022 65.1983 23.9514C68.2734 24.2054 71.2714 24.8471 74.1925 25.8412C74.2172 25.8489 74.2372 25.8659 74.2603 25.8782C74.2572 26.0213 74.1725 25.972 74.0971 25.9474H74.1001Z" fill="#030304"/>
<path d="M85.4089 77.5287C85.9647 76.6208 86.5622 75.7451 87.1027 74.8325C88.9274 71.7578 90.167 68.4645 90.632 64.9219C91.4219 58.8925 90.5042 53.1369 87.597 47.7538C85.8569 44.5344 83.4902 41.8259 80.6785 39.5006C80.3366 39.2175 80.2181 38.9774 80.3212 38.5296C80.6985 36.8983 80.3982 35.3302 79.7777 33.8051C79.7438 33.722 79.7114 33.6389 79.6791 33.5558C79.676 33.5466 79.6853 33.5343 79.7038 33.4681C83.521 35.8195 86.576 38.9004 88.9258 42.6908C91.2772 46.4858 92.6954 50.6023 93.1158 55.0452C93.7209 61.4301 92.3566 67.3796 89.0444 72.8751C88.022 74.5709 86.827 76.1391 85.4089 77.5287Z" fill="#1AACE1"/>
<path d="M72.719 41.6474C70.149 41.6474 68.1302 39.6222 68.1087 37.0691C68.0871 34.5391 70.3445 32.3831 72.8745 32.4601C75.3105 32.5339 77.3323 34.5668 77.3308 37.0891C77.3308 39.6591 75.3182 41.6474 72.719 41.6474Z" fill="#030304"/>
<path d="M80.6738 42.2321C81.0372 42.9646 81.2621 43.7264 81.4576 44.4943C81.9134 46.2779 82.2553 48.08 82.2168 49.9329C82.1937 50.9993 82.0997 52.0566 81.4807 52.9722C80.6846 54.1495 79.5097 54.4434 78.1824 54.2664C75.8695 53.9571 73.8616 52.883 71.8952 51.7149C71.4594 51.4564 71.3717 51.0393 71.5395 50.3437C71.692 49.7159 71.9568 49.1172 71.9922 48.4555C72.0076 48.1693 71.9522 47.8984 71.9445 47.6199C71.9414 47.5168 71.8136 47.3875 71.9476 47.3182C72.0646 47.2567 72.1462 47.4029 72.2324 47.4706C73.067 48.1246 73.8924 48.7956 74.7732 49.3865C75.791 50.0683 76.8289 50.7131 78.0299 51.0378C79.3311 51.3902 80.0702 51.027 80.5722 49.7774C80.8032 49.2049 80.9233 48.6002 80.9572 47.9907C81.0557 46.2025 81.0095 44.4174 80.6785 42.6492C80.6538 42.5138 80.6754 42.3706 80.6754 42.2306L80.6738 42.2321Z" fill="#030304"/>
<path d="M38.3112 41.5781C40.7303 41.3335 43.1509 41.0888 45.5854 41.1873C47.6026 41.2688 49.6136 41.4489 51.5461 42.0937C52.4023 42.3799 53.1968 42.797 53.8081 43.4787C54.7613 44.5421 54.8275 45.7609 54.3825 47.0582C53.919 48.4063 53.089 49.5374 52.2529 50.6654C51.0826 52.2459 49.8123 53.7556 48.836 55.473C47.9922 56.958 47.4132 58.517 47.4871 60.2621C47.5102 60.8146 47.6118 61.3501 47.7581 61.8795C47.7827 61.9672 47.8212 62.0457 47.7227 62.1657C47.233 61.6333 46.9466 61.0115 46.808 60.3267C46.4369 58.5 46.8342 56.7841 47.6134 55.1329C48.3817 53.5047 49.5043 52.1043 50.5113 50.63C51.272 49.5159 52.0635 48.4171 52.4377 47.089C52.8396 45.6624 52.4007 44.4421 51.1673 43.6295C49.9955 42.857 48.6728 42.4984 47.3131 42.243C46.132 42.0213 44.9325 41.9321 43.7422 41.7813C43.6544 41.7705 43.5636 41.7844 43.4743 41.7874C43.3264 41.8782 43.1663 41.909 42.9969 41.8798C42.5149 41.7967 42.0268 41.8659 41.5464 41.8182C40.5101 41.7151 39.4738 41.6182 38.4298 41.6597C38.3759 41.6612 38.3358 41.6274 38.3127 41.5781H38.3112Z" fill="#030304"/>
<path d="M38.3113 41.5781C38.5207 41.6597 38.7393 41.6366 38.9565 41.6366C40.464 41.6335 41.9699 41.6859 43.4743 41.789C42.3195 43.1417 41.1569 44.4851 40.196 45.9917C38.0464 49.3604 36.6529 53.0061 36.0939 56.9688C35.9184 58.2107 35.8398 59.4572 35.7536 60.7022C35.093 53.8325 36.7037 47.5199 40.5286 41.6889C39.7818 41.6889 39.1197 41.6889 38.4591 41.6889C38.3821 41.6889 38.3051 41.6936 38.2281 41.6859C38.145 41.6782 38.1557 41.6289 38.205 41.592C38.2297 41.5735 38.2758 41.5812 38.3113 41.5766V41.5781Z" fill="#1AACE1"/>
<path d="M66.0961 53.6309C66.0376 54.0418 65.9483 54.4035 65.9883 54.7774C66.0669 55.4961 66.4734 56.0024 67.0508 56.3887C68.2981 57.2227 69.7101 57.6321 71.1591 57.9214C72.7883 58.2461 74.4467 58.4246 76.0389 58.9279C77.8666 59.505 79.5805 60.2913 80.894 61.7456C81.4745 62.3889 81.9072 63.126 82.0843 63.9909C82.1228 64.1817 82.1181 64.3695 82.0935 64.5618C82.0565 64.5618 82.0165 64.5695 82.0119 64.5618C81.1219 62.8644 79.6328 61.8487 77.9714 61.0469C76.0435 60.1159 73.9847 59.5988 71.8844 59.2403C70.383 58.9833 68.8801 58.7278 67.485 58.0768C66.7475 57.7337 66.0669 57.3135 65.6419 56.5718C65.0952 55.6177 65.2738 54.3111 66.0961 53.6325V53.6309Z" fill="#1AACE1"/>
<path d="M51.6556 85.2341C55.6514 82.1085 58.6618 78.1566 61.2318 73.8353C61.8847 72.7381 62.5037 71.6209 63.1428 70.5036C63.2968 71.7532 61.027 76.4931 58.9991 79.083C56.9957 81.6407 54.5859 83.7383 51.7279 85.3049C51.6479 85.3387 51.6371 85.3018 51.6571 85.2341H51.6556Z" fill="#1AACE1"/>
<path d="M92.1179 76.5438C92.0687 76.787 91.9439 76.9378 91.8208 77.0763C90.4133 78.6491 89.1153 80.3203 87.6247 81.8192C86.9287 82.5194 86.1434 83.1104 85.2456 83.5397C85.1887 83.5674 85.1317 83.592 85.0716 83.6105C85.0501 83.6167 85.0224 83.6013 84.9485 83.5844C85.124 83.4258 85.2626 83.2627 85.435 83.1488C86.8394 82.224 87.8818 80.9528 88.872 79.6232C89.5587 78.7014 90.2301 77.7626 91.1217 77.0147C91.4019 76.7793 91.7099 76.6223 92.1179 76.5438Z" fill="#040506"/>
<path d="M52.9458 54.3126C53.4924 54.3096 53.9005 54.7251 53.9005 55.2852C53.9005 55.8254 53.5001 56.2486 52.9781 56.2563C52.4361 56.2655 51.9557 55.8054 51.9588 55.2791C51.9618 54.7574 52.4145 54.3142 52.9458 54.3111V54.3126Z" fill="#040405"/>
<path d="M54.3394 51.7411C54.3425 51.1886 54.7598 50.7747 55.3034 50.7808C55.8408 50.787 56.2904 51.2287 56.2827 51.7442C56.275 52.2751 55.8392 52.6952 55.2941 52.6952C54.7275 52.6952 54.3348 52.3044 54.3394 51.7411Z" fill="#040405"/>
<path d="M58.4954 48.5633C58.4954 49.122 58.0843 49.5375 57.5438 49.5298C56.9848 49.5205 56.5921 49.1189 56.5891 48.5526C56.586 47.9801 56.9679 47.603 57.5499 47.6092C58.1428 47.6154 58.4969 47.9724 58.4954 48.5633Z" fill="#040405"/>
<path d="M50.5099 58.2123C51.0565 58.2215 51.5046 58.6647 51.4892 59.1787C51.4738 59.7004 51.0165 60.1113 50.4637 60.1021C49.9371 60.0928 49.5059 59.6635 49.509 59.1526C49.5121 58.6263 49.9617 58.203 50.5099 58.2138V58.2123Z" fill="#040405"/>
<path d="M57.6485 44.9961C57.6547 45.4747 57.2974 45.861 56.8355 45.8748C56.3689 45.8887 55.9578 45.4793 55.9593 45.0053C55.9624 44.539 56.3427 44.1543 56.8047 44.1528C57.2774 44.1512 57.6408 44.516 57.647 44.9976L57.6485 44.9961Z" fill="#040405"/>
<path d="M50.5406 62.2504C50.9441 62.2565 51.289 62.61 51.2828 63.0142C51.2767 63.4399 50.9179 63.7964 50.5068 63.7857C50.1234 63.7749 49.7415 63.3969 49.7399 63.0234C49.7399 62.6423 50.1511 62.2427 50.5391 62.2504H50.5406Z" fill="#060607"/>
<path d="M85.9554 81.9131C87.1396 80.7882 87.8618 79.2601 89.183 78.2536C88.316 79.6263 87.4876 81.0298 86.0509 81.9208C86.0155 81.9578 85.9832 81.9547 85.9554 81.9131Z" fill="#0B0B0E"/>
<path d="M52.4931 66.0894C52.4993 66.472 52.3438 66.6396 51.9835 66.6365C51.6955 66.6349 51.4861 66.5443 51.483 66.2046C51.4799 65.8173 51.6601 65.5745 51.9773 65.5637C52.2791 65.553 52.4885 65.7666 52.4931 66.0878V66.0894Z" fill="#060708"/>
<path d="M85.9554 81.913C85.9878 81.9161 86.0201 81.9192 86.0509 81.9207C85.9215 82.0145 85.8923 82.2373 85.6382 82.2173C85.6952 82.0437 85.7768 81.933 85.9554 81.913Z" fill="#12141A"/>
<path d="M51.6555 85.234C51.6786 85.2571 51.7032 85.2817 51.7263 85.3047C51.6647 85.3877 51.5754 85.4184 51.4738 85.443C51.4537 85.2986 51.5723 85.2817 51.6555 85.234Z" fill="#83C4E9"/>
<path d="M74.1002 25.9473C74.1541 25.9243 74.208 25.9012 74.2634 25.8782C74.3373 25.8905 74.4297 25.975 74.3974 25.995C74.3065 26.0503 74.1895 26.0334 74.1002 25.9473Z" fill="#373840"/>
</svg>
