<svg width="128" height="128" viewBox="0 0 128 128" fill="none" xmlns="http://www.w3.org/2000/svg">
<path d="M54.0161 36.0828V76.6521L49.9656 36.9926C42.4712 38.812 35.5617 42.5159 29.9301 47.736L37.2512 65.9088L26.2478 51.6564C14.6597 63.9377 16.9557 84.9263 16.9557 84.9263C19.5116 89.9081 62.7667 89.215 62.7667 89.215C62.7667 89.215 106.022 89.9081 108.578 84.9263C108.578 84.9263 110.852 63.9377 99.2639 51.6564L88.2606 65.9088L95.5817 47.736C89.9501 42.5159 83.0405 38.812 75.5462 36.9926L71.4957 76.6521V36.0828C71.4957 36.0828 71.4957 29.5632 62.7451 29C54.016 29.5632 54.0161 36.0828 54.0161 36.0828Z" fill="#7ABC25"/>
<path d="M110.549 86.7457C110.549 86.7457 104.44 91.0344 61.4452 91.0994H57.0266C14.6378 91.0128 17.1071 86.7457 17.1071 86.7457H16.7605C14.7245 86.7457 3.78614 87.0273 3.5912 93.1355C3.39626 99.1136 49.099 99.0053 59.3659 98.9187C71.2572 99.0053 124.194 99.1136 124 93.1355C123.805 87.0273 112.866 86.7674 110.83 86.7674H110.549V86.7457Z" fill="#7ABC25"/>
</svg>
