<svg width="546" height="498" viewBox="0 0 546 498" fill="none" xmlns="http://www.w3.org/2000/svg">
<path fill-rule="evenodd" clip-rule="evenodd" d="M3.89727 329.674L33.6545 352.333L68.1567 337.892L72.9016 300.792L43.1444 278.133L8.64222 292.574L3.89727 329.674ZM31.837 354.72C32.6897 355.369 33.8241 355.514 34.8128 355.101L69.315 340.66C70.207 340.286 70.8582 339.509 71.0768 338.58C71.1755 338.68 71.2819 338.774 71.3956 338.86L101.153 361.52C101.344 361.665 101.549 361.785 101.763 361.879C101.696 362.073 101.648 362.275 101.621 362.483L96.8764 399.583C96.7404 400.646 97.1819 401.701 98.0347 402.35L127.792 425.009C128.645 425.659 129.779 425.804 130.768 425.39L165.27 410.949C165.6 410.811 165.897 410.617 166.152 410.381C166.339 410.674 166.577 410.936 166.862 411.153L196.619 433.812C196.811 433.958 197.018 434.079 197.233 434.173C197.166 434.367 197.119 434.568 197.092 434.776L192.347 471.876C192.211 472.939 192.653 473.994 193.505 474.643L223.263 497.302C224.115 497.952 225.25 498.097 226.238 497.683L260.741 483.242C261.729 482.828 262.422 481.918 262.558 480.855L267.303 443.755C267.33 443.548 267.334 443.34 267.318 443.136C267.549 443.099 267.778 443.034 268 442.942L302.502 428.501C302.833 428.362 303.131 428.168 303.386 427.932C303.573 428.224 303.812 428.487 304.097 428.704L333.854 451.363C334.706 452.012 335.841 452.157 336.83 451.743L371.332 437.303C372.32 436.889 373.013 435.979 373.149 434.916L377.894 397.816C377.921 397.608 377.925 397.401 377.909 397.197C378.141 397.159 378.37 397.095 378.592 397.002L413.094 382.561C414.083 382.147 414.776 381.237 414.912 380.174L419.657 343.074C419.793 342.011 419.351 340.956 418.499 340.306L388.741 317.647C388.506 317.468 388.25 317.328 387.981 317.226L392.663 280.62C392.69 280.412 392.694 280.205 392.678 280.001C392.909 279.963 393.138 279.899 393.36 279.806L427.862 265.365C428.193 265.227 428.491 265.033 428.746 264.796C428.932 265.089 429.172 265.351 429.456 265.568L459.214 288.227C460.066 288.877 461.201 289.022 462.189 288.608L496.692 274.167C497.68 273.753 498.373 272.843 498.509 271.78L503.254 234.68C503.281 234.472 503.285 234.265 503.269 234.061C503.501 234.024 503.73 233.959 503.952 233.866L538.454 219.425C539.443 219.011 540.136 218.102 540.272 217.038L545.017 179.938C545.153 178.875 544.711 177.82 543.858 177.171L514.101 154.512C513.248 153.862 512.114 153.717 511.125 154.131L476.623 168.572C476.392 168.669 476.176 168.793 475.981 168.94C475.828 168.749 475.652 168.576 475.453 168.424L445.696 145.765C445.402 145.541 445.075 145.377 444.732 145.276C444.738 145.24 444.743 145.205 444.748 145.169L449.493 108.069C449.629 107.005 449.187 105.951 448.334 105.301L418.577 82.6419C417.724 81.9925 416.59 81.8474 415.601 82.2613L381.099 96.7021C380.868 96.7989 380.653 96.9229 380.457 97.0697C380.305 96.8785 380.128 96.7044 379.928 96.5525L350.171 73.8931C349.866 73.6607 349.525 73.4929 349.167 73.3922C349.219 73.2258 349.257 73.0535 349.279 72.877L354.024 35.7768C354.16 34.7137 353.719 33.6588 352.866 33.0095L323.109 10.3501C322.256 9.7008 321.122 9.55571 320.133 9.96955L285.631 24.4104C285.4 24.5071 285.185 24.6309 284.99 24.7773C284.838 24.5869 284.661 24.4135 284.462 24.2621L254.705 1.60273C253.852 0.953405 252.718 0.808317 251.729 1.22216L217.227 15.663C216.238 16.0768 215.546 16.9867 215.41 18.0498L210.665 55.15C210.642 55.3257 210.636 55.5013 210.644 55.6748C210.271 55.6818 209.897 55.7583 209.542 55.907L175.04 70.3478C174.051 70.7616 173.359 71.6715 173.223 72.7346L168.478 109.835C168.342 110.898 168.783 111.953 169.636 112.602L199.393 135.261C199.687 135.485 200.014 135.649 200.358 135.751C200.352 135.786 200.347 135.822 200.342 135.857L195.606 172.89C195.323 172.921 195.043 172.992 194.773 173.105L160.271 187.546C160.04 187.643 159.825 187.766 159.63 187.913C159.478 187.722 159.301 187.549 159.102 187.398L129.345 164.738C128.492 164.089 127.358 163.944 126.369 164.358L91.8672 178.799C90.8786 179.212 90.1857 180.122 90.0498 181.185L85.3048 218.285C85.2823 218.461 85.2757 218.637 85.284 218.81C84.9112 218.817 84.5374 218.894 84.1824 219.042L49.6802 233.483C48.6915 233.897 47.9987 234.807 47.8627 235.87L43.1178 272.97C43.0153 273.771 43.2406 274.567 43.7226 275.189C43.1486 275.076 42.5441 275.132 41.9861 275.365L7.48393 289.806C6.49524 290.22 5.80242 291.13 5.66646 292.193L0.921514 329.293C0.785541 330.356 1.22708 331.411 2.07979 332.061L31.837 354.72ZM102.97 359.133L73.2131 336.474L77.958 299.373L112.46 284.933L142.217 307.592L137.472 344.692L102.97 359.133ZM141.617 345.223L171.374 367.882L205.877 353.441L210.622 316.341L180.864 293.682L146.362 308.123L141.617 345.223ZM237.085 417.515L266.842 440.174L301.344 425.733L306.089 388.633L276.332 365.974L241.83 380.415L237.085 417.515ZM252.153 299.705L281.91 322.365L316.412 307.924L321.157 270.824L291.4 248.164L256.898 262.605L252.153 299.705ZM377.434 394.234L347.677 371.575L352.422 334.475L386.924 320.034L416.681 342.693L411.936 379.793L377.434 394.234ZM186.441 250.073L156.684 227.413L161.429 190.313L195.931 175.872L225.689 198.532L220.944 235.632L186.441 250.073ZM168.68 408.766L198.437 431.425L232.939 416.984L237.684 379.884L207.927 357.225L173.425 371.666L168.68 408.766ZM213.504 313.616L183.747 290.957L188.491 253.856L222.994 239.415L252.751 262.075L248.006 299.175L213.504 313.616ZM279.271 362.828L309.028 385.487L343.531 371.047L348.276 333.946L318.518 311.287L284.016 325.728L279.271 362.828ZM118.038 241.325L88.2806 218.666L93.0255 181.566L127.528 167.125L157.285 189.784L152.54 226.885L118.038 241.325ZM46.0935 273.351L75.8508 296.01L110.353 281.569L115.098 244.469L85.3406 221.81L50.8385 236.251L46.0935 273.351ZM225.08 494.916L195.323 472.256L200.068 435.156L234.57 420.715L264.327 443.375L259.582 480.475L225.08 494.916ZM210.39 354.447L240.147 377.106L274.649 362.665L279.394 325.565L249.637 302.906L215.135 317.347L210.39 354.447ZM335.671 448.976L305.914 426.317L310.659 389.217L345.161 374.776L374.918 397.435L370.173 434.535L335.671 448.976ZM99.8521 399.963L129.609 422.623L164.112 408.182L168.856 371.082L139.099 348.422L104.597 362.863L99.8521 399.963ZM144.677 304.813L114.92 282.154L119.665 245.054L154.167 230.613L183.924 253.272L179.179 290.372L144.677 304.813ZM362.445 254.379L392.202 277.039L426.704 262.598L431.449 225.498L401.692 202.838L367.19 217.279L362.445 254.379ZM407.27 159.229L377.513 136.57L382.257 99.4695L416.76 85.0286L446.517 107.688L441.772 144.788L407.27 159.229ZM473.037 208.439L502.794 231.099L537.296 216.658L542.041 179.558L512.284 156.898L477.782 171.339L473.037 208.439ZM296.734 204.747L266.977 182.087L271.722 144.987L306.224 130.546L335.981 153.206L331.237 190.306L296.734 204.747ZM282.044 64.278L311.801 86.9373L346.304 72.4964L351.048 35.3962L321.291 12.7369L286.789 27.1778L282.044 64.278ZM323.797 268.29L294.039 245.63L298.784 208.53L333.287 194.089L363.044 216.749L358.299 253.849L323.797 268.29ZM309.106 127.821L338.864 150.48L373.366 136.039L378.111 98.9393L348.354 76.2799L313.851 90.7208L309.106 127.821ZM434.388 222.352L404.631 199.693L409.376 162.592L443.878 148.152L473.635 170.811L468.89 207.911L434.388 222.352ZM198.573 173.338L228.33 195.997L262.832 181.556L267.577 144.456L237.82 121.797L203.318 136.238L198.573 173.338ZM243.398 78.1899L213.64 55.5306L218.385 18.4304L252.888 3.98953L282.645 26.6489L277.9 63.749L243.398 78.1899ZM171.453 110.215L201.211 132.875L235.713 118.434L240.458 81.3336L210.701 58.6743L176.198 73.1152L171.453 110.215ZM350.44 331.78L320.683 309.121L325.428 272.021L359.93 257.58L389.687 280.239L384.942 317.339L350.44 331.78ZM335.75 191.311L365.507 213.971L400.009 199.53L404.754 162.43L374.997 139.77L340.495 154.211L335.75 191.311ZM461.031 285.841L431.274 263.181L436.019 226.081L470.521 211.64L500.278 234.3L495.533 271.4L461.031 285.841ZM225.212 236.828L254.969 259.487L289.471 245.046L294.216 207.946L264.459 185.287L229.957 199.728L225.212 236.828ZM270.037 141.677L240.28 119.018L245.025 81.918L279.527 67.4771L309.284 90.1365L304.539 127.237L270.037 141.677Z" fill="url(#paint0_linear_1581_8008)"/>
<defs>
<linearGradient id="paint0_linear_1581_8008" x1="427.639" y1="100.317" x2="211.229" y2="322.404" gradientUnits="userSpaceOnUse">
<stop stop-color="white" stop-opacity="0.4"/>
<stop offset="1" stop-color="white" stop-opacity="0.1"/>
</linearGradient>
</defs>
</svg>
