<svg width="467" height="565" viewBox="0 0 467 565" fill="none" xmlns="http://www.w3.org/2000/svg">
<path fill-rule="evenodd" clip-rule="evenodd" d="M226.152 3.00001L195.721 24.7457L199.337 61.9728L233.385 77.4542L263.817 55.7086L260.2 18.4815L226.152 3.00001ZM193.977 22.3048C193.105 22.9279 192.631 23.969 192.735 25.0357L196.351 62.2629C196.445 63.2254 196.995 64.0769 197.819 64.56C197.694 64.6248 197.573 64.6987 197.457 64.7818L167.025 86.5274C166.83 86.6669 166.655 86.8273 166.502 87.0043C166.337 86.883 166.158 86.7777 165.967 86.691L131.919 71.2095C130.944 70.7659 129.805 70.8764 128.933 71.4996L98.5019 93.2452C97.6299 93.8684 97.1566 94.9094 97.2602 95.9762L100.877 133.203C100.911 133.56 101.009 133.901 101.159 134.213C100.825 134.306 100.504 134.457 100.213 134.665L69.7812 156.41C69.5848 156.551 69.4087 156.712 69.2548 156.89C69.0899 156.769 68.9114 156.664 68.721 156.578L34.6731 141.096C33.6974 140.653 32.5592 140.763 31.6872 141.386L1.25584 163.132C0.383808 163.755 -0.0895439 164.796 0.0140932 165.863L3.63071 203.09C3.73435 204.157 4.39923 205.087 5.3749 205.531L39.4228 221.012C39.6134 221.099 39.8101 221.164 40.0099 221.209C39.9771 221.441 39.9713 221.679 39.9946 221.919L43.6112 259.146C43.6459 259.503 43.7434 259.844 43.8943 260.158C43.5595 260.25 43.2383 260.401 42.9469 260.609L12.5156 282.355C11.6436 282.978 11.1702 284.019 11.2739 285.086L14.8905 322.313C14.9941 323.379 15.659 324.31 16.6347 324.754L50.6826 340.235C50.8732 340.322 51.07 340.387 51.2698 340.432C51.2369 340.664 51.2311 340.903 51.2543 341.142L54.8709 378.369C54.9746 379.436 55.6395 380.367 56.6151 380.81L90.6631 396.292C91.6387 396.735 92.777 396.625 93.649 396.002L124.08 374.256C124.321 374.084 124.531 373.881 124.707 373.654L158.302 388.929C158.492 389.016 158.689 389.081 158.889 389.126C158.856 389.358 158.85 389.596 158.873 389.836L162.49 427.063C162.525 427.42 162.622 427.761 162.773 428.075C162.438 428.167 162.117 428.318 161.826 428.526L131.395 450.272C130.522 450.895 130.049 451.936 130.153 453.003L133.769 490.23C133.873 491.296 134.538 492.227 135.514 492.671L169.562 508.152C169.752 508.239 169.949 508.304 170.149 508.349C170.116 508.581 170.11 508.82 170.133 509.059L173.75 546.286C173.853 547.353 174.518 548.283 175.494 548.727L209.542 564.209C210.518 564.652 211.656 564.542 212.528 563.919L242.959 542.173C243.831 541.55 244.305 540.509 244.201 539.442L240.584 502.215C240.56 501.965 240.505 501.723 240.422 501.492C240.649 501.403 240.867 501.286 241.071 501.14L271.502 479.395C271.803 479.18 272.055 478.916 272.254 478.618C272.286 478.634 272.319 478.65 272.351 478.665L306.399 494.146C307.375 494.59 308.513 494.479 309.385 493.856L339.817 472.11C340.689 471.487 341.162 470.446 341.058 469.379L337.442 432.152C337.418 431.903 337.363 431.661 337.28 431.43C337.508 431.341 337.726 431.223 337.93 431.078L368.362 409.332C368.674 409.109 368.935 408.832 369.137 408.52C369.28 408.619 369.434 408.706 369.596 408.78L403.644 424.261C404.619 424.705 405.757 424.594 406.629 423.971L437.061 402.226C437.933 401.602 438.406 400.561 438.303 399.495L434.686 362.268C434.662 362.018 434.607 361.777 434.525 361.547C434.751 361.458 434.969 361.34 435.172 361.195L465.604 339.449C466.476 338.826 466.949 337.785 466.846 336.718L463.229 299.491C463.125 298.424 462.46 297.494 461.485 297.05L427.437 281.569C427.275 281.496 427.11 281.437 426.941 281.394C427.045 281.036 427.082 280.656 427.045 280.273L423.428 243.046C423.324 241.979 422.66 241.049 421.684 240.605L387.636 225.124C386.66 224.68 385.522 224.791 384.65 225.414L354.219 247.159C353.918 247.374 353.665 247.638 353.466 247.936C353.434 247.92 353.402 247.905 353.369 247.89L319.383 232.437C319.437 232.158 319.452 231.869 319.424 231.578L315.807 194.351C315.783 194.101 315.728 193.86 315.646 193.63C315.872 193.541 316.09 193.423 316.294 193.278L346.725 171.532C347.597 170.909 348.07 169.868 347.967 168.801L344.35 131.574C344.246 130.507 343.581 129.577 342.606 129.133L308.558 113.652C308.397 113.579 308.231 113.52 308.063 113.477C308.166 113.119 308.203 112.739 308.166 112.356L304.549 75.1289C304.446 74.0621 303.781 73.1317 302.805 72.688L268.757 57.2066C268.022 56.8724 267.195 56.8527 266.459 57.1297C266.736 56.6145 266.861 56.0206 266.803 55.4185L263.186 18.1914C263.082 17.1246 262.417 16.1942 261.442 15.7505L227.394 0.269071C226.418 -0.174564 225.28 -0.0639813 224.408 0.559155L193.977 22.3048ZM168.77 88.9683L199.201 67.2227L233.249 82.7041L236.865 119.931L206.434 141.677L172.386 126.195L168.77 88.9683ZM170.656 129.999L140.225 151.745L143.841 188.972L177.889 204.453L208.321 182.708L204.704 145.48L170.656 129.999ZM73.4118 199.883L42.9805 221.628L46.5971 258.856L80.6451 274.337L111.076 252.591L107.46 215.364L73.4118 199.883ZM181.529 249.044L151.098 270.79L154.714 308.017L188.762 323.498L219.194 301.753L215.577 264.525L181.529 249.044ZM54.2403 340.852L84.6716 319.106L118.72 334.588L122.336 371.815L91.9048 393.561L57.8569 378.079L54.2403 340.852ZM248.342 200.905L278.773 179.159L312.821 194.641L316.438 231.868L286.006 253.613L251.958 238.132L248.342 200.905ZM101.957 137.105L71.5254 158.851L75.142 196.078L109.19 211.56L139.621 189.814L136.005 152.587L101.957 137.105ZM179.643 208.011L210.074 186.266L244.122 201.747L247.738 238.974L217.307 260.72L183.259 245.238L179.643 208.011ZM113.215 256.328L82.7832 278.074L86.3999 315.301L120.448 330.782L150.879 309.037L147.262 271.81L113.215 256.328ZM276.885 138.128L307.316 116.383L341.364 131.864L344.981 169.091L314.549 190.837L280.501 175.356L276.885 138.128ZM267.515 59.9375L237.084 81.6831L240.701 118.91L274.749 134.392L305.18 112.646L301.563 75.419L267.515 59.9375ZM3.00003 165.573L33.4313 143.827L67.4793 159.309L71.0959 196.536L40.6646 218.281L6.61665 202.8L3.00003 165.573ZM141.549 192.987L111.117 214.733L114.734 251.96L148.782 267.442L179.213 245.696L175.596 208.469L141.549 192.987ZM14.2598 284.795L44.6911 263.05L78.739 278.531L82.3557 315.758L51.9244 337.504L17.8764 322.023L14.2598 284.795ZM130.677 73.9404L100.246 95.6861L103.863 132.913L137.911 148.395L168.342 126.649L164.725 89.4219L130.677 73.9404ZM208.363 144.847L238.795 123.102L272.843 138.583L276.459 175.81L246.028 197.556L211.98 182.074L208.363 144.847ZM192.291 367.8L161.859 389.545L165.476 426.773L199.524 442.254L229.955 420.508L226.339 383.281L192.291 367.8ZM269.977 438.707L300.408 416.961L334.456 432.442L338.072 469.67L307.641 491.415L273.593 475.934L269.977 438.707ZM203.55 487.023L173.119 508.769L176.736 545.996L210.784 561.478L241.215 539.732L237.598 502.505L203.55 487.023ZM259.104 319.662L289.535 297.916L323.583 313.398L327.199 350.625L296.768 372.37L262.72 356.889L259.104 319.662ZM397.652 347.076L367.221 368.822L370.837 406.049L404.885 421.53L435.317 399.785L431.7 362.558L397.652 347.076ZM190.404 326.768L220.836 305.022L254.884 320.504L258.5 357.731L228.069 379.477L194.021 363.995L190.404 326.768ZM328.953 354.183L298.522 375.928L302.138 413.155L336.186 428.637L366.617 406.891L363.001 369.664L328.953 354.183ZM201.662 445.991L232.093 424.245L266.141 439.727L269.758 476.954L239.327 498.699L205.279 483.218L201.662 445.991ZM318.08 235.14L287.648 256.885L291.265 294.112L325.313 309.594L355.744 287.848L352.128 250.621L318.08 235.14ZM395.764 306.045L426.195 284.3L460.243 299.781L463.86 337.008L433.428 358.754L399.38 343.273L395.764 306.045ZM386.394 227.855L355.963 249.6L359.58 286.827L393.627 302.309L424.059 280.563L420.442 243.336L386.394 227.855ZM121.879 333.49L152.31 311.744L186.358 327.226L189.975 364.453L159.543 386.198L125.496 370.717L121.879 333.49ZM260.427 360.904L229.996 382.65L233.613 419.877L267.661 435.359L298.092 413.613L294.475 376.386L260.427 360.904ZM133.139 452.712L163.57 430.967L197.618 446.448L201.235 483.675L170.803 505.421L136.755 489.94L133.139 452.712ZM249.556 241.857L219.125 263.603L222.742 300.83L256.79 316.312L287.221 294.566L283.604 257.339L249.556 241.857ZM327.242 312.764L357.674 291.019L391.721 306.5L395.338 343.727L364.907 365.473L330.859 349.991L327.242 312.764Z" fill="url(#paint0_linear_1564_7968)"/>
<defs>
<linearGradient id="paint0_linear_1564_7968" x1="99.9413" y1="97.8311" x2="270.941" y2="396.331" gradientUnits="userSpaceOnUse">
<stop stop-color="#FF6600" stop-opacity="0.4"/>
<stop offset="1" stop-color="#FF6600" stop-opacity="0.1"/>
</linearGradient>
</defs>
</svg>
