<svg width="546" height="498" viewBox="0 0 546 498" fill="none" xmlns="http://www.w3.org/2000/svg">
<path fill-rule="evenodd" clip-rule="evenodd" d="M3.97735 328.986L33.7346 351.646L68.2367 337.205L72.9817 300.105L43.2245 277.445L8.72229 291.886L3.97735 328.986ZM31.9171 354.032C32.7698 354.682 33.9042 354.827 34.8929 354.413L69.395 339.972C70.2871 339.599 70.9383 338.822 71.1569 337.892C71.2556 337.992 71.362 338.086 71.4757 338.173L101.233 360.832C101.424 360.978 101.629 361.098 101.843 361.192C101.776 361.385 101.728 361.587 101.701 361.795L96.9565 398.895C96.8205 399.958 97.262 401.013 98.1147 401.663L127.872 424.322C128.725 424.971 129.859 425.116 130.848 424.703L165.35 410.262C165.68 410.123 165.977 409.93 166.232 409.694C166.419 409.986 166.657 410.248 166.942 410.465L196.699 433.124C196.891 433.271 197.098 433.391 197.313 433.486C197.246 433.679 197.199 433.881 197.172 434.088L192.427 471.188C192.291 472.251 192.733 473.306 193.586 473.956L223.343 496.615C224.196 497.264 225.33 497.409 226.319 496.995L260.821 482.555C261.809 482.141 262.502 481.231 262.638 480.168L267.383 443.068C267.41 442.86 267.414 442.653 267.398 442.449C267.63 442.411 267.859 442.347 268.08 442.254L302.582 427.813C302.913 427.675 303.211 427.481 303.466 427.244C303.653 427.537 303.892 427.799 304.177 428.016L333.934 450.675C334.787 451.325 335.921 451.47 336.91 451.056L371.412 436.615C372.4 436.201 373.093 435.291 373.229 434.228L377.974 397.128C378.001 396.92 378.005 396.713 377.989 396.509C378.221 396.472 378.45 396.407 378.672 396.314L413.174 381.873C414.163 381.459 414.856 380.55 414.992 379.487L419.737 342.386C419.873 341.323 419.431 340.268 418.579 339.619L388.821 316.96C388.586 316.781 388.33 316.64 388.061 316.539L392.743 279.932C392.77 279.725 392.774 279.517 392.758 279.313C392.989 279.276 393.219 279.211 393.44 279.118L427.942 264.678C428.273 264.539 428.571 264.345 428.826 264.108C429.013 264.401 429.252 264.664 429.537 264.88L459.294 287.54C460.146 288.189 461.281 288.334 462.27 287.92L496.772 273.48C497.76 273.066 498.453 272.156 498.589 271.093L503.334 233.993C503.361 233.785 503.365 233.578 503.349 233.373C503.581 233.336 503.81 233.272 504.032 233.179L538.534 218.738C539.523 218.324 540.216 217.414 540.352 216.351L545.097 179.251C545.233 178.188 544.791 177.133 543.938 176.483L514.181 153.824C513.329 153.175 512.194 153.03 511.205 153.444L476.703 167.884C476.472 167.981 476.256 168.105 476.061 168.252C475.909 168.062 475.732 167.888 475.533 167.737L445.776 145.077C445.482 144.854 445.155 144.69 444.812 144.588C444.818 144.553 444.823 144.517 444.828 144.481L449.573 107.381C449.709 106.318 449.267 105.263 448.414 104.614L418.657 81.9543C417.804 81.305 416.67 81.1599 415.681 81.5738L381.179 96.0146C380.948 96.1114 380.733 96.2354 380.537 96.3822C380.385 96.191 380.208 96.0169 380.008 95.865L350.251 73.2057C349.946 72.9732 349.605 72.8055 349.247 72.7047C349.299 72.5383 349.337 72.366 349.359 72.1895L354.104 35.0893C354.24 34.0262 353.799 32.9713 352.946 32.322L323.189 9.66263C322.336 9.01331 321.202 8.86822 320.213 9.28206L285.711 23.7229C285.48 23.8196 285.265 23.9434 285.07 24.0898C284.918 23.8994 284.741 23.726 284.542 23.5746L254.785 0.91524C253.932 0.265913 252.798 0.120825 251.809 0.534668L217.307 14.9755C216.319 15.3893 215.626 16.2992 215.49 17.3623L210.745 54.4625C210.722 54.6382 210.716 54.8138 210.724 54.9873C210.351 54.9943 209.977 55.0709 209.622 55.2195L175.12 69.6603C174.132 70.0741 173.439 70.984 173.303 72.0471L168.558 109.147C168.422 110.21 168.863 111.265 169.716 111.915L199.473 134.574C199.767 134.798 200.094 134.962 200.438 135.063C200.432 135.099 200.427 135.134 200.422 135.17L195.686 172.203C195.403 172.233 195.123 172.305 194.853 172.418L160.351 186.858C160.12 186.955 159.905 187.079 159.71 187.225C159.558 187.035 159.381 186.862 159.182 186.71L129.425 164.051C128.573 163.401 127.438 163.256 126.45 163.67L91.9473 178.111C90.9587 178.525 90.2658 179.435 90.1299 180.498L85.3849 217.598C85.3624 217.774 85.3557 217.949 85.3641 218.123C84.9913 218.13 84.6175 218.206 84.2624 218.355L49.7603 232.796C48.7716 233.21 48.0788 234.119 47.9428 235.183L43.1979 272.283C43.0954 273.084 43.3207 273.88 43.8026 274.502C43.2286 274.389 42.6242 274.444 42.0662 274.678L7.56401 289.119C6.57533 289.533 5.88251 290.442 5.74654 291.506L1.00159 328.606C0.865618 329.669 1.30716 330.724 2.15987 331.373L31.9171 354.032ZM103.05 358.445L73.2931 335.786L78.0381 298.686L112.54 284.245L142.297 306.904L137.553 344.005L103.05 358.445ZM141.697 344.535L171.455 367.195L205.957 352.754L210.702 315.654L180.944 292.994L146.442 307.435L141.697 344.535ZM237.165 416.827L266.922 439.487L301.424 425.046L306.169 387.946L276.412 365.286L241.91 379.727L237.165 416.827ZM252.233 299.018L281.99 321.677L316.492 307.236L321.237 270.136L291.48 247.477L256.978 261.918L252.233 299.018ZM377.514 393.547L347.757 370.887L352.502 333.787L387.004 319.346L416.761 342.006L412.016 379.106L377.514 393.547ZM186.522 249.385L156.764 226.726L161.509 189.626L196.011 175.185L225.769 197.844L221.024 234.944L186.522 249.385ZM168.76 408.078L198.517 430.738L233.019 416.297L237.764 379.197L208.007 356.537L173.505 370.978L168.76 408.078ZM213.584 312.928L183.827 290.269L188.572 253.169L223.074 238.728L252.831 261.387L248.086 298.487L213.584 312.928ZM279.351 362.141L309.109 384.8L343.611 370.359L348.356 333.259L318.598 310.6L284.096 325.04L279.351 362.141ZM118.118 240.638L88.3607 217.979L93.1056 180.878L127.608 166.438L157.365 189.097L152.62 226.197L118.118 240.638ZM46.1736 272.663L75.9308 295.323L110.433 280.882L115.178 243.782L85.4207 221.122L50.9186 235.563L46.1736 272.663ZM225.16 494.228L195.403 471.569L200.148 434.469L234.65 420.028L264.407 442.687L259.662 479.787L225.16 494.228ZM210.47 353.759L240.227 376.419L274.729 361.978L279.474 324.878L249.717 302.218L215.215 316.659L210.47 353.759ZM335.751 448.289L305.994 425.629L310.739 388.529L345.241 374.088L374.998 396.748L370.253 433.848L335.751 448.289ZM99.9322 399.276L129.689 421.935L164.192 407.494L168.937 370.394L139.179 347.735L104.677 362.176L99.9322 399.276ZM144.757 304.126L115 281.466L119.745 244.366L154.247 229.925L184.004 252.585L179.26 289.685L144.757 304.126ZM362.525 253.692L392.282 276.351L426.784 261.91L431.529 224.81L401.772 202.151L367.27 216.592L362.525 253.692ZM407.35 158.541L377.593 135.882L382.338 98.782L416.84 84.3411L446.597 107L441.852 144.101L407.35 158.541ZM473.117 207.752L502.874 230.411L537.376 215.97L542.121 178.87L512.364 156.211L477.862 170.652L473.117 207.752ZM296.814 204.059L267.057 181.4L271.802 144.3L306.304 129.859L336.062 152.518L331.317 189.618L296.814 204.059ZM282.124 63.5905L311.881 86.2498L346.384 71.8089L351.129 34.7088L321.371 12.0494L286.869 26.4903L282.124 63.5905ZM323.877 267.602L294.12 244.943L298.865 207.843L333.367 193.402L363.124 216.061L358.379 253.161L323.877 267.602ZM309.187 127.133L338.944 149.793L373.446 135.352L378.191 98.2518L348.434 75.5925L313.931 90.0333L309.187 127.133ZM434.468 221.664L404.711 199.005L409.456 161.905L443.958 147.464L473.716 170.123L468.971 207.224L434.468 221.664ZM198.653 172.651L228.41 195.31L262.912 180.869L267.657 143.769L237.9 121.109L203.398 135.55L198.653 172.651ZM243.478 77.5024L213.721 54.8431L218.466 17.7429L252.968 3.30204L282.725 25.9614L277.98 63.0616L243.478 77.5024ZM171.534 109.528L201.291 132.187L235.793 117.746L240.538 80.6462L210.781 57.9868L176.278 72.4277L171.534 109.528ZM350.52 331.093L320.763 308.433L325.508 271.333L360.01 256.892L389.767 279.552L385.022 316.652L350.52 331.093ZM335.83 190.624L365.587 213.283L400.089 198.842L404.834 161.742L375.077 139.083L340.575 153.524L335.83 190.624ZM461.111 285.153L431.354 262.494L436.099 225.394L470.601 210.953L500.358 233.612L495.613 270.712L461.111 285.153ZM225.292 236.14L255.049 258.8L289.552 244.359L294.296 207.259L264.539 184.599L230.037 199.04L225.292 236.14ZM270.117 140.99L240.36 118.331L245.105 81.2305L279.607 66.7896L309.364 89.449L304.619 126.549L270.117 140.99Z" fill="url(#paint0_linear_1564_7968)"/>
<defs>
<linearGradient id="paint0_linear_1564_7968" x1="427.719" y1="99.629" x2="211.309" y2="321.716" gradientUnits="userSpaceOnUse">
<stop stop-color="#FF6600" stop-opacity="0.4"/>
<stop offset="1" stop-color="#FF6600" stop-opacity="0.1"/>
</linearGradient>
</defs>
</svg>
