<svg width="279" height="67" viewBox="0 0 279 67" fill="none" xmlns="http://www.w3.org/2000/svg">
<g clip-path="url(#clip0_732_2337)">
<path d="M82.1177 16.6182C83.5681 13.9804 85.5986 11.9229 88.2093 10.4721C90.82 8.99493 93.7471 8.25635 97.0434 8.25635C101.078 8.25635 104.533 9.31147 107.407 11.4481C110.281 13.5847 112.206 16.4863 113.182 20.1792H104.084C103.399 18.7548 102.449 17.6733 101.21 16.9347C99.9705 16.1961 98.5465 15.8268 96.9643 15.8268C94.4064 15.8268 92.3495 16.7237 90.7672 18.491C89.185 20.2583 88.3939 22.6323 88.3939 25.613C88.3939 28.5938 89.185 30.9678 90.7672 32.7351C92.3495 34.5024 94.4064 35.3993 96.9643 35.3993C98.5465 35.3993 99.9705 35.03 101.21 34.2914C102.449 33.5528 103.425 32.4713 104.084 31.0469H113.182C112.206 34.7398 110.281 37.6414 107.407 39.7516C104.533 41.8619 101.078 42.917 97.0434 42.917C93.7471 42.917 90.7936 42.1784 88.2093 40.7012C85.5986 39.2241 83.5945 37.193 82.1177 34.5815C80.6673 31.9701 79.929 28.9894 79.929 25.613C79.929 22.2367 80.6673 19.256 82.1177 16.6182Z" fill="#333334"/>
<path d="M147.701 8.65186V42.653H139.421V28.6463H126.526V42.653H118.245V8.65186H126.526V21.9727H139.421V8.65186H147.701Z" fill="#333334"/>
<path d="M174.81 36.6389H162.126L160.095 42.653H151.419L163.734 8.65186H173.333L185.648 42.653H176.893L174.863 36.6389H174.81ZM172.7 30.2554L168.481 17.805L164.315 30.2554H172.7Z" fill="#333334"/>
<path d="M194.983 41.7828C193.006 40.9651 191.45 39.778 190.263 38.1954C189.077 36.6127 188.47 34.7135 188.391 32.4714H197.199C197.33 33.7375 197.752 34.6871 198.517 35.3465C199.256 36.006 200.231 36.3489 201.418 36.3489C202.605 36.3489 203.607 36.0588 204.319 35.5048C205.031 34.9509 205.373 34.1595 205.373 33.1572C205.373 32.3131 205.083 31.6273 204.53 31.0733C203.976 30.5194 203.264 30.071 202.446 29.728C201.629 29.3851 200.442 28.9631 198.939 28.5147C196.75 27.8288 194.957 27.1694 193.559 26.4836C192.162 25.7977 190.975 24.7954 189.973 23.4765C188.971 22.1576 188.47 20.4166 188.47 18.28C188.47 15.1147 189.604 12.6351 191.898 10.8414C194.192 9.04773 197.172 8.15088 200.864 8.15088C204.556 8.15088 207.641 9.04773 209.936 10.8414C212.23 12.6351 213.443 15.141 213.627 18.3328H204.661C204.609 17.2249 204.187 16.3808 203.448 15.7477C202.71 15.1147 201.761 14.7981 200.6 14.7981C199.598 14.7981 198.781 15.0619 198.174 15.5895C197.568 16.117 197.251 16.882 197.251 17.8843C197.251 18.9922 197.779 19.8363 198.807 20.443C199.836 21.0497 201.444 21.7091 203.659 22.4214C205.848 23.1599 207.641 23.8721 209.013 24.558C210.384 25.2438 211.571 26.2198 212.573 27.5123C213.575 28.8048 214.076 30.4666 214.076 32.4977C214.076 34.5288 213.575 36.1906 212.599 37.7733C211.623 39.356 210.173 40.6221 208.301 41.5454C206.428 42.495 204.213 42.9434 201.655 42.9434C199.097 42.9434 196.935 42.5477 194.983 41.73V41.7828Z" fill="#333334"/>
<path d="M249.57 42.653H241.29L227.446 21.6826V42.653H219.165V8.65186H227.446L241.29 29.7278V8.65186H249.57V42.653Z" fill="#333334"/>
<path d="M264.391 35.8739H279.026V42.653H255.003V36.3487L269.533 15.4046H255.003V8.62549H279.026V14.9298L264.391 35.8739Z" fill="#333334"/>
<path d="M83.0406 55.763C83.6208 54.7607 84.4119 53.9693 85.414 53.389C86.4161 52.8351 87.55 52.5449 88.7894 52.5449C90.2398 52.5449 91.5319 52.9142 92.6131 53.6528C93.6943 54.3914 94.4854 55.4201 94.9074 56.7654H91.9011C91.6111 56.1323 91.1891 55.6839 90.6353 55.3674C90.0816 55.0508 89.475 54.8926 88.763 54.8926C87.9983 54.8926 87.339 55.0772 86.7325 55.4201C86.1524 55.763 85.6777 56.2642 85.3612 56.9237C85.0448 57.5831 84.8602 58.3217 84.8602 59.1922C84.8602 60.0626 85.0184 60.8012 85.3612 61.4607C85.6777 62.1201 86.1524 62.6213 86.7325 62.9642C87.3127 63.3071 87.9983 63.4918 88.763 63.4918C89.475 63.4918 90.1079 63.3335 90.6353 63.017C91.1891 62.7004 91.6111 62.2256 91.9011 61.6189H94.9074C94.4591 62.9378 93.7207 63.993 92.6131 64.7315C91.5056 65.4701 90.2398 65.8394 88.763 65.8394C87.5236 65.8394 86.3897 65.5493 85.3876 64.9953C84.3855 64.4414 83.5944 63.65 83.0143 62.6213C82.4341 61.6189 82.144 60.4583 82.144 59.1922C82.144 57.926 82.4341 56.7654 83.0143 55.7367L83.0406 55.763Z" fill="#8CB63F"/>
<path d="M99.0738 65.259C98.2827 64.8105 97.6498 64.2038 97.2015 63.3861C96.7532 62.5684 96.5159 61.6452 96.5159 60.5901C96.5159 59.5349 96.7532 58.5853 97.2279 57.794C97.7025 56.9763 98.3354 56.3696 99.1529 55.9212C99.9704 55.4727 100.867 55.2617 101.869 55.2617C102.871 55.2617 103.768 55.4727 104.585 55.9212C105.403 56.3696 106.036 56.9763 106.51 57.794C106.985 58.6117 107.222 59.5349 107.222 60.5901C107.222 61.6452 106.985 62.5684 106.51 63.3861C106.036 64.2038 105.376 64.8105 104.559 65.259C103.741 65.7074 102.818 65.9184 101.816 65.9184C100.814 65.9184 99.9177 65.7074 99.1266 65.259H99.0738ZM103.082 63.2806C103.504 63.0432 103.821 62.7003 104.084 62.2519C104.322 61.8035 104.453 61.2231 104.453 60.5637C104.453 59.5877 104.19 58.8227 103.689 58.2952C103.161 57.7676 102.528 57.5038 101.79 57.5038C101.052 57.5038 100.419 57.7676 99.9177 58.2952C99.4166 58.8227 99.1529 59.5877 99.1529 60.5637C99.1529 61.5397 99.3903 62.3046 99.8913 62.8322C100.392 63.3597 100.999 63.6235 101.737 63.6235C102.212 63.6235 102.66 63.518 103.082 63.2806Z" fill="#8CB63F"/>
<path d="M117.797 56.4223C118.562 57.2137 118.931 58.2952 118.931 59.6932V65.7601H116.32V60.0361C116.32 59.2184 116.109 58.5853 115.714 58.1369C115.292 57.6885 114.738 57.4775 114.026 57.4775C113.314 57.4775 112.734 57.6885 112.312 58.1369C111.89 58.5853 111.679 59.2184 111.679 60.0361V65.7601H109.068V55.42H111.679V56.7125C112.022 56.2641 112.47 55.9212 113.024 55.6574C113.578 55.3936 114.158 55.2617 114.817 55.2617C116.057 55.2617 117.032 55.6574 117.797 56.4223Z" fill="#8CB63F"/>
<path d="M123.097 65.4436C122.438 65.1271 121.884 64.7314 121.489 64.2039C121.093 63.6763 120.882 63.096 120.856 62.4629H123.493C123.546 62.8586 123.73 63.2015 124.073 63.4653C124.416 63.7291 124.838 63.8609 125.339 63.8609C125.84 63.8609 126.236 63.7554 126.499 63.5708C126.789 63.3598 126.921 63.1224 126.921 62.8058C126.921 62.4629 126.763 62.2255 126.42 62.0409C126.077 61.8826 125.524 61.6979 124.785 61.4869C124.02 61.3023 123.388 61.1176 122.886 60.9066C122.385 60.6956 121.964 60.4054 121.621 59.9834C121.278 59.5613 121.093 59.0074 121.093 58.3216C121.093 57.7413 121.252 57.2137 121.594 56.7653C121.911 56.2905 122.385 55.9212 123.018 55.6574C123.625 55.3936 124.363 55.2354 125.207 55.2354C126.446 55.2354 127.422 55.5519 128.161 56.1586C128.899 56.7653 129.295 57.6094 129.374 58.6645H126.868C126.842 58.2424 126.657 57.9259 126.367 57.6885C126.051 57.4511 125.655 57.3192 125.154 57.3192C124.68 57.3192 124.31 57.3983 124.073 57.583C123.809 57.7676 123.678 58.005 123.678 58.3216C123.678 58.6645 123.862 58.9283 124.205 59.1129C124.548 59.2976 125.102 59.4822 125.84 59.6668C126.578 59.8515 127.211 60.0361 127.686 60.2472C128.161 60.4582 128.583 60.7483 128.952 61.1704C129.321 61.5924 129.479 62.1464 129.505 62.8322C129.505 63.4389 129.347 63.9665 129.004 64.4413C128.662 64.9161 128.213 65.2854 127.58 65.5491C126.948 65.8129 126.236 65.9448 125.418 65.9448C124.601 65.9448 123.809 65.7865 123.15 65.4964L123.097 65.4436Z" fill="#8CB63F"/>
<path d="M134.621 57.5566V62.5684C134.621 62.9113 134.7 63.1751 134.885 63.3334C135.07 63.4916 135.333 63.5708 135.729 63.5708H136.942V65.7865H135.307C133.118 65.7865 132.011 64.705 132.011 62.5684V57.583H130.771V55.4464H132.011V52.8877H134.648V55.4464H136.968V57.583H134.648L134.621 57.5566Z" fill="#8CB63F"/>
<path d="M142.77 55.7102C143.324 55.3936 143.93 55.2354 144.616 55.2354V57.9787H143.93C143.113 57.9787 142.48 58.1633 142.058 58.559C141.636 58.9546 141.425 59.6141 141.425 60.5637V65.7074H138.814V55.3672H141.425V56.9763C141.768 56.4224 142.19 56.0003 142.743 55.6838L142.77 55.7102Z" fill="#8CB63F"/>
<path d="M156.14 55.3936V65.7337H153.503V64.4148C153.16 64.8632 152.738 65.2062 152.184 65.4699C151.63 65.7337 151.05 65.8656 150.417 65.8656C149.6 65.8656 148.888 65.7073 148.281 65.3644C147.675 65.0215 147.174 64.5203 146.805 63.8609C146.435 63.2014 146.277 62.4101 146.277 61.4869V55.4199H148.888V61.1176C148.888 61.9353 149.099 62.5684 149.494 63.0168C149.916 63.4652 150.47 63.6762 151.182 63.6762C151.894 63.6762 152.474 63.4652 152.87 63.0168C153.292 62.5684 153.476 61.9353 153.476 61.1176V55.4199H156.113L156.14 55.3936Z" fill="#8CB63F"/>
<path d="M158.698 57.7676C159.146 56.9763 159.726 56.3432 160.517 55.8948C161.282 55.4464 162.179 55.2354 163.181 55.2354C164.473 55.2354 165.528 55.5519 166.371 56.185C167.215 56.818 167.769 57.7149 168.059 58.8755H165.237C165.079 58.4271 164.842 58.0842 164.473 57.8204C164.13 57.5566 163.682 57.4247 163.154 57.4247C162.416 57.4247 161.809 57.6885 161.387 58.2424C160.939 58.7964 160.728 59.5613 160.728 60.5373C160.728 61.5133 160.939 62.2783 161.387 62.8322C161.836 63.3861 162.416 63.6499 163.154 63.6499C164.209 63.6499 164.895 63.1751 165.237 62.2255H168.059C167.769 63.3334 167.215 64.2302 166.371 64.8897C165.528 65.5491 164.473 65.892 163.207 65.892C162.205 65.892 161.335 65.681 160.544 65.2326C159.779 64.7842 159.172 64.1775 158.724 63.3598C158.276 62.5684 158.065 61.6188 158.065 60.5373C158.065 59.4558 158.276 58.5326 158.724 57.7149L158.698 57.7676Z" fill="#8CB63F"/>
<path d="M172.99 57.5566V62.5684C172.99 62.9113 173.07 63.1751 173.254 63.3334C173.412 63.4916 173.702 63.5708 174.098 63.5708H175.311V65.7865H173.676C171.461 65.7865 170.38 64.705 170.38 62.5684V57.583H169.14V55.4464H170.38V52.8877H173.017V55.4464H175.337V57.583H173.017L172.99 57.5566Z" fill="#8CB63F"/>
<path d="M179.24 65.4174C178.502 65.1008 177.948 64.6524 177.5 64.0721C177.078 63.4918 176.867 62.806 176.841 61.9882H179.636C179.662 62.5158 179.873 62.9378 180.216 63.2544C180.559 63.5709 181.034 63.7292 181.614 63.7292C182.194 63.7292 182.695 63.5709 183.064 63.2808C183.407 62.9906 183.591 62.5949 183.591 62.1201C183.591 61.7245 183.486 61.4079 183.249 61.1705C183.011 60.9331 182.721 60.7221 182.352 60.5902C182.009 60.4583 181.508 60.3001 180.875 60.1154C180.031 59.878 179.346 59.6142 178.818 59.3768C178.291 59.1394 177.843 58.7701 177.447 58.2689C177.078 57.7678 176.867 57.1083 176.867 56.2906C176.867 55.5256 177.052 54.8398 177.447 54.2859C177.843 53.7056 178.37 53.2835 179.082 52.967C179.768 52.6504 180.585 52.5186 181.482 52.5186C182.827 52.5186 183.908 52.8351 184.752 53.4945C185.596 54.154 186.044 55.0508 186.149 56.2378H183.275C183.275 55.7894 183.064 55.4201 182.695 55.13C182.352 54.8398 181.877 54.6815 181.297 54.6815C180.796 54.6815 180.374 54.8134 180.084 55.0772C179.794 55.341 179.636 55.7103 179.636 56.2115C179.636 56.5544 179.741 56.8445 179.979 57.0819C180.216 57.3193 180.506 57.504 180.849 57.6359C181.192 57.7678 181.666 57.9524 182.299 58.1371C183.143 58.3745 183.829 58.6382 184.383 58.8756C184.91 59.113 185.385 59.5087 185.754 59.9835C186.149 60.4847 186.334 61.1441 186.334 61.9355C186.334 62.6213 186.149 63.2808 185.78 63.8875C185.411 64.4941 184.884 64.969 184.198 65.3119C183.512 65.6548 182.668 65.8394 181.719 65.8394C180.77 65.8394 180.005 65.6812 179.267 65.3646L179.24 65.4174Z" fill="#8CB63F"/>
<path d="M188.523 57.7413C188.945 56.9235 189.498 56.3169 190.21 55.8684C190.922 55.42 191.714 55.209 192.61 55.209C193.375 55.209 194.061 55.3673 194.641 55.6838C195.221 56.0003 195.696 56.396 196.038 56.8708V55.3936H198.675V65.7338H196.038V64.2302C195.696 64.705 195.247 65.1271 194.641 65.4436C194.061 65.7602 193.375 65.9184 192.584 65.9184C191.714 65.9184 190.922 65.7074 190.21 65.259C189.498 64.8106 188.918 64.1775 188.523 63.3598C188.127 62.5421 187.89 61.6188 187.89 60.5373C187.89 59.4558 188.101 58.559 188.523 57.7413ZM195.669 58.9283C195.432 58.4799 195.089 58.1369 194.667 57.8732C194.245 57.6358 193.797 57.5039 193.296 57.5039C192.795 57.5039 192.373 57.6094 191.951 57.8468C191.529 58.0842 191.213 58.4271 190.949 58.8755C190.685 59.3239 190.58 59.8779 190.58 60.4846C190.58 61.0913 190.712 61.6452 190.949 62.12C191.213 62.5948 191.529 62.9377 191.951 63.2015C192.373 63.4653 192.821 63.5708 193.296 63.5708C193.771 63.5708 194.245 63.4389 194.667 63.2015C195.089 62.9641 195.432 62.6212 195.669 62.1464C195.907 61.698 196.038 61.144 196.038 60.511C196.038 59.8779 195.907 59.3239 195.669 58.8755V58.9283Z" fill="#8CB63F"/>
<path d="M205.98 57.5566H204.16V65.7602H201.497V57.5566H200.31V55.42H201.497V54.8924C201.497 53.6263 201.866 52.6767 202.578 52.0964C203.29 51.4897 204.398 51.2259 205.848 51.2523V53.468C205.215 53.468 204.767 53.5735 204.53 53.7846C204.292 53.9956 204.16 54.4176 204.16 54.998V55.42H205.98V57.5566Z" fill="#8CB63F"/>
<path d="M217.214 61.355H209.645C209.698 62.0936 209.962 62.6739 210.436 63.1224C210.885 63.5444 211.465 63.7554 212.124 63.7554C213.1 63.7554 213.786 63.3334 214.207 62.5157H217.029C216.739 63.518 216.159 64.3357 215.315 64.9688C214.471 65.6019 213.443 65.9184 212.203 65.9184C211.201 65.9184 210.305 65.7074 209.513 65.259C208.722 64.8105 208.116 64.2039 207.668 63.3861C207.219 62.5684 207.008 61.6452 207.008 60.5901C207.008 59.535 207.219 58.5853 207.668 57.7676C208.116 56.9499 208.722 56.3432 209.487 55.8948C210.278 55.4464 211.175 55.2354 212.203 55.2354C213.232 55.2354 214.076 55.4464 214.84 55.8684C215.605 56.2905 216.212 56.8972 216.66 57.6621C217.082 58.4271 217.293 59.3239 217.293 60.3527C217.293 60.722 217.293 61.0649 217.214 61.355ZM214.577 59.6141C214.577 58.9546 214.313 58.4007 213.838 58.005C213.364 57.6094 212.783 57.3983 212.098 57.3983C211.439 57.3983 210.911 57.583 210.463 57.9787C210.015 58.3743 209.751 58.9019 209.645 59.6141H214.55H214.577Z" fill="#8CB63F"/>
<path d="M33.4905 67C51.9869 67 66.9811 52.0015 66.9811 33.5C66.9811 14.9985 51.9869 0 33.4905 0C14.9942 0 0 14.9985 0 33.5C0 52.0015 14.9942 67 33.4905 67Z" fill="#8CB63F"/>
<path d="M33.4907 39.0658C33.4907 39.0658 52.0556 39.1713 53.1368 37.0611C53.1368 37.0611 54.0861 28.4355 49.3921 23.1863C49.2603 23.0544 49.0493 23.0544 48.9438 23.1863L44.7509 28.5674C44.7509 28.5674 44.5927 28.5674 44.6191 28.4883L47.4671 21.4981C47.5198 21.3399 47.4671 21.1816 47.3616 21.0497C46.6232 20.3639 43.7752 17.9635 39.2922 16.7765C39.1076 16.7237 38.9494 16.8556 38.923 17.0402L37.2881 32.8143C37.2881 32.8143 37.209 32.867 37.209 32.8143V16.328C37.209 16.328 37.209 14.1387 35.0466 14.1387H31.8821C29.7197 14.1387 29.7197 16.328 29.7197 16.328V32.8143C29.7197 32.8143 29.6406 32.867 29.6406 32.8143L28.0057 17.0402C28.0057 16.8556 27.8211 16.7501 27.6365 16.7765C23.1535 17.9899 20.3055 20.3639 19.5671 21.0497C19.4352 21.1552 19.4089 21.3399 19.4616 21.4981L22.3096 28.4883C22.3096 28.4883 22.2305 28.6202 22.1778 28.5674L17.9849 23.1863L30.3526 39.0395C32.1986 39.0395 33.438 39.0395 33.438 39.0395L33.4907 39.0658Z" fill="white"/>
<path opacity="0.75" d="M30.4053 39.0393L18.0375 23.1862C17.932 23.0543 17.7211 23.0279 17.5892 23.1862C12.8953 28.4354 13.8446 37.061 13.8446 37.061C14.6621 38.6437 25.1048 38.9866 30.4317 39.0657L30.4053 39.0393Z" fill="white"/>
<path opacity="0.75" d="M13.9236 37.9317C13.9236 37.9317 13.6598 37.8525 13.528 37.8525C12.2886 37.8789 8.30663 38.1427 8.22752 40.5695C8.14841 43.1018 29.0075 43.7084 33.4641 43.6821C33.6223 43.6821 33.7805 43.6821 33.9651 43.6821L31.0644 39.9628C18.1165 39.8045 14.6356 38.301 13.8972 37.9581L13.9236 37.9317Z" fill="white"/>
<path d="M58.7271 40.5431C58.648 38.1427 54.6924 37.8525 53.4266 37.8262C53.2948 37.8262 53.1629 37.8525 53.0311 37.9053C52.2663 38.2746 48.3899 39.9364 33.4905 39.9364C32.6467 39.9364 31.8556 39.9364 31.1172 39.9364L34.0179 43.6557C39.3712 43.6557 58.8062 42.9962 58.7535 40.5431H58.7271Z" fill="white"/>
</g>
<defs>
<clipPath id="clip0_732_2337">
<rect width="279" height="67" fill="white"/>
</clipPath>
</defs>
</svg>
