<svg width="279" height="67" viewBox="0 0 279 67" fill="none" xmlns="http://www.w3.org/2000/svg">
<g clip-path="url(#clip0_681_2121)">
<path d="M82.1177 16.6182C83.5681 13.9804 85.5986 11.9229 88.2093 10.4721C90.82 8.99493 93.7471 8.25635 97.0434 8.25635C101.078 8.25635 104.533 9.31147 107.407 11.4481C110.281 13.5847 112.206 16.4863 113.182 20.1792H104.084C103.399 18.7548 102.449 17.6733 101.21 16.9347C99.9705 16.1961 98.5465 15.8268 96.9643 15.8268C94.4064 15.8268 92.3495 16.7237 90.7672 18.491C89.185 20.2583 88.3939 22.6323 88.3939 25.613C88.3939 28.5938 89.185 30.9678 90.7672 32.7351C92.3495 34.5024 94.4064 35.3993 96.9643 35.3993C98.5465 35.3993 99.9705 35.03 101.21 34.2914C102.449 33.5528 103.425 32.4713 104.084 31.0469H113.182C112.206 34.7398 110.281 37.6414 107.407 39.7516C104.533 41.8619 101.078 42.917 97.0434 42.917C93.7471 42.917 90.7936 42.1784 88.2093 40.7012C85.5986 39.2241 83.5945 37.193 82.1177 34.5815C80.6673 31.9701 79.929 28.9894 79.929 25.613C79.929 22.2367 80.6673 19.256 82.1177 16.6182Z" fill="white"/>
<path d="M147.701 8.65186V42.653H139.421V28.6463H126.526V42.653H118.245V8.65186H126.526V21.9727H139.421V8.65186H147.701Z" fill="white"/>
<path d="M174.81 36.6389H162.126L160.095 42.653H151.419L163.734 8.65186H173.333L185.648 42.653H176.893L174.863 36.6389H174.81ZM172.7 30.2554L168.481 17.805L164.315 30.2554H172.7Z" fill="white"/>
<path d="M194.983 41.7828C193.006 40.9651 191.45 39.778 190.263 38.1954C189.077 36.6127 188.47 34.7135 188.391 32.4714H197.199C197.33 33.7375 197.752 34.6871 198.517 35.3465C199.256 36.006 200.231 36.3489 201.418 36.3489C202.605 36.3489 203.607 36.0588 204.319 35.5048C205.031 34.9509 205.373 34.1595 205.373 33.1572C205.373 32.3131 205.083 31.6273 204.53 31.0733C203.976 30.5194 203.264 30.071 202.446 29.728C201.629 29.3851 200.442 28.9631 198.939 28.5147C196.75 27.8288 194.957 27.1694 193.559 26.4836C192.162 25.7977 190.975 24.7954 189.973 23.4765C188.971 22.1576 188.47 20.4166 188.47 18.28C188.47 15.1147 189.604 12.6351 191.898 10.8414C194.192 9.04773 197.172 8.15088 200.864 8.15088C204.556 8.15088 207.641 9.04773 209.936 10.8414C212.23 12.6351 213.443 15.141 213.627 18.3328H204.661C204.609 17.2249 204.187 16.3808 203.448 15.7477C202.71 15.1147 201.761 14.7981 200.6 14.7981C199.598 14.7981 198.781 15.0619 198.174 15.5895C197.568 16.117 197.251 16.882 197.251 17.8843C197.251 18.9922 197.779 19.8363 198.807 20.443C199.836 21.0497 201.444 21.7091 203.659 22.4214C205.848 23.1599 207.641 23.8721 209.013 24.558C210.384 25.2438 211.571 26.2198 212.573 27.5123C213.575 28.8048 214.076 30.4666 214.076 32.4977C214.076 34.5288 213.575 36.1906 212.599 37.7733C211.623 39.356 210.173 40.6221 208.301 41.5454C206.428 42.495 204.213 42.9434 201.655 42.9434C199.097 42.9434 196.935 42.5477 194.983 41.73V41.7828Z" fill="white"/>
<path d="M249.57 42.653H241.29L227.446 21.6826V42.653H219.165V8.65186H227.446L241.29 29.7278V8.65186H249.57V42.653Z" fill="white"/>
<path d="M264.391 35.8739H279.026V42.653H255.003V36.3487L269.533 15.4046H255.003V8.62549H279.026V14.9298L264.391 35.8739Z" fill="white"/>
<path d="M85.4404 63.6763H89.7388V65.7602H82.8297V52.7295H85.4404V63.7027V63.6763Z" fill="white"/>
<path d="M94.0108 54.8134V58.0842H98.3883V60.1681H94.0108V63.6236H98.9685V65.7602H91.4001V52.7031H98.9685V54.8397H94.0108V54.8134Z" fill="white"/>
<path d="M109.306 63.2543H104.111L103.241 65.7338H100.498L105.192 52.6768H108.225L112.919 65.7338H110.15L109.279 63.2543H109.306ZM108.594 61.1705L106.721 55.7102L104.823 61.1705H108.594Z" fill="white"/>
<path d="M122.86 53.5208C123.889 54.0484 124.706 54.8134 125.26 55.8157C125.814 56.8181 126.104 57.9523 126.104 59.2712C126.104 60.5901 125.814 61.7244 125.26 62.7004C124.706 63.6763 123.889 64.4413 122.86 64.9689C121.832 65.4964 120.619 65.7602 119.247 65.7602H114.685V52.7295H119.247C120.619 52.7295 121.832 52.9933 122.86 53.5208ZM122.333 62.4102C123.071 61.6716 123.44 60.6165 123.44 59.2448C123.44 57.8732 123.071 56.8181 122.333 56.0531C121.594 55.2882 120.54 54.8925 119.168 54.8925H117.322V63.4917H119.168C120.54 63.4917 121.594 63.1224 122.333 62.3838V62.4102Z" fill="white"/>
<path d="M135.202 65.0217C134.173 64.4414 133.382 63.6501 132.776 62.6477C132.169 61.6453 131.879 60.4847 131.879 59.1922C131.879 57.8997 132.169 56.7918 132.776 55.763C133.382 54.7343 134.173 53.943 135.202 53.389C136.23 52.8087 137.338 52.5186 138.551 52.5186C139.764 52.5186 140.898 52.8087 141.926 53.389C142.928 53.9693 143.746 54.7607 144.326 55.763C144.906 56.7654 145.222 57.926 145.222 59.1922C145.222 60.4583 144.932 61.6189 144.326 62.6477C143.719 63.6764 142.928 64.4678 141.9 65.0217C140.871 65.602 139.764 65.8922 138.551 65.8922C137.338 65.8922 136.204 65.602 135.202 65.0217ZM140.634 63.017C141.24 62.6741 141.689 62.1465 142.032 61.4871C142.374 60.8276 142.533 60.0627 142.533 59.1922C142.533 58.3217 142.374 57.5567 142.032 56.8973C141.689 56.2378 141.24 55.7367 140.634 55.3938C140.027 55.0508 139.342 54.8662 138.551 54.8662C137.76 54.8662 137.074 55.0508 136.467 55.3938C135.861 55.7367 135.386 56.2378 135.07 56.8973C134.727 57.5567 134.569 58.3217 134.569 59.1922C134.569 60.0627 134.727 60.8276 135.07 61.4871C135.413 62.1465 135.887 62.6477 136.467 63.017C137.074 63.3599 137.76 63.5445 138.551 63.5445C139.342 63.5445 140.027 63.3599 140.634 63.017Z" fill="white"/>
<path d="M158.329 65.7338H155.718L149.811 56.7917V65.7338H147.2V52.6768H149.811L155.718 61.6453V52.6768H158.329V65.7338Z" fill="white"/>
<path d="M33.4905 67C51.9869 67 66.9811 52.0015 66.9811 33.5C66.9811 14.9985 51.9869 0 33.4905 0C14.9942 0 0 14.9985 0 33.5C0 52.0015 14.9942 67 33.4905 67Z" fill="#E47C25"/>
<path d="M33.4905 39.0658C33.4905 39.0658 52.0553 39.1713 53.1365 37.0611C53.1365 37.0611 54.0858 28.4355 49.3919 23.1863C49.26 23.0544 49.0491 23.0544 48.9436 23.1863L44.7507 28.5674C44.7507 28.5674 44.5925 28.5674 44.6188 28.4883L47.4668 21.4981C47.5196 21.3399 47.4668 21.1816 47.3614 21.0497C46.623 20.3639 43.775 17.9635 39.292 16.7765C39.1074 16.7237 38.9492 16.8556 38.9228 17.0402L37.2878 32.8143C37.2878 32.8143 37.2087 32.867 37.2087 32.8143V16.328C37.2087 16.328 37.2087 14.1387 35.0463 14.1387H31.8819C29.7195 14.1387 29.7195 16.328 29.7195 16.328V32.8143C29.7195 32.8143 29.6404 32.867 29.6404 32.8143L28.0054 17.0402C28.0054 16.8556 27.8208 16.7501 27.6362 16.7765C23.1532 17.9899 20.3052 20.3639 19.5668 21.0497C19.435 21.1552 19.4086 21.3399 19.4614 21.4981L22.3094 28.4883C22.3094 28.4883 22.2303 28.6202 22.1775 28.5674L17.9846 23.1863L30.3524 39.0395C32.1983 39.0395 33.4377 39.0395 33.4377 39.0395L33.4905 39.0658Z" fill="white"/>
<path opacity="0.75" d="M30.4052 39.0393L18.0374 23.1862C17.9319 23.0543 17.721 23.0279 17.5891 23.1862C12.8952 28.4354 13.8445 37.061 13.8445 37.061C14.662 38.6437 25.1047 38.9866 30.4315 39.0657L30.4052 39.0393Z" fill="white"/>
<path opacity="0.75" d="M13.9237 37.9317C13.9237 37.9317 13.66 37.8525 13.5281 37.8525C12.2887 37.8789 8.30675 38.1427 8.22764 40.5695C8.14853 43.1018 29.0076 43.7084 33.4642 43.6821C33.6224 43.6821 33.7807 43.6821 33.9653 43.6821L31.0645 39.9628C18.1166 39.8045 14.6357 38.301 13.8973 37.9581L13.9237 37.9317Z" fill="white"/>
<path d="M58.7271 40.5431C58.648 38.1427 54.6924 37.8525 53.4266 37.8262C53.2948 37.8262 53.1629 37.8525 53.0311 37.9053C52.2663 38.2746 48.3899 39.9364 33.4905 39.9364C32.6467 39.9364 31.8556 39.9364 31.1172 39.9364L34.0179 43.6557C39.3712 43.6557 58.8062 42.9962 58.7535 40.5431H58.7271Z" fill="white"/>
</g>
<defs>
<clipPath id="clip0_681_2121">
<rect width="279" height="67" fill="white"/>
</clipPath>
</defs>
</svg>
