<svg width="299" height="97" viewBox="0 0 299 97" fill="none" xmlns="http://www.w3.org/2000/svg">
<g clip-path="url(#clip0_503_1447)">
<path d="M15.3896 47.2795H30.1846V55.9769H4.09521V9.72238H15.3896V47.2795ZM71.003 37.0007C71.0002 38.1017 70.934 39.2017 70.8048 40.2952H45.2438C45.4199 42.5794 46.1575 44.3254 47.4565 45.5334C48.7526 46.7406 50.4724 47.3913 52.245 47.3454C55.0631 47.3454 57.0226 46.1594 58.1234 43.7873H70.1443C69.5377 46.184 68.3977 48.4136 66.8088 50.3104C65.1699 52.2679 63.1023 53.8238 60.7653 54.8582C58.2078 55.9845 55.4366 56.5464 52.6413 56.5055C49.2827 56.5666 45.9639 55.7729 42.9981 54.1993C40.2043 52.6861 37.9101 50.3975 36.3932 47.6104C34.8081 44.7542 34.0155 41.4153 34.0155 37.5937C34.0155 33.7721 34.797 30.4342 36.3602 27.5799C37.8582 24.79 40.143 22.4993 42.9321 20.9909C45.7502 19.4535 48.9866 18.6848 52.6413 18.6848C55.9504 18.6228 59.2219 19.3933 62.1538 20.9251C64.8937 22.3855 67.1524 24.6044 68.6582 27.3149C70.2214 30.0823 71.003 33.3109 71.003 37.0007ZM59.4444 34.0357C59.4444 32.1019 58.7839 30.5645 57.4629 29.4234C56.0816 28.2596 54.3162 27.6491 52.5092 27.7103C50.7651 27.6583 49.062 28.2442 47.7207 29.3575C46.4217 30.4557 45.6181 32.0151 45.3099 34.0357H59.4444ZM75.3622 37.5278C75.3622 33.7501 76.0777 30.4337 77.5088 27.5785C78.8005 24.8796 80.8258 22.5966 83.3541 20.9895C85.8287 19.4495 88.6939 18.6492 91.6103 18.6834C93.9858 18.6309 96.3364 19.1747 98.4464 20.2647C100.299 21.2207 101.86 22.654 102.969 24.4158V19.2105H114.265V55.9769H102.971V50.7716C101.824 52.5264 100.243 53.9563 98.3803 54.9227C96.2704 56.0127 93.9197 56.5565 91.5442 56.504C88.6449 56.5312 85.7998 55.7186 83.3541 54.165C80.8231 52.5322 78.7988 50.2276 77.5088 47.5101C76.0777 44.632 75.3622 41.3045 75.3622 37.5278ZM102.971 37.5937C102.971 34.7824 102.189 32.5641 100.626 30.9389C99.8989 30.1548 99.0143 29.5324 98.0299 29.1123C97.0454 28.6923 95.9833 28.4839 94.9127 28.5009C93.8451 28.4829 92.7854 28.6875 91.8016 29.1016C90.8177 29.5157 89.9314 30.1303 89.1995 30.9059C87.6363 32.5083 86.8547 34.7156 86.8547 37.5278C86.8547 40.3401 87.6363 42.5693 89.1995 44.2156C89.9217 45.0081 90.8046 45.6382 91.7896 46.0642C92.7747 46.4902 93.8392 46.7023 94.9127 46.6865C95.9833 46.7035 97.0454 46.4951 98.0299 46.0751C99.0143 45.655 99.8989 45.0326 100.626 44.2486C102.189 42.6233 102.971 40.405 102.971 37.5937ZM120.87 37.5278C120.87 33.7501 121.586 30.4337 123.017 27.5785C124.308 24.8796 126.334 22.5966 128.862 20.9895C131.337 19.4495 134.202 18.6492 137.118 18.6834C139.42 18.6558 141.695 19.1753 143.756 20.1988C145.662 21.1247 147.291 22.534 148.479 24.2854V7.21857H159.774V55.9769H148.479V50.7058C147.385 52.4972 145.821 53.9557 143.956 54.9227C141.846 56.0127 139.495 56.5565 137.12 56.504C134.199 56.5374 131.331 55.7249 128.863 54.165C126.332 52.5324 124.307 50.2278 123.017 47.5101C121.586 44.632 120.87 41.3045 120.87 37.5278ZM148.479 37.5937C148.479 34.7824 147.697 32.5641 146.134 30.9389C145.407 30.1548 144.522 29.5324 143.538 29.1123C142.553 28.6923 141.491 28.4839 140.421 28.5009C139.353 28.4829 138.293 28.6875 137.309 29.1016C136.326 29.5157 135.439 30.1303 134.707 30.9059C133.144 32.5092 132.363 34.7165 132.363 37.5278C132.363 40.3391 133.144 42.5684 134.707 44.2156C135.43 45.0081 136.312 45.6382 137.297 46.0642C138.283 46.4902 139.347 46.7023 140.421 46.6865C141.491 46.7035 142.553 46.4951 143.538 46.0751C144.522 45.655 145.407 45.0326 146.134 44.2486C147.697 42.6233 148.479 40.405 148.479 37.5937ZM190.497 56.4382C186.305 56.4809 182.174 55.4365 178.508 53.4072C174.909 51.4187 171.919 48.4923 169.857 44.9404C167.699 41.2311 166.591 37.0064 166.654 32.7179C166.588 28.4394 167.696 24.2245 169.857 20.5283C171.926 16.9908 174.915 14.0768 178.508 12.0944C182.174 10.0651 186.305 9.02069 190.497 9.06348C194.689 9.02069 198.821 10.0651 202.487 12.0944C206.069 14.0671 209.039 16.9848 211.07 20.5283C213.19 24.2384 214.274 28.4479 214.207 32.7179C214.27 37.0022 213.175 41.2242 211.037 44.9404C209 48.489 206.031 51.4163 202.451 53.4072C198.799 55.4384 194.678 56.4832 190.497 56.4382ZM190.497 46.1608C194.196 46.1608 197.157 44.9313 199.381 42.4724C201.605 40.0135 202.716 36.7629 202.716 32.7207C202.716 28.6356 201.605 25.374 199.381 22.9361C197.157 20.4982 194.196 19.2792 190.497 19.2792C186.754 19.2792 183.771 20.4872 181.548 22.9032C179.324 25.3191 178.212 28.5917 178.212 32.7207C178.212 36.8059 179.324 40.0674 181.548 42.5054C183.771 44.9433 186.754 46.1608 190.497 46.1579V46.1608ZM243.601 18.8166C247.916 18.8166 251.362 20.2113 253.939 23.0006C256.516 25.7899 257.804 29.6225 257.803 34.4983V55.9769H246.572V36.0124C246.572 33.5534 245.933 31.6426 244.656 30.28C243.379 28.9173 241.662 28.2369 239.504 28.2388C237.347 28.2388 235.629 28.9192 234.352 30.28C233.075 31.6407 232.437 33.5515 232.437 36.0124V55.9769H221.144V19.2105H232.438V24.0863C233.623 22.4276 235.215 21.1003 237.062 20.2318C239.103 19.2643 241.341 18.7796 243.601 18.8152V18.8166ZM271.54 56.504C269.558 56.504 267.94 55.922 266.685 54.758C266.079 54.2155 265.597 53.5493 265.273 52.8046C264.948 52.0599 264.787 51.2542 264.803 50.4422C264.785 49.6153 264.943 48.7941 265.268 48.033C265.592 47.2719 266.075 46.5883 266.685 46.0276C267.94 44.8416 269.558 44.2486 271.54 44.2486C273.309 44.1854 275.031 44.8252 276.328 46.0276C276.937 46.5884 277.42 47.272 277.745 48.0331C278.069 48.7941 278.228 49.6153 278.21 50.4422C278.226 51.2543 278.066 52.0603 277.741 52.8052C277.417 53.5502 276.935 54.2167 276.33 54.7594C275.023 55.9429 273.303 56.5691 271.54 56.504Z" fill="#FF6600"/>
<path d="M163.992 73.3485C163.821 73.1792 163.705 72.9629 163.657 72.7272C163.61 72.4916 163.634 72.2472 163.727 72.0252C163.819 71.8032 163.976 71.6137 164.176 71.4808C164.377 71.3479 164.613 71.2777 164.854 71.2791C165.009 71.2767 165.164 71.3068 165.307 71.3673C165.45 71.4279 165.579 71.5176 165.685 71.6307C165.905 71.863 166.028 72.1705 166.028 72.4901C166.028 72.8098 165.905 73.1173 165.685 73.3496C165.579 73.4626 165.45 73.5523 165.307 73.6128C165.164 73.6733 165.009 73.7033 164.854 73.7009C164.694 73.7041 164.535 73.6747 164.387 73.6142C164.239 73.5538 164.104 73.4637 163.992 73.3496M165.715 86.1336H163.935V75.4369H165.715V86.1336Z" fill="white"/>
<path d="M177.336 76.4227C178.145 77.2105 178.549 78.3459 178.549 79.8289V86.1339H176.788V80.0821C176.788 79.0154 176.52 78.199 175.985 77.6327C175.701 77.3448 175.359 77.1203 174.982 76.9739C174.604 76.8275 174.2 76.7625 173.796 76.7833C173.381 76.7634 172.967 76.8315 172.581 76.9829C172.195 77.1343 171.846 77.3657 171.556 77.6617C171.001 78.2473 170.724 79.0996 170.724 80.2185V86.1328H168.943V75.4369H170.724V76.9595C171.077 76.4122 171.575 75.9729 172.162 75.6904C172.787 75.387 173.473 75.2332 174.168 75.2413C174.748 75.2169 175.328 75.3089 175.873 75.5119C176.417 75.7149 176.915 76.0247 177.337 76.4231" fill="white"/>
<path d="M181.719 73.3485C181.548 73.1792 181.432 72.9629 181.384 72.7272C181.337 72.4916 181.361 72.2472 181.454 72.0252C181.546 71.8032 181.703 71.6137 181.903 71.4808C182.104 71.3479 182.34 71.2777 182.581 71.2791C182.736 71.2767 182.891 71.3068 183.034 71.3674C183.177 71.4279 183.306 71.5176 183.413 71.6307C183.632 71.8632 183.755 72.1707 183.755 72.4901C183.755 72.8096 183.632 73.117 183.413 73.3496C183.306 73.4626 183.177 73.5523 183.034 73.6127C182.891 73.6732 182.736 73.7032 182.581 73.7009C182.421 73.7042 182.262 73.6747 182.114 73.6143C181.966 73.5538 181.831 73.4638 181.719 73.3496M183.442 86.1336H181.662V75.4369H183.442V86.1336Z" fill="white"/>
<path d="M188.841 76.9012V83.2062C188.821 83.4029 188.84 83.6015 188.897 83.7908C188.954 83.9801 189.049 84.1563 189.174 84.3091C189.504 84.5581 189.917 84.6732 190.329 84.6314H191.64V86.1354H190.035C189.044 86.1354 188.3 85.9077 187.805 85.4522C187.309 84.9967 187.062 84.2485 187.061 83.2076V76.9012H185.672V75.4373H187.061V72.7433H188.842V75.4373H191.64V76.9012H188.841Z" fill="white"/>
<path d="M194.046 73.3485C193.875 73.1792 193.758 72.9629 193.711 72.7272C193.663 72.4916 193.687 72.2472 193.78 72.0252C193.872 71.8032 194.029 71.6137 194.23 71.4808C194.43 71.3479 194.666 71.2777 194.907 71.2791C195.063 71.2768 195.217 71.3068 195.36 71.3674C195.503 71.4279 195.632 71.5176 195.739 71.6307C195.958 71.8632 196.081 72.1707 196.081 72.4901C196.081 72.8096 195.958 73.117 195.739 73.3496C195.632 73.4626 195.503 73.5522 195.36 73.6127C195.217 73.6732 195.063 73.7032 194.907 73.7009C194.747 73.7042 194.588 73.6747 194.44 73.6143C194.292 73.5538 194.158 73.4638 194.046 73.3496M195.769 86.1336H193.988V75.4369H195.769V86.1336Z" fill="white"/>
<path d="M198.996 77.8659C199.414 77.0667 200.049 76.4005 200.827 75.9433C201.613 75.4866 202.508 75.2514 203.417 75.2629C204.272 75.242 205.117 75.451 205.863 75.8681C206.508 76.2257 207.042 76.7522 207.409 77.3907V75.4387H209.209V86.1354H207.409V84.1444C207.032 84.7929 206.488 85.3287 205.834 85.696C205.092 86.1172 204.25 86.3297 203.397 86.3109C202.487 86.3229 201.591 86.0794 200.813 85.6083C200.035 85.1315 199.406 84.449 198.994 83.6366C198.538 82.7424 198.31 81.7506 198.328 80.7479C198.306 79.7479 198.535 78.7582 198.994 77.8688M206.918 78.6591C206.616 78.0857 206.158 77.6088 205.597 77.2829C205.04 76.9711 204.412 76.8064 203.774 76.8047C203.135 76.8029 202.507 76.9641 201.948 77.2729C201.39 77.5956 200.936 78.0696 200.637 78.6398C200.299 79.29 200.13 80.015 200.148 80.7475C200.13 81.4895 200.298 82.2242 200.637 82.8846C200.935 83.4602 201.389 83.9405 201.948 84.2705C202.5 84.5906 203.129 84.7558 203.767 84.7485C204.41 84.7552 205.042 84.5901 205.598 84.2705C206.161 83.9428 206.619 83.4622 206.919 82.8846C207.257 82.2306 207.425 81.5027 207.408 80.7672C207.426 80.0346 207.257 79.3095 206.919 78.6591" fill="white"/>
<path d="M214.591 76.9012V83.2062C214.57 83.4029 214.589 83.6015 214.646 83.7908C214.704 83.9801 214.798 84.1563 214.923 84.3091C215.254 84.558 215.666 84.6732 216.078 84.6314H217.389V86.1354H215.784C214.793 86.1354 214.049 85.9077 213.554 85.4522C213.058 84.9967 212.81 84.2485 212.81 83.2076V76.9012H211.421V75.4373H212.81V72.7433H214.591V75.4373H217.389V76.9012H214.591Z" fill="white"/>
<path d="M219.796 73.3485C219.625 73.1792 219.508 72.9629 219.461 72.7272C219.413 72.4916 219.437 72.2472 219.53 72.0252C219.622 71.8032 219.779 71.6137 219.98 71.4808C220.18 71.3479 220.416 71.2777 220.657 71.2791C220.813 71.2767 220.967 71.3068 221.11 71.3673C221.253 71.4279 221.382 71.5176 221.489 71.6307C221.709 71.863 221.832 72.1705 221.832 72.4901C221.832 72.8098 221.709 73.1173 221.489 73.3496C221.382 73.4626 221.253 73.5523 221.11 73.6127C220.967 73.6732 220.813 73.7032 220.657 73.7009C220.497 73.7042 220.338 73.6748 220.19 73.6143C220.042 73.5539 219.908 73.4638 219.796 73.3496M221.519 86.1336H219.738V75.4369H221.519V86.1336Z" fill="white"/>
<path d="M228.737 84.4942L232.064 75.4373H233.962L229.755 86.134H227.68L223.474 75.4373H225.391L228.737 84.4942Z" fill="white"/>
<path d="M245.642 81.449H237.072C237.072 81.8997 237.163 82.3457 237.34 82.7605C237.516 83.1753 237.775 83.5504 238.1 83.8636C238.424 84.1769 238.809 84.4217 239.231 84.5837C239.652 84.7457 240.102 84.8214 240.554 84.8065C241.236 84.8314 241.91 84.6436 242.481 84.2694C242.989 83.9209 243.37 83.4176 243.567 82.8348H245.485C245.212 83.8411 244.604 84.7249 243.762 85.3415C242.829 86.0085 241.7 86.3485 240.553 86.3084C239.599 86.3242 238.658 86.0886 237.825 85.6255C237.023 85.1706 236.368 84.4969 235.937 83.6835C235.466 82.7838 235.23 81.7799 235.252 80.765C235.229 79.7556 235.458 78.7562 235.918 77.8566C236.338 77.047 236.988 76.3784 237.786 75.934C238.635 75.4735 239.589 75.2415 240.555 75.2608C241.497 75.2424 242.429 75.4712 243.255 75.9243C244.02 76.3494 244.648 76.9828 245.065 77.7506C245.497 78.5577 245.715 79.4611 245.701 80.3758C245.7 80.7347 245.68 81.0932 245.642 81.4501M243.412 78.2587C243.12 77.7781 242.695 77.3918 242.189 77.1461C241.655 76.8885 241.069 76.7583 240.477 76.7658C239.628 76.7468 238.805 77.0546 238.178 77.6253C237.521 78.2493 237.132 79.1029 237.092 80.007H243.862C243.879 79.394 243.723 78.7887 243.412 78.2598" fill="white"/>
<path d="M62.2221 83.0446H56.2741L55.1782 86.0702H53.2983L58.2287 72.5435H60.2837L65.1951 86.0702H63.3163L62.2221 83.0446ZM61.7135 81.6001L59.2481 74.7293L56.7824 81.6001H61.7135Z" fill="white"/>
<path d="M74.871 74.3508C73.4684 75.6333 72.7679 77.3222 72.7693 79.4175C72.7611 80.3764 72.9442 81.3273 73.3077 82.215C73.6599 83.0756 74.1922 83.8513 74.8689 84.4903C75.539 85.1166 76.3307 85.5993 77.195 85.9087C78.1305 86.2369 79.1163 86.3994 80.1079 86.3889C81.9238 86.4061 83.7105 85.9331 85.2788 85.0199V81.8687C84.5246 82.3993 83.7026 82.8266 82.8346 83.1392C82.0499 83.4187 81.2233 83.5632 80.3901 83.5664C79.8368 83.5941 79.2838 83.5083 78.7651 83.3142C78.2465 83.1201 77.7733 82.8219 77.3748 82.4381C76.9932 82.0365 76.6971 81.562 76.5045 81.0432C76.3118 80.5244 76.2265 79.9719 76.2538 79.4193C76.223 78.856 76.3117 78.2926 76.5141 77.7658C76.7165 77.239 77.028 76.7607 77.4283 76.3623C78.2101 75.6224 79.2859 75.2522 80.6482 75.2522C81.4161 75.2537 82.179 75.3745 82.9096 75.6102C83.7052 75.8686 84.4621 76.2328 85.16 76.6931V73.5272C84.4184 73.1643 83.6381 72.8862 82.8339 72.6982C82.0431 72.5163 81.2339 72.4257 80.4224 72.4282C78.1226 72.4282 76.2718 73.069 74.87 74.3505" fill="white"/>
<path d="M102.027 78.3182V86.1605H105.504V82.5262H110.059V86.1615H113.536V78.3192C113.542 77.5616 113.398 76.8102 113.111 76.1085C112.825 75.4068 112.402 74.7686 111.867 74.2307C111.332 73.6928 110.695 73.2659 109.994 72.9746C109.293 72.6833 108.541 72.5333 107.782 72.5333C107.022 72.5333 106.27 72.6833 105.569 72.9746C104.868 73.2659 104.231 73.6928 103.696 74.2307C103.162 74.7686 102.739 75.4068 102.452 76.1085C102.166 76.8102 102.021 77.5616 102.027 78.3192M110.059 80.1026H105.504V78.2279C105.512 77.6303 105.755 77.0597 106.181 76.6398C106.607 76.2198 107.182 75.9843 107.782 75.9843C108.381 75.9843 108.956 76.2198 109.382 76.6398C109.808 77.0597 110.051 77.6303 110.059 78.2279L110.059 80.1026Z" fill="white"/>
<path d="M143.772 72.666V75.1727H150.597C148.116 78.8322 145.636 82.4914 143.158 86.1505H156.319V83.5446H148.973L156.36 72.6649L143.772 72.666Z" fill="white"/>
<path d="M137.652 72.666V80.7056L130.403 72.666H127.438V86.1515H130.783V77.6782L138.347 86.1515H140.996V72.666H137.652Z" fill="white"/>
<path d="M116.643 73.5276C116.196 73.8459 115.834 74.2677 115.587 74.7567C115.341 75.2458 115.217 75.7873 115.226 76.3347C115.21 76.8345 115.298 77.3322 115.485 77.7963C115.672 78.2604 115.954 78.6806 116.312 79.0304C117.038 79.7335 118.365 80.4235 120.291 81.1006C120.822 81.2475 121.325 81.4844 121.776 81.801C121.892 81.9154 121.98 82.0545 122.035 82.208C122.089 82.3614 122.107 82.5252 122.089 82.6869C122.07 82.8485 122.015 83.0039 121.928 83.1413C121.841 83.2786 121.723 83.3944 121.584 83.4798C121.116 83.7087 120.597 83.813 120.076 83.7827C119.381 83.7761 118.692 83.649 118.041 83.4071C117.14 83.0533 116.277 82.6103 115.464 82.0846V85.079C116.873 85.9445 118.497 86.3986 120.151 86.39C121.828 86.39 123.139 86.0336 124.084 85.3207C124.542 84.983 124.911 84.5387 125.157 84.0263C125.404 83.514 125.521 82.9493 125.499 82.3815C125.515 81.6932 125.362 81.0114 125.051 80.3966C124.743 79.8216 124.284 79.3413 123.723 79.0079C122.835 78.5215 121.907 78.112 120.949 77.7839C120.685 77.6883 120.486 77.6163 120.358 77.5637C119.866 77.4016 119.403 77.1613 118.988 76.8521C118.856 76.7628 118.746 76.6444 118.668 76.5062C118.589 76.3679 118.543 76.2134 118.533 76.0546C118.532 75.887 118.579 75.7225 118.669 75.5808C118.759 75.4392 118.888 75.3263 119.04 75.2557C119.5 75.0432 120.006 74.9471 120.512 74.976C121.181 74.9878 121.845 75.0989 122.481 75.3055C123.324 75.5723 124.141 75.9114 124.925 76.3189V73.5483C124.193 73.1961 123.426 72.9214 122.636 72.7286C121.88 72.5433 121.105 72.4493 120.327 72.4486C118.813 72.4486 117.585 72.8084 116.642 73.5279" fill="white"/>
<path d="M96.5962 72.666V78.0764H90.5785V72.666H87.1953V86.1515H90.5785V80.6827H96.5958V86.1515H99.9816V72.666H96.5962Z" fill="white"/>
</g>
<defs>
<clipPath id="clip0_503_1447">
<rect width="299" height="97" fill="white"/>
</clipPath>
</defs>
</svg>
