<svg width="281" height="67" viewBox="0 0 281 67" fill="none" xmlns="http://www.w3.org/2000/svg">
<g clip-path="url(#clip0_732_2289)">
<path d="M82.7064 16.6182C84.1672 13.9804 86.2123 11.9229 88.8417 10.4721C91.471 8.99493 94.4192 8.25635 97.7391 8.25635C101.803 8.25635 105.282 9.31147 108.177 11.4481C111.072 13.5847 113.011 16.4863 113.994 20.1792H104.831C104.14 18.7548 103.184 17.6733 101.936 16.9347C100.687 16.1961 99.253 15.8268 97.6594 15.8268C95.0831 15.8268 93.0115 16.7237 91.4179 18.491C89.8244 20.2583 89.0276 22.6323 89.0276 25.613C89.0276 28.5938 89.8244 30.9678 91.4179 32.7351C93.0115 34.5024 95.0831 35.3993 97.6594 35.3993C99.253 35.3993 100.687 35.03 101.936 34.2914C103.184 33.5528 104.167 32.4713 104.831 31.0469H113.994C113.011 34.7398 111.072 37.6414 108.177 39.7516C105.282 41.8619 101.803 42.917 97.7391 42.917C94.4192 42.917 91.4445 42.1784 88.8417 40.7012C86.2123 39.2241 84.1937 37.193 82.7064 34.5815C81.2456 31.9701 80.502 28.9894 80.502 25.613C80.502 22.2367 81.2456 19.256 82.7064 16.6182Z" fill="#333334"/>
<path d="M148.76 8.65186V42.653H140.42V28.6463H127.433V42.653H119.093V8.65186H127.433V21.9727H140.42V8.65186H148.76Z" fill="#333334"/>
<path d="M176.063 36.6389H163.288L161.243 42.653H152.505L164.908 8.65186H174.576L186.979 42.653H178.161L176.116 36.6389H176.063ZM173.938 30.2554L169.689 17.805L165.493 30.2554H173.938Z" fill="#333334"/>
<path d="M196.355 41.7828C194.363 40.9651 192.796 39.778 191.601 38.1954C190.405 36.6127 189.795 34.7135 189.715 32.4714H198.586C198.719 33.7375 199.143 34.6871 199.914 35.3465C200.657 36.006 201.64 36.3489 202.835 36.3489C204.03 36.3489 205.04 36.0588 205.757 35.5048C206.474 34.9509 206.819 34.1595 206.819 33.1572C206.819 32.3131 206.527 31.6273 205.969 31.0733C205.412 30.5194 204.694 30.071 203.871 29.728C203.048 29.3851 201.853 28.9631 200.339 28.5147C198.134 27.8288 196.328 27.1694 194.921 26.4836C193.513 25.7977 192.318 24.7954 191.308 23.4765C190.299 22.1576 189.795 20.4166 189.795 18.28C189.795 15.1147 190.937 12.6351 193.247 10.8414C195.558 9.04773 198.559 8.15088 202.278 8.15088C205.996 8.15088 209.103 9.04773 211.414 10.8414C213.725 12.6351 214.946 15.141 215.132 18.3328H206.102C206.049 17.2249 205.624 16.3808 204.88 15.7477C204.137 15.1147 203.181 14.7981 202.012 14.7981C201.003 14.7981 200.179 15.0619 199.568 15.5895C198.958 16.117 198.639 16.882 198.639 17.8843C198.639 18.9922 199.17 19.8363 200.206 20.443C201.242 21.0497 202.862 21.7091 205.093 22.4214C207.297 23.1599 209.103 23.8721 210.484 24.558C211.866 25.2438 213.061 26.2198 214.07 27.5123C215.079 28.8048 215.584 30.4666 215.584 32.4977C215.584 34.5288 215.079 36.1906 214.097 37.7733C213.114 39.356 211.653 40.6221 209.767 41.5454C207.882 42.495 205.651 42.9434 203.074 42.9434C200.498 42.9434 198.32 42.5477 196.355 41.73V41.7828Z" fill="#333334"/>
<path d="M251.359 42.653H243.02L229.076 21.6826V42.653H220.736V8.65186H229.076L243.02 29.7278V8.65186H251.359V42.653Z" fill="#333334"/>
<path d="M266.286 35.8739H281.027V42.653H256.831V36.3487L271.465 15.4046H256.831V8.62549H281.027V14.9298L266.286 35.8739Z" fill="#333334"/>
<path d="M92.3474 52.7031V54.8134H88.8416V65.7338H86.2122V54.8134H82.7063V52.7031H92.3209H92.3474Z" fill="#65B3C5"/>
<path d="M96.9688 65.0215C95.933 64.4412 95.1362 63.6499 94.5253 62.6475C93.9145 61.6451 93.6223 60.4845 93.6223 59.192C93.6223 57.8995 93.9145 56.7916 94.5253 55.7629C95.1362 54.7341 95.933 53.9428 96.9688 53.3888C98.0046 52.8085 99.1201 52.5184 100.342 52.5184C101.564 52.5184 102.706 52.8085 103.742 53.3888C104.751 53.9692 105.574 54.7605 106.158 55.7629C106.743 56.7652 107.061 57.9259 107.061 59.192C107.061 60.4581 106.769 61.6188 106.158 62.6475C105.548 63.6762 104.751 64.4676 103.715 65.0215C102.679 65.6018 101.564 65.892 100.342 65.892C99.1201 65.892 97.9781 65.6018 96.9688 65.0215ZM102.44 63.0168C103.051 62.6739 103.502 62.1463 103.848 61.4869C104.193 60.8274 104.352 60.0625 104.352 59.192C104.352 58.3215 104.193 57.5566 103.848 56.8971C103.502 56.2377 103.051 55.7365 102.44 55.3936C101.829 55.0507 101.139 54.866 100.342 54.866C99.5451 54.866 98.8545 55.0507 98.2437 55.3936C97.6328 55.7365 97.1547 56.2377 96.836 56.8971C96.4907 57.5566 96.3314 58.3215 96.3314 59.192C96.3314 60.0625 96.4907 60.8274 96.836 61.4869C97.1813 62.1463 97.6594 62.6475 98.2437 63.0168C98.8545 63.3597 99.5451 63.5444 100.342 63.5444C101.139 63.5444 101.829 63.3597 102.44 63.0168ZM103.954 49.3794V51.2522H96.7829V49.3794H103.954Z" fill="#65B3C5"/>
<path d="M117.951 52.7031V54.8134H114.445V65.7338H111.816V54.8134H108.31V52.7031H117.924H117.951Z" fill="#65B3C5"/>
<path d="M122.519 52.7031V65.7338H119.89V52.7031H122.519Z" fill="#65B3C5"/>
<path d="M132.505 65.7338L127.725 59.9307V65.7338H125.095V52.7031H127.725V58.559L132.505 52.7031H135.692L130.274 59.1657L135.852 65.7338H132.532H132.505Z" fill="#65B3C5"/>
<path d="M145.626 63.2543H140.394L139.517 65.7338H136.755L141.482 52.6768H144.537L149.264 65.7338H146.476L145.599 63.2543H145.626ZM144.909 61.1705L143.023 55.7102L141.111 61.1705H144.909Z" fill="#65B3C5"/>
<path d="M33.7306 67C52.3595 67 67.4612 52.0015 67.4612 33.5C67.4612 14.9985 52.3595 0 33.7306 0C15.1017 0 0 14.9985 0 33.5C0 52.0015 15.1017 67 33.7306 67Z" fill="#66B3C6"/>
<path d="M33.7308 39.0658C33.7308 39.0658 52.4287 39.1713 53.5176 37.0611C53.5176 37.0611 54.4738 28.4355 49.7462 23.1863C49.6134 23.0544 49.4009 23.0544 49.2947 23.1863L45.0717 28.5674C45.0717 28.5674 44.9124 28.5674 44.9389 28.4883L47.8073 21.4981C47.8605 21.3399 47.8073 21.1816 47.7011 21.0497C46.9574 20.3639 44.089 17.9635 39.5739 16.7765C39.388 16.7237 39.2286 16.8556 39.202 17.0402L37.5554 32.8143C37.5554 32.8143 37.4757 32.867 37.4757 32.8143V16.328C37.4757 16.328 37.4757 14.1387 35.2978 14.1387H32.1106C29.9328 14.1387 29.9328 16.328 29.9328 16.328V32.8143C29.9328 32.8143 29.8531 32.867 29.8531 32.8143L28.2064 17.0402C28.2064 16.8556 28.0205 16.7501 27.8346 16.7765C23.3194 17.9899 20.451 20.3639 19.7073 21.0497C19.5745 21.1552 19.548 21.3399 19.6011 21.4981L22.4695 28.4883C22.4695 28.4883 22.3899 28.6202 22.3367 28.5674L18.1138 23.1863L30.5702 39.0395C32.4294 39.0395 33.6777 39.0395 33.6777 39.0395L33.7308 39.0658Z" fill="white"/>
<path opacity="0.75" d="M30.6232 39.0393L18.1668 23.1862C18.0605 23.0543 17.8481 23.0279 17.7153 23.1862C12.9877 28.4354 13.9438 37.061 13.9438 37.061C14.7672 38.6437 25.2847 38.9866 30.6498 39.0657L30.6232 39.0393Z" fill="white"/>
<path opacity="0.75" d="M14.0235 37.9317C14.0235 37.9317 13.7579 37.8525 13.6251 37.8525C12.3768 37.8789 8.36628 38.1427 8.2866 40.5695C8.20692 43.1018 29.2155 43.7084 33.7041 43.6821C33.8634 43.6821 34.0228 43.6821 34.2087 43.6821L31.2872 39.9628C18.2464 39.8045 14.7406 38.301 13.9969 37.9581L14.0235 37.9317Z" fill="white"/>
<path d="M59.1482 40.5431C59.0685 38.1427 55.0846 37.8525 53.8097 37.8262C53.6769 37.8262 53.5441 37.8525 53.4113 37.9053C52.6411 38.2746 48.7368 39.9364 33.7307 39.9364C32.8808 39.9364 32.084 39.9364 31.3403 39.9364L34.2619 43.6557C39.6535 43.6557 59.2279 42.9962 59.1747 40.5431H59.1482Z" fill="white"/>
</g>
<defs>
<clipPath id="clip0_732_2289">
<rect width="281" height="67" fill="white"/>
</clipPath>
</defs>
</svg>
