<svg width="247" height="90" viewBox="0 0 247 90" fill="none" xmlns="http://www.w3.org/2000/svg">
<g clip-path="url(#clip0_9_1176)">
<path d="M16.7534 83.0607V84.5586H19.6842V86.0404H16.7534V88.3672H14.8779V81.584H20.0868V83.0657L16.7534 83.0607Z" fill="white"/>
<path d="M25.3958 87.044H22.5876L22.0662 88.3623H20.1494L23.0802 81.579H24.9307L27.8715 88.3623H25.9135L25.3958 87.044ZM24.8457 85.6297L23.9917 83.4589L23.139 85.6297H24.8457Z" fill="white"/>
<path d="M30.5157 81.5789H28.6377V88.3622H30.5157V81.5789Z" fill="white"/>
<mask id="mask0_9_1176" style="mask-type:luminance" maskUnits="userSpaceOnUse" x="0" y="0" width="247" height="90">
<path d="M247 0H0V90H247V0Z" fill="white"/>
</mask>
<g mask="url(#mask0_9_1176)">
<path d="M34.9918 86.5647H33.9678V88.3672H32.0923V81.584H35.1281C36.9399 81.584 38.0789 82.5439 38.0789 84.0943C38.0985 84.5397 37.9854 84.9808 37.7539 85.3621C37.5225 85.7433 37.1831 86.0476 36.7786 86.2364L38.2115 88.3685H36.1972L34.9918 86.5647ZM35.0118 83.0956H33.9678V85.0829H35.0118C35.7895 85.0829 36.1784 84.7147 36.1784 84.0943C36.1784 83.4739 35.7895 83.0956 35.0118 83.0956Z" fill="white"/>
<path d="M48.661 81.579V88.3623H46.7855V85.7158H44.2198V88.3623H42.3442V81.579H44.2198V84.1268H46.7817V81.579H48.661Z" fill="white"/>
<path d="M55.5565 86.8805V88.3623H50.2251V81.579H55.434V83.0607H52.0844V84.2042H55.0352V85.6385H52.0844V86.8792L55.5565 86.8805Z" fill="white"/>
<path d="M61.284 87.044H58.4758L57.9544 88.3623H56.0376L58.9697 81.579H60.8189L63.7597 88.3623H61.8054L61.284 87.044ZM60.7339 85.6297L59.8812 83.4589L59.0272 85.6297H60.7339Z" fill="white"/>
<path d="M64.5274 81.579H66.4029V86.8418H69.5713V88.3635H64.5249L64.5274 81.579Z" fill="white"/>
<path d="M71.3469 83.1007H69.3076V81.579H75.2555V83.1007H73.2249V88.3635H71.3494L71.3469 83.1007Z" fill="white"/>
<path d="M82.5151 81.579V88.3623H80.6396V85.7158H78.0777V88.3623H76.2021V81.579H78.0777V84.1268H80.6396V81.579H82.5151Z" fill="white"/>
<path d="M92.3267 88.4796L91.5765 87.8005C90.9261 88.2628 90.1455 88.5071 89.3471 88.4983C87.8192 88.4983 86.7002 87.6944 86.7002 86.5897C86.7075 86.1575 86.8429 85.7372 87.0892 85.3817C87.3355 85.0262 87.6818 84.7516 88.0843 84.5924C87.8932 84.4178 87.7386 84.2071 87.6296 83.9724C87.5206 83.7378 87.4592 83.4839 87.4491 83.2255C87.4491 82.1894 88.3306 81.4778 89.6785 81.4778C90.9013 81.4778 91.7278 82.102 91.7278 83.1006C91.7278 83.7984 91.3389 84.3215 90.4949 84.7971L91.4627 85.6796C91.6003 85.3701 91.699 85.0447 91.7565 84.711L93.2082 85.1566C93.0955 85.703 92.8863 86.225 92.5906 86.6982L93.2932 87.3374L92.3267 88.4796ZM90.4962 86.8131L89.0633 85.5149C88.8917 85.59 88.7447 85.7118 88.639 85.8662C88.5334 86.0207 88.4733 86.2017 88.4657 86.3887C88.4657 86.7969 88.8545 87.0964 89.4822 87.0964C89.84 87.0974 90.1912 87.0002 90.4975 86.8156M89.0933 83.1955C89.0933 83.409 89.1783 83.57 89.5197 83.9033C90.0323 83.6224 90.2124 83.404 90.2124 83.1468C90.2124 82.8759 90.0323 82.6912 89.681 82.6912C89.3059 82.6912 89.0933 82.9047 89.0933 83.1905" fill="white"/>
<path d="M96.9727 87.7518L97.5904 86.3375C98.2425 86.763 99.0021 86.995 99.781 87.0066C100.559 87.0066 100.863 86.7831 100.863 86.4548C100.863 85.3788 97.0865 86.164 97.0865 83.6437C97.0865 82.4328 98.0543 81.4441 100.027 81.4441C100.868 81.4303 101.698 81.6337 102.437 82.0346L101.858 83.4589C101.298 83.1331 100.665 82.9532 100.017 82.9359C99.2296 82.9359 98.9445 83.208 98.9445 83.5463C98.9445 84.5836 102.711 83.8085 102.711 86.3088C102.711 87.4897 101.743 88.4983 99.7697 88.4983C98.784 88.5216 97.8122 88.2617 96.9702 87.7493" fill="white"/>
<path d="M108.261 87.044H105.452L104.931 88.3623H103.014L105.945 81.579H107.795L110.736 88.3623H108.782L108.261 87.044ZM107.71 85.6297L106.856 83.4589L106.004 85.6297H107.71Z" fill="white"/>
<path d="M113.377 83.0607V84.5586H116.31V86.0404H113.377V88.3672H111.502V81.584H116.71V83.0657L113.377 83.0607Z" fill="white"/>
<path d="M123.161 86.8805V88.3623H117.83V81.579H123.038V83.0607H119.689V84.2042H122.64V85.6385H119.689V86.8792L123.161 86.8805Z" fill="white"/>
<path d="M125.853 83.1007H123.814V81.579H129.762V83.1007H127.731V88.3635H125.856L125.853 83.1007Z" fill="white"/>
<path d="M134.097 85.9293V88.3623H132.221V85.9006L129.688 81.579H131.671L133.245 84.2728L134.819 81.579H136.641L134.097 85.9293Z" fill="white"/>
<path d="M146.332 84.0893C146.332 85.6297 145.194 86.5859 143.381 86.5859H142.224V88.3597H140.348V81.5765H143.384C145.197 81.5765 146.335 82.5364 146.335 84.0868M144.437 84.0868C144.437 83.4564 144.048 83.0882 143.27 83.0882H142.226V85.0755H143.27C144.048 85.0755 144.437 84.7072 144.437 84.0868Z" fill="white"/>
<path d="M150.38 86.5647H149.356V88.3672H147.48V81.584H150.516C152.328 81.584 153.467 82.5439 153.467 84.0943C153.487 84.5395 153.374 84.9806 153.143 85.3618C152.911 85.7431 152.572 86.0474 152.168 86.2364L153.601 88.3685H151.585L150.38 86.5647ZM150.4 83.0956H149.356V85.0829H150.4C151.178 85.0829 151.567 84.7147 151.567 84.0943C151.567 83.4739 151.178 83.0956 150.4 83.0956Z" fill="white"/>
<path d="M160.065 86.8805V88.3623H154.733V81.579H159.942V83.0607H156.593V84.2042H159.543V85.6385H156.593V86.8792L160.065 86.8805Z" fill="white"/>
<path d="M164 84.2141H161.229V85.6285H164V84.2141Z" fill="white"/>
<path d="M172.851 89.1474C172.627 89.4218 172.343 89.6414 172.021 89.7892C171.698 89.937 171.346 90.0091 170.992 90C170.419 89.9848 169.858 89.8357 169.354 89.5647C168.85 89.2937 168.416 88.9083 168.088 88.4396C167.257 88.3197 166.497 87.9012 165.952 87.2623C165.408 86.6235 165.115 85.8082 165.129 84.9693C165.178 84.0258 165.588 83.1372 166.275 82.4868C166.961 81.8363 167.871 81.4737 168.817 81.4737C169.764 81.4737 170.674 81.8363 171.36 82.4868C172.047 83.1372 172.457 84.0258 172.506 84.9693C172.52 85.6825 172.31 86.3821 171.905 86.9697C171.499 87.5573 170.92 88.0033 170.248 88.2449C170.339 88.365 170.456 88.4626 170.591 88.5299C170.726 88.5973 170.875 88.6326 171.025 88.6331C171.216 88.6267 171.403 88.5812 171.575 88.4994C171.747 88.4175 171.901 88.3012 172.026 88.1575L172.851 89.1474ZM168.819 86.9079C169.209 86.9388 169.6 86.8515 169.939 86.6573C170.279 86.4632 170.553 86.1712 170.724 85.8196C170.895 85.468 170.956 85.073 170.898 84.6863C170.841 84.2996 170.668 83.9391 170.403 83.6519C170.137 83.3647 169.791 83.1641 169.409 83.0764C169.028 82.9887 168.629 83.0178 168.264 83.1601C167.899 83.3024 167.586 83.5512 167.365 83.8739C167.144 84.1967 167.026 84.5784 167.026 84.9693C167.006 85.2163 167.038 85.4646 167.12 85.6987C167.201 85.9327 167.33 86.1475 167.498 86.3295C167.667 86.5115 167.871 86.6568 168.098 86.7563C168.325 86.8559 168.571 86.9075 168.819 86.9079Z" fill="white"/>
<path d="M173.679 85.3389V81.579H175.554V85.2802C175.554 86.4436 176.029 86.903 176.816 86.903C177.602 86.903 178.066 86.4386 178.066 85.2802V81.579H179.917V85.3389C179.939 85.762 179.875 86.1852 179.728 86.5828C179.582 86.9804 179.355 87.344 179.063 87.6515C178.771 87.9589 178.42 88.2038 178.03 88.3711C177.64 88.5384 177.22 88.6247 176.795 88.6247C176.371 88.6247 175.951 88.5384 175.561 88.3711C175.171 88.2038 174.819 87.9589 174.527 87.6515C174.235 87.344 174.009 86.9804 173.862 86.5828C173.715 86.1852 173.651 85.762 173.674 85.3389" fill="white"/>
<path d="M185.729 87.044H182.924L182.402 88.3623H180.485L183.416 81.579H185.267L188.207 88.3623H186.253L185.729 87.044ZM185.179 85.6297L184.325 83.4589L183.472 85.6297H185.179Z" fill="white"/>
<path d="M188.972 81.579H190.847V86.8418H194.016V88.3635H188.969L188.972 81.579Z" fill="white"/>
<path d="M196.873 81.579H194.995V88.3622H196.873V81.579Z" fill="white"/>
<path d="M200.325 83.0607V84.5586H203.256V86.0404H200.325V88.3672H198.449V81.584H203.658V83.0657L200.325 83.0607Z" fill="white"/>
<path d="M206.651 81.579H204.773V88.3622H206.651V81.579Z" fill="white"/>
<path d="M207.883 84.9694C207.918 84.2303 208.174 83.5188 208.619 82.9265C209.063 82.3343 209.675 81.8885 210.375 81.6467C211.076 81.4049 211.832 81.3781 212.548 81.5698C213.264 81.7616 213.906 82.163 214.391 82.7224L213.196 83.8271C213.015 83.5815 212.78 83.3815 212.508 83.2434C212.236 83.1053 211.935 83.0329 211.63 83.032C211.14 83.0671 210.682 83.2863 210.347 83.6453C210.012 84.0042 209.826 84.4764 209.826 84.9669C209.826 85.4573 210.012 85.9295 210.347 86.2885C210.682 86.6474 211.14 86.8665 211.63 86.9017C211.935 86.9008 212.236 86.8284 212.508 86.6903C212.78 86.5522 213.015 86.3522 213.196 86.1065L214.391 87.2113C213.906 87.7707 213.264 88.1721 212.548 88.3639C211.832 88.5556 211.076 88.5288 210.375 88.287C209.675 88.0452 209.063 87.5994 208.619 87.0072C208.174 86.415 207.918 85.7034 207.883 84.9644" fill="white"/>
<path d="M219.798 87.044H216.989L216.468 88.3623H214.551L217.482 81.579H219.333L222.273 88.3623H220.319L219.798 87.044ZM219.248 85.6297L218.394 83.4589L217.541 85.6297H219.248Z" fill="white"/>
<path d="M224.122 83.1007H222.083V81.579H228.026V83.1007H226V88.3635H224.125L224.122 83.1007Z" fill="white"/>
<path d="M230.847 81.579H228.969V88.3622H230.847V81.579Z" fill="white"/>
<path d="M232.078 84.9694C232.046 84.234 232.235 83.5059 232.622 82.8788C233.008 82.2516 233.573 81.7542 234.244 81.4505C234.916 81.1469 235.663 81.0508 236.39 81.1747C237.117 81.2986 237.79 81.6369 238.322 82.1459C238.855 82.6549 239.223 83.3114 239.378 84.0309C239.534 84.7504 239.471 85.4999 239.196 86.183C238.921 86.8662 238.448 87.4516 237.838 87.864C237.227 88.2764 236.507 88.4969 235.769 88.4971C235.291 88.5219 234.813 88.4489 234.365 88.2825C233.916 88.116 233.506 87.8597 233.16 87.5293C232.815 87.1989 232.54 86.8013 232.354 86.361C232.168 85.9208 232.074 85.4472 232.078 84.9694ZM237.562 84.9694C237.535 84.6213 237.406 84.2888 237.192 84.0126C236.978 83.7364 236.688 83.5285 236.357 83.4142C236.027 83.3 235.67 83.2844 235.331 83.3693C234.992 83.4543 234.685 83.6361 234.447 83.8926C234.21 84.1491 234.052 84.469 233.994 84.8134C233.936 85.1577 233.98 85.5115 234.12 85.8314C234.26 86.1513 234.491 86.4235 234.783 86.6147C235.076 86.8059 235.418 86.9078 235.768 86.908C236.016 86.9077 236.262 86.8562 236.489 86.7567C236.716 86.6573 236.921 86.512 237.089 86.3299C237.258 86.1479 237.387 85.9331 237.468 85.699C237.549 85.4648 237.582 85.2164 237.562 84.9694Z" fill="white"/>
<path d="M247.005 81.579V88.3623H245.458L242.526 84.7422V88.3623H240.686V81.579H242.232L245.163 85.199V81.579H247.005Z" fill="white"/>
<path d="M196.623 56.0724C196.623 58.5631 197.614 60.9517 199.378 62.7128C201.142 64.474 203.534 65.4634 206.029 65.4634C208.524 65.4634 210.916 64.474 212.68 62.7128C214.444 60.9517 215.435 58.5631 215.435 56.0724C215.438 55.5276 215.385 54.9839 215.279 54.4496H224.633L231.896 72.2404H246.998L224.893 17.9356H209.791L221.497 46.7339H205.61C203.195 46.8343 200.913 47.8615 199.238 49.6015C197.564 51.3414 196.627 53.6595 196.623 56.0724Z" fill="white"/>
<path d="M201.175 72.2966L179.744 44.6992L199.758 17.8832H182.045L165.583 41.0254V17.8832H150.637V72.193H165.583V48.3779L182.566 72.2966H201.175Z" fill="white"/>
<path d="M142.694 17.8832H127.749V72.193H142.694V17.8832Z" fill="white"/>
<path d="M122.315 17.7271H78.4189V31.2924H92.8904V72.0395H107.836V31.2924H122.311L122.315 17.7271Z" fill="white"/>
<path d="M44.2959 17.7271H0.401367V31.2924H14.8753V72.0395H29.8207V31.2924H44.2959V17.7271Z" fill="white"/>
<path d="M72.881 17.7796H49.8359V25.5015H72.881V17.7796Z" fill="#14A5B9"/>
<path d="M83.4879 50.0207C83.3651 45.0787 81.5938 40.319 78.4548 36.4959C75.3158 32.6727 70.9887 30.0046 66.159 28.9146C61.3293 27.8245 56.2734 28.3747 51.7924 30.478C47.3114 32.5814 43.6616 36.1175 41.4214 40.5261H61.9583C63.7921 40.6221 65.5575 41.253 67.0357 42.3407C68.5139 43.4284 69.6401 44.9251 70.2748 46.6455C70.9094 48.3659 71.0247 50.2343 70.6063 52.0194C70.1879 53.8046 69.2542 55.4279 67.9208 56.6885C66.5874 57.9491 64.913 58.7915 63.1048 59.1115C61.2966 59.4314 59.4342 59.2147 57.7481 58.4884C56.062 57.762 54.6264 56.5579 53.619 55.025C52.6116 53.4922 52.0767 51.698 52.0806 49.8646C52.0779 49.3198 52.1302 48.7761 52.2369 48.2418H39.2796C39.2271 48.8161 39.2271 49.389 39.2271 49.9632C39.2236 52.8648 39.7926 55.7386 40.9016 58.4206C42.0106 61.1026 43.6379 63.5403 45.6905 65.5944C49.836 69.7429 55.4623 72.0774 61.3319 72.0844C67.2014 72.0913 72.8333 69.7702 76.9886 65.6315C81.1439 61.4928 83.4822 55.8756 83.4892 50.0157" fill="#14A5B9"/>
<path d="M62.8184 1.17465C62.7533 1.11134 62.702 1.03533 62.6675 0.951369C62.6331 0.867404 62.6164 0.777268 62.6183 0.686566C62.6164 0.595873 62.6332 0.50576 62.6676 0.421805C62.702 0.33785 62.7534 0.26184 62.8184 0.19848C62.8819 0.133788 62.9581 0.0827975 63.0422 0.0486592C63.1263 0.014521 63.2165 -0.00203981 63.3073 1.08674e-07C63.3954 -0.00126774 63.4829 0.0158403 63.564 0.050231C63.6452 0.0846217 63.7183 0.135539 63.7786 0.199728C63.842 0.264004 63.8918 0.340321 63.9251 0.424159C63.9584 0.507997 63.9745 0.597652 63.9724 0.687814C63.9746 0.777985 63.9585 0.867661 63.9252 0.951509C63.8919 1.03536 63.8421 1.11167 63.7786 1.1759C63.7183 1.24009 63.6452 1.29101 63.564 1.3254C63.4829 1.35979 63.3954 1.3769 63.3073 1.37563C63.2164 1.37751 63.1262 1.36075 63.0421 1.32639C62.958 1.29204 62.8818 1.23957 62.8184 1.17465ZM63.7949 8.43727H62.7846V2.36179H63.7949V8.43727Z" fill="white"/>
<path d="M70.392 2.92103C70.6333 3.17932 70.8189 3.48432 70.9374 3.81713C71.0559 4.14994 71.1047 4.50348 71.0809 4.85589V8.43727H70.0806V4.99945C70.1152 4.49415 69.9521 3.99516 69.6255 3.60759C69.4642 3.44412 69.2701 3.31665 69.0558 3.2336C68.8416 3.15054 68.6122 3.11378 68.3827 3.12575C68.1474 3.11447 67.9124 3.15315 67.6932 3.23922C67.474 3.32529 67.2756 3.4568 67.111 3.62507C66.7717 4.02986 66.6027 4.55025 66.6397 5.07684V8.43602H65.6294V2.36179H66.6397V3.22686C66.8401 2.91623 67.1227 2.66697 67.4561 2.50659C67.8108 2.33625 68.2004 2.25077 68.594 2.25693C68.9235 2.24289 69.2525 2.29499 69.5616 2.41013C69.8706 2.52527 70.1534 2.70111 70.3932 2.92727" fill="white"/>
<path d="M72.8789 1.17465C72.8139 1.11129 72.7626 1.03528 72.7282 0.951327C72.6938 0.867372 72.677 0.777258 72.6789 0.686566C72.677 0.595873 72.6938 0.50576 72.7282 0.421805C72.7626 0.33785 72.8139 0.26184 72.8789 0.19848C72.9425 0.133788 73.0187 0.0827975 73.1027 0.0486592C73.1868 0.014521 73.277 -0.00203981 73.3678 1.08674e-07C73.4559 -0.00126774 73.5434 0.0158403 73.6246 0.050231C73.7057 0.0846217 73.7788 0.135539 73.8392 0.199728C73.9025 0.264046 73.9522 0.34037 73.9855 0.424198C74.0188 0.508026 74.0349 0.597661 74.033 0.687814C74.035 0.777976 74.0189 0.867631 73.9856 0.951469C73.9523 1.03531 73.9025 1.11162 73.8392 1.1759C73.7788 1.24009 73.7057 1.29101 73.6246 1.3254C73.5434 1.35979 73.4559 1.3769 73.3678 1.37563C73.2769 1.37751 73.1867 1.36075 73.1026 1.32639C73.0185 1.29204 72.9424 1.23957 72.8789 1.17465ZM73.8567 8.43727H72.8464V2.36179H73.8567V8.43727Z" fill="white"/>
<path d="M76.9211 3.19316V6.77328C76.9099 6.88461 76.9208 6.99704 76.9532 7.10415C76.9856 7.21125 77.0389 7.31092 77.1099 7.39743C77.2974 7.53868 77.5315 7.6038 77.7651 7.57969H78.5153V8.43352H77.6051C77.1489 8.46854 76.6964 8.32983 76.3385 8.0453C76.1835 7.87367 76.066 7.67172 75.9935 7.4523C75.9209 7.23288 75.8949 7.00079 75.9171 6.77079V3.19316H75.1294V2.36179H75.9171V0.831371H76.9274V2.36179H78.5153V3.19316H76.9211Z" fill="white"/>
<path d="M79.8745 1.17465C79.8095 1.11129 79.7582 1.03528 79.7238 0.951328C79.6894 0.867373 79.6726 0.77726 79.6745 0.686567C79.6726 0.595875 79.6894 0.505761 79.7238 0.421806C79.7582 0.337851 79.8095 0.261841 79.8745 0.198482C79.938 0.133564 80.0141 0.0823425 80.0982 0.0479875C80.1823 0.0136325 80.2726 -0.00312461 80.3634 -0.00124645C80.4516 -0.0025143 80.539 0.0145938 80.6202 0.0489845C80.7014 0.0833752 80.7744 0.134292 80.8348 0.198482C80.8982 0.262757 80.9479 0.339074 80.9812 0.422912C81.0145 0.50675 81.0306 0.596405 81.0286 0.686567C81.0307 0.776739 81.0146 0.866414 80.9813 0.950262C80.9481 1.03411 80.8982 1.11042 80.8348 1.17465C80.7744 1.23884 80.7014 1.28976 80.6202 1.32415C80.539 1.35854 80.4516 1.37565 80.3634 1.37438C80.2726 1.37626 80.1823 1.3595 80.0982 1.32515C80.0141 1.29079 79.938 1.23957 79.8745 1.17465ZM80.8523 8.43602H79.842V2.36179H80.8523V8.43602Z" fill="white"/>
<path d="M82.6837 3.74116C82.9205 3.28735 83.2801 2.90894 83.7215 2.6489C84.1674 2.38778 84.6761 2.25272 85.1931 2.25818C85.6782 2.24611 86.1577 2.36468 86.581 2.60146C86.9463 2.80474 87.249 3.10389 87.4562 3.46653V2.36179H88.4778V8.43727H87.4562V7.30631C87.2428 7.67485 86.9341 7.97926 86.5622 8.18761C86.1415 8.4269 85.6635 8.5477 85.1794 8.53713C84.663 8.54394 84.1552 8.40551 83.714 8.13767C83.2721 7.86589 82.9146 7.47695 82.6812 7.0142C82.4239 6.50622 82.2951 5.94307 82.3061 5.37394C82.2929 4.80618 82.4219 4.24412 82.6812 3.73866M87.1824 4.18805C87.0108 3.86243 86.7508 3.59162 86.4322 3.40661C86.1155 3.23017 85.7589 3.13754 85.3963 3.13754C85.0337 3.13754 84.6771 3.23017 84.3604 3.40661C84.0438 3.58984 83.7858 3.85911 83.6165 4.18306C83.4245 4.55241 83.329 4.96417 83.3389 5.38018C83.3285 5.80182 83.4239 6.21935 83.6165 6.59477C83.7856 6.92141 84.0434 7.19393 84.3604 7.3812C84.6738 7.56311 85.0307 7.65713 85.3932 7.65333C85.7572 7.65661 86.1155 7.56266 86.431 7.3812C86.7506 7.19528 87.0107 6.92256 87.1812 6.59477C87.3729 6.2231 87.4683 5.80938 87.4587 5.39141C87.4686 4.97541 87.3731 4.56364 87.1812 4.19429" fill="white"/>
<path d="M91.5339 3.19316V6.77328C91.5227 6.88461 91.5336 6.99704 91.566 7.10415C91.5984 7.21125 91.6516 7.31092 91.7227 7.39743C91.9102 7.53868 92.1443 7.6038 92.3779 7.57969H93.1281V8.43352H92.2178C91.7617 8.46854 91.3091 8.32983 90.9512 8.0453C90.7963 7.87367 90.6788 7.67172 90.6063 7.4523C90.5337 7.23288 90.5077 7.00079 90.5299 6.77079V3.19316H89.7422V2.36179H90.5299V0.831371H91.5402V2.36179H93.1281V3.19316H91.5339Z" fill="white"/>
<path d="M94.4873 1.17465C94.4223 1.11129 94.371 1.03528 94.3366 0.951327C94.3021 0.867372 94.2854 0.777258 94.2873 0.686566C94.2854 0.595873 94.3021 0.50576 94.3366 0.421805C94.371 0.33785 94.4223 0.26184 94.4873 0.19848C94.5509 0.133788 94.6271 0.0827975 94.7111 0.0486592C94.7952 0.014521 94.8854 -0.00203981 94.9762 1.08674e-07C95.0643 -0.0011911 95.1518 0.0159518 95.2329 0.0503378C95.3141 0.0847238 95.3872 0.1356 95.4476 0.199728C95.5109 0.264046 95.5606 0.34037 95.5939 0.424198C95.6272 0.508026 95.6434 0.597661 95.6414 0.687814C95.6434 0.777976 95.6273 0.867631 95.594 0.951469C95.5607 1.03531 95.5109 1.11162 95.4476 1.1759C95.3872 1.24003 95.3141 1.2909 95.2329 1.32529C95.1518 1.35968 95.0643 1.37682 94.9762 1.37563C94.8853 1.37751 94.7951 1.36075 94.711 1.32639C94.6269 1.29204 94.5508 1.23957 94.4873 1.17465ZM95.4651 8.43727H94.4548V2.36179H95.4651V8.43727Z" fill="white"/>
<path d="M99.5608 7.50479L101.449 2.36054H102.527L100.137 8.43602H98.9607L96.5737 2.36054H97.6616L99.5608 7.50479Z" fill="white"/>
<path d="M109.156 5.77589H104.292C104.293 6.03183 104.345 6.2851 104.445 6.52063C104.545 6.75616 104.692 6.96916 104.876 7.14697C105.061 7.32478 105.279 7.46377 105.518 7.55569C105.758 7.64761 106.013 7.69058 106.269 7.68204C106.657 7.69585 107.039 7.58944 107.363 7.37746C107.651 7.17907 107.867 6.89319 107.98 6.56232H109.067C108.913 7.13404 108.568 7.63628 108.09 7.98663C107.56 8.36563 106.919 8.55877 106.268 8.53588C105.726 8.54493 105.192 8.411 104.719 8.14766C104.264 7.88914 103.892 7.50632 103.647 7.04416C103.38 6.53314 103.246 5.96289 103.258 5.38642C103.245 4.81342 103.374 4.24599 103.633 3.73492C103.872 3.27509 104.241 2.89531 104.694 2.64265C105.176 2.37978 105.719 2.24725 106.269 2.25818C106.804 2.24685 107.333 2.37599 107.802 2.63267C108.236 2.87373 108.592 3.2331 108.829 3.66876C109.074 4.12692 109.198 4.63984 109.19 5.15923C109.189 5.36315 109.178 5.56689 109.156 5.76965M107.891 3.95712C107.725 3.68443 107.484 3.46515 107.197 3.32547C106.894 3.17925 106.562 3.10532 106.225 3.10952C105.744 3.09875 105.276 3.27353 104.92 3.5976C104.547 3.95168 104.326 4.43624 104.304 4.94951H108.146C108.157 4.60189 108.07 4.25812 107.896 3.95712" fill="white"/>
<path d="M5.06388 6.68216H1.68796L1.06279 8.40107H0L2.79826 0.717773H3.96358L6.75184 8.39982H5.6853L5.06388 6.68216ZM4.77505 5.86202L3.37592 1.95983L1.97554 5.86202H4.77505Z" fill="white"/>
<path d="M12.2419 1.75012C11.8473 2.11434 11.5363 2.55956 11.3304 3.05518C11.1245 3.55079 11.0285 4.08505 11.0491 4.62121C11.0428 5.16604 11.1453 5.70666 11.3504 6.21155C11.5501 6.70018 11.8519 7.14066 12.2357 7.50354C12.6161 7.85912 13.0655 8.13313 13.5561 8.30869C14.087 8.49478 14.6464 8.58688 15.209 8.58082C16.2399 8.59064 17.2543 8.32192 18.1448 7.80313V6.01307C17.717 6.31441 17.2506 6.55708 16.7582 6.73458C16.3127 6.89365 15.8434 6.97596 15.3703 6.978C15.0562 6.99375 14.7422 6.94493 14.4477 6.83456C14.1533 6.72419 13.8847 6.55463 13.6586 6.33638C13.4425 6.10801 13.275 5.83828 13.1663 5.54349C13.0575 5.24869 13.0098 4.93495 13.0259 4.62121C13.0084 4.30126 13.0586 3.98122 13.1735 3.682C13.2883 3.38279 13.4651 3.11114 13.6923 2.88482C14.1956 2.44548 14.8517 2.22131 15.5191 2.26067C15.9552 2.26188 16.3884 2.33095 16.8032 2.4654C17.2545 2.61221 17.6839 2.81922 18.0798 3.08081V1.27701C17.6589 1.0708 17.216 0.912922 16.7594 0.806404C16.3105 0.702999 15.8511 0.65148 15.3903 0.652862C14.2384 0.599011 13.11 0.990176 12.2394 1.74513" fill="white"/>
<path d="M27.6539 3.99831V8.45225H29.627V6.38756H32.2114V8.45225H34.1845V3.99831C34.193 3.56484 34.1148 3.13403 33.9545 2.73109C33.7942 2.32815 33.5551 1.96117 33.251 1.65162C32.947 1.34206 32.5841 1.09616 32.1838 0.928289C31.7834 0.760419 31.3535 0.673954 30.9192 0.673954C30.485 0.673954 30.055 0.760419 29.6547 0.928289C29.2543 1.09616 28.8914 1.34206 28.5874 1.65162C28.2833 1.96117 28.0442 2.32815 27.8839 2.73109C27.7236 3.13403 27.6454 3.56484 27.6539 3.99831ZM32.2127 5.01068H29.627V3.94588C29.6374 3.61067 29.7782 3.29267 30.0194 3.05924C30.2606 2.82581 30.5833 2.69527 30.9192 2.69527C31.2551 2.69527 31.5779 2.82581 31.8191 3.05924C32.0603 3.29267 32.201 3.61067 32.2114 3.94588L32.2127 5.01068Z" fill="white"/>
<path d="M51.3441 0.787682V2.21199H55.2202L50.999 8.44726H58.4686V6.96677H54.2987L58.4911 0.787682H51.3441Z" fill="white"/>
<path d="M47.8669 0.787682V5.35896L43.7533 0.792675H42.0703V8.44726H43.9696V3.63506L48.262 8.44726H49.7624V0.787682H47.8669Z" fill="white"/>
<path d="M35.9486 1.27701C35.6952 1.45773 35.4896 1.69726 35.3495 1.97497C35.2095 2.25267 35.1391 2.56022 35.1446 2.87109C35.1354 3.15511 35.1855 3.43794 35.2916 3.70161C35.3977 3.96529 35.5576 4.20406 35.7611 4.40276C36.4278 4.94091 37.1956 5.34069 38.0192 5.57866C38.3209 5.66218 38.6059 5.79688 38.8619 5.97686C38.9277 6.04184 38.978 6.1209 39.0088 6.20807C39.0395 6.29525 39.0501 6.38826 39.0396 6.4801C39.0291 6.57194 38.9979 6.66021 38.9483 6.73824C38.8987 6.81628 38.8319 6.88204 38.7531 6.93057C38.4876 7.06051 38.1931 7.11984 37.8979 7.10283C37.5033 7.09898 37.1124 7.02676 36.7426 6.88937C36.2315 6.689 35.7419 6.4381 35.2809 6.14039V7.83434C36.0798 8.32746 37.0012 8.58695 37.9404 8.58332C38.7307 8.62977 39.5146 8.4167 40.1723 7.97664C40.4322 7.7849 40.6413 7.53258 40.7812 7.24168C40.9211 6.95077 40.9876 6.63012 40.975 6.30767C40.9853 5.91836 40.8994 5.53251 40.7249 5.18419C40.5514 4.85797 40.292 4.5852 39.9747 4.39527C39.471 4.11877 38.9443 3.88614 38.4005 3.69996C38.2505 3.64629 38.138 3.60509 38.0654 3.57513C37.7866 3.48272 37.5244 3.34616 37.289 3.17068C37.214 3.11999 37.1516 3.05277 37.1067 2.9742C37.0618 2.89563 37.0356 2.80783 37.0301 2.71755C37.0297 2.62232 37.0565 2.52894 37.1075 2.44843C37.1584 2.36792 37.2314 2.30364 37.3177 2.26317C37.5789 2.1426 37.8657 2.08815 38.153 2.10464C38.5328 2.11135 38.9095 2.17446 39.2708 2.29188C39.7487 2.44344 40.2127 2.63598 40.6574 2.86735V1.28825C40.2418 1.08832 39.8064 0.932266 39.3583 0.822631C38.9295 0.717476 38.4895 0.664248 38.0479 0.664096C37.3021 0.629519 36.5661 0.845296 35.9574 1.27701" fill="white"/>
<path d="M24.5715 0.787682V3.861H21.1531V0.787682H19.2363V8.44726H21.1531V5.34024H24.5678V8.44726H26.4896V0.787682H24.5715Z" fill="white"/>
</g>
</g>
<defs>
<clipPath id="clip0_9_1176">
<rect width="247" height="90" fill="white"/>
</clipPath>
</defs>
</svg>
