<svg width="309" height="66" viewBox="0 0 309 66" fill="none" xmlns="http://www.w3.org/2000/svg">
<g clip-path="url(#clip0_732_2253)">
<path d="M80.5277 16.3703C81.95 13.7719 83.9412 11.7451 86.5014 10.316C89.0615 8.86086 91.9319 8.1333 95.1644 8.1333C99.121 8.1333 102.509 9.17267 105.327 11.2774C108.146 13.3821 110.034 16.2404 110.991 19.8782H102.069C101.397 18.475 100.466 17.4097 99.2503 16.6821C98.0349 15.9546 96.6384 15.5908 95.0868 15.5908C92.5784 15.5908 90.5614 16.4742 89.0098 18.2152C87.4582 19.9561 86.6824 22.2947 86.6824 25.2309C86.6824 28.1672 87.4582 30.5057 89.0098 32.2467C90.5614 33.9876 92.5784 34.8711 95.0868 34.8711C96.6384 34.8711 98.0349 34.5073 99.2503 33.7798C100.466 33.0522 101.423 31.9868 102.069 30.5837H110.991C110.034 34.2215 108.146 37.0798 105.327 39.1585C102.509 41.2372 99.121 42.2766 95.1644 42.2766C91.9319 42.2766 89.0356 41.549 86.5014 40.0939C83.9412 38.6388 81.9759 36.638 80.5277 34.0656C79.1054 31.4931 78.3813 28.5569 78.3813 25.2309C78.3813 21.905 79.1054 18.9687 80.5277 16.3703Z" fill="#333334"/>
<path d="M144.841 8.52295V42.0167H136.721V28.219H124.076V42.0167H115.956V8.52295H124.076V21.645H136.721V8.52295H144.841Z" fill="#333334"/>
<path d="M171.425 36.0922H158.987L156.995 42.0167H148.488L160.564 8.52295H169.977L182.054 42.0167H173.468L171.477 36.0922H171.425ZM169.356 29.8041L165.219 17.5395L161.133 29.8041H169.356Z" fill="#333334"/>
<path d="M191.208 41.1592C189.269 40.3537 187.743 39.1844 186.579 37.6254C185.416 36.0663 184.821 34.1954 184.743 31.9868H193.38C193.51 33.234 193.923 34.1695 194.673 34.8191C195.397 35.4687 196.354 35.8065 197.518 35.8065C198.682 35.8065 199.664 35.5206 200.363 34.975C201.061 34.4293 201.397 33.6498 201.397 32.6624C201.397 31.8309 201.112 31.1553 200.569 30.6096C200.026 30.0639 199.328 29.6222 198.526 29.2844C197.725 28.9466 196.561 28.5309 195.087 28.0891C192.941 27.4136 191.182 26.7639 189.812 26.0884C188.441 25.4128 187.277 24.4254 186.295 23.1261C185.312 21.8269 184.821 20.112 184.821 18.0073C184.821 14.8891 185.933 12.4466 188.183 10.6797C190.432 8.91276 193.355 8.0293 196.975 8.0293C200.595 8.0293 203.621 8.91276 205.871 10.6797C208.121 12.4466 209.31 14.9151 209.491 18.0592H200.699C200.647 16.9679 200.233 16.1364 199.509 15.5128C198.785 14.8891 197.854 14.5773 196.716 14.5773C195.734 14.5773 194.932 14.8372 194.337 15.3569C193.742 15.8765 193.432 16.6301 193.432 17.6175C193.432 18.7088 193.949 19.5403 194.958 20.138C195.966 20.7356 197.544 21.3852 199.716 22.0868C201.862 22.8143 203.621 23.5159 204.966 24.1915C206.31 24.8671 207.474 25.8285 208.457 27.1017C209.439 28.375 209.931 30.012 209.931 32.0128C209.931 34.0135 209.439 35.6506 208.483 37.2096C207.526 38.7687 206.103 40.0159 204.267 40.9254C202.431 41.8608 200.259 42.3025 197.751 42.3025C195.242 42.3025 193.122 41.9128 191.208 41.1073V41.1592Z" fill="#333334"/>
<path d="M244.738 42.0167H236.618L223.042 21.3592V42.0167H214.922V8.52295H223.042L236.618 29.2844V8.52295H244.738V42.0167Z" fill="#333334"/>
<path d="M259.271 35.3388H273.624V42.0168H250.065V35.8065L264.314 15.175H250.065V8.49707H273.624V14.7073L259.271 35.3388Z" fill="#333334"/>
<path d="M32.8421 66C50.9803 66 65.6842 51.2254 65.6842 33C65.6842 14.7746 50.9803 0 32.8421 0C14.7039 0 0 14.7746 0 33C0 51.2254 14.7039 66 32.8421 66Z" fill="#618182"/>
<path d="M32.8421 38.4829C32.8421 38.4829 51.0475 38.5868 52.1077 36.5081C52.1077 36.5081 53.0387 28.0112 48.4356 22.8403C48.3063 22.7104 48.0994 22.7104 47.996 22.8403L43.8843 28.1411C43.8843 28.1411 43.7291 28.1411 43.755 28.0632L46.5478 21.1773C46.5996 21.0214 46.5478 20.8655 46.4444 20.7356C45.7203 20.06 42.9275 17.6955 38.5313 16.5262C38.3503 16.4742 38.1951 16.6041 38.1692 16.786L36.5659 32.3246C36.5659 32.3246 36.4883 32.3766 36.4883 32.3246V16.0844C36.4883 16.0844 36.4883 13.9277 34.3678 13.9277H31.2646C29.1441 13.9277 29.1441 16.0844 29.1441 16.0844V32.3246C29.1441 32.3246 29.0666 32.3766 29.0666 32.3246L27.4632 16.786C27.4632 16.6041 27.2822 16.5002 27.1012 16.5262C22.705 17.7214 19.9121 20.06 19.1881 20.7356C19.0588 20.8395 19.0329 21.0214 19.0846 21.1773L21.8775 28.0632C21.8775 28.0632 21.7999 28.1931 21.7482 28.1411L17.6365 22.8403L29.7648 38.4569C31.575 38.4569 32.7904 38.4569 32.7904 38.4569L32.8421 38.4829Z" fill="white"/>
<path opacity="0.75" d="M29.8165 38.4569L17.6882 22.8403C17.5848 22.7104 17.3779 22.6844 17.2486 22.8403C12.6455 28.0112 13.5765 36.508 13.5765 36.508C14.3781 38.0671 24.6187 38.4049 29.8424 38.4828L29.8165 38.4569Z" fill="white"/>
<path opacity="0.75" d="M13.6541 37.3651C13.6541 37.3651 13.3955 37.2871 13.2662 37.2871C12.0508 37.3131 8.14592 37.5729 8.06834 39.9635C7.99076 42.458 28.4459 43.0556 32.8163 43.0296C32.9714 43.0296 33.1266 43.0296 33.3076 43.0296L30.463 39.3658C17.7658 39.2099 14.3523 37.7288 13.6282 37.391L13.6541 37.3651Z" fill="white"/>
<path d="M57.59 39.9376C57.5124 37.573 53.6334 37.2872 52.3921 37.2612C52.2628 37.2612 52.1335 37.2872 52.0042 37.3392C51.2543 37.703 47.4529 39.34 32.842 39.34C32.0145 39.34 31.2387 39.34 30.5146 39.34L33.3592 43.0037C38.6088 43.0037 57.6675 42.3541 57.6158 39.9376H57.59Z" fill="white"/>
<path d="M98.3711 51.917L94.8024 64.7532H91.7768L89.3718 55.6068L86.8634 64.7532H83.8637L80.4243 51.917H83.1655L85.4153 61.8949L88.0271 51.917H90.8717L93.3284 61.843L95.6041 51.917H98.3711Z" fill="#618283"/>
<path d="M102.664 64.0514C101.655 63.4797 100.88 62.7002 100.285 61.7128C99.69 60.7254 99.4055 59.5821 99.4055 58.3089C99.4055 57.0357 99.69 55.9443 100.285 54.9309C100.88 53.9175 101.655 53.138 102.664 52.5923C103.672 52.0207 104.759 51.7349 105.948 51.7349C107.138 51.7349 108.25 52.0207 109.258 52.5923C110.241 53.164 111.042 53.9435 111.611 54.9309C112.18 55.9183 112.491 57.0616 112.491 58.3089C112.491 59.5561 112.206 60.6994 111.611 61.7128C111.042 62.7002 110.241 63.5057 109.232 64.0514C108.224 64.6231 107.138 64.9089 105.922 64.9089C104.707 64.9089 103.621 64.6231 102.638 64.0514H102.664ZM107.991 62.0766C108.586 61.7388 109.025 61.2191 109.362 60.5695C109.698 59.9199 109.853 59.1664 109.853 58.3089C109.853 57.4514 109.698 56.6979 109.362 56.0482C109.025 55.3986 108.586 54.9049 107.991 54.5671C107.396 54.2294 106.724 54.0475 105.948 54.0475C105.172 54.0475 104.5 54.2294 103.905 54.5671C103.31 54.9049 102.845 55.3986 102.535 56.0482C102.198 56.6979 102.043 57.4514 102.043 58.3089C102.043 59.1664 102.198 59.9199 102.535 60.5695C102.871 61.2191 103.336 61.7128 103.905 62.0766C104.5 62.4144 105.172 62.5963 105.948 62.5963C106.724 62.5963 107.396 62.4144 107.991 62.0766Z" fill="#618283"/>
<path d="M120.999 64.7532L118.18 59.7383H116.964V64.7532H114.404V51.917H119.214C120.197 51.917 121.05 52.0989 121.749 52.4367C122.447 52.7745 122.964 53.2682 123.326 53.8658C123.662 54.4634 123.843 55.1131 123.843 55.8666C123.843 56.7241 123.61 57.4776 123.119 58.1532C122.628 58.8288 121.904 59.2965 120.947 59.5564L123.998 64.7532H121.024H120.999ZM116.964 57.8414H119.111C119.809 57.8414 120.326 57.6855 120.662 57.3477C120.999 57.0099 121.18 56.5422 121.18 55.9446C121.18 55.3469 120.999 54.9052 120.662 54.5674C120.326 54.2556 119.809 54.0737 119.111 54.0737H116.964V57.8414Z" fill="#618283"/>
<path d="M133.359 64.7532L128.705 59.0367V64.7532H126.145V51.917H128.705V57.6855L133.359 51.917H136.463L131.187 58.2831L136.618 64.7532H133.385H133.359Z" fill="#618283"/>
<path d="M144.635 64.4412C143.91 64.1294 143.367 63.6876 142.954 63.116C142.54 62.5443 142.333 61.8687 142.307 61.0632H145.048C145.074 61.5829 145.281 61.9986 145.617 62.3105C145.953 62.6223 146.419 62.7782 147.014 62.7782C147.608 62.7782 148.074 62.6223 148.41 62.3364C148.746 62.0506 148.927 61.6608 148.927 61.1931C148.927 60.8034 148.824 60.4916 148.591 60.2577C148.358 60.0238 148.074 59.816 147.712 59.686C147.376 59.5561 146.884 59.4002 146.264 59.2183C145.436 58.9845 144.764 58.7246 144.247 58.4908C143.729 58.2569 143.29 57.8931 142.902 57.3994C142.54 56.9057 142.333 56.2561 142.333 55.4506C142.333 54.6971 142.514 54.0215 142.902 53.4758C143.29 52.9042 143.807 52.4884 144.505 52.1766C145.178 51.8648 145.979 51.7349 146.858 51.7349C148.177 51.7349 149.238 52.0467 150.065 52.6963C150.893 53.3459 151.332 54.2294 151.436 55.3986H148.617C148.617 54.9569 148.41 54.5931 148.048 54.3073C147.712 54.0215 147.246 53.8656 146.677 53.8656C146.186 53.8656 145.772 53.9955 145.488 54.2553C145.203 54.5152 145.048 54.879 145.048 55.3727C145.048 55.7105 145.152 55.9963 145.384 56.2301C145.617 56.464 145.902 56.6459 146.238 56.7758C146.574 56.9057 147.039 57.0876 147.66 57.2695C148.488 57.5034 149.16 57.7632 149.703 57.9971C150.22 58.2309 150.686 58.6207 151.048 59.0884C151.436 59.5821 151.617 60.2317 151.617 61.0112C151.617 61.6868 151.436 62.3364 151.074 62.9341C150.712 63.5317 150.194 63.9994 149.522 64.3372C148.85 64.675 148.022 64.8569 147.091 64.8569C146.16 64.8569 145.384 64.701 144.686 64.3892L144.635 64.4412Z" fill="#618283"/>
<path d="M164.391 51.917V64.7532H161.831V59.2965H156.349V64.7532H153.789V51.917H156.349V57.1918H161.831V51.917H164.391Z" fill="#618283"/>
<path d="M169.564 64.0514C168.555 63.4797 167.779 62.7002 167.184 61.7128C166.59 60.7254 166.305 59.5821 166.305 58.3089C166.305 57.0357 166.59 55.9443 167.184 54.9309C167.779 53.9175 168.555 53.138 169.564 52.5923C170.572 52.0207 171.658 51.7349 172.848 51.7349C174.037 51.7349 175.149 52.0207 176.158 52.5923C177.14 53.164 177.942 53.9435 178.511 54.9309C179.08 55.9183 179.39 57.0616 179.39 58.3089C179.39 59.5561 179.106 60.6994 178.511 61.7128C177.916 62.7262 177.14 63.5057 176.132 64.0514C175.123 64.6231 174.037 64.9089 172.848 64.9089C171.658 64.9089 170.546 64.6231 169.564 64.0514ZM174.891 62.0766C175.485 61.7388 175.925 61.2191 176.261 60.5695C176.597 59.9199 176.753 59.1664 176.753 58.3089C176.753 57.4514 176.597 56.6979 176.261 56.0482C175.925 55.3986 175.485 54.9049 174.891 54.5671C174.296 54.2294 173.624 54.0475 172.848 54.0475C172.072 54.0475 171.4 54.2294 170.805 54.5671C170.21 54.9049 169.745 55.3986 169.408 56.0482C169.072 56.6979 168.917 57.4514 168.917 58.3089C168.917 59.1664 169.072 59.9199 169.408 60.5695C169.745 61.2191 170.21 61.7128 170.805 62.0766C171.4 62.4144 172.072 62.5963 172.848 62.5963C173.624 62.5963 174.296 62.4144 174.891 62.0766Z" fill="#618283"/>
<path d="M183.812 51.917V59.8682C183.812 60.7257 184.045 61.4012 184.485 61.869C184.924 62.3367 185.571 62.5705 186.398 62.5705C187.226 62.5705 187.872 62.3367 188.312 61.869C188.777 61.4012 188.984 60.7516 188.984 59.8682V51.917H191.57V59.8422C191.57 60.9335 191.338 61.843 190.872 62.6225C190.407 63.3761 189.786 63.9477 188.984 64.3115C188.209 64.7012 187.329 64.8831 186.347 64.8831C185.364 64.8831 184.536 64.7012 183.761 64.3115C182.985 63.9217 182.364 63.3761 181.925 62.6225C181.485 61.869 181.252 60.9335 181.252 59.8422V51.917H183.812Z" fill="#618283"/>
<path d="M196.613 62.7263H200.828V64.7791H194.053V51.9429H196.613V62.7523V62.7263Z" fill="#618283"/>
<path d="M210.474 52.7224C211.482 53.2421 212.284 53.9956 212.827 54.983C213.37 55.9704 213.655 57.0878 213.655 58.387C213.655 59.6862 213.37 60.8035 212.827 61.7649C212.284 62.7263 211.482 63.4799 210.474 63.9996C209.465 64.5192 208.276 64.7791 206.931 64.7791H202.457V51.9429H206.931C208.276 51.9429 209.465 52.2027 210.474 52.7224ZM209.931 61.4791C210.655 60.7515 211.043 59.7122 211.043 58.361C211.043 57.0098 210.681 55.9704 209.931 55.2169C209.207 54.4633 208.172 54.0736 206.828 54.0736H205.017V62.5444H206.828C208.172 62.5444 209.207 62.1807 209.931 61.4531V61.4791Z" fill="#618283"/>
<path d="M230.877 64.7528H228.317L222.525 55.9442V64.7528H219.964V51.8906H222.525L228.317 60.7253V51.8906H230.877V64.7528Z" fill="#618283"/>
<path d="M236.023 64.0514C235.015 63.4797 234.239 62.7002 233.644 61.7128C233.05 60.7254 232.765 59.5821 232.765 58.3089C232.765 57.0357 233.05 55.9443 233.644 54.9309C234.239 53.9175 235.015 53.138 236.023 52.5923C237.032 52.0207 238.118 51.7349 239.308 51.7349C240.497 51.7349 241.609 52.0207 242.618 52.5923C243.6 53.164 244.402 53.9435 244.971 54.9309C245.54 55.9183 245.85 57.0616 245.85 58.3089C245.85 59.5561 245.566 60.6994 244.971 61.7128C244.402 62.7002 243.6 63.5057 242.592 64.0514C241.583 64.6231 240.497 64.9089 239.282 64.9089C238.066 64.9089 236.98 64.6231 235.998 64.0514H236.023ZM241.351 62.0766C241.945 61.7388 242.385 61.2191 242.721 60.5695C243.057 59.9199 243.213 59.1664 243.213 58.3089C243.213 57.4514 243.057 56.6979 242.721 56.0482C242.385 55.3986 241.945 54.9049 241.351 54.5671C240.756 54.2294 240.083 54.0475 239.308 54.0475C238.532 54.0475 237.86 54.2294 237.265 54.5671C236.67 54.9049 236.205 55.3986 235.894 56.0482C235.558 56.6979 235.403 57.4514 235.403 58.3089C235.403 59.1664 235.558 59.9199 235.894 60.5695C236.23 61.2191 236.696 61.7128 237.265 62.0766C237.86 62.4144 238.532 62.5963 239.308 62.5963C240.083 62.5963 240.756 62.4144 241.351 62.0766Z" fill="#618283"/>
<path d="M256.453 51.917V53.9957H253.039V64.7532H250.479V53.9957H247.065V51.917H256.427H256.453Z" fill="#618283"/>
<path d="M273.288 51.917V64.7532H270.727V59.2965H265.245V64.7532H262.685V51.917H265.245V57.1918H270.727V51.917H273.288Z" fill="#618283"/>
<path d="M278.33 51.917V59.8682C278.33 60.7257 278.563 61.4012 279.003 61.869C279.468 62.3367 280.089 62.5705 280.916 62.5705C281.744 62.5705 282.39 62.3367 282.83 61.869C283.269 61.4012 283.502 60.7516 283.502 59.8682V51.917H286.088V59.8422C286.088 60.9335 285.855 61.843 285.39 62.6225C284.924 63.3761 284.304 63.9477 283.502 64.3115C282.7 64.6753 281.847 64.8831 280.864 64.8831C279.882 64.8831 279.054 64.7012 278.278 64.3115C277.503 63.9217 276.882 63.3761 276.442 62.6225C275.977 61.869 275.77 60.9335 275.77 59.8422V51.917H278.33Z" fill="#618283"/>
<path d="M295.165 64.7532L292.346 59.7383H291.131V64.7532H288.571V51.917H293.381C294.363 51.917 295.217 52.0989 295.915 52.4367C296.613 52.7745 297.13 53.2682 297.492 53.8658C297.829 54.4634 298.01 55.1131 298.01 55.8666C298.01 56.7241 297.777 57.4776 297.286 58.1532C296.794 58.8288 296.07 59.2965 295.113 59.5564L298.165 64.7532H295.191H295.165ZM291.131 57.8414H293.277C293.976 57.8414 294.493 57.6855 294.829 57.3477C295.165 57.0099 295.346 56.5422 295.346 55.9446C295.346 55.3469 295.165 54.9052 294.829 54.5674C294.493 54.2556 293.976 54.0737 293.277 54.0737H291.131V57.8414Z" fill="#618283"/>
<path d="M309 51.917V53.9957H305.586V64.7532H303.026V53.9957H299.613V51.917H308.974H309Z" fill="#618283"/>
</g>
<defs>
<clipPath id="clip0_732_2253">
<rect width="309" height="66" fill="white"/>
</clipPath>
</defs>
</svg>
