<svg width="194" height="117" viewBox="0 0 194 117" fill="none" xmlns="http://www.w3.org/2000/svg">
<g clip-path="url(#clip0_9_837)">
<mask id="mask0_9_837" style="mask-type:luminance" maskUnits="userSpaceOnUse" x="0" y="0" width="194" height="117">
<path d="M194 0H0V117H194V0Z" fill="white"/>
</mask>
<g mask="url(#mask0_9_837)">
<path d="M169.576 92.9631C169.352 92.9576 169.139 92.8658 168.981 92.7066C168.823 92.5475 168.732 92.3332 168.726 92.1082V76.235H162.863C162.75 76.2382 162.637 76.217 162.532 76.1728C162.427 76.1285 162.332 76.0623 162.255 75.9785C162.176 75.8951 162.114 75.7969 162.072 75.6894C162.031 75.5819 162.011 75.4672 162.014 75.3519V71.4753C162.013 71.3645 162.034 71.2547 162.075 71.1521C162.117 71.0495 162.178 70.9562 162.255 70.8774C162.332 70.7935 162.427 70.7271 162.532 70.6828C162.636 70.6385 162.75 70.6172 162.863 70.6204H182.465C182.581 70.6181 182.696 70.6397 182.804 70.6839C182.911 70.7281 183.008 70.794 183.089 70.8774C183.17 70.9543 183.234 71.047 183.278 71.1499C183.321 71.2527 183.344 71.3634 183.343 71.4753V75.3519C183.344 75.4682 183.322 75.5835 183.279 75.6911C183.235 75.7988 183.17 75.8965 183.088 75.9788C183.007 76.061 182.909 76.126 182.802 76.17C182.695 76.214 182.581 76.2361 182.465 76.235H176.628V92.1096C176.63 92.3333 176.543 92.5486 176.388 92.7084C176.31 92.7919 176.216 92.8579 176.111 92.9021C176.006 92.9462 175.893 92.9675 175.78 92.9645L169.576 92.9631Z" fill="white"/>
<path d="M35.8099 9.20644C35.9512 9.19852 36.0923 9.22562 36.2208 9.28537C36.3493 9.34512 36.4612 9.4357 36.5468 9.54915C36.631 9.66765 36.6832 9.80618 36.6981 9.95112C36.7131 10.0961 36.6902 10.2424 36.6319 10.3758L29.0409 31.3538C28.9726 31.5197 28.8534 31.6594 28.7008 31.7525C28.5607 31.8558 28.3934 31.9151 28.2199 31.9229H24.9624C24.801 31.92 24.6438 31.871 24.5091 31.7817C24.3634 31.6927 24.2457 31.5641 24.1694 31.4107L18.221 18.926L12.5285 31.4079C12.4547 31.5594 12.336 31.6841 12.1888 31.7647C12.0455 31.8604 11.8788 31.9145 11.7069 31.921H8.47893C8.30527 31.9132 8.13779 31.8539 7.99753 31.7506C7.84504 31.6573 7.72594 31.5177 7.65742 31.3519L0.0659719 10.3753C0.00716275 10.2413 -0.0146631 10.0938 0.00278991 9.9483C0.0202429 9.80283 0.0763297 9.66479 0.165152 9.54868C0.253992 9.43595 0.368195 9.34608 0.498341 9.28649C0.628487 9.22691 0.770846 9.19931 0.913677 9.20597H6.86399C7.042 9.21506 7.21387 9.27445 7.35988 9.37733C7.51808 9.46778 7.64234 9.60804 7.71356 9.77652L11.0272 19.2085L15.6157 9.71768C15.6894 9.56644 15.8081 9.44205 15.9553 9.36179C16.0985 9.26579 16.2652 9.21139 16.4372 9.20456H20.2888C20.4586 9.20958 20.6243 9.25819 20.7702 9.34579C20.8452 9.38196 20.9117 9.43366 20.9655 9.49751C21.0193 9.56135 21.0591 9.63589 21.0822 9.71627L25.5289 19.1783L28.9277 9.77323C28.996 9.6073 29.115 9.46751 29.2673 9.37403C29.4164 9.26682 29.5941 9.20713 29.7773 9.20268L35.8099 9.20644Z" fill="white"/>
<path d="M51.2973 90.6559C49.0517 92.5556 45.738 93.5054 41.356 93.5054C36.974 93.5054 33.66 92.5556 31.4141 90.6559C29.1686 88.7563 28.0458 85.8587 28.0458 81.9631C28.0458 78.0675 29.1686 75.1645 31.4141 73.2542C33.6597 71.3452 36.9737 70.3905 41.356 70.3902C45.7383 70.3899 49.0521 71.3446 51.2973 73.2542C53.5429 75.1639 54.6665 78.0669 54.668 81.9631C54.6696 85.8593 53.546 88.7569 51.2973 90.6559ZM45.4209 78.2729C44.4853 77.4466 43.1304 77.0331 41.3564 77.0325C39.5824 77.0318 38.2323 77.4453 37.306 78.2729C36.3806 79.0992 35.9181 80.3293 35.9184 81.9631C35.9187 83.5969 36.3812 84.8271 37.306 85.6538C38.231 86.4801 39.5812 86.8932 41.3564 86.8932C43.1317 86.8932 44.4865 86.4801 45.4209 85.6538C46.355 84.8268 46.8228 83.5966 46.8244 81.9631C46.826 80.3296 46.3581 79.0995 45.4209 78.2729Z" fill="white"/>
<path d="M86.043 23.6853V30.7244C86.0433 30.8364 86.0209 30.9472 85.9771 31.0502C85.9334 31.1532 85.8692 31.2461 85.7885 31.3232C85.7074 31.4065 85.6103 31.4722 85.503 31.5163C85.3958 31.5604 85.2807 31.582 85.1649 31.5797H78.8773C78.6536 31.5741 78.4406 31.4822 78.2824 31.323C78.1241 31.1638 78.0328 30.9495 78.0272 30.7244V10.09C78.0331 9.86511 78.1246 9.65104 78.2828 9.49198C78.4409 9.33291 78.6537 9.24099 78.8773 9.23516H93.0955C95.5317 9.23516 97.4861 9.77652 98.9588 10.8592C99.7065 11.375 100.315 12.0695 100.731 12.8803C101.146 13.6912 101.355 14.593 101.338 15.5051C101.338 17.6705 100.687 19.2381 99.3836 20.2079C99.0324 20.474 98.658 20.7076 98.265 20.906C97.8125 21.136 97.3434 21.3312 96.8615 21.4897C97.8809 22.0183 98.7709 22.7681 99.4673 23.6848L103.348 30.2678C103.439 30.3965 103.491 30.5487 103.5 30.7066C103.508 30.8644 103.471 31.0213 103.394 31.1589C103.316 31.2965 103.202 31.4091 103.063 31.4835C102.925 31.5578 102.768 31.5909 102.611 31.5788H95.4183C95.2611 31.5773 95.108 31.5281 94.979 31.4376C94.8443 31.3513 94.732 31.234 94.6515 31.0953L91.0258 24.3118L91.0544 24.3688C90.9786 24.2747 90.8981 24.1805 90.8134 24.084C90.7358 23.9948 90.6451 23.918 90.5444 23.8562C90.3932 23.7426 89.8079 23.6856 88.7887 23.6853H86.043ZM85.8736 14.3362V18.5833H89.2724C90.3421 18.6356 91.4112 18.4707 92.4162 18.0984C92.7546 17.9595 93.0408 17.7166 93.234 17.4045C93.4272 17.0923 93.5175 16.7268 93.4922 16.3599C93.5118 16.0519 93.4452 15.7445 93.3 15.4726C93.1548 15.2007 92.9368 14.9752 92.6707 14.8215C91.9329 14.4558 91.1134 14.2886 90.2923 14.3362H85.8736Z" fill="white"/>
<path d="M106.312 31.5793C106.088 31.574 105.875 31.4822 105.717 31.3231C105.559 31.1639 105.468 30.9495 105.462 30.7244V10.09C105.468 9.86508 105.559 9.65088 105.717 9.49176C105.876 9.33263 106.088 9.24077 106.312 9.23516H112.458C112.681 9.24077 112.894 9.33263 113.052 9.49176C113.211 9.65088 113.302 9.86508 113.307 10.09V17.1866L119.99 9.52043C120.083 9.44135 120.188 9.37863 120.301 9.33496C120.408 9.28067 120.523 9.24683 120.642 9.23516H127.213C127.393 9.23246 127.569 9.28145 127.723 9.37638C127.867 9.46334 127.981 9.59263 128.05 9.74686C128.116 9.89911 128.141 10.0663 128.121 10.2313C128.101 10.4052 128.02 10.5666 127.894 10.6874L119.936 19.4951L130.727 30.0969C130.865 30.2281 130.963 30.3963 131.01 30.5818C131.048 30.7436 131.033 30.9136 130.967 31.0662C130.902 31.2178 130.793 31.3467 130.655 31.4366C130.499 31.5357 130.316 31.5849 130.131 31.5779H122.513C122.4 31.5689 122.289 31.5399 122.185 31.4922C122.082 31.4542 121.983 31.407 121.888 31.351L113.306 22.9434V30.7244C113.301 30.9495 113.21 31.1639 113.051 31.3231C112.893 31.4822 112.68 31.574 112.456 31.5793H106.312Z" fill="white"/>
<path d="M21.0302 58.2962C20.5693 59.2346 19.8887 60.0463 19.0471 60.6617C18.0992 61.3402 17.0329 61.8332 15.9038 62.1149C14.5387 62.4632 13.1343 62.631 11.7261 62.6139C10.8949 62.6139 10.0684 62.5806 9.24659 62.5141C8.42477 62.4475 7.60794 62.3479 6.7961 62.2152C6.60897 62.1775 6.44367 62.1489 6.3002 62.1295C6.15244 62.1095 6.00593 62.081 5.86138 62.0443V62.072C5.31371 61.9779 4.84588 61.8877 4.4579 61.8014C4.06991 61.7151 3.77253 61.6532 3.56575 61.6159C3.3877 61.5735 3.22842 61.4735 3.11242 61.3311C2.98857 61.1973 2.90939 61.028 2.88599 60.8467L2.43267 55.4331C2.40459 55.2791 2.42182 55.1202 2.48224 54.976C2.54266 54.8317 2.64364 54.7083 2.77278 54.621C2.90068 54.5326 3.05054 54.4817 3.20555 54.4741C3.36057 54.4666 3.51461 54.5026 3.65042 54.5782C4.90566 55.1702 6.19172 55.6937 7.50299 56.1463C8.98666 56.6772 10.5452 56.9658 12.1195 57.0011C12.8174 57.0259 13.5137 56.9196 14.1728 56.6876C14.6918 56.4786 14.9516 56.1747 14.9522 55.7758C14.9522 55.5668 14.8006 55.3577 14.4989 55.1487C14.0074 54.8449 12.8932 54.5219 11.1563 54.1795C7.88957 53.5151 5.62388 52.6506 4.35918 51.5861C2.98252 50.4453 2.29419 48.8492 2.29419 46.7977C2.29419 44.4034 3.1394 42.5888 4.82982 41.3539C6.52024 40.119 8.87576 39.5014 11.8964 39.501C13.3118 39.51 14.7238 39.6435 16.1162 39.8998C16.8335 40.0335 17.4615 40.1569 18.0001 40.2702C18.5387 40.3835 18.9872 40.4978 19.3456 40.6129C19.5099 40.6598 19.6543 40.7599 19.7563 40.8977C19.8686 41.0265 19.9421 41.1847 19.9683 41.3539L20.5348 46.3438C20.5609 46.5019 20.5429 46.6642 20.4829 46.8126C20.4229 46.961 20.3231 47.0898 20.1947 47.1846C20.0705 47.2816 19.9196 47.3378 19.7626 47.3455C19.6056 47.3531 19.45 47.3119 19.3171 47.2274C18.731 46.9422 18.1172 46.6762 17.4757 46.4295C16.8341 46.1828 16.1636 45.9547 15.464 45.7451C14.2414 45.3729 12.9737 45.1714 11.6966 45.1463C11.0347 45.1259 10.373 45.1932 9.72845 45.3463C9.2653 45.48 9.03388 45.7079 9.03419 46.0299C9.03419 46.3344 9.26811 46.5712 9.74295 46.743C10.1768 46.8952 10.7054 47.0616 11.3289 47.242C12.0567 47.4459 12.7946 47.6118 13.5394 47.7391C16.5984 48.3474 18.6944 49.2214 19.8275 50.3612C20.4527 50.962 20.9449 51.6889 21.2718 52.4942C21.5987 53.2996 21.753 54.1653 21.7245 55.0348C21.7481 56.1621 21.5107 57.2795 21.0312 58.2985" fill="white"/>
<path d="M30.777 39.9275C30.8929 39.9252 31.0081 39.9468 31.1153 39.991C31.2226 40.0352 31.3197 40.1011 31.4006 40.1846C31.4814 40.2614 31.5457 40.3541 31.5895 40.4569C31.6332 40.5598 31.6556 40.6705 31.6551 40.7824V47.9378H38.8779V40.7824C38.8776 40.6706 38.9001 40.5598 38.9438 40.457C38.9876 40.3542 39.0518 40.2615 39.1324 40.1846C39.2133 40.1011 39.3104 40.0353 39.4176 39.9911C39.5247 39.9469 39.6398 39.9252 39.7556 39.9275H45.9871C46.103 39.9252 46.2181 39.9468 46.3254 39.991C46.4326 40.0352 46.5297 40.1011 46.6107 40.1846C46.6914 40.2615 46.7556 40.3542 46.7993 40.457C46.8431 40.5598 46.8655 40.6706 46.8652 40.7824V61.4186C46.8655 61.5306 46.8431 61.6415 46.7993 61.7445C46.7556 61.8474 46.6914 61.9403 46.6107 62.0174C46.5295 62.1006 46.4324 62.1662 46.3251 62.2102C46.2179 62.2543 46.1029 62.2758 45.9871 62.2735H39.7556C39.6399 62.2758 39.5249 62.2542 39.4178 62.2102C39.3106 62.1662 39.2135 62.1006 39.1324 62.0174C39.0518 61.9403 38.9876 61.8474 38.9438 61.7445C38.9001 61.6415 38.8776 61.5306 38.8779 61.4186V53.8071H31.6551V61.4186C31.6556 61.5306 31.6332 61.6416 31.5895 61.7445C31.5457 61.8475 31.4814 61.9404 31.4006 62.0174C31.3195 62.1006 31.2223 62.1662 31.1151 62.2102C31.0079 62.2543 30.8928 62.2758 30.777 62.2735H24.547C24.3234 62.2679 24.1105 62.1761 23.9524 62.0169C23.7943 61.8578 23.703 61.6436 23.6974 61.4186V40.7824C23.7033 40.5576 23.7947 40.3436 23.9528 40.1845C24.1108 40.0255 24.3235 39.9335 24.547 39.9275H30.777Z" fill="white"/>
<path d="M72.0914 59.7644C69.844 61.6644 66.53 62.6144 62.1496 62.6144C57.7691 62.6144 54.4555 61.6644 52.2087 59.7644C49.9612 57.8648 48.8375 54.9672 48.8375 51.0716C48.8375 47.176 49.9612 44.2738 52.2087 42.3651C54.4543 40.4554 57.7679 39.5006 62.1496 39.5006C66.5313 39.5006 69.8452 40.4554 72.0914 42.3651C74.337 44.2741 75.4598 47.1763 75.4598 51.0716C75.4598 54.9669 74.337 57.8645 72.0914 59.7644ZM66.2141 47.3804C65.2784 46.5541 63.9236 46.141 62.1496 46.141C60.3756 46.141 59.0254 46.5541 58.0991 47.3804C57.1744 48.2074 56.712 49.4376 56.712 51.0711C56.712 52.7046 57.1744 53.935 58.0991 54.7623C59.0248 55.5886 60.3749 56.0017 62.1496 56.0017C63.9242 56.0017 65.279 55.5886 66.2141 54.7623C67.1497 53.9359 67.6176 52.7055 67.6176 51.0711C67.6176 49.4367 67.1497 48.2064 66.2141 47.3804Z" fill="white"/>
<path d="M92.8419 40.7542C92.8415 40.6422 92.8639 40.5314 92.9077 40.4285C92.9515 40.3256 93.0157 40.2328 93.0964 40.1558C93.1775 40.0725 93.2746 40.0068 93.3818 39.9626C93.4891 39.9185 93.6042 39.8969 93.72 39.8993H99.5548C99.7784 39.9048 99.9914 39.9966 100.15 40.1557C100.308 40.3149 100.399 40.5291 100.405 40.7542V55.2325C100.405 57.9874 99.3569 59.935 97.261 61.0755C95.3348 62.1011 92.5402 62.6139 88.8771 62.6139C85.1004 62.6139 82.2964 62.1011 80.4651 61.0755C78.4443 59.935 77.4341 57.8923 77.4345 54.9473V40.7542C77.4342 40.6422 77.4566 40.5314 77.5005 40.4285C77.5443 40.3256 77.6086 40.2328 77.6894 40.1558C77.7704 40.0725 77.8675 40.0068 77.9746 39.9627C78.0818 39.9186 78.1968 39.897 78.3126 39.8993H84.1188C84.2345 39.897 84.3494 39.9185 84.4565 39.9627C84.5636 40.0068 84.6606 40.0725 84.7415 40.1558C84.8225 40.2327 84.887 40.3254 84.9309 40.4283C84.9748 40.5312 84.9973 40.6422 84.9969 40.7542V52.4947C84.9969 53.8058 85.3038 54.737 85.9176 55.2881C86.5314 55.8392 87.5558 56.1147 88.9908 56.1147C90.3503 56.1147 91.3327 55.825 91.9381 55.2457C92.5434 54.6664 92.8455 53.7211 92.8443 52.4099L92.8419 40.7542Z" fill="white"/>
<path d="M110.223 55.66H120.929C121.155 55.6599 121.372 55.7464 121.537 55.9019C121.624 55.9779 121.693 56.0721 121.739 56.1778C121.786 56.2836 121.808 56.3983 121.806 56.5139V61.4186C121.8 61.6437 121.709 61.8581 121.551 62.0173C121.393 62.1765 121.18 62.2683 120.956 62.2735H103.255C103.139 62.2759 103.024 62.2544 102.917 62.2103C102.81 62.1663 102.713 62.1006 102.632 62.0174C102.551 61.9404 102.487 61.8476 102.443 61.7446C102.399 61.6416 102.376 61.5307 102.377 61.4186V40.7824C102.376 40.6717 102.397 40.5619 102.438 40.4593C102.479 40.3567 102.54 40.2634 102.618 40.1846C102.695 40.1007 102.789 40.0344 102.894 39.99C102.999 39.9457 103.112 39.9244 103.226 39.9275H109.373C109.486 39.9281 109.598 39.951 109.702 39.9951C109.807 40.0392 109.901 40.1036 109.981 40.1846C110.065 40.2594 110.133 40.3513 110.179 40.4544C110.226 40.5575 110.25 40.6693 110.25 40.7824L110.223 55.66Z" fill="white"/>
<path d="M137.005 39.9421C140.386 39.9421 143.133 40.9778 145.248 43.0491C147.344 45.1015 148.392 47.79 148.392 51.1144C148.392 54.3638 147.335 57.0429 145.22 59.1515C143.124 61.2416 140.423 62.2865 137.119 62.2862H124.656C124.541 62.2886 124.426 62.267 124.319 62.223C124.211 62.179 124.114 62.1133 124.034 62.0301C123.953 61.9531 123.888 61.8602 123.845 61.7573C123.801 61.6543 123.778 61.5434 123.779 61.4314V40.7979C123.778 40.6861 123.801 40.5753 123.844 40.4724C123.888 40.3696 123.953 40.2769 124.034 40.2001C124.114 40.1166 124.211 40.0508 124.318 40.0065C124.425 39.9623 124.54 39.9407 124.656 39.9431L137.005 39.9421ZM139.696 47.8366C139.035 47.0956 138.063 46.7253 136.78 46.7256H131.794V55.5032H136.552C137.912 55.5032 138.941 55.1376 139.64 54.4064C140.339 53.6751 140.688 52.5872 140.687 51.1427C140.687 49.6796 140.357 48.5774 139.696 47.8361" fill="white"/>
<path d="M16.5695 79.7261C17.0978 80.4576 17.6358 81.2035 18.1835 81.9636V71.4753C18.1832 71.3633 18.2057 71.2525 18.2496 71.1497C18.2936 71.0469 18.358 70.9542 18.4389 70.8774C18.5197 70.7939 18.6166 70.728 18.7238 70.6838C18.8309 70.6396 18.9459 70.618 19.0616 70.6204H24.5853C24.7011 70.6181 24.8161 70.6397 24.9233 70.6839C25.0305 70.7281 25.1275 70.794 25.2084 70.8774C25.2891 70.9544 25.3533 71.0471 25.3971 71.1499C25.4408 71.2527 25.4632 71.3634 25.4629 71.4753V92.1096C25.4633 92.2216 25.4408 92.3325 25.3971 92.4354C25.3533 92.5384 25.2891 92.6313 25.2084 92.7084C25.1274 92.7916 25.0303 92.8572 24.9231 92.9012C24.816 92.9452 24.701 92.9668 24.5853 92.9645H18.2401C18.112 92.9561 17.9869 92.9222 17.8719 92.8647C17.7409 92.813 17.6243 92.7299 17.5323 92.6227L9.54553 81.7922V92.1091C9.54586 92.2211 9.52346 92.332 9.47969 92.435C9.43593 92.5379 9.37173 92.6308 9.29103 92.7079C9.20989 92.7911 9.11272 92.8567 9.00549 92.9007C8.89826 92.9448 8.78321 92.9663 8.66742 92.964H3.14377C2.9202 92.9584 2.70733 92.8666 2.54919 92.7074C2.39106 92.5483 2.29976 92.3341 2.29419 92.1091V71.4748C2.3001 71.25 2.39151 71.0359 2.54957 70.8769C2.70763 70.7178 2.92031 70.6259 3.14377 70.6199H9.43185C9.57531 70.6281 9.71537 70.6671 9.8426 70.7343C9.96963 70.7803 10.0756 70.8713 10.1406 70.9904C10.9708 72.1305 11.7778 73.2374 12.5616 74.3111C13.3454 75.3847 14.1433 76.463 14.9555 77.546C15.5032 78.2679 16.0412 78.9945 16.5695 79.7261Z" fill="white"/>
<path d="M63.0263 92.9631C62.8027 92.9576 62.5898 92.8658 62.4316 92.7066C62.2735 92.5475 62.1822 92.3332 62.1767 92.1082V76.235H56.313C56.1993 76.2381 56.0863 76.2169 55.9814 76.1726C55.8766 76.1284 55.7823 76.0622 55.7048 75.9785C55.6257 75.8951 55.5637 75.7968 55.5224 75.6893C55.481 75.5818 55.4611 75.4671 55.4639 75.3519V71.4753C55.463 71.3646 55.4838 71.2548 55.5251 71.1522C55.5665 71.0496 55.6275 70.9562 55.7048 70.8774C55.7822 70.7935 55.8765 70.7272 55.9813 70.6829C56.0862 70.6386 56.1993 70.6173 56.313 70.6204H75.915C76.0309 70.6181 76.146 70.6397 76.2533 70.6839C76.3605 70.7281 76.4576 70.794 76.5386 70.8774C76.6193 70.9543 76.6835 71.047 76.7273 71.1499C76.7711 71.2527 76.7935 71.3634 76.7931 71.4753V75.3519C76.7941 75.4682 76.7721 75.5835 76.7283 75.6911C76.6845 75.7988 76.6199 75.8965 76.5381 75.9788C76.4564 76.061 76.3592 76.126 76.2522 76.17C76.1452 76.214 76.0306 76.2361 75.915 76.235H70.0788V92.1096C70.0804 92.3333 69.9939 92.5486 69.8384 92.7084C69.7607 92.7919 69.6664 92.8579 69.5616 92.9021C69.4567 92.9462 69.3438 92.9675 69.2302 92.9645L63.0263 92.9631Z" fill="white"/>
<path d="M93.9372 70.6199C94.0531 70.6176 94.1682 70.6392 94.2755 70.6834C94.3827 70.7276 94.4799 70.7935 94.5608 70.8769C94.6416 70.9538 94.7059 71.0465 94.7497 71.1493C94.7934 71.2522 94.8158 71.3629 94.8153 71.4748V78.6302H102.038V71.4748C102.037 71.363 102.06 71.2522 102.104 71.1494C102.147 71.0466 102.212 70.9539 102.292 70.8769C102.373 70.7935 102.47 70.7277 102.577 70.6835C102.684 70.6392 102.8 70.6176 102.915 70.6199H109.146C109.262 70.6176 109.377 70.6392 109.485 70.6834C109.592 70.7276 109.689 70.7935 109.77 70.8769C109.851 70.9539 109.915 71.0466 109.959 71.1494C110.002 71.2522 110.025 71.363 110.024 71.4748V92.1091C110.025 92.2211 110.002 92.332 109.959 92.435C109.915 92.5379 109.851 92.6308 109.77 92.7079C109.689 92.7911 109.592 92.8567 109.484 92.9007C109.377 92.9448 109.262 92.9663 109.146 92.964H102.916C102.8 92.9663 102.685 92.9448 102.578 92.9007C102.471 92.8567 102.374 92.7911 102.293 92.7079C102.212 92.6308 102.148 92.5379 102.104 92.435C102.06 92.332 102.038 92.2211 102.038 92.1091V84.4995H94.8149V92.1091C94.8153 92.2211 94.793 92.3321 94.7492 92.435C94.7054 92.538 94.6412 92.6309 94.5604 92.7079C94.4792 92.7911 94.3821 92.8567 94.2748 92.9007C94.1676 92.9448 94.0526 92.9663 93.9368 92.964H87.7053C87.4817 92.9584 87.2688 92.8666 87.1107 92.7074C86.9526 92.5483 86.8613 92.3341 86.8557 92.1091V71.4748C86.8616 71.25 86.953 71.0359 87.1111 70.8769C87.2691 70.7178 87.4818 70.6259 87.7053 70.6199H93.9372Z" fill="white"/>
<path d="M127.404 71.4465C127.404 71.3346 127.426 71.2238 127.47 71.1208C127.514 71.0179 127.578 70.9251 127.659 70.8482C127.74 70.7648 127.837 70.6991 127.944 70.6549C128.051 70.6108 128.166 70.5893 128.282 70.5917H134.116C134.34 70.5972 134.553 70.689 134.711 70.8481C134.869 71.0073 134.96 71.2215 134.966 71.4465V85.9249C134.966 88.6797 133.918 90.6274 131.822 91.7678C129.896 92.7934 127.101 93.3063 123.438 93.3063C119.661 93.3063 116.857 92.7934 115.026 91.7678C113.005 90.6274 111.995 88.5846 111.995 85.6396V71.4465C111.995 71.3345 112.017 71.2236 112.061 71.1207C112.105 71.0178 112.17 70.925 112.251 70.8482C112.332 70.7648 112.429 70.699 112.536 70.6549C112.643 70.6107 112.758 70.5892 112.873 70.5917H118.68C118.796 70.5894 118.911 70.6109 119.018 70.6551C119.125 70.6992 119.222 70.7649 119.303 70.8482C119.384 70.9252 119.448 71.018 119.492 71.1209C119.536 71.2238 119.558 71.3346 119.558 71.4465V83.1889C119.558 84.5001 119.865 85.4313 120.478 85.9823C121.092 86.5334 122.117 86.809 123.552 86.809C124.911 86.809 125.894 86.5193 126.499 85.94C127.104 85.3606 127.406 84.4154 127.405 83.1042L127.404 71.4465Z" fill="white"/>
<path d="M144.955 85.07V92.1096C144.956 92.2216 144.933 92.3325 144.889 92.4354C144.846 92.5384 144.781 92.6313 144.701 92.7084C144.62 92.7917 144.522 92.8574 144.415 92.9015C144.308 92.9456 144.193 92.9672 144.077 92.965H137.789C137.566 92.9594 137.353 92.8674 137.195 92.7082C137.036 92.549 136.945 92.3347 136.939 92.1096V71.4753C136.945 71.2502 137.037 71.0361 137.195 70.8769C137.353 70.7177 137.566 70.6258 137.789 70.6199H152.008C154.444 70.6199 156.398 71.1616 157.871 72.2449C158.619 72.7604 159.228 73.4546 159.643 74.2654C160.058 75.0761 160.267 75.9779 160.25 76.8898C160.25 79.0553 159.599 80.623 158.296 81.5931C157.944 81.8589 157.57 82.0923 157.177 82.2907C156.725 82.5206 156.255 82.7158 155.774 82.8749C156.328 83.1637 156.846 83.5175 157.318 83.9289C157.708 84.2724 158.064 84.6543 158.38 85.0691L162.26 91.6525C162.351 91.7813 162.404 91.9335 162.412 92.0913C162.42 92.2492 162.383 92.4061 162.306 92.5437C162.229 92.6813 162.114 92.7939 161.975 92.8682C161.837 92.9426 161.68 92.9757 161.523 92.9636H154.33C154.173 92.9623 154.02 92.9131 153.891 92.8223C153.756 92.7364 153.644 92.6192 153.564 92.4806L149.938 85.6971L149.967 85.754C149.891 85.6599 149.81 85.5657 149.725 85.4716C149.647 85.3822 149.557 85.3051 149.456 85.2428C149.305 85.1292 148.72 85.0724 147.7 85.0724L144.955 85.07ZM144.786 75.7219V79.9681H148.185C149.254 80.0201 150.323 79.8552 151.328 79.4832C151.667 79.3443 151.953 79.1015 152.146 78.7893C152.339 78.4772 152.43 78.1116 152.404 77.7447C152.424 77.4367 152.357 77.1293 152.212 76.8574C152.067 76.5856 151.849 76.36 151.583 76.2063C150.845 75.8409 150.026 75.674 149.205 75.7219H144.786Z" fill="white"/>
<path d="M190.111 92.965C189.342 92.9649 188.59 92.7353 187.951 92.3052C187.311 91.8752 186.813 91.264 186.518 90.549C186.224 89.8339 186.147 89.0471 186.297 88.2881C186.447 87.529 186.818 86.8317 187.361 86.2845C187.905 85.7372 188.598 85.3645 189.353 85.2135C190.107 85.0625 190.889 85.14 191.6 85.4361C192.31 85.7322 192.918 86.2337 193.345 86.8772C193.772 87.5207 194 88.2772 194.001 89.0512C194.001 90.0892 193.591 91.0847 192.861 91.8186C192.132 92.5526 191.143 92.965 190.111 92.965Z" fill="white"/>
<path d="M72.9181 19.1054C72.5728 19.103 72.228 19.0908 71.829 19.0818C72.1035 15.0272 70.8555 11.0166 68.332 7.84362L65.416 11.6496C65.7027 10.2933 66.0754 8.95675 66.5318 7.64826C66.9884 6.22848 66.9842 6.22425 65.7931 5.27051C64.1691 3.94256 62.2915 2.96437 60.2764 2.39659C59.9307 5.9884 59.5925 9.5049 59.2542 13.0172H59.0554C59.0367 12.6486 59.0086 12.2795 59.0002 11.91C58.9019 8.5554 58.8252 5.1999 58.6849 1.84722C58.6641 1.62992 58.5994 1.41919 58.4948 1.22792C58.3902 1.03665 58.248 0.868864 58.0767 0.734841C56.5511 -0.310223 54.9685 -0.159583 53.3788 0.662345C53.1444 0.763938 52.9472 0.936266 52.8143 1.15552C52.6815 1.37477 52.6196 1.63012 52.6373 1.88629C52.5788 5.27098 52.4922 8.65425 52.4127 12.038C52.4033 12.4315 52.379 12.8251 52.3617 13.2182L52.1652 13.2243C51.7267 9.6513 51.2879 6.07361 50.8488 2.49121C48.9082 2.99397 45.9492 4.7009 44.7408 6.03971C44.6521 6.15147 44.5896 6.28198 44.5581 6.42146C44.5266 6.56094 44.5268 6.70579 44.5588 6.84517C44.919 8.11619 45.349 9.37073 45.7466 10.6333C45.8257 10.8842 45.8715 11.1455 45.9338 11.4025L45.7621 11.4496L43.2479 7.60213C40.6081 10.8151 39.2921 14.9238 39.5708 19.0832C39.0127 19.0908 38.5215 19.0592 38.0396 19.1129C37.7098 19.1223 37.3912 19.2359 37.1291 19.4375C36.867 19.6392 36.6745 19.9187 36.5791 20.2366C36.4659 20.5352 36.4542 20.8631 36.5458 21.169C36.6374 21.475 36.8271 21.7419 37.0852 21.928C37.4931 22.1861 37.9657 22.3216 38.4476 22.3187C39.2279 22.3262 40.0082 22.3272 40.7867 22.3295H72.199V22.3366H72.875C74.2275 22.3366 74.9578 21.7486 74.9513 20.689C74.9452 19.6674 74.2285 19.1091 72.9181 19.1006" fill="#61B44B"/>
<path d="M193.773 72.3589L193.128 82.2917C193.076 82.6993 192.871 83.0713 192.554 83.3312C192.238 83.5912 191.835 83.7193 191.427 83.6893H188.793C187.885 83.6893 187.146 83.1899 187.093 82.294L186.448 72.3612C186.445 72.1343 186.487 71.909 186.571 71.6985C186.655 71.4879 186.78 71.2962 186.938 71.1345C187.096 70.9728 187.285 70.8443 187.493 70.7565C187.7 70.6686 187.924 70.6232 188.149 70.6227H192.073C192.299 70.6205 192.524 70.6641 192.733 70.751C192.942 70.8379 193.131 70.9663 193.29 71.1285C193.449 71.2908 193.573 71.4836 193.656 71.6954C193.74 71.9072 193.779 72.1336 193.773 72.3612" fill="white"/>
<path d="M43.0453 25.3164C42.9571 25.3174 42.8707 25.3417 42.7947 25.387C42.7188 25.4322 42.6561 25.4968 42.6128 25.5742C42.5696 25.6516 42.5473 25.7391 42.5484 25.8279C42.5494 25.9167 42.5736 26.0036 42.6187 26.08C44.0172 28.304 45.952 30.1359 48.2432 31.4053C50.5343 32.6747 53.1073 33.3404 55.7228 33.3404C58.3383 33.3404 60.9113 32.6747 63.2024 31.4053C65.4936 30.1359 67.4284 28.304 68.8269 26.08C68.8719 26.0036 68.8962 25.9167 68.8972 25.8279C68.8982 25.7391 68.876 25.6516 68.8328 25.5742C68.7895 25.4968 68.7268 25.4322 68.6508 25.387C68.5749 25.3417 68.4885 25.3174 68.4002 25.3164H43.0453Z" fill="#61B44B"/>
<path d="M93.3893 106.175C93.2487 106.034 93.1528 105.855 93.1139 105.659C93.075 105.464 93.0948 105.261 93.1708 105.077C93.2468 104.892 93.3756 104.735 93.5407 104.625C93.7058 104.515 93.8999 104.456 94.098 104.457C94.226 104.455 94.3529 104.48 94.4706 104.531C94.5884 104.581 94.6945 104.655 94.782 104.749C94.9635 104.942 95.0647 105.197 95.0647 105.462C95.0647 105.727 94.9635 105.983 94.782 106.175C94.6944 106.269 94.5884 106.343 94.4706 106.394C94.3528 106.444 94.2259 106.469 94.098 106.467C93.9663 106.47 93.8355 106.445 93.7136 106.395C93.5917 106.345 93.4813 106.27 93.3893 106.175M94.8063 116.788H93.3425V107.908H94.8077L94.8063 116.788Z" fill="white"/>
<path d="M104.372 108.727C104.722 109.104 104.991 109.55 105.163 110.036C105.334 110.522 105.405 111.039 105.37 111.554V116.788H103.92V111.765C103.97 111.027 103.734 110.298 103.26 109.732C103.026 109.492 102.744 109.306 102.434 109.184C102.123 109.062 101.79 109.008 101.457 109.026C101.115 109.009 100.775 109.065 100.457 109.191C100.139 109.317 99.8515 109.509 99.6128 109.755C99.1202 110.346 98.875 111.107 98.9289 111.877V116.787H97.4641V107.908H98.9293V109.172C99.2197 108.718 99.6293 108.353 100.113 108.119C100.627 107.867 101.192 107.739 101.763 107.746C102.241 107.726 102.718 107.802 103.166 107.97C103.614 108.139 104.024 108.396 104.372 108.726" fill="white"/>
<path d="M107.979 106.175C107.838 106.034 107.742 105.855 107.704 105.659C107.665 105.464 107.684 105.261 107.76 105.077C107.836 104.892 107.965 104.735 108.13 104.625C108.295 104.515 108.489 104.456 108.688 104.457C108.816 104.455 108.942 104.48 109.06 104.531C109.178 104.581 109.284 104.655 109.372 104.749C109.553 104.942 109.654 105.197 109.654 105.462C109.654 105.727 109.553 105.983 109.372 106.175C109.284 106.269 109.178 106.343 109.06 106.394C108.942 106.444 108.816 106.469 108.688 106.467C108.556 106.47 108.425 106.445 108.303 106.395C108.181 106.345 108.071 106.27 107.979 106.175M109.396 116.788H107.931V107.908H109.396V116.788Z" fill="white"/>
<path d="M113.84 109.123V114.357C113.824 114.52 113.839 114.685 113.886 114.843C113.933 115 114.011 115.146 114.114 115.273C114.386 115.479 114.725 115.575 115.064 115.54H116.143V116.788H114.823C114.162 116.839 113.506 116.636 112.987 116.22C112.762 115.97 112.591 115.674 112.486 115.354C112.381 115.033 112.343 114.694 112.375 114.357V109.123H111.232V107.908H112.375V105.672H113.84V107.908H116.143V109.123H113.84Z" fill="white"/>
<path d="M118.123 106.175C117.983 106.034 117.887 105.855 117.848 105.659C117.809 105.464 117.829 105.261 117.905 105.077C117.981 104.892 118.11 104.735 118.275 104.625C118.44 104.515 118.634 104.456 118.832 104.457C118.96 104.455 119.087 104.48 119.205 104.531C119.323 104.581 119.429 104.655 119.516 104.749C119.697 104.942 119.798 105.197 119.798 105.462C119.798 105.727 119.697 105.982 119.516 106.175C119.429 106.269 119.323 106.343 119.205 106.394C119.087 106.444 118.96 106.469 118.832 106.467C118.7 106.47 118.57 106.445 118.448 106.395C118.326 106.345 118.215 106.27 118.123 106.175M119.54 116.788H118.075V107.908H119.54V116.788Z" fill="white"/>
<path d="M122.197 109.926C122.54 109.262 123.062 108.709 123.702 108.33C124.349 107.949 125.087 107.753 125.836 107.763C126.539 107.745 127.234 107.919 127.848 108.265C128.378 108.562 128.818 108.999 129.12 109.529V107.907H130.601V116.786H129.12V115.133C128.81 115.671 128.362 116.116 127.823 116.421C127.213 116.771 126.52 116.947 125.818 116.931C125.069 116.941 124.333 116.739 123.693 116.348C123.053 115.952 122.535 115.386 122.196 114.711C121.821 113.969 121.633 113.146 121.648 112.313C121.63 111.483 121.818 110.662 122.196 109.923M128.717 110.579C128.469 110.104 128.092 109.708 127.63 109.437C127.172 109.179 126.655 109.042 126.13 109.04C125.604 109.039 125.087 109.173 124.627 109.429C124.168 109.697 123.794 110.09 123.548 110.563C123.27 111.103 123.131 111.705 123.145 112.313C123.13 112.929 123.269 113.539 123.548 114.087C123.793 114.565 124.167 114.964 124.627 115.238C125.081 115.504 125.599 115.641 126.124 115.635C126.652 115.64 127.172 115.503 127.63 115.238C128.093 114.966 128.47 114.567 128.717 114.087C128.995 113.545 129.133 112.94 129.119 112.33C129.134 111.722 128.995 111.119 128.717 110.579" fill="white"/>
<path d="M135.031 109.123V114.357C135.014 114.52 135.03 114.685 135.077 114.843C135.124 115 135.201 115.146 135.304 115.273C135.576 115.479 135.916 115.575 136.255 115.54H137.333V116.788H136.013C135.352 116.839 134.696 116.636 134.177 116.22C133.952 115.97 133.782 115.674 133.676 115.354C133.571 115.033 133.533 114.694 133.566 114.357V109.123H132.423V107.908H133.566V105.672H135.031V107.908H137.333V109.123H135.031Z" fill="white"/>
<path d="M139.314 106.175C139.173 106.034 139.078 105.855 139.039 105.659C139 105.464 139.02 105.261 139.096 105.077C139.172 104.893 139.3 104.735 139.465 104.625C139.63 104.515 139.824 104.456 140.022 104.457C140.15 104.455 140.277 104.48 140.395 104.531C140.513 104.581 140.619 104.655 140.707 104.749C140.888 104.942 140.988 105.197 140.988 105.462C140.988 105.727 140.888 105.982 140.707 106.175C140.619 106.269 140.513 106.343 140.395 106.394C140.277 106.444 140.15 106.469 140.022 106.467C139.891 106.47 139.76 106.445 139.638 106.395C139.516 106.345 139.406 106.27 139.314 106.175M140.731 116.788H139.266V107.908H140.731V116.788Z" fill="white"/>
<path d="M146.673 115.427L149.41 107.908H150.972L147.51 116.788H145.803L142.341 107.908H143.919L146.673 115.427Z" fill="white"/>
<path d="M160.585 112.899H153.532C153.532 113.273 153.607 113.644 153.753 113.988C153.898 114.333 154.111 114.644 154.378 114.904C154.646 115.164 154.962 115.367 155.309 115.502C155.656 115.636 156.027 115.699 156.398 115.687C156.96 115.707 157.514 115.551 157.984 115.241C158.402 114.952 158.716 114.534 158.878 114.05H160.456C160.232 114.886 159.732 115.62 159.038 116.132C158.27 116.685 157.342 116.966 156.398 116.932C155.613 116.946 154.838 116.751 154.152 116.367C153.493 115.99 152.954 115.431 152.599 114.755C152.212 114.008 152.018 113.175 152.037 112.333C152.018 111.495 152.206 110.666 152.585 109.919C152.931 109.247 153.465 108.692 154.122 108.323C154.821 107.941 155.606 107.748 156.401 107.764C157.176 107.749 157.943 107.939 158.623 108.315C159.252 108.668 159.769 109.193 160.112 109.83C160.468 110.5 160.648 111.25 160.635 112.01C160.635 112.307 160.619 112.605 160.589 112.901M158.753 110.252C158.513 109.853 158.163 109.532 157.747 109.328C157.308 109.114 156.825 109.006 156.338 109.012C155.64 108.996 154.962 109.252 154.446 109.725C153.905 110.243 153.584 110.952 153.552 111.702H159.123C159.137 111.193 159.009 110.691 158.753 110.252Z" fill="white"/>
<path d="M9.63726 114.224H4.74378L3.84181 116.735H2.29797L6.35545 105.506H8.04618L12.0882 116.735H10.5444L9.63726 114.224ZM9.21622 113.025L7.18725 107.321L5.16015 113.024L9.21622 113.025Z" fill="white"/>
<path d="M20.0474 107.007C19.4736 107.541 19.0217 108.193 18.7229 108.919C18.424 109.645 18.2854 110.428 18.3164 111.214C18.3097 112.01 18.4603 112.799 18.7594 113.536C19.049 114.25 19.4867 114.894 20.0432 115.424C20.5948 115.944 21.2462 116.344 21.9575 116.601C22.7274 116.873 23.5386 117.008 24.3547 117C25.8496 117.014 27.3207 116.621 28.6119 115.863V113.246C27.9912 113.686 27.3146 114.041 26.6002 114.301C25.9545 114.533 25.2743 114.653 24.5886 114.656C24.1336 114.678 23.6788 114.607 23.2524 114.446C22.8259 114.285 22.4368 114.037 22.1091 113.719C21.7945 113.386 21.5502 112.992 21.3911 112.561C21.232 112.131 21.1613 111.672 21.1833 111.213C21.1579 110.745 21.2308 110.278 21.3974 109.84C21.5639 109.403 21.8203 109.006 22.1498 108.675C22.8786 108.03 23.8304 107.699 24.7996 107.754C25.432 107.756 26.0603 107.856 26.662 108.052C27.3167 108.267 27.9397 108.569 28.5141 108.951V106.323C27.9038 106.022 27.2616 105.791 26.5998 105.635C25.949 105.484 25.2831 105.409 24.6152 105.411C22.9449 105.332 21.3085 105.903 20.046 107.006" fill="white"/>
<path d="M42.396 110.3V116.811H45.2577V113.794H49.0059V116.811H51.8672V110.3C51.8734 109.671 51.7555 109.046 51.5203 108.462C51.2851 107.879 50.9373 107.348 50.4969 106.9C50.0566 106.453 49.5324 106.097 48.9548 105.855C48.3771 105.612 47.7575 105.488 47.1316 105.488C46.5057 105.488 45.886 105.612 45.3084 105.855C44.7308 106.097 44.2066 106.453 43.7662 106.9C43.3259 107.348 42.9781 107.879 42.7429 108.462C42.5077 109.046 42.3898 109.671 42.396 110.3ZM49.0059 111.781H45.2577V110.225C45.2577 109.725 45.4551 109.245 45.8066 108.892C46.1581 108.538 46.6348 108.339 47.1318 108.339C47.6289 108.339 48.1056 108.538 48.457 108.892C48.8085 109.245 49.0059 109.725 49.0059 110.225V111.781Z" fill="white"/>
<path d="M76.7495 105.608V107.69H82.3663C80.325 110.728 78.2843 113.765 76.2443 116.803H87.0759V114.64H81.0297L87.1086 105.608H76.7495Z" fill="white"/>
<path d="M71.7134 105.608V112.282L65.7482 105.608H63.3075V116.803H66.0607V109.769L72.2851 116.803H74.4652V105.608H71.7134Z" fill="white"/>
<path d="M54.4239 106.323C54.0565 106.588 53.7584 106.938 53.5554 107.344C53.3524 107.75 53.2505 108.199 53.2585 108.654C53.2452 109.069 53.3176 109.482 53.4714 109.867C53.6251 110.252 53.8568 110.601 54.1516 110.892C54.7495 111.475 55.8411 112.048 57.4264 112.61C57.8638 112.732 58.2771 112.928 58.6484 113.191C58.7439 113.286 58.8167 113.402 58.8614 113.529C58.906 113.656 58.9213 113.792 58.9062 113.926C58.891 114.061 58.8457 114.19 58.7737 114.304C58.7018 114.418 58.605 114.514 58.4907 114.585C58.1057 114.774 57.6785 114.861 57.2505 114.836C56.6783 114.83 56.1114 114.725 55.5752 114.524C54.8338 114.23 54.1235 113.862 53.455 113.426V115.912C54.6143 116.63 55.9505 117.006 57.3118 116.999C58.4581 117.067 59.5949 116.755 60.5487 116.112C60.9258 115.831 61.229 115.463 61.432 115.037C61.6349 114.612 61.7315 114.143 61.7131 113.672C61.7267 113.1 61.6001 112.535 61.3445 112.024C61.0911 111.547 60.7127 111.148 60.2502 110.871C59.5195 110.468 58.7557 110.128 57.9672 109.855C57.7501 109.776 57.5869 109.714 57.4807 109.673C57.0762 109.538 56.6959 109.339 56.3546 109.082C56.2461 109.008 56.1559 108.91 56.091 108.795C56.0261 108.681 55.9883 108.552 55.9803 108.421C55.9793 108.281 56.0181 108.145 56.0921 108.027C56.1661 107.91 56.2722 107.816 56.3976 107.757C56.7764 107.581 57.1926 107.501 57.6093 107.525C58.16 107.535 58.7062 107.627 59.2299 107.799C59.9233 108.02 60.5964 108.302 61.2415 108.64V106.34C60.6389 106.048 60.0074 105.82 59.3576 105.66C58.7357 105.506 58.0977 105.428 57.4573 105.427C56.3755 105.376 55.3079 105.691 54.4248 106.322" fill="white"/>
<path d="M37.9263 105.608V110.099H32.972V105.608H30.1875V116.803H32.972V112.263H37.9263V116.803H40.7127V105.608H37.9263Z" fill="white"/>
</g>
</g>
<defs>
<clipPath id="clip0_9_837">
<rect width="194" height="117" fill="white"/>
</clipPath>
</defs>
</svg>
