<svg width="2405" height="70" viewBox="0 0 2405 70" fill="none" xmlns="http://www.w3.org/2000/svg">
<g clip-path="url(#clip0_5_49)">
<rect width="2405" height="70" fill="white"/>
<rect width="1604.02" height="91" fill="black"/>
<rect x="19" y="-17.9033" width="39.5703" height="160" transform="rotate(-19.3278 19 -17.9033)" fill="#FEC400"/>
<rect x="102" y="-17.9033" width="39.5703" height="160" transform="rotate(-19.3278 102 -17.9033)" fill="#FEC400"/>
<rect x="774" y="-17.9033" width="39.5703" height="160" transform="rotate(-19.3278 774 -17.9033)" fill="#FEC400"/>
<rect x="438" y="-17.9033" width="39.5703" height="160" transform="rotate(-19.3278 438 -17.9033)" fill="#FEC400"/>
<rect x="1110" y="-17.9033" width="39.5703" height="160" transform="rotate(-19.3278 1110 -17.9033)" fill="#FEC400"/>
<rect x="270" y="-17.9033" width="39.5703" height="160" transform="rotate(-19.3278 270 -17.9033)" fill="#FEC400"/>
<rect x="942" y="-17.9033" width="39.5703" height="160" transform="rotate(-19.3278 942 -17.9033)" fill="#FEC400"/>
<rect x="606" y="-17.9033" width="39.5703" height="160" transform="rotate(-19.3278 606 -17.9033)" fill="#FEC400"/>
<rect x="1278" y="-17.9033" width="39.5703" height="160" transform="rotate(-19.3278 1278 -17.9033)" fill="#FEC400"/>
<rect x="1530" y="-17.9033" width="39.5703" height="160" transform="rotate(-19.3278 1530 -17.9033)" fill="#FEC400"/>
<rect x="186" y="-17.9033" width="39.5703" height="160" transform="rotate(-19.3278 186 -17.9033)" fill="#FEC400"/>
<rect x="858" y="-17.9033" width="39.5703" height="160" transform="rotate(-19.3278 858 -17.9033)" fill="#FEC400"/>
<rect x="522" y="-17.9033" width="39.5703" height="160" transform="rotate(-19.3278 522 -17.9033)" fill="#FEC400"/>
<rect x="1194" y="-17.9033" width="39.5703" height="160" transform="rotate(-19.3278 1194 -17.9033)" fill="#FEC400"/>
<rect x="1446" y="-17.9033" width="39.5703" height="160" transform="rotate(-19.3278 1446 -17.9033)" fill="#FEC400"/>
<rect x="354" y="-17.9033" width="39.5703" height="160" transform="rotate(-19.3278 354 -17.9033)" fill="#FEC400"/>
<rect x="1026" y="-17.9033" width="39.5703" height="160" transform="rotate(-19.3278 1026 -17.9033)" fill="#FEC400"/>
<rect x="690" y="-17.9033" width="39.5703" height="160" transform="rotate(-19.3278 690 -17.9033)" fill="#FEC400"/>
<rect x="1362" y="-17.9033" width="39.5703" height="160" transform="rotate(-19.3278 1362 -17.9033)" fill="#FEC400"/>
<rect x="1614" y="-17.9033" width="39.5703" height="160" transform="rotate(-19.3278 1614 -17.9033)" fill="#FEC400"/>
<rect x="1698" y="-17.9033" width="39.5703" height="160" transform="rotate(-19.3278 1698 -17.9033)" fill="#FEC400"/>
<rect x="1782" y="-17.9033" width="39.5703" height="160" transform="rotate(-19.3278 1782 -17.9033)" fill="#FEC400"/>
<rect x="1866" y="-17.9033" width="39.5703" height="160" transform="rotate(-19.3278 1866 -17.9033)" fill="#FEC400"/>
<rect x="1950" y="-17.9033" width="39.5703" height="160" transform="rotate(-19.3278 1950 -17.9033)" fill="#FEC400"/>
<rect x="2034" y="-17.9033" width="39.5703" height="160" transform="rotate(-19.3278 2034 -17.9033)" fill="#FEC400"/>
<rect x="2118" y="-17.9033" width="39.5703" height="160" transform="rotate(-19.3278 2118 -17.9033)" fill="#FEC400"/>
<rect x="2202" y="-17.9033" width="39.5703" height="160" transform="rotate(-19.3278 2202 -17.9033)" fill="#FEC400"/>
<rect x="2286" y="-17.9033" width="39.5703" height="160" transform="rotate(-19.3278 2286 -17.9033)" fill="#FEC400"/>
<rect x="2369" y="-17.9033" width="39.5703" height="160" transform="rotate(-19.3278 2369 -17.9033)" fill="#FEC400"/>
<rect x="60" y="-17.9033" width="39.5703" height="160" transform="rotate(-19.3278 60 -17.9033)" fill="black"/>
<rect x="732" y="-17.9033" width="39.5703" height="160" transform="rotate(-19.3278 732 -17.9033)" fill="black"/>
<rect x="396" y="-17.9033" width="39.5703" height="160" transform="rotate(-19.3278 396 -17.9033)" fill="black"/>
<rect x="1068" y="-17.9033" width="39.5703" height="160" transform="rotate(-19.3278 1068 -17.9033)" fill="black"/>
<rect x="228" y="-17.9033" width="39.5703" height="160" transform="rotate(-19.3278 228 -17.9033)" fill="black"/>
<rect x="900" y="-17.9033" width="39.5703" height="160" transform="rotate(-19.3278 900 -17.9033)" fill="black"/>
<rect x="564" y="-17.9033" width="39.5703" height="160" transform="rotate(-19.3278 564 -17.9033)" fill="black"/>
<rect x="1236" y="-17.9033" width="39.5703" height="160" transform="rotate(-19.3278 1236 -17.9033)" fill="black"/>
<rect x="1488" y="-17.9033" width="39.5703" height="160" transform="rotate(-19.3278 1488 -17.9033)" fill="black"/>
<rect x="144" y="-17.9033" width="39.5703" height="160" transform="rotate(-19.3278 144 -17.9033)" fill="black"/>
<rect x="816" y="-17.9033" width="39.5703" height="160" transform="rotate(-19.3278 816 -17.9033)" fill="black"/>
<rect x="480" y="-17.9033" width="39.5703" height="160" transform="rotate(-19.3278 480 -17.9033)" fill="black"/>
<rect x="1152" y="-17.9033" width="39.5703" height="160" transform="rotate(-19.3278 1152 -17.9033)" fill="black"/>
<rect x="1404" y="-17.9033" width="39.5703" height="160" transform="rotate(-19.3278 1404 -17.9033)" fill="black"/>
<rect x="312" y="-17.9033" width="39.5703" height="160" transform="rotate(-19.3278 312 -17.9033)" fill="black"/>
<rect x="984" y="-17.9033" width="39.5703" height="160" transform="rotate(-19.3278 984 -17.9033)" fill="black"/>
<rect x="648" y="-17.9033" width="39.5703" height="160" transform="rotate(-19.3278 648 -17.9033)" fill="black"/>
<rect x="1320" y="-17.9033" width="39.5703" height="160" transform="rotate(-19.3278 1320 -17.9033)" fill="black"/>
<rect x="1572" y="-17.9033" width="39.5703" height="160" transform="rotate(-19.3278 1572 -17.9033)" fill="black"/>
<rect x="1656" y="-17.9033" width="39.5703" height="160" transform="rotate(-19.3278 1656 -17.9033)" fill="black"/>
<rect x="1740" y="-17.9033" width="39.5703" height="160" transform="rotate(-19.3278 1740 -17.9033)" fill="black"/>
<rect x="1824" y="-17.9033" width="39.5703" height="160" transform="rotate(-19.3278 1824 -17.9033)" fill="black"/>
<rect x="1908" y="-17.9033" width="39.5703" height="160" transform="rotate(-19.3278 1908 -17.9033)" fill="black"/>
<rect x="1992" y="-17.9033" width="39.5703" height="160" transform="rotate(-19.3278 1992 -17.9033)" fill="black"/>
<rect x="2076" y="-17.9033" width="39.5703" height="160" transform="rotate(-19.3278 2076 -17.9033)" fill="black"/>
<rect x="2160" y="-17.9033" width="39.5703" height="160" transform="rotate(-19.3278 2160 -17.9033)" fill="black"/>
<rect x="2244" y="-17.9033" width="39.5703" height="160" transform="rotate(-19.3278 2244 -17.9033)" fill="black"/>
<rect x="2327" y="-17.9033" width="39.5703" height="160" transform="rotate(-19.3278 2327 -17.9033)" fill="black"/>
<rect y="14" width="2405" height="42" fill="black"/>
</g>
<defs>
<clipPath id="clip0_5_49">
<rect width="2405" height="70" fill="white"/>
</clipPath>
</defs>
</svg>
