<svg width="212" height="78" viewBox="0 0 212 78" fill="none" xmlns="http://www.w3.org/2000/svg">
<path d="M80.1625 18H82.3393V21.139H85.5571V18H87.7339V26.1804H85.5571V22.8511H82.3393V26.1804H80.1625V18Z" fill="white"/>
<path d="M91.9929 26.1585C91.3304 26.1585 90.7625 26.0634 90.1947 25.7781C89.7214 25.5878 89.3429 25.2073 89.0589 24.7317C88.775 24.2561 88.6804 23.7804 88.6804 23.1145C88.6804 22.5438 88.775 22.0683 89.0589 21.5927C89.3429 21.1171 89.6268 20.8317 90.1 20.5464C90.5732 20.261 91.0464 20.1659 91.6143 20.1659C92.4661 20.1659 93.1286 20.4512 93.6018 20.9268C94.075 21.4024 94.3589 22.0683 94.3589 22.9244C94.3589 23.2098 94.3589 23.3999 94.2643 23.5902H90.5732C90.6679 23.8755 90.8572 24.161 91.1411 24.3512C91.425 24.5415 91.8036 24.5414 92.2768 24.5414C92.5607 24.5414 92.9393 24.5415 93.2232 24.4464C93.5071 24.3512 93.7911 24.2561 94.075 24.161L94.2643 25.5878C93.9804 25.6829 93.6018 25.8732 93.2232 25.8732C92.75 26.1585 92.3714 26.1585 91.9929 26.1585ZM92.4661 22.5439C92.4661 22.2585 92.3714 22.0683 92.1821 21.8781C91.9929 21.6878 91.8036 21.5927 91.5196 21.5927C90.9518 21.5927 90.6679 21.8781 90.4786 22.5439H92.4661Z" fill="white"/>
<path d="M97.1036 17.7878H99.2804V21.1171L102.025 17.7878H104.675L101.173 21.6877L104.959 25.9682H102.214L99.2804 22.5439V25.9682H97.1036V17.7878Z" fill="white"/>
<path d="M107.23 26.1584C106.757 26.1584 106.284 26.0633 105.905 25.7779C105.527 25.4926 105.243 25.2072 104.959 24.7316C104.77 24.256 104.58 23.7804 104.58 23.2096C104.58 22.6389 104.675 22.1633 104.864 21.6877C105.054 21.2121 105.432 20.8316 105.811 20.6414C106.189 20.356 106.663 20.2609 107.136 20.2609C107.514 20.2609 107.798 20.356 108.082 20.4511C108.366 20.6414 108.555 20.8316 108.745 21.0218V20.356H110.543V25.9682H108.745V25.3023C108.555 25.5877 108.366 25.7779 108.082 25.8731C107.893 26.0633 107.514 26.1584 107.23 26.1584ZM107.704 24.4462C107.988 24.4462 108.271 24.3511 108.555 24.0657C108.745 23.8755 108.839 23.495 108.839 23.2096C108.839 22.8292 108.745 22.5438 108.555 22.3535C108.366 22.1633 108.082 21.9731 107.704 21.9731C107.42 21.9731 107.136 22.0682 106.852 22.3535C106.663 22.5438 106.568 22.9243 106.568 23.2096C106.568 23.5901 106.663 23.8755 106.852 24.0657C107.136 24.3511 107.42 24.4462 107.704 24.4462Z" fill="white"/>
<path d="M114.234 26.1585C113.382 26.1585 112.72 25.9683 112.246 25.4927C111.773 25.0171 111.584 24.3512 111.584 23.4951V20.3561H113.477V23.4C113.477 23.6854 113.571 23.9707 113.666 24.161C113.761 24.3512 113.95 24.3512 114.234 24.3512C114.518 24.3512 114.707 24.2561 114.802 24.161C114.896 23.9707 114.991 23.7805 114.991 23.4V20.3561H116.884V23.4951C116.884 24.3512 116.695 25.0171 116.221 25.4927C115.843 25.9683 115.18 26.1585 114.234 26.1585Z" fill="white"/>
<path d="M117.736 20.356H119.534V21.0218C119.723 20.7365 119.913 20.5462 120.196 20.4511C120.48 20.356 120.764 20.2609 121.143 20.2609C121.616 20.2609 122.089 20.356 122.468 20.6414C122.846 20.9267 123.13 21.2121 123.414 21.6877C123.604 22.1633 123.793 22.6389 123.793 23.2096C123.793 23.7804 123.698 24.256 123.509 24.7316C123.32 25.2072 122.941 25.5877 122.563 25.7779C122.184 26.0633 121.711 26.1584 121.238 26.1584C120.954 26.1584 120.67 26.0633 120.386 25.9682C120.102 25.8731 119.913 25.6828 119.723 25.4926V28.6316H117.736V20.356ZM120.67 24.4462C120.954 24.4462 121.237 24.3511 121.521 24.0657C121.711 23.8755 121.805 23.495 121.805 23.2096C121.805 22.8292 121.711 22.5438 121.521 22.3535C121.332 22.1633 121.048 21.9731 120.67 21.9731C120.291 21.9731 120.102 22.0682 119.818 22.3535C119.629 22.5438 119.534 22.9243 119.534 23.2096C119.534 23.5901 119.629 23.8755 119.818 24.0657C120.007 24.3511 120.291 24.4462 120.67 24.4462Z" fill="white"/>
<path d="M126.632 26.1584C126.159 26.1584 125.686 26.0633 125.307 25.7779C124.929 25.4926 124.645 25.2072 124.361 24.7316C124.171 24.256 123.982 23.7804 123.982 23.2096C123.982 22.6389 124.077 22.1633 124.266 21.6877C124.455 21.2121 124.834 20.8316 125.212 20.6414C125.591 20.356 126.064 20.2609 126.537 20.2609C126.916 20.2609 127.2 20.356 127.484 20.4511C127.768 20.6414 127.957 20.8316 128.146 21.0218V20.356H129.945V25.9682H128.146V25.3023C127.957 25.5877 127.768 25.7779 127.484 25.8731C127.389 26.0633 127.011 26.1584 126.632 26.1584ZM127.2 24.4462C127.484 24.4462 127.768 24.3511 128.052 24.0657C128.241 23.8755 128.336 23.495 128.336 23.2096C128.336 22.8292 128.241 22.5438 128.052 22.3535C127.862 22.1633 127.579 21.9731 127.2 21.9731C126.916 21.9731 126.632 22.0682 126.348 22.3535C126.159 22.5438 126.064 22.9243 126.064 23.2096C126.064 23.5901 126.159 23.8755 126.348 24.0657C126.632 24.3511 126.821 24.4462 127.2 24.4462Z" fill="white"/>
<path d="M131.08 20.356H132.973V21.2121C133.068 20.9267 133.257 20.6414 133.541 20.5462C133.73 20.356 134.014 20.2609 134.393 20.2609C134.677 20.2609 134.866 20.2609 135.055 20.356L134.866 22.1633C134.677 22.0682 134.393 22.0682 134.109 22.0682C133.73 22.0682 133.446 22.1633 133.257 22.4487C133.068 22.734 132.973 23.0194 132.973 23.5901V25.9682H131.08V20.356Z" fill="white"/>
<path d="M138.368 26.1585C137.705 26.1585 137.138 26.0634 136.57 25.7781C136.096 25.5878 135.718 25.2073 135.434 24.7317C135.15 24.2561 135.055 23.7804 135.055 23.1145C135.055 22.5438 135.15 22.0683 135.434 21.5927C135.718 21.1171 136.002 20.8317 136.475 20.5464C136.948 20.261 137.421 20.1659 137.989 20.1659C138.841 20.1659 139.504 20.4512 139.977 20.9268C140.45 21.4024 140.734 22.0683 140.734 22.9244C140.734 23.2098 140.734 23.3999 140.639 23.5902H136.948C137.043 23.8755 137.232 24.161 137.516 24.3512C137.8 24.5415 138.179 24.5414 138.652 24.5414C138.936 24.5414 139.314 24.5415 139.598 24.4464C139.882 24.3512 140.166 24.2561 140.45 24.161L140.639 25.5878C140.355 25.6829 139.977 25.8732 139.598 25.8732C139.22 26.1585 138.841 26.1585 138.368 26.1585ZM138.841 22.5439C138.841 22.2585 138.746 22.0683 138.557 21.8781C138.368 21.6878 138.179 21.5927 137.895 21.5927C137.327 21.5927 137.043 21.8781 136.854 22.5439H138.841Z" fill="white"/>
<path d="M142.438 26.0634C142.154 26.0634 141.87 25.9683 141.68 25.7781C141.491 25.5878 141.396 25.3023 141.396 25.017C141.396 24.7316 141.491 24.4463 141.68 24.2561C141.87 24.0659 142.154 23.9707 142.438 23.9707C142.721 23.9707 143.005 24.0659 143.195 24.2561C143.384 24.4463 143.479 24.7316 143.479 25.017C143.479 25.3023 143.384 25.5878 143.195 25.7781C143.005 25.9683 142.721 26.0634 142.438 26.0634Z" fill="white"/>
<path d="M146.412 17.7878H148.589V20.9268H151.807V17.7878H153.984V25.9682H151.807V22.6389H148.589V25.9682H146.412V17.7878Z" fill="white"/>
<path d="M158.148 26.1585C157.486 26.1585 156.918 26.0634 156.35 25.7781C155.877 25.5878 155.498 25.2073 155.214 24.7317C154.93 24.2561 154.836 23.7804 154.836 23.1145C154.836 22.5438 154.93 22.0683 155.214 21.5927C155.498 21.1171 155.782 20.8317 156.255 20.5464C156.729 20.261 157.202 20.1659 157.77 20.1659C158.621 20.1659 159.284 20.4512 159.757 20.9268C160.23 21.4024 160.514 22.0683 160.514 22.9244C160.514 23.2098 160.514 23.3999 160.42 23.5902H156.729C156.823 23.8755 157.012 24.161 157.296 24.3512C157.58 24.5415 157.959 24.5414 158.432 24.5414C158.716 24.5414 159.095 24.5415 159.379 24.4464C159.662 24.3512 159.946 24.2561 160.23 24.161L160.42 25.5878C160.136 25.6829 159.757 25.8732 159.379 25.8732C158.905 26.1585 158.527 26.1585 158.148 26.1585ZM158.621 22.5439C158.621 22.2585 158.527 22.0683 158.337 21.8781C158.148 21.6878 157.959 21.5927 157.675 21.5927C157.107 21.5927 156.823 21.8781 156.634 22.5439H158.621Z" fill="white"/>
<path d="M163.354 17.7878H165.53L167.802 22.3537L170.073 17.7878H172.25V25.9682H170.262V21.022L168.654 24.2561H166.95L165.341 21.022V25.9682H163.354V17.7878Z" fill="white"/>
<path d="M175.657 26.1584C175.184 26.1584 174.711 26.0633 174.332 25.7779C173.954 25.4926 173.67 25.2072 173.386 24.7316C173.196 24.256 173.007 23.7804 173.007 23.2096C173.007 22.6389 173.102 22.1633 173.291 21.6877C173.48 21.2121 173.859 20.8316 174.238 20.6414C174.616 20.356 175.089 20.2609 175.562 20.2609C175.941 20.2609 176.225 20.356 176.509 20.4511C176.793 20.6414 176.982 20.8316 177.171 21.0218V20.356H178.97V25.9682H177.171V25.3023C176.982 25.5877 176.793 25.7779 176.509 25.8731C176.32 26.0633 176.036 26.1584 175.657 26.1584ZM176.225 24.4462C176.509 24.4462 176.793 24.3511 177.077 24.0657C177.266 23.8755 177.361 23.495 177.361 23.2096C177.361 22.8292 177.266 22.5438 177.077 22.3535C176.888 22.1633 176.604 21.9731 176.225 21.9731C175.941 21.9731 175.657 22.0682 175.373 22.3535C175.184 22.5438 175.089 22.9243 175.089 23.2096C175.089 23.5901 175.184 23.8755 175.373 24.0657C175.562 24.3511 175.846 24.4462 176.225 24.4462Z" fill="white"/>
<path d="M180.105 20.3561H181.998V21.022C182.093 20.7366 182.377 20.5463 182.661 20.3561C182.945 20.1659 183.229 20.1659 183.607 20.1659C184.27 20.1659 184.743 20.356 185.027 20.7365C185.311 21.117 185.5 21.6878 185.5 22.5439V25.9682H183.512V22.9244C183.512 22.2585 183.229 21.9732 182.755 21.9732C182.471 21.9732 182.282 22.0683 182.187 22.2585C181.998 22.4488 181.998 22.7342 181.998 23.0195V25.9682H180.105V20.3561Z" fill="white"/>
<path d="M188.529 26.1584C188.055 26.1584 187.582 26.0633 187.204 25.7779C186.825 25.4926 186.541 25.2072 186.257 24.7316C186.068 24.256 185.879 23.7804 185.879 23.2096C185.879 22.6389 185.973 22.1633 186.162 21.6877C186.352 21.2121 186.73 20.8316 187.109 20.6414C187.487 20.356 187.961 20.2609 188.434 20.2609C188.812 20.2609 189.096 20.356 189.38 20.4511C189.664 20.6414 189.854 20.8316 190.043 21.0218V20.356H191.841V25.9682H190.043V25.3023C189.854 25.5877 189.664 25.7779 189.38 25.8731C189.286 26.0633 188.907 26.1584 188.529 26.1584ZM189.096 24.4462C189.38 24.4462 189.664 24.3511 189.948 24.0657C190.137 23.8755 190.232 23.495 190.232 23.2096C190.232 22.8292 190.137 22.5438 189.948 22.3535C189.759 22.1633 189.475 21.9731 189.096 21.9731C188.812 21.9731 188.529 22.0682 188.245 22.3535C188.055 22.5438 187.961 22.9243 187.961 23.2096C187.961 23.5901 188.055 23.8755 188.245 24.0657C188.529 24.3511 188.812 24.4462 189.096 24.4462Z" fill="white"/>
<path d="M194.964 26.1584C194.491 26.1584 194.018 26.0633 193.639 25.7779C193.261 25.4926 192.977 25.2072 192.693 24.7316C192.504 24.256 192.314 23.7804 192.314 23.2096C192.314 22.6389 192.409 22.1633 192.598 21.6877C192.787 21.2121 193.166 20.8316 193.545 20.6414C193.923 20.356 194.396 20.2609 194.87 20.2609C195.248 20.2609 195.532 20.356 195.816 20.4511C196.1 20.6414 196.289 20.8316 196.479 21.0218V20.356H198.277V25.9682H196.479V25.3023C196.289 25.5877 196.1 25.7779 195.816 25.8731C195.721 26.0633 195.343 26.1584 194.964 26.1584ZM195.532 24.4462C195.816 24.4462 196.1 24.3511 196.384 24.0657C196.573 23.8755 196.668 23.495 196.668 23.2096C196.668 22.8292 196.573 22.5438 196.384 22.3535C196.195 22.1633 195.911 21.9731 195.532 21.9731C195.248 21.9731 194.964 22.0682 194.68 22.3535C194.491 22.5438 194.396 22.9243 194.396 23.2096C194.396 23.5901 194.491 23.8755 194.68 24.0657C194.964 24.3511 195.154 24.4462 195.532 24.4462Z" fill="white"/>
<path d="M199.412 17.2171H201.4V22.4488L203.009 20.3561H205.28L203.104 22.9244L205.659 25.9683H203.293L201.4 23.5902V25.9683H199.412V17.2171Z" fill="white"/>
<path d="M206.984 19.4999C206.7 19.4999 206.416 19.4048 206.227 19.2145C206.038 19.0243 205.943 18.7389 205.943 18.4536C205.943 18.1682 206.038 17.8828 206.227 17.6926C206.416 17.5023 206.7 17.4072 206.984 17.4072C207.268 17.4072 207.552 17.5023 207.741 17.6926C207.93 17.8828 208.025 18.1682 208.025 18.4536C208.025 18.7389 207.93 19.0243 207.741 19.2145C207.552 19.4048 207.268 19.4999 206.984 19.4999ZM205.943 20.356H207.93V25.9682H205.943V20.356Z" fill="white"/>
<path d="M209.823 26.0634C209.539 26.0634 209.255 25.9683 209.066 25.7781C208.877 25.5878 208.782 25.3023 208.782 25.017C208.782 24.7316 208.877 24.4463 209.066 24.2561C209.255 24.0659 209.539 23.9707 209.823 23.9707C210.107 23.9707 210.391 24.0659 210.58 24.2561C210.77 24.4463 210.864 24.7316 210.864 25.017C210.864 25.3023 210.77 25.5878 210.58 25.7781C210.391 25.9683 210.202 26.0634 209.823 26.0634Z" fill="white"/>
<path d="M80.1625 31.5805H82.3393V34.7195H85.5571V31.5805H87.7339V39.7609H85.5571V36.4316H82.3393V39.7609H80.1625V31.5805Z" fill="white"/>
<path d="M91.9929 39.9512C91.3304 39.9512 90.7625 39.856 90.1947 39.5706C89.7214 39.3804 89.3429 39 89.0589 38.5244C88.775 38.0488 88.6804 37.5731 88.6804 36.9072C88.6804 36.3365 88.775 35.861 89.0589 35.3854C89.3429 34.9097 89.6268 34.6243 90.1 34.3389C90.5732 34.0536 91.0464 33.9585 91.6143 33.9585C92.4661 33.9585 93.1286 34.2439 93.6018 34.7195C94.075 35.1951 94.3589 35.8609 94.3589 36.717C94.3589 37.0023 94.3589 37.1926 94.2643 37.3828H90.5732C90.6679 37.6682 90.8572 37.9536 91.1411 38.1438C91.425 38.334 91.8036 38.334 92.2768 38.334C92.5607 38.334 92.9393 38.3341 93.2232 38.239C93.5071 38.1439 93.7911 38.0488 94.075 37.9536L94.2643 39.3805C93.9804 39.4756 93.6018 39.6658 93.2232 39.6658C92.75 39.9512 92.3714 39.9512 91.9929 39.9512ZM92.4661 36.3366C92.4661 36.0512 92.3714 35.861 92.1821 35.6707C91.9929 35.4805 91.8036 35.3854 91.5196 35.3854C90.9518 35.3854 90.6679 35.6707 90.4786 36.3366H92.4661Z" fill="white"/>
<path d="M96.441 31.5805H98.7125L99.9428 37.0024L101.457 31.6755H103.255L104.864 36.9072L106.095 31.5805H108.366L105.905 39.7609H103.918L102.404 34.5292L100.795 39.7609H98.9018L96.441 31.5805Z" fill="white"/>
<path d="M108.745 31.0098H110.637V34.8146C110.827 34.5293 111.016 34.339 111.3 34.2439C111.584 34.1488 111.868 34.0537 112.246 34.0537C112.909 34.0537 113.382 34.2439 113.666 34.6244C113.95 35.0049 114.139 35.5756 114.139 36.3366V39.761H112.246V36.7171C112.246 36.0512 111.962 35.7659 111.489 35.7659C111.205 35.7659 111.016 35.861 110.921 36.0512C110.732 36.2415 110.732 36.5268 110.732 36.8122V39.761H108.839V31.0098H108.745Z" fill="white"/>
<path d="M117.357 39.9511C116.884 39.9511 116.411 39.856 116.032 39.5706C115.654 39.2853 115.37 38.9999 115.086 38.5243C114.896 38.0487 114.707 37.5731 114.707 37.0023C114.707 36.4316 114.802 35.956 114.991 35.4804C115.18 35.0048 115.559 34.6243 115.938 34.434C116.316 34.1487 116.789 34.0536 117.263 34.0536C117.641 34.0536 117.925 34.1487 118.209 34.2438C118.493 34.434 118.682 34.6243 118.871 34.8145V34.1487H120.67V39.7609H118.871V39.095C118.682 39.3804 118.493 39.5706 118.209 39.6658C118.02 39.856 117.736 39.9511 117.357 39.9511ZM117.83 38.2389C118.114 38.2389 118.398 38.1438 118.682 37.8584C118.871 37.6682 118.966 37.2877 118.966 37.0023C118.966 36.6218 118.871 36.3365 118.682 36.1462C118.493 35.956 118.209 35.7658 117.83 35.7658C117.546 35.7658 117.263 35.8609 116.979 36.1462C116.789 36.3365 116.695 36.717 116.695 37.0023C116.695 37.3828 116.789 37.6682 116.979 37.8584C117.263 38.1438 117.546 38.2389 117.83 38.2389Z" fill="white"/>
<path d="M121.711 31.0098H123.604V36.2415L125.307 34.1488H127.579L125.307 36.7171L127.957 39.761H125.591L123.604 37.3829V39.761H121.711V31.0098Z" fill="white"/>
<path d="M129.85 39.9511C129.377 39.9511 128.904 39.856 128.525 39.5706C128.146 39.2853 127.863 38.9999 127.579 38.5243C127.389 38.0487 127.2 37.5731 127.2 37.0023C127.2 36.4316 127.295 35.956 127.484 35.4804C127.673 35.0048 128.052 34.6243 128.43 34.434C128.809 34.1487 129.282 34.0536 129.755 34.0536C130.134 34.0536 130.418 34.1487 130.702 34.2438C130.986 34.434 131.175 34.6243 131.364 34.8145V34.1487H133.163V39.7609H131.364V39.095C131.175 39.3804 130.986 39.5706 130.702 39.6658C130.607 39.856 130.229 39.9511 129.85 39.9511ZM130.418 38.2389C130.702 38.2389 130.986 38.1438 131.27 37.8584C131.459 37.6682 131.554 37.2877 131.554 37.0023C131.554 36.6218 131.459 36.3365 131.27 36.1462C131.08 35.956 130.796 35.7658 130.418 35.7658C130.134 35.7658 129.85 35.8609 129.566 36.1462C129.377 36.3365 129.282 36.717 129.282 37.0023C129.282 37.3828 129.377 37.6682 129.566 37.8584C129.85 38.1438 130.039 38.2389 130.418 38.2389Z" fill="white"/>
<path d="M137.043 39.9511C136.475 39.9511 136.002 39.856 135.529 39.5706C135.055 39.2853 134.677 38.9999 134.393 38.5243C134.109 38.0487 134.014 37.5731 134.014 37.0023C134.014 36.4316 134.109 35.956 134.393 35.4804C134.677 35.0048 135.055 34.6243 135.434 34.434C135.907 34.1487 136.475 34.0536 137.043 34.0536C137.611 34.0536 138.084 34.1487 138.557 34.434C139.03 34.7194 139.409 35.0048 139.693 35.4804C139.977 35.956 140.071 36.4316 140.071 37.0023C140.071 37.5731 139.977 38.0487 139.693 38.5243C139.409 38.9999 139.125 39.2853 138.652 39.5706C138.179 39.856 137.611 39.9511 137.043 39.9511ZM137.043 38.2389C137.327 38.2389 137.611 38.1438 137.895 37.8584C138.084 37.6682 138.179 37.2877 138.179 37.0023C138.179 36.6218 138.084 36.3365 137.895 36.1462C137.705 35.956 137.421 35.7658 137.043 35.7658C136.759 35.7658 136.475 35.8609 136.191 36.1462C136.002 36.3365 135.907 36.717 135.907 37.0023C135.907 37.3828 136.002 37.6682 136.191 37.8584C136.475 38.1438 136.759 38.2389 137.043 38.2389Z" fill="white"/>
<path d="M140.734 34.1487H142.627V35.0048C142.721 34.7194 142.911 34.434 143.195 34.3389C143.384 34.1487 143.668 34.0536 144.046 34.0536C144.33 34.0536 144.52 34.0536 144.709 34.1487L144.52 35.956C144.33 35.8609 144.046 35.7658 143.763 35.7658C143.384 35.7658 143.1 35.8609 142.911 36.1462C142.721 36.4316 142.627 36.717 142.627 37.2877V39.6658H140.734V34.1487Z" fill="white"/>
<path d="M147.264 39.9511C146.791 39.9511 146.318 39.856 145.939 39.5706C145.561 39.2853 145.277 38.9999 144.993 38.5243C144.804 38.0487 144.614 37.5731 144.614 37.0023C144.614 36.4316 144.709 35.956 144.898 35.4804C145.087 35.0048 145.466 34.6243 145.845 34.434C146.223 34.1487 146.696 34.0536 147.17 34.0536C147.548 34.0536 147.832 34.1487 148.116 34.2438C148.4 34.434 148.589 34.6243 148.779 34.8145V34.1487H150.577V39.7609H148.873V39.095C148.684 39.3804 148.495 39.5706 148.211 39.6658C147.927 39.856 147.643 39.9511 147.264 39.9511ZM147.737 38.2389C148.021 38.2389 148.305 38.1438 148.589 37.8584C148.779 37.6682 148.873 37.2877 148.873 37.0023C148.873 36.6218 148.779 36.3365 148.589 36.1462C148.4 35.956 148.116 35.7658 147.737 35.7658C147.454 35.7658 147.17 35.8609 146.886 36.1462C146.696 36.3365 146.602 36.717 146.602 37.0023C146.602 37.3828 146.696 37.6682 146.886 37.8584C147.17 38.1438 147.454 38.2389 147.737 38.2389Z" fill="white"/>
<path d="M152.564 39.8561C152.28 39.8561 151.996 39.7609 151.807 39.5706C151.618 39.3804 151.523 39.095 151.523 38.8097C151.523 38.5243 151.618 38.239 151.807 38.0488C151.996 37.8585 152.28 37.7634 152.564 37.7634C152.848 37.7634 153.132 37.8585 153.321 38.0488C153.511 38.239 153.605 38.5243 153.605 38.8097C153.605 39.095 153.511 39.3804 153.321 39.5706C153.227 39.7609 152.943 39.8561 152.564 39.8561Z" fill="white"/>
<path d="M64.8304 5.89752H0V71.0561H64.8304V5.89752Z" fill="#005E8E"/>
<path d="M38.8982 27.6805C40.1286 27.6805 41.1697 28.7268 41.1697 30.0585C41.1697 31.3902 40.1286 32.4366 38.8982 32.4366H32.7465V41.378L38.0465 35.9561C38.8982 35.0049 40.5072 34.9097 41.4536 35.7658L41.5482 35.861V29.8683C41.6429 28.6317 42.5893 27.6805 43.8197 27.6805H52.3375C53.5679 27.6805 54.609 28.7268 54.609 30.0585C54.609 31.3902 53.5679 32.4366 52.3375 32.4366H46.1857V41.378L51.4857 35.9561C52.4322 35.0049 53.9465 34.9097 54.8929 35.7658C55.8393 36.7171 55.65 38.1439 54.7982 39.0951L45.5232 48.7024C45.1447 49.0829 44.6715 49.3683 44.009 49.3683C42.7786 49.3683 41.7375 48.3219 41.7375 46.9902V38.8097C41.6429 38.9049 41.5482 39 41.5482 39.0951L32.1786 48.7024C31.8 49.0829 31.3268 49.3683 30.6643 49.3683C29.434 49.3683 28.3929 48.3219 28.3929 46.9902V29.8683C28.4875 28.6317 29.434 27.6805 30.6643 27.6805H38.8982Z" fill="white"/>
<path d="M82.9071 54.3146C83.1911 54.3146 83.475 54.2195 83.6643 54.0293C83.8536 53.839 83.9482 53.5537 83.9482 53.1732C83.9482 52.7927 83.8536 52.5073 83.6643 52.3171C83.475 52.1268 83.1911 52.0317 82.9071 52.0317C82.6232 52.0317 82.3393 52.1268 82.15 52.3171C81.9607 52.5073 81.8661 52.7927 81.8661 53.1732C81.8661 53.5537 81.9607 53.839 82.15 54.0293C82.3393 54.2195 82.6232 54.3146 82.9071 54.3146ZM80.0678 50.4146H81.7714V50.9854C81.9607 50.7 82.15 50.5098 82.4339 50.4146C82.7178 50.3195 83.0018 50.2244 83.3803 50.2244C83.8536 50.2244 84.2321 50.3195 84.6107 50.6049C84.9893 50.7951 85.2732 51.1756 85.4625 51.5561C85.6518 52.0317 85.7464 52.5073 85.7464 53.0781C85.7464 53.6488 85.6518 54.1244 85.4625 54.5049C85.2732 54.9805 84.9893 55.2659 84.6107 55.5512C84.2321 55.8366 83.7589 55.9317 83.2857 55.9317C83.0018 55.9317 82.7178 55.8366 82.4339 55.7415C82.15 55.6463 81.9607 55.4561 81.8661 55.2659V58.3098H79.9732V50.4146H80.0678Z" fill="white"/>
<path d="M86.6928 50.4146H88.491V51.1756C88.5857 50.8902 88.775 50.7 89.0589 50.5098C89.2482 50.3195 89.5321 50.3195 89.816 50.3195C90.0053 50.3195 90.2893 50.3195 90.3839 50.4146L90.1946 52.222C90.0053 52.1268 89.7214 52.1268 89.5321 52.1268C89.1535 52.1268 88.8696 52.222 88.6803 52.5073C88.491 52.7927 88.3964 53.0781 88.3964 53.5537V55.8366H86.5035V50.4146H86.6928Z" fill="white"/>
<path d="M94.3589 52.5073C94.3589 52.222 94.2643 52.0317 94.075 51.8415C93.8857 51.6512 93.6964 51.5561 93.4125 51.5561C92.9393 51.5561 92.5607 51.8415 92.4661 52.4122H94.3589V52.5073ZM93.8857 55.9317C93.2232 55.9317 92.6553 55.8366 92.1821 55.5512C91.7089 55.361 91.3303 54.9805 91.0464 54.6C90.7625 54.2195 90.6678 53.6488 90.6678 53.0781C90.6678 52.5073 90.7625 52.0317 91.0464 51.6512C91.2357 51.1756 91.6143 50.8903 91.9928 50.6049C92.3714 50.3195 92.9393 50.2244 93.5071 50.2244C94.2643 50.2244 94.9268 50.5098 95.4 50.9854C95.8732 51.461 96.0625 52.1268 96.0625 52.9829C96.0625 53.2683 96.0625 53.4585 95.9678 53.6488H92.4661C92.5607 53.9342 92.75 54.2195 93.0339 54.3146C93.3178 54.5049 93.6964 54.5049 94.075 54.5049C94.3589 54.5049 94.6428 54.5049 94.9268 54.4098C95.2107 54.3146 95.4946 54.2195 95.6839 54.1244L95.8732 55.5512C95.5893 55.6463 95.3053 55.7415 94.9268 55.8366C94.7375 55.9317 94.3589 55.9317 93.8857 55.9317Z" fill="white"/>
<path d="M96.5357 50.4146H98.5232L99.4696 53.9342L100.511 50.4146H102.404L100.416 55.7415H98.4286L96.5357 50.4146Z" fill="white"/>
<path d="M106.189 52.5073C106.189 52.222 106.095 52.0317 105.905 51.8415C105.716 51.6512 105.527 51.5561 105.243 51.5561C104.675 51.5561 104.391 51.8415 104.296 52.4122H106.189V52.5073ZM105.716 55.9317C105.054 55.9317 104.486 55.8366 104.013 55.5512C103.539 55.361 103.161 54.9805 102.877 54.6C102.593 54.2195 102.498 53.6488 102.498 53.0781C102.498 52.5073 102.593 52.0317 102.877 51.6512C103.066 51.1756 103.445 50.8903 103.823 50.6049C104.202 50.3195 104.77 50.2244 105.338 50.2244C106.095 50.2244 106.757 50.5098 107.23 50.9854C107.704 51.461 107.893 52.1268 107.893 52.9829C107.893 53.2683 107.893 53.4585 107.798 53.6488H104.296C104.391 53.9342 104.58 54.2195 104.864 54.3146C105.148 54.5049 105.527 54.5049 105.905 54.5049C106.189 54.5049 106.473 54.5049 106.757 54.4098C107.041 54.3146 107.325 54.2195 107.514 54.1244L107.704 55.5512C107.42 55.6463 107.136 55.7415 106.757 55.8366C106.473 55.9317 106.095 55.9317 105.716 55.9317Z" fill="white"/>
<path d="M108.745 50.4146H110.543V51.0805C110.638 50.7951 110.921 50.6049 111.111 50.5098C111.395 50.3195 111.679 50.3195 112.057 50.3195C112.625 50.3195 113.098 50.5098 113.477 50.8902C113.761 51.2707 113.95 51.8415 113.95 52.6024V55.8366H112.057V52.9829C112.057 52.3171 111.773 52.0317 111.3 52.0317C111.016 52.0317 110.827 52.1268 110.732 52.3171C110.638 52.5073 110.543 52.6976 110.543 53.0781V55.9317H108.65V50.4146H108.745Z" fill="white"/>
<path d="M115.464 51.9366H114.612V50.4146H115.464V49.0829H117.357V50.4146H118.398V51.9366H117.357V55.7415H115.464V51.9366Z" fill="white"/>
<path d="M119.25 50.4146H121.143V55.7415H119.25V50.4146ZM120.196 49.5585C119.912 49.5585 119.629 49.4634 119.439 49.2732C119.25 49.0829 119.155 48.8927 119.155 48.6073C119.155 48.3219 119.25 48.1317 119.439 47.8463C119.629 47.6561 119.912 47.561 120.196 47.561C120.48 47.561 120.764 47.6561 120.954 47.8463C121.143 48.0366 121.237 48.3219 121.237 48.6073C121.237 48.8927 121.143 49.0829 120.954 49.2732C120.67 49.4634 120.48 49.5585 120.196 49.5585Z" fill="white"/>
<path d="M124.834 54.3145C125.118 54.3145 125.402 54.2194 125.591 54.0292C125.78 53.8389 125.875 53.5537 125.875 53.1732C125.875 52.7927 125.78 52.5073 125.591 52.3171C125.402 52.1268 125.118 52.0317 124.834 52.0317C124.55 52.0317 124.266 52.1268 124.077 52.3171C123.887 52.5073 123.793 52.7927 123.793 53.1732C123.793 53.5537 123.887 53.8389 124.077 54.0292C124.266 54.2194 124.455 54.3145 124.834 54.3145ZM124.834 55.9316C124.266 55.9316 123.793 55.8366 123.414 55.5512C122.941 55.361 122.657 54.9804 122.373 54.5048C122.089 54.0292 121.995 53.5537 121.995 52.9829C121.995 52.5073 122.089 52.0317 122.373 51.5561C122.657 51.0805 122.941 50.795 123.414 50.5097C123.887 50.2243 124.361 50.1293 124.929 50.1293C125.496 50.1293 125.97 50.2243 126.348 50.5097C126.821 50.6999 127.105 51.0805 127.389 51.5561C127.673 52.0317 127.768 52.5072 127.768 53.078C127.768 53.5536 127.673 54.0292 127.389 54.5048C127.105 54.9804 126.821 55.2659 126.348 55.5512C125.875 55.8366 125.402 55.9316 124.834 55.9316Z" fill="white"/>
<path d="M128.525 50.4146H130.323V51.0805C130.418 50.7951 130.607 50.6049 130.891 50.5098C131.175 50.3195 131.459 50.3195 131.838 50.3195C132.405 50.3195 132.879 50.5098 133.257 50.8902C133.541 51.2707 133.73 51.8415 133.73 52.6024V55.8366H131.838V52.9829C131.838 52.3171 131.648 52.0317 131.175 52.0317C130.891 52.0317 130.702 52.1268 130.607 52.3171C130.513 52.5073 130.418 52.6976 130.418 53.0781V55.9317H128.525V50.4146Z" fill="white"/>
<path d="M135.907 55.8366C135.623 55.8366 135.339 55.7415 135.15 55.5512C134.961 55.361 134.866 55.1707 134.866 54.7902C134.866 54.5049 134.961 54.3146 135.15 54.1244C135.339 53.9341 135.623 53.839 135.907 53.839C136.191 53.839 136.475 53.9341 136.664 54.1244C136.854 54.3146 136.948 54.5049 136.948 54.7902C136.948 55.0756 136.854 55.361 136.664 55.5512C136.475 55.7415 136.286 55.8366 135.907 55.8366Z" fill="white"/>
<path d="M142.154 55.9317C141.586 55.9317 141.113 55.8366 140.639 55.5512C140.166 55.361 139.882 54.9805 139.598 54.6C139.314 54.2195 139.22 53.6488 139.22 53.0781C139.22 52.5073 139.314 52.0317 139.598 51.6512C139.882 51.2707 140.166 50.8903 140.639 50.6049C141.113 50.3195 141.586 50.2244 142.154 50.2244C142.438 50.2244 142.816 50.2244 143.1 50.3195C143.479 50.4146 143.763 50.5098 143.952 50.6049L143.763 52.1268C143.289 51.9366 142.911 51.8415 142.438 51.8415C142.059 51.8415 141.68 51.9366 141.491 52.1268C141.302 52.3171 141.113 52.6024 141.113 52.9829C141.113 53.3634 141.207 53.6488 141.491 53.839C141.775 54.0293 142.059 54.1244 142.532 54.1244C143.005 54.1244 143.384 54.0293 143.952 53.839L144.141 55.361C143.857 55.4561 143.573 55.6463 143.289 55.6463C142.816 55.9317 142.438 55.9317 142.154 55.9317Z" fill="white"/>
<path d="M147.359 54.3146C147.643 54.3146 147.927 54.2195 148.116 54.0293C148.305 53.839 148.4 53.5537 148.4 53.1732C148.4 52.7927 148.305 52.5073 148.116 52.3171C147.927 52.1268 147.643 52.0317 147.359 52.0317C147.075 52.0317 146.791 52.1268 146.602 52.3171C146.412 52.5073 146.318 52.7927 146.318 53.1732C146.318 53.5537 146.412 53.839 146.602 54.0293C146.791 54.2195 146.98 54.3146 147.359 54.3146ZM146.791 55.9317C146.318 55.9317 145.939 55.8366 145.561 55.5512C145.182 55.361 144.898 54.9805 144.709 54.6C144.52 54.2195 144.425 53.6488 144.425 53.0781C144.425 52.5073 144.52 52.0317 144.709 51.6512C144.898 51.1756 145.182 50.8903 145.561 50.6049C145.939 50.3195 146.412 50.2244 146.886 50.2244C147.17 50.2244 147.454 50.3195 147.737 50.4146C148.021 50.5098 148.211 50.7 148.4 50.9854V50.3195H150.104V55.6463H148.4V55.0756C148.211 55.361 148.021 55.5512 147.737 55.6463C147.454 55.8366 147.17 55.9317 146.791 55.9317Z" fill="white"/>
<path d="M151.239 50.4146H153.037V51.1756C153.132 50.8902 153.321 50.7 153.605 50.5098C153.795 50.3195 154.079 50.3195 154.362 50.3195C154.552 50.3195 154.836 50.3195 154.93 50.4146L154.741 52.222C154.552 52.1268 154.268 52.1268 154.079 52.1268C153.7 52.1268 153.416 52.222 153.227 52.5073C153.037 52.7927 152.943 53.0781 152.943 53.5537V55.8366H151.05V50.4146H151.239Z" fill="white"/>
<path d="M159 52.5073C159 52.222 158.905 52.0317 158.716 51.8415C158.527 51.6512 158.338 51.5561 158.054 51.5561C157.486 51.5561 157.202 51.8415 157.107 52.4122H159V52.5073ZM158.527 55.9317C157.864 55.9317 157.296 55.8366 156.823 55.5512C156.35 55.361 155.971 54.9805 155.688 54.6C155.404 54.2195 155.309 53.6488 155.309 53.0781C155.309 52.5073 155.404 52.0317 155.688 51.6512C155.877 51.1756 156.255 50.8903 156.634 50.6049C157.013 50.3195 157.58 50.2244 158.148 50.2244C158.905 50.2244 159.568 50.5098 160.041 50.9854C160.514 51.461 160.704 52.1268 160.704 52.9829C160.704 53.2683 160.704 53.4585 160.609 53.6488H157.107C157.202 53.9342 157.391 54.2195 157.675 54.3146C157.959 54.5049 158.338 54.5049 158.716 54.5049C159 54.5049 159.284 54.5049 159.568 54.4098C159.852 54.3146 160.136 54.2195 160.42 54.1244L160.609 55.5512C160.325 55.6463 160.041 55.7415 159.663 55.8366C159.379 55.9317 159 55.9317 158.527 55.9317Z" fill="white"/>
<path d="M162.786 55.8366C162.502 55.8366 162.218 55.7415 162.029 55.5512C161.839 55.361 161.745 55.1707 161.745 54.7902C161.745 54.5049 161.839 54.3146 162.029 54.1244C162.218 53.9341 162.502 53.839 162.786 53.839C163.07 53.839 163.354 53.9341 163.543 54.1244C163.732 54.3146 163.827 54.5049 163.827 54.7902C163.827 55.0756 163.732 55.361 163.543 55.5512C163.354 55.7415 163.07 55.8366 162.786 55.8366Z" fill="white"/>
<path d="M166.382 50.4146H168.18V51.1756C168.275 50.8902 168.464 50.7 168.748 50.5098C168.938 50.3195 169.221 50.3195 169.505 50.3195C169.695 50.3195 169.979 50.3195 170.073 50.4146L169.884 52.222C169.695 52.1268 169.411 52.1268 169.221 52.1268C168.843 52.1268 168.559 52.222 168.37 52.5073C168.18 52.7927 168.086 53.0781 168.086 53.5537V55.8366H166.193V50.4146H166.382Z" fill="white"/>
<path d="M174.238 52.5073C174.238 52.222 174.143 52.0317 173.954 51.8415C173.764 51.6512 173.575 51.5561 173.291 51.5561C172.723 51.5561 172.439 51.8415 172.345 52.4122H174.238V52.5073ZM173.764 55.9317C173.102 55.9317 172.534 55.8366 172.061 55.5512C171.588 55.361 171.209 54.9805 170.925 54.6C170.641 54.2195 170.546 53.6488 170.546 53.0781C170.546 52.5073 170.641 52.0317 170.925 51.6512C171.114 51.1756 171.493 50.8903 171.871 50.6049C172.25 50.3195 172.818 50.2244 173.386 50.2244C174.143 50.2244 174.805 50.5098 175.279 50.9854C175.752 51.461 175.941 52.1268 175.941 52.9829C175.941 53.2683 175.941 53.4585 175.846 53.6488H172.345C172.439 53.9342 172.629 54.2195 172.913 54.3146C173.196 54.5049 173.575 54.5049 173.954 54.5049C174.238 54.5049 174.521 54.5049 174.805 54.4098C175.089 54.3146 175.373 54.2195 175.563 54.1244L175.752 55.5512C175.468 55.6463 175.184 55.7415 174.805 55.8366C174.521 55.9317 174.143 55.9317 173.764 55.9317Z" fill="white"/>
<path d="M179.537 55.9317C178.97 55.9317 178.496 55.8366 178.023 55.5512C177.55 55.361 177.266 54.9805 176.982 54.6C176.698 54.2195 176.604 53.6488 176.604 53.0781C176.604 52.5073 176.698 52.0317 176.982 51.6512C177.266 51.2707 177.55 50.8903 178.023 50.6049C178.496 50.3195 178.97 50.2244 179.537 50.2244C179.821 50.2244 180.2 50.2244 180.484 50.3195C180.862 50.4146 181.052 50.5098 181.336 50.6049L181.146 52.1268C180.673 51.9366 180.295 51.8415 179.821 51.8415C179.443 51.8415 179.064 51.9366 178.875 52.1268C178.591 52.3171 178.496 52.6024 178.496 52.9829C178.496 53.3634 178.591 53.6488 178.875 53.839C179.159 54.0293 179.443 54.1244 179.916 54.1244C180.389 54.1244 180.768 54.0293 181.336 53.839L181.525 55.361C181.241 55.4561 180.957 55.6463 180.673 55.6463C180.2 55.9317 179.821 55.9317 179.537 55.9317Z" fill="white"/>
<path d="M184.648 54.3145C184.932 54.3145 185.216 54.2194 185.405 54.0292C185.595 53.8389 185.689 53.5537 185.689 53.1732C185.689 52.7927 185.595 52.5073 185.405 52.3171C185.216 52.1268 184.932 52.0317 184.648 52.0317C184.364 52.0317 184.08 52.1268 183.891 52.3171C183.702 52.5073 183.607 52.7927 183.607 53.1732C183.607 53.5537 183.702 53.8389 183.891 54.0292C184.08 54.2194 184.27 54.3145 184.648 54.3145ZM184.648 55.9316C184.08 55.9316 183.607 55.8366 183.134 55.5512C182.661 55.361 182.377 54.9804 182.093 54.5048C181.809 54.0292 181.714 53.5537 181.714 52.9829C181.714 52.5073 181.809 52.0317 182.093 51.5561C182.377 51.0805 182.661 50.795 183.134 50.5097C183.607 50.2243 184.08 50.1293 184.648 50.1293C185.216 50.1293 185.689 50.2243 186.068 50.5097C186.541 50.6999 186.825 51.0805 187.109 51.5561C187.393 52.0317 187.488 52.5072 187.488 53.078C187.488 53.5536 187.393 54.0292 187.109 54.5048C186.825 54.9804 186.541 55.2659 186.068 55.5512C185.689 55.8366 185.216 55.9316 184.648 55.9316Z" fill="white"/>
<path d="M187.677 50.4146H189.664L190.611 53.9342L191.652 50.4146H193.545L191.557 55.7415H189.57L187.677 50.4146Z" fill="white"/>
<path d="M197.52 52.5073C197.52 52.222 197.425 52.0317 197.236 51.8415C197.046 51.6512 196.857 51.5561 196.573 51.5561C196.005 51.5561 195.721 51.8415 195.627 52.4122H197.52V52.5073ZM197.046 55.9317C196.384 55.9317 195.816 55.8366 195.343 55.5512C194.87 55.361 194.491 54.9805 194.207 54.6C193.923 54.2195 193.829 53.6488 193.829 53.0781C193.829 52.5073 193.923 52.0317 194.207 51.6512C194.396 51.1756 194.775 50.8903 195.154 50.6049C195.532 50.3195 196.1 50.2244 196.668 50.2244C197.425 50.2244 198.087 50.5098 198.561 50.9854C199.034 51.461 199.223 52.1268 199.223 52.9829C199.223 53.2683 199.223 53.4585 199.129 53.6488H195.627C195.721 53.9342 195.911 54.2195 196.195 54.3146C196.479 54.5049 196.857 54.5049 197.236 54.5049C197.52 54.5049 197.804 54.5049 198.087 54.4098C198.371 54.3146 198.655 54.2195 198.845 54.1244L199.034 55.5512C198.75 55.6463 198.466 55.7415 198.087 55.8366C197.804 55.9317 197.425 55.9317 197.046 55.9317Z" fill="white"/>
<path d="M200.075 50.4146H201.873V51.1756C201.968 50.8902 202.157 50.7 202.441 50.5098C202.63 50.3195 202.914 50.3195 203.198 50.3195C203.388 50.3195 203.671 50.3195 203.766 50.4146L203.577 52.222C203.388 52.1268 203.104 52.1268 202.914 52.1268C202.536 52.1268 202.252 52.222 202.063 52.5073C201.873 52.7927 201.779 53.0781 201.779 53.5537V55.8366H199.886V50.4146H200.075Z" fill="white"/>
<path d="M206.227 55.4561L204.05 50.4146H206.037L207.173 53.5537L208.12 50.4146H210.107L206.7 58.3098H204.902L206.227 55.4561Z" fill="white"/>
<path d="M210.58 55.8366C210.296 55.8366 210.013 55.7415 209.823 55.5512C209.634 55.361 209.539 55.1707 209.539 54.7902C209.539 54.5049 209.634 54.3146 209.823 54.1244C210.013 53.9341 210.296 53.839 210.58 53.839C210.864 53.839 211.148 53.9341 211.338 54.1244C211.527 54.3146 211.621 54.5049 211.621 54.7902C211.621 55.0756 211.527 55.361 211.338 55.5512C211.054 55.7415 210.864 55.8366 210.58 55.8366Z" fill="white"/>
<path d="M15.9 27.6805H24.7018C25.9321 27.6805 26.9732 28.7268 26.9732 30.0585V46.9902C26.9732 48.3219 25.9321 49.3683 24.7018 49.3683C23.4714 49.3683 22.4304 48.3219 22.4304 46.9902V39.3805C22.3357 39.4756 22.2411 39.6658 22.1464 39.761L13.4393 48.7024C13.0607 49.0829 12.5875 49.3683 11.925 49.3683C10.6946 49.3683 9.65356 48.3219 9.65356 46.9902V34.1488C9.65356 33.578 9.84285 33.1024 10.1268 32.7219L14.575 28.1561C14.9536 27.8707 15.4268 27.6805 15.9 27.6805ZM22.4304 36.7171V32.4366H16.9411L14.1964 35.1951V41.1878L18.8339 36.4317C19.7803 35.4805 21.2 35.4805 22.0518 36.4317C22.2411 36.5268 22.3357 36.6219 22.4304 36.7171Z" fill="white"/>
</svg>
