<svg width="274" height="58" viewBox="0 0 274 58" fill="none" xmlns="http://www.w3.org/2000/svg">
<g clip-path="url(#clip0_1385_2471)">
<mask id="mask0_1385_2471" style="mask-type:luminance" maskUnits="userSpaceOnUse" x="0" y="0" width="274" height="58">
<path d="M274 0H0V58H274V0Z" fill="white"/>
</mask>
<g mask="url(#mask0_1385_2471)">
<path d="M71.4065 14.386C72.6677 12.1026 74.4333 10.3215 76.7035 9.06559C78.9736 7.78683 81.5189 7.14746 84.3853 7.14746C87.8937 7.14746 90.898 8.06085 93.3968 9.91046C95.8965 11.76 97.5706 14.2719 98.4192 17.4687H90.5078C89.9119 16.2356 89.0864 15.2994 88.0084 14.66C86.9306 14.0207 85.6923 13.701 84.3165 13.701C82.0922 13.701 80.3037 14.4773 78.9278 16.0073C77.5519 17.5372 76.864 19.5923 76.864 22.1726C76.864 24.753 77.5519 26.8081 78.9278 28.338C80.3037 29.8679 82.0922 30.6443 84.3165 30.6443C85.6923 30.6443 86.9306 30.3246 88.0084 29.6853C89.0864 29.0459 89.935 28.1096 90.5078 26.8766H98.4192C97.5706 30.0735 95.8965 32.5853 93.3968 34.412C90.898 36.2388 87.8937 37.1522 84.3853 37.1522C81.5189 37.1522 78.9507 36.5128 76.7035 35.234C74.4333 33.9553 72.6906 32.197 71.4065 29.9365C70.1453 27.6758 69.5032 25.0955 69.5032 22.1726C69.5032 19.2499 70.1453 16.6695 71.4065 14.386Z" fill="white"/>
<path d="M128.435 7.48987V36.9238H121.235V24.7985H110.022V36.9238H102.822V7.48987H110.022V19.0214H121.235V7.48987H128.435Z" fill="white"/>
<path d="M152.008 31.7174H140.979L139.212 36.9238H131.669L142.377 7.48987H150.724L161.433 36.9238H153.819L152.054 31.7174H152.008ZM150.173 26.1915L146.505 15.4135L142.882 26.1915H150.173Z" fill="white"/>
<path d="M169.55 36.1702C167.831 35.4624 166.478 34.4348 165.445 33.0648C164.414 31.6946 163.887 30.0505 163.817 28.1096H171.476C171.591 29.2056 171.958 30.0278 172.623 30.5986C173.265 31.1695 174.113 31.4663 175.145 31.4663C176.178 31.4663 177.048 31.2151 177.668 30.7356C178.287 30.2561 178.585 29.571 178.585 28.7033C178.585 27.9726 178.332 27.3789 177.851 26.8994C177.369 26.4198 176.75 26.0316 176.039 25.7348C175.329 25.4379 174.297 25.0726 172.99 24.6844C171.087 24.0907 169.527 23.5198 168.312 22.9262C167.097 22.3325 166.064 21.4648 165.194 20.3229C164.322 19.1812 163.887 17.6742 163.887 15.8246C163.887 13.0844 164.873 10.9379 166.868 9.3852C168.862 7.83243 171.454 7.05606 174.664 7.05606C177.874 7.05606 180.557 7.83243 182.552 9.3852C184.547 10.9379 185.602 13.1072 185.762 15.8702H177.966C177.92 14.9112 177.553 14.1805 176.911 13.6325C176.269 13.0844 175.443 12.8104 174.434 12.8104C173.563 12.8104 172.852 13.0388 172.325 13.4955C171.797 13.9521 171.522 14.6143 171.522 15.4821C171.522 16.4411 171.981 17.1718 172.875 17.697C173.769 18.2222 175.168 18.7931 177.094 19.4096C178.997 20.0489 180.557 20.6655 181.75 21.2592C182.942 21.8529 183.974 22.6978 184.845 23.8167C185.716 24.9356 186.152 26.3742 186.152 28.1325C186.152 29.8907 185.716 31.3293 184.868 32.6994C184.02 34.0695 182.758 35.1655 181.13 35.9648C179.502 36.7868 177.576 37.1749 175.352 37.1749C173.127 37.1749 171.247 36.8325 169.55 36.1246V36.1702Z" fill="white"/>
<path d="M217.017 36.9238H209.817L197.778 18.7702V36.9238H190.578V7.48987H197.778L209.817 25.7348V7.48987H217.017V36.9238Z" fill="white"/>
<path d="M229.904 31.0553H242.631V36.9239H221.74V31.4663L234.376 13.3356H221.74V7.46713H242.631V12.9246L229.904 31.0553Z" fill="white"/>
<path d="M29.1221 58C45.2058 58 58.2442 45.0163 58.2442 29C58.2442 12.9837 45.2058 0 29.1221 0C13.0384 0 0 12.9837 0 29C0 45.0163 13.0384 58 29.1221 58Z" fill="#618182"/>
<path d="M29.1221 33.8183C29.1221 33.8183 45.2654 33.9096 46.2055 32.0829C46.2055 32.0829 47.0311 24.6159 42.9494 20.0718C42.8347 19.9576 42.6512 19.9576 42.5595 20.0718L38.9136 24.7301C38.9136 24.7301 38.776 24.7301 38.7989 24.6616L41.2754 18.6104C41.3213 18.4734 41.2754 18.3364 41.1837 18.2222C40.5416 17.6285 38.0651 15.5506 34.1669 14.523C34.0064 14.4773 33.8688 14.5915 33.8458 14.7513L32.4241 28.4065C32.4241 28.4065 32.3553 28.4522 32.3553 28.4065V14.1348C32.3553 14.1348 32.3553 12.2395 30.475 12.2395H27.7233C25.843 12.2395 25.843 14.1348 25.843 14.1348V28.4065C25.843 28.4065 25.7743 28.4522 25.7743 28.4065L24.3525 14.7513C24.3525 14.5915 24.192 14.5002 24.0315 14.523C20.1332 15.5734 17.6567 17.6285 17.0147 18.2222C16.9 18.3135 16.8771 18.4734 16.9229 18.6104L19.3995 24.6616C19.3995 24.6616 19.3306 24.7758 19.2848 24.7301L15.6388 20.0718L26.3934 33.7955C27.9985 33.7955 29.0763 33.7955 29.0763 33.7955L29.1221 33.8183Z" fill="white"/>
<path opacity="0.75" d="M26.4392 33.7955L15.6847 20.0718C15.593 19.9576 15.4095 19.9348 15.2949 20.0718C11.2132 24.6159 12.0387 32.0828 12.0387 32.0828C12.7495 33.4529 21.8302 33.7498 26.4622 33.8182L26.4392 33.7955Z" fill="white"/>
<path opacity="0.75" d="M12.1075 32.836C12.1075 32.836 11.8782 32.7675 11.7636 32.7675C10.6858 32.7903 7.22325 33.0186 7.15446 35.1194C7.08567 37.3116 25.2239 37.8367 29.0993 37.8139C29.2368 37.8139 29.3744 37.8139 29.5349 37.8139L27.0125 34.5942C15.7535 34.4572 12.7266 33.1556 12.0846 32.8588L12.1075 32.836Z" fill="white"/>
<path d="M51.067 35.0967C50.9981 33.0187 47.5585 32.7675 46.4578 32.7447C46.3433 32.7447 46.2286 32.7675 46.1139 32.8132C45.4489 33.1329 42.0781 34.5715 29.1222 34.5715C28.3884 34.5715 27.7004 34.5715 27.0584 34.5715L29.5808 37.7911C34.2357 37.7911 51.1358 37.2203 51.0899 35.0967H51.067Z" fill="white"/>
<path d="M87.2288 45.624L84.0643 56.9043H81.3814L79.2488 48.8666L77.0245 56.9043H74.3646L71.3148 45.624H73.7455L75.7404 54.3925L78.0564 45.624H80.5788L82.7572 54.3469L84.7752 45.624H87.2288Z" fill="white"/>
<path d="M91.0354 56.2876C90.1407 55.7852 89.4535 55.1002 88.9259 54.2324C88.3983 53.3647 88.146 52.36 88.146 51.2411C88.146 50.1223 88.3983 49.1632 88.9259 48.2726C89.4535 47.382 90.1407 46.697 91.0354 46.2175C91.9292 45.7151 92.8931 45.464 93.9474 45.464C95.0026 45.464 95.9887 45.7151 96.8825 46.2175C97.7542 46.7199 98.4644 47.4049 98.969 48.2726C99.4735 49.1403 99.7493 50.145 99.7493 51.2411C99.7493 52.3372 99.4966 53.3419 98.969 54.2324C98.4644 55.1002 97.7542 55.808 96.8595 56.2876C95.9656 56.79 95.0026 57.0411 93.9244 57.0411C92.847 57.0411 91.884 56.79 91.0124 56.2876H91.0354ZM95.759 54.5521C96.2866 54.2553 96.6759 53.7986 96.9747 53.2277C97.2727 52.6569 97.4101 51.9947 97.4101 51.2411C97.4101 50.4876 97.2727 49.8254 96.9747 49.2545C96.6759 48.6836 96.2866 48.2497 95.759 47.9529C95.2314 47.6561 94.6355 47.4963 93.9474 47.4963C93.2593 47.4963 92.6634 47.6561 92.1358 47.9529C91.6082 48.2497 91.1959 48.6836 90.921 49.2545C90.6222 49.8254 90.4847 50.4876 90.4847 51.2411C90.4847 51.9947 90.6222 52.6569 90.921 53.2277C91.219 53.7986 91.6313 54.2324 92.1358 54.5521C92.6634 54.849 93.2593 55.0089 93.9474 55.0089C94.6355 55.0089 95.2314 54.849 95.759 54.5521Z" fill="white"/>
<path d="M107.294 56.9043L104.794 52.4973H103.716V56.9043H101.446V45.624H105.711C106.582 45.624 107.339 45.7839 107.959 46.0807C108.578 46.3776 109.036 46.8114 109.357 47.3366C109.655 47.8618 109.815 48.4327 109.815 49.0949C109.815 49.8484 109.609 50.5106 109.173 51.1043C108.738 51.698 108.096 52.109 107.248 52.3374L109.953 56.9043H107.316H107.294ZM103.716 50.8303H105.619C106.238 50.8303 106.697 50.6933 106.995 50.3965C107.294 50.0996 107.454 49.6886 107.454 49.1634C107.454 48.6382 107.294 48.25 106.995 47.9532C106.697 47.6792 106.238 47.5193 105.619 47.5193H103.716V50.8303Z" fill="white"/>
<path d="M118.254 56.9043L114.127 51.8807V56.9043H111.857V45.624H114.127V50.6933L118.254 45.624H121.006L116.328 51.2185L121.143 56.9043H118.277H118.254Z" fill="white"/>
<path d="M128.252 56.6301C127.61 56.3561 127.128 55.9679 126.762 55.4656C126.395 54.9632 126.211 54.3695 126.188 53.6616H128.619C128.642 54.1183 128.825 54.4836 129.123 54.7577C129.421 55.0317 129.834 55.1687 130.362 55.1687C130.889 55.1687 131.302 55.0317 131.6 54.7805C131.898 54.5293 132.058 54.1867 132.058 53.7757C132.058 53.4333 131.967 53.1593 131.76 52.9537C131.554 52.7482 131.302 52.5656 130.981 52.4513C130.683 52.3372 130.247 52.2002 129.697 52.0403C128.963 51.8348 128.367 51.6065 127.908 51.401C127.449 51.1954 127.06 50.8757 126.716 50.4419C126.395 50.008 126.211 49.4372 126.211 48.7293C126.211 48.0671 126.372 47.4734 126.716 46.9939C127.06 46.4916 127.518 46.1262 128.137 45.8521C128.734 45.5781 129.444 45.464 130.224 45.464C131.393 45.464 132.334 45.738 133.067 46.3089C133.802 46.8797 134.191 47.6561 134.283 48.6836H131.783C131.783 48.2954 131.6 47.9757 131.279 47.7246C130.981 47.4734 130.568 47.3364 130.063 47.3364C129.628 47.3364 129.261 47.4506 129.009 47.6789C128.756 47.9073 128.619 48.227 128.619 48.6608C128.619 48.9577 128.711 49.2089 128.917 49.4143C129.123 49.6199 129.376 49.7797 129.674 49.8939C129.972 50.008 130.384 50.1679 130.935 50.3277C131.669 50.5333 132.265 50.7616 132.746 50.9671C133.205 51.1726 133.618 51.5151 133.939 51.9262C134.283 52.36 134.444 52.9309 134.444 53.6159C134.444 54.2096 134.283 54.7805 133.962 55.3057C133.641 55.8309 133.182 56.2419 132.586 56.5387C131.99 56.8356 131.256 56.9954 130.43 56.9954C129.605 56.9954 128.917 56.8584 128.298 56.5844L128.252 56.6301Z" fill="white"/>
<path d="M145.771 45.624V56.9043H143.501V52.109H138.64V56.9043H136.37V45.624H138.64V50.2595H143.501V45.624H145.771Z" fill="white"/>
<path d="M150.358 56.2876C149.463 55.7852 148.775 55.1002 148.247 54.2324C147.721 53.3647 147.468 52.36 147.468 51.2411C147.468 50.1223 147.721 49.1632 148.247 48.2726C148.775 47.382 149.463 46.697 150.358 46.2175C151.252 45.7151 152.215 45.464 153.27 45.464C154.324 45.464 155.31 45.7151 156.205 46.2175C157.076 46.7199 157.787 47.4049 158.291 48.2726C158.796 49.1403 159.071 50.145 159.071 51.2411C159.071 52.3372 158.819 53.3419 158.291 54.2324C157.764 55.123 157.076 55.808 156.182 56.2876C155.287 56.79 154.324 57.0411 153.27 57.0411C152.215 57.0411 151.229 56.79 150.358 56.2876ZM155.081 54.5521C155.608 54.2553 155.998 53.7986 156.296 53.2277C156.594 52.6569 156.732 51.9947 156.732 51.2411C156.732 50.4876 156.594 49.8254 156.296 49.2545C155.998 48.6836 155.608 48.2497 155.081 47.9529C154.554 47.6561 153.958 47.4963 153.27 47.4963C152.582 47.4963 151.986 47.6561 151.458 47.9529C150.931 48.2497 150.518 48.6836 150.219 49.2545C149.921 49.8254 149.784 50.4876 149.784 51.2411C149.784 51.9947 149.921 52.6569 150.219 53.2277C150.518 53.7986 150.931 54.2324 151.458 54.5521C151.986 54.849 152.582 55.0089 153.27 55.0089C153.958 55.0089 154.554 54.849 155.081 54.5521Z" fill="white"/>
<path d="M162.992 45.624V52.6114C162.992 53.365 163.198 53.9586 163.589 54.3697C163.978 54.7807 164.552 54.9862 165.285 54.9862C166.019 54.9862 166.592 54.7807 166.982 54.3697C167.394 53.9586 167.578 53.3878 167.578 52.6114V45.624H169.871V52.5886C169.871 53.5476 169.665 54.3469 169.252 55.0319C168.84 55.6941 168.289 56.1965 167.578 56.5162C166.891 56.8586 166.11 57.0185 165.24 57.0185C164.368 57.0185 163.634 56.8586 162.947 56.5162C162.259 56.1736 161.708 55.6941 161.319 55.0319C160.928 54.3697 160.722 53.5476 160.722 52.5886V45.624H162.992Z" fill="white"/>
<path d="M174.343 55.1231H178.08V56.9271H172.073V45.6468H174.343V55.146V55.1231Z" fill="white"/>
<path d="M186.634 46.3318C187.528 46.7885 188.239 47.4507 188.72 48.3184C189.202 49.1861 189.455 50.1681 189.455 51.3098C189.455 52.4515 189.202 53.4334 188.72 54.2782C188.239 55.1231 187.528 55.7854 186.634 56.2421C185.739 56.6987 184.685 56.9271 183.492 56.9271H179.525V45.6468H183.492C184.685 45.6468 185.739 45.8751 186.634 46.3318ZM186.152 54.0271C186.794 53.3877 187.138 52.4744 187.138 51.2869C187.138 50.0995 186.817 49.1861 186.152 48.5239C185.51 47.8617 184.593 47.5192 183.401 47.5192H181.795V54.9633H183.401C184.593 54.9633 185.51 54.6436 186.152 54.0042V54.0271Z" fill="white"/>
<path d="M204.726 56.904H202.456L197.32 49.1631V56.904H195.049V45.6008H197.32L202.456 53.3647V45.6008H204.726V56.904Z" fill="white"/>
<path d="M209.289 56.2876C208.395 55.7852 207.707 55.1002 207.179 54.2324C206.653 53.3647 206.4 52.36 206.4 51.2411C206.4 50.1223 206.653 49.1632 207.179 48.2726C207.707 47.382 208.395 46.697 209.289 46.2175C210.184 45.7151 211.147 45.464 212.202 45.464C213.256 45.464 214.242 45.7151 215.137 46.2175C216.008 46.7199 216.719 47.4049 217.223 48.2726C217.728 49.1403 218.003 50.145 218.003 51.2411C218.003 52.3372 217.751 53.3419 217.223 54.2324C216.719 55.1002 216.008 55.808 215.114 56.2876C214.219 56.79 213.256 57.0411 212.179 57.0411C211.101 57.0411 210.138 56.79 209.267 56.2876H209.289ZM214.013 54.5521C214.54 54.2553 214.93 53.7986 215.228 53.2277C215.526 52.6569 215.665 51.9947 215.665 51.2411C215.665 50.4876 215.526 49.8254 215.228 49.2545C214.93 48.6836 214.54 48.2497 214.013 47.9529C213.486 47.6561 212.889 47.4963 212.202 47.4963C211.514 47.4963 210.918 47.6561 210.39 47.9529C209.863 48.2497 209.45 48.6836 209.175 49.2545C208.877 49.8254 208.739 50.4876 208.739 51.2411C208.739 51.9947 208.877 52.6569 209.175 53.2277C209.473 53.7986 209.886 54.2324 210.39 54.5521C210.918 54.849 211.514 55.0089 212.202 55.0089C212.889 55.0089 213.486 54.849 214.013 54.5521Z" fill="white"/>
<path d="M227.405 45.624V47.4508H224.378V56.9043H222.108V47.4508H219.08V45.624H227.382H227.405Z" fill="white"/>
<path d="M242.333 45.624V56.9043H240.062V52.109H235.201V56.9043H232.931V45.624H235.201V50.2595H240.062V45.624H242.333Z" fill="white"/>
<path d="M246.804 45.624V52.6114C246.804 53.365 247.011 53.9586 247.401 54.3697C247.813 54.7807 248.364 54.9862 249.097 54.9862C249.831 54.9862 250.404 54.7807 250.794 54.3697C251.184 53.9586 251.39 53.3878 251.39 52.6114V45.624H253.683V52.5886C253.683 53.5476 253.477 54.3469 253.064 55.0319C252.651 55.6941 252.101 56.1965 251.39 56.5162C250.679 56.8359 249.923 57.0185 249.051 57.0185C248.18 57.0185 247.446 56.8586 246.758 56.5162C246.071 56.1736 245.52 55.6941 245.13 55.0319C244.717 54.3697 244.534 53.5476 244.534 52.5886V45.624H246.804Z" fill="white"/>
<path d="M261.732 56.9043L259.232 52.4973H258.155V56.9043H255.885V45.624H260.15C261.021 45.624 261.778 45.7839 262.397 46.0807C263.016 46.3776 263.475 46.8114 263.796 47.3366C264.094 47.8618 264.255 48.4327 264.255 49.0949C264.255 49.8484 264.048 50.5106 263.613 51.1043C263.177 51.698 262.535 52.109 261.686 52.3374L264.392 56.9043H261.755H261.732ZM258.155 50.8303H260.058C260.678 50.8303 261.136 50.6933 261.434 50.3965C261.732 50.0996 261.893 49.6886 261.893 49.1634C261.893 48.6382 261.732 48.25 261.434 47.9532C261.136 47.6792 260.678 47.5193 260.058 47.5193H258.155V50.8303Z" fill="white"/>
<path d="M274 45.624V47.4508H270.973V56.9043H268.703V47.4508H265.676V45.624H273.977H274Z" fill="white"/>
</g>
</g>
<defs>
<clipPath id="clip0_1385_2471">
<rect width="274" height="58" fill="white"/>
</clipPath>
</defs>
</svg>
